<svg width="100" height="100" viewBox="0 0 100 100" fill="none" xmlns="http://www.w3.org/2000/svg">
<path d="M61.908 6.24963V7.4701V12.8256C54.8188 15.6545 49.8185 22.6094 49.8185 30.816C49.8185 41.4346 58.3383 50.1816 68.9459 50.1816C79.4442 50.1816 88.0733 41.4442 88.0733 30.816C88.0733 22.6207 83.0387 15.6748 75.9939 12.836V6.24999L61.908 6.24963ZM47.6708 7.25239L42.6495 8.37914L43.8091 13.89C40.6943 12.6555 37.3919 11.9433 34.0286 11.9353C18.697 11.9357 6.25021 24.9893 6.25 40.9369C6.25774 46.6665 7.91991 52.2693 10.9789 57.0351L15.2843 54.14C12.7834 50.2438 11.439 45.6401 11.4326 40.9369C11.4328 27.7948 21.5421 17.25 34.0286 17.2497C36.6783 17.2554 39.2853 17.7942 41.7521 18.7383L36.4687 21.5919L38.8684 26.2755L49.2942 19.5551L47.6708 7.25239ZM64.3178 8.68912H73.5841V12.0596C72.1062 11.6852 70.5727 11.4619 68.9862 11.4595H68.9459C67.3459 11.4595 65.8014 11.6851 64.3179 12.0477L64.3178 8.68912ZM68.9459 13.9101C69.5026 13.9101 70.0563 13.9337 70.5995 14.0046C70.6848 14.0105 70.7662 14.0281 70.8516 14.0399C71.2109 14.0753 71.5683 14.1346 71.9204 14.1996C72.7499 14.3602 73.5627 14.5563 74.3504 14.8304C80.9104 17.0909 85.6735 23.3448 85.6735 30.8251C85.6735 40.116 78.1229 47.7609 68.9459 47.7609C59.644 47.7609 52.2384 40.1255 52.2384 30.8251C52.2384 23.3419 56.9123 17.1036 63.491 14.8405C63.4972 14.8384 63.505 14.832 63.5111 14.83C64.3109 14.5536 65.1355 14.3567 65.9814 14.1996C66.2995 14.1405 66.615 14.0791 66.9393 14.059C67.063 14.0472 67.1873 14.0233 67.3124 14.0233C67.8495 13.9879 68.3941 13.9289 68.9458 13.9289L68.9459 13.9101ZM68.9258 16.4123C68.8476 16.4165 68.7699 16.4283 68.6939 16.4477C60.9978 16.5882 54.9093 22.8732 54.7693 30.5508C54.7285 30.7311 54.7285 30.9183 54.7693 31.0986C54.9125 38.6817 60.8567 44.9005 68.4217 45.1805C68.4182 45.1805 68.4251 45.1805 68.4217 45.1805C68.5879 45.2636 68.781 45.307 68.9664 45.307C69.1517 45.307 69.3346 45.2636 69.5008 45.1805C77.0519 44.884 83.1632 38.5316 83.1632 30.8193C83.1632 23.0115 76.8981 16.5964 69.2185 16.4477C69.1228 16.4238 69.0243 16.412 68.9258 16.4123ZM67.7259 18.9455C67.7352 18.9444 67.7471 18.9461 67.7564 18.9455V21.2099C67.7388 21.38 67.7568 21.5521 67.809 21.7148C67.8613 21.8775 67.9468 22.0271 68.0599 22.1542C68.1731 22.2813 68.3113 22.3831 68.4657 22.4527C68.6201 22.5222 68.7873 22.5583 68.9563 22.5583C69.1253 22.5583 69.2924 22.5222 69.4468 22.4527C69.6012 22.3831 69.7395 22.2813 69.8526 22.1542C69.9658 22.0271 70.0512 21.8775 70.1035 21.7148C70.1558 21.5521 70.1737 21.38 70.1562 21.2099V18.9455C75.6797 19.5219 80.1129 24.0025 80.6828 29.5949H78.4444C78.1302 29.6053 77.8324 29.7389 77.6138 29.9676C77.3952 30.1962 77.273 30.5018 77.273 30.82C77.273 31.1382 77.3952 31.4442 77.6138 31.6728C77.8324 31.9015 78.1302 32.0351 78.4444 32.0455H80.6828C80.1131 37.6374 75.6797 42.118 70.1562 42.6948V40.4305C70.1587 40.2665 70.1287 40.1035 70.0677 39.9515C70.0067 39.7995 69.9161 39.6614 69.8013 39.5456C69.6865 39.4299 69.5498 39.3386 69.3995 39.2775C69.2491 39.2163 69.0881 39.1866 68.926 39.1899C68.6092 39.1996 68.3088 39.3351 68.09 39.5673C67.8711 39.7994 67.7513 40.1097 67.7564 40.4305V42.6948C62.1356 42.1362 57.8456 37.6509 57.2802 32.0455H59.4783C59.7924 32.0351 60.0903 31.9015 60.3088 31.6728C60.5274 31.4442 60.6496 31.1382 60.6496 30.82C60.6496 30.5018 60.5274 30.1962 60.3088 29.9676C60.0903 29.7389 59.7924 29.6053 59.4783 29.5949H57.2802C57.8449 23.9986 62.1186 19.5161 67.7259 18.9455ZM68.9258 23.4122C68.609 23.4219 68.3086 23.5574 68.0897 23.7896C67.8709 24.0217 67.751 24.3316 67.7562 24.6525V30.3392C67.7006 30.5607 67.7076 30.7933 67.7763 31.011C67.8132 31.1927 67.8904 31.3637 68.0022 31.5106C68.1141 31.6576 68.2575 31.7767 68.4216 31.8592L72.9186 36.4087C73.0271 36.5364 73.1605 36.6401 73.3105 36.7133C73.4605 36.7864 73.6237 36.8274 73.7901 36.8337C73.9564 36.8399 74.1222 36.8113 74.2772 36.7497C74.4321 36.6881 74.5728 36.5946 74.6904 36.4754C74.8081 36.3562 74.9001 36.2138 74.9608 36.0569C75.0215 35.9 75.0496 35.7322 75.0432 35.5638C75.0368 35.3954 74.9962 35.23 74.9238 35.0783C74.8514 34.9266 74.7489 34.7916 74.6226 34.6818L70.1558 30.1636V24.6528C70.1584 24.4888 70.1283 24.3258 70.0674 24.1738C70.0064 24.0218 69.9158 23.8841 69.801 23.7683C69.6862 23.6525 69.5495 23.5612 69.3991 23.5001C69.2488 23.439 69.0878 23.4089 68.9258 23.4122ZM89.4043 44.3388L85.0182 47.151C87.3443 50.9598 88.6075 55.4026 88.6078 59.9302C88.6076 73.0722 78.4882 83.6067 66.0018 83.607C63.1384 83.5997 60.3257 83.0013 57.6833 81.9007L62.9164 79.078L60.5166 74.384L50.0606 81.1044L51.6739 93.4186L56.7053 92.2822L55.5659 86.7198C58.8593 88.1304 62.383 88.9129 65.9715 88.9221H66.002C81.3335 88.9215 93.7501 75.8781 93.7503 59.9309C93.75 54.4137 92.2484 48.9958 89.4043 44.3388ZM29.1787 53.7475C18.4103 53.7475 9.65812 62.7012 9.65812 73.7435C9.65812 84.7855 18.4103 93.7499 29.1787 93.7499C39.9472 93.7499 48.6792 84.7855 48.6792 73.7435C48.6792 62.7012 39.9472 53.7475 29.1787 53.7475ZM29.1787 55.9599C38.7769 55.9599 46.5114 63.9012 46.5114 73.7435C46.5114 83.5852 38.7769 91.5375 29.1787 91.5375C19.5807 91.5375 11.826 83.5852 11.826 73.7435C11.826 63.9012 19.5807 55.9599 29.1787 55.9599ZM29.1787 58.6996C21.1196 58.6996 14.508 65.4793 14.508 73.7435C14.508 82.0074 21.1196 88.7768 29.1787 88.7768C37.2379 88.7768 43.8394 82.0074 43.8394 73.7435C43.8394 65.4793 37.2379 58.6996 29.1787 58.6996ZM29.1787 60.9333C36.0551 60.9333 41.6615 66.6923 41.6615 73.7435C41.6615 80.7945 36.0551 86.5641 29.1787 86.5641C22.3025 86.5641 16.6759 80.7945 16.6759 73.7435C16.6759 66.6923 22.3025 60.9333 29.1787 60.9333ZM29.219 63.5728C28.9257 63.5697 28.6311 63.6552 28.6846 63.8406V65.5873C27.3268 65.7869 26.3587 66.1899 25.6799 66.9841C24.904 67.7789 24.5203 68.7806 24.5203 69.9721C24.5203 70.8662 24.8079 71.6648 25.1959 72.3604C25.5556 72.8022 26.0251 73.185 26.6781 73.4767C27.028 73.6173 27.7374 73.8344 28.3115 74.0033C28.4234 74.027 28.5767 74.086 28.6644 74.0978C29.2451 74.2584 29.4032 74.2587 29.7635 74.3166C30.0857 74.352 30.4964 74.477 30.8524 74.6471C31.0023 74.7298 31.1489 74.7878 31.2658 74.8634C31.3938 74.946 31.499 75.0239 31.5582 75.1113C31.5696 75.122 31.5872 75.1348 31.5985 75.1348C31.6192 75.1584 31.629 75.1704 31.6491 75.2177C32.0214 75.598 32.1469 76.0633 32.0826 76.7261C32.0981 77.286 31.9804 77.7325 31.76 78.0908L31.7496 78.112C31.6861 78.2065 31.6092 78.3115 31.5278 78.3907C31.517 78.4019 31.5087 78.4018 31.4973 78.426C31.4911 78.4313 31.4839 78.438 31.4772 78.4498C31.4391 78.4852 31.408 78.5324 31.3663 78.5702C31.3189 78.6056 31.2589 78.6528 31.205 78.6646C31.1776 78.6764 31.153 78.7003 31.1243 78.7003C31.018 78.783 30.9075 78.8205 30.7916 78.8607C30.7766 78.8659 30.7663 78.8659 30.7513 78.8715C30.4124 78.992 30.1158 79.0321 29.9145 79.0769C29.8558 79.0873 29.8142 79.0878 29.7531 79.1123C29.4254 79.1229 29.1405 79.1254 28.6843 79.1018C28.4346 79.1018 28.1852 79.1166 27.9483 79.1018C27.5775 79.0664 27.1514 78.9412 26.7182 78.7817C26.6606 78.7699 26.6201 78.7461 26.5669 78.6988C26.1067 78.5382 25.6596 78.3163 25.3166 78.0363C25.3083 78.0311 25.3047 78.0244 25.2965 78.0126C25.0056 77.813 24.7079 77.6182 24.6109 77.5166C24.3746 77.9831 24.5202 79.1374 24.5202 79.8018C25.0051 80.0994 25.6764 80.4004 26.3553 80.5977C27.0342 80.7973 27.8116 80.8979 28.6844 80.8979V83.6481C28.577 83.9127 29.8761 83.9457 29.7532 83.6481V80.8049C31.014 80.7104 31.9821 80.2047 32.758 79.4082C33.5338 78.6133 33.8268 77.6158 33.8268 76.4205C33.8268 75.3256 33.6361 74.5356 33.1512 73.9388C32.8022 73.5809 32.4022 73.2725 31.9412 73.028C31.7256 72.8874 31.2452 72.766 30.6708 72.6455C30.0791 72.5251 29.3727 72.3975 28.7046 72.2015C28.1527 72.0408 27.6475 71.821 27.2224 71.5293C27.1713 71.5056 27.1253 71.4466 27.0813 71.4348C27.0399 71.4112 26.9788 71.3995 26.9401 71.3523C26.9138 71.3287 26.8947 71.3166 26.8695 71.2694C26.8618 71.2642 26.8468 71.2631 26.839 71.2589C26.8271 71.2483 26.8199 71.2354 26.8086 71.2236C26.4361 70.8409 26.2215 70.3471 26.2842 69.7029C26.3152 68.8667 26.6242 68.2503 27.1111 67.8423C27.5979 67.4336 28.2476 67.2257 28.9663 67.1902C29.85 67.1548 30.8207 67.3509 31.719 67.7489C31.7386 67.7543 31.7706 67.7609 31.7896 67.7727C31.8015 67.778 31.8179 67.7843 31.8299 67.7961C32.3524 68.0383 32.8478 68.3087 33.2717 68.6547C33.4518 68.1421 33.3424 67.1064 33.3424 66.4838C32.9545 66.2842 32.3676 66.082 31.6888 65.8836C31.0099 65.684 30.4317 65.5837 29.7528 65.5837V63.837C29.8094 63.6764 29.5122 63.5787 29.219 63.5728Z" fill="#68326F"/>
</svg>
