<svg width="100" height="100" viewBox="0 0 100 100" fill="none" xmlns="http://www.w3.org/2000/svg">
<path fill-rule="evenodd" clip-rule="evenodd" d="M69.0434 83.2455H30.9202C27.6993 83.2455 25.0641 80.6093 25.0641 77.3873C25.0641 74.1067 27.6993 71.5291 30.9202 71.5291H69.0434C72.2642 71.5291 74.8409 74.1067 74.8409 77.3873C74.8409 80.6093 72.2642 83.2455 69.0434 83.2455ZM30.9202 74.341C29.2219 74.341 27.9336 75.747 27.9336 77.3873C27.9336 78.969 29.2805 80.375 30.9202 80.375H69.0434C70.7416 80.375 72.03 78.969 72.03 77.3873C72.03 75.747 70.6245 74.341 69.0434 74.341H30.9202Z" fill="#68326F"/>
<path fill-rule="evenodd" clip-rule="evenodd" d="M64.2999 92.1499H35.6636C31.7401 92.1499 28.5778 89.5723 28.5778 86.2917C28.5778 83.0697 31.7401 80.4335 35.6636 80.4335C36.4249 80.4335 37.1277 81.0779 37.1277 81.898C37.1277 82.7182 36.4249 83.3626 35.6636 83.3626C33.3798 83.3626 31.3887 84.7686 31.3887 86.4089C31.3887 87.9906 33.3798 89.3966 35.6636 89.3966H64.2999C66.5838 89.3966 68.5163 87.9906 68.5163 86.4089C68.5163 84.7686 66.5838 83.3626 64.2999 83.3626C63.4801 83.3626 62.8359 82.7182 62.8359 81.898C62.8359 81.0779 63.4801 80.4335 64.2999 80.4335C68.2235 80.4335 71.3858 83.0697 71.3858 86.2917C71.3858 89.4551 68.2235 92.1499 64.2999 92.1499Z" fill="#68326F"/>
<path fill-rule="evenodd" clip-rule="evenodd" d="M50.8313 99.9414H49.133C42.8084 99.9414 37.4794 95.9578 37.128 90.8026C37.0109 89.9824 37.5965 89.338 38.4164 89.2208C39.2362 89.1623 39.8804 89.7481 39.9389 90.5096C40.2903 94.2003 44.2725 97.0123 49.133 97.0123H50.8313C55.6918 97.0123 59.674 94.2003 60.0254 90.5096C60.0839 89.7481 60.7281 89.1623 61.5479 89.2208C62.3678 89.338 62.9534 89.9824 62.8363 90.8026C62.4264 95.9578 57.1559 99.9414 50.8313 99.9414Z" fill="#68326F"/>
<path fill-rule="evenodd" clip-rule="evenodd" d="M66.1153 74.341C65.2955 74.341 64.6513 73.6965 64.6513 72.8764C65.1784 57.2349 69.102 51.1424 72.4985 45.6942C75.1337 41.5349 77.3591 37.9613 77.3591 30.4628C77.3591 15.29 65.0612 2.87053 49.7768 2.87053C34.6096 2.87053 22.2532 15.2314 22.2532 30.4628C22.2532 37.9613 24.5371 41.5349 27.1138 45.6942C30.5103 51.1424 34.4339 57.2349 34.9609 72.8764C34.9609 73.6965 34.4339 74.341 33.614 74.341C32.7942 74.341 32.15 73.8137 32.15 72.9936C31.5644 58.1137 27.9336 52.3726 24.6542 47.2173C22.1361 42.8237 19.5594 38.7815 19.5594 30.4628C19.5594 13.6497 33.2041 0 49.9525 0C66.7595 0 80.4042 13.6497 80.4042 30.4628C80.4042 38.8401 77.769 42.9408 75.0166 47.2173C71.7958 52.3726 68.1064 58.1137 67.5794 72.9936C67.5794 73.6965 66.8766 74.341 66.1153 74.341Z" fill="#68326F"/>
<path fill-rule="evenodd" clip-rule="evenodd" d="M51.9436 56.8248H47.083C46.4389 56.8248 45.8533 56.3562 45.7361 55.7704L44.2721 49.8535C43.3351 49.502 42.5153 49.092 41.6369 48.6819L36.7763 51.7868C36.1907 52.0797 35.488 52.0211 34.9609 51.611L31.5644 48.0375C31.0959 47.5688 30.9788 46.8073 31.3301 46.3386L34.4924 41.1248C34.0825 40.3046 33.7897 39.4259 33.4969 38.43L27.9336 37.1412C27.2894 36.9654 26.7624 36.4382 26.7624 35.7938V30.8729C26.7624 30.2285 27.2894 29.7012 27.8165 29.5255L33.7897 28.0609C34.0825 27.1822 34.4924 26.2449 34.9609 25.4247L31.9743 20.5624C31.6815 20.0351 31.7401 19.2736 32.15 18.8049L35.5465 15.4071C36.015 14.8799 36.7763 14.8213 37.2448 15.1142L42.5153 18.2777C43.3351 17.9262 44.2721 17.5747 45.2091 17.3404L46.4974 11.7165C46.6731 11.0721 47.2587 10.6034 47.9029 10.6034H52.7635C53.4076 10.6034 53.9932 11.0721 54.1689 11.6579L55.6329 17.5747C56.5114 17.9262 57.3312 18.2777 58.2096 18.6878L63.0702 15.7001C63.6558 15.4071 64.3585 15.4657 64.8856 15.9344L68.2821 19.3322C68.7506 19.8594 68.8677 20.5624 68.5164 21.0896L65.3541 26.2449C65.764 27.1822 66.1154 28.0609 66.3496 28.9397L71.9129 30.2285C72.6156 30.4042 73.0841 30.99 73.0841 31.6344V36.4968C73.0841 37.1412 72.6156 37.727 72.03 37.9028L66.1154 39.3673C65.764 40.246 65.3541 41.0662 64.9441 41.9449L68.0479 46.8073C68.3407 47.3931 68.2821 48.0961 67.8136 48.6233L64.2414 52.0797C63.7144 52.6069 63.0116 52.6655 62.5431 52.2554L57.3312 49.092C56.4528 49.502 55.5158 49.8535 54.6374 50.0879L53.3491 55.6532C53.1734 56.4148 52.5878 56.8248 51.9436 56.8248ZM48.2543 53.9543H50.8895L52.1193 48.6233C52.295 48.0375 52.7049 47.6274 53.1734 47.5688C54.3446 47.3345 55.5158 46.8073 56.7456 46.28C57.1555 45.9871 57.7411 45.9871 58.1511 46.3386L63.0116 49.3263L64.8856 47.4517L61.9575 42.8237C61.7233 42.355 61.6062 41.7692 61.9575 41.3591C62.6017 40.246 63.1873 39.0744 63.4801 37.9028C63.6558 37.3755 64.0657 37.0826 64.5342 36.9069L70.1561 35.5009V32.8647L64.7685 31.6344C64.2414 31.4587 63.8315 31.0486 63.7144 30.4628C63.4801 29.2912 63.0116 28.0609 62.426 27.0064C62.1918 26.5964 62.1918 26.0105 62.426 25.6005L65.4712 20.6796L63.5972 18.8049L58.9709 21.6169C58.4439 21.8512 57.9168 21.8512 57.5069 21.6169C56.3357 20.9725 55.223 20.4452 53.9932 20.0937C53.5247 19.918 53.1734 19.5079 52.9977 19.0392L51.6508 13.4153H48.957L47.7272 18.8049C47.6687 19.2736 47.2587 19.6837 46.6731 19.8594C45.3848 20.1523 44.155 20.6796 43.1009 21.2068C42.691 21.4997 42.1054 21.4997 41.754 21.1482L36.7763 18.1605L34.9609 19.918L37.889 24.546C38.2403 25.0732 38.2403 25.6005 37.889 26.1277C37.2448 27.1822 36.7178 28.2953 36.3078 29.5255C36.1321 29.9941 35.7222 30.3456 35.2537 30.4628L29.6319 31.8688V34.5636L34.9609 35.7938C35.488 35.8524 35.8979 36.2624 36.015 36.8483C36.3664 38.1957 36.8349 39.4259 37.3619 40.4218C37.5962 40.8319 37.5962 41.3591 37.3619 41.7692L34.3168 46.7487L36.3078 48.6819L40.9341 45.7528C41.4026 45.4599 41.9882 45.4599 42.3982 45.7528C43.5108 46.3972 44.6235 46.983 45.8533 47.3345C46.3803 47.4517 46.6731 47.8617 46.8488 48.389L48.2543 53.9543Z" fill="#68326F"/>
<path fill-rule="evenodd" clip-rule="evenodd" d="M44.7991 39.6602C44.3306 39.6602 43.8622 39.4259 43.5694 38.9572L41.1684 34.8564C40.7584 34.212 40.9927 33.3333 41.6368 32.9232C42.281 32.5132 43.218 32.7475 43.5694 33.3919L45.3262 36.2624L56.687 29.7012C57.3312 29.2911 58.2096 29.5255 58.6195 30.1699C59.0294 30.8143 58.7952 31.693 58.151 32.1031L45.5604 39.4844C45.3262 39.6016 45.0334 39.6602 44.7991 39.6602Z" fill="#68326F"/>
</svg>
