<svg width="59" height="30" viewBox="0 0 59 30" fill="none" xmlns="http://www.w3.org/2000/svg">
<path d="M24.9236 4.20085H23.2169C21.852 4.20085 18.7807 4.33574 17.4154 4.87533C15.7088 5.54982 14.6848 7.23587 13.3194 9.25918C11.9541 11.2825 11.6128 13.3058 11.9541 15.6663C12.2954 18.0269 16.3914 19.0385 20.1461 19.713C23.9007 20.3874 29.362 16.0036 29.362 15.6663C29.362 15.3291 32.434 8.58474 34.1407 4.87533C35.8474 1.16592 44.0393 2.17758 46.77 1.16592C48.9545 0.356592 54.0517 3.52645 56.3273 5.21255C57.6926 7.68549 60.355 13.5081 60.0819 17.0152C59.7406 21.3991 54.2793 26.7946 53.938 27.469C53.6649 28.0086 46.9975 26.7946 43.698 26.1201L36.8713 19.713C38.1229 19.4882 41.0352 19.574 41.5814 19.574C42.1275 19.574 43.1291 19.4882 43.698 19.713C45.4046 20.7246 47.4526 17.0152 48.1353 14.9919C48.818 12.9686 45.746 10.9453 43.3567 10.6081C41.4452 10.3383 38.9193 11.6197 37.8953 12.2942L33.1167 17.6897L27.6554 25.7829L14.0021 33.2018C9.56439 31.4033 0.620727 27.7388 0.347661 27.469C0.0063293 27.1318 -4.08966 17.6897 -3.74832 12.6314C-3.40699 7.57309 1.37166 2.85202 1.71299 2.85202C2.05432 2.85202 0.688994 0.828652 12.2943 -0.857445C21.5785 -2.20632 24.5822 1.95272 24.9236 4.20085Z" fill="url(#paint0_linear_0_76)"/>
<defs>
<linearGradient id="paint0_linear_0_76" x1="6.62648" y1="14.4363" x2="49.1121" y2="14.0001" gradientUnits="userSpaceOnUse">
<stop stop-color="#93479C"/>
<stop offset="1" stop-color="#05B8C3"/>
</linearGradient>
</defs>
</svg>
