<svg width="230" height="50" viewBox="0 0 230 50" fill="none" xmlns="http://www.w3.org/2000/svg">
<path d="M1.17188 46.5024V37.936H2.16797V46.5024H1.17188ZM7.41797 39.9634C8.17969 39.9634 8.75586 40.1509 9.14648 40.5259C9.53711 40.897 9.73242 41.4946 9.73242 42.3188V46.5024H8.77148V42.3833C8.77148 41.8481 8.64844 41.4478 8.40234 41.1821C8.16016 40.9165 7.78711 40.7837 7.2832 40.7837C6.57227 40.7837 6.07227 40.9849 5.7832 41.3872C5.49414 41.7896 5.34961 42.3735 5.34961 43.1392V46.5024H4.37695V40.0806H5.16211L5.30859 41.0063H5.36133C5.49805 40.7798 5.67188 40.5903 5.88281 40.438C6.09375 40.2817 6.33008 40.1646 6.5918 40.0864C6.85352 40.0044 7.12891 39.9634 7.41797 39.9634ZM14.7773 39.9634C15.5391 39.9634 16.1152 40.1509 16.5059 40.5259C16.8965 40.897 17.0918 41.4946 17.0918 42.3188V46.5024H16.1309V42.3833C16.1309 41.8481 16.0078 41.4478 15.7617 41.1821C15.5195 40.9165 15.1465 40.7837 14.6426 40.7837C13.9316 40.7837 13.4316 40.9849 13.1426 41.3872C12.8535 41.7896 12.709 42.3735 12.709 43.1392V46.5024H11.7363V40.0806H12.5215L12.668 41.0063H12.7207C12.8574 40.7798 13.0312 40.5903 13.2422 40.438C13.4531 40.2817 13.6895 40.1646 13.9512 40.0864C14.2129 40.0044 14.4883 39.9634 14.7773 39.9634ZM24.6328 43.2798C24.6328 43.8071 24.5645 44.2778 24.4277 44.6919C24.291 45.106 24.0938 45.4556 23.8359 45.7407C23.5781 46.0259 23.2656 46.2446 22.8984 46.397C22.5352 46.5454 22.123 46.6196 21.6621 46.6196C21.2324 46.6196 20.8379 46.5454 20.4785 46.397C20.123 46.2446 19.8145 46.0259 19.5527 45.7407C19.2949 45.4556 19.0938 45.106 18.9492 44.6919C18.8086 44.2778 18.7383 43.8071 18.7383 43.2798C18.7383 42.5767 18.8574 41.979 19.0957 41.4868C19.334 40.9907 19.6738 40.6138 20.1152 40.356C20.5605 40.0942 21.0898 39.9634 21.7031 39.9634C22.2891 39.9634 22.8008 40.0942 23.2383 40.356C23.6797 40.6177 24.0215 40.9966 24.2637 41.4927C24.5098 41.9849 24.6328 42.5806 24.6328 43.2798ZM19.7461 43.2798C19.7461 43.7954 19.8145 44.2427 19.9512 44.6216C20.0879 45.0005 20.2988 45.2935 20.584 45.5005C20.8691 45.7075 21.2363 45.811 21.6855 45.811C22.1309 45.811 22.4961 45.7075 22.7812 45.5005C23.0703 45.2935 23.2832 45.0005 23.4199 44.6216C23.5566 44.2427 23.625 43.7954 23.625 43.2798C23.625 42.7681 23.5566 42.3267 23.4199 41.9556C23.2832 41.5806 23.0723 41.2915 22.7871 41.0884C22.502 40.8853 22.1328 40.7837 21.6797 40.7837C21.0117 40.7837 20.5215 41.0044 20.209 41.4458C19.9004 41.8872 19.7461 42.4985 19.7461 43.2798ZM27.7266 46.5024L25.2891 40.0806H26.332L27.7441 43.9653C27.8418 44.231 27.9414 44.5239 28.043 44.8442C28.1445 45.1646 28.2148 45.4224 28.2539 45.6177H28.2949C28.3418 45.4224 28.4199 45.1646 28.5293 44.8442C28.6387 44.52 28.7383 44.2271 28.8281 43.9653L30.2402 40.0806H31.2832L28.8398 46.5024H27.7266ZM34.7168 39.9751C35.4824 39.9751 36.0508 40.147 36.4219 40.4907C36.793 40.8345 36.9785 41.3833 36.9785 42.1372V46.5024H36.2695L36.082 45.5532H36.0352C35.8555 45.7876 35.668 45.9849 35.4727 46.145C35.2773 46.3013 35.0508 46.4204 34.793 46.5024C34.5391 46.5806 34.2266 46.6196 33.8555 46.6196C33.4648 46.6196 33.1172 46.5513 32.8125 46.4146C32.5117 46.2778 32.2734 46.0708 32.0977 45.7935C31.9258 45.5161 31.8398 45.1646 31.8398 44.7388C31.8398 44.0981 32.0938 43.606 32.6016 43.2622C33.1094 42.9185 33.8828 42.731 34.9219 42.6997L36.0293 42.6528V42.2603C36.0293 41.7056 35.9102 41.3169 35.6719 41.0942C35.4336 40.8716 35.0977 40.7603 34.6641 40.7603C34.3281 40.7603 34.0078 40.8091 33.7031 40.9067C33.3984 41.0044 33.1094 41.1196 32.8359 41.2524L32.5371 40.5142C32.8262 40.3657 33.1582 40.2388 33.5332 40.1333C33.9082 40.0278 34.3027 39.9751 34.7168 39.9751ZM36.0176 43.3384L35.0391 43.3794C34.2383 43.4106 33.6738 43.5415 33.3457 43.772C33.0176 44.0024 32.8535 44.3286 32.8535 44.7505C32.8535 45.1177 32.9648 45.3892 33.1875 45.5649C33.4102 45.7407 33.7051 45.8286 34.0723 45.8286C34.6426 45.8286 35.1094 45.6704 35.4727 45.354C35.8359 45.0376 36.0176 44.563 36.0176 43.9302V43.3384ZM41.0566 45.8228C41.2168 45.8228 41.3809 45.8091 41.5488 45.7817C41.7168 45.7544 41.8535 45.7212 41.959 45.6821V46.438C41.8457 46.4888 41.6875 46.5317 41.4844 46.5669C41.2852 46.6021 41.0898 46.6196 40.8984 46.6196C40.5586 46.6196 40.25 46.561 39.9727 46.4438C39.6953 46.3228 39.4727 46.1196 39.3047 45.8345C39.1406 45.5493 39.0586 45.1548 39.0586 44.6509V40.8423H38.1445V40.3677L39.0645 39.9868L39.4512 38.5923H40.0371V40.0806H41.918V40.8423H40.0371V44.6216C40.0371 45.0239 40.1289 45.3247 40.3125 45.5239C40.5 45.7231 40.748 45.8228 41.0566 45.8228ZM44.2324 40.0806V46.5024H43.2598V40.0806H44.2324ZM43.7578 37.6782C43.918 37.6782 44.0547 37.731 44.168 37.8364C44.2852 37.938 44.3438 38.0981 44.3438 38.3169C44.3438 38.5317 44.2852 38.6919 44.168 38.7974C44.0547 38.9028 43.918 38.9556 43.7578 38.9556C43.5898 38.9556 43.4492 38.9028 43.3359 38.7974C43.2266 38.6919 43.1719 38.5317 43.1719 38.3169C43.1719 38.0981 43.2266 37.938 43.3359 37.8364C43.4492 37.731 43.5898 37.6782 43.7578 37.6782ZM49.3359 39.9634C50.0977 39.9634 50.6738 40.1509 51.0645 40.5259C51.4551 40.897 51.6504 41.4946 51.6504 42.3188V46.5024H50.6895V42.3833C50.6895 41.8481 50.5664 41.4478 50.3203 41.1821C50.0781 40.9165 49.7051 40.7837 49.2012 40.7837C48.4902 40.7837 47.9902 40.9849 47.7012 41.3872C47.4121 41.7896 47.2676 42.3735 47.2676 43.1392V46.5024H46.2949V40.0806H47.0801L47.2266 41.0063H47.2793C47.416 40.7798 47.5898 40.5903 47.8008 40.438C48.0117 40.2817 48.248 40.1646 48.5098 40.0864C48.7715 40.0044 49.0469 39.9634 49.3359 39.9634ZM55.4473 49.3853C54.6035 49.3853 53.9531 49.2271 53.4961 48.9106C53.0391 48.5981 52.8105 48.1587 52.8105 47.5923C52.8105 47.1899 52.9375 46.8462 53.1914 46.561C53.4492 46.2759 53.8047 46.0864 54.2578 45.9927C54.0898 45.9146 53.9453 45.7974 53.8242 45.6411C53.707 45.4849 53.6484 45.3052 53.6484 45.1021C53.6484 44.8677 53.7129 44.6626 53.8418 44.4868C53.9746 44.3071 54.1758 44.1353 54.4453 43.9712C54.1094 43.8345 53.8359 43.604 53.625 43.2798C53.418 42.9517 53.3145 42.5708 53.3145 42.1372C53.3145 41.6763 53.4102 41.2837 53.6016 40.9595C53.793 40.6313 54.0703 40.3813 54.4336 40.2095C54.7969 40.0376 55.2363 39.9517 55.752 39.9517C55.8652 39.9517 55.9785 39.9575 56.0918 39.9692C56.209 39.9771 56.3203 39.9907 56.4258 40.0103C56.5312 40.0259 56.623 40.0454 56.7012 40.0688H58.9043V40.6958L57.7207 40.8423C57.8379 40.9946 57.9355 41.1782 58.0137 41.3931C58.0918 41.6079 58.1309 41.8462 58.1309 42.1079C58.1309 42.7485 57.9141 43.2583 57.4805 43.6372C57.0469 44.0122 56.4512 44.1997 55.6934 44.1997C55.5137 44.1997 55.3301 44.1841 55.1426 44.1528C54.9512 44.2583 54.8047 44.3755 54.7031 44.5044C54.6055 44.6333 54.5566 44.7817 54.5566 44.9497C54.5566 45.0747 54.5938 45.1743 54.668 45.2485C54.7461 45.3228 54.8574 45.3774 55.002 45.4126C55.1465 45.4438 55.3203 45.4595 55.5234 45.4595H56.6543C57.3535 45.4595 57.8887 45.606 58.2598 45.8989C58.6348 46.1919 58.8223 46.6196 58.8223 47.1821C58.8223 47.8931 58.5332 48.438 57.9551 48.8169C57.377 49.1958 56.541 49.3853 55.4473 49.3853ZM55.4766 48.6235C56.0078 48.6235 56.4473 48.5688 56.7949 48.4595C57.1465 48.354 57.4082 48.1997 57.5801 47.9966C57.7559 47.7974 57.8438 47.5591 57.8438 47.2817C57.8438 47.0239 57.7852 46.8286 57.668 46.6958C57.5508 46.5669 57.3789 46.481 57.1523 46.438C56.9258 46.3911 56.6484 46.3677 56.3203 46.3677H55.207C54.918 46.3677 54.666 46.4126 54.4512 46.5024C54.2363 46.5923 54.0703 46.7251 53.9531 46.9009C53.8398 47.0767 53.7832 47.2954 53.7832 47.5571C53.7832 47.9048 53.9297 48.1685 54.2227 48.3481C54.5156 48.5317 54.9336 48.6235 55.4766 48.6235ZM55.7285 43.4907C56.1934 43.4907 56.543 43.3735 56.7773 43.1392C57.0117 42.9048 57.1289 42.563 57.1289 42.1138C57.1289 41.6333 57.0098 41.2739 56.7715 41.0356C56.5332 40.7935 56.1816 40.6724 55.7168 40.6724C55.2715 40.6724 54.9277 40.7974 54.6855 41.0474C54.4473 41.2935 54.3281 41.6548 54.3281 42.1313C54.3281 42.5688 54.4492 42.9048 54.6914 43.1392C54.9336 43.3735 55.2793 43.4907 55.7285 43.4907ZM63.4336 46.5024V37.936H64.4297V46.5024H63.4336ZM69.6797 39.9634C70.4414 39.9634 71.0176 40.1509 71.4082 40.5259C71.7988 40.897 71.9941 41.4946 71.9941 42.3188V46.5024H71.0332V42.3833C71.0332 41.8481 70.9102 41.4478 70.6641 41.1821C70.4219 40.9165 70.0488 40.7837 69.5449 40.7837C68.834 40.7837 68.334 40.9849 68.0449 41.3872C67.7559 41.7896 67.6113 42.3735 67.6113 43.1392V46.5024H66.6387V40.0806H67.4238L67.5703 41.0063H67.623C67.7598 40.7798 67.9336 40.5903 68.1445 40.438C68.3555 40.2817 68.5918 40.1646 68.8535 40.0864C69.1152 40.0044 69.3906 39.9634 69.6797 39.9634ZM78.1523 44.7446C78.1523 45.1548 78.0488 45.5005 77.8418 45.7817C77.6387 46.0591 77.3457 46.2681 76.9629 46.4087C76.584 46.5493 76.1309 46.6196 75.6035 46.6196C75.1543 46.6196 74.7656 46.5845 74.4375 46.5142C74.1094 46.4438 73.8223 46.3442 73.5762 46.2153V45.3188C73.8379 45.4478 74.1504 45.5649 74.5137 45.6704C74.877 45.7759 75.248 45.8286 75.627 45.8286C76.1816 45.8286 76.584 45.7388 76.834 45.5591C77.084 45.3794 77.209 45.1353 77.209 44.8267C77.209 44.6509 77.1582 44.4966 77.0566 44.3638C76.959 44.2271 76.793 44.0962 76.5586 43.9712C76.3242 43.8423 76 43.7017 75.5859 43.5493C75.1758 43.3931 74.8203 43.2388 74.5195 43.0864C74.2227 42.9302 73.9922 42.7407 73.8281 42.5181C73.668 42.2954 73.5879 42.0063 73.5879 41.6509C73.5879 41.1079 73.8066 40.6919 74.2441 40.4028C74.6855 40.1099 75.2637 39.9634 75.9785 39.9634C76.3652 39.9634 76.7266 40.0024 77.0625 40.0806C77.4023 40.1548 77.7188 40.2563 78.0117 40.3853L77.6836 41.1646C77.418 41.0513 77.1348 40.9556 76.834 40.8774C76.5332 40.7993 76.2266 40.7603 75.9141 40.7603C75.4648 40.7603 75.1191 40.8345 74.877 40.9829C74.6387 41.1313 74.5195 41.3345 74.5195 41.5923C74.5195 41.7915 74.5742 41.9556 74.6836 42.0845C74.7969 42.2134 74.9766 42.3345 75.2227 42.4478C75.4688 42.561 75.793 42.6938 76.1953 42.8462C76.5977 42.9946 76.9453 43.1489 77.2383 43.3091C77.5312 43.4653 77.7559 43.6567 77.9121 43.8833C78.0723 44.106 78.1523 44.3931 78.1523 44.7446ZM80.6895 40.0806V46.5024H79.7168V40.0806H80.6895ZM80.2148 37.6782C80.375 37.6782 80.5117 37.731 80.625 37.8364C80.7422 37.938 80.8008 38.0981 80.8008 38.3169C80.8008 38.5317 80.7422 38.6919 80.625 38.7974C80.5117 38.9028 80.375 38.9556 80.2148 38.9556C80.0469 38.9556 79.9062 38.9028 79.793 38.7974C79.6836 38.6919 79.6289 38.5317 79.6289 38.3169C79.6289 38.0981 79.6836 37.938 79.793 37.8364C79.9062 37.731 80.0469 37.6782 80.2148 37.6782ZM84.5449 49.3853C83.7012 49.3853 83.0508 49.2271 82.5938 48.9106C82.1367 48.5981 81.9082 48.1587 81.9082 47.5923C81.9082 47.1899 82.0352 46.8462 82.2891 46.561C82.5469 46.2759 82.9023 46.0864 83.3555 45.9927C83.1875 45.9146 83.043 45.7974 82.9219 45.6411C82.8047 45.4849 82.7461 45.3052 82.7461 45.1021C82.7461 44.8677 82.8105 44.6626 82.9395 44.4868C83.0723 44.3071 83.2734 44.1353 83.543 43.9712C83.207 43.8345 82.9336 43.604 82.7227 43.2798C82.5156 42.9517 82.4121 42.5708 82.4121 42.1372C82.4121 41.6763 82.5078 41.2837 82.6992 40.9595C82.8906 40.6313 83.168 40.3813 83.5312 40.2095C83.8945 40.0376 84.334 39.9517 84.8496 39.9517C84.9629 39.9517 85.0762 39.9575 85.1895 39.9692C85.3066 39.9771 85.418 39.9907 85.5234 40.0103C85.6289 40.0259 85.7207 40.0454 85.7988 40.0688H88.002V40.6958L86.8184 40.8423C86.9355 40.9946 87.0332 41.1782 87.1113 41.3931C87.1895 41.6079 87.2285 41.8462 87.2285 42.1079C87.2285 42.7485 87.0117 43.2583 86.5781 43.6372C86.1445 44.0122 85.5488 44.1997 84.791 44.1997C84.6113 44.1997 84.4277 44.1841 84.2402 44.1528C84.0488 44.2583 83.9023 44.3755 83.8008 44.5044C83.7031 44.6333 83.6543 44.7817 83.6543 44.9497C83.6543 45.0747 83.6914 45.1743 83.7656 45.2485C83.8438 45.3228 83.9551 45.3774 84.0996 45.4126C84.2441 45.4438 84.418 45.4595 84.6211 45.4595H85.752C86.4512 45.4595 86.9863 45.606 87.3574 45.8989C87.7324 46.1919 87.9199 46.6196 87.9199 47.1821C87.9199 47.8931 87.6309 48.438 87.0527 48.8169C86.4746 49.1958 85.6387 49.3853 84.5449 49.3853ZM84.5742 48.6235C85.1055 48.6235 85.5449 48.5688 85.8926 48.4595C86.2441 48.354 86.5059 48.1997 86.6777 47.9966C86.8535 47.7974 86.9414 47.5591 86.9414 47.2817C86.9414 47.0239 86.8828 46.8286 86.7656 46.6958C86.6484 46.5669 86.4766 46.481 86.25 46.438C86.0234 46.3911 85.7461 46.3677 85.418 46.3677H84.3047C84.0156 46.3677 83.7637 46.4126 83.5488 46.5024C83.334 46.5923 83.168 46.7251 83.0508 46.9009C82.9375 47.0767 82.8809 47.2954 82.8809 47.5571C82.8809 47.9048 83.0273 48.1685 83.3203 48.3481C83.6133 48.5317 84.0312 48.6235 84.5742 48.6235ZM84.8262 43.4907C85.291 43.4907 85.6406 43.3735 85.875 43.1392C86.1094 42.9048 86.2266 42.563 86.2266 42.1138C86.2266 41.6333 86.1074 41.2739 85.8691 41.0356C85.6309 40.7935 85.2793 40.6724 84.8145 40.6724C84.3691 40.6724 84.0254 40.7974 83.7832 41.0474C83.5449 41.2935 83.4258 41.6548 83.4258 42.1313C83.4258 42.5688 83.5469 42.9048 83.7891 43.1392C84.0312 43.3735 84.377 43.4907 84.8262 43.4907ZM90.2402 37.3853V40.1099C90.2402 40.2661 90.2363 40.4243 90.2285 40.5845C90.2207 40.7407 90.207 40.8853 90.1875 41.0181H90.252C90.3848 40.7915 90.5527 40.6021 90.7559 40.4497C90.9629 40.2935 91.1973 40.1763 91.459 40.0981C91.7207 40.0161 91.998 39.9751 92.291 39.9751C92.8066 39.9751 93.2363 40.0571 93.5801 40.2212C93.9277 40.3853 94.1875 40.6392 94.3594 40.9829C94.5352 41.3267 94.623 41.772 94.623 42.3188V46.5024H93.6621V42.3833C93.6621 41.8481 93.5391 41.4478 93.293 41.1821C93.0508 40.9165 92.6777 40.7837 92.1738 40.7837C91.6973 40.7837 91.3164 40.8755 91.0312 41.0591C90.75 41.2388 90.5469 41.5044 90.4219 41.856C90.3008 42.2075 90.2402 42.6372 90.2402 43.145V46.5024H89.2676V37.3853H90.2402ZM98.7012 45.8228C98.8613 45.8228 99.0254 45.8091 99.1934 45.7817C99.3613 45.7544 99.498 45.7212 99.6035 45.6821V46.438C99.4902 46.4888 99.332 46.5317 99.1289 46.5669C98.9297 46.6021 98.7344 46.6196 98.543 46.6196C98.2031 46.6196 97.8945 46.561 97.6172 46.4438C97.3398 46.3228 97.1172 46.1196 96.9492 45.8345C96.7852 45.5493 96.7031 45.1548 96.7031 44.6509V40.8423H95.7891V40.3677L96.709 39.9868L97.0957 38.5923H97.6816V40.0806H99.5625V40.8423H97.6816V44.6216C97.6816 45.0239 97.7734 45.3247 97.957 45.5239C98.1445 45.7231 98.3926 45.8228 98.7012 45.8228ZM105.059 44.7446C105.059 45.1548 104.955 45.5005 104.748 45.7817C104.545 46.0591 104.252 46.2681 103.869 46.4087C103.49 46.5493 103.037 46.6196 102.51 46.6196C102.061 46.6196 101.672 46.5845 101.344 46.5142C101.016 46.4438 100.729 46.3442 100.482 46.2153V45.3188C100.744 45.4478 101.057 45.5649 101.42 45.6704C101.783 45.7759 102.154 45.8286 102.533 45.8286C103.088 45.8286 103.49 45.7388 103.74 45.5591C103.99 45.3794 104.115 45.1353 104.115 44.8267C104.115 44.6509 104.064 44.4966 103.963 44.3638C103.865 44.2271 103.699 44.0962 103.465 43.9712C103.23 43.8423 102.906 43.7017 102.492 43.5493C102.082 43.3931 101.727 43.2388 101.426 43.0864C101.129 42.9302 100.898 42.7407 100.734 42.5181C100.574 42.2954 100.494 42.0063 100.494 41.6509C100.494 41.1079 100.713 40.6919 101.15 40.4028C101.592 40.1099 102.17 39.9634 102.885 39.9634C103.271 39.9634 103.633 40.0024 103.969 40.0806C104.309 40.1548 104.625 40.2563 104.918 40.3853L104.59 41.1646C104.324 41.0513 104.041 40.9556 103.74 40.8774C103.439 40.7993 103.133 40.7603 102.82 40.7603C102.371 40.7603 102.025 40.8345 101.783 40.9829C101.545 41.1313 101.426 41.3345 101.426 41.5923C101.426 41.7915 101.48 41.9556 101.59 42.0845C101.703 42.2134 101.883 42.3345 102.129 42.4478C102.375 42.561 102.699 42.6938 103.102 42.8462C103.504 42.9946 103.852 43.1489 104.145 43.3091C104.438 43.4653 104.662 43.6567 104.818 43.8833C104.979 44.106 105.059 44.3931 105.059 44.7446ZM110.854 45.1079L110.93 45.2427C110.859 45.5278 110.77 45.8325 110.66 46.1567C110.555 46.481 110.438 46.8052 110.309 47.1294C110.184 47.4575 110.057 47.7642 109.928 48.0493H109.201C109.283 47.7368 109.363 47.4067 109.441 47.0591C109.52 46.7153 109.59 46.3755 109.652 46.0396C109.719 45.6997 109.771 45.3892 109.811 45.1079H110.854ZM121.482 46.5024L120.428 43.7837H116.994L115.945 46.5024H114.938L118.289 37.9009H119.186L122.514 46.5024H121.482ZM120.129 42.8989L119.127 40.1978C119.104 40.1274 119.064 40.0122 119.01 39.8521C118.959 39.6919 118.906 39.5259 118.852 39.354C118.797 39.1821 118.752 39.0435 118.717 38.938C118.678 39.0981 118.635 39.2583 118.588 39.4185C118.545 39.5747 118.502 39.7212 118.459 39.8579C118.416 39.9907 118.379 40.104 118.348 40.1978L117.328 42.8989H120.129ZM126.129 46.6196C125.551 46.6196 125.041 46.5005 124.6 46.2622C124.158 46.0239 123.814 45.6606 123.568 45.1724C123.322 44.6841 123.199 44.0688 123.199 43.3267C123.199 42.5493 123.328 41.9146 123.586 41.4224C123.848 40.9263 124.207 40.5591 124.664 40.3208C125.121 40.0825 125.641 39.9634 126.223 39.9634C126.543 39.9634 126.852 39.9966 127.148 40.063C127.449 40.1255 127.695 40.2056 127.887 40.3032L127.594 41.1177C127.398 41.0396 127.172 40.9692 126.914 40.9067C126.66 40.8442 126.422 40.813 126.199 40.813C125.754 40.813 125.383 40.9087 125.086 41.1001C124.793 41.2915 124.572 41.5728 124.424 41.9438C124.279 42.3149 124.207 42.772 124.207 43.3149C124.207 43.8345 124.277 44.2778 124.418 44.645C124.562 45.0122 124.775 45.2935 125.057 45.4888C125.342 45.6802 125.697 45.7759 126.123 45.7759C126.463 45.7759 126.77 45.7407 127.043 45.6704C127.316 45.5962 127.564 45.5103 127.787 45.4126V46.2798C127.572 46.3892 127.332 46.4731 127.066 46.5317C126.805 46.5903 126.492 46.6196 126.129 46.6196ZM131.883 46.6196C131.305 46.6196 130.795 46.5005 130.354 46.2622C129.912 46.0239 129.568 45.6606 129.322 45.1724C129.076 44.6841 128.953 44.0688 128.953 43.3267C128.953 42.5493 129.082 41.9146 129.34 41.4224C129.602 40.9263 129.961 40.5591 130.418 40.3208C130.875 40.0825 131.395 39.9634 131.977 39.9634C132.297 39.9634 132.605 39.9966 132.902 40.063C133.203 40.1255 133.449 40.2056 133.641 40.3032L133.348 41.1177C133.152 41.0396 132.926 40.9692 132.668 40.9067C132.414 40.8442 132.176 40.813 131.953 40.813C131.508 40.813 131.137 40.9087 130.84 41.1001C130.547 41.2915 130.326 41.5728 130.178 41.9438C130.033 42.3149 129.961 42.772 129.961 43.3149C129.961 43.8345 130.031 44.2778 130.172 44.645C130.316 45.0122 130.529 45.2935 130.811 45.4888C131.096 45.6802 131.451 45.7759 131.877 45.7759C132.217 45.7759 132.523 45.7407 132.797 45.6704C133.07 45.5962 133.318 45.5103 133.541 45.4126V46.2798C133.326 46.3892 133.086 46.4731 132.82 46.5317C132.559 46.5903 132.246 46.6196 131.883 46.6196ZM137.537 39.9634C138.084 39.9634 138.553 40.0845 138.943 40.3267C139.334 40.5688 139.633 40.9087 139.84 41.3462C140.047 41.7798 140.15 42.2876 140.15 42.8696V43.4731H135.715C135.727 44.2271 135.914 44.8013 136.277 45.1958C136.641 45.5903 137.152 45.7876 137.812 45.7876C138.219 45.7876 138.578 45.7505 138.891 45.6763C139.203 45.6021 139.527 45.4927 139.863 45.3481V46.2036C139.539 46.3481 139.217 46.4536 138.896 46.52C138.58 46.5864 138.205 46.6196 137.771 46.6196C137.154 46.6196 136.615 46.4946 136.154 46.2446C135.697 45.9907 135.342 45.6196 135.088 45.1313C134.834 44.6431 134.707 44.0454 134.707 43.3384C134.707 42.647 134.822 42.0493 135.053 41.5454C135.287 41.0376 135.615 40.647 136.037 40.3735C136.463 40.1001 136.963 39.9634 137.537 39.9634ZM137.525 40.7603C137.006 40.7603 136.592 40.9302 136.283 41.27C135.975 41.6099 135.791 42.0845 135.732 42.6938H139.131C139.127 42.311 139.066 41.9751 138.949 41.686C138.836 41.3931 138.662 41.1665 138.428 41.0063C138.193 40.8423 137.893 40.7603 137.525 40.7603ZM142.781 46.5024H141.803V37.3853H142.781V46.5024ZM147.311 39.9634C147.857 39.9634 148.326 40.0845 148.717 40.3267C149.107 40.5688 149.406 40.9087 149.613 41.3462C149.82 41.7798 149.924 42.2876 149.924 42.8696V43.4731H145.488C145.5 44.2271 145.688 44.8013 146.051 45.1958C146.414 45.5903 146.926 45.7876 147.586 45.7876C147.992 45.7876 148.352 45.7505 148.664 45.6763C148.977 45.6021 149.301 45.4927 149.637 45.3481V46.2036C149.312 46.3481 148.99 46.4536 148.67 46.52C148.354 46.5864 147.979 46.6196 147.545 46.6196C146.928 46.6196 146.389 46.4946 145.928 46.2446C145.471 45.9907 145.115 45.6196 144.861 45.1313C144.607 44.6431 144.48 44.0454 144.48 43.3384C144.48 42.647 144.596 42.0493 144.826 41.5454C145.061 41.0376 145.389 40.647 145.811 40.3735C146.236 40.1001 146.736 39.9634 147.311 39.9634ZM147.299 40.7603C146.779 40.7603 146.365 40.9302 146.057 41.27C145.748 41.6099 145.564 42.0845 145.506 42.6938H148.904C148.9 42.311 148.84 41.9751 148.723 41.686C148.609 41.3931 148.436 41.1665 148.201 41.0063C147.967 40.8423 147.666 40.7603 147.299 40.7603ZM154.494 39.9634C154.623 39.9634 154.758 39.9712 154.898 39.9868C155.039 39.9985 155.164 40.0161 155.273 40.0396L155.15 40.9419C155.045 40.9146 154.928 40.8931 154.799 40.8774C154.67 40.8618 154.549 40.854 154.436 40.854C154.178 40.854 153.934 40.9067 153.703 41.0122C153.477 41.1138 153.277 41.2622 153.105 41.4575C152.934 41.6489 152.799 41.8813 152.701 42.1548C152.604 42.4243 152.555 42.7251 152.555 43.0571V46.5024H151.576V40.0806H152.385L152.49 41.2642H152.531C152.664 41.0259 152.824 40.8091 153.012 40.6138C153.199 40.4146 153.416 40.2563 153.662 40.1392C153.912 40.022 154.189 39.9634 154.494 39.9634ZM158.889 39.9751C159.654 39.9751 160.223 40.147 160.594 40.4907C160.965 40.8345 161.15 41.3833 161.15 42.1372V46.5024H160.441L160.254 45.5532H160.207C160.027 45.7876 159.84 45.9849 159.645 46.145C159.449 46.3013 159.223 46.4204 158.965 46.5024C158.711 46.5806 158.398 46.6196 158.027 46.6196C157.637 46.6196 157.289 46.5513 156.984 46.4146C156.684 46.2778 156.445 46.0708 156.27 45.7935C156.098 45.5161 156.012 45.1646 156.012 44.7388C156.012 44.0981 156.266 43.606 156.773 43.2622C157.281 42.9185 158.055 42.731 159.094 42.6997L160.201 42.6528V42.2603C160.201 41.7056 160.082 41.3169 159.844 41.0942C159.605 40.8716 159.27 40.7603 158.836 40.7603C158.5 40.7603 158.18 40.8091 157.875 40.9067C157.57 41.0044 157.281 41.1196 157.008 41.2524L156.709 40.5142C156.998 40.3657 157.33 40.2388 157.705 40.1333C158.08 40.0278 158.475 39.9751 158.889 39.9751ZM160.189 43.3384L159.211 43.3794C158.41 43.4106 157.846 43.5415 157.518 43.772C157.189 44.0024 157.025 44.3286 157.025 44.7505C157.025 45.1177 157.137 45.3892 157.359 45.5649C157.582 45.7407 157.877 45.8286 158.244 45.8286C158.814 45.8286 159.281 45.6704 159.645 45.354C160.008 45.0376 160.189 44.563 160.189 43.9302V43.3384ZM165.229 45.8228C165.389 45.8228 165.553 45.8091 165.721 45.7817C165.889 45.7544 166.025 45.7212 166.131 45.6821V46.438C166.018 46.4888 165.859 46.5317 165.656 46.5669C165.457 46.6021 165.262 46.6196 165.07 46.6196C164.73 46.6196 164.422 46.561 164.145 46.4438C163.867 46.3228 163.645 46.1196 163.477 45.8345C163.312 45.5493 163.23 45.1548 163.23 44.6509V40.8423H162.316V40.3677L163.236 39.9868L163.623 38.5923H164.209V40.0806H166.09V40.8423H164.209V44.6216C164.209 45.0239 164.301 45.3247 164.484 45.5239C164.672 45.7231 164.92 45.8228 165.229 45.8228ZM168.404 40.0806V46.5024H167.432V40.0806H168.404ZM167.93 37.6782C168.09 37.6782 168.227 37.731 168.34 37.8364C168.457 37.938 168.516 38.0981 168.516 38.3169C168.516 38.5317 168.457 38.6919 168.34 38.7974C168.227 38.9028 168.09 38.9556 167.93 38.9556C167.762 38.9556 167.621 38.9028 167.508 38.7974C167.398 38.6919 167.344 38.5317 167.344 38.3169C167.344 38.0981 167.398 37.938 167.508 37.8364C167.621 37.731 167.762 37.6782 167.93 37.6782ZM173.508 39.9634C174.27 39.9634 174.846 40.1509 175.236 40.5259C175.627 40.897 175.822 41.4946 175.822 42.3188V46.5024H174.861V42.3833C174.861 41.8481 174.738 41.4478 174.492 41.1821C174.25 40.9165 173.877 40.7837 173.373 40.7837C172.662 40.7837 172.162 40.9849 171.873 41.3872C171.584 41.7896 171.439 42.3735 171.439 43.1392V46.5024H170.467V40.0806H171.252L171.398 41.0063H171.451C171.588 40.7798 171.762 40.5903 171.973 40.438C172.184 40.2817 172.42 40.1646 172.682 40.0864C172.943 40.0044 173.219 39.9634 173.508 39.9634ZM179.619 49.3853C178.775 49.3853 178.125 49.2271 177.668 48.9106C177.211 48.5981 176.982 48.1587 176.982 47.5923C176.982 47.1899 177.109 46.8462 177.363 46.561C177.621 46.2759 177.977 46.0864 178.43 45.9927C178.262 45.9146 178.117 45.7974 177.996 45.6411C177.879 45.4849 177.82 45.3052 177.82 45.1021C177.82 44.8677 177.885 44.6626 178.014 44.4868C178.146 44.3071 178.348 44.1353 178.617 43.9712C178.281 43.8345 178.008 43.604 177.797 43.2798C177.59 42.9517 177.486 42.5708 177.486 42.1372C177.486 41.6763 177.582 41.2837 177.773 40.9595C177.965 40.6313 178.242 40.3813 178.605 40.2095C178.969 40.0376 179.408 39.9517 179.924 39.9517C180.037 39.9517 180.15 39.9575 180.264 39.9692C180.381 39.9771 180.492 39.9907 180.598 40.0103C180.703 40.0259 180.795 40.0454 180.873 40.0688H183.076V40.6958L181.893 40.8423C182.01 40.9946 182.107 41.1782 182.186 41.3931C182.264 41.6079 182.303 41.8462 182.303 42.1079C182.303 42.7485 182.086 43.2583 181.652 43.6372C181.219 44.0122 180.623 44.1997 179.865 44.1997C179.686 44.1997 179.502 44.1841 179.314 44.1528C179.123 44.2583 178.977 44.3755 178.875 44.5044C178.777 44.6333 178.729 44.7817 178.729 44.9497C178.729 45.0747 178.766 45.1743 178.84 45.2485C178.918 45.3228 179.029 45.3774 179.174 45.4126C179.318 45.4438 179.492 45.4595 179.695 45.4595H180.826C181.525 45.4595 182.061 45.606 182.432 45.8989C182.807 46.1919 182.994 46.6196 182.994 47.1821C182.994 47.8931 182.705 48.438 182.127 48.8169C181.549 49.1958 180.713 49.3853 179.619 49.3853ZM179.648 48.6235C180.18 48.6235 180.619 48.5688 180.967 48.4595C181.318 48.354 181.58 48.1997 181.752 47.9966C181.928 47.7974 182.016 47.5591 182.016 47.2817C182.016 47.0239 181.957 46.8286 181.84 46.6958C181.723 46.5669 181.551 46.481 181.324 46.438C181.098 46.3911 180.82 46.3677 180.492 46.3677H179.379C179.09 46.3677 178.838 46.4126 178.623 46.5024C178.408 46.5923 178.242 46.7251 178.125 46.9009C178.012 47.0767 177.955 47.2954 177.955 47.5571C177.955 47.9048 178.102 48.1685 178.395 48.3481C178.688 48.5317 179.105 48.6235 179.648 48.6235ZM179.9 43.4907C180.365 43.4907 180.715 43.3735 180.949 43.1392C181.184 42.9048 181.301 42.563 181.301 42.1138C181.301 41.6333 181.182 41.2739 180.943 41.0356C180.705 40.7935 180.354 40.6724 179.889 40.6724C179.443 40.6724 179.1 40.7974 178.857 41.0474C178.619 41.2935 178.5 41.6548 178.5 42.1313C178.5 42.5688 178.621 42.9048 178.863 43.1392C179.105 43.3735 179.451 43.4907 179.9 43.4907ZM191.268 42.0142H194.262V46.1685C193.812 46.3208 193.35 46.4341 192.873 46.5083C192.4 46.5825 191.871 46.6196 191.285 46.6196C190.395 46.6196 189.643 46.4419 189.029 46.0864C188.42 45.731 187.957 45.2251 187.641 44.5688C187.324 43.9087 187.166 43.1255 187.166 42.2192C187.166 41.3325 187.34 40.5591 187.688 39.8989C188.039 39.2388 188.545 38.7271 189.205 38.3638C189.869 37.9966 190.666 37.813 191.596 37.813C192.072 37.813 192.523 37.8579 192.949 37.9478C193.379 38.0337 193.777 38.1567 194.145 38.3169L193.764 39.1841C193.447 39.0474 193.098 38.9302 192.715 38.8325C192.336 38.7349 191.943 38.686 191.537 38.686C190.838 38.686 190.238 38.8306 189.738 39.1196C189.242 39.4087 188.861 39.8169 188.596 40.3442C188.334 40.8716 188.203 41.4966 188.203 42.2192C188.203 42.9341 188.318 43.5571 188.549 44.0884C188.779 44.6157 189.139 45.0259 189.627 45.3188C190.115 45.6118 190.744 45.7583 191.514 45.7583C191.9 45.7583 192.232 45.7368 192.51 45.6938C192.787 45.647 193.039 45.5923 193.266 45.5298V42.9048H191.268V42.0142ZM199.107 39.9634C199.236 39.9634 199.371 39.9712 199.512 39.9868C199.652 39.9985 199.777 40.0161 199.887 40.0396L199.764 40.9419C199.658 40.9146 199.541 40.8931 199.412 40.8774C199.283 40.8618 199.162 40.854 199.049 40.854C198.791 40.854 198.547 40.9067 198.316 41.0122C198.09 41.1138 197.891 41.2622 197.719 41.4575C197.547 41.6489 197.412 41.8813 197.314 42.1548C197.217 42.4243 197.168 42.7251 197.168 43.0571V46.5024H196.189V40.0806H196.998L197.104 41.2642H197.145C197.277 41.0259 197.438 40.8091 197.625 40.6138C197.812 40.4146 198.029 40.2563 198.275 40.1392C198.525 40.022 198.803 39.9634 199.107 39.9634ZM206.637 43.2798C206.637 43.8071 206.568 44.2778 206.432 44.6919C206.295 45.106 206.098 45.4556 205.84 45.7407C205.582 46.0259 205.27 46.2446 204.902 46.397C204.539 46.5454 204.127 46.6196 203.666 46.6196C203.236 46.6196 202.842 46.5454 202.482 46.397C202.127 46.2446 201.818 46.0259 201.557 45.7407C201.299 45.4556 201.098 45.106 200.953 44.6919C200.812 44.2778 200.742 43.8071 200.742 43.2798C200.742 42.5767 200.861 41.979 201.1 41.4868C201.338 40.9907 201.678 40.6138 202.119 40.356C202.564 40.0942 203.094 39.9634 203.707 39.9634C204.293 39.9634 204.805 40.0942 205.242 40.356C205.684 40.6177 206.025 40.9966 206.268 41.4927C206.514 41.9849 206.637 42.5806 206.637 43.2798ZM201.75 43.2798C201.75 43.7954 201.818 44.2427 201.955 44.6216C202.092 45.0005 202.303 45.2935 202.588 45.5005C202.873 45.7075 203.24 45.811 203.689 45.811C204.135 45.811 204.5 45.7075 204.785 45.5005C205.074 45.2935 205.287 45.0005 205.424 44.6216C205.561 44.2427 205.629 43.7954 205.629 43.2798C205.629 42.7681 205.561 42.3267 205.424 41.9556C205.287 41.5806 205.076 41.2915 204.791 41.0884C204.506 40.8853 204.137 40.7837 203.684 40.7837C203.016 40.7837 202.525 41.0044 202.213 41.4458C201.904 41.8872 201.75 42.4985 201.75 43.2798ZM213.545 46.4907L212.402 42.7524C212.352 42.5923 212.303 42.436 212.256 42.2837C212.213 42.1274 212.172 41.979 212.133 41.8384C212.098 41.6938 212.064 41.561 212.033 41.4399C212.006 41.3149 211.982 41.2075 211.963 41.1177H211.922C211.906 41.2075 211.885 41.3149 211.857 41.4399C211.83 41.561 211.797 41.6938 211.758 41.8384C211.723 41.9829 211.684 42.1353 211.641 42.2954C211.598 42.4517 211.549 42.6099 211.494 42.77L210.299 46.4907H209.203L207.434 40.0688H208.441L209.367 43.6138C209.43 43.8481 209.488 44.0806 209.543 44.311C209.602 44.5376 209.65 44.7524 209.689 44.9556C209.732 45.1548 209.764 45.3286 209.783 45.4771H209.83C209.854 45.3794 209.879 45.2622 209.906 45.1255C209.938 44.9888 209.971 44.8442 210.006 44.6919C210.045 44.5356 210.086 44.3813 210.129 44.229C210.172 44.0728 210.215 43.9263 210.258 43.7896L211.441 40.0688H212.49L213.633 43.7837C213.691 43.9712 213.748 44.1665 213.803 44.3696C213.861 44.5728 213.914 44.77 213.961 44.9614C214.008 45.1489 214.041 45.3169 214.061 45.4653H214.107C214.123 45.3325 214.152 45.1685 214.195 44.9731C214.238 44.7778 214.287 44.563 214.342 44.3286C214.4 44.0942 214.461 43.856 214.523 43.6138L215.461 40.0688H216.451L214.676 46.4907H213.545ZM219.697 45.8228C219.857 45.8228 220.021 45.8091 220.189 45.7817C220.357 45.7544 220.494 45.7212 220.6 45.6821V46.438C220.486 46.4888 220.328 46.5317 220.125 46.5669C219.926 46.6021 219.73 46.6196 219.539 46.6196C219.199 46.6196 218.891 46.561 218.613 46.4438C218.336 46.3228 218.113 46.1196 217.945 45.8345C217.781 45.5493 217.699 45.1548 217.699 44.6509V40.8423H216.785V40.3677L217.705 39.9868L218.092 38.5923H218.678V40.0806H220.559V40.8423H218.678V44.6216C218.678 45.0239 218.77 45.3247 218.953 45.5239C219.141 45.7231 219.389 45.8228 219.697 45.8228ZM222.873 37.3853V40.1099C222.873 40.2661 222.869 40.4243 222.861 40.5845C222.854 40.7407 222.84 40.8853 222.82 41.0181H222.885C223.018 40.7915 223.186 40.6021 223.389 40.4497C223.596 40.2935 223.83 40.1763 224.092 40.0981C224.354 40.0161 224.631 39.9751 224.924 39.9751C225.439 39.9751 225.869 40.0571 226.213 40.2212C226.561 40.3853 226.82 40.6392 226.992 40.9829C227.168 41.3267 227.256 41.772 227.256 42.3188V46.5024H226.295V42.3833C226.295 41.8481 226.172 41.4478 225.926 41.1821C225.684 40.9165 225.311 40.7837 224.807 40.7837C224.33 40.7837 223.949 40.8755 223.664 41.0591C223.383 41.2388 223.18 41.5044 223.055 41.856C222.934 42.2075 222.873 42.6372 222.873 43.145V46.5024H221.9V37.3853H222.873Z" fill="white"/>
<mask id="mask0_0_60" style="mask-type:alpha" maskUnits="userSpaceOnUse" x="0" y="0" width="59" height="30">
<g opacity="0.5">
<path d="M38.5213 18.5855C40.4642 19.9703 42.8277 21.174 45.2652 20.8278C47.6609 20.4848 49.4817 18.3378 49.7611 16.0256C50.0822 13.8023 49.0161 11.8014 47.1406 10.6262C43.4829 8.20923 38.836 10.3912 35.7274 12.7764C34.4423 13.7792 33.2592 14.9036 32.1948 16.1336C28.0393 19.4907 22.7052 23.4386 16.9986 22.4857C13.5688 21.7934 10.7685 18.8587 10.0235 15.4983C9.63163 13.2351 9.95809 10.9073 10.958 8.83492C13.0357 4.46462 18.3442 1.84753 23.0392 3.46733C24.8344 4.25818 26.2891 5.62072 27.6572 6.96103C26.8496 6.2126 25.9912 5.51966 25.0881 4.88704C22.0372 2.45416 17.4707 3.08302 14.529 5.38251C12.8237 6.69974 11.5965 8.52862 11.0318 10.5945C10.3542 13.1195 10.5309 15.9621 12.1301 18.125C13.9863 20.7802 17.0949 22.1745 20.3416 21.5583C24.6063 20.7707 28.3059 18.0837 31.6232 15.3999C32.6959 14.163 33.8959 13.04 35.2039 12.0491C38.5726 9.48919 43.6691 7.28499 47.5645 10.026C48.8428 10.8493 49.7778 12.1011 50.1979 13.5514C51.142 16.8387 48.8459 20.7484 45.3165 21.1169C42.7924 21.3868 40.416 20.0814 38.5181 18.576L38.5213 18.5855Z" fill="url(#paint0_linear_0_60)"/>
</g>
<g opacity="0.6">
<path d="M25.7393 5.79631C24.625 4.03993 22.4991 3.1411 20.4855 2.86795C17.393 2.51541 14.2747 3.84301 12.0364 5.90429C9.24247 8.73101 8.11527 13.3776 9.46726 17.1C9.9915 18.4923 10.8476 19.739 11.9629 20.7342C13.0783 21.7295 14.4199 22.4439 15.874 22.817C20.9608 23.8206 25.9256 20.8637 29.6829 17.6876C31.2274 16.3279 32.6392 14.8274 33.8995 13.2061C34.5461 12.3544 35.2718 11.5644 36.0671 10.8463C37.6684 9.37421 39.6296 8.33982 41.7577 7.84489C46.0802 6.7936 51.2377 9.09626 51.8061 13.8096C52.2846 17.0333 50.5441 20.5905 47.201 21.4322C46.1728 21.7265 45.0909 21.7892 44.035 21.6155C42.979 21.4418 41.9759 21.0362 41.0994 20.4286C40.232 19.8227 39.4797 19.07 38.8771 18.2053L38.9381 18.164C39.5255 19.0188 40.2851 19.7444 41.1693 20.2953C42.0534 20.8462 43.0431 21.2105 44.0763 21.3655C47.2877 21.7816 50.2614 20.0284 51.0225 16.8555C52.3778 11.1385 47.4226 7.35259 41.96 8.63573C38.9734 9.32177 36.4332 11.3195 34.6862 13.7842C30.6463 19.2629 22.9647 25.2943 15.6845 23.7571C11.378 22.7344 8.10242 18.542 8.14096 14.1812C8.16023 10.986 9.40304 7.73372 11.7152 5.50728C14.8303 2.69327 19.7597 1.41013 23.562 3.60163C24.5084 4.08954 25.2964 4.8315 25.8357 5.74232L25.7779 5.77725L25.7393 5.79631Z" fill="url(#paint1_linear_0_60)"/>
</g>
<g opacity="0.7">
<path d="M25.2981 5.7948C20.9788 -0.439858 11.046 2.32335 8.07544 8.48178C4.86406 14.9102 7.48134 22.8059 15.012 24.2129C20.754 25.1658 26.117 21.5355 29.7555 17.432C31.9649 14.7514 34.4184 12.1883 36.8205 9.68551C38.4985 7.89729 40.7678 6.76164 43.2185 6.4838C45.6692 6.20595 48.1395 6.80423 50.1831 8.17052C53.539 10.3938 54.5056 14.059 53.1408 17.756C51.7952 21.2338 47.9351 23.1553 44.303 22.3009C42.0775 21.8722 40.2888 20.3064 39.0556 18.4896C38.9978 18.4007 38.8951 18.261 38.8405 18.172L38.8244 18.1498C38.8244 18.1339 38.7827 18.1498 38.8533 18.0958C38.924 18.0418 38.8983 18.0958 38.9176 18.0958C38.9914 18.1974 39.0845 18.3276 39.1584 18.4134C40.4173 20.1348 42.2156 21.5895 44.3673 21.977C47.8131 22.6916 51.4034 20.8558 52.598 17.5463C53.311 15.4882 53.2981 13.0045 52.1035 11.1306C50.2826 8.31027 46.6441 6.88738 43.3332 7.31933C41.0953 7.62482 39.0358 8.69438 37.511 10.343L35.1602 12.9124C32.7453 15.4533 30.7317 18.3562 28.0759 20.6907C24.5434 23.8668 19.7006 26.1726 14.8065 25.2896C12.3666 24.8681 10.1502 23.6223 8.5355 21.7647C6.92083 19.9071 6.00797 17.553 5.95271 15.1039C5.81462 10.362 8.30987 5.52166 12.6517 3.38733C15.7667 1.75482 19.7777 1.44039 22.8446 3.33651C23.8595 3.93791 24.7236 4.75881 25.3719 5.73764L25.2852 5.79798L25.2981 5.7948Z" fill="url(#paint2_linear_0_60)"/>
</g>
<g opacity="0.8">
<path d="M39.3451 17.9933C41.5481 21.5918 44.2071 23.8278 48.6774 22.948C51.1598 22.4462 53.2022 20.5532 54.095 18.2379C54.9877 15.9225 55.1355 13.2546 54.1753 10.9869C51.5612 4.99993 42.8102 4.31707 38.6257 9.04309C36.2525 11.6475 33.4715 15.1317 31.1529 17.8186C28.664 20.8423 25.8252 23.6912 22.2541 25.4762C18.6863 27.3247 14.261 27.8868 10.5262 26.1622C8.68467 25.3087 7.08159 24.0236 5.85601 22.4185C4.63043 20.8135 3.81938 18.9369 3.49323 16.9516C1.44437 5.66056 15.1249 -3.61998 24.3383 4.2472C24.7476 4.67686 25.1034 5.15349 25.3981 5.66691L25.276 5.73043C23.5483 3.12604 20.2438 1.88419 17.1801 1.7508C12.0419 1.50306 7.22485 4.96182 5.20811 9.52269C1.35445 18.1585 8.61217 28.0393 18.2174 25.7049C21.9009 24.8219 25.032 22.5288 27.6717 19.8736C30.0963 17.3327 32.8934 13.839 35.212 11.1647C36.9173 9.19554 38.629 7.0104 41.1081 5.93053C45.9862 3.59293 52.8104 5.53034 54.8625 10.6947C55.8452 13.1847 55.5979 15.9892 54.6248 18.438C53.6518 20.8867 51.4135 22.8464 48.7512 23.3228C46.089 23.7992 43.3625 23.2021 41.4871 21.1885C40.5915 20.2496 39.8101 19.2103 39.1588 18.0918L39.3451 17.9806V17.9933Z" fill="url(#paint3_linear_0_60)"/>
</g>
<path d="M39.5672 17.9171C40.8517 20.458 42.9295 22.8115 45.717 23.7198C50.001 25.1872 54.5387 22.6272 56.2278 18.6381C57.5124 15.7129 57.2683 12.2859 55.82 9.45918C53.8611 5.33026 48.5848 3.49766 44.3232 4.99678C40.9352 6.10841 38.3854 8.78585 36.4682 11.6888C35.0006 13.8644 32.9935 16.9293 31.3942 18.9716C27.0492 25.076 19.9457 30.577 11.9525 29.3224C4.53102 28.1949 -0.279625 21.4426 0.0126111 14.2074C0.182814 9.54175 3.0024 5.31438 6.84964 2.75763C11.3199 -0.205663 17.4857 -0.212012 22.0298 2.5226C22.8295 3.01312 23.5678 3.59518 24.2296 4.25674C24.5863 4.68755 24.9084 5.14525 25.1931 5.62564L25.0871 5.69234C24.7808 5.24306 24.4394 4.81827 24.0659 4.4219C23.3814 3.81618 22.6268 3.29271 21.8179 2.86244C17.0715 0.273932 10.7033 0.763053 6.60236 4.28534C4.15529 6.31168 2.267 9.07487 1.67932 12.1938C0.89253 16.2846 2.2413 20.7121 5.01272 23.8119C6.91081 25.8361 9.45319 27.1555 12.2159 27.5502C19.5555 28.4611 25.8257 23.3895 29.8496 17.8345C31.9915 15.1317 34.1721 11.5745 36.3012 8.84937C38.7419 5.85432 42.1973 3.42461 46.1602 3.05618C50.306 2.63058 54.6639 4.75221 56.5747 8.45553C58.2607 11.6761 58.5497 15.6589 56.9729 18.9747C54.1404 25.0506 46.5166 26.7149 41.7574 21.7475C40.7061 20.6736 39.8789 19.4055 39.3231 18.0156L39.5511 17.9235L39.5672 17.9171Z" fill="url(#paint4_linear_0_60)"/>
</mask>
<g mask="url(#mask0_0_60)">
<path d="M24.9236 4.20085H23.2169C21.852 4.20085 18.7807 4.33574 17.4154 4.87533C15.7088 5.54982 14.6848 7.23587 13.3194 9.25918C11.9541 11.2825 11.6128 13.3058 11.9541 15.6663C12.2954 18.0269 16.3914 19.0385 20.1461 19.713C23.9007 20.3874 29.362 16.0036 29.362 15.6663C29.362 15.3291 32.434 8.58474 34.1407 4.87533C35.8473 1.16592 44.0393 2.17758 46.77 1.16592C48.9545 0.356592 54.0517 3.52645 56.3273 5.21255C57.6926 7.68549 60.355 13.5081 60.0819 17.0152C59.7406 21.3991 54.2793 26.7946 53.9379 27.469C53.6649 28.0086 46.9975 26.7946 43.698 26.1201L36.8713 19.713C38.1229 19.4882 41.0352 19.574 41.5814 19.574C42.1275 19.574 43.1291 19.4882 43.698 19.713C45.4046 20.7246 47.4526 17.0152 48.1353 14.9919C48.818 12.9686 45.746 10.9453 43.3567 10.6081C41.4452 10.3383 38.9193 11.6197 37.8953 12.2942L33.1167 17.6897L27.6554 25.7829L14.0021 33.2018C9.56439 31.4033 0.620727 27.7388 0.347661 27.469C0.00632906 27.1318 -4.08966 17.6897 -3.74832 12.6314C-3.40699 7.57308 1.37166 2.85202 1.71299 2.85202C2.05432 2.85202 0.688993 0.828652 12.2943 -0.857445C21.5785 -2.20632 24.5822 1.95272 24.9236 4.20085Z" fill="url(#paint5_linear_0_60)"/>
</g>
<path d="M70.0126 26.3038C68.4973 26.3038 67.1273 26.051 65.9026 25.5453C64.6987 25.0397 63.7439 24.3115 63.0381 23.3609C62.3324 22.4102 61.9692 21.2877 61.9484 19.9932H66.6188C66.681 20.8629 66.9924 21.5506 67.5528 22.0563C68.134 22.5619 68.9228 22.8148 69.9192 22.8148C70.9363 22.8148 71.7354 22.5821 72.3166 22.1169C72.8978 21.6315 73.1884 21.0045 73.1884 20.2359C73.1884 19.6089 72.9912 19.0931 72.5968 18.6886C72.2024 18.284 71.7043 17.9705 71.1023 17.748C70.5211 17.5053 69.7116 17.2424 68.6737 16.9592C67.2622 16.5547 66.1102 16.1603 65.2177 15.776C64.3458 15.3714 63.5882 14.7748 62.9447 13.9859C62.322 13.1769 62.0107 12.1049 62.0107 10.7699C62.0107 9.5159 62.3324 8.42368 62.9759 7.49326C63.6193 6.56285 64.5223 5.85493 65.6847 5.36949C66.8471 4.86383 68.1755 4.611 69.6701 4.611C71.9118 4.611 73.7281 5.147 75.1188 6.219C76.5303 7.27077 77.3087 8.7473 77.454 10.6486H72.6591C72.6176 9.92043 72.2959 9.32375 71.6939 8.85854C71.1127 8.37311 70.3343 8.13039 69.3587 8.13039C68.5077 8.13039 67.8227 8.34277 67.3037 8.76753C66.8056 9.19228 66.5565 9.80918 66.5565 10.6182C66.5565 11.1846 66.7433 11.6599 67.1169 12.0442C67.5113 12.4083 67.9887 12.7117 68.5492 12.9544C69.1304 13.1769 69.9399 13.4398 70.9778 13.7432C72.3893 14.1477 73.5413 14.5523 74.4338 14.9568C75.3264 15.3613 76.0944 15.9681 76.7379 16.7772C77.3814 17.5862 77.7031 18.6481 77.7031 19.9628C77.7031 21.0955 77.4021 22.1473 76.8002 23.1181C76.1982 24.089 75.316 24.8677 74.1536 25.4543C72.9912 26.0206 71.6109 26.3038 70.0126 26.3038Z" fill="white"/>
<path d="M91.1966 9.04058C92.5043 9.04058 93.6667 9.32375 94.6838 9.89009C95.7009 10.4362 96.4896 11.2554 97.0501 12.3476C97.6313 13.4196 97.9219 14.7141 97.9219 16.2311V26.0914H93.5629V16.8075C93.5629 15.4726 93.2204 14.4511 92.5354 13.7432C91.8504 13.0151 90.9163 12.651 89.7332 12.651C88.5293 12.651 87.5744 13.0151 86.8687 13.7432C86.1837 14.4511 85.8412 15.4726 85.8412 16.8075V26.0914H81.4822V3.64014H85.8412V11.3767C86.4017 10.6486 87.1489 10.0822 88.083 9.67771C89.0171 9.25296 90.0549 9.04058 91.1966 9.04058Z" fill="white"/>
<path d="M109.726 26.3645C108.066 26.3645 106.571 26.0105 105.243 25.3026C103.914 24.5744 102.866 23.553 102.098 22.2383C101.351 20.9236 100.977 19.4066 100.977 17.6874C100.977 15.9681 101.361 14.4511 102.129 13.1364C102.918 11.8217 103.987 10.8104 105.336 10.1025C106.686 9.37432 108.19 9.01024 109.851 9.01024C111.512 9.01024 113.016 9.37432 114.366 10.1025C115.715 10.8104 116.774 11.8217 117.542 13.1364C118.33 14.4511 118.725 15.9681 118.725 17.6874C118.725 19.4066 118.32 20.9236 117.51 22.2383C116.722 23.553 115.642 24.5744 114.272 25.3026C112.923 26.0105 111.408 26.3645 109.726 26.3645ZM109.726 22.6631C110.515 22.6631 111.252 22.481 111.937 22.1169C112.643 21.7326 113.203 21.1663 113.618 20.4179C114.034 19.6695 114.241 18.7594 114.241 17.6874C114.241 16.0895 113.805 14.8658 112.933 14.0163C112.082 13.1465 111.034 12.7117 109.789 12.7117C108.543 12.7117 107.495 13.1465 106.644 14.0163C105.814 14.8658 105.399 16.0895 105.399 17.6874C105.399 19.2852 105.803 20.5191 106.613 21.3888C107.443 22.2383 108.481 22.6631 109.726 22.6631Z" fill="white"/>
<path d="M120.801 17.6267C120.801 15.9277 121.144 14.4208 121.829 13.1061C122.535 11.7914 123.489 10.7801 124.693 10.0721C125.897 9.3642 127.236 9.01024 128.71 9.01024C129.831 9.01024 130.9 9.25296 131.917 9.73839C132.934 10.2036 133.743 10.8306 134.345 11.6194V3.64014H138.767V26.0914H134.345V23.6036C133.806 24.4329 133.048 25.1003 132.072 25.606C131.097 26.1117 129.966 26.3645 128.679 26.3645C127.226 26.3645 125.897 26.0004 124.693 25.2723C123.489 24.5441 122.535 23.5227 121.829 22.208C121.144 20.873 120.801 19.3459 120.801 17.6267ZM134.377 17.6874C134.377 16.6558 134.169 15.776 133.754 15.0478C133.339 14.2994 132.778 13.7331 132.072 13.3488C131.367 12.9443 130.609 12.742 129.8 12.742C128.99 12.742 128.243 12.9342 127.558 13.3185C126.873 13.7028 126.312 14.2691 125.876 15.0175C125.461 15.7456 125.254 16.6154 125.254 17.6267C125.254 18.638 125.461 19.528 125.876 20.2966C126.312 21.0449 126.873 21.6214 127.558 22.0259C128.264 22.4305 129.011 22.6327 129.8 22.6327C130.609 22.6327 131.367 22.4406 132.072 22.0563C132.778 21.6517 133.339 21.0854 133.754 20.3572C134.169 19.6089 134.377 18.7189 134.377 17.6874Z" fill="white"/>
<path d="M141.903 17.6267C141.903 15.9277 142.246 14.4208 142.931 13.1061C143.636 11.7914 144.581 10.7801 145.764 10.0721C146.968 9.3642 148.307 9.01024 149.78 9.01024C151.067 9.01024 152.188 9.26307 153.143 9.76873C154.119 10.2744 154.897 10.9115 155.478 11.6801V9.2833H159.868V26.0914H155.478V23.6339C154.918 24.4228 154.139 25.0801 153.143 25.606C152.168 26.1117 151.036 26.3645 149.749 26.3645C148.296 26.3645 146.968 26.0004 145.764 25.2723C144.581 24.5441 143.636 23.5227 142.931 22.208C142.246 20.873 141.903 19.3459 141.903 17.6267ZM155.478 17.6874C155.478 16.6558 155.271 15.776 154.856 15.0478C154.44 14.2994 153.88 13.7331 153.174 13.3488C152.469 12.9443 151.711 12.742 150.901 12.742C150.092 12.742 149.345 12.9342 148.66 13.3185C147.975 13.7028 147.414 14.2691 146.978 15.0175C146.563 15.7456 146.356 16.6154 146.356 17.6267C146.356 18.638 146.563 19.528 146.978 20.2966C147.414 21.0449 147.975 21.6214 148.66 22.0259C149.365 22.4305 150.113 22.6327 150.901 22.6327C151.711 22.6327 152.469 22.4406 153.174 22.0563C153.88 21.6517 154.44 21.0854 154.856 20.3572C155.271 19.6089 155.478 18.7189 155.478 17.6874Z" fill="white"/>
<path d="M169.201 12.7724V20.9034C169.201 21.4697 169.336 21.8843 169.606 22.1473C169.896 22.39 170.374 22.5114 171.038 22.5114H173.062V26.0914H170.322C166.648 26.0914 164.811 24.352 164.811 20.873V12.7724H162.756V9.2833H164.811V5.12678H169.201V9.2833H173.062V12.7724H169.201Z" fill="white"/>
<defs>
<linearGradient id="paint0_linear_0_60" x1="24.9658" y1="13.8491" x2="38.6144" y2="13.8491" gradientUnits="userSpaceOnUse">
<stop offset="0.065" stop-color="#2EB3F6"/>
<stop offset="0.345" stop-color="#0A3BD5"/>
<stop offset="0.62" stop-color="#5321A0"/>
<stop offset="0.96" stop-color="#AE60FC"/>
</linearGradient>
<linearGradient id="paint1_linear_0_60" x1="24.4343" y1="14.388" x2="39.1583" y2="14.388" gradientUnits="userSpaceOnUse">
<stop offset="0.065" stop-color="#2EB3F6"/>
<stop offset="0.345" stop-color="#0A3BD5"/>
<stop offset="0.62" stop-color="#5321A0"/>
<stop offset="0.96" stop-color="#AE60FC"/>
</linearGradient>
<linearGradient id="paint2_linear_0_60" x1="23.7486" y1="15.0009" x2="39.835" y2="15.0009" gradientUnits="userSpaceOnUse">
<stop offset="0.065" stop-color="#2EB3F6"/>
<stop offset="0.345" stop-color="#0A3BD5"/>
<stop offset="0.62" stop-color="#5321A0"/>
<stop offset="0.96" stop-color="#AE60FC"/>
</linearGradient>
<linearGradient id="paint3_linear_0_60" x1="22.731" y1="15.6333" x2="40.3018" y2="15.6333" gradientUnits="userSpaceOnUse">
<stop offset="0.065" stop-color="#2EB3F6"/>
<stop offset="0.345" stop-color="#0A3BD5"/>
<stop offset="0.62" stop-color="#5321A0"/>
<stop offset="0.96" stop-color="#AE60FC"/>
</linearGradient>
<linearGradient id="paint4_linear_0_60" x1="21.6079" y1="16.5406" x2="41.1342" y2="16.5406" gradientUnits="userSpaceOnUse">
<stop offset="0.065" stop-color="#2EB3F6"/>
<stop offset="0.345" stop-color="#0A3BD5"/>
<stop offset="0.62" stop-color="#5321A0"/>
<stop offset="0.96" stop-color="#AE60FC"/>
</linearGradient>
<linearGradient id="paint5_linear_0_60" x1="6.62648" y1="14.4363" x2="49.1121" y2="14.0001" gradientUnits="userSpaceOnUse">
<stop stop-color="#93479C"/>
<stop offset="1" stop-color="#05B8C3"/>
</linearGradient>
</defs>
</svg>
