<svg width="25" height="25" viewBox="0 0 25 25" fill="none" xmlns="http://www.w3.org/2000/svg"><path d="M16.6686 8.03687C18.2599 8.03687 19.786 8.66901 20.9112 9.79422C22.0364 10.9194 22.6686 12.4456 22.6686 14.0369V21.0369H18.6686V14.0369C18.6686 13.5064 18.4579 12.9977 18.0828 12.6227C17.7077 12.2476 17.199 12.0369 16.6686 12.0369C16.1381 12.0369 15.6294 12.2476 15.2544 12.6227C14.8793 12.9977 14.6686 13.5064 14.6686 14.0369V21.0369H10.6686V14.0369C10.6686 12.4456 11.3007 10.9194 12.4259 9.79422C13.5512 8.66901 15.0773 8.03687 16.6686 8.03687Z" stroke="white" stroke-width="2" stroke-linecap="round" stroke-linejoin="round"></path><path d="M6.66858 9.03687H2.66858V21.0369H6.66858V9.03687Z" stroke="white" stroke-width="2" stroke-linecap="round" stroke-linejoin="round"></path><path d="M4.66858 6.03687C5.77315 6.03687 6.66858 5.14143 6.66858 4.03687C6.66858 2.9323 5.77315 2.03687 4.66858 2.03687C3.56401 2.03687 2.66858 2.9323 2.66858 4.03687C2.66858 5.14143 3.56401 6.03687 4.66858 6.03687Z" stroke="white" stroke-width="2" stroke-linecap="round" stroke-linejoin="round"></path></svg>