<svg width="32" height="32" viewBox="0 0 32 32" fill="none" xmlns="http://www.w3.org/2000/svg">
<path d="M17.9997 0.666748H13.9997C11.7019 0.669395 9.49907 1.58333 7.87434 3.20808C6.24959 4.83282 5.33565 7.03568 5.33301 9.33342V20.0001C5.33601 22.6513 6.39054 25.1931 8.26527 27.0678C10.1399 28.9425 12.6817 29.9971 15.333 30.0001H16.6663C19.3176 29.9971 21.8594 28.9425 23.7341 27.0678C25.6088 25.1931 26.6633 22.6513 26.6663 20.0001V9.33342C26.6637 7.03568 25.7497 4.83282 24.125 3.20808C22.5003 1.58333 20.2974 0.669395 17.9997 0.666748ZM15.9997 10.6667C15.8229 10.6667 15.6533 10.5965 15.5283 10.4715C15.4033 10.3465 15.333 10.1769 15.333 10.0001V8.00008C15.333 7.82328 15.4033 7.65368 15.5283 7.52868C15.6533 7.40368 15.8229 7.33342 15.9997 7.33342C16.1765 7.33342 16.3461 7.40368 16.4711 7.52868C16.5961 7.65368 16.6663 7.82328 16.6663 8.00008V10.0001C16.6663 10.1769 16.5961 10.3465 16.4711 10.4715C16.3461 10.5965 16.1765 10.6667 15.9997 10.6667ZM25.333 20.0001C25.3303 22.2978 24.4164 24.5007 22.7917 26.1254C21.1669 27.7501 18.9641 28.6641 16.6663 28.6667H15.333C13.0353 28.6641 10.8324 27.7501 9.20767 26.1254C7.58294 24.5007 6.66901 22.2978 6.66634 20.0001V9.33342C6.66861 7.38921 7.44201 5.52527 8.81674 4.1505C10.1915 2.77573 12.0555 2.00237 13.9997 2.00008H15.333V6.12275C14.9444 6.26013 14.6077 6.51424 14.3691 6.85028C14.1304 7.18635 14.0014 7.58788 13.9997 8.00008V10.0001C14.0015 10.4163 14.1333 10.8216 14.3765 11.1595C14.6197 11.4973 14.9622 11.7509 15.3563 11.8847C15.3448 11.9223 15.337 11.9609 15.333 12.0001V14.6667C15.333 14.8435 15.4033 15.0131 15.5283 15.1381C15.6533 15.2631 15.8229 15.3334 15.9997 15.3334C16.1765 15.3334 16.3461 15.2631 16.4711 15.1381C16.5961 15.0131 16.6663 14.8435 16.6663 14.6667V12.0001C16.6623 11.9609 16.6545 11.9223 16.643 11.8847C17.0371 11.7509 17.3797 11.4973 17.6229 11.1595C17.8661 10.8216 17.9978 10.4163 17.9997 10.0001V8.00008C17.9979 7.58788 17.8689 7.18635 17.6303 6.85028C17.3916 6.51424 17.0549 6.26013 16.6663 6.12275V2.00008H17.9997C19.9439 2.00237 21.8078 2.77573 23.1826 4.1505C24.5573 5.52527 25.3307 7.38921 25.333 9.33342V20.0001Z" fill="url(#paint0_linear_0_136)"/>
<defs>
<linearGradient id="paint0_linear_0_136" x1="15.9997" y1="0.666748" x2="15.9997" y2="30.0001" gradientUnits="userSpaceOnUse">
<stop stop-color="#91489C"/>
<stop offset="1" stop-color="#1EA4BC"/>
</linearGradient>
</defs>
</svg>
