<svg width="100" height="100" viewBox="0 0 100 100" fill="none" xmlns="http://www.w3.org/2000/svg">
<path d="M27.7734 50.6836C23.5161 50.6836 19.3544 51.9465 15.8146 54.3126C12.2747 56.6787 9.51578 60.0417 7.88658 63.9764C6.25737 67.9111 5.8311 72.2407 6.66166 76.4177C7.49222 80.5947 9.54231 84.4316 12.5527 87.4431C15.5631 90.4545 19.3985 92.5054 23.574 93.3363C27.7495 94.1671 32.0776 93.7407 36.0108 92.1109C39.944 90.4811 43.3059 87.7211 45.6711 84.18C48.0363 80.6389 49.2988 76.4757 49.2988 72.2168C49.2921 66.5079 47.0221 61.0347 42.9868 56.9979C38.9514 52.9611 33.4802 50.6902 27.7734 50.6836ZM27.7734 90.625C24.1339 90.625 20.5762 89.5454 17.5501 87.5227C14.524 85.4999 12.1654 82.625 10.7726 79.2613C9.37988 75.8976 9.01547 72.1964 9.7255 68.6255C10.4355 65.0547 12.1881 61.7747 14.7616 59.2002C17.3351 56.6258 20.6139 54.8726 24.1835 54.1623C27.753 53.452 31.4529 53.8166 34.8154 55.2098C38.1778 56.6031 41.0517 58.9625 43.0737 61.9897C45.0957 65.017 46.1749 68.576 46.1749 72.2168C46.1693 77.0972 44.2288 81.7762 40.7791 85.2272C37.3293 88.6782 32.6521 90.6194 27.7734 90.625Z" fill="#68326F"/>
<path d="M46.6082 28.4683C43.813 28.4701 41.0375 28.9379 38.3959 29.8522C34.76 31.1225 31.468 33.2186 28.7783 35.976C26.0886 38.7334 24.0744 42.077 22.8941 45.7443C22.8318 45.9398 22.8086 46.1458 22.8259 46.3503C22.8431 46.5548 22.9005 46.754 22.9947 46.9363C23.0889 47.1187 23.218 47.2807 23.3748 47.4131C23.5316 47.5455 23.7129 47.6457 23.9084 47.7081C24.1039 47.7704 24.3098 47.7936 24.5142 47.7763C24.7187 47.759 24.9177 47.7017 25.1 47.6074C25.2823 47.5132 25.4443 47.384 25.5766 47.2271C25.709 47.0703 25.8092 46.8889 25.8715 46.6934C26.9028 43.4887 28.6626 40.5668 31.0127 38.1571C33.3628 35.7473 36.2393 33.9153 39.4164 32.8048C41.7298 32.0044 44.1603 31.595 46.6082 31.5933C52.381 31.5999 57.9155 33.8969 61.9974 37.9804C66.0794 42.0639 68.3756 47.6003 68.3822 53.3752C68.3807 55.8224 67.9719 58.2522 67.1727 60.5651C66.0629 63.7442 64.2315 66.6227 61.8224 68.9745C59.4132 71.3264 56.4918 73.0874 53.2876 74.1195C52.8928 74.2454 52.5641 74.523 52.3739 74.8912C52.1837 75.2595 52.1475 75.6883 52.2733 76.0833C52.3991 76.4783 52.6766 76.8071 53.0448 76.9974C53.4129 77.1877 53.8416 77.2239 54.2364 77.098C59.8854 75.2777 64.699 71.4992 67.81 66.4432C70.921 61.3872 72.1249 55.3861 71.2048 49.5208C70.2848 43.6555 67.3013 38.3117 62.7918 34.452C58.2822 30.5922 52.5431 28.4702 46.6082 28.4683Z" fill="#68326F"/>
<path d="M65.4292 6.25007C59.8252 6.23763 54.3448 7.89744 49.6887 11.0173C45.0327 14.1371 41.4126 18.5752 39.2913 23.7641C39.2128 23.9539 39.1726 24.1574 39.1729 24.3627C39.1731 24.5681 39.2138 24.7714 39.2926 24.9611C39.3715 25.1507 39.4869 25.3229 39.6323 25.4679C39.7778 25.6129 39.9503 25.7277 40.1402 25.8059C40.33 25.8842 40.5334 25.9242 40.7387 25.9237C40.944 25.9232 41.1472 25.8822 41.3366 25.8032C41.5261 25.7241 41.6981 25.6084 41.8429 25.4627C41.9876 25.3171 42.1023 25.1443 42.1802 24.9543C43.7554 21.1289 46.2491 17.751 49.4407 15.1197C52.6322 12.4885 56.4231 10.685 60.4777 9.8691C64.5322 9.05316 68.7253 9.24991 72.6857 10.4419C76.646 11.6339 80.2515 13.7844 83.1829 16.703C86.1142 19.6215 88.2809 23.2181 89.4913 27.1742C90.7016 31.1304 90.9181 35.324 90.1217 39.3838C89.3252 43.4437 87.5404 47.2444 84.9252 50.4496C82.3101 53.6547 78.9453 56.1653 75.1287 57.7592C74.9287 57.8244 74.7439 57.9294 74.5854 58.0677C74.4268 58.2061 74.2978 58.375 74.206 58.5644C74.1142 58.7537 74.0616 58.9597 74.0512 59.1699C74.0408 59.3801 74.0729 59.5902 74.1455 59.7878C74.2182 59.9853 74.3299 60.1661 74.474 60.3194C74.6182 60.4727 74.7917 60.5954 74.9843 60.6801C75.1769 60.7648 75.3846 60.8098 75.595 60.8123C75.8053 60.8149 76.0141 60.775 76.2087 60.695C82.2629 58.2001 87.2641 53.6808 90.3587 47.9083C93.4534 42.1359 94.4496 35.4679 93.1775 29.0426C91.9053 22.6172 88.4436 16.8325 83.3831 12.6758C78.3226 8.51914 71.977 6.24802 65.4292 6.25007Z" fill="#68326F"/>
</svg>
