<svg width="24" height="25" viewBox="0 0 24 25" fill="none" xmlns="http://www.w3.org/2000/svg">
<g clip-path="url(#clip0_0_50)">
<path d="M14.5006 5.23901C15.4774 5.42958 16.375 5.90727 17.0787 6.61095C17.7824 7.31463 18.2601 8.21228 18.4506 9.18901M14.5006 1.23901C16.5299 1.46445 18.4222 2.37319 19.8669 3.81602C21.3115 5.25885 22.2226 7.15002 22.4506 9.17901M21.4506 17.159V20.159C21.4517 20.4375 21.3947 20.7132 21.2831 20.9684C21.1716 21.2235 21.0079 21.4526 20.8027 21.6409C20.5975 21.8292 20.3552 21.9725 20.0914 22.0617C19.8275 22.1509 19.548 22.1841 19.2706 22.159C16.1935 21.8247 13.2376 20.7732 10.6406 19.089C8.22444 17.5537 6.17595 15.5052 4.64062 13.089C2.95059 10.4802 1.89886 7.51001 1.57062 4.41901C1.54563 4.14248 1.57849 3.86377 1.66712 3.60064C1.75574 3.3375 1.89819 3.0957 2.08538 2.89063C2.27258 2.68557 2.50042 2.52172 2.75441 2.40954C3.00839 2.29735 3.28296 2.23928 3.56062 2.23901H6.56062C7.04592 2.23424 7.51641 2.40609 7.88438 2.72255C8.25235 3.039 8.49269 3.47846 8.56062 3.95901C8.68724 4.91908 8.92207 5.86174 9.26062 6.76901C9.39516 7.12694 9.42428 7.51593 9.34452 7.88989C9.26477 8.26386 9.07948 8.60712 8.81062 8.87901L7.54062 10.149C8.96417 12.6526 11.0371 14.7255 13.5406 16.149L14.8106 14.879C15.0825 14.6102 15.4258 14.4249 15.7997 14.3451C16.1737 14.2654 16.5627 14.2945 16.9206 14.429C17.8279 14.7676 18.7706 15.0024 19.7306 15.129C20.2164 15.1975 20.66 15.4422 20.9771 15.8165C21.2943 16.1908 21.4628 16.6686 21.4506 17.159Z" stroke="white" stroke-linecap="round" stroke-linejoin="round"/>
</g>
<defs>
<clipPath id="clip0_0_50">
<rect width="24.0064" height="24" fill="white" transform="translate(0 0.239258)"/>
</clipPath>
</defs>
</svg>
