<svg width="100" height="100" viewBox="0 0 100 100" fill="none" xmlns="http://www.w3.org/2000/svg">
<path d="M39.0625 3.125C34.6734 3.125 30.8984 5.71719 29.1562 9.44844C28.8141 9.41563 28.475 9.375 28.125 9.375C22.0844 9.375 17.1875 14.2719 17.1875 20.3125V20.9719C14.7391 22.0438 12.9766 24.3359 12.6062 27.0766L12.5 27.0156C7.98125 28.3609 4.6875 32.5453 4.6875 37.5C4.6875 39.6047 5.29219 41.5641 6.32344 43.2328C4.34062 45.4453 3.125 48.3578 3.125 51.5625C3.125 55.225 4.70625 58.5141 7.21719 60.8C6.59531 62.2859 6.25 63.9141 6.25 65.625C6.25 72 11.0219 77.2594 17.1875 78.0281V78.025V78.125H17.7781C18.8938 81.2828 21.6172 83.6766 24.9984 84.2453L25.0219 83.9578C25.0172 84.0984 25 84.2344 25 84.375C25 91.2781 30.5969 96.875 37.5 96.875C44.4031 96.875 50 91.2781 50 84.375V14.0625C50 8.02187 45.1031 3.125 39.0625 3.125ZM17.1875 59.3047V59.375C17.1719 59.4172 17.175 59.3828 17.1875 59.3047Z" fill="white"/>
<path d="M60.9375 43.75H54.6875V40.625H60.9375C61.7984 40.625 62.5 39.9234 62.5 39.0625V28.125H65.625V39.0625C65.625 41.6469 63.5219 43.75 60.9375 43.75Z" fill="#68326F"/>
<path d="M64.0625 25C61.4781 25 59.375 22.8969 59.375 20.3125C59.375 17.7281 61.4781 15.625 64.0625 15.625C66.6469 15.625 68.75 17.7281 68.75 20.3125C68.75 22.8969 66.6469 25 64.0625 25ZM64.0625 18.75C63.2016 18.75 62.5 19.4516 62.5 20.3125C62.5 21.1734 63.2016 21.875 64.0625 21.875C64.9234 21.875 65.625 21.1734 65.625 20.3125C65.625 19.4516 64.9234 18.75 64.0625 18.75Z" fill="#68326F"/>
<path d="M65.625 71.875H62.5V60.9375C62.5 60.0766 61.7984 59.375 60.9375 59.375H54.6875V56.25H60.9375C63.5219 56.25 65.625 58.3531 65.625 60.9375V71.875Z" fill="#68326F"/>
<path d="M64.0625 84.375C61.4781 84.375 59.375 82.2719 59.375 79.6875C59.375 77.1031 61.4781 75 64.0625 75C66.6469 75 68.75 77.1031 68.75 79.6875C68.75 82.2719 66.6469 84.375 64.0625 84.375ZM64.0625 78.125C63.2016 78.125 62.5 78.8266 62.5 79.6875C62.5 80.5484 63.2016 81.25 64.0625 81.25C64.9234 81.25 65.625 80.5484 65.625 79.6875C65.625 78.8266 64.9234 78.125 64.0625 78.125Z" fill="#68326F"/>
<path d="M70.3125 51.5625H54.6875V48.4375H70.3125C72.8969 48.4375 75 46.3344 75 43.75V39.0625H78.125V43.75C78.125 48.0578 74.6203 51.5625 70.3125 51.5625Z" fill="#68326F"/>
<path d="M76.5625 35.9375C73.9781 35.9375 71.875 33.8344 71.875 31.25C71.875 28.6656 73.9781 26.5625 76.5625 26.5625C79.1469 26.5625 81.25 28.6656 81.25 31.25C81.25 33.8344 79.1469 35.9375 76.5625 35.9375ZM76.5625 29.6875C75.7016 29.6875 75 30.3891 75 31.25C75 32.1109 75.7016 32.8125 76.5625 32.8125C77.4234 32.8125 78.125 32.1109 78.125 31.25C78.125 30.3891 77.4234 29.6875 76.5625 29.6875Z" fill="#68326F"/>
<path d="M78.125 56.25H75V71.875H78.125V56.25Z" fill="#68326F"/>
<path d="M85.9375 34.375H82.8125V59.375H85.9375V34.375Z" fill="#68326F"/>
<path d="M85.9375 62.5H82.8125V65.625H85.9375V62.5Z" fill="#68326F"/>
<path d="M57.4719 2.13594C55.2063 1.7875 52.9094 2.43906 51.1688 3.92969C50.2797 4.69063 49.5891 5.63125 49.1234 6.67344C46.8438 3.58125 43.1891 1.5625 39.0625 1.5625C34.4437 1.5625 30.4125 4.08594 28.2484 7.82188C28.2078 7.82031 28.1656 7.8125 28.125 7.8125C21.3344 7.8125 15.8031 13.2578 15.6406 20.0094C13.4734 21.2625 11.8578 23.3531 11.2313 25.8391C6.42813 27.6578 3.125 32.3094 3.125 37.5C3.125 39.4297 3.57812 41.3312 4.44062 43.0609C2.57656 45.5047 1.5625 48.4828 1.5625 51.5625C1.5625 55.1656 2.95469 58.6109 5.40781 61.2109C4.94687 62.6 4.6875 64.0828 4.6875 65.625C4.6875 72.5687 9.78125 78.4594 16.5953 79.5094C17.8844 82.3734 20.3719 84.5891 23.4937 85.4922C24.0672 92.725 30.1234 98.4375 37.5 98.4375C42.1625 98.4375 46.2906 96.1469 48.85 92.6422C49.2953 93.9578 50.0875 95.1453 51.1672 96.0703C52.6 97.2969 54.4078 97.9578 56.2656 97.9578C56.6656 97.9578 57.0687 97.9266 57.4703 97.8641C81.2094 94.1891 98.4375 74.0578 98.4375 50C98.4375 25.9422 81.2094 5.81094 57.4719 2.13594ZM37.5 95.3125C31.4688 95.3125 26.5625 90.4062 26.5625 84.375C26.5625 78.3438 31.4688 73.4375 37.5 73.4375V70.3125C30.4813 70.3125 24.6625 75.4891 23.6203 82.2203C20.7266 81.05 18.75 78.2469 18.75 75C18.75 70.6922 22.2547 67.1875 26.5625 67.1875V64.0625C20.5312 64.0625 15.625 68.9688 15.625 75C15.625 75.3781 15.6484 75.75 15.6859 76.1188C11.0984 74.7828 7.8125 70.5437 7.8125 65.625C7.8125 59.5938 12.7188 54.6875 18.75 54.6875V51.5625C13.7562 51.5625 9.37344 54.1875 6.87812 58.1203C5.47031 56.2422 4.6875 53.9453 4.6875 51.5625C4.6875 48.8781 5.68125 46.2906 7.4875 44.275L8.26719 43.4047L7.65312 42.4109C6.73594 40.9266 6.25 39.2281 6.25 37.5C6.25 34.0953 8.14844 31.0031 11.0281 29.3625C11.6375 33.9484 15.5641 37.5 20.3125 37.5V34.375C16.8656 34.375 14.0625 31.5719 14.0625 28.125C14.0625 24.6781 16.8656 21.875 20.3125 21.875C23.7594 21.875 26.5625 24.6781 26.5625 28.125H29.6875C29.6875 22.9547 25.4828 18.75 20.3125 18.75C19.8219 18.75 19.3438 18.8 18.8719 18.8719C19.5094 14.7672 22.8109 11.5391 26.9531 11.0188C26.7078 11.9953 26.5625 13.0109 26.5625 14.0625C26.5625 20.9547 32.1703 26.5625 39.0625 26.5625V23.4375C33.8922 23.4375 29.6875 19.2328 29.6875 14.0625C29.6875 8.89219 33.8922 4.6875 39.0625 4.6875C44.2328 4.6875 48.4375 8.89219 48.4375 14.0625V84.375C48.4375 90.4062 43.5312 95.3125 37.5 95.3125ZM56.9922 94.7766C55.6312 94.9922 54.2484 94.5938 53.2016 93.6984C52.1594 92.8047 51.5625 91.5062 51.5625 90.1375V9.8625C51.5625 8.49219 52.1594 7.19375 53.2016 6.30156C54.0625 5.56406 55.1516 5.16719 56.2688 5.16719C56.5094 5.16719 56.7516 5.18594 56.9938 5.22344C78.8391 8.60625 95.3125 27.8563 95.3125 50C95.3125 72.1438 78.8391 91.3938 56.9922 94.7766Z" fill="#68326F"/>
<path d="M42.1875 12.5H39.0625V15.625H42.1875V12.5Z" fill="#68326F"/>
<path d="M34.375 48.4375H31.25V51.5625H34.375V48.4375Z" fill="#68326F"/>
<path d="M43.75 82.8125H40.625V85.9375H43.75V82.8125Z" fill="#68326F"/>
<path d="M17.1875 59.375H14.0625V62.5H17.1875V59.375Z" fill="#68326F"/>
<path d="M45.3125 37.5H42.1875V40.625H45.3125V37.5Z" fill="#68326F"/>
<path d="M15.625 40.625H12.5V43.75H15.625V40.625Z" fill="#68326F"/>
</svg>
