<svg width="100" height="100" viewBox="0 0 100 100" fill="none" xmlns="http://www.w3.org/2000/svg">
<path d="M96.8393 48.4375C96.8393 44.775 95.2586 41.4859 92.7486 39.2C93.3703 37.7141 93.7154 36.0859 93.7154 34.375C93.7154 28 88.9453 22.7406 82.7819 21.9719L82.6695 23.7609C82.1275 19.6875 79.0021 16.4328 74.9754 15.7547L74.952 16.0422C74.9551 15.9016 74.9723 15.7656 74.9723 15.625C74.9723 8.72187 69.3774 3.125 62.4768 3.125C55.5762 3.125 49.9814 8.72187 49.9814 15.625V85.9375C49.9814 91.9781 54.8765 96.875 60.9149 96.875C65.3024 96.875 69.076 94.2828 70.8175 90.5516C71.1596 90.5844 71.4985 90.625 71.8484 90.625C77.8868 90.625 82.7819 85.7281 82.7819 79.6875V79.0281C85.2248 77.9594 87.0116 75.6797 87.3881 72.9453L87.4677 72.9844C91.9833 71.6391 95.2774 67.4547 95.2774 62.5C95.2774 60.3953 94.6729 58.4359 93.642 56.7672C95.6241 54.5547 96.8393 51.6422 96.8393 48.4375ZM68.7246 64.0625L68.887 64.1406C68.5855 64.5203 68.4949 64.5484 68.7246 64.0625Z" fill="white"/>
<path d="M49.9817 73.4375C37.063 73.4375 26.5527 62.9234 26.5527 50C26.5527 37.0766 37.063 26.5625 49.9817 26.5625V29.6875C38.7858 29.6875 29.6766 38.8 29.6766 50C29.6766 61.2 38.7858 70.3125 49.9817 70.3125V73.4375Z" fill="#68326F"/>
<path d="M45.0507 80.825C36.849 79.5219 29.3674 74.8813 24.5254 68.0969L27.0682 66.2812C31.4276 72.3891 38.1595 76.5656 45.5396 77.7391L45.0507 80.825Z" fill="#68326F"/>
<path d="M22.4715 64.8016C20.0318 60.286 18.7432 55.1672 18.7432 50C18.7432 34.5641 29.8063 21.6 45.0508 19.175L45.5412 22.261C31.8243 24.4438 21.867 36.1094 21.867 50C21.867 54.6516 23.026 59.2547 25.2189 63.3141L22.4715 64.8016Z" fill="#68326F"/>
<path d="M98.4012 48.4375C98.4012 44.8344 97.0095 41.3891 94.5573 38.7891C95.0181 37.4 95.2774 35.9172 95.2774 34.375C95.2774 27.4312 90.1855 21.5391 83.3723 20.4891C82.0837 17.6266 79.5971 15.4109 76.4764 14.5063C75.9047 7.275 69.8507 1.5625 62.4768 1.5625C58.0628 1.5625 54.122 3.6125 51.5433 6.80625V1.5625H39.3899L36.8971 11.5344C35.2555 12.0938 33.6311 12.7703 32.0504 13.5516L23.2317 8.25781L8.25283 23.2406L13.5447 32.0625C12.7621 33.6484 12.0858 35.2734 11.5282 36.9125L1.56152 39.4062V60.5938L11.5298 63.0875C12.1811 64.9984 12.9917 66.8906 13.9429 68.7203L16.7138 67.2797C15.7048 65.3406 14.8707 63.3312 14.2335 61.3109L13.9711 60.4766L4.68538 58.1547V41.8453L13.9711 39.5234L14.2335 38.6891C14.8723 36.6688 15.7064 34.6594 16.7138 32.7203L17.1168 31.9453L12.1858 23.7266L23.7144 12.1922L31.9317 17.125L32.708 16.7203C34.6385 15.7141 36.6456 14.8797 38.673 14.2406L39.5071 13.9766L41.8297 4.6875H48.4194V95.3125H41.8297L39.5086 86.0234L38.6746 85.7594C36.6487 85.1203 34.6401 84.2859 32.7095 83.2797L31.9333 82.875L23.7159 87.8078L11.3252 75.4109L9.11658 77.6203L23.2333 91.7406L32.052 86.4469C33.6326 87.2281 35.2571 87.9047 36.8986 88.4641L39.3899 98.4375H51.5433V94.1781C53.8347 96.7828 57.1819 98.4375 60.9149 98.4375C65.532 98.4375 69.5617 95.9141 71.725 92.1781C71.7656 92.1797 71.8078 92.1875 71.8484 92.1875C78.6366 92.1875 84.1658 86.7422 84.3282 79.9906C86.4946 78.7375 88.1097 76.6469 88.736 74.1594C93.5374 72.3438 96.8393 67.6922 96.8393 62.5C96.8393 60.5687 96.3879 58.6672 95.5241 56.9391C97.3875 54.4953 98.4012 51.5172 98.4012 48.4375ZM92.3144 57.5875C93.2297 59.0734 93.7154 60.7719 93.7154 62.5C93.7154 65.9047 91.8177 68.9984 88.939 70.6375C88.3299 66.0531 84.4063 62.5 79.6581 62.5V65.625C83.1037 65.625 85.9058 68.4281 85.9058 71.875C85.9058 75.3219 83.1037 78.125 79.6581 78.125C76.2124 78.125 73.4103 75.3219 73.4103 71.875H70.2865C70.2865 77.0453 74.4896 81.25 79.6581 81.25C80.1485 81.25 80.6264 81.2 81.0982 81.1281C80.4609 85.2328 77.1605 88.4609 73.0198 88.9813C73.2651 88.0047 73.4103 86.9891 73.4103 85.9375C73.4103 79.0453 67.8046 73.4375 60.9149 73.4375V76.5625C66.0833 76.5625 70.2865 80.7672 70.2865 85.9375C70.2865 91.1078 66.0833 95.3125 60.9149 95.3125C55.7465 95.3125 51.5433 91.1078 51.5433 85.9375V15.625C51.5433 9.59531 56.4478 4.6875 62.4768 4.6875C68.5059 4.6875 73.4103 9.59531 73.4103 15.625C73.4103 21.6547 68.5059 26.5625 62.4768 26.5625V29.6875C69.4946 29.6875 75.3096 24.5125 76.3514 17.7797C79.2441 18.95 81.22 21.7547 81.22 25C81.22 29.3078 77.7166 32.8125 73.4103 32.8125V35.9375C79.4394 35.9375 84.3438 31.0297 84.3438 25C84.3438 24.6219 84.3204 24.25 84.2829 23.8813C88.8688 25.2172 92.1535 29.4562 92.1535 34.375C92.1535 40.4047 87.249 45.3125 81.22 45.3125V48.4375C86.2119 48.4375 90.5931 45.8141 93.0875 41.8797C94.4948 43.7562 95.2774 46.0531 95.2774 48.4375C95.2774 51.1219 94.284 53.7094 92.4784 55.725L91.699 56.5953L92.3144 57.5875Z" fill="#68326F"/>
<path d="M60.9149 84.375H57.791V87.5H60.9149V84.375Z" fill="#68326F"/>
<path d="M68.7246 48.4375H65.6007V51.5625H68.7246V48.4375Z" fill="#68326F"/>
<path d="M59.3534 14.0625H56.2295V17.1875H59.3534V14.0625Z" fill="#68326F"/>
<path d="M85.9061 37.5H82.7822V40.625H85.9061V37.5Z" fill="#68326F"/>
<path d="M57.791 59.375H54.6672V62.5H57.791V59.375Z" fill="#68326F"/>
<path d="M87.4677 56.25H84.3439V59.375H87.4677V56.25Z" fill="#68326F"/>
</svg>
