<svg width="164" height="28" viewBox="0 0 164 28" fill="none" xmlns="http://www.w3.org/2000/svg">
<mask id="mask0_0_96" style="mask-type:alpha" maskUnits="userSpaceOnUse" x="0" y="0" width="55" height="28">
<g opacity="0.5">
<path d="M36.5042 17.4596C38.3454 18.7967 40.5852 19.9589 42.895 19.6246C45.1653 19.2934 46.8908 17.2204 47.1555 14.988C47.4599 12.8414 46.4495 10.9095 44.6723 9.77482C41.206 7.44116 36.8025 9.54789 33.8566 11.8509C32.6389 12.8191 31.5177 13.9047 30.5091 15.0922C26.5711 18.3336 21.5163 22.1453 16.1085 21.2254C12.8583 20.5569 10.2046 17.7234 9.49862 14.4789C9.1273 12.2937 9.43666 10.0462 10.3842 8.04527C12.3532 3.82567 17.3836 1.29882 21.8328 2.86277C23.534 3.62635 24.9126 4.9419 26.209 6.236C25.4437 5.51338 24.6303 4.84433 23.7744 4.23353C20.8833 1.88453 16.5559 2.49171 13.7683 4.71191C12.1522 5.98372 10.9893 7.74954 10.4542 9.74415C9.81207 12.1821 9.97945 14.9267 11.495 17.015C13.254 19.5786 16.1998 20.9249 19.2765 20.3299C23.3179 19.5694 26.8237 16.9751 29.9674 14.3839C30.9839 13.1896 32.1211 12.1053 33.3606 11.1486C36.5529 8.67698 41.3825 6.54878 45.074 9.19523C46.2853 9.99017 47.1714 11.1988 47.5694 12.5991C48.4641 15.773 46.2882 19.548 42.9437 19.9037C40.5517 20.1643 38.2997 18.904 36.5012 17.4504L36.5042 17.4596Z" fill="url(#paint0_linear_0_96)"/>
</g>
<g opacity="0.6">
<path d="M24.3912 5.11091C23.3352 3.41509 21.3206 2.54725 19.4125 2.28353C16.4819 1.94314 13.5269 3.22496 11.4058 5.21517C8.75817 7.94441 7.68999 12.4308 8.97119 16.0248C9.46798 17.3691 10.2793 18.5728 11.3362 19.5337C12.3931 20.4946 13.6645 21.1845 15.0424 21.5447C19.8629 22.5137 24.5677 19.6587 28.1283 16.5921C29.592 15.2793 30.9298 13.8306 32.1241 12.2652C32.7369 11.4429 33.4246 10.6801 34.1783 9.98675C35.6957 8.56544 37.5542 7.56672 39.5709 7.08885C43.667 6.07381 48.5545 8.29706 49.0931 12.8479C49.5466 15.9604 47.8971 19.395 44.7291 20.2076C43.7547 20.4918 42.7295 20.5523 41.7289 20.3846C40.7282 20.2169 39.7776 19.8253 38.947 19.2386C38.125 18.6536 37.4121 17.9269 36.8411 17.092L36.8989 17.0521C37.4556 17.8774 38.1754 18.578 39.0132 19.1099C39.8511 19.6418 40.789 19.9936 41.7681 20.1432C44.8113 20.545 47.6293 18.8522 48.3506 15.7887C49.6348 10.2689 44.9391 6.61352 39.7626 7.85242C36.9324 8.5148 34.5252 10.4437 32.8697 12.8233C29.0413 18.1132 21.7619 23.9366 14.8629 22.4524C10.7819 21.4649 7.67782 17.4171 7.71434 13.2067C7.7326 10.1217 8.91033 6.98151 11.1015 4.83185C14.0534 2.11487 18.7247 0.875972 22.3279 2.9919C23.2247 3.46299 23.9715 4.17937 24.4825 5.05878L24.4278 5.09251L24.3912 5.11091Z" fill="url(#paint1_linear_0_96)"/>
</g>
<g opacity="0.7">
<path d="M23.9733 5.1095C19.8802 -0.910177 10.4675 1.75774 7.65248 7.70382C4.60925 13.9106 7.08949 21.534 14.2259 22.8925C19.6672 23.8125 24.7493 20.3074 28.1973 16.3454C30.2911 13.7572 32.6161 11.2825 34.8924 8.86604C36.4825 7.13948 38.633 6.043 40.9554 5.77473C43.2777 5.50646 45.6187 6.08412 47.5553 7.40329C50.7355 9.54989 51.6515 13.0887 50.3581 16.6582C49.083 20.0161 45.425 21.8714 41.9832 21.0465C39.8742 20.6325 38.1791 19.1207 37.0105 17.3666C36.9557 17.2807 36.8583 17.1458 36.8066 17.0599L36.7914 17.0385C36.7914 17.0231 36.7518 17.0384 36.8188 16.9863C36.8857 16.9342 36.8614 16.9863 36.8797 16.9863C36.9497 17.0844 37.0379 17.2102 37.1079 17.293C38.3008 18.955 40.005 20.3595 42.044 20.7337C45.3094 21.4236 48.7117 19.6512 49.8438 16.4558C50.5194 14.4687 50.5072 12.0706 49.3752 10.2613C47.6496 7.53823 44.2017 6.1644 41.0641 6.58146C38.9434 6.87641 36.9917 7.90909 35.5467 9.50083L33.3191 11.9817C31.0306 14.4349 29.1225 17.2378 26.6057 19.4917C23.2582 22.5583 18.669 24.7846 14.0311 23.9321C11.7189 23.5251 9.61857 22.3222 8.08845 20.5287C6.55833 18.7352 5.69327 16.4622 5.6409 14.0976C5.51004 9.51922 7.87464 4.84578 11.9891 2.78504C14.941 1.20883 18.742 0.905234 21.6483 2.73598C22.6101 3.31664 23.4289 4.10923 24.0433 5.0543L23.9611 5.11257L23.9733 5.1095Z" fill="url(#paint2_linear_0_96)"/>
</g>
<g opacity="0.8">
<path d="M37.2853 16.8879C39.3729 20.3624 41.8927 22.5212 46.1289 21.6718C48.4813 21.1873 50.4168 19.3596 51.2628 17.1241C52.1088 14.8885 52.2488 12.3126 51.3389 10.1231C48.8617 4.3426 40.5689 3.68329 36.6036 8.24634C34.3546 10.7609 31.7192 14.125 29.522 16.7193C27.1635 19.6387 24.4733 22.3894 21.0892 24.1128C17.7082 25.8975 13.5146 26.4403 9.97532 24.7751C8.23026 23.951 6.71112 22.7103 5.54971 21.1606C4.38831 19.6108 3.61973 17.7989 3.31065 15.8821C1.36907 4.98044 14.3332 -3.98007 23.0643 3.61582C23.4522 4.03066 23.7893 4.49087 24.0685 4.98658L23.9529 5.04791C22.3156 2.53333 19.1841 1.3343 16.2809 1.2055C11.4117 0.966309 6.84689 4.3058 4.93574 8.7094C1.28386 17.0474 8.16156 26.5875 17.2639 24.3336C20.7544 23.4811 23.7216 21.267 26.2231 18.7033C28.5208 16.2501 31.1714 12.8769 33.3686 10.2948C34.9846 8.39353 36.6066 6.28374 38.956 5.24111C43.5787 2.98411 50.0455 4.85472 51.9901 9.84096C52.9214 12.2451 52.687 14.9529 51.7649 17.3172C50.8429 19.6816 48.7217 21.5736 46.1989 22.0336C43.676 22.4936 41.0923 21.9171 39.3151 19.9729C38.4664 19.0664 37.7259 18.063 37.1088 16.983L37.2853 16.8757V16.8879Z" fill="url(#paint3_linear_0_96)"/>
</g>
<path d="M37.4954 16.8142C38.7127 19.2674 40.6817 21.5397 43.3232 22.4168C47.3829 23.8335 51.6829 21.3619 53.2837 17.5103C54.501 14.686 54.2697 11.3771 52.8972 8.64788C51.0408 4.66134 46.0408 2.89194 42.0024 4.33936C38.7918 5.41266 36.3755 7.99777 34.5587 10.8006C33.1679 12.9012 31.2659 15.8604 29.7504 17.8322C25.6329 23.7262 18.9013 29.0375 11.3267 27.8262C4.29377 26.7376 -0.264983 20.218 0.0119508 13.2324C0.173242 8.72761 2.84519 4.64601 6.49098 2.17742C10.7272 -0.683687 16.5702 -0.689817 20.8763 1.9505C21.6341 2.4241 22.3338 2.98609 22.9609 3.62484C23.2989 4.0408 23.6042 4.48271 23.8739 4.94654L23.7735 5.01094C23.4833 4.57715 23.1597 4.16701 22.8057 3.78431C22.1571 3.19947 21.442 2.69405 20.6755 2.27862C16.1776 -0.22063 10.1429 0.251625 6.25665 3.65245C3.93771 5.60892 2.1483 8.27683 1.59139 11.2882C0.845796 15.2379 2.12394 19.5127 4.75025 22.5057C6.54895 24.4601 8.95821 25.734 11.5762 26.1151C18.5316 26.9946 24.4734 22.0979 28.2866 16.7344C30.3164 14.1248 32.3828 10.6902 34.4004 8.05911C36.7133 5.16733 39.9878 2.8214 43.7431 2.46568C47.672 2.05476 51.8016 4.10323 53.6124 7.67884C55.21 10.7883 55.4839 14.6338 53.9897 17.8353C51.3056 23.7017 44.081 25.3086 39.5709 20.5124C38.5746 19.4756 37.7908 18.2513 37.2641 16.9092L37.4802 16.8203L37.4954 16.8142Z" fill="url(#paint4_linear_0_96)"/>
</mask>
<g mask="url(#mask0_0_96)">
<path d="M23.6185 3.57105H22.0012C20.7078 3.57105 17.7974 3.70129 16.5035 4.22228C14.8862 4.87351 13.9158 6.50142 12.622 8.45496C11.3282 10.4085 11.0047 12.3621 11.3282 14.6412C11.6516 16.9203 15.5331 17.8971 19.0912 18.5483C22.6493 19.1995 27.8246 14.9668 27.8246 14.6412C27.8246 14.3156 30.7357 7.80378 32.353 4.22228C33.9703 0.640776 41.7334 1.61755 44.321 0.640776C46.3912 -0.140643 51.2215 2.91991 53.3779 4.54787C54.6717 6.93554 57.1947 12.5574 56.936 15.9436C56.6125 20.1762 51.4371 25.3857 51.1137 26.0369C50.8549 26.5578 44.5367 25.3857 41.4099 24.7345L34.9407 18.5483C36.1267 18.3312 38.8866 18.4141 39.4041 18.4141C39.9216 18.4141 40.8708 18.3312 41.4099 18.5483C43.0272 19.5251 44.968 15.9436 45.6149 13.99C46.2618 12.0365 43.3507 10.0829 41.0864 9.75733C39.2751 9.49685 36.8815 10.7341 35.9111 11.3853L31.3827 16.5947L26.2073 24.4089L13.2689 31.5719C9.06359 29.8354 0.588227 26.2974 0.32946 26.0369C0.00600004 25.7113 -3.87551 16.5947 -3.55205 11.7109C-3.22859 6.82701 1.29984 2.26873 1.6233 2.26873C1.94676 2.26873 0.652919 0.315138 11.6505 -1.31282C20.4486 -2.61518 23.2951 1.40044 23.6185 3.57105Z" fill="url(#paint5_linear_0_96)"/>
</g>
<path d="M66.347 24.8822C64.9111 24.8822 63.6128 24.6381 62.4523 24.1498C61.3114 23.6616 60.4066 22.9586 59.7378 22.0407C59.069 21.1228 58.7247 20.039 58.7051 18.7891H63.1309C63.1899 19.6289 63.485 20.2929 64.0161 20.7811C64.5668 21.2693 65.3143 21.5134 66.2585 21.5134C67.2223 21.5134 67.9796 21.2888 68.5304 20.8397C69.0812 20.371 69.3566 19.7656 69.3566 19.0235C69.3566 18.4181 69.1697 17.9201 68.7959 17.5295C68.4222 17.1389 67.9501 16.8362 67.3797 16.6214C66.8289 16.3871 66.0618 16.1332 65.0783 15.8598C63.7407 15.4692 62.649 15.0884 61.8032 14.7174C60.977 14.3268 60.259 13.7507 59.6493 12.989C59.0591 12.2079 58.7641 11.1729 58.7641 9.88395C58.7641 8.67315 59.069 7.61859 59.6788 6.72026C60.2885 5.82193 61.1442 5.13842 62.2457 4.66972C63.3473 4.1815 64.6062 3.93739 66.0224 3.93739C68.1468 3.93739 69.868 4.4549 71.1859 5.48994C72.5235 6.50544 73.2611 7.93105 73.3988 9.76677H68.855C68.8156 9.06373 68.5107 8.48763 67.9403 8.03846C67.3895 7.56977 66.6519 7.33542 65.7274 7.33542C64.9209 7.33542 64.2718 7.54048 63.78 7.95058C63.3079 8.36069 63.0719 8.95632 63.0719 9.73748C63.0719 10.2843 63.2489 10.7432 63.603 11.1143C63.9767 11.4658 64.4291 11.7587 64.9602 11.9931C65.511 12.2079 66.2781 12.4618 67.2617 12.7547C68.5992 13.1453 69.6909 13.5359 70.5368 13.9264C71.3826 14.317 72.1104 14.9029 72.7202 15.684C73.33 16.4652 73.6348 17.4905 73.6348 18.7598C73.6348 19.8535 73.3496 20.869 72.7792 21.8064C72.2087 22.7437 71.3728 23.4956 70.2712 24.0619C69.1697 24.6088 67.8616 24.8822 66.347 24.8822Z" fill="white"/>
<path d="M86.4218 8.21422C87.661 8.21422 88.7625 8.48763 89.7264 9.03444C90.6902 9.56172 91.4377 10.3526 91.9688 11.4072C92.5196 12.4422 92.795 13.6921 92.795 15.1568V24.6771H88.6642V15.7133C88.6642 14.4244 88.3396 13.4382 87.6905 12.7547C87.0414 12.0517 86.1562 11.7001 85.035 11.7001C83.8941 11.7001 82.9893 12.0517 82.3205 12.7547C81.6714 13.4382 81.3468 14.4244 81.3468 15.7133V24.6771H77.2161V3H81.3468V10.4698C81.8779 9.76677 82.5861 9.21996 83.4712 8.82938C84.3564 8.41928 85.3399 8.21422 86.4218 8.21422Z" fill="white"/>
<path d="M103.981 24.9407C102.408 24.9407 100.992 24.599 99.7327 23.9155C98.4738 23.2124 97.4804 22.2262 96.7526 20.9568C96.0445 19.6875 95.6904 18.2228 95.6904 16.5628C95.6904 14.9029 96.0543 13.4382 96.7821 12.1688C97.5296 10.8995 98.5426 9.923 99.8212 9.23949C101.1 8.53645 102.526 8.18493 104.099 8.18493C105.673 8.18493 107.099 8.53645 108.378 9.23949C109.656 9.923 110.66 10.8995 111.387 12.1688C112.135 13.4382 112.509 14.9029 112.509 16.5628C112.509 18.2228 112.125 19.6875 111.358 20.9568C110.61 22.2262 109.587 23.2124 108.289 23.9155C107.011 24.599 105.575 24.9407 103.981 24.9407ZM103.981 21.367C104.729 21.367 105.427 21.1912 106.076 20.8397C106.745 20.4686 107.276 19.9218 107.67 19.1992C108.063 18.4767 108.26 17.5979 108.26 16.5628C108.26 15.0201 107.847 13.8386 107.021 13.0183C106.214 12.1786 105.221 11.7587 104.04 11.7587C102.86 11.7587 101.867 12.1786 101.06 13.0183C100.274 13.8386 99.8802 15.0201 99.8802 16.5628C99.8802 18.1056 100.264 19.2969 101.031 20.1366C101.818 20.9568 102.801 21.367 103.981 21.367Z" fill="white"/>
<path d="M114.476 16.5043C114.476 14.8638 114.801 13.4089 115.45 12.1395C116.119 10.8702 117.024 9.89371 118.165 9.2102C119.305 8.52669 120.574 8.18493 121.971 8.18493C123.033 8.18493 124.046 8.41928 125.01 8.88797C125.974 9.33714 126.741 9.94253 127.311 10.7042V3H131.501V24.6771H127.311V22.2751C126.8 23.0757 126.082 23.7202 125.157 24.2084C124.233 24.6966 123.161 24.9407 121.941 24.9407C120.564 24.9407 119.305 24.5892 118.165 23.8862C117.024 23.1831 116.119 22.1969 115.45 20.9276C114.801 19.6386 114.476 18.1642 114.476 16.5043ZM127.341 16.5628C127.341 15.5669 127.144 14.7174 126.751 14.0143C126.357 13.2917 125.826 12.7449 125.157 12.3739C124.489 11.9833 123.771 11.788 123.003 11.788C122.236 11.788 121.528 11.9735 120.879 12.3446C120.23 12.7156 119.699 13.2625 119.286 13.985C118.892 14.6881 118.696 15.5278 118.696 16.5043C118.696 17.4807 118.892 18.34 119.286 19.0821C119.699 19.8046 120.23 20.3612 120.879 20.7518C121.548 21.1424 122.256 21.3377 123.003 21.3377C123.771 21.3377 124.489 21.1521 125.157 20.7811C125.826 20.3905 126.357 19.8437 126.751 19.1407C127.144 18.4181 127.341 17.5588 127.341 16.5628Z" fill="white"/>
<path d="M134.473 16.5043C134.473 14.8638 134.798 13.4089 135.447 12.1395C136.116 10.8702 137.011 9.89371 138.132 9.2102C139.273 8.52669 140.542 8.18493 141.938 8.18493C143.158 8.18493 144.22 8.42904 145.125 8.91726C146.049 9.40549 146.787 10.0206 147.338 10.7627V8.44857H151.498V24.6771H147.338V22.3043C146.807 23.066 146.069 23.7007 145.125 24.2084C144.2 24.6966 143.128 24.9407 141.909 24.9407C140.532 24.9407 139.273 24.5892 138.132 23.8862C137.011 23.1831 136.116 22.1969 135.447 20.9276C134.798 19.6386 134.473 18.1642 134.473 16.5043ZM147.338 16.5628C147.338 15.5669 147.141 14.7174 146.748 14.0143C146.354 13.2917 145.823 12.7449 145.154 12.3739C144.485 11.9833 143.767 11.788 143 11.788C142.233 11.788 141.525 11.9735 140.876 12.3446C140.227 12.7156 139.696 13.2625 139.283 13.985C138.889 14.6881 138.693 15.5278 138.693 16.5043C138.693 17.4807 138.889 18.34 139.283 19.0821C139.696 19.8046 140.227 20.3612 140.876 20.7518C141.545 21.1424 142.253 21.3377 143 21.3377C143.767 21.3377 144.485 21.1521 145.154 20.7811C145.823 20.3905 146.354 19.8437 146.748 19.1407C147.141 18.4181 147.338 17.5588 147.338 16.5628Z" fill="white"/>
<path d="M160.342 11.8173V19.6679C160.342 20.2147 160.47 20.6151 160.725 20.869C161.001 21.1033 161.453 21.2205 162.083 21.2205H164V24.6771H161.404C157.922 24.6771 156.181 22.9976 156.181 19.6386V11.8173H154.234V8.44857H156.181V4.43537H160.342V8.44857H164V11.8173H160.342Z" fill="white"/>
<defs>
<linearGradient id="paint0_linear_0_96" x1="23.6586" y1="12.8865" x2="36.5925" y2="12.8865" gradientUnits="userSpaceOnUse">
<stop offset="0.065" stop-color="#2EB3F6"/>
<stop offset="0.345" stop-color="#0A3BD5"/>
<stop offset="0.62" stop-color="#5321A0"/>
<stop offset="0.96" stop-color="#AE60FC"/>
</linearGradient>
<linearGradient id="paint1_linear_0_96" x1="23.1545" y1="13.4064" x2="37.1076" y2="13.4064" gradientUnits="userSpaceOnUse">
<stop offset="0.065" stop-color="#2EB3F6"/>
<stop offset="0.345" stop-color="#0A3BD5"/>
<stop offset="0.62" stop-color="#5321A0"/>
<stop offset="0.96" stop-color="#AE60FC"/>
</linearGradient>
<linearGradient id="paint2_linear_0_96" x1="22.505" y1="13.9981" x2="37.7491" y2="13.9981" gradientUnits="userSpaceOnUse">
<stop offset="0.065" stop-color="#2EB3F6"/>
<stop offset="0.345" stop-color="#0A3BD5"/>
<stop offset="0.62" stop-color="#5321A0"/>
<stop offset="0.96" stop-color="#AE60FC"/>
</linearGradient>
<linearGradient id="paint3_linear_0_96" x1="21.5411" y1="14.6093" x2="38.1919" y2="14.6093" gradientUnits="userSpaceOnUse">
<stop offset="0.065" stop-color="#2EB3F6"/>
<stop offset="0.345" stop-color="#0A3BD5"/>
<stop offset="0.62" stop-color="#5321A0"/>
<stop offset="0.96" stop-color="#AE60FC"/>
</linearGradient>
<linearGradient id="paint4_linear_0_96" x1="20.4765" y1="15.4851" x2="38.9804" y2="15.4851" gradientUnits="userSpaceOnUse">
<stop offset="0.065" stop-color="#2EB3F6"/>
<stop offset="0.345" stop-color="#0A3BD5"/>
<stop offset="0.62" stop-color="#5321A0"/>
<stop offset="0.96" stop-color="#AE60FC"/>
</linearGradient>
<linearGradient id="paint5_linear_0_96" x1="6.27951" y1="13.4536" x2="46.5407" y2="13.0479" gradientUnits="userSpaceOnUse">
<stop stop-color="#93479C"/>
<stop offset="1" stop-color="#05B8C3"/>
</linearGradient>
</defs>
</svg>
