<svg width="64" height="64" viewBox="0 0 64 64" fill="none" xmlns="http://www.w3.org/2000/svg">
<path fill-rule="evenodd" clip-rule="evenodd" d="M31 56.5C30.5 56.5 30.125 56.125 30.125 55.625V43.5C30.125 43 30.5 42.625 31 42.625C31.5 42.625 31.875 43 31.875 43.5V55.625C31.875 56.125 31.5 56.5 31 56.5Z" fill="#68326F"/>
<path fill-rule="evenodd" clip-rule="evenodd" d="M22.375 50.125H16C15.5 50.125 15.125 49.75 15.125 49.25C15.125 48.75 15.5 48.375 16 48.375H21.5V39.75C21.5 39.25 21.875 38.75 22.375 38.75C22.875 38.75 23.25 39.25 23.25 39.75V49.25C23.25 49.75 22.875 50.125 22.375 50.125Z" fill="#68326F"/>
<path fill-rule="evenodd" clip-rule="evenodd" d="M48 50.125H41.75C41.25 50.125 40.75 49.75 40.75 49.25V39.75C40.75 39.25 41.25 38.75 41.75 38.75C42.25 38.75 42.625 39.25 42.625 39.75V48.375H48C48.5 48.375 49 48.75 49 49.25C49 49.75 48.5 50.125 48 50.125Z" fill="#68326F"/>
<path fill-rule="evenodd" clip-rule="evenodd" d="M12.25 53.875C9.625 53.875 7.625 51.875 7.625 49.25C7.625 46.625 9.625 44.625 12.25 44.625C14.875 44.625 16.875 46.625 16.875 49.25C16.875 51.875 14.875 53.875 12.25 53.875Z" fill="#68326F"/>
<path fill-rule="evenodd" clip-rule="evenodd" d="M51.75 53.875C49.125 53.875 47.125 51.875 47.125 49.25C47.125 46.625 49.125 44.625 51.75 44.625C54.375 44.625 56.375 46.625 56.375 49.25C56.375 51.875 54.375 53.875 51.75 53.875Z" fill="#68326F"/>
<path fill-rule="evenodd" clip-rule="evenodd" d="M31 64C28.5 64 26.375 61.875 26.375 59.375C26.375 56.75 28.5 54.75 31 54.75C33.625 54.75 35.625 56.75 35.625 59.375C35.625 61.875 33.5 64 31 64Z" fill="#68326F"/>
<path fill-rule="evenodd" clip-rule="evenodd" d="M56.375 27.25L52.625 27C51.5 26.875 50.625 26.125 50.375 25.125C49.75 23.125 49 21.25 48 19.5C47.375 18.5 47.5 17.375 48.25 16.5L50.75 13.75L47.625 10.625L44.875 13.125C44 13.875 42.875 14 41.875 13.375C40.125 12.375 38.25 11.625 36.25 11.125C35.25 10.875 34.5 9.875 34.375 8.75L34.25 5H29.875L29.625 8.75C29.5 9.875 28.75 10.75 27.75 11.125C25.75 11.625 23.875 12.375 22.125 13.5C21.125 14 20 13.875 19.125 13.125L16.375 10.625L13.25 13.75L15.75 16.625C16.5 17.375 16.625 18.625 16 19.625C15 21.25 14.125 23.125 13.625 25.125C13.375 26.25 12.5 27 11.375 27L7.625 27.25V34.125C7.625 35.5 6.5 36.625 5.125 36.625C3.75 36.625 2.5 35.5 2.5 34.125V24.875C2.5 23.5 3.625 22.5 5 22.375L9.25 22.125C9.625 20.875 10.125 19.75 10.75 18.625L7.875 15.375C6.875 14.375 7 12.875 8 12L14.5 5.375C15.5 4.5 17 4.375 18 5.25L21.125 8.125C22.25 7.625 23.5 7.125 24.625 6.75L24.875 2.375C25 1.125 26.125 0 27.375 0H36.625C37.875 0 39 1 39.125 2.375L39.375 6.625C40.625 7.125 41.75 7.625 42.875 8.125L46.125 5.25C47.125 4.375 48.625 4.5 49.5 5.375L56 11.875C57 12.875 57.125 14.375 56.125 15.375L53.25 18.5C53.875 19.625 54.375 20.875 54.75 22.125L59 22.25C60.375 22.375 61.5 23.5 61.5 24.75V34C61.5 35.375 60.375 36.625 58.875 36.625C57.5 36.625 56.375 35.5 56.375 34V27.25Z" fill="#68326F"/>
<path fill-rule="evenodd" clip-rule="evenodd" d="M32 44.375C23.75 44.375 17 37.75 17 29.375C17 21.125 23.75 14.375 32 14.375C40.25 14.375 47 21.125 47 29.375C47 37.625 40.25 44.375 32 44.375Z" fill="#68326F"/>
</svg>
