<svg width="64" height="64" viewBox="0 0 64 64" fill="none" xmlns="http://www.w3.org/2000/svg">
<g clip-path="url(#clip0_2_514)">
<path d="M42.6902 57.6303H48.5634V62.0589H33.0822V57.6303H38.9292V18.7598H25.0481V57.6303H30.8951V62.0589H15.4438V57.6303H21.2721V18.7598H7.39844V57.6303H13.2455V63.9993H50.743V57.6303H56.5901V18.7598H42.6902V57.6303ZM14.5914 24.6008C15.1439 24.5994 15.6844 24.7428 16.1445 25.0127C16.6047 25.2827 16.9638 25.667 17.1765 26.1171C17.3891 26.5673 17.4457 27.063 17.3391 27.5415C17.2324 28.02 16.9674 28.4599 16.5775 28.8054C16.1877 29.1509 15.6904 29.3866 15.1487 29.4827C14.607 29.5787 14.0453 29.5307 13.5345 29.3448C13.0237 29.159 12.5868 28.8435 12.2792 28.4385C11.9715 28.0334 11.8069 27.5568 11.8062 27.0691C11.8062 26.4162 12.0992 25.7898 12.6213 25.3272C13.1433 24.8646 13.8517 24.6034 14.5914 24.6008ZM10.9912 41.5792H17.6869V43.5196H10.9912V41.5792ZM10.9912 46.1992H17.6869V48.1396H10.9912V46.1992ZM10.9912 52.7695V50.8291H17.6869V52.7695H10.9912ZM32.2447 24.6008C32.7966 24.6021 33.3356 24.7477 33.7938 25.0192C34.252 25.2907 34.6088 25.6759 34.8192 26.1263C35.0295 26.5766 35.0839 27.0719 34.9756 27.5496C34.8673 28.0272 34.6012 28.4658 34.2107 28.8101C33.8202 29.1543 33.3229 29.3887 32.7816 29.4836C32.2404 29.5786 31.6793 29.5299 31.1694 29.3436C30.6595 29.1573 30.2235 28.8419 29.9165 28.4371C29.6095 28.0323 29.4453 27.5563 29.4446 27.0691C29.4441 26.7446 29.5162 26.4231 29.6568 26.1232C29.7974 25.8234 30.0037 25.5509 30.2639 25.3216C30.524 25.0922 30.8329 24.9105 31.1729 24.7868C31.5128 24.6631 31.877 24.5999 32.2447 24.6008ZM28.6408 41.5792H35.3365V43.5196H28.6408V41.5792ZM28.6408 46.1992H35.3365V48.1396H28.6408V46.1992ZM28.6408 52.7695V50.8291H35.3365V52.7695H28.6408ZM49.8832 24.6008C50.4355 24.6001 50.9756 24.744 51.4353 25.0144C51.895 25.2847 52.2535 25.6693 52.4655 26.1194C52.6776 26.5696 52.7337 27.0652 52.6266 27.5435C52.5196 28.0218 52.2543 28.4614 51.8643 28.8066C51.4742 29.1518 50.977 29.3872 50.4354 29.4829C49.8938 29.5787 49.3322 29.5305 48.8216 29.3445C48.3111 29.1586 47.8744 28.8431 47.5669 28.4381C47.2595 28.0331 47.0949 27.5567 47.0942 27.0691C47.0937 26.7454 47.1655 26.4248 47.3053 26.1255C47.4452 25.8263 47.6506 25.5543 47.9095 25.3251C48.1685 25.0959 48.4761 24.9139 48.8147 24.7897C49.1534 24.6654 49.5164 24.6012 49.8832 24.6008ZM46.2904 41.5792H52.9861V43.5196H46.2904V41.5792ZM46.2904 46.1992H52.9861V48.1396H46.2904V46.1992ZM46.2904 50.8191H52.9861V52.7595H46.2904V50.8191Z" fill="#68326F"/>
<path d="M54.0409 10.2001C53.5666 7.9338 52.3898 5.82793 50.6412 4.11649C48.8926 2.40506 46.6407 1.15508 44.1356 0.505436C41.6306 -0.144207 38.9706 -0.16806 36.4511 0.436512C33.9316 1.04108 31.6514 2.25041 29.8637 3.93012C26.8069 2.99539 23.48 3.01135 20.4349 3.97534C17.3898 4.93933 14.8096 6.79341 13.1226 9.22991C9.55103 9.43202 6.20228 10.8321 3.76253 13.1434C1.32277 15.4546 -0.0232523 18.502 0.000304047 21.661C0.000304047 21.991 0.000317736 22.2913 0.0377031 22.6114C0.177977 24.0837 0.720653 25.5041 1.61921 26.7507C2.51777 27.9974 3.7454 29.0331 5.19688 29.769V16.8199H58.7739V29.8416C60.336 29.0435 61.6371 27.9017 62.5504 26.5276C63.4638 25.1535 63.9581 23.5939 63.9854 22.0009V21.9019C63.9878 19.2618 63.0176 16.6926 61.2211 14.5818C59.4246 12.471 56.8992 10.9331 54.0259 10.2001H54.0409Z" fill="#68326F"/>
</g>
<defs>
<clipPath id="clip0_2_514">
<rect width="64" height="64" fill="white"/>
</clipPath>
</defs>
</svg>
