<svg width="48" height="48" viewBox="0 0 48 48" fill="none" xmlns="http://www.w3.org/2000/svg">
<g clip-path="url(#clip0_17_6395)">
<path fill-rule="evenodd" clip-rule="evenodd" d="M0 1.20885V46.7922C0.000306444 47.1123 0.135365 47.4192 0.375564 47.6456C0.615763 47.872 0.941476 47.9994 1.28132 48H34.8978C35.2383 48.0003 35.5651 47.8732 35.8062 47.6468C36.0473 47.4203 36.1831 47.113 36.1837 46.7922V35.9247H35.488C35.0968 35.9244 34.7217 35.778 34.445 35.5176C34.1682 35.2572 34.0125 34.904 34.0118 34.5356V32.6891C34.0139 32.6611 34.0055 32.6334 33.9882 32.6107C33.9708 32.5879 33.9455 32.5716 33.9168 32.5646C33.4687 32.4263 33.0326 32.2558 32.6122 32.0546C32.5863 32.0406 32.5561 32.0353 32.5266 32.0397C32.497 32.044 32.47 32.0578 32.4499 32.0786L31.0642 33.389C30.7871 33.6491 30.4118 33.7951 30.0205 33.7951C29.6293 33.7951 29.254 33.6491 28.9769 33.389L27.0532 31.5796C26.7773 31.3185 26.6224 30.9651 26.6224 30.5968C26.6224 30.2284 26.7773 29.8751 27.0532 29.614L28.4447 28.3036C28.4668 28.2846 28.4812 28.259 28.4854 28.2311C28.4897 28.2032 28.4835 28.1747 28.4679 28.1507C28.2554 27.755 28.0751 27.3447 27.9286 26.9233C27.921 26.8964 27.9039 26.8728 27.8801 26.8563C27.8562 26.8398 27.8272 26.8315 27.7976 26.8327H25.8379C25.4465 26.8324 25.0712 26.6858 24.7945 26.4252C24.5177 26.1645 24.3621 25.8111 24.3618 25.4425V22.8851C24.3621 22.5166 24.5177 22.1633 24.7945 21.9028C25.0713 21.6423 25.4466 21.496 25.8379 21.496H27.7976C27.8273 21.497 27.8564 21.4884 27.8802 21.4717C27.904 21.4551 27.921 21.4313 27.9286 21.4043C28.0749 20.9828 28.2552 20.5725 28.4679 20.1769C28.4835 20.1529 28.4897 20.1244 28.4854 20.0965C28.4812 20.0686 28.4668 20.043 28.4447 20.024L27.0532 18.7136C26.7773 18.4525 26.6224 18.0992 26.6224 17.7308C26.6224 17.3625 26.7773 17.0091 27.0532 16.748L28.9769 14.9386C29.254 14.6785 29.6293 14.5325 30.0205 14.5325C30.4118 14.5325 30.7871 14.6785 31.0642 14.9386L32.4499 16.2435C32.4697 16.2647 32.4967 16.2788 32.5263 16.2834C32.5559 16.2879 32.5863 16.2827 32.6122 16.2686C33.0326 16.0674 33.4687 15.8969 33.9168 15.7587C33.9455 15.7516 33.9708 15.7353 33.9882 15.7126C34.0055 15.6898 34.0139 15.6621 34.0118 15.6342V13.7931C34.0125 13.4247 34.1682 13.0715 34.445 12.8111C34.7217 12.5507 35.0968 12.4043 35.488 12.404H36.1837V1.20885C36.1831 0.88804 36.0474 0.580571 35.8063 0.353931C35.5652 0.127291 35.2384 -5.21687e-07 34.8978 0H1.28132C0.94137 0.000866674 0.615617 0.128576 0.375451 0.355154C0.135284 0.581731 0.000305572 0.888707 0 1.20885ZM7.51643 18.8993L10.3597 15.7641C10.4155 15.6976 10.4849 15.6423 10.5639 15.6016C10.6428 15.561 10.7297 15.5357 10.8193 15.5275C10.9089 15.5193 10.9994 15.5282 11.0852 15.5537C11.1711 15.5792 11.2505 15.6208 11.3189 15.6759C11.3872 15.7311 11.4431 15.7987 11.483 15.8747C11.5229 15.9506 11.5461 16.0334 11.5512 16.1181C11.5562 16.2027 11.5431 16.2874 11.5125 16.3672C11.4819 16.4469 11.4345 16.52 11.3732 16.582L8.02318 20.2763C7.96037 20.3451 7.88251 20.4003 7.79495 20.4381C7.70739 20.476 7.61221 20.4956 7.51586 20.4956C7.41952 20.4956 7.32428 20.476 7.23673 20.4381C7.14917 20.4003 7.07136 20.3451 7.00854 20.2763L5.09404 18.1687C4.98556 18.0408 4.9342 17.8782 4.95079 17.7153C4.96737 17.5524 5.05064 17.402 5.18293 17.2958C5.31522 17.1897 5.48618 17.1362 5.65962 17.1467C5.83306 17.1571 5.99536 17.2307 6.11219 17.3519L7.51643 18.8993ZM14.3928 26.8032H23.3842C23.5614 26.8032 23.7313 26.8694 23.8565 26.9874C23.9818 27.1054 24.0522 27.2653 24.0522 27.4322C24.0522 27.599 23.9818 27.759 23.8565 27.8769C23.7313 27.9949 23.5614 28.0612 23.3842 28.0612H14.3928C14.2156 28.0612 14.0458 27.9949 13.9205 27.8769C13.7952 27.759 13.7249 27.599 13.7249 27.4322C13.7249 27.2653 13.7952 27.1054 13.9205 26.9874C14.0458 26.8694 14.2156 26.8032 14.3928 26.8032ZM14.3928 30.1218H25.0285C25.1162 30.1218 25.2031 30.138 25.2841 30.1696C25.3652 30.2012 25.4388 30.2476 25.5008 30.306C25.5628 30.3644 25.612 30.4337 25.6456 30.51C25.6792 30.5864 25.6964 30.6681 25.6964 30.7507C25.6964 30.8333 25.6792 30.9151 25.6456 30.9915C25.612 31.0678 25.5628 31.1371 25.5008 31.1955C25.4388 31.2539 25.3652 31.3003 25.2841 31.3319C25.2031 31.3635 25.1162 31.3797 25.0285 31.3797H14.3928C14.2156 31.3797 14.0458 31.3135 13.9205 31.1955C13.7952 31.0776 13.7249 30.9176 13.7249 30.7507C13.7249 30.5839 13.7952 30.4239 13.9205 30.306C14.0458 30.188 14.2156 30.1218 14.3928 30.1218ZM14.3928 37.1193H30.5783C30.7555 37.1193 30.9253 37.1856 31.0506 37.3035C31.1758 37.4215 31.2463 37.5815 31.2463 37.7483C31.2463 37.9151 31.1758 38.0751 31.0506 38.1931C30.9253 38.311 30.7555 38.3773 30.5783 38.3773H14.3928C14.2156 38.3773 14.0458 38.311 13.9205 38.1931C13.7952 38.0751 13.7249 37.9151 13.7249 37.7483C13.7249 37.5815 13.7952 37.4215 13.9205 37.3035C14.0458 37.1856 14.2156 37.1193 14.3928 37.1193ZM14.3928 40.439H30.5783C30.7505 40.4457 30.9132 40.5149 31.0325 40.632C31.1518 40.7491 31.2184 40.9052 31.2184 41.0674C31.2184 41.2297 31.1518 41.3857 31.0325 41.5028C30.9132 41.62 30.7505 41.6891 30.5783 41.6959H14.3928C14.2206 41.6891 14.0578 41.62 13.9386 41.5028C13.8193 41.3857 13.7527 41.2297 13.7527 41.0674C13.7527 40.9052 13.8193 40.7491 13.9386 40.632C14.0578 40.5149 14.2206 40.4457 14.3928 40.439ZM6.11219 28.047L7.51643 29.5932L10.3597 26.4592C10.4748 26.3326 10.6384 26.2543 10.8148 26.2414C10.9912 26.2285 11.1658 26.2821 11.3002 26.3904C11.4346 26.4987 11.5177 26.6529 11.5314 26.819C11.5451 26.985 11.4882 27.1494 11.3732 27.276L8.02318 30.9702C7.96059 31.0394 7.88282 31.0949 7.79523 31.1329C7.70764 31.171 7.61233 31.1907 7.51586 31.1907C7.4194 31.1907 7.32409 31.171 7.2365 31.1329C7.14891 31.0949 7.07114 31.0394 7.00854 30.9702L5.09404 28.8638C4.98556 28.7359 4.9342 28.5733 4.95079 28.4104C4.96737 28.2475 5.05064 28.097 5.18293 27.9909C5.31522 27.8848 5.48618 27.8313 5.65962 27.8417C5.83306 27.8522 5.99536 27.9258 6.11219 28.047ZM7.51643 39.9061L10.3597 36.771C10.4167 36.7083 10.4862 36.6568 10.5643 36.6194C10.6423 36.5821 10.7275 36.5595 10.8148 36.5531C10.9021 36.5467 10.9899 36.5566 11.0732 36.5822C11.1565 36.6078 11.2336 36.6485 11.3002 36.7022C11.3667 36.7558 11.4214 36.8212 11.4611 36.8948C11.5008 36.9683 11.5247 37.0485 11.5314 37.1307C11.5382 37.213 11.5277 37.2956 11.5006 37.3741C11.4734 37.4525 11.4301 37.5251 11.3732 37.5878L8.02318 41.282C7.96059 41.3511 7.88282 41.4066 7.79523 41.4447C7.70764 41.4828 7.61233 41.5025 7.51586 41.5025C7.4194 41.5025 7.32409 41.4828 7.2365 41.4447C7.14891 41.4066 7.07114 41.3511 7.00854 41.282L5.09404 39.1755C4.98556 39.0477 4.9342 38.8851 4.95079 38.7221C4.96737 38.5592 5.05064 38.4088 5.18293 38.3027C5.31522 38.1965 5.48618 38.143 5.65962 38.1535C5.83306 38.1639 5.99536 38.2376 6.11219 38.3587L7.51643 39.9061ZM13.7272 20.048C13.7272 19.8816 13.7972 19.7219 13.922 19.6041C14.0467 19.4862 14.216 19.4196 14.3928 19.4191H23.3842C23.4742 19.4155 23.564 19.4292 23.6482 19.4592C23.7325 19.4891 23.8094 19.5349 23.8744 19.5936C23.9394 19.6523 23.9911 19.7227 24.0265 19.8008C24.0618 19.8788 24.08 19.9627 24.08 20.0475C24.08 20.1323 24.0618 20.2162 24.0265 20.2942C23.9911 20.3723 23.9394 20.4427 23.8744 20.5014C23.8094 20.5601 23.7325 20.6059 23.6482 20.6359C23.564 20.6658 23.4742 20.6795 23.3842 20.6759H14.3928C14.2161 20.6757 14.0469 20.6094 13.9221 20.4917C13.7973 20.3739 13.7272 20.2144 13.7272 20.048ZM13.7272 16.7284C13.7275 16.5621 13.7977 16.4027 13.9224 16.2851C14.0471 16.1674 14.2162 16.101 14.3928 16.1005H25.0285C25.1185 16.0969 25.2083 16.1106 25.2926 16.1406C25.3768 16.1706 25.4537 16.2163 25.5187 16.275C25.5837 16.3337 25.6354 16.4042 25.6707 16.4822C25.7061 16.5602 25.7243 16.6441 25.7243 16.7289C25.7243 16.8137 25.7061 16.8976 25.6707 16.9757C25.6354 17.0537 25.5837 17.1241 25.5187 17.1828C25.4537 17.2416 25.3768 17.2873 25.2926 17.3173C25.2083 17.3473 25.1185 17.3609 25.0285 17.3574H14.3928C14.216 17.3568 14.0467 17.2903 13.922 17.1724C13.7972 17.0545 13.7272 16.8948 13.7272 16.7284ZM13.7272 9.73082C13.7272 9.56448 13.7973 9.40494 13.9221 9.28722C14.0469 9.16949 14.2161 9.10321 14.3928 9.10292H30.5783C30.7505 9.10968 30.9132 9.17885 31.0325 9.29597C31.1518 9.41308 31.2184 9.56908 31.2184 9.73137C31.2184 9.89365 31.1518 10.0497 31.0325 10.1668C30.9132 10.2839 30.7505 10.3531 30.5783 10.3598H14.3928C14.216 10.3592 14.0467 10.2927 13.922 10.1748C13.7972 10.0569 13.7272 9.89727 13.7272 9.73082ZM13.7272 6.41223C13.7272 6.24579 13.7972 6.08613 13.922 5.96824C14.0467 5.85034 14.216 5.78381 14.3928 5.78324H30.5783C30.7555 5.78324 30.9253 5.84951 31.0506 5.96747C31.1758 6.08542 31.2463 6.24541 31.2463 6.41223C31.2463 6.57905 31.1758 6.73904 31.0506 6.857C30.9253 6.97496 30.7555 7.04122 30.5783 7.04122H14.3928C14.216 7.04065 14.0467 6.97412 13.922 6.85623C13.7972 6.73833 13.7272 6.57867 13.7272 6.41223ZM7.51643 10.1731C7.42 10.1736 7.32461 10.1544 7.2369 10.1167C7.14918 10.0789 7.07126 10.0237 7.00854 9.95468L5.09404 7.84821C4.98556 7.72034 4.9342 7.55774 4.95079 7.39482C4.96737 7.2319 5.05064 7.08146 5.18293 6.97532C5.31522 6.86919 5.48618 6.81569 5.65962 6.82615C5.83306 6.83662 5.99536 6.91023 6.11219 7.0314L7.51643 8.57876L10.3597 5.44363C10.4748 5.31706 10.6384 5.23871 10.8148 5.22581C10.9912 5.21291 11.1658 5.26651 11.3002 5.37483C11.4346 5.48315 11.5177 5.6373 11.5314 5.80339C11.5451 5.96947 11.4882 6.13388 11.3732 6.26044L8.02318 9.95468C7.96089 10.0242 7.88329 10.0801 7.7958 10.1185C7.7083 10.157 7.61299 10.1771 7.51643 10.1775V10.1731Z" fill="#05B8C3"/>
<path fill-rule="evenodd" clip-rule="evenodd" d="M34.3363 16.9589C33.953 17.0788 33.5794 17.2248 33.2185 17.3957C32.9409 17.5284 32.6258 17.5751 32.3184 17.529C32.011 17.4829 31.727 17.3464 31.5069 17.139L30.1212 15.8286C30.0944 15.8043 30.0587 15.7908 30.0215 15.7908C29.9843 15.7908 29.9485 15.8043 29.9217 15.8286L28.0049 17.6435C27.9794 17.6685 27.9649 17.7017 27.9643 17.7364C27.9651 17.771 27.9796 17.8041 28.0049 17.8292L29.3965 19.1396C29.6164 19.3464 29.7615 19.6133 29.8111 19.9023C29.8606 20.1913 29.8121 20.4877 29.6724 20.7492C29.489 21.0882 29.3339 21.4402 29.2086 21.8019C29.1123 22.0799 28.9251 22.3221 28.6736 22.4938C28.4222 22.6654 28.1195 22.7577 27.809 22.7574H25.8493C25.8121 22.7574 25.7763 22.7713 25.75 22.7961C25.7237 22.8209 25.709 22.8545 25.709 22.8895V25.4481C25.709 25.4831 25.7237 25.5167 25.75 25.5415C25.7763 25.5663 25.8121 25.5802 25.8493 25.5802H27.809C28.1195 25.5799 28.4222 25.6721 28.6736 25.8438C28.9251 26.0154 29.1123 26.2577 29.2086 26.5357C29.3341 26.8974 29.4892 27.2493 29.6724 27.5884C29.8121 27.8499 29.8606 28.1463 29.8111 28.4353C29.7615 28.7243 29.6164 28.9912 29.3965 29.198L28.0049 30.5084C27.9796 30.5335 27.9651 30.5666 27.9643 30.6012C27.9649 30.6359 27.9794 30.6691 28.0049 30.6941L29.924 32.5046C29.9508 32.529 29.9866 32.5427 30.0238 32.5428C30.0423 32.5433 30.0608 32.5402 30.0779 32.5336C30.0951 32.527 30.1106 32.5171 30.1235 32.5046L31.5092 31.1942C31.7293 30.9868 32.0133 30.8503 32.3207 30.8042C32.6282 30.7581 32.9432 30.8048 33.2208 30.9376C33.5815 31.1089 33.9551 31.2549 34.3386 31.3744C34.6339 31.4654 34.891 31.642 35.0732 31.8789C35.2555 32.1158 35.3535 32.4009 35.3533 32.6935V34.5401C35.3536 34.5749 35.3685 34.6083 35.3948 34.6328C35.4211 34.6574 35.4566 34.6711 35.4936 34.6711H38.2093C38.2463 34.6711 38.2818 34.6574 38.3081 34.6328C38.3344 34.6083 38.3493 34.5749 38.3496 34.5401V32.6891C38.3494 32.3966 38.4474 32.1114 38.6296 31.8745C38.8119 31.6376 39.069 31.461 39.3643 31.37C39.7484 31.2521 40.1222 31.106 40.4821 30.9332C40.7597 30.8004 41.0747 30.7537 41.3821 30.7998C41.6895 30.8459 41.9736 30.9824 42.1937 31.1898L43.5794 32.5002C43.5923 32.5128 43.6078 32.5226 43.625 32.5292C43.6421 32.5358 43.6606 32.5389 43.6791 32.5384C43.7163 32.5383 43.7521 32.5246 43.7788 32.5002L45.698 30.6897C45.7115 30.6779 45.7221 30.6635 45.7292 30.6475C45.7362 30.6315 45.7394 30.6142 45.7386 30.5969C45.7393 30.5795 45.736 30.5623 45.729 30.5463C45.722 30.5302 45.7114 30.5158 45.698 30.504L44.3064 29.1936C44.0861 28.9869 43.9411 28.7197 43.8924 28.4305C43.8436 28.1412 43.8936 27.8448 44.0351 27.584C44.2169 27.2443 44.3719 26.8925 44.499 26.5313C44.5956 26.2527 44.7836 26.01 45.0359 25.8384C45.2882 25.6667 45.5919 25.5748 45.9032 25.5758H47.8629C47.8993 25.5747 47.9338 25.5603 47.9592 25.5356C47.9845 25.511 47.9986 25.478 47.9986 25.4437V22.8851C47.9986 22.8509 47.9845 22.8179 47.9592 22.7932C47.9338 22.7686 47.8993 22.7541 47.8629 22.753H45.9032C45.5919 22.7541 45.2882 22.6622 45.0359 22.4905C44.7836 22.3188 44.5956 22.0762 44.499 21.7975C44.3715 21.4365 44.2165 21.0847 44.0351 20.7448C43.8936 20.484 43.8436 20.1877 43.8924 19.8984C43.9411 19.6092 44.0861 19.3419 44.3064 19.1352L45.698 17.8248C45.7114 17.813 45.722 17.7986 45.729 17.7826C45.736 17.7666 45.7393 17.7493 45.7386 17.732C45.7394 17.7147 45.7362 17.6974 45.7292 17.6814C45.7221 17.6653 45.7115 17.6509 45.698 17.6392L43.7753 15.833C43.7486 15.8086 43.7129 15.7949 43.6756 15.7948C43.6571 15.7943 43.6387 15.7974 43.6215 15.804C43.6043 15.8106 43.5888 15.8205 43.5759 15.833L42.1902 17.1434C41.9704 17.3511 41.6863 17.4878 41.3788 17.5339C41.0712 17.58 40.7561 17.5332 40.4786 17.4C40.1185 17.2276 39.7448 17.0816 39.3608 16.9632C39.0654 16.8725 38.808 16.696 38.6257 16.459C38.4434 16.222 38.3456 15.9367 38.3462 15.6441V13.7931C38.3459 13.7583 38.331 13.725 38.3047 13.7004C38.2784 13.6759 38.2429 13.6621 38.2059 13.6621H35.4901C35.4531 13.6621 35.4175 13.6759 35.3913 13.7004C35.365 13.725 35.3501 13.7583 35.3498 13.7931V15.6397C35.3502 15.9323 35.2523 16.2175 35.07 16.4545C34.8877 16.6915 34.6305 16.868 34.3351 16.9589H34.3363ZM36.8491 18.3523C38.07 18.352 39.2636 18.6928 40.2788 19.3314C41.294 19.97 42.0854 20.8779 42.5527 21.94C43.02 23.0022 43.1424 24.1711 42.9042 25.2987C42.6661 26.4264 42.0782 27.4622 41.2149 28.2752C40.3516 29.0882 39.2516 29.6418 38.0542 29.8661C36.8567 30.0903 35.6156 29.9751 34.4877 29.535C33.3597 29.0949 32.3957 28.3497 31.7176 27.3937C31.0394 26.4376 30.6775 25.3136 30.6778 24.1639C30.6793 22.623 31.33 21.1456 32.487 20.056C33.644 18.9665 35.2129 18.3537 36.8491 18.3523Z" fill="#68326F"/>
<path fill-rule="evenodd" clip-rule="evenodd" d="M36.8496 21.2549C36.535 21.2551 36.2275 21.3431 35.966 21.5079C35.7045 21.6727 35.5008 21.9067 35.3806 22.1805C35.2603 22.4543 35.229 22.7555 35.2905 23.0461C35.352 23.3366 35.5036 23.6035 35.7262 23.8129C35.9487 24.0223 36.2322 24.1649 36.5408 24.2226C36.8493 24.2803 37.1692 24.2506 37.4598 24.1372C37.7505 24.0238 37.9989 23.8317 38.1736 23.5854C38.3484 23.339 38.4417 23.0494 38.4417 22.7531C38.4405 22.3559 38.2723 21.9753 37.9739 21.6946C37.6756 21.4138 37.2713 21.2557 36.8496 21.2549Z" fill="#05B8C3"/>
<path fill-rule="evenodd" clip-rule="evenodd" d="M36.8495 24.6016C35.95 24.6019 35.0874 24.9382 34.4511 25.5369C33.8147 26.1355 33.4566 26.9475 33.4554 27.7946C33.4542 27.8278 33.4565 27.8611 33.4623 27.8939C34.4897 28.4572 35.6573 28.7539 36.846 28.7539C38.0348 28.7539 39.2023 28.4572 40.2297 27.8939C40.2355 27.8611 40.2378 27.8278 40.2366 27.7946C40.2354 26.9487 39.8783 26.1377 39.2434 25.5392C38.6086 24.9407 37.7478 24.6036 36.8495 24.6016Z" fill="#05B8C3"/>
</g>
<defs>
<clipPath id="clip0_17_6395">
<rect width="48" height="48" fill="white"/>
</clipPath>
</defs>
</svg>
