<svg width="59" height="64" viewBox="0 0 59 64" fill="none" xmlns="http://www.w3.org/2000/svg">
<g clip-path="url(#clip0_2_527)">
<path d="M56.0194 22.7098C56.5852 22.7089 57.1277 22.4913 57.5281 22.1044C57.9285 21.7175 58.1543 21.1929 58.1561 20.6453V10.3227C58.1552 9.77487 57.9297 9.24976 57.529 8.86268C57.1284 8.4756 56.5855 8.2582 56.0194 8.25821H51.7527V5.15978C51.7518 4.33917 51.4145 3.55242 50.8149 2.97216C50.2153 2.3919 49.4024 2.06553 48.5544 2.06466H30.2248C30.0074 1.46145 29.6014 0.938631 29.0632 0.568689C28.525 0.198748 27.8812 0 27.2211 0C26.5609 0 25.9171 0.198748 25.3789 0.568689C24.8407 0.938631 24.4348 1.46145 24.2173 2.06466H5.88775C5.03978 2.06553 4.2268 2.3919 3.6272 2.97216C3.0276 3.55242 2.69036 4.33917 2.68945 5.15978V10.3392C3.03079 10.3392 3.37212 10.3227 3.75441 10.3227C4.1367 10.3227 4.47121 10.3227 4.81937 10.3392V5.15978C4.82027 4.88614 4.93323 4.62401 5.1335 4.43083C5.33376 4.23764 5.60499 4.12917 5.88775 4.12917H24.2173C24.4348 4.73238 24.8407 5.25519 25.3789 5.62513C25.9171 5.99507 26.5609 6.19382 27.2211 6.19382C27.8812 6.19382 28.525 5.99507 29.0632 5.62513C29.6014 5.25519 30.0074 4.73238 30.2248 4.12917H48.5544C48.8372 4.12917 49.1084 4.23764 49.3087 4.43083C49.5089 4.62401 49.6219 4.88614 49.6228 5.15978V8.27472H45.3561C44.79 8.27472 44.247 8.49213 43.8464 8.8792C43.4458 9.26628 43.2203 9.79139 43.2194 10.3392V20.6618C43.2212 21.2094 43.447 21.734 43.8474 22.1209C44.2478 22.5078 44.7903 22.7255 45.3561 22.7263H49.6228V24.7908H45.3561C44.79 24.7908 44.247 25.0083 43.8464 25.3953C43.4458 25.7824 43.2203 26.3075 43.2194 26.8554V37.1779C43.2212 37.7255 43.447 38.2501 43.8474 38.637C44.2478 39.0239 44.7903 39.2416 45.3561 39.2425H49.6228V41.307H45.3561C44.79 41.307 44.247 41.5244 43.8464 41.9115C43.4458 42.2985 43.2203 42.8236 43.2194 43.3715V53.6941C43.2212 54.2416 43.447 54.7663 43.8474 55.1531C44.2478 55.54 44.7903 55.7577 45.3561 55.7586H49.6228V58.8537C49.6228 59.1279 49.5102 59.3909 49.3098 59.5848C49.1095 59.7787 48.8378 59.8876 48.5544 59.8876H30.2248C30.0074 59.2844 29.6014 58.7616 29.0632 58.3917C28.525 58.0217 27.8812 57.823 27.2211 57.823C26.5609 57.823 25.9171 58.0217 25.3789 58.3917C24.8407 58.7616 24.4348 59.2844 24.2173 59.8876H5.88775C5.60439 59.8876 5.33265 59.7787 5.13229 59.5848C4.93193 59.3909 4.81937 59.1279 4.81937 58.8537V53.6577C4.47804 53.6577 4.1367 53.6776 3.75441 53.6776C3.37212 53.6776 3.03761 53.6776 2.68945 53.6577V58.8372C2.68945 59.6584 3.0263 60.446 3.62599 61.027C4.22569 61.6079 5.03919 61.9347 5.88775 61.9356H24.2173C24.4348 62.5388 24.8407 63.0616 25.3789 63.4316C25.9171 63.8015 26.5609 64.0003 27.2211 64.0003C27.8812 64.0003 28.525 63.8015 29.0632 63.4316C29.6014 63.0616 30.0074 62.5388 30.2248 61.9356H48.5544C49.403 61.9347 50.2164 61.6079 50.8161 61.027C51.4158 60.446 51.7527 59.6584 51.7527 58.8372V55.7421H56.0194C56.5852 55.7412 57.1277 55.5235 57.5281 55.1366C57.9285 54.7497 58.1543 54.2251 58.1561 53.6776V43.355C58.1552 42.8071 57.9297 42.282 57.529 41.8949C57.1284 41.5079 56.5855 41.2905 56.0194 41.2905H51.7527V39.2259H56.0194C56.5852 39.2251 57.1277 39.0074 57.5281 38.6205C57.9285 38.2336 58.1543 37.709 58.1561 37.1614V26.8389C58.1552 26.291 57.9297 25.7659 57.529 25.3788C57.1284 24.9917 56.5855 24.7743 56.0194 24.7743H51.7527V22.7098H56.0194ZM47.486 12.3872H53.8895V14.4518H47.486V12.3872ZM53.8895 51.613H47.486V49.565H53.8895V51.613ZM53.8895 45.4195V47.484H47.486V45.4195H53.8895ZM53.8895 35.0969H47.486V33.0489H53.8895V35.0969ZM53.8895 28.9034V30.9679H47.486V28.9034H53.8895ZM47.486 18.5808V16.5328H53.8895V18.5973L47.486 18.5808Z" fill="white"/>
<path d="M3.75454 35.0968C10.0556 35.0968 13.3528 33.5377 13.3528 31.9984V27.0171C11.3731 28.2294 8.08265 28.9032 3.75454 28.9032C-0.573565 28.9032 -3.86402 28.2426 -5.84375 27.0171V31.9984C-5.84375 33.5377 -2.54647 35.0968 3.75454 35.0968Z" fill="white"/>
<path d="M13.3528 48.5145V43.5332C11.3731 44.7455 8.08265 45.4194 3.75454 45.4194C-0.573565 45.4194 -3.86402 44.7587 -5.84375 43.5332V48.5145C-5.84375 50.0538 -2.54647 51.6129 3.75454 51.6129C10.0556 51.6129 13.3528 50.0538 13.3528 48.5145Z" fill="white"/>
<path d="M3.75454 43.3551C10.0556 43.3551 13.3528 41.796 13.3528 40.2567V35.2754C11.3731 36.4877 8.08265 37.1615 3.75454 37.1615C-0.573565 37.1615 -3.86402 36.5009 -5.84375 35.2754V40.2567C-5.84375 41.796 -2.54647 43.3551 3.75454 43.3551Z" fill="white"/>
<path d="M3.75454 26.839C10.0556 26.839 13.3528 25.2799 13.3528 23.7405V18.7593C11.3731 19.9716 8.08265 20.6454 3.75454 20.6454C-0.573565 20.6454 -3.86402 19.9848 -5.84375 18.7593V23.7405C-5.84375 25.2799 -2.54647 26.839 3.75454 26.839Z" fill="white"/>
<path d="M15.4883 43.3549H17.7479C17.9035 42.7402 18.2068 42.1696 18.6333 41.6898C19.0597 41.2099 19.5972 40.8343 20.2021 40.5934C20.8117 40.3412 21.4743 40.2322 22.1357 40.2753C22.7972 40.3183 23.4387 40.5122 24.0079 40.8412L25.6941 39.2094C25.3559 38.6674 25.1549 38.0557 25.1074 37.4243C25.06 36.7928 25.1675 36.1594 25.4211 35.5758C25.6686 34.9832 26.0573 34.4555 26.5556 34.0359C27.0538 33.6163 27.6476 33.3166 28.2883 33.1612V30.8489C27.6526 30.6994 27.0625 30.4062 26.5665 29.9933C26.0705 29.5805 25.6826 29.0598 25.4347 28.4739C25.1736 27.8841 25.0606 27.2428 25.1051 26.6026C25.1496 25.9623 25.3503 25.3414 25.6907 24.7908L24.0045 23.159C23.439 23.4843 22.8028 23.6776 22.1466 23.7234C21.4903 23.7693 20.8321 23.6664 20.2242 23.423C19.6162 23.1797 19.0752 22.8025 18.6442 22.3215C18.2131 21.8404 17.9039 21.2688 17.7411 20.6519H15.4883V25.9007C16.3625 25.7556 17.2582 25.7879 18.1188 25.9955C18.9794 26.2032 19.786 26.5817 20.4874 27.1071C21.1889 27.6324 21.7698 28.2931 22.1934 29.0473C22.6169 29.8014 22.8739 30.6325 22.948 31.4878C23.0221 32.3432 22.9116 33.2041 22.6236 34.0159C22.3356 34.8278 21.8765 35.5728 21.2752 36.2038C20.6739 36.8348 19.9437 37.338 19.1308 37.6814C18.3179 38.0247 17.4402 38.2009 16.5532 38.1986C16.1962 38.1993 15.8399 38.1694 15.4883 38.1094V43.3549Z" fill="white"/>
<path d="M3.75454 18.5808C9.05545 18.5808 13.3528 17.1934 13.3528 15.4823C13.3528 13.7713 9.05545 12.3872 3.75454 12.3872C-1.54636 12.3872 -5.84375 13.7713 -5.84375 15.4823C-5.84375 17.1934 -1.54636 18.5808 3.75454 18.5808Z" fill="white"/>
<path d="M18.6866 31.9986C18.6857 31.4513 18.4606 30.9267 18.0607 30.5397C17.6608 30.1527 17.1188 29.935 16.5532 29.9341C16.1781 29.9359 15.8103 30.0351 15.4883 30.2215V33.7757C15.8103 33.962 16.1781 34.0613 16.5532 34.0631C17.119 34.0631 17.6616 33.8456 18.0617 33.4584C18.4618 33.0713 18.6866 32.5461 18.6866 31.9986Z" fill="#05B8C3"/>
</g>
<defs>
<clipPath id="clip0_2_527">
<rect width="58.3111" height="64" fill="white"/>
</clipPath>
</defs>
</svg>
