<svg width="64" height="64" viewBox="0 0 64 64" fill="none" xmlns="http://www.w3.org/2000/svg">
<g clip-path="url(#clip0_17_7206)">
<mask id="mask0_17_7206" style="mask-type:luminance" maskUnits="userSpaceOnUse" x="0" y="0" width="64" height="64">
<path d="M64 0H0V64H64V0Z" fill="white"/>
</mask>
<g mask="url(#mask0_17_7206)">
<path d="M21.888 0C8.98885 0 0 4.48002 0 8.49922C0 12.5184 8.98885 16.9984 21.888 16.9984C34.7873 16.9984 43.776 12.5184 43.776 8.49922C43.776 4.48002 34.7873 0 21.888 0Z" fill="white"/>
<path d="M-0.00140625 47.5522V55.501C-0.00140625 59.5202 8.98744 64.0002 21.8866 64.0002C27.669 64.0002 33.125 63.0882 37.2466 61.4402C39.9346 60.3618 41.9282 59.0243 42.965 57.6355C40.5469 55.7439 38.4617 53.4618 36.7954 50.8834C32.4722 52.2658 27.3618 52.9922 21.8802 52.9922C14.9842 52.9922 8.52983 51.805 3.71062 49.6482C2.40594 49.0734 1.16052 48.3725 -0.0078125 47.5554L-0.00140625 47.5522Z" fill="white"/>
<path d="M0 31.9199V39.7599C0 43.7823 8.98885 48.2591 21.888 48.2591C26.1575 48.2972 30.4119 47.747 34.5312 46.6239C33.1562 43.3873 32.2873 39.9584 31.9552 36.4575C28.6342 37.0657 25.2643 37.3668 21.888 37.3568C14.9472 37.3568 8.46405 36.1567 3.64805 33.9743C2.37317 33.4078 1.15578 32.7198 0.0128125 31.9199H0Z" fill="white"/>
<path d="M0 16.2812V24.1277C0 28.1469 8.98885 32.6269 21.888 32.6269C25.1918 32.6356 28.4882 32.314 31.728 31.6669C31.728 30.9213 31.9552 28.9885 33.744 28.4957C36.5664 27.7213 38.544 25.8621 38.7168 23.3117C38.7872 22.2621 40.1024 20.7901 41.0816 20.8061H43.776V16.2812C42.6342 17.0812 41.4179 17.7692 40.144 18.3357C35.3088 20.5245 28.8256 21.7277 21.888 21.7277C14.9504 21.7277 8.47045 20.5245 3.64805 18.3357C2.37317 17.7692 1.15578 17.0812 0.0128125 16.2812H0Z" fill="white"/>
<path d="M57.2905 25.5522H43.1848C42.3944 28.8322 39.8728 31.5234 36.4648 32.6946C36.7304 48.4386 45.7801 54.4546 49.7673 56.3234C49.8821 56.3766 50.008 56.4015 50.1344 56.3959C50.2608 56.3903 50.384 56.3545 50.4937 56.2914C54.4969 54.0514 63.5785 47.3314 64.0009 32.6914C60.5993 31.5138 58.0841 28.8258 57.2809 25.5522H57.2905ZM49.3801 46.0546C49.1484 46.287 48.8713 46.4693 48.5662 46.5901C48.261 46.7109 47.9343 46.7677 47.6063 46.7569C47.2782 46.7461 46.9559 46.668 46.6594 46.5273C46.3628 46.3867 46.0984 46.1866 45.8825 45.9394L41.3865 40.6626L44.9897 37.5971L47.7993 40.893L55.6393 32.829L59.0313 36.125L49.3801 46.0546Z" fill="white"/>
</g>
</g>
<defs>
<clipPath id="clip0_17_7206">
<rect width="64" height="64" fill="white"/>
</clipPath>
</defs>
</svg>
