<svg width="48" height="48" viewBox="0 0 48 48" fill="none" xmlns="http://www.w3.org/2000/svg">
<g clip-path="url(#clip0_17_6366)">
<path d="M47.3736 6.99902V26.4719C47.3785 28.9469 46.6581 31.3838 45.2778 33.5616C43.8974 35.7394 41.9008 37.5892 39.469 38.9433L24.2383 47.4683" stroke="#68326F" stroke-width="2" stroke-linecap="round" stroke-linejoin="round"/>
<path d="M42.5582 26.4721V6.99923C33.5192 6.99923 25.6505 5.08033 21.5935 0.535156C17.5366 5.08033 9.66793 6.99923 0.628906 6.99923V26.4721C0.628721 28.2661 1.15243 30.032 2.15283 31.6106C3.15323 33.1893 4.59892 34.5311 6.35962 35.5152L21.5935 44.0401L36.8275 35.5152C38.5882 34.5311 40.0339 33.1893 41.0343 31.6106C42.0347 30.032 42.5584 28.2661 42.5582 26.4721Z" fill="#05B8C3" stroke="#68326F" stroke-width="2" stroke-linecap="round" stroke-linejoin="round"/>
<path d="M21.5923 33.7605C18.9291 33.7605 16.3257 33.0877 14.1114 31.8272C11.897 30.5666 10.1711 28.775 9.15196 26.6789C8.1328 24.5827 7.86612 22.2762 8.38569 20.051C8.90525 17.8257 10.1877 15.7817 12.0708 14.1773C13.954 12.573 16.3533 11.4804 18.9654 11.0378C21.5774 10.5952 24.2849 10.8223 26.7453 11.6906C29.2058 12.5588 31.3088 14.0292 32.7884 15.9157C34.2679 17.8022 35.0577 20.0201 35.0577 22.2889C35.0577 25.3314 33.639 28.2492 31.1137 30.4005C28.5885 32.5519 25.1635 33.7605 21.5923 33.7605Z" fill="white" stroke="#68326F" stroke-width="2" stroke-linecap="round" stroke-linejoin="round"/>
<path d="M29.8165 18.0605L20.967 28.212C20.8837 28.3076 20.7749 28.3851 20.6496 28.4379C20.5242 28.4908 20.3859 28.5175 20.2461 28.5158C20.1063 28.5142 19.9689 28.4843 19.8453 28.4285C19.7217 28.3728 19.6154 28.2929 19.5352 28.1953L14.3047 21.7897" stroke="#68326F" stroke-width="2" stroke-linecap="round" stroke-linejoin="round"/>
</g>
<defs>
<clipPath id="clip0_17_6366">
<rect width="48" height="48" fill="white"/>
</clipPath>
</defs>
</svg>
