<svg width="48" height="48" viewBox="0 0 48 48" fill="none" xmlns="http://www.w3.org/2000/svg">
<g clip-path="url(#clip0_17_6327)">
<path d="M18.9717 9.77197H16.1641V15.1038H18.9717V9.77197Z" fill="#05B8C3"/>
<path d="M25.8057 6.81982H22.998V15.1039H25.8057V6.81982Z" fill="#05B8C3"/>
<path d="M32.6387 3.97266H29.832V15.1041H32.6387V3.97266Z" fill="#05B8C3"/>
<path fill-rule="evenodd" clip-rule="evenodd" d="M16.8506 28.832H4.445C4.31713 28.8326 4.19466 28.8876 4.10433 28.985C4.01401 29.0823 3.96317 29.2142 3.96289 29.3517V31.5126C3.96317 31.6499 4.01408 31.7815 4.10446 31.8785C4.19484 31.9755 4.31732 32.03 4.445 32.03H16.8558C16.9835 32.03 17.106 31.9755 17.1964 31.8785C17.2867 31.7815 17.3376 31.6499 17.3379 31.5126V29.3517C17.3378 29.2831 17.3251 29.2152 17.3005 29.152C17.2759 29.0887 17.2399 29.0313 17.1946 28.983C17.1493 28.9347 17.0957 28.8965 17.0366 28.8706C16.9776 28.8447 16.9144 28.8316 16.8506 28.832Z" fill="#05B8C3"/>
<path fill-rule="evenodd" clip-rule="evenodd" d="M18.6175 33.3818H6.20672C6.07894 33.3821 5.95648 33.4369 5.86613 33.534C5.77578 33.6312 5.72489 33.7629 5.72461 33.9004V36.0624C5.72488 36.1999 5.77573 36.3318 5.86605 36.4291C5.95637 36.5265 6.07884 36.5815 6.20672 36.582H18.6175C18.7454 36.5815 18.8679 36.5265 18.9582 36.4291C19.0485 36.3318 19.0994 36.1999 19.0996 36.0624V33.9004C19.0994 33.7629 19.0485 33.6312 18.9581 33.534C18.8678 33.4369 18.7453 33.3821 18.6175 33.3818Z" fill="#05B8C3"/>
<path d="M15.0824 37.9355H2.67155C2.40529 37.9355 2.18945 38.1677 2.18945 38.4541V40.615C2.18945 40.9014 2.40529 41.1335 2.67155 41.1335H15.0824C15.3486 41.1335 15.5645 40.9014 15.5645 40.615V38.4541C15.5645 38.1677 15.3486 37.9355 15.0824 37.9355Z" fill="#05B8C3"/>
<path fill-rule="evenodd" clip-rule="evenodd" d="M16.8506 42.4854H4.445C4.31714 42.4854 4.19451 42.54 4.1041 42.6373C4.01369 42.7345 3.96289 42.8664 3.96289 43.0039V45.166C3.96317 45.3033 4.01408 45.4349 4.10446 45.5319C4.19484 45.6289 4.31732 45.6833 4.445 45.6833H16.8558C16.9835 45.6833 17.106 45.6289 17.1964 45.5319C17.2867 45.4349 17.3376 45.3033 17.3379 45.166V43.0039C17.3379 42.9354 17.3253 42.8675 17.3007 42.8042C17.2762 42.7409 17.2402 42.6835 17.1949 42.6353C17.1495 42.587 17.0958 42.5489 17.0367 42.5232C16.9776 42.4975 16.9143 42.4846 16.8506 42.4854Z" fill="#05B8C3"/>
<path fill-rule="evenodd" clip-rule="evenodd" d="M16.8502 41.1329C17.3114 41.1335 17.7536 41.3308 18.0797 41.6816C18.4059 42.0324 18.5893 42.508 18.5899 43.0041V45.1661C18.5891 45.662 18.4055 46.1373 18.0794 46.4879C17.7532 46.8384 17.3112 47.0356 16.8502 47.0362H4.44456C3.98351 47.0356 3.54149 46.8384 3.21537 46.4879C2.88926 46.1373 2.70565 45.662 2.70481 45.1661V43.0041C2.70515 42.8286 2.72845 42.6541 2.774 42.4856H2.67756C2.21633 42.485 1.77416 42.2876 1.44802 41.9368C1.12187 41.586 0.938396 41.1104 0.937841 40.6143V38.4546C0.938674 37.9588 1.12231 37.4836 1.44845 37.1332C1.7746 36.7828 2.2166 36.5859 2.67756 36.5856H4.54097C4.49565 36.4167 4.47238 36.2418 4.47181 36.066V33.9039C4.4723 33.7284 4.49557 33.5539 4.54097 33.3854H4.44456C3.98342 33.3851 3.54124 33.188 3.21507 32.8374C2.88889 32.4868 2.70537 32.0113 2.70481 31.5153V29.3544C2.70537 28.8582 2.88882 28.3825 3.21494 28.0315C3.54105 27.6805 3.98323 27.4829 4.44456 27.482H16.8554C17.3167 27.4829 17.7589 27.6805 18.085 28.0315C18.4111 28.3825 18.5946 28.8582 18.5951 29.3544V31.5153C18.5947 31.6904 18.5714 31.8646 18.526 32.0327H18.6224C19.0836 32.0333 19.5258 32.2306 19.852 32.5814C20.1781 32.9322 20.3615 33.4078 20.3621 33.9039V36.066C20.3615 36.562 20.1781 37.0377 19.852 37.3884C19.5258 37.7392 19.0836 37.9366 18.6224 37.9371H16.759C16.8044 38.1053 16.8277 38.2795 16.8281 38.4546V40.6166C16.8278 40.7921 16.8045 40.9666 16.759 41.1351L16.8502 41.1329ZM11.676 21.2631H1.54466C1.37788 21.2631 1.21794 21.1918 1.10001 21.065C0.982083 20.9381 0.915837 20.7661 0.915837 20.5867C0.915837 20.4074 0.982083 20.2353 1.10001 20.1085C1.21794 19.9816 1.37788 19.9104 1.54466 19.9104H11.676C11.8428 19.9104 12.0027 19.9816 12.1207 20.1085C12.2386 20.2353 12.3048 20.4074 12.3048 20.5867C12.3048 20.7661 12.2386 20.9381 12.1207 21.065C12.0027 21.1918 11.8428 21.2631 11.676 21.2631ZM11.676 17.7517H1.54466C1.37788 17.7517 1.21794 17.6805 1.10001 17.5536C0.982083 17.4268 0.915837 17.2548 0.915837 17.0754C0.915837 16.896 0.982083 16.724 1.10001 16.5971C1.21794 16.4703 1.37788 16.399 1.54466 16.399H11.676C11.8428 16.399 12.0027 16.4703 12.1207 16.5971C12.2386 16.724 12.3048 16.896 12.3048 17.0754C12.3048 17.2548 12.2386 17.4268 12.1207 17.5536C12.0027 17.6805 11.8428 17.7517 11.676 17.7517ZM11.676 14.2415H1.54466C1.37788 14.2415 1.21794 14.1703 1.10001 14.0434C0.982083 13.9166 0.915837 13.7445 0.915837 13.5652C0.915837 13.3858 0.982083 13.2138 1.10001 13.0869C1.21794 12.9601 1.37788 12.8888 1.54466 12.8888H11.676C11.8428 12.8888 12.0027 12.9601 12.1207 13.0869C12.2386 13.2138 12.3048 13.3858 12.3048 13.5652C12.3048 13.7445 12.2386 13.9166 12.1207 14.0434C12.0027 14.1703 11.8428 14.2415 11.676 14.2415ZM11.676 10.7324H1.54466C1.37788 10.7324 1.21794 10.6612 1.10001 10.5343C0.982083 10.4075 0.915837 10.2355 0.915837 10.0561C0.915837 9.8767 0.982083 9.70468 1.10001 9.57784C1.21794 9.451 1.37788 9.37973 1.54466 9.37973H11.676C11.8428 9.37973 12.0027 9.451 12.1207 9.57784C12.2386 9.70468 12.3048 9.8767 12.3048 10.0561C12.3048 10.2355 12.2386 10.4075 12.1207 10.5343C12.0027 10.6612 11.8428 10.7324 11.676 10.7324ZM6.44317 7.60434H0.00195312V48.0011H32.9511C32.9369 47.9151 32.9296 47.828 32.9291 47.7407V45.4671C32.9311 45.4121 32.9158 45.358 32.8858 45.3134C32.8558 45.2689 32.8127 45.2365 32.7635 45.2214C32.2856 45.0515 31.8201 44.8439 31.3707 44.6003C31.3259 44.5729 31.2739 44.5628 31.2231 44.5714C31.1723 44.58 31.1256 44.6068 31.0909 44.6476L29.5964 46.255C29.4572 46.4048 29.2919 46.5237 29.11 46.6047C28.9281 46.6858 28.7332 46.7276 28.5363 46.7276C28.3394 46.7276 28.1444 46.6858 27.9625 46.6047C27.7806 46.5237 27.6154 46.4048 27.4762 46.255L25.4042 44.0265C25.1237 43.7237 24.9662 43.3137 24.9662 42.8863C24.9662 42.4589 25.1237 42.0489 25.4042 41.7461L26.8987 40.1386C26.9365 40.1011 26.9614 40.0511 26.9696 39.9965C26.9778 39.942 26.9687 39.886 26.9438 39.8377C26.7162 39.3546 26.5229 38.8539 26.3653 38.3396C26.3511 38.2866 26.3208 38.2403 26.2791 38.2081C26.2375 38.176 26.1869 38.16 26.1357 38.1626H24.024C23.6262 38.162 23.2449 37.9917 22.9637 37.6891C22.6826 37.3865 22.5245 36.9762 22.5242 36.5484V33.3921C22.5248 32.9646 22.683 32.5548 22.9642 32.2526C23.2453 31.9504 23.6265 31.7805 24.024 31.7802H26.1368C26.1881 31.7821 26.2386 31.7655 26.2802 31.733C26.3218 31.7006 26.3521 31.6541 26.3663 31.601C26.5233 31.0866 26.7163 30.5858 26.9438 30.1029C26.9687 30.0545 26.9778 29.9986 26.9696 29.944C26.9614 29.8894 26.9365 29.8394 26.8987 29.8019L25.399 28.1967C25.1184 27.8937 24.9609 27.4836 24.9609 27.0559C24.9609 26.6283 25.1184 26.2181 25.399 25.9152L27.4709 23.6878C27.7524 23.3861 28.1336 23.2166 28.531 23.2166C28.9284 23.2166 29.3096 23.3861 29.5911 23.6878L31.0856 25.2952C31.1204 25.336 31.1669 25.3629 31.2177 25.3717C31.2685 25.3805 31.3205 25.3706 31.3654 25.3437C31.8146 25.0989 32.2802 24.891 32.7583 24.7214C32.8077 24.7063 32.8509 24.6737 32.8809 24.6289C32.9109 24.5841 32.9261 24.5297 32.9239 24.4746V22.2032C32.9244 21.7755 33.0826 21.3656 33.3637 21.0632C33.6449 20.7608 34.026 20.5907 34.4236 20.5901H35.262V0H7.06989V6.92799C7.06989 7.10737 7.00365 7.2794 6.88572 7.40624C6.76779 7.53308 6.60785 7.60434 6.44107 7.60434H6.44317ZM33.7162 18.5025H15.0863C14.9195 18.5025 14.7596 18.4312 14.6417 18.3044C14.5237 18.1775 14.4575 18.0055 14.4575 17.8261C14.4575 17.6467 14.5237 17.4747 14.6417 17.3479C14.7596 17.221 14.9195 17.1498 15.0863 17.1498H33.7162C33.8829 17.1498 34.0429 17.221 34.1608 17.3479C34.2787 17.4747 34.345 17.6467 34.345 17.8261C34.345 18.0055 34.2787 18.1775 34.1608 18.3044C34.0429 18.4312 33.8829 18.5025 33.7162 18.5025ZM28.5745 15.7757V3.29717C28.5745 3.11779 28.6408 2.94576 28.7587 2.81892C28.8766 2.69208 29.0366 2.62083 29.2034 2.62083H33.2655C33.4323 2.62083 33.5922 2.69208 33.7102 2.81892C33.8281 2.94576 33.8943 3.11779 33.8943 3.29717V15.7802C33.8943 15.9596 33.8281 16.1316 33.7102 16.2584C33.5922 16.3853 33.4323 16.4565 33.2655 16.4565H29.2013C29.0345 16.4565 28.8745 16.3853 28.7566 16.2584C28.6387 16.1316 28.5724 15.9596 28.5724 15.7802L28.5745 15.7757ZM26.4344 16.452H22.366C22.1992 16.452 22.0392 16.3808 21.9213 16.2539C21.8034 16.1271 21.7371 15.9551 21.7371 15.7757V6.13893C21.7371 5.95955 21.8034 5.78753 21.9213 5.66069C22.0392 5.53385 22.1992 5.46259 22.366 5.46259H26.4313C26.5981 5.46259 26.758 5.53385 26.8759 5.66069C26.9939 5.78753 27.0601 5.95955 27.0601 6.13893V15.7757C27.0601 15.9551 26.9939 16.1271 26.8759 16.2539C26.758 16.3808 26.5981 16.452 26.4313 16.452H26.4344ZM19.6002 16.452H15.5349C15.3681 16.452 15.2082 16.3808 15.0902 16.2539C14.9723 16.1271 14.9061 15.9551 14.9061 15.7757V9.09117C14.9061 8.91179 14.9723 8.73976 15.0902 8.61292C15.2082 8.48608 15.3681 8.41483 15.5349 8.41483H19.6002C19.767 8.41483 19.9269 8.48608 20.0448 8.61292C20.1628 8.73976 20.229 8.91179 20.229 9.09117V15.7757C20.2296 15.8649 20.2137 15.9533 20.1824 16.0359C20.151 16.1185 20.1048 16.1936 20.0463 16.2568C19.9879 16.3201 19.9184 16.3704 19.8418 16.4046C19.7652 16.4389 19.6831 16.4565 19.6002 16.4565V16.452Z" fill="#05B8C3"/>
<path fill-rule="evenodd" clip-rule="evenodd" d="M23.7773 36.5482C23.7776 36.6171 23.8032 36.6832 23.8486 36.7319C23.8939 36.7807 23.9553 36.8082 24.0194 36.8085H26.1312C26.4473 36.8079 26.7554 36.9148 27.0114 37.1141C27.2675 37.3133 27.4583 37.5947 27.5566 37.9177C27.6939 38.3669 27.8624 38.8044 28.0607 39.2265C28.2041 39.5295 28.2546 39.8735 28.2049 40.2093C28.1552 40.5451 28.0078 40.8553 27.784 41.0954L26.2895 42.7028C26.2671 42.727 26.2494 42.7557 26.2374 42.7872C26.2253 42.8187 26.2192 42.8525 26.2193 42.8866C26.2192 42.9557 26.2445 43.0221 26.2895 43.0715L28.3604 45.2978C28.4059 45.3461 28.4673 45.3732 28.5312 45.3732C28.5952 45.3732 28.6566 45.3461 28.7021 45.2978L30.1966 43.6903C30.42 43.4498 30.7083 43.2916 31.0205 43.2381C31.3326 43.1847 31.6524 43.2388 31.9342 43.3927C32.3267 43.6067 32.7338 43.7879 33.152 43.9349C33.452 44.0409 33.713 44.2461 33.898 44.5212C34.0831 44.7963 34.1826 45.1273 34.1823 45.4668V47.7405C34.1825 47.8094 34.2081 47.8755 34.2534 47.9243C34.2988 47.973 34.3602 48.0006 34.4243 48.0009H37.3536C37.4177 48.0006 37.4791 47.973 37.5245 47.9243C37.5698 47.8755 37.5954 47.8094 37.5957 47.7405V45.468C37.5951 45.128 37.6945 44.7967 37.8798 44.5213C38.065 44.2459 38.3266 44.0406 38.6269 43.9349C39.0448 43.7879 39.4516 43.6066 39.8437 43.3927C40.1254 43.2384 40.4454 43.1841 40.7576 43.2376C41.0697 43.2911 41.3581 43.4495 41.5813 43.6903L43.0759 45.2978C43.1214 45.3461 43.1827 45.3732 43.2467 45.3732C43.3106 45.3732 43.372 45.3461 43.4175 45.2978L45.4885 43.0715C45.511 43.0472 45.5288 43.0184 45.5409 42.9866C45.5529 42.9549 45.559 42.9209 45.5587 42.8866C45.559 42.8525 45.553 42.8186 45.5409 42.7871C45.5288 42.7555 45.511 42.7269 45.4885 42.7028L43.9939 41.0954C43.7704 40.8551 43.6232 40.545 43.5735 40.2092C43.5238 39.8735 43.5742 39.5295 43.7173 39.2265C43.9154 38.8042 44.0843 38.3668 44.2224 37.9177C44.3203 37.5947 44.511 37.3133 44.7669 37.114C45.0227 36.9147 45.3307 36.8078 45.6467 36.8085H47.7595C47.8233 36.8074 47.8841 36.7795 47.9291 36.7309C47.9741 36.6823 47.9998 36.6167 48.0006 36.5482V33.3919C48.0006 33.323 47.9752 33.257 47.93 33.2081C47.8849 33.1593 47.8236 33.1318 47.7595 33.1315H45.6467C45.3307 33.1323 45.0227 33.0253 44.7669 32.826C44.511 32.6267 44.3203 32.3454 44.2224 32.0223C44.0843 31.5732 43.9154 31.1358 43.7173 30.7136C43.5742 30.4105 43.5238 30.0665 43.5735 29.7308C43.6232 29.3951 43.7704 29.0849 43.9939 28.8446L45.4885 27.2372C45.5336 27.1884 45.559 27.1223 45.559 27.0534C45.559 26.9846 45.5336 26.9185 45.4885 26.8697L43.4175 24.6423C43.372 24.5939 43.3106 24.5668 43.2467 24.5668C43.1827 24.5668 43.1214 24.5939 43.0759 24.6423L41.5813 26.2508C41.3579 26.4911 41.0695 26.6493 40.7574 26.7028C40.4453 26.7562 40.1255 26.7022 39.8437 26.5484C39.4517 26.3339 39.0449 26.1523 38.6269 26.0051C38.3266 25.8994 38.065 25.6942 37.8798 25.4188C37.6945 25.1434 37.5951 24.812 37.5957 24.472V22.2007C37.5957 22.1665 37.5894 22.1327 37.5772 22.1012C37.565 22.0697 37.5472 22.041 37.5247 22.0169C37.5022 21.9928 37.4755 21.9738 37.4462 21.9608C37.4168 21.9479 37.3853 21.9413 37.3536 21.9414H34.4243C34.3926 21.9413 34.3612 21.9479 34.3318 21.9608C34.3024 21.9738 34.2757 21.9928 34.2532 22.0169C34.2307 22.041 34.2129 22.0697 34.2007 22.1012C34.1885 22.1327 34.1823 22.1665 34.1823 22.2007V24.4766C34.1829 24.8162 34.0835 25.1473 33.8985 25.4225C33.7134 25.6977 33.4521 25.9028 33.152 26.0085C32.7339 26.1568 32.3268 26.3388 31.9342 26.5529C31.6523 26.7064 31.3326 26.7602 31.0206 26.7068C30.7086 26.6533 30.4202 26.4954 30.1966 26.2553L28.7021 24.6468C28.6566 24.5985 28.5952 24.5714 28.5312 24.5714C28.4673 24.5714 28.4059 24.5985 28.3604 24.6468L26.2895 26.8742C26.2446 26.9231 26.2194 26.9892 26.2194 27.0579C26.2194 27.1267 26.2446 27.1927 26.2895 27.2417L27.784 28.8491C28.0078 29.0892 28.1552 29.3994 28.2049 29.7352C28.2546 30.071 28.2041 30.4151 28.0607 30.7181C27.8622 31.14 27.6937 31.5775 27.5566 32.0268C27.4584 32.3497 27.2677 32.6309 27.0118 32.8301C26.756 33.0294 26.4481 33.1364 26.1323 33.136H24.0194C23.9553 33.1363 23.8939 33.1638 23.8486 33.2126C23.8032 33.2614 23.7776 33.3274 23.7773 33.3964V36.5526V36.5482ZM28.6507 34.97C28.6505 33.4301 29.0749 31.9246 29.8702 30.6441C30.6655 29.3636 31.7959 28.3655 33.1186 27.776C34.4413 27.1866 35.8968 27.0322 37.301 27.3325C38.7053 27.6328 39.9952 28.3743 41.0077 29.4631C42.0202 30.5519 42.7097 31.9392 42.9891 33.4495C43.2685 34.9599 43.1252 36.5254 42.5773 37.9481C42.0295 39.3709 41.1017 40.5869 39.9112 41.4425C38.7208 42.2981 37.3212 42.7547 35.8895 42.7547C33.9717 42.7514 32.1333 41.9306 30.7772 40.472C29.4211 39.0134 28.658 37.0361 28.6549 34.9734L28.6507 34.97Z" fill="#68326F"/>
<path fill-rule="evenodd" clip-rule="evenodd" d="M35.8865 31.9766C35.335 31.9763 34.7959 32.152 34.3373 32.4814C33.8787 32.8108 33.5212 33.2791 33.3101 33.827C33.0989 34.375 33.0436 34.9779 33.1512 35.5597C33.2587 36.1414 33.5243 36.6758 33.9142 37.0952C34.3042 37.5146 34.801 37.8003 35.3419 37.9159C35.8827 38.0316 36.4433 37.9721 36.9528 37.745C37.4622 37.5179 37.8976 37.1334 38.2038 36.6401C38.5101 36.1469 38.6734 35.567 38.6732 34.9739C38.6724 34.1792 38.3785 33.4174 37.8561 32.8554C37.3336 32.2935 36.6253 31.9775 35.8865 31.9766Z" fill="#68326F"/>
<path fill-rule="evenodd" clip-rule="evenodd" d="M5.81325 6.25166V0.957031L0.890625 6.25166H5.81325Z" fill="#05B8C3"/>
</g>
<defs>
<clipPath id="clip0_17_6327">
<rect width="48" height="48" fill="white"/>
</clipPath>
</defs>
</svg>
