<svg width="48" height="48" viewBox="0 0 48 48" fill="none" xmlns="http://www.w3.org/2000/svg">
<g clip-path="url(#clip0_17_6376)">
<path d="M0.550781 47.4473H5.66077" stroke="#68326F" stroke-width="2" stroke-linecap="round" stroke-linejoin="round"/>
<path d="M12.9941 47.4473H20.2263" stroke="#68326F" stroke-width="2" stroke-linecap="round" stroke-linejoin="round"/>
<path d="M9.32878 7.9507C8.59656 7.95127 7.88067 7.73462 7.27161 7.32818C6.66256 6.92173 6.18771 6.34375 5.90723 5.66738C5.62676 4.991 5.55328 4.24663 5.69599 3.52845C5.8387 2.81028 6.19123 2.15057 6.70899 1.63281C7.22674 1.11505 7.88643 0.762512 8.60461 0.619803C9.32279 0.477093 10.0671 0.550624 10.7435 0.831096C11.4199 1.11157 11.9979 1.58638 12.4044 2.19543C12.8108 2.80449 13.0274 3.52042 13.0269 4.25264C13.0254 5.23296 12.6352 6.17269 11.9421 6.86588C11.2489 7.55907 10.3091 7.94918 9.32878 7.9507Z" fill="#05B8C3" stroke="#68326F" stroke-width="2" stroke-linecap="round" stroke-linejoin="round"/>
<path d="M12.9936 47.448L15.8693 16.1468H27.3459C27.9064 16.1585 28.453 15.9728 28.8904 15.6221C29.3278 15.2715 29.6279 14.7783 29.7384 14.2287C29.795 13.8982 29.7787 13.5593 29.6905 13.2358C29.6024 12.9123 29.4446 12.6119 29.2282 12.3558C29.0117 12.0997 28.742 11.8939 28.4377 11.753C28.1334 11.6121 27.802 11.5394 27.4667 11.54H4.39265C3.37523 11.54 2.3993 11.9436 1.67906 12.6622C0.958821 13.3809 0.553066 14.3558 0.550781 15.3733V25.7543C0.553825 26.6629 0.916904 27.5333 1.56048 28.1747C2.20406 28.8161 3.07563 29.1763 3.98427 29.1763L5.66078 47.4365L12.9936 47.448Z" fill="#05B8C3" stroke="#05B8C3" stroke-width="2" stroke-linecap="round" stroke-linejoin="round"/>
<path d="M12.9936 47.448L15.8693 16.1468H27.3459C27.9064 16.1585 28.453 15.9728 28.8904 15.6221C29.3278 15.2715 29.6279 14.7783 29.7384 14.2287C29.795 13.8982 29.7787 13.5593 29.6905 13.2358C29.6024 12.9123 29.4446 12.6119 29.2282 12.3558C29.0117 12.0997 28.742 11.8939 28.4377 11.753C28.1334 11.6121 27.802 11.5394 27.4667 11.54H4.39265C3.37523 11.54 2.3993 11.9436 1.67906 12.6622C0.958821 13.3809 0.553066 14.3558 0.550781 15.3733V25.7543C0.553825 26.6629 0.916904 27.5333 1.56048 28.1747C2.20406 28.8161 3.07563 29.1763 3.98427 29.1763L5.66078 47.4365" stroke="#68326F" stroke-width="2" stroke-linecap="round" stroke-linejoin="round"/>
<path d="M24.3633 20.2305V31.1924" stroke="#68326F" stroke-width="2" stroke-linecap="round" stroke-linejoin="round"/>
<path d="M30.1328 20.2305V31.1924" stroke="#68326F" stroke-width="2" stroke-linecap="round" stroke-linejoin="round"/>
<path d="M40.7382 20.2305H36.8418C36.324 20.2305 35.9043 20.6502 35.9043 21.1679V30.2549C35.9043 30.7727 36.324 31.1924 36.8418 31.1924H40.7382C41.256 31.1924 41.6757 30.7727 41.6757 30.2549V21.1679C41.6757 20.6502 41.256 20.2305 40.7382 20.2305Z" stroke="#68326F" stroke-width="2" stroke-linecap="round" stroke-linejoin="round"/>
<path d="M47.4492 20.2305V31.1924" stroke="#68326F" stroke-width="2" stroke-linecap="round" stroke-linejoin="round"/>
<path d="M24.3633 36.4863V47.4482" stroke="#68326F" stroke-width="2" stroke-linecap="round" stroke-linejoin="round"/>
<path d="M34.9667 36.4863H31.0703C30.5525 36.4863 30.1328 36.906 30.1328 37.4238V46.5108C30.1328 47.0285 30.5525 47.4482 31.0703 47.4482H34.9667C35.4845 47.4482 35.9042 47.0285 35.9042 46.5108V37.4238C35.9042 36.906 35.4845 36.4863 34.9667 36.4863Z" stroke="#68326F" stroke-width="2" stroke-linecap="round" stroke-linejoin="round"/>
<path d="M46.5097 36.4863H42.6132C42.0955 36.4863 41.6758 36.906 41.6758 37.4238V46.5108C41.6758 47.0285 42.0955 47.4482 42.6132 47.4482H46.5097C47.0275 47.4482 47.4472 47.0285 47.4472 46.5108V37.4238C47.4472 36.906 47.0275 36.4863 46.5097 36.4863Z" stroke="#68326F" stroke-width="2" stroke-linecap="round" stroke-linejoin="round"/>
</g>
<defs>
<clipPath id="clip0_17_6376">
<rect width="48" height="48" fill="white"/>
</clipPath>
</defs>
</svg>
