<svg width="64" height="64" viewBox="0 0 64 64" fill="none" xmlns="http://www.w3.org/2000/svg">
<g clip-path="url(#clip0_17_8375)">
<path d="M44.0347 16.4623H30.3555V13.5966H41.1459V8.11816H44.0347V16.4623Z" fill="white"/>
<path d="M49.0306 25.2278H30.3555V22.3622H47.7051L52.5413 16.791L54.7299 18.6621L49.0306 25.2278Z" fill="white"/>
<path d="M56.3545 30.6221H30.3555V33.4877H56.3545V30.6221Z" fill="white"/>
<path d="M53.1683 47.4381L47.2956 42.0844H30.3555V39.2188H48.4205L55.1225 45.3276L53.1683 47.4381Z" fill="white"/>
<path d="M44.0347 57.0028H41.1459V50.6816H30.3555V47.8159H44.0347V57.0028Z" fill="white"/>
<path d="M8.26388 34.0775C8.34715 34.0522 9.62331 33.7016 10.6429 34.5832C10.7281 34.6563 10.8082 34.7351 10.8825 34.8192C11.0382 35.0032 11.1495 35.22 11.2078 35.4532C11.2662 35.6864 11.2699 35.9297 11.219 36.1646C11.168 36.3994 11.0635 36.6196 10.9136 36.8083C10.7637 36.997 10.5723 37.1492 10.354 37.2533C8.90962 37.9613 6.5629 39.4969 5.54503 42.3373C4.15502 46.2143 5.82201 50.9241 9.79323 53.6313C10.8213 50.7319 13.2887 48.5911 16.2505 48.0686C19.367 47.5174 21.7426 48.7007 23.5217 51.2562C24.071 52.0174 24.3566 52.9348 24.3357 53.8706C24.2966 54.7944 23.938 55.5563 23.2175 55.8227C23.1768 55.8378 23.1343 55.8513 23.0935 55.8631C22.8456 55.9278 22.587 55.9414 22.3336 55.9032C22.0801 55.865 21.8373 55.7757 21.62 55.6408C21.4027 55.5059 21.2155 55.3284 21.07 55.119C20.9245 54.9097 20.8238 54.673 20.774 54.4236C20.6463 53.8162 20.3436 53.2587 19.9025 52.8188C19.4615 52.3789 18.9012 52.0756 18.2896 51.9456C17.9343 51.8745 17.5691 51.8653 17.2106 51.9186C15.7492 52.1344 14.6838 53.3886 14.5852 54.85C14.4584 56.3624 14.7515 57.8804 15.4327 59.2392C16.1139 60.5981 17.1572 61.7459 18.4494 62.5583C19.7416 63.3707 21.2334 63.8165 22.7629 63.8475C24.2925 63.8784 25.8014 63.4933 27.1259 62.7339V1.54396C25.7818 0.505583 24.5685 0.26115 23.8973 0.195409C20.8589 -0.106327 17.6575 2.10192 15.9106 5.75814C12.332 5.61486 8.94359 7.03251 7.41424 9.6352C5.22387 13.3437 6.8348 19.4121 12.1451 22.5626C13.1646 23.1678 13.3481 24.609 12.456 25.3878L12.3422 25.4805C11.9863 25.7429 11.5517 25.8784 11.1085 25.8652C10.6654 25.8521 10.2397 25.691 9.90031 25.408C9.77381 25.3063 9.64161 25.2118 9.50436 25.1249C6.89102 23.4049 4.86007 20.9444 3.67582 18.0636C2.72535 18.5307 1.90759 19.2261 1.29683 20.0864C-0.490813 22.6503 -0.116971 26.5594 2.14647 30.0319C1.26999 31.5262 0.75272 33.2009 0.634833 34.9258C0.516946 36.6507 0.801617 38.3793 1.46676 39.9773C3.04646 37.3471 5.4262 35.2815 8.26388 34.0775Z" fill="white"/>
<path d="M22.8989 64.0003C21.2959 64.0035 19.7249 63.5551 18.3686 62.7074C17.0549 61.872 15.9937 60.6994 15.2975 59.314C14.6013 57.9287 14.2962 56.3822 14.4144 54.8386C14.5214 53.2727 15.6855 51.973 17.1842 51.7522C17.5625 51.6951 17.9479 51.7048 18.3227 51.7809C18.9678 51.9154 19.5593 52.2341 20.0242 52.6977C20.4891 53.1613 20.8073 53.7496 20.9396 54.3903C20.9904 54.6252 21.089 54.8474 21.2296 55.0431C21.3702 55.2388 21.5496 55.4039 21.757 55.5281C21.9481 55.6434 22.1614 55.7179 22.3831 55.7469C22.6049 55.7759 22.8303 55.7588 23.045 55.6967L23.1589 55.6613C23.7587 55.4421 24.1258 54.7864 24.1649 53.861C24.1868 52.9614 23.9117 52.0794 23.3815 51.3493C21.5565 48.7298 19.2335 47.7083 16.2785 48.2308C13.3897 48.7365 10.9648 50.8318 9.95207 53.684L9.87902 53.8913L9.69548 53.7666C5.70727 51.0476 3.93494 46.3226 5.38443 42.277C6.43458 39.3456 8.90025 37.7746 10.2767 37.0986C10.4771 37.0015 10.6521 36.8596 10.788 36.6842C10.9239 36.5087 11.017 36.3044 11.06 36.0872C11.1024 35.8835 11.0967 35.6728 11.0433 35.4716C10.99 35.2704 10.8904 35.0841 10.7524 34.9275C10.6834 34.8489 10.6091 34.7751 10.5299 34.7067C9.59865 33.9043 8.44144 34.2009 8.32079 34.233C5.52093 35.4249 3.17274 37.4646 1.61203 40.0604L1.44211 40.3486L1.31296 40.0384C0.644925 38.4326 0.355208 36.6966 0.465932 34.9629C0.576657 33.2292 1.0849 31.5434 1.95189 30.034C-0.320048 26.4941 -0.63274 22.5597 1.1617 19.9873C1.78945 19.1056 2.62789 18.392 3.60188 17.9106L3.77181 17.8263L3.84317 17.9949C5.0136 20.8448 7.02213 23.279 9.60712 24.9803C9.74968 25.0703 9.88701 25.1682 10.0184 25.2736C10.3289 25.5312 10.7176 25.6779 11.1222 25.6901C11.5268 25.7024 11.9238 25.5794 12.2495 25.341C12.285 25.3148 12.319 25.2867 12.3515 25.2568C12.5345 25.0967 12.6763 24.8955 12.765 24.67C12.8537 24.4445 12.8867 24.2012 12.8613 23.9605C12.8377 23.7034 12.7534 23.4554 12.6152 23.2366C12.4771 23.0179 12.2889 22.8345 12.066 22.7013C9.54598 21.2095 7.68014 18.9557 6.81351 16.3598C5.99615 13.9122 6.16438 11.4292 7.27571 9.54459C8.76768 7.01608 12.1102 5.46695 15.8129 5.57989C17.5886 1.94726 20.836 -0.282889 23.9219 0.0171609C25.1378 0.153742 26.2886 0.634137 27.2372 1.40111L27.3034 1.45167V62.8338L27.2168 62.881C25.8975 63.6138 24.4109 63.9991 22.8989 64.0003ZM17.6719 52.0455C17.5252 52.0458 17.3786 52.0571 17.2335 52.0792C15.8928 52.2781 14.8545 53.4446 14.7525 54.8555C14.6287 56.3292 14.9119 57.8086 15.5716 59.1347C16.2313 60.4609 17.2427 61.5837 18.4971 62.3827C19.7515 63.1818 21.2016 63.6268 22.6917 63.67C24.1819 63.7133 25.6557 63.3531 26.9551 62.6282V1.62699C26.0697 0.927789 25.0038 0.489694 23.8794 0.362732C20.9073 0.0677393 17.762 2.26585 16.0627 5.83105L16.0151 5.93052H15.903C12.2801 5.78555 9.0039 7.27906 7.55952 9.72329C6.49916 11.5236 6.34113 13.9071 7.12789 16.262C7.96904 18.7905 9.78217 20.9701 12.2257 22.4215C12.4944 22.5818 12.7213 22.8028 12.8878 23.0663C13.0543 23.3299 13.1558 23.6288 13.1841 23.9386C13.2146 24.2323 13.1739 24.5291 13.0655 24.8041C12.957 25.0791 12.7839 25.3245 12.5605 25.5197C12.5197 25.5534 12.4789 25.5872 12.4364 25.6192C12.0491 25.9031 11.5768 26.0496 11.0955 26.0352C10.6141 26.0209 10.1516 25.8464 9.78215 25.54C9.6651 25.4458 9.54255 25.3585 9.41512 25.2787C6.8213 23.5738 4.79253 21.1473 3.58317 18.3034C2.72592 18.7545 1.98779 19.3996 1.4285 20.1863C-0.301369 22.6676 0.0333893 26.4974 2.27814 29.9429L2.33423 30.0306L2.28154 30.1199C1.44709 31.5432 0.94302 33.1331 0.806037 34.7739C0.669055 36.4147 0.902625 38.0652 1.48969 39.6052C3.08611 37.0792 5.42279 35.0976 8.18654 33.9262H8.20351C8.26128 33.9093 9.63943 33.5166 10.7423 34.4656C10.8336 34.5439 10.9194 34.6283 10.9989 34.7184C11.171 34.9141 11.2952 35.1467 11.3618 35.3978C11.4284 35.649 11.4357 35.9121 11.3829 36.1665C11.3305 36.4344 11.2161 36.6865 11.0486 36.903C10.881 37.1195 10.665 37.2944 10.4177 37.4138C9.08714 38.0679 6.70478 39.585 5.69371 42.4035C4.31729 46.2451 5.96386 50.7273 9.69888 53.3772C10.7932 50.5115 13.2674 48.4314 16.2088 47.9122C19.2675 47.3728 21.7689 48.4685 23.65 51.1706C24.2247 51.9601 24.5231 52.9144 24.4996 53.8879C24.4555 54.9567 24.0068 55.7236 23.2694 55.9917L23.1351 56.0355C22.8752 56.1098 22.6027 56.1296 22.3347 56.0936C22.0667 56.0576 21.8092 55.9666 21.5786 55.8265C21.3317 55.6796 21.1176 55.4842 20.9496 55.2523C20.7816 55.0204 20.6631 54.7569 20.6015 54.4779C20.483 53.9017 20.1972 53.3724 19.7794 52.9552C19.3615 52.538 18.8298 52.2511 18.2497 52.1298C18.0604 52.0826 17.8669 52.0544 17.6719 52.0455Z" fill="white"/>
<path d="M14.2288 44.1968L13.1719 40.8153C14.6887 40.3516 16.0664 39.523 17.1822 38.4031C19.4915 36.0566 19.8551 33.1303 19.901 31.979L23.4695 32.129C23.4032 33.6866 22.907 37.6564 19.7311 40.876C18.2024 42.4177 16.3117 43.5587 14.2288 44.1968Z" fill="white"/>
<path d="M22.038 28.176L18.619 27.1646C18.8484 26.401 19.8697 22.4009 17.4669 18.6789C15.5722 15.7459 12.68 14.6906 11.5194 14.3737L12.471 10.9619C14.0225 11.3884 17.9087 12.806 20.4576 16.7691C23.6336 21.6659 22.4696 26.7381 22.038 28.176Z" fill="white"/>
<path d="M18.4292 17.3457L16.4512 14.3991C17.0593 14.0014 17.5796 13.4853 17.9805 12.882C19.2822 10.9081 18.786 8.57849 18.6025 7.91096L22.0452 6.98047C22.4072 8.29698 23.0257 11.7004 20.9679 14.8205C20.3021 15.8236 19.4386 16.6826 18.4292 17.3457Z" fill="white"/>
<path d="M42.7599 8.96113C44.9184 8.96113 46.6683 7.22532 46.6683 5.08408C46.6683 2.94285 44.9184 1.20703 42.7599 1.20703C40.6014 1.20703 38.8516 2.94285 38.8516 5.08408C38.8516 7.22532 40.6014 8.96113 42.7599 8.96113Z" fill="white"/>
<path d="M42.7599 9.12982C41.9533 9.12982 41.1648 8.89254 40.4941 8.448C39.8235 8.00346 39.3008 7.37162 38.9921 6.63238C38.6834 5.89314 38.6026 5.0797 38.76 4.29493C38.9174 3.51016 39.3058 2.78931 39.8762 2.22352C40.4465 1.65773 41.1732 1.27241 41.9643 1.11631C42.7554 0.960206 43.5754 1.04034 44.3206 1.34654C45.0658 1.65275 45.7028 2.17127 46.1509 2.83657C46.599 3.50187 46.8382 4.28406 46.8382 5.08421C46.8382 6.15717 46.4085 7.18619 45.6437 7.94489C44.8789 8.70359 43.8415 9.12982 42.7599 9.12982ZM42.7599 1.37572C42.0205 1.37572 41.2978 1.59322 40.683 2.00071C40.0682 2.4082 39.589 2.98739 39.306 3.66502C39.0231 4.34266 38.9491 5.08832 39.0933 5.8077C39.2376 6.52707 39.5936 7.18785 40.1164 7.70649C40.6393 8.22513 41.3054 8.57834 42.0306 8.72143C42.7558 8.86452 43.5074 8.79108 44.1905 8.51039C44.8736 8.22971 45.4575 7.75438 45.8683 7.14453C46.2791 6.53467 46.4983 5.81767 46.4983 5.08421C46.4983 4.10065 46.1045 3.15738 45.4034 2.4619C44.7023 1.76643 43.7514 1.37572 42.7599 1.37572Z" fill="white"/>
<path d="M55.674 19.5808C57.8325 19.5808 59.5823 17.8449 59.5823 15.7037C59.5823 13.5625 57.8325 11.8267 55.674 11.8267C53.5155 11.8267 51.7656 13.5625 51.7656 15.7037C51.7656 17.8449 53.5155 19.5808 55.674 19.5808Z" fill="white"/>
<path d="M55.674 19.7495C54.8674 19.7495 54.0789 19.5122 53.4082 19.0676C52.7375 18.6231 52.2148 17.9913 51.9061 17.252C51.5975 16.5128 51.5167 15.6993 51.6741 14.9146C51.8314 14.1298 52.2199 13.4089 52.7902 12.8431C53.3606 12.2774 54.0872 11.892 54.8783 11.7359C55.6695 11.5798 56.4894 11.66 57.2346 11.9662C57.9799 12.2724 58.6168 12.7909 59.0649 13.4562C59.5131 14.1215 59.7522 14.9037 59.7522 15.7038C59.7522 16.7768 59.3226 17.8058 58.5578 18.5645C57.7929 19.3232 56.7556 19.7495 55.674 19.7495ZM55.674 11.9954C54.9346 11.9954 54.2118 12.2128 53.597 12.6203C52.9823 13.0278 52.5031 13.607 52.2201 14.2847C51.9372 14.9623 51.8632 15.7079 52.0074 16.4273C52.1517 17.1467 52.5077 17.8075 53.0305 18.3261C53.5533 18.8448 54.2195 19.198 54.9446 19.3411C55.6698 19.4842 56.4215 19.4107 57.1046 19.13C57.7877 18.8493 58.3716 18.374 58.7823 17.7642C59.1931 17.1543 59.4124 16.4373 59.4124 15.7038C59.4124 14.7203 59.0185 13.777 58.3174 13.0815C57.6164 12.3861 56.6655 11.9954 55.674 11.9954Z" fill="white"/>
<path d="M59.922 35.9318C62.0805 35.9318 63.8304 34.196 63.8304 32.0548C63.8304 29.9135 62.0805 28.1777 59.922 28.1777C57.7635 28.1777 56.0137 29.9135 56.0137 32.0548C56.0137 34.196 57.7635 35.9318 59.922 35.9318Z" fill="white"/>
<path d="M59.922 36.1C59.1154 36.1 58.3269 35.8628 57.6562 35.4182C56.9856 34.9737 56.4629 34.3418 56.1542 33.6026C55.8455 32.8634 55.7648 32.0499 55.9221 31.2651C56.0795 30.4804 56.4679 29.7595 57.0383 29.1937C57.6086 28.6279 58.3353 28.2426 59.1264 28.0865C59.9175 27.9304 60.7375 28.0106 61.4827 28.3168C62.2279 28.623 62.8649 29.1415 63.313 29.8068C63.7611 30.4721 64.0003 31.2543 64.0003 32.0544C64.0003 33.1274 63.5706 34.1564 62.8058 34.9151C62.041 35.6738 61.0036 36.1 59.922 36.1ZM59.922 28.3459C59.1826 28.3459 58.4599 28.5634 57.8451 28.9709C57.2303 29.3784 56.7511 29.9576 56.4682 30.6352C56.1852 31.3129 56.1112 32.0585 56.2555 32.7779C56.3997 33.4973 56.7557 34.1581 57.2786 34.6767C57.8014 35.1953 58.4675 35.5486 59.1927 35.6916C59.9179 35.8347 60.6695 35.7613 61.3526 35.4806C62.0357 35.1999 62.6196 34.7246 63.0304 34.1147C63.4412 33.5049 63.6604 32.7879 63.6604 32.0544C63.6604 31.0709 63.2666 30.1276 62.5655 29.4321C61.8644 28.7366 60.9135 28.3459 59.922 28.3459Z" fill="white"/>
<path d="M56.5236 52.1145C58.6821 52.1145 60.4319 50.3786 60.4319 48.2374C60.4319 46.0962 58.6821 44.3604 56.5236 44.3604C54.3651 44.3604 52.6152 46.0962 52.6152 48.2374C52.6152 50.3786 54.3651 52.1145 56.5236 52.1145Z" fill="white"/>
<path d="M56.5236 52.2827C55.717 52.2827 54.9285 52.0454 54.2578 51.6008C53.5871 51.1563 53.0644 50.5245 52.7558 49.7852C52.4471 49.046 52.3663 48.2325 52.5237 47.4478C52.681 46.663 53.0695 45.9421 53.6398 45.3764C54.2102 44.8106 54.9369 44.4252 55.728 44.2691C56.5191 44.113 57.3391 44.1932 58.0843 44.4994C58.8295 44.8056 59.4664 45.3241 59.9146 45.9894C60.3627 46.6547 60.6019 47.4369 60.6019 48.237C60.6019 49.31 60.1722 50.339 59.4074 51.0977C58.6426 51.8564 57.6052 52.2827 56.5236 52.2827ZM56.5236 44.5286C55.7842 44.5286 55.0614 44.746 54.4467 45.1535C53.8319 45.561 53.3527 46.1402 53.0697 46.8179C52.7868 47.4955 52.7128 48.2412 52.857 48.9605C53.0013 49.6799 53.3573 50.3407 53.8801 50.8593C54.4029 51.378 55.0691 51.7312 55.7943 51.8743C56.5194 52.0174 57.2711 51.9439 57.9542 51.6632C58.6373 51.3825 59.2212 50.9072 59.6319 50.2974C60.0427 49.6875 60.262 48.9705 60.262 48.237C60.262 47.2535 59.8681 46.3102 59.1671 45.6147C58.466 44.9193 57.5151 44.5286 56.5236 44.5286Z" fill="white"/>
<path d="M42.59 63.2399C44.7485 63.2399 46.4983 61.5041 46.4983 59.3629C46.4983 57.2217 44.7485 55.4858 42.59 55.4858C40.4315 55.4858 38.6816 57.2217 38.6816 59.3629C38.6816 61.5041 40.4315 63.2399 42.59 63.2399Z" fill="white"/>
<path d="M42.59 63.4081C41.7834 63.4081 40.9949 63.1709 40.3242 62.7263C39.6535 62.2818 39.1308 61.6499 38.8222 60.9107C38.5135 60.1715 38.4327 59.358 38.5901 58.5733C38.7474 57.7885 39.1359 57.0676 39.7062 56.5018C40.2766 55.936 41.0033 55.5507 41.7944 55.3946C42.5855 55.2385 43.4055 55.3187 44.1507 55.6249C44.8959 55.9311 45.5328 56.4496 45.981 57.1149C46.4291 57.7802 46.6683 58.5624 46.6683 59.3625C46.6683 60.4355 46.2386 61.4645 45.4738 62.2232C44.709 62.9819 43.6716 63.4081 42.59 63.4081ZM42.59 55.654C41.8506 55.654 41.1278 55.8715 40.5131 56.279C39.8983 56.6865 39.4191 57.2657 39.1361 57.9433C38.8532 58.621 38.7792 59.3666 38.9234 60.086C39.0677 60.8054 39.4237 61.4662 39.9465 61.9848C40.4693 62.5034 41.1355 62.8567 41.8607 62.9998C42.5858 63.1428 43.3375 63.0694 44.0206 62.7887C44.7037 62.508 45.2876 62.0327 45.6984 61.4228C46.1091 60.813 46.3284 60.096 46.3284 59.3625C46.3284 58.379 45.9345 57.4357 45.2335 56.7402C44.5324 56.0447 43.5815 55.654 42.59 55.654Z" fill="white"/>
</g>
<defs>
<clipPath id="clip0_17_8375">
<rect width="64" height="64" fill="white"/>
</clipPath>
</defs>
</svg>
