<svg width="50" height="50" viewBox="0 0 50 50" fill="none" xmlns="http://www.w3.org/2000/svg">
<path d="M16.0508 36.3911V13.5879" stroke="#68326F" stroke-width="2" stroke-linecap="round" stroke-linejoin="round"/>
<path d="M9.97852 36.3911V13.6401" stroke="#68326F" stroke-width="2" stroke-linecap="round" stroke-linejoin="round"/>
<path d="M3.90234 36.3914V19.7573" stroke="#68326F" stroke-width="2" stroke-linecap="round" stroke-linejoin="round"/>
<path d="M28.1992 36.3915V7.5498" stroke="#68326F" stroke-width="2" stroke-linecap="round" stroke-linejoin="round"/>
<path d="M22.125 36.3911V13.5879" stroke="#68326F" stroke-width="2" stroke-linecap="round" stroke-linejoin="round"/>
<path d="M1 22.6792L13.0192 10.5761L19.0888 16.6058L30.8858 4.88037" stroke="white" stroke-width="2" stroke-linecap="round" stroke-linejoin="round"/>
<path d="M1.66016 22.014L13.0186 10.5761L19.0882 16.6058L30.8852 4.88037" stroke="#68326F" stroke-width="2" stroke-linecap="round" stroke-linejoin="round"/>
<path d="M27.3457 1H34.5263V8.13345" stroke="#68326F" stroke-width="2" stroke-linecap="round" stroke-linejoin="round"/>
<path d="M48.1682 44.1843L42.9056 38.9562C44.0403 37.0138 44.5526 34.7741 44.3745 32.5353C44.1964 30.2965 43.3363 28.1646 41.9086 26.4233L41.7069 26.188C41.5257 25.976 41.3678 25.7494 41.166 25.549C40.1303 24.5182 38.8998 23.7009 37.545 23.1441C36.1903 22.5873 34.7382 22.3021 33.2721 22.3047C33.1025 22.3047 32.9417 22.3221 32.7751 22.3308C32.6084 22.3396 32.4008 22.3308 32.2137 22.357C31.8717 22.3889 31.5384 22.4412 31.2051 22.5022H31.1671C28.9861 22.9207 26.981 23.978 25.4101 25.5381C23.8391 27.0983 22.7741 29.0898 22.3522 31.2564C22.3522 31.2796 22.3522 31.2999 22.3522 31.3232C22.2937 31.6456 22.2411 31.968 22.2118 32.2991C22.1914 32.4966 22.1885 32.6941 22.1797 32.88C22.1709 33.0659 22.1563 33.1879 22.1563 33.3418V33.3563C22.1532 34.8131 22.4405 36.2561 23.0015 37.602C23.5625 38.948 24.3861 40.1703 25.425 41.1985C25.6092 41.3815 25.8197 41.5238 26.0097 41.6922C26.1179 41.7823 26.2231 41.8752 26.3342 41.9624C28.0853 43.3681 30.2243 44.2131 32.4689 44.3858C34.7135 44.5584 36.958 44.0507 38.906 42.9296L44.1686 48.1577C44.7041 48.6756 45.4233 48.9631 46.1706 48.9581C46.9179 48.953 47.6331 48.6557 48.1614 48.1305C48.6896 47.6054 48.9883 46.8946 48.9929 46.1522C48.9975 45.4098 48.7075 44.6955 48.1858 44.164L48.1682 44.1843Z" fill="white" stroke="white" stroke-width="2" stroke-linecap="round" stroke-linejoin="round"/>
<path d="M48.188 44.2042L42.9254 38.9761C44.2894 36.6487 44.7537 33.9076 44.2316 31.2649C43.7095 28.6222 42.2367 26.2587 40.0884 24.6161C37.94 22.9736 35.2632 22.1642 32.558 22.3394C29.8529 22.5146 27.3045 23.6622 25.389 25.5679C23.4735 27.4737 22.3219 30.007 22.1495 32.6947C21.9772 35.3824 22.7957 38.0405 24.4523 40.1723C26.1088 42.3041 28.49 43.7638 31.1509 44.2787C33.8118 44.7935 36.5704 44.3283 38.9112 42.9698L44.1738 48.1979C44.7088 48.7162 45.4279 49.0043 46.1752 48.9998C46.9225 48.9952 47.6379 48.6984 48.1665 48.1737C48.6951 47.6489 48.9944 46.9384 48.9995 46.196C49.0046 45.4536 48.7152 44.7391 48.1938 44.2072L48.188 44.2042ZM33.2772 39.2201C32.1102 39.2207 30.9692 38.8774 29.9986 38.2337C29.028 37.59 28.2713 36.6748 27.8243 35.6039C27.3773 34.5329 27.26 33.3543 27.4874 32.2171C27.7147 31.08 28.2764 30.0353 29.1014 29.2153C29.9264 28.3953 30.9777 27.8368 32.1222 27.6104C33.2668 27.384 34.4532 27.4999 35.5315 27.9434C36.6097 28.387 37.5314 29.1382 38.1798 30.1022C38.8282 31.0661 39.1743 32.1995 39.1743 33.3588C39.1743 34.1288 39.0216 34.8912 38.7249 35.6025C38.4282 36.3138 37.9934 36.9601 37.4452 37.5044C36.897 38.0487 36.2463 38.4804 35.5301 38.7748C34.814 39.0692 34.0464 39.2205 33.2714 39.2201H33.2772Z" fill="#05B8C3" stroke="#05B8C3" stroke-width="2" stroke-linecap="round" stroke-linejoin="round"/>
</svg>
