<svg width="48" height="48" viewBox="0 0 48 48" fill="none" xmlns="http://www.w3.org/2000/svg">
<g clip-path="url(#clip0_17_6404)">
<path fill-rule="evenodd" clip-rule="evenodd" d="M41.125 3.58575V7.17117H48.0046V3.58575C48.0046 2.63423 47.6422 1.72168 46.9971 1.04886C46.352 0.376035 45.4771 -0.00195312 44.5648 -0.00195312C43.6525 -0.00195312 42.7776 0.376035 42.1325 1.04886C41.4874 1.72168 41.125 2.63423 41.125 3.58575Z" fill="#68326F"/>
<path fill-rule="evenodd" clip-rule="evenodd" d="M31.303 8.20145L34.1029 5.28232C34.2213 5.16217 34.3803 5.09547 34.5455 5.09662C34.7108 5.09778 34.869 5.16669 34.9859 5.28848C35.1028 5.41026 35.169 5.57513 35.1704 5.74746C35.1717 5.91978 35.1079 6.08573 34.9929 6.20942L31.7474 9.59325C31.6891 9.6542 31.6198 9.70256 31.5436 9.73556C31.4673 9.76855 31.3855 9.78554 31.303 9.78554C31.2204 9.78554 31.1387 9.76855 31.0624 9.73556C30.9861 9.70256 30.9169 9.6542 30.8586 9.59325L29.4324 8.10578C29.3703 8.04579 29.3205 7.97336 29.2859 7.89283C29.2513 7.81229 29.2327 7.7253 29.2311 7.63707C29.2294 7.54884 29.245 7.46117 29.2766 7.37933C29.3082 7.29748 29.3553 7.22313 29.4152 7.16073C29.475 7.09833 29.5463 7.04916 29.6248 7.01616C29.7032 6.98317 29.7873 6.96702 29.8719 6.9687C29.9565 6.97037 30.0399 6.98983 30.1171 7.02591C30.1943 7.06199 30.2637 7.11395 30.3212 7.17867L31.304 8.20373L31.303 8.20145ZM34.9448 10.206C35.7594 8.83926 36.0914 6.99075 35.956 4.56478C34.401 4.1297 32.9726 3.42582 31.85 2.55566C30.7275 3.43038 29.2992 4.1297 27.7442 4.56478C27.6088 6.99075 27.9418 8.83926 28.7553 10.206C29.4105 11.3051 30.3933 12.1206 31.85 12.7595C33.3035 12.116 34.2918 11.3051 34.9448 10.206Z" fill="#68326F"/>
<path fill-rule="evenodd" clip-rule="evenodd" d="M27.6868 10.8986C26.6746 9.19818 26.2935 6.93964 26.5217 3.99203C26.5326 3.85345 26.5854 3.72207 26.6726 3.61685C26.7597 3.51163 26.8767 3.438 27.0065 3.40661C28.7188 2.98975 30.3371 2.19248 31.4466 1.21868C31.5599 1.11888 31.7034 1.06412 31.8517 1.06412C32 1.06412 32.1436 1.11888 32.2569 1.21868C33.3653 2.19248 34.9869 2.98975 36.6958 3.40661C36.8257 3.43773 36.9427 3.5113 37.0297 3.6166C37.1168 3.7219 37.1693 3.85343 37.1796 3.99203C37.4089 6.93964 37.0267 9.19818 36.0145 10.8986C35.1758 12.3064 33.9266 13.3155 32.0833 14.0786C31.9344 14.1393 31.7691 14.1393 31.6202 14.0786C29.7758 13.3155 28.5266 12.3052 27.689 10.8986H27.6868ZM8.68602 6.47836H16.0723C16.1571 6.47468 16.2416 6.4889 16.321 6.52018C16.4003 6.55146 16.4727 6.59914 16.5339 6.66037C16.5951 6.7216 16.6438 6.79511 16.6771 6.87647C16.7104 6.95783 16.7275 7.04537 16.7275 7.13383C16.7275 7.22228 16.7104 7.30982 16.6771 7.39118C16.6438 7.47255 16.5951 7.54605 16.5339 7.60728C16.4727 7.66851 16.4003 7.71619 16.321 7.74747C16.2416 7.77875 16.1571 7.79298 16.0723 7.78929H8.68602C8.60128 7.79298 8.51671 7.77875 8.43738 7.74747C8.35806 7.71619 8.28562 7.66851 8.22442 7.60728C8.16322 7.54605 8.11452 7.47255 8.08126 7.39118C8.04799 7.30982 8.03084 7.22228 8.03084 7.13383C8.03084 7.04537 8.04799 6.95783 8.08126 6.87647C8.11452 6.79511 8.16322 6.7216 8.22442 6.66037C8.28562 6.59914 8.35806 6.55146 8.43738 6.52018C8.51671 6.4889 8.60128 6.47468 8.68602 6.47836ZM8.81052 9.64465H20.7461C20.9129 9.64465 21.0729 9.71376 21.1909 9.83679C21.3088 9.95983 21.3751 10.1267 21.3751 10.3007C21.3751 10.4747 21.3088 10.6415 21.1909 10.7646C21.0729 10.8876 20.9129 10.9567 20.7461 10.9567H8.81052C8.6437 10.9567 8.48371 10.8876 8.36575 10.7646C8.24779 10.6415 8.18152 10.4747 8.18152 10.3007C8.18152 10.1267 8.24779 9.95983 8.36575 9.83679C8.48371 9.71376 8.6437 9.64465 8.81052 9.64465ZM8.81052 12.8121C8.6437 12.8121 8.48371 12.8812 8.36575 13.0042C8.24779 13.1273 8.18152 13.2941 8.18152 13.4681C8.18152 13.6421 8.24779 13.809 8.36575 13.932C8.48371 14.055 8.6437 14.1241 8.81052 14.1241H25.6917C25.8586 14.1241 26.0186 14.055 26.1365 13.932C26.2545 13.809 26.3208 13.6421 26.3208 13.4681C26.3208 13.2941 26.2545 13.1273 26.1365 13.0042C26.0186 12.8812 25.8586 12.8121 25.6917 12.8121H8.81052ZM17.992 17.2323H29.5138C29.6806 17.2323 29.8406 17.3015 29.9585 17.4245C30.0765 17.5475 30.1428 17.7144 30.1428 17.8884C30.1428 18.0624 30.0765 18.2292 29.9585 18.3523C29.8406 18.4753 29.6806 18.5444 29.5138 18.5444H17.9975C17.8307 18.5444 17.6707 18.4753 17.5527 18.3523C17.4348 18.2292 17.3685 18.0624 17.3685 17.8884C17.3685 17.7144 17.4348 17.5475 17.5527 17.4245C17.6707 17.3015 17.8307 17.2323 17.9975 17.2323H17.992ZM17.992 20.1936H34.8755C34.9581 20.1936 35.0399 20.2106 35.1162 20.2436C35.1925 20.2765 35.2618 20.3249 35.3202 20.3858C35.3786 20.4467 35.425 20.519 35.4566 20.5986C35.4882 20.6782 35.5045 20.7635 35.5045 20.8497C35.5045 20.9358 35.4882 21.0211 35.4566 21.1007C35.425 21.1803 35.3786 21.2526 35.3202 21.3135C35.2618 21.3745 35.1925 21.4228 35.1162 21.4558C35.0399 21.4887 34.9581 21.5057 34.8755 21.5057H17.9975C17.8307 21.5057 17.6707 21.4366 17.5527 21.3135C17.4348 21.1905 17.3685 21.0236 17.3685 20.8497C17.3685 20.6757 17.4348 20.5088 17.5527 20.3858C17.6707 20.2627 17.8307 20.1936 17.9975 20.1936H17.992ZM17.992 24.5934H29.5138C29.6806 24.5934 29.8406 24.6625 29.9585 24.7855C30.0765 24.9086 30.1428 25.0754 30.1428 25.2494C30.1428 25.4234 30.0765 25.5903 29.9585 25.7133C29.8406 25.8363 29.6806 25.9055 29.5138 25.9055H17.9975C17.8307 25.9055 17.6707 25.8363 17.5527 25.7133C17.4348 25.5903 17.3685 25.4234 17.3685 25.2494C17.3685 25.0754 17.4348 24.9086 17.5527 24.7855C17.6707 24.6625 17.8307 24.5934 17.9975 24.5934H17.992ZM17.992 27.5547H34.8755C34.9602 27.551 35.0448 27.5652 35.1241 27.5965C35.2034 27.6278 35.2759 27.6755 35.3371 27.7367C35.3983 27.7979 35.447 27.8714 35.4802 27.9528C35.5135 28.0341 35.5307 28.1217 35.5307 28.2101C35.5307 28.2986 35.5135 28.3861 35.4802 28.4675C35.447 28.5489 35.3983 28.6224 35.3371 28.6836C35.2759 28.7448 35.2034 28.7925 35.1241 28.8238C35.0448 28.8551 34.9602 28.8693 34.8755 28.8656H17.9975C17.9128 28.8693 17.8282 28.8551 17.7489 28.8238C17.6696 28.7925 17.5971 28.7448 17.5359 28.6836C17.4747 28.6224 17.426 28.5489 17.3928 28.4675C17.3595 28.3861 17.3423 28.2986 17.3423 28.2101C17.3423 28.1217 17.3595 28.0341 17.3928 27.9528C17.426 27.8714 17.4747 27.7979 17.5359 27.7367C17.5971 27.6755 17.6696 27.6278 17.7489 27.5965C17.8282 27.5652 17.9128 27.551 17.9975 27.5547H17.992ZM17.992 34.9169H34.8755C35.0423 34.9169 35.2023 34.986 35.3202 35.109C35.4382 35.232 35.5045 35.3989 35.5045 35.5729C35.5045 35.7469 35.4382 35.9137 35.3202 36.0368C35.2023 36.1598 35.0423 36.2289 34.8755 36.2289H17.9975C17.8307 36.2289 17.6707 36.1598 17.5527 36.0368C17.4348 35.9137 17.3685 35.7469 17.3685 35.5729C17.3685 35.3989 17.4348 35.232 17.5527 35.109C17.6707 34.986 17.8307 34.9169 17.9975 34.9169H17.992ZM17.3685 32.6173C17.3685 32.4433 17.4348 32.2765 17.5527 32.1534C17.6707 32.0304 17.8307 31.9613 17.9975 31.9613H29.5138C29.5985 31.9576 29.6831 31.9718 29.7624 32.0031C29.8417 32.0344 29.9141 32.0821 29.9753 32.1433C30.0365 32.2045 30.0853 32.278 30.1186 32.3594C30.1518 32.4407 30.169 32.5283 30.169 32.6167C30.169 32.7052 30.1518 32.7927 30.1186 32.8741C30.0853 32.9555 30.0365 33.029 29.9753 33.0902C29.9141 33.1514 29.8417 33.1991 29.7624 33.2304C29.6831 33.2617 29.5985 33.2759 29.5138 33.2722H17.9975C17.915 33.2724 17.8332 33.2555 17.7569 33.2227C17.6806 33.1898 17.6112 33.1416 17.5528 33.0808C17.4944 33.02 17.448 32.9477 17.4164 32.8682C17.3848 32.7887 17.3685 32.7034 17.3685 32.6173ZM15.8168 31.5376C15.9344 31.6609 16.0003 31.8278 16.0003 32.0017C16.0003 32.1756 15.9344 32.3425 15.8168 32.4658L12.0821 36.3599C12.0238 36.4209 11.9545 36.4692 11.8783 36.5022C11.802 36.5352 11.7203 36.5522 11.6377 36.5522C11.5551 36.5522 11.4734 36.5352 11.3971 36.5022C11.3209 36.4692 11.2516 36.4209 11.1932 36.3599L9.06384 34.1389C9.00407 34.0783 8.95647 34.0059 8.92377 33.9259C8.89107 33.8459 8.87394 33.76 8.87338 33.673C8.87283 33.586 8.88885 33.4998 8.92052 33.4194C8.95219 33.339 8.99888 33.2659 9.05787 33.2044C9.11686 33.143 9.18698 33.0944 9.26414 33.0615C9.3413 33.0285 9.42396 33.0119 9.50734 33.0126C9.59071 33.0133 9.6731 33.0313 9.74976 33.0655C9.82641 33.0997 9.89579 33.1494 9.95384 33.2118L11.6377 34.9692L14.9279 31.5376C14.9862 31.4766 15.0555 31.4283 15.1318 31.3953C15.208 31.3623 15.2898 31.3453 15.3723 31.3453C15.4549 31.3453 15.5367 31.3623 15.6129 31.3953C15.6892 31.4283 15.7585 31.4766 15.8168 31.5376ZM15.8168 24.3622C15.9343 24.4853 16.0002 24.652 16.0002 24.8257C16.0002 24.9995 15.9343 25.1661 15.8168 25.2893L12.0821 29.1834C12.0238 29.2443 11.9545 29.2927 11.8783 29.3257C11.802 29.3587 11.7203 29.3757 11.6377 29.3757C11.5551 29.3757 11.4734 29.3587 11.3971 29.3257C11.3209 29.2927 11.2516 29.2443 11.1932 29.1834L9.06384 26.9636C9.00407 26.9029 8.95647 26.8305 8.92377 26.7505C8.89107 26.6705 8.87394 26.5846 8.87338 26.4976C8.87283 26.4106 8.88885 26.3244 8.92052 26.244C8.95219 26.1636 8.99888 26.0905 9.05787 26.029C9.11686 25.9676 9.18698 25.919 9.26414 25.8861C9.3413 25.8531 9.42396 25.8365 9.50734 25.8372C9.59071 25.8379 9.6731 25.8559 9.74976 25.8901C9.82641 25.9243 9.89579 25.974 9.95384 26.0364L11.6377 27.7927L14.9279 24.3622C14.9862 24.3012 15.0555 24.2529 15.1318 24.2199C15.208 24.1869 15.2898 24.1699 15.3723 24.1699C15.4549 24.1699 15.5367 24.1869 15.6129 24.2199C15.6892 24.2529 15.7585 24.3012 15.8168 24.3622ZM15.8168 17.1811C15.9344 17.3044 16.0003 17.4713 16.0003 17.6452C16.0003 17.8191 15.9344 17.986 15.8168 18.1093L12.0821 22.0034C12.0238 22.0644 11.9545 22.1127 11.8783 22.1457C11.802 22.1787 11.7203 22.1957 11.6377 22.1957C11.5551 22.1957 11.4734 22.1787 11.3971 22.1457C11.3209 22.1127 11.2516 22.0644 11.1932 22.0034L9.06384 19.7825C9.00407 19.7218 8.95647 19.6494 8.92377 19.5694C8.89107 19.4894 8.87394 19.4035 8.87338 19.3165C8.87283 19.2296 8.88885 19.1434 8.92052 19.0629C8.95219 18.9825 8.99888 18.9094 9.05787 18.848C9.11686 18.7865 9.18698 18.7379 9.26414 18.705C9.3413 18.672 9.42396 18.6554 9.50734 18.6561C9.59071 18.6568 9.6731 18.6748 9.74976 18.709C9.82641 18.7432 9.89579 18.7929 9.95384 18.8554L11.6377 20.6116L14.9279 17.1811C14.9862 17.1201 15.0555 17.0718 15.1318 17.0388C15.208 17.0058 15.2898 16.9888 15.3723 16.9888C15.4549 16.9888 15.5367 17.0058 15.6129 17.0388C15.6892 17.0718 15.7585 17.1201 15.8168 17.1811ZM39.866 44.4624V3.58542C39.8658 2.91202 39.9991 2.24585 40.2577 1.62881C40.5163 1.01177 40.8945 0.457213 41.3685 0H7.98496C7.12612 0.00120596 6.30281 0.35766 5.69562 0.991168C5.08843 1.62468 4.74696 2.48351 4.74609 3.37927V39.6093H32.4502C32.617 39.6093 32.7769 39.6785 32.8949 39.8015C33.0129 39.9245 33.0791 40.0914 33.0791 40.2654V44.4624C33.0951 45.3901 33.4596 46.2742 34.0943 46.9243C34.7289 47.5745 35.583 47.9388 36.4725 47.9388C37.3621 47.9388 38.2161 47.5745 38.8508 46.9243C39.4854 46.2742 39.85 45.3901 39.866 44.4624Z" fill="#05B8C3"/>
<path fill-rule="evenodd" clip-rule="evenodd" d="M31.8187 40.9219H0V44.4629C0.00115635 45.4012 0.359117 46.3008 0.995385 46.9642C1.63165 47.6276 2.49425 48.0007 3.39392 48.0016H33.2973C32.8313 47.5491 32.4595 47.0014 32.2052 46.3926C31.9508 45.7838 31.8193 45.127 31.8187 44.4629V40.9219Z" fill="#68326F"/>
</g>
<defs>
<clipPath id="clip0_17_6404">
<rect width="48" height="48" fill="white"/>
</clipPath>
</defs>
</svg>
