<svg width="48" height="48" viewBox="0 0 48 48" fill="none" xmlns="http://www.w3.org/2000/svg">
<g clip-path="url(#clip0_17_6310)">
<path fill-rule="evenodd" clip-rule="evenodd" d="M16.498 8.8536H31.5004C31.9202 8.85388 32.3228 9.01794 32.6196 9.30975C32.9165 9.60156 33.0834 9.99725 33.0836 10.4099V18.9661H34.5591C36.0719 18.9676 37.5263 18.3927 38.617 17.3622C39.7077 16.3318 40.3497 14.9259 40.4082 13.44C40.4667 11.954 39.9371 10.5036 38.9308 9.39333C37.9244 8.28308 36.5195 7.5994 35.0112 7.48591C34.8535 7.47324 34.7061 7.40356 34.5976 7.29033C34.4891 7.17709 34.4272 7.02834 34.4237 6.87281C34.382 5.33546 33.7335 3.87437 32.6155 2.7986C31.4975 1.72284 29.9976 1.11678 28.4332 1.10862C27.6478 1.10655 26.8698 1.25726 26.144 1.55207C25.4181 1.84687 24.7588 2.27995 24.2039 2.82635C24.1334 2.89534 24.0474 2.9472 23.9529 2.97781C23.8584 3.00843 23.758 3.01694 23.6596 3.0027C23.5611 2.98845 23.4675 2.95184 23.3859 2.89576C23.3044 2.83967 23.2374 2.76566 23.1901 2.67963C22.5735 1.55794 21.5535 0.702638 20.3295 0.28094C19.1056 -0.140757 17.7656 -0.0985283 16.5716 0.399369C15.3776 0.897266 14.4155 1.81503 13.8733 2.97323C13.331 4.13144 13.2478 5.4468 13.6397 6.66216C13.6689 6.7532 13.6766 6.84957 13.6622 6.94396C13.6479 7.03835 13.6118 7.12829 13.5569 7.20696C13.5019 7.28564 13.4294 7.35099 13.345 7.39805C13.2605 7.44511 13.1662 7.47265 13.0693 7.47858C11.5532 7.57311 10.134 8.24396 9.11215 9.34909C8.09033 10.4542 7.54616 11.9069 7.5948 13.3995C7.64343 14.8922 8.28109 16.3076 9.37274 17.3462C10.4644 18.3848 11.9243 18.965 13.4435 18.964H14.9191V10.4078C14.9196 9.99616 15.0861 9.60147 15.382 9.31017C15.6779 9.01888 16.0792 8.85471 16.498 8.8536Z" fill="#05B8C3"/>
<path fill-rule="evenodd" clip-rule="evenodd" d="M31.5012 10.1113H16.4988C16.419 10.1124 16.3427 10.1444 16.2867 10.2003C16.2306 10.2562 16.1992 10.3315 16.1992 10.41V14.7384H31.8061V10.41C31.805 10.331 31.7725 10.2555 31.7156 10.1997C31.6586 10.1438 31.5817 10.1121 31.5012 10.1113ZM21.3326 12.4254C21.3326 12.2586 21.4 12.0987 21.5199 11.9808C21.6399 11.8628 21.8026 11.7966 21.9723 11.7966H30.3349C30.5046 11.7966 30.6673 11.8628 30.7872 11.9808C30.9072 12.0987 30.9746 12.2586 30.9746 12.4254C30.9746 12.5922 30.9072 12.7521 30.7872 12.87C30.6673 12.988 30.5046 13.0542 30.3349 13.0542H21.9723C21.8026 13.0542 21.6399 12.988 21.5199 12.87C21.4 12.7521 21.3326 12.5922 21.3326 12.4254ZM19.9189 12.4254C19.9189 12.5922 19.8515 12.7521 19.7315 12.87C19.6116 12.988 19.4489 13.0542 19.2792 13.0542H17.6651C17.4955 13.0542 17.3328 12.988 17.2128 12.87C17.0929 12.7521 17.0255 12.5922 17.0255 12.4254C17.0255 12.2586 17.0929 12.0987 17.2128 11.9808C17.3328 11.8628 17.4955 11.7966 17.6651 11.7966H19.2792C19.4489 11.7966 19.6116 11.8628 19.7315 11.9808C19.8515 12.0987 19.9189 12.2586 19.9189 12.4254Z" fill="#05B8C3"/>
<path fill-rule="evenodd" clip-rule="evenodd" d="M31.8061 15.9961H16.1992V20.6242H31.8061V15.9961ZM21.9723 17.6813H30.3349C30.5046 17.6813 30.6673 17.7476 30.7872 17.8655C30.9072 17.9834 30.9746 18.1434 30.9746 18.3102C30.9746 18.4769 30.9072 18.6369 30.7872 18.7548C30.6673 18.8727 30.5046 18.939 30.3349 18.939H21.9723C21.8026 18.939 21.6399 18.8727 21.5199 18.7548C21.4 18.6369 21.3326 18.4769 21.3326 18.3102C21.3326 18.1434 21.4 17.9834 21.5199 17.8655C21.6399 17.7476 21.8026 17.6813 21.9723 17.6813ZM19.2792 17.6813C19.4489 17.6813 19.6116 17.7476 19.7315 17.8655C19.8515 17.9834 19.9189 18.1434 19.9189 18.3102C19.9189 18.4769 19.8515 18.6369 19.7315 18.7548C19.6116 18.8727 19.4489 18.939 19.2792 18.939H17.6651C17.4955 18.939 17.3328 18.8727 17.2128 18.7548C17.0929 18.6369 17.0255 18.4769 17.0255 18.3102C17.0255 18.1434 17.0929 17.9834 17.2128 17.8655C17.3328 17.7476 17.4955 17.6813 17.6651 17.6813H19.2792Z" fill="#05B8C3"/>
<path fill-rule="evenodd" clip-rule="evenodd" d="M31.8061 21.8818H16.1992V26.5089H31.8061V21.8818ZM21.9723 23.566H30.3349C30.5046 23.566 30.6673 23.6323 30.7872 23.7502C30.9072 23.8681 30.9746 24.0281 30.9746 24.1949C30.9746 24.3616 30.9072 24.5216 30.7872 24.6395C30.6673 24.7574 30.5046 24.8237 30.3349 24.8237H21.9723C21.8026 24.8237 21.6399 24.7574 21.5199 24.6395C21.4 24.5216 21.3326 24.3616 21.3326 24.1949C21.3326 24.0281 21.4 23.8681 21.5199 23.7502C21.6399 23.6323 21.8026 23.566 21.9723 23.566ZM19.2792 23.566C19.4489 23.566 19.6116 23.6323 19.7315 23.7502C19.8515 23.8681 19.9189 24.0281 19.9189 24.1949C19.9189 24.3616 19.8515 24.5216 19.7315 24.6395C19.6116 24.7574 19.4489 24.8237 19.2792 24.8237H17.6651C17.4955 24.8237 17.3328 24.7574 17.2128 24.6395C17.0929 24.5216 17.0255 24.3616 17.0255 24.1949C17.0255 24.0281 17.0929 23.8681 17.2128 23.7502C17.3328 23.6323 17.4955 23.566 17.6651 23.566H19.2792Z" fill="#05B8C3"/>
<path fill-rule="evenodd" clip-rule="evenodd" d="M24.64 27.7666H23.3607V30.5806H6.45413C6.28447 30.5806 6.12177 30.6468 6.00181 30.7648C5.88184 30.8827 5.81445 31.0426 5.81445 31.2094V34.6522H7.0938V31.8382H23.366V34.6522H24.6453V31.8382H40.9218V34.6522H42.2012V31.2094C42.2012 31.0426 42.1338 30.8827 42.0138 30.7648C41.8939 30.6468 41.7311 30.5806 41.5615 30.5806H24.64V27.7666Z" fill="#05B8C3"/>
<path fill-rule="evenodd" clip-rule="evenodd" d="M17.5566 35.9111V45.4944H30.4493V44.3122V35.9111H17.5566Z" fill="#68326F"/>
<path d="M48.0009 35.9111H35.1094V45.4944H48.0009V35.9111Z" fill="#68326F"/>
<path fill-rule="evenodd" clip-rule="evenodd" d="M42.618 46.752H40.49L39.877 48.0002H43.231L42.618 46.752Z" fill="#05B8C3"/>
<path fill-rule="evenodd" clip-rule="evenodd" d="M25.6793 48.0002L25.0652 46.752H22.9383L22.3242 48.0002H25.6793Z" fill="#05B8C3"/>
<path fill-rule="evenodd" clip-rule="evenodd" d="M8.12355 48.0002L7.51053 46.752H5.38255L4.76953 48.0002H8.12355Z" fill="#05B8C3"/>
<path fill-rule="evenodd" clip-rule="evenodd" d="M12.8915 35.9111H0V45.4944H12.8915V44.3122V35.9111Z" fill="#68326F"/>
</g>
<defs>
<clipPath id="clip0_17_6310">
<rect width="48" height="48" fill="white"/>
</clipPath>
</defs>
</svg>
