<svg width="64" height="64" viewBox="0 0 64 64" fill="none" xmlns="http://www.w3.org/2000/svg">
<path d="M58.6304 41.69L51.1704 37.39L58.6304 33.08C58.8193 32.97 58.9759 32.8123 59.0848 32.6228C59.1937 32.4333 59.251 32.2186 59.251 32C59.251 31.7815 59.1937 31.5667 59.0848 31.3772C58.9759 31.1877 58.8193 31.0301 58.6304 30.92L51.1804 26.61L58.5904 22.33C58.8 22.2217 58.9737 22.055 59.0904 21.85C59.1732 21.7082 59.2272 21.5515 59.2494 21.3888C59.2716 21.2261 59.2615 21.0606 59.2197 20.9018C59.1779 20.743 59.1052 20.594 59.0058 20.4633C58.9064 20.3326 58.7823 20.2227 58.6404 20.14L32.6404 5.14002C32.4497 5.03223 32.2344 4.97559 32.0154 4.97559C31.7964 4.97559 31.5811 5.03223 31.3904 5.14002L5.3904 20.14C5.19922 20.2494 5.04032 20.4073 4.92982 20.5979C4.81931 20.7884 4.76111 21.0048 4.76111 21.225C4.76111 21.4453 4.81931 21.6616 4.92982 21.8522C5.04032 22.0427 5.19922 22.2006 5.3904 22.31L12.8404 26.61L5.3804 30.92C5.19156 31.0301 5.03488 31.1877 4.92598 31.3772C4.81708 31.5667 4.75977 31.7815 4.75977 32C4.75977 32.2186 4.81708 32.4333 4.92598 32.6228C5.03488 32.8123 5.19156 32.97 5.3804 33.08L12.8404 37.39L5.3904 41.69C5.19922 41.7994 5.04032 41.9573 4.92982 42.1479C4.81931 42.3384 4.76111 42.5548 4.76111 42.775C4.76111 42.9953 4.81931 43.2116 4.92982 43.4022C5.04032 43.5927 5.19922 43.7506 5.3904 43.86L31.3904 58.86C31.5783 58.9585 31.7884 59.0067 32.0004 59C32.2215 58.9983 32.4385 58.9397 32.6304 58.83L58.6304 43.83C58.8191 43.7186 58.9754 43.56 59.0841 43.3697C59.1927 43.1794 59.2498 42.9641 59.2498 42.745C59.2498 42.5259 59.1927 42.3106 59.0841 42.1203C58.9754 41.9301 58.8191 41.7714 58.6304 41.66V41.69ZM8.5004 32L15.3304 28.06L31.3304 37.32C31.5184 37.4306 31.7323 37.4893 31.9504 37.49C32.1715 37.4883 32.3885 37.4297 32.5804 37.32L48.5804 28.06L55.5004 32L32.0004 45.57L8.5004 32ZM32.0004 56.34L8.5004 42.78L15.3304 38.78L31.3304 48.04C31.5182 48.1508 31.7323 48.2093 31.9504 48.2093C32.1685 48.2093 32.3826 48.1508 32.5704 48.04L48.6204 38.78L55.4504 42.78L32.0004 56.34Z" fill="white"/>
<path d="M30.7386 4.64187C31.0494 4.45826 31.435 4.45638 31.7476 4.63694L58.7635 20.2447C59.426 20.6275 59.4307 21.5823 58.7719 21.9716L31.9096 37.8424C31.5989 38.026 31.2133 38.0279 30.9007 37.8473L3.88482 22.2395C3.22223 21.8567 3.21757 20.9019 3.87639 20.5126L30.7386 4.64187Z" fill="white"/>
</svg>
