<svg width="64" height="64" viewBox="0 0 64 64" fill="none" xmlns="http://www.w3.org/2000/svg">
<g clip-path="url(#clip0_29_2143)">
<mask id="mask0_29_2143" style="mask-type:luminance" maskUnits="userSpaceOnUse" x="0" y="0" width="64" height="64">
<path d="M64 0H0V64H64V0Z" fill="white"/>
</mask>
<g mask="url(#mask0_29_2143)">
<path d="M21.888 0C8.98885 0 0 4.48002 0 8.49922C0 12.5184 8.98885 16.9984 21.888 16.9984C34.7873 16.9984 43.776 12.5184 43.776 8.49922C43.776 4.48002 34.7873 0 21.888 0Z" fill="#68326F"/>
<path d="M5.85937e-05 47.552V55.5008C5.85937e-05 59.52 8.9889 64 21.8881 64C27.6705 64 33.1265 63.088 37.2481 61.44C39.9361 60.3616 41.9297 59.024 42.9665 57.6352C40.5484 55.7437 38.4632 53.4616 36.7969 50.8832C32.4737 52.2656 27.3633 52.992 21.8817 52.992C14.9857 52.992 8.53129 51.8048 3.71209 49.648C2.4074 49.0732 1.16198 48.3723 -0.00634766 47.5552L5.85937e-05 47.552Z" fill="#68326F"/>
<path d="M0 31.9199V39.7599C0 43.7823 8.98885 48.2591 21.888 48.2591C26.1575 48.2972 30.4119 47.747 34.5312 46.6239C33.1562 43.3873 32.2873 39.9584 31.9552 36.4575C28.6342 37.0657 25.2643 37.3668 21.888 37.3568C14.9472 37.3568 8.46405 36.1567 3.64805 33.9743C2.37317 33.4078 1.15578 32.7198 0.0128125 31.9199H0Z" fill="#68326F"/>
<path d="M0 16.2815V24.1279C0 28.1471 8.98885 32.6271 21.888 32.6271C25.1918 32.6359 28.4882 32.3143 31.728 31.6671C31.728 30.9215 31.9552 28.9887 33.744 28.4959C36.5664 27.7215 38.544 25.8623 38.7168 23.3119C38.7872 22.2623 40.1024 20.7903 41.0816 20.8063H43.776V16.2815C42.6342 17.0814 41.4179 17.7694 40.144 18.3359C35.3088 20.5247 28.8256 21.7279 21.888 21.7279C14.9504 21.7279 8.47045 20.5247 3.64805 18.3359C2.37317 17.7694 1.15578 17.0814 0.0128125 16.2815H0Z" fill="#68326F"/>
<path d="M57.2929 25.552H43.1873C42.3969 28.832 39.8753 31.5232 36.4673 32.6944C36.7329 48.4384 45.7825 54.4544 49.7697 56.3232C49.8845 56.3764 50.0104 56.4012 50.1368 56.3957C50.2632 56.3901 50.3864 56.3543 50.4961 56.2912C54.4993 54.0512 63.5809 47.3312 64.0033 32.6912C60.6017 31.5136 58.0865 28.8256 57.2833 25.552H57.2929ZM49.3825 46.0544C49.1508 46.2868 48.8738 46.4691 48.5686 46.5899C48.2635 46.7107 47.9367 46.7675 47.6087 46.7566C47.2807 46.7458 46.9584 46.6677 46.6618 46.5271C46.3653 46.3864 46.1009 46.1863 45.8849 45.9392L41.3889 40.6624L44.9921 37.5968L47.8017 40.8928L55.6417 32.8288L59.0337 36.1248L49.3825 46.0544Z" fill="#05B8C3"/>
</g>
</g>
<defs>
<clipPath id="clip0_29_2143">
<rect width="64" height="64" fill="white"/>
</clipPath>
</defs>
</svg>
