<svg width="64" height="64" viewBox="0 0 64 64" fill="none" xmlns="http://www.w3.org/2000/svg">
<g clip-path="url(#clip0_29_2160)">
<path d="M44.0337 16.4623H30.3545V13.5966H41.1449V8.11816H44.0337V16.4623Z" fill="#05B8C3"/>
<path d="M49.0296 25.2278H30.3545V22.3622H47.7041L52.5403 16.791L54.729 18.6621L49.0296 25.2278Z" fill="#05B8C3"/>
<path d="M56.3535 30.6221H30.3545V33.4877H56.3535V30.6221Z" fill="#05B8C3"/>
<path d="M53.1673 47.4383L47.2946 42.0846H30.3545V39.219H48.4195L55.1215 45.3279L53.1673 47.4383Z" fill="#05B8C3"/>
<path d="M44.0337 57.0028H41.1449V50.6816H30.3545V47.8159H44.0337V57.0028Z" fill="#05B8C3"/>
<path d="M8.26339 34.0777C8.34666 34.0524 9.62282 33.7018 10.6424 34.5834C10.7276 34.6565 10.8077 34.7354 10.882 34.8194C11.0377 35.0034 11.149 35.2203 11.2073 35.4534C11.2657 35.6866 11.2695 35.9299 11.2185 36.1648C11.1675 36.3997 11.063 36.6199 10.9131 36.8086C10.7632 36.9973 10.5718 37.1494 10.3535 37.2535C8.90913 37.9615 6.56241 39.4972 5.54454 42.3375C4.15453 46.2146 5.82153 50.9243 9.79274 53.6315C10.8208 50.7322 13.2882 48.5914 16.25 48.0688C19.3665 47.5176 21.7421 48.7009 23.5212 51.2564C24.0705 52.0176 24.3561 52.935 24.3352 53.8709C24.2961 54.7946 23.9376 55.5566 23.2171 55.8229C23.1763 55.8381 23.1338 55.8516 23.093 55.8634C22.8451 55.928 22.5865 55.9417 22.3331 55.9034C22.0797 55.8652 21.8368 55.7759 21.6195 55.641C21.4022 55.5062 21.2151 55.3286 21.0696 55.1193C20.9241 54.9099 20.8233 54.6732 20.7735 54.4238C20.6458 53.8164 20.3431 53.259 19.9021 52.8191C19.461 52.3792 18.9007 52.0758 18.2891 51.9459C17.9338 51.8747 17.5686 51.8656 17.2101 51.9189C15.7487 52.1347 14.6833 53.3888 14.5847 54.8503C14.4579 56.3627 14.751 57.8806 15.4322 59.2395C16.1134 60.5983 17.1567 61.7462 18.4489 62.5586C19.7411 63.3709 21.2329 63.8168 22.7625 63.8477C24.292 63.8787 25.8009 63.4936 27.1254 62.7342V1.5442C25.7813 0.505827 24.568 0.261394 23.8968 0.195653C20.8585 -0.106083 17.657 2.10216 15.9102 5.75839C12.3315 5.61511 8.9431 7.03276 7.41375 9.63544C5.22338 13.3439 6.83431 19.4123 12.1446 22.5629C13.1641 23.168 13.3476 24.6093 12.4555 25.3881L12.3417 25.4808C11.9858 25.7431 11.5512 25.8786 11.108 25.8655C10.6649 25.8523 10.2392 25.6912 9.89982 25.4083C9.77332 25.3066 9.64112 25.212 9.50388 25.1251C6.89053 23.4051 4.85958 20.9446 3.67533 18.0638C2.72486 18.531 1.9071 19.2263 1.29634 20.0866C-0.491301 22.6505 -0.117459 26.5596 2.14598 30.0321C1.2695 31.5264 0.752231 33.2011 0.634345 34.926C0.516458 36.6509 0.801129 38.3796 1.46627 39.9776C3.04597 37.3474 5.42571 35.2818 8.26339 34.0777Z" fill="#68326F"/>
<path d="M22.8994 64.0001C21.2964 64.0033 19.7253 63.5549 18.3691 62.7071C17.0554 61.8717 15.9942 60.6991 15.298 59.3138C14.6018 57.9284 14.2966 56.3819 14.4149 54.8384C14.5219 53.2724 15.6859 51.9728 17.1847 51.7519C17.563 51.6948 17.9484 51.7045 18.3232 51.7806C18.9683 51.9152 19.5598 52.2339 20.0247 52.6975C20.4896 53.1611 20.8078 53.7494 20.9401 54.39C20.9909 54.625 21.0895 54.8472 21.2301 55.0429C21.3707 55.2385 21.5501 55.4036 21.7575 55.5279C21.9486 55.6431 22.1618 55.7176 22.3836 55.7467C22.6054 55.7757 22.8308 55.7586 23.0455 55.6964L23.1594 55.661C23.7592 55.4419 24.1263 54.7862 24.1654 53.8607C24.1873 52.9612 23.9122 52.0792 23.382 51.3491C21.557 48.7295 19.234 47.708 16.279 48.2306C13.3902 48.7363 10.9653 50.8316 9.95256 53.6837L9.87951 53.8911L9.69597 53.7663C5.70776 51.0473 3.93543 46.3224 5.38492 42.2768C6.43507 39.3454 8.90073 37.7743 10.2772 37.0984C10.4776 37.0012 10.6526 36.8594 10.7885 36.6839C10.9244 36.5084 11.0175 36.3041 11.0605 36.087C11.1029 35.8832 11.0972 35.6725 11.0438 35.4713C10.9905 35.2701 10.8909 35.0839 10.7529 34.9272C10.6839 34.8486 10.6096 34.7749 10.5303 34.7064C9.59914 33.904 8.44193 34.2007 8.32128 34.2327C5.52142 35.4247 3.17323 37.4644 1.61252 40.0601L1.44259 40.3484L1.31345 40.0382C0.645414 38.4323 0.355696 36.6964 0.466421 34.9627C0.577145 33.2289 1.08539 31.5431 1.95238 30.0337C-0.319559 26.4938 -0.632252 22.5594 1.16219 19.9871C1.78994 19.1053 2.62838 18.3918 3.60237 17.9104L3.7723 17.8261L3.84366 17.9946C5.01409 20.8446 7.02262 23.2787 9.6076 24.9801C9.75017 25.07 9.8875 25.168 10.0189 25.2734C10.3294 25.531 10.7181 25.6777 11.1227 25.6899C11.5273 25.7021 11.9243 25.5792 12.25 25.3408C12.2855 25.3145 12.3195 25.2864 12.352 25.2565C12.535 25.0965 12.6768 24.8953 12.7655 24.6698C12.8542 24.4443 12.8872 24.201 12.8617 23.9602C12.8382 23.7031 12.7539 23.4552 12.6157 23.2364C12.4776 23.0176 12.2894 22.8342 12.0665 22.701C9.54647 21.2092 7.68063 18.9555 6.814 16.3595C5.99664 13.9119 6.16487 11.4289 7.2762 9.54435C8.76816 7.01584 12.1106 5.4667 15.8134 5.57964C17.5891 1.94701 20.8364 -0.283133 23.9223 0.0169168C25.1383 0.153498 26.2891 0.633893 27.2376 1.40087L27.3039 1.45143V62.8336L27.2173 62.8808C25.8979 63.6135 24.4114 63.9989 22.8994 64.0001ZM17.6724 52.0453C17.5256 52.0456 17.3791 52.0568 17.234 52.079C15.8933 52.2779 14.855 53.4444 14.753 54.8553C14.6292 56.329 14.9124 57.8083 15.5721 59.1345C16.2318 60.4606 17.2432 61.5835 18.4976 62.3825C19.752 63.1815 21.2021 63.6265 22.6922 63.6698C24.1824 63.713 25.6562 63.3528 26.9556 62.6279V1.62674C26.0701 0.927545 25.0043 0.48945 23.8799 0.362488C20.9078 0.0674952 17.7624 2.2656 16.0632 5.83081L16.0156 5.93027H15.9034C12.2806 5.78531 9.00439 7.27881 7.56 9.72304C6.49965 11.5233 6.34161 13.9069 7.12838 16.2618C7.96952 18.7903 9.78266 20.9699 12.2262 22.4212C12.4949 22.5816 12.7217 22.8025 12.8883 23.0661C13.0548 23.3297 13.1563 23.6285 13.1846 23.9383C13.2151 24.2321 13.1744 24.5289 13.0659 24.8039C12.9575 25.0789 12.7843 25.3242 12.561 25.5195C12.5202 25.5532 12.4794 25.5869 12.4369 25.6189C12.0496 25.9028 11.5773 26.0494 11.096 26.035C10.6146 26.0206 10.1521 25.8462 9.78263 25.5397C9.66558 25.4455 9.54304 25.3583 9.4156 25.2784C6.82179 23.5736 4.79302 21.147 3.58366 18.3031C2.72641 18.7543 1.98828 19.3993 1.42899 20.186C-0.300881 22.6673 0.0338775 26.4972 2.27863 29.9427L2.33472 30.0304L2.28203 30.1197C1.44758 31.5429 0.943508 33.1328 0.806526 34.7736C0.669543 36.4145 0.903113 38.065 1.49018 39.605C3.0866 37.0789 5.42328 35.0974 8.18703 33.9259H8.204C8.26177 33.9091 9.63992 33.5163 10.7428 34.4654C10.8341 34.5436 10.9198 34.6281 10.9993 34.7182C11.1715 34.9139 11.2957 35.1464 11.3623 35.3976C11.4289 35.6488 11.4361 35.9118 11.3834 36.1662C11.331 36.4341 11.2166 36.6863 11.049 36.9028C10.8815 37.1193 10.6655 37.2942 10.4182 37.4136C9.08763 38.0676 6.70527 39.5848 5.6942 42.4032C4.31778 46.2449 5.96435 50.7271 9.69937 53.3769C10.7937 50.5113 13.2679 48.4312 16.2093 47.912C19.268 47.3726 21.7694 48.4683 23.6505 51.1704C24.2252 51.9598 24.5236 52.9142 24.5001 53.8877C24.4559 54.9564 24.0073 55.7234 23.2698 55.9914L23.1356 56.0353C22.8757 56.1095 22.6031 56.1293 22.3352 56.0933C22.0672 56.0573 21.8097 55.9664 21.5791 55.8262C21.3322 55.6794 21.1181 55.484 20.9501 55.2521C20.7821 55.0202 20.6636 54.7567 20.602 54.4777C20.4835 53.9014 20.1977 53.3721 19.7798 52.9549C19.362 52.5377 18.8303 52.2508 18.2502 52.1295C18.0609 52.0824 17.8674 52.0542 17.6724 52.0453Z" fill="#68326F"/>
<path d="M14.2298 44.1968L13.1729 40.8153C14.6897 40.3516 16.0674 39.523 17.1831 38.4031C19.4925 36.0566 19.8561 33.1303 19.902 31.979L23.4705 32.129C23.4042 33.6866 22.908 37.6564 19.732 40.876C18.2033 42.4177 16.3127 43.5587 14.2298 44.1968Z" fill="white"/>
<path d="M22.0381 28.176L18.6191 27.1646C18.8485 26.401 19.8698 22.4009 17.467 18.6789C15.5723 15.7459 12.6801 14.6906 11.5195 14.3737L12.4711 10.9619C14.0226 11.3884 17.9088 12.806 20.4578 16.7691C23.6337 21.6659 22.4697 26.7381 22.0381 28.176Z" fill="white"/>
<path d="M18.4287 17.3457L16.4507 14.3991C17.0588 14.0014 17.5791 13.4853 17.98 12.882C19.2817 10.9081 18.7855 8.57849 18.602 7.91096L22.0447 6.98047C22.4067 8.29698 23.0252 11.7004 20.9674 14.8205C20.3017 15.8236 19.4381 16.6826 18.4287 17.3457Z" fill="white"/>
<path d="M42.7589 8.96113C44.9174 8.96113 46.6673 7.22532 46.6673 5.08408C46.6673 2.94285 44.9174 1.20703 42.7589 1.20703C40.6004 1.20703 38.8506 2.94285 38.8506 5.08408C38.8506 7.22532 40.6004 8.96113 42.7589 8.96113Z" fill="#05B8C3"/>
<path d="M42.7589 9.12958C41.9523 9.12958 41.1638 8.8923 40.4932 8.44776C39.8225 8.00322 39.2998 7.37138 38.9911 6.63214C38.6824 5.8929 38.6017 5.07946 38.759 4.29469C38.9164 3.50991 39.3048 2.78906 39.8752 2.22327C40.4455 1.65748 41.1722 1.27216 41.9633 1.11606C42.7544 0.959962 43.5744 1.0401 44.3196 1.3463C45.0648 1.6525 45.7018 2.17103 46.1499 2.83633C46.598 3.50163 46.8372 4.28381 46.8372 5.08396C46.8372 6.15693 46.4076 7.18595 45.6427 7.94465C44.8779 8.70335 43.8406 9.12958 42.7589 9.12958ZM42.7589 1.37548C42.0195 1.37548 41.2968 1.59297 40.682 2.00047C40.0672 2.40796 39.588 2.98714 39.3051 3.66478C39.0221 4.34242 38.9481 5.08808 39.0924 5.80745C39.2366 6.52683 39.5926 7.1876 40.1155 7.70624C40.6383 8.22488 41.3044 8.57809 42.0296 8.72119C42.7548 8.86428 43.5064 8.79083 44.1895 8.51015C44.8727 8.22946 45.4565 7.75414 45.8673 7.14428C46.2781 6.53443 46.4974 5.81743 46.4974 5.08396C46.4974 4.10041 46.1035 3.15714 45.4024 2.46166C44.7013 1.76618 43.7504 1.37548 42.7589 1.37548Z" fill="#05B8C3"/>
<path d="M55.6735 19.5808C57.832 19.5808 59.5818 17.8449 59.5818 15.7037C59.5818 13.5625 57.832 11.8267 55.6735 11.8267C53.515 11.8267 51.7651 13.5625 51.7651 15.7037C51.7651 17.8449 53.515 19.5808 55.6735 19.5808Z" fill="#05B8C3"/>
<path d="M55.6735 19.7495C54.8669 19.7495 54.0784 19.5122 53.4077 19.0676C52.737 18.6231 52.2143 17.9913 51.9057 17.252C51.597 16.5128 51.5162 15.6993 51.6736 14.9146C51.8309 14.1298 52.2194 13.4089 52.7897 12.8431C53.3601 12.2774 54.0868 11.892 54.8779 11.7359C55.669 11.5798 56.489 11.66 57.2342 11.9662C57.9794 12.2724 58.6163 12.7909 59.0645 13.4562C59.5126 14.1215 59.7518 14.9037 59.7518 15.7038C59.7518 16.7768 59.3221 17.8058 58.5573 18.5645C57.7925 19.3232 56.7551 19.7495 55.6735 19.7495ZM55.6735 11.9954C54.9341 11.9954 54.2113 12.2128 53.5966 12.6203C52.9818 13.0278 52.5026 13.607 52.2196 14.2847C51.9367 14.9623 51.8627 15.7079 52.0069 16.4273C52.1512 17.1467 52.5072 17.8075 53.03 18.3261C53.5528 18.8448 54.219 19.198 54.9442 19.3411C55.6693 19.4842 56.421 19.4107 57.1041 19.13C57.7872 18.8493 58.3711 18.374 58.7818 17.7642C59.1926 17.1543 59.4119 16.4373 59.4119 15.7038C59.4119 14.7203 59.018 13.777 58.317 13.0815C57.6159 12.3861 56.665 11.9954 55.6735 11.9954Z" fill="#05B8C3"/>
<path d="M59.9215 35.9318C62.08 35.9318 63.8299 34.196 63.8299 32.0548C63.8299 29.9135 62.08 28.1777 59.9215 28.1777C57.763 28.1777 56.0132 29.9135 56.0132 32.0548C56.0132 34.196 57.763 35.9318 59.9215 35.9318Z" fill="#05B8C3"/>
<path d="M59.9215 36.1003C59.1149 36.1003 58.3264 35.863 57.6558 35.4185C56.9851 34.9739 56.4624 34.3421 56.1537 33.6028C55.845 32.8636 55.7643 32.0502 55.9216 31.2654C56.079 30.4806 56.4674 29.7598 57.0378 29.194C57.6081 28.6282 58.3348 28.2429 59.1259 28.0868C59.917 27.9307 60.737 28.0108 61.4822 28.317C62.2274 28.6232 62.8644 29.1417 63.3125 29.807C63.7606 30.4723 63.9998 31.2545 63.9998 32.0547C63.9998 33.1276 63.5702 34.1567 62.8053 34.9154C62.0405 35.6741 61.0032 36.1003 59.9215 36.1003ZM59.9215 28.3462C59.1821 28.3462 58.4594 28.5637 57.8446 28.9712C57.2298 29.3787 56.7506 29.9578 56.4677 30.6355C56.1847 31.3131 56.1107 32.0588 56.255 32.7782C56.3992 33.4975 56.7552 34.1583 57.2781 34.6769C57.8009 35.1956 58.467 35.5488 59.1922 35.6919C59.9174 35.835 60.669 35.7615 61.3521 35.4809C62.0353 35.2002 62.6191 34.7248 63.0299 34.115C63.4407 33.5051 63.6599 32.7881 63.6599 32.0547C63.6599 31.0711 63.2661 30.1278 62.565 29.4324C61.8639 28.7369 60.913 28.3462 59.9215 28.3462Z" fill="#05B8C3"/>
<path d="M56.5231 52.1142C58.6816 52.1142 60.4314 50.3784 60.4314 48.2372C60.4314 46.0959 58.6816 44.3601 56.5231 44.3601C54.3646 44.3601 52.6147 46.0959 52.6147 48.2372C52.6147 50.3784 54.3646 52.1142 56.5231 52.1142Z" fill="#05B8C3"/>
<path d="M56.5231 52.2829C55.7165 52.2829 54.928 52.0456 54.2573 51.6011C53.5867 51.1565 53.0639 50.5247 52.7553 49.7855C52.4466 49.0462 52.3658 48.2328 52.5232 47.448C52.6806 46.6632 53.069 45.9424 53.6393 45.3766C54.2097 44.8108 54.9364 44.4255 55.7275 44.2694C56.5186 44.1133 57.3386 44.1934 58.0838 44.4996C58.829 44.8058 59.4659 45.3243 59.9141 45.9896C60.3622 46.6549 60.6014 47.4371 60.6014 48.2373C60.6014 49.3102 60.1717 50.3393 59.4069 51.098C58.6421 51.8567 57.6047 52.2829 56.5231 52.2829ZM56.5231 44.5288C55.7837 44.5288 55.0609 44.7463 54.4462 45.1538C53.8314 45.5613 53.3522 46.1405 53.0692 46.8181C52.7863 47.4957 52.7123 48.2414 52.8565 48.9608C53.0008 49.6801 53.3568 50.3409 53.8796 50.8596C54.4025 51.3782 55.0686 51.7314 55.7938 51.8745C56.5189 52.0176 57.2706 51.9442 57.9537 51.6635C58.6368 51.3828 59.2207 50.9075 59.6315 50.2976C60.0422 49.6877 60.2615 48.9708 60.2615 48.2373C60.2615 47.2537 59.8677 46.3105 59.1666 45.615C58.4655 44.9195 57.5146 44.5288 56.5231 44.5288Z" fill="#05B8C3"/>
<path d="M42.589 63.2397C44.7475 63.2397 46.4974 61.5039 46.4974 59.3626C46.4974 57.2214 44.7475 55.4856 42.589 55.4856C40.4305 55.4856 38.6807 57.2214 38.6807 59.3626C38.6807 61.5039 40.4305 63.2397 42.589 63.2397Z" fill="#05B8C3"/>
<path d="M42.589 63.4084C41.7824 63.4084 40.9939 63.1711 40.3232 62.7266C39.6526 62.282 39.1299 61.6502 38.8212 60.9109C38.5125 60.1717 38.4317 59.3583 38.5891 58.5735C38.7465 57.7887 39.1349 57.0679 39.7053 56.5021C40.2756 55.9363 41.0023 55.551 41.7934 55.3949C42.5845 55.2388 43.4045 55.3189 44.1497 55.6251C44.8949 55.9313 45.5319 56.4498 45.98 57.1151C46.4281 57.7804 46.6673 58.5626 46.6673 59.3628C46.6673 60.4357 46.2376 61.4648 45.4728 62.2235C44.708 62.9822 43.6706 63.4084 42.589 63.4084ZM42.589 55.6543C41.8496 55.6543 41.1269 55.8718 40.5121 56.2793C39.8973 56.6868 39.4181 57.266 39.1352 57.9436C38.8522 58.6212 38.7782 59.3669 38.9225 60.0863C39.0667 60.8056 39.4227 61.4664 39.9455 61.9851C40.4684 62.5037 41.1345 62.8569 41.8597 63C42.5849 63.1431 43.3365 63.0696 44.0196 62.789C44.7027 62.5083 45.2866 62.0329 45.6974 61.4231C46.1082 60.8132 46.3274 60.0962 46.3274 59.3628C46.3274 58.3792 45.9336 57.4359 45.2325 56.7405C44.5314 56.045 43.5805 55.6543 42.589 55.6543Z" fill="#05B8C3"/>
</g>
<defs>
<clipPath id="clip0_29_2160">
<rect width="64" height="64" fill="white"/>
</clipPath>
</defs>
</svg>
