<svg width="64" height="64" viewBox="0 0 64 64" fill="none" xmlns="http://www.w3.org/2000/svg">
<g clip-path="url(#clip0_29_2113)">
<path d="M61.8631 22.7096C62.429 22.7087 62.9714 22.491 63.3718 22.1041C63.7723 21.7172 63.9981 21.1926 63.9999 20.6451V10.3225C63.999 9.77463 63.7734 9.24951 63.3728 8.86244C62.9722 8.47536 62.4292 8.25796 61.8631 8.25796H57.5965V5.15953C57.5956 4.33892 57.2583 3.55217 56.6587 2.97191C56.0591 2.39165 55.2461 2.06529 54.3982 2.06441H36.0685C35.8511 1.4612 35.4452 0.938387 34.907 0.568445C34.3687 0.198504 33.725 -0.000244141 33.0648 -0.000244141C32.4047 -0.000244141 31.7609 0.198504 31.2227 0.568445C30.6845 0.938387 30.2785 1.4612 30.0611 2.06441H11.7315C10.8835 2.06529 10.0706 2.39165 9.47095 2.97191C8.87135 3.55217 8.53411 4.33892 8.5332 5.15953V10.339C8.87454 10.339 9.21587 10.3225 9.59816 10.3225C9.98045 10.3225 10.315 10.3225 10.6631 10.339V5.15953C10.664 4.8859 10.777 4.62376 10.9772 4.43058C11.1775 4.2374 11.4487 4.12893 11.7315 4.12893H30.0611C30.2785 4.73214 30.6845 5.25495 31.2227 5.62489C31.7609 5.99483 32.4047 6.19358 33.0648 6.19358C33.725 6.19358 34.3687 5.99483 34.907 5.62489C35.4452 5.25495 35.8511 4.73214 36.0685 4.12893H54.3982C54.6809 4.12893 54.9522 4.2374 55.1524 4.43058C55.3527 4.62376 55.4656 4.8859 55.4665 5.15953V8.27447H51.1999C50.6338 8.27447 50.0908 8.49188 49.6902 8.87896C49.2895 9.26604 49.064 9.79114 49.0631 10.339V20.6616C49.0649 21.2091 49.2907 21.7338 49.6912 22.1206C50.0916 22.5075 50.634 22.7252 51.1999 22.7261H55.4665V24.7906H51.1999C50.6338 24.7906 50.0908 25.008 49.6902 25.3951C49.2895 25.7822 49.064 26.3073 49.0631 26.8551V37.1777C49.0649 37.7253 49.2907 38.2499 49.6912 38.6368C50.0916 39.0237 50.634 39.2413 51.1999 39.2422H55.4665V41.3067H51.1999C50.6338 41.3067 50.0908 41.5241 49.6902 41.9112C49.2895 42.2983 49.064 42.8234 49.0631 43.3712V53.6938C49.0649 54.2414 49.2907 54.766 49.6912 55.1529C50.0916 55.5398 50.634 55.7575 51.1999 55.7583H55.4665V58.8535C55.4665 59.1277 55.3539 59.3907 55.1536 59.5846C54.9532 59.7784 54.6815 59.8874 54.3982 59.8874H36.0685C35.8511 59.2842 35.4452 58.7613 34.907 58.3914C34.3687 58.0215 33.725 57.8227 33.0648 57.8227C32.4047 57.8227 31.7609 58.0215 31.2227 58.3914C30.6845 58.7613 30.2785 59.2842 30.0611 59.8874H11.7315C11.4481 59.8874 11.1764 59.7784 10.976 59.5846C10.7757 59.3907 10.6631 59.1277 10.6631 58.8535V53.6575C10.3218 53.6575 9.98045 53.6773 9.59816 53.6773C9.21587 53.6773 8.88136 53.6773 8.5332 53.6575V58.837C8.5332 59.6581 8.87005 60.4457 9.46974 61.0267C10.0694 61.6077 10.8829 61.9345 11.7315 61.9354H30.0611C30.2785 62.5386 30.6845 63.0614 31.2227 63.4313C31.7609 63.8013 32.4047 64 33.0648 64C33.725 64 34.3687 63.8013 34.907 63.4313C35.4452 63.0614 35.8511 62.5386 36.0685 61.9354H54.3982C55.2467 61.9345 56.0602 61.6077 56.6599 61.0267C57.2596 60.4457 57.5965 59.6581 57.5965 58.837V55.7418H61.8631C62.429 55.741 62.9714 55.5233 63.3718 55.1364C63.7723 54.7495 63.9981 54.2249 63.9999 53.6773V43.3547C63.999 42.8069 63.7734 42.2818 63.3728 41.8947C62.9722 41.5076 62.4292 41.2902 61.8631 41.2902H57.5965V39.2257H61.8631C62.429 39.2248 62.9714 39.0071 63.3718 38.6202C63.7723 38.2334 63.9981 37.7088 63.9999 37.1612V26.8386C63.999 26.2908 63.7734 25.7656 63.3728 25.3786C62.9722 24.9915 62.4292 24.7741 61.8631 24.7741H57.5965V22.7096H61.8631ZM53.3298 12.387H59.7332V14.4515H53.3298V12.387ZM59.7332 51.6128H53.3298V49.5648H59.7332V51.6128ZM59.7332 45.4193V47.4838H53.3298V45.4193H59.7332ZM59.7332 35.0967H53.3298V33.0487H59.7332V35.0967ZM59.7332 28.9031V30.9676H53.3298V28.9031H59.7332ZM53.3298 18.5805V16.5325H59.7332V18.5971L53.3298 18.5805Z" fill="#68326F"/>
<path d="M9.59829 35.0968C15.8993 35.0968 19.1966 33.5377 19.1966 31.9984V27.0171C17.2169 28.2294 13.9264 28.9032 9.59829 28.9032C5.27018 28.9032 1.97973 28.2426 0 27.0171V31.9984C0 33.5377 3.29728 35.0968 9.59829 35.0968Z" fill="#68326F"/>
<path d="M19.1966 48.5145V43.5332C17.2169 44.7455 13.9264 45.4194 9.59829 45.4194C5.27018 45.4194 1.97973 44.7587 0 43.5332V48.5145C0 50.0538 3.29728 51.6129 9.59829 51.6129C15.8993 51.6129 19.1966 50.0538 19.1966 48.5145Z" fill="#68326F"/>
<path d="M9.59829 43.3548C15.8993 43.3548 19.1966 41.7957 19.1966 40.2564V35.2751C17.2169 36.4874 13.9264 37.1613 9.59829 37.1613C5.27018 37.1613 1.97973 36.5006 0 35.2751V40.2564C0 41.7957 3.29728 43.3548 9.59829 43.3548Z" fill="#68326F"/>
<path d="M9.59829 26.8387C15.8993 26.8387 19.1966 25.2796 19.1966 23.7403V18.759C17.2169 19.9713 13.9264 20.6452 9.59829 20.6452C5.27018 20.6452 1.97973 19.9845 0 18.759V23.7403C0 25.2796 3.29728 26.8387 9.59829 26.8387Z" fill="#68326F"/>
<path d="M21.3335 43.3547H23.5931C23.7487 42.7399 24.052 42.1694 24.4785 41.6895C24.905 41.2096 25.4425 40.834 26.0473 40.5932C26.6569 40.341 27.3195 40.232 27.981 40.275C28.6424 40.3181 29.284 40.512 29.8532 40.8409L31.5393 39.2091C31.2011 38.6672 31.0001 38.0555 30.9527 37.424C30.9052 36.7926 31.0127 36.1592 31.2663 35.5756C31.5138 34.9829 31.9025 34.4553 32.4008 34.0357C32.8991 33.616 33.4928 33.3163 34.1335 33.1609V30.8487C33.4978 30.6991 32.9077 30.4059 32.4117 29.9931C31.9157 29.5803 31.5278 29.0595 31.2799 28.4736C31.0188 27.8838 30.9058 27.2425 30.9503 26.6023C30.9948 25.9621 31.1955 25.3412 31.5359 24.7906L29.8497 23.1588C29.2842 23.4841 28.648 23.6773 27.9918 23.7232C27.3356 23.769 26.6773 23.6662 26.0694 23.4228C25.4614 23.1794 24.9204 22.8023 24.4894 22.3212C24.0583 21.8402 23.7491 21.2685 23.5863 20.6516H21.3335V25.9004C22.2077 25.7553 23.1034 25.7876 23.964 25.9953C24.8246 26.203 25.6312 26.5815 26.3327 27.1068C27.0341 27.6322 27.615 28.2929 28.0386 29.047C28.4622 29.8011 28.7191 30.6322 28.7932 31.4876C28.8673 32.3429 28.7568 33.2038 28.4688 34.0157C28.1809 34.8275 27.7217 35.5726 27.1204 36.2036C26.5191 36.8345 25.7889 37.3377 24.976 37.6811C24.1631 38.0245 23.2854 38.2006 22.3985 38.1983C22.0414 38.199 21.6851 38.1692 21.3335 38.1092V43.3547Z" fill="#05B8C3"/>
<path d="M9.59829 18.5805C14.8992 18.5805 19.1966 17.1932 19.1966 15.4821C19.1966 13.771 14.8992 12.387 9.59829 12.387C4.29739 12.387 0 13.771 0 15.4821C0 17.1932 4.29739 18.5805 9.59829 18.5805Z" fill="#68326F"/>
<path d="M24.5318 31.9984C24.5309 31.4511 24.3058 30.9265 23.9059 30.5395C23.506 30.1525 22.964 29.9347 22.3985 29.9338C22.0233 29.9357 21.6555 30.0349 21.3335 30.2212V33.7755C21.6555 33.9618 22.0233 34.061 22.3985 34.0629C22.9642 34.0629 23.5068 33.8454 23.9069 33.4582C24.307 33.071 24.5318 32.5459 24.5318 31.9984Z" fill="#05B8C3"/>
</g>
<defs>
<clipPath id="clip0_29_2113">
<rect width="64" height="64" fill="white"/>
</clipPath>
</defs>
</svg>
