<svg width="64" height="64" viewBox="0 0 64 64" fill="none" xmlns="http://www.w3.org/2000/svg">
<g clip-path="url(#clip0_29_2102)">
<path d="M42.6902 57.6308H48.5634V62.0594H33.0822V57.6308H38.9292V18.7603H25.0481V57.6308H30.8951V62.0594H15.4438V57.6308H21.2721V18.7603H7.39844V57.6308H13.2455V63.9998H50.743V57.6308H56.5901V18.7603H42.6902V57.6308ZM14.5914 24.6012C15.1439 24.5999 15.6844 24.7433 16.1445 25.0132C16.6047 25.2832 16.9638 25.6675 17.1765 26.1176C17.3891 26.5678 17.4457 27.0634 17.3391 27.542C17.2324 28.0205 16.9674 28.4603 16.5775 28.8059C16.1877 29.1514 15.6904 29.3871 15.1487 29.4831C14.607 29.5792 14.0453 29.5312 13.5345 29.3453C13.0237 29.1595 12.5868 28.844 12.2792 28.4389C11.9715 28.0339 11.8069 27.5573 11.8062 27.0696C11.8062 26.4167 12.0992 25.7903 12.6213 25.3277C13.1433 24.8651 13.8517 24.6039 14.5914 24.6012ZM10.9912 41.5797H17.6869V43.5201H10.9912V41.5797ZM10.9912 46.1997H17.6869V48.14H10.9912V46.1997ZM10.9912 52.7699V50.8295H17.6869V52.7699H10.9912ZM32.2447 24.6012C32.7966 24.6025 33.3356 24.7481 33.7938 25.0197C34.252 25.2912 34.6088 25.6764 34.8192 26.1268C35.0295 26.5771 35.0839 27.0724 34.9756 27.5501C34.8673 28.0277 34.6012 28.4663 34.2107 28.8106C33.8202 29.1548 33.3229 29.3892 32.7816 29.4841C32.2404 29.5791 31.6793 29.5304 31.1694 29.3441C30.6595 29.1578 30.2235 28.8424 29.9165 28.4376C29.6095 28.0328 29.4453 27.5568 29.4446 27.0696C29.4441 26.7451 29.5162 26.4236 29.6568 26.1237C29.7974 25.8238 30.0037 25.5514 30.2639 25.3221C30.524 25.0927 30.8329 24.911 31.1729 24.7873C31.5128 24.6636 31.877 24.6004 32.2447 24.6012ZM28.6408 41.5797H35.3365V43.5201H28.6408V41.5797ZM28.6408 46.1997H35.3365V48.14H28.6408V46.1997ZM28.6408 52.7699V50.8295H35.3365V52.7699H28.6408ZM49.8832 24.6012C50.4355 24.6006 50.9756 24.7445 51.4353 25.0148C51.895 25.2852 52.2535 25.6697 52.4655 26.1199C52.6776 26.5701 52.7337 27.0657 52.6266 27.544C52.5196 28.0223 52.2543 28.4619 51.8643 28.8071C51.4742 29.1523 50.977 29.3877 50.4354 29.4834C49.8938 29.5792 49.3322 29.531 48.8216 29.345C48.3111 29.1591 47.8744 28.8436 47.5669 28.4386C47.2595 28.0336 47.0949 27.5572 47.0942 27.0696C47.0937 26.7459 47.1655 26.4253 47.3053 26.126C47.4452 25.8268 47.6506 25.5548 47.9095 25.3256C48.1685 25.0964 48.4761 24.9144 48.8147 24.7901C49.1534 24.6659 49.5164 24.6017 49.8832 24.6012ZM46.2904 41.5797H52.9861V43.5201H46.2904V41.5797ZM46.2904 46.1997H52.9861V48.14H46.2904V46.1997ZM46.2904 50.8196H52.9861V52.76H46.2904V50.8196Z" fill="#68326F"/>
<path d="M54.0404 10.2003C53.5661 7.93405 52.3893 5.82817 50.6407 4.11674C48.8921 2.4053 46.6402 1.15532 44.1352 0.50568C41.6301 -0.143963 38.9701 -0.167816 36.4506 0.436756C33.9311 1.04133 31.6509 2.25065 29.8632 3.93037C26.8065 2.99563 23.4795 3.01159 20.4344 3.97558C17.3893 4.93958 14.8091 6.79365 13.1221 9.23015C9.55055 9.43226 6.20179 10.8324 3.76204 13.1436C1.32228 15.4549 -0.0237406 18.5022 -0.000184234 21.6612C-0.000184234 21.9912 -0.000170545 22.2915 0.0372148 22.6116C0.177489 24.084 0.720165 25.5043 1.61872 26.751C2.51728 27.9976 3.74491 29.0333 5.19639 29.7693V16.8201H58.7734V29.8419C60.3355 29.0438 61.6366 27.902 62.5499 26.5278C63.4633 25.1537 63.9577 23.5941 63.9849 22.0011V21.9021C63.9873 19.262 63.0171 16.6928 61.2206 14.5821C59.4241 12.4713 56.8987 10.9334 54.0254 10.2003H54.0404Z" fill="#05B8C3"/>
</g>
<defs>
<clipPath id="clip0_29_2102">
<rect width="64" height="64" fill="white"/>
</clipPath>
</defs>
</svg>
