<svg width="174" height="161" viewBox="0 0 174 161" fill="none" xmlns="http://www.w3.org/2000/svg">
<path d="M1.00098 23.7496V1H88.8428V23.7496" stroke="#05B8C3" stroke-width="2" stroke-dasharray="4 4"/>
<path d="M88.8418 57.6596V80.4092L1 80.4092V57.6596" stroke="#05B8C3" stroke-width="2" stroke-dasharray="4 4"/>
<path d="M149.811 89.321H130.3L109.326 129.519H127.861L112.252 161L150.787 120.802L127.861 119.833L149.811 89.321Z" fill="#FFC713"/>
<path d="M114.245 97.051L90.3521 120.944L114.245 144.837" stroke="#05B8C3" stroke-width="2" stroke-dasharray="4 4"/>
<path d="M148.679 144.837L172.572 120.944L148.679 97.0512" stroke="#05B8C3" stroke-width="2" stroke-dasharray="4 4"/>
<path d="M84.0314 123.057C84.422 122.666 84.422 122.033 84.0314 121.642L77.6675 115.279C77.2769 114.888 76.6438 114.888 76.2533 115.279C75.8627 115.669 75.8627 116.302 76.2533 116.693L81.9101 122.35L76.2533 128.006C75.8627 128.397 75.8627 129.03 76.2533 129.421C76.6438 129.811 77.2769 129.811 77.6675 129.421L84.0314 123.057ZM47.4849 123.35L49.7248 123.35L49.7248 121.35L47.4849 121.35L47.4849 123.35ZM54.2048 123.35L58.6847 123.35L58.6847 121.35L54.2048 121.35L54.2048 123.35ZM63.1646 123.35L67.6446 123.35L67.6446 121.35L63.1646 121.35L63.1646 123.35ZM72.1245 123.35L76.6044 123.35L76.6044 121.35L72.1245 121.35L72.1245 123.35ZM81.0844 123.35L83.3243 123.35L83.3243 121.35L81.0844 121.35L81.0844 123.35ZM84.0314 123.057C84.422 122.666 84.422 122.033 84.0314 121.642L77.6675 115.279C77.2769 114.888 76.6438 114.888 76.2533 115.279C75.8627 115.669 75.8627 116.302 76.2533 116.693L81.9101 122.35L76.2533 128.006C75.8627 128.397 75.8627 129.03 76.2533 129.421C76.6438 129.811 77.2769 129.811 77.6675 129.421L84.0314 123.057ZM47.4849 123.35L49.7248 123.35L49.7248 121.35L47.4849 121.35L47.4849 123.35ZM54.2048 123.35L58.6847 123.35L58.6847 121.35L54.2048 121.35L54.2048 123.35ZM63.1646 123.35L67.6446 123.35L67.6446 121.35L63.1646 121.35L63.1646 123.35ZM72.1245 123.35L76.6044 123.35L76.6044 121.35L72.1245 121.35L72.1245 123.35ZM81.0844 123.35L83.3243 123.35L83.3243 121.35L81.0844 121.35L81.0844 123.35Z" fill="#05B8C3"/>
<path d="M21.3084 16.9487H68.8107C72.0765 16.9487 74.7485 19.5885 74.7485 22.815V58.0125C74.7485 61.2389 72.0765 63.8787 68.8107 63.8787H21.3084C18.0426 63.8787 15.3706 61.2389 15.3706 58.0125V22.815C15.3706 19.5885 18.0426 16.9487 21.3084 16.9487Z" stroke="#68326F" stroke-width="2" stroke-linecap="round" stroke-linejoin="round"/>
<path d="M74.7485 22.8149L45.0596 43.3468L15.3706 22.8149" stroke="#68326F" stroke-width="2" stroke-linecap="round" stroke-linejoin="round"/>
<line x1="46.1606" y1="80.0242" x2="46.1606" y2="122.635" stroke="#05B8C3" stroke-width="2" stroke-dasharray="6 6"/>
</svg>
