<svg width="263" height="97" viewBox="0 0 263 97" fill="none" xmlns="http://www.w3.org/2000/svg">
<path d="M1 27.9775V1H105.167V27.9775" stroke="#05B8C3" stroke-width="2" stroke-dasharray="4 4"/>
<path d="M105.167 68.1891V95.1666L0.99984 95.1666V68.1891" stroke="#05B8C3" stroke-width="2" stroke-dasharray="4 4"/>
<path d="M234.01 8.5H210.873L186 56.1689H207.98L189.471 93.5L235.167 45.8311L207.98 44.6824L234.01 8.5Z" fill="#FFC713"/>
<path d="M191.833 17.6667L163.5 46.0001L191.833 74.3334" stroke="#05B8C3" stroke-width="2" stroke-dasharray="4 4"/>
<path d="M232.667 74.3334L261 46L232.667 17.6667" stroke="#05B8C3" stroke-width="2" stroke-dasharray="4 4"/>
<path d="M155.874 48.3739C156.264 47.9833 156.264 47.3502 155.874 46.9596L149.51 40.5957C149.119 40.2052 148.486 40.2052 148.095 40.5957C147.705 40.9862 147.705 41.6194 148.095 42.0099L153.752 47.6667L148.095 53.3236C147.705 53.7141 147.705 54.3473 148.095 54.7378C148.486 55.1283 149.119 55.1283 149.51 54.7378L155.874 48.3739ZM112.667 48.6667L114.792 48.6667L114.792 46.6667L112.667 46.6667L112.667 48.6667ZM119.042 48.6667L123.292 48.6667L123.292 46.6667L119.042 46.6667L119.042 48.6667ZM127.542 48.6667L131.792 48.6667L131.792 46.6667L127.542 46.6667L127.542 48.6667ZM136.042 48.6667L140.292 48.6667L140.292 46.6667L136.042 46.6667L136.042 48.6667ZM144.542 48.6667L148.792 48.6667L148.792 46.6667L144.542 46.6667L144.542 48.6667ZM153.042 48.6667L155.167 48.6667L155.167 46.6667L153.042 46.6667L153.042 48.6667ZM155.874 48.3739C156.264 47.9833 156.264 47.3502 155.874 46.9596L149.51 40.5957C149.119 40.2052 148.486 40.2052 148.095 40.5957C147.705 40.9862 147.705 41.6194 148.095 42.0099L153.752 47.6667L148.095 53.3236C147.705 53.7141 147.705 54.3473 148.095 54.7378C148.486 55.1283 149.119 55.1283 149.51 54.7378L155.874 48.3739ZM112.667 48.6667L114.792 48.6667L114.792 46.6667L112.667 46.6667L112.667 48.6667ZM119.042 48.6667L123.292 48.6667L123.292 46.6667L119.042 46.6667L119.042 48.6667ZM127.542 48.6667L131.792 48.6667L131.792 46.6667L127.542 46.6667L127.542 48.6667ZM136.042 48.6667L140.292 48.6667L140.292 46.6667L136.042 46.6667L136.042 48.6667ZM144.542 48.6667L148.792 48.6667L148.792 46.6667L144.542 46.6667L144.542 48.6667ZM153.042 48.6667L155.167 48.6667L155.167 46.6667L153.042 46.6667L153.042 48.6667Z" fill="#05B8C3"/>
<path d="M25.0828 19.9128H81.4131C85.2858 19.9128 88.4544 23.0432 88.4544 26.8693V68.608C88.4544 72.4341 85.2858 75.5645 81.4131 75.5645H25.0828C21.2101 75.5645 18.0415 72.4341 18.0415 68.608V26.8693C18.0415 23.0432 21.2101 19.9128 25.0828 19.9128Z" stroke="#68326F" stroke-width="2" stroke-linecap="round" stroke-linejoin="round"/>
<path d="M88.4544 26.8694L53.248 51.217L18.0415 26.8694" stroke="#68326F" stroke-width="2" stroke-linecap="round" stroke-linejoin="round"/>
</svg>
