<svg width="227" height="160" viewBox="0 0 227 160" fill="none" xmlns="http://www.w3.org/2000/svg">
<path d="M152 121H214.596C215.234 121 215.845 121.137 216.296 121.379C216.747 121.622 217 121.952 217 122.296V126.245C217 128.036 215.679 129.755 213.327 131.021C210.976 132.288 207.788 133 204.463 133H163.065" stroke="#68326F" stroke-width="2" stroke-linecap="round" stroke-linejoin="round"/>
<path d="M63.7041 133H21.7251C18.3521 133 15.1171 132.288 12.7309 131.021C10.3448 129.754 9.00288 128.036 9 126.243V122.296C9 122.125 9.06306 121.957 9.18558 121.8C9.3081 121.643 9.48768 121.5 9.71406 121.379C9.94045 121.259 10.2092 121.164 10.505 121.099C10.8008 121.034 11.1178 121 11.438 121H75" stroke="#68326F" stroke-width="2" stroke-linecap="round" stroke-linejoin="round"/>
<path d="M109.946 14.0872H116.258" stroke="#05B8C3" stroke-width="2" stroke-linecap="round" stroke-linejoin="round"/>
<path d="M28.9341 24.6794H197.27" stroke="#68326F" stroke-width="2" stroke-linecap="round" stroke-linejoin="round"/>
<path d="M9.99561 120.729L28.9334 100.747V17.5164C28.9335 15.6206 29.3283 13.7433 30.0951 11.9918C30.8619 10.2403 31.9857 8.64887 33.4025 7.30837C34.8192 5.96788 36.5011 4.90457 38.3521 4.17916C40.2032 3.45376 42.187 3.08045 44.1905 3.08057H182.015C186.061 3.08057 189.941 4.60148 192.802 7.30873C195.663 10.016 197.27 13.6878 197.27 17.5164V100.747L216.21 120.729" stroke="#68326F" stroke-width="2" stroke-linecap="round" stroke-linejoin="round"/>
<path d="M141 101H188" stroke="#68326F" stroke-width="2" stroke-linecap="round" stroke-linejoin="round"/>
<path d="M40 101H84" stroke="#68326F" stroke-width="2" stroke-linecap="round" stroke-linejoin="round"/>
<path d="M36.2988 111.37H40.5074" stroke="#68326F" stroke-width="2" stroke-linecap="round" stroke-linejoin="round"/>
<path d="M71 111H78" stroke="#68326F" stroke-width="2" stroke-linecap="round" stroke-linejoin="round"/>
<path d="M161 111H167" stroke="#68326F" stroke-width="2" stroke-linecap="round" stroke-linejoin="round"/>
<path d="M185.697 111.37H189.906" stroke="#68326F" stroke-width="2" stroke-linecap="round" stroke-linejoin="round"/>
<path d="M116.927 124.135C119.04 122.136 119.04 118.895 116.927 116.896C114.815 114.897 111.39 114.897 109.278 116.896C107.165 118.895 107.165 122.136 109.278 124.135C111.39 126.134 114.815 126.134 116.927 124.135Z" stroke="#05B8C3" stroke-width="2" stroke-linecap="round" stroke-linejoin="round"/>
<path d="M114.205 108H111.799C111.263 107.999 110.746 107.81 110.349 107.468C109.953 107.127 109.705 106.658 109.654 106.153L108.01 92.2306C107.981 91.9479 108.016 91.6628 108.111 91.3934C108.206 91.1241 108.359 90.8765 108.561 90.6665C108.763 90.4565 109.009 90.2888 109.284 90.174C109.558 90.0592 109.855 90 110.155 90H115.845C116.145 90 116.442 90.0592 116.716 90.174C116.991 90.2888 117.237 90.4565 117.439 90.6665C117.641 90.8765 117.794 91.1241 117.889 91.3934C117.984 91.6628 118.019 91.9479 117.99 92.2306L116.346 106.153C116.296 106.658 116.049 107.126 115.653 107.468C115.257 107.809 114.741 107.999 114.205 108Z" stroke="#05B8C3" stroke-width="2" stroke-linecap="round" stroke-linejoin="round"/>
<path d="M147.976 123.429L119.547 77.5237C116.637 72.8254 109.361 72.8254 106.453 77.5237L78.0243 123.429C75.1141 128.127 78.7516 134 84.5689 134H141.427C147.249 134 150.886 128.127 147.976 123.429Z" stroke="#05B8C3" stroke-width="2" stroke-linecap="round" stroke-linejoin="round"/>
</svg>
