<svg width="64" height="64" viewBox="0 0 64 64" fill="none" xmlns="http://www.w3.org/2000/svg">
<g clip-path="url(#clip0_49_2132)">
<path fill-rule="evenodd" clip-rule="evenodd" d="M1 -0.577745V62.3327C1.00041 62.7744 1.17957 63.1979 1.49821 63.5103C1.81685 63.8228 2.24893 63.9987 2.69975 63.9995H47.2941C47.7459 63.9999 48.1793 63.8246 48.4992 63.512C48.819 63.1995 48.9992 62.7753 49 62.3327V47.3341H48.077C47.5581 47.3337 47.0605 47.1317 46.6934 46.7723C46.3263 46.4129 46.1196 45.9256 46.1188 45.4171V42.8686C46.1215 42.8301 46.1105 42.7918 46.0874 42.7604C46.0644 42.7291 46.0309 42.7066 45.9927 42.6968C45.3983 42.506 44.8198 42.2707 44.2622 41.993C44.2278 41.9736 44.1877 41.9664 44.1485 41.9724C44.1094 41.9784 44.0735 41.9974 44.0468 42.0262L42.2086 43.8347C41.841 44.1936 41.3431 44.3951 40.8241 44.3951C40.3051 44.3951 39.8073 44.1936 39.4397 43.8347L36.8877 41.3374C36.5218 40.9771 36.3163 40.4894 36.3163 39.981C36.3163 39.4727 36.5218 38.985 36.8877 38.6247L38.7336 36.8162C38.763 36.79 38.7821 36.7546 38.7877 36.7161C38.7933 36.6776 38.7852 36.6383 38.7644 36.6052C38.4826 36.0591 38.2434 35.4928 38.0491 34.9112C38.039 34.8741 38.0163 34.8415 37.9846 34.8187C37.953 34.796 37.9145 34.7845 37.8753 34.7861H35.2756C34.7564 34.7857 34.2586 34.5834 33.8914 34.2237C33.5243 33.864 33.3178 33.3763 33.3174 32.8676V29.338C33.3178 28.8294 33.5243 28.3418 33.8915 27.9823C34.2587 27.6229 34.7565 27.421 35.2756 27.421H37.8753C37.9146 27.4222 37.9532 27.4104 37.9848 27.3874C38.0164 27.3644 38.039 27.3316 38.0491 27.2944C38.2431 26.7127 38.4823 26.1464 38.7644 25.6004C38.7852 25.5672 38.7933 25.528 38.7877 25.4895C38.7821 25.451 38.763 25.4156 38.7336 25.3894L36.8877 23.5809C36.5218 23.2205 36.3163 22.7329 36.3163 22.2245C36.3163 21.7162 36.5218 21.2285 36.8877 20.8681L39.4397 18.3709C39.8073 18.012 40.3051 17.8104 40.8241 17.8104C41.3431 17.8104 41.841 18.012 42.2086 18.3709L44.0468 20.1719C44.0731 20.2011 44.1089 20.2205 44.1482 20.2269C44.1874 20.2332 44.2277 20.226 44.2622 20.2065C44.8198 19.9288 45.3983 19.6935 45.9927 19.5027C46.0309 19.493 46.0644 19.4705 46.0874 19.4391C46.1105 19.4077 46.1215 19.3695 46.1188 19.3309V16.79C46.1196 16.2815 46.3263 15.7941 46.6934 15.4348C47.0605 15.0754 47.5581 14.8733 48.077 14.8729H49V-0.577745C48.9992 -1.0205 48.8191 -1.44484 48.4993 -1.75763C48.1795 -2.07042 47.746 -2.24609 47.2941 -2.24609H2.69975C2.24879 -2.2449 1.81665 -2.06864 1.49806 -1.75594C1.17946 -1.44324 1.00041 -1.01957 1 -0.577745ZM10.971 23.8371L14.7428 19.5103C14.8168 19.4184 14.9088 19.3421 15.0136 19.286C15.1184 19.2298 15.2337 19.195 15.3525 19.1837C15.4714 19.1723 15.5914 19.1846 15.7052 19.2198C15.8191 19.255 15.9246 19.3124 16.0152 19.3885C16.1059 19.4646 16.18 19.5579 16.2329 19.6628C16.2858 19.7677 16.3166 19.8819 16.3233 19.9987C16.3301 20.1155 16.3126 20.2325 16.272 20.3425C16.2315 20.4525 16.1686 20.5534 16.0873 20.6391L11.6433 25.7375C11.5599 25.8325 11.4566 25.9087 11.3405 25.9609C11.2243 26.0131 11.0981 26.0402 10.9703 26.0402C10.8425 26.0402 10.7161 26.0131 10.6 25.9609C10.4838 25.9087 10.3806 25.8325 10.2973 25.7375L7.75756 22.8289C7.61366 22.6524 7.54553 22.428 7.56753 22.2031C7.58953 21.9783 7.69999 21.7706 7.87548 21.6242C8.05098 21.4777 8.27776 21.4039 8.50784 21.4183C8.73791 21.4327 8.95322 21.5343 9.1082 21.7016L10.971 23.8371ZM20.0929 34.7454H32.0206C32.2556 34.7454 32.481 34.8369 32.6472 34.9997C32.8134 35.1625 32.9067 35.3833 32.9067 35.6135C32.9067 35.8437 32.8134 36.0645 32.6472 36.2273C32.481 36.3901 32.2556 36.4816 32.0206 36.4816H20.0929C19.8579 36.4816 19.6326 36.3901 19.4664 36.2273C19.3002 36.0645 19.2069 35.8437 19.2069 35.6135C19.2069 35.3833 19.3002 35.1625 19.4664 34.9997C19.6326 34.8369 19.8579 34.7454 20.0929 34.7454ZM20.0929 39.3255H34.2019C34.3183 39.3255 34.4335 39.3479 34.541 39.3915C34.6485 39.4352 34.7461 39.4991 34.8284 39.5797C34.9107 39.6603 34.9759 39.756 35.0205 39.8613C35.065 39.9667 35.0879 40.0795 35.0879 40.1935C35.0879 40.3075 35.065 40.4204 35.0205 40.5257C34.9759 40.6311 34.9107 40.7268 34.8284 40.8074C34.7461 40.888 34.6485 40.9519 34.541 40.9955C34.4335 41.0392 34.3183 41.0616 34.2019 41.0616H20.0929C19.8579 41.0616 19.6326 40.9702 19.4664 40.8074C19.3002 40.6446 19.2069 40.4238 19.2069 40.1935C19.2069 39.9633 19.3002 39.7425 19.4664 39.5797C19.6326 39.4169 19.8579 39.3255 20.0929 39.3255ZM20.0929 48.9829H41.564C41.799 48.9829 42.0244 49.0743 42.1905 49.2371C42.3567 49.3999 42.4501 49.6207 42.4501 49.851C42.4501 50.0812 42.3567 50.302 42.1905 50.4648C42.0244 50.6276 41.799 50.7191 41.564 50.7191H20.0929C19.8579 50.7191 19.6326 50.6276 19.4664 50.4648C19.3002 50.302 19.2069 50.0812 19.2069 49.851C19.2069 49.6207 19.3002 49.3999 19.4664 49.2371C19.6326 49.0743 19.8579 48.9829 20.0929 48.9829ZM20.0929 53.5644H41.564C41.7924 53.5738 42.0083 53.6692 42.1666 53.8309C42.3248 53.9925 42.4132 54.2078 42.4132 54.4318C42.4132 54.6557 42.3248 54.871 42.1666 55.0327C42.0083 55.1943 41.7924 55.2898 41.564 55.2991H20.0929C19.8645 55.2898 19.6486 55.1943 19.4904 55.0327C19.3321 54.871 19.2438 54.6557 19.2438 54.4318C19.2438 54.2078 19.3321 53.9925 19.4904 53.8309C19.6486 53.6692 19.8645 53.5738 20.0929 53.5644ZM9.1082 36.462L10.971 38.596L14.7428 34.2707C14.8954 34.096 15.1126 33.9879 15.3465 33.9701C15.5805 33.9523 15.8121 34.0262 15.9904 34.1757C16.1686 34.3252 16.279 34.538 16.2972 34.7672C16.3154 34.9964 16.2398 35.2233 16.0873 35.398L11.6433 40.4965C11.5602 40.5919 11.4571 40.6685 11.3409 40.721C11.2247 40.7735 11.0982 40.8007 10.9703 40.8007C10.8423 40.8007 10.7159 40.7735 10.5997 40.721C10.4835 40.6685 10.3803 40.5919 10.2973 40.4965L7.75756 37.5893C7.61366 37.4128 7.54553 37.1884 7.56753 36.9636C7.58953 36.7387 7.69999 36.5311 7.87548 36.3846C8.05098 36.2381 8.27776 36.1643 8.50784 36.1787C8.73791 36.1932 8.95322 36.2948 9.1082 36.462ZM10.971 52.829L14.7428 48.5021C14.8184 48.4156 14.9106 48.3446 15.0141 48.293C15.1177 48.2414 15.2307 48.2103 15.3465 48.2015C15.4624 48.1927 15.5788 48.2063 15.6893 48.2416C15.7998 48.2769 15.9021 48.3332 15.9904 48.4072C16.0786 48.4812 16.1512 48.5715 16.2038 48.673C16.2565 48.7745 16.2882 48.8851 16.2972 48.9986C16.3062 49.1121 16.2923 49.2263 16.2563 49.3345C16.2202 49.4427 16.1628 49.5429 16.0873 49.6294L11.6433 54.7279C11.5602 54.8233 11.4571 54.8999 11.3409 54.9524C11.2247 55.005 11.0982 55.0322 10.9703 55.0322C10.8423 55.0322 10.7159 55.005 10.5997 54.9524C10.4835 54.8999 10.3803 54.8233 10.2973 54.7279L7.75756 51.8207C7.61366 51.6443 7.54553 51.4198 7.56753 51.195C7.58953 50.9702 7.69999 50.7625 7.87548 50.616C8.05098 50.4696 8.27776 50.3957 8.50784 50.4102C8.73791 50.4246 8.95322 50.5262 9.1082 50.6934L10.971 52.829ZM19.21 25.4226C19.21 25.1929 19.3029 24.9725 19.4684 24.8098C19.6339 24.6471 19.8584 24.5553 20.0929 24.5545H32.0206C32.14 24.5496 32.2591 24.5684 32.3709 24.6098C32.4826 24.6512 32.5847 24.7143 32.6709 24.7953C32.7571 24.8763 32.8257 24.9736 32.8726 25.0813C32.9195 25.1889 32.9436 25.3048 32.9436 25.4218C32.9436 25.5388 32.9195 25.6547 32.8726 25.7623C32.8257 25.87 32.7571 25.9673 32.6709 26.0483C32.5847 26.1293 32.4826 26.1924 32.3709 26.2338C32.2591 26.2752 32.14 26.294 32.0206 26.2891H20.0929C19.8586 26.2887 19.6341 26.1973 19.4685 26.0348C19.303 25.8723 19.21 25.6521 19.21 25.4226ZM19.21 20.841C19.2104 20.6116 19.3035 20.3916 19.469 20.2292C19.6344 20.0668 19.8587 19.9752 20.0929 19.9744H34.2019C34.3213 19.9696 34.4404 19.9884 34.5522 20.0298C34.6639 20.0712 34.7659 20.1343 34.8522 20.2153C34.9384 20.2963 35.007 20.3936 35.0538 20.5012C35.1007 20.6089 35.1249 20.7247 35.1249 20.8418C35.1249 20.9588 35.1007 21.0746 35.0538 21.1823C35.007 21.29 34.9384 21.3872 34.8522 21.4682C34.7659 21.5493 34.6639 21.6124 34.5522 21.6538C34.4404 21.6951 34.3213 21.714 34.2019 21.7091H20.0929C19.8584 21.7083 19.6339 21.6165 19.4684 21.4538C19.3029 21.2911 19.21 21.0707 19.21 20.841ZM19.21 11.1836C19.21 10.954 19.303 10.7338 19.4685 10.5713C19.6341 10.4089 19.8586 10.3174 20.0929 10.317H41.564C41.7924 10.3263 42.0083 10.4218 42.1666 10.5834C42.3248 10.7451 42.4132 10.9604 42.4132 11.1843C42.4132 11.4083 42.3248 11.6236 42.1666 11.7852C42.0083 11.9469 41.7924 12.0423 41.564 12.0517H20.0929C19.8584 12.0509 19.6339 11.9591 19.4684 11.7963C19.3029 11.6336 19.21 11.4133 19.21 11.1836ZM19.21 6.60353C19.21 6.37383 19.3029 6.15348 19.4684 5.99077C19.6339 5.82806 19.8584 5.73625 20.0929 5.73545H41.564C41.799 5.73545 42.0244 5.82691 42.1905 5.98971C42.3567 6.1525 42.4501 6.3733 42.4501 6.60353C42.4501 6.83377 42.3567 7.05457 42.1905 7.21736C42.0244 7.38016 41.799 7.47162 41.564 7.47162H20.0929C19.8584 7.47082 19.6339 7.37901 19.4684 7.2163C19.3029 7.05359 19.21 6.83324 19.21 6.60353ZM10.971 11.794C10.8431 11.7947 10.7166 11.7681 10.6002 11.7161C10.4838 11.664 10.3805 11.5877 10.2973 11.4925L7.75756 8.58536C7.61366 8.40888 7.54553 8.18447 7.56753 7.95963C7.58953 7.73478 7.69999 7.52715 7.87548 7.38067C8.05098 7.23419 8.27776 7.16035 8.50784 7.1748C8.73791 7.18924 8.95322 7.29083 9.1082 7.45806L10.971 9.5936L14.7428 5.26675C14.8954 5.09208 15.1126 4.98394 15.3465 4.96614C15.5805 4.94833 15.8121 5.02231 15.9904 5.1718C16.1686 5.32129 16.279 5.53405 16.2972 5.76326C16.3154 5.99248 16.2398 6.21938 16.0873 6.39405L11.6433 11.4925C11.5606 11.5884 11.4577 11.6656 11.3416 11.7186C11.2255 11.7717 11.0991 11.7995 10.971 11.8V11.794Z" fill="#05B8C3"/>
<path fill-rule="evenodd" clip-rule="evenodd" d="M45.7814 20.2732C45.2703 20.4527 44.7721 20.6712 44.2909 20.9269C43.9209 21.1256 43.5008 21.1954 43.0909 21.1265C42.681 21.0575 42.3023 20.8532 42.0089 20.5428L40.1613 18.5819C40.1255 18.5456 40.0779 18.5253 40.0283 18.5253C39.9787 18.5253 39.931 18.5456 39.8953 18.5819L37.3396 21.2978C37.3055 21.3352 37.2862 21.3848 37.2855 21.4367C37.2865 21.4885 37.3058 21.5381 37.3396 21.5756L39.1949 23.5365C39.4883 23.846 39.6817 24.2455 39.7478 24.6779C39.8139 25.1104 39.7491 25.5539 39.5629 25.9452C39.3183 26.4525 39.1115 26.9792 38.9445 27.5205C38.8161 27.9366 38.5664 28.299 38.2312 28.5559C37.8959 28.8127 37.4924 28.9508 37.0783 28.9503H34.4654C34.4158 28.9503 34.3681 28.9712 34.3331 29.0082C34.298 29.0453 34.2783 29.0956 34.2783 29.1481V32.9768C34.2783 33.0292 34.298 33.0795 34.3331 33.1166C34.3681 33.1537 34.4158 33.1745 34.4654 33.1745H37.0783C37.4924 33.174 37.8959 33.3121 38.2312 33.5689C38.5664 33.8258 38.8161 34.1883 38.9445 34.6043C39.1118 35.1455 39.3186 35.6722 39.5629 36.1796C39.7491 36.571 39.8139 37.0144 39.7478 37.4469C39.6817 37.8794 39.4883 38.2788 39.1949 38.5883L37.3396 40.5492C37.3058 40.5868 37.2865 40.6363 37.2855 40.6881C37.2862 40.74 37.3055 40.7897 37.3396 40.827L39.8984 43.5364C39.934 43.5729 39.9818 43.5934 40.0314 43.5936C40.0561 43.5943 40.0807 43.5896 40.1036 43.5798C40.1265 43.5699 40.1472 43.5551 40.1644 43.5364L42.012 41.5754C42.3054 41.2651 42.6841 41.0608 43.094 40.9918C43.5039 40.9229 43.924 40.9927 44.294 41.1914C44.775 41.4478 45.2731 41.6663 45.7845 41.8451C46.1782 41.9812 46.521 42.2455 46.764 42.6C47.007 42.9546 47.1377 43.3813 47.1374 43.8191V46.5823C47.1378 46.6345 47.1577 46.6844 47.1927 46.7211C47.2277 46.7578 47.2751 46.7784 47.3244 46.7784H50.9454C50.9948 46.7784 51.0421 46.7578 51.0772 46.7211C51.1122 46.6844 51.1321 46.6345 51.1325 46.5823V43.8125C51.1322 43.3747 51.2628 42.9481 51.5058 42.5935C51.7488 42.239 52.0917 41.9747 52.4854 41.8385C52.9976 41.6621 53.4959 41.4435 53.9758 41.1849C54.3459 40.9862 54.7659 40.9163 55.1758 40.9853C55.5857 41.0543 55.9645 41.2586 56.2579 41.5689L58.1055 43.5298C58.1227 43.5486 58.1434 43.5634 58.1663 43.5732C58.1892 43.5831 58.2138 43.5878 58.2385 43.587C58.2881 43.5869 58.3358 43.5664 58.3714 43.5298L60.9303 40.8205C60.9483 40.8029 60.9625 40.7813 60.9719 40.7574C60.9812 40.7334 60.9855 40.7075 60.9844 40.6816C60.9854 40.6557 60.9811 40.6299 60.9717 40.6059C60.9624 40.5819 60.9482 40.5603 60.9303 40.5427L59.0749 38.5818C58.7812 38.2724 58.5879 37.8725 58.5229 37.4397C58.4578 37.0069 58.5245 36.5634 58.7132 36.1731C58.9556 35.6647 59.1623 35.1382 59.3316 34.5978C59.4605 34.1808 59.7111 33.8177 60.0475 33.5608C60.384 33.3039 60.7889 33.1663 61.2039 33.168H63.8169C63.8654 33.1663 63.9115 33.1447 63.9452 33.1078C63.979 33.0709 63.9978 33.0216 63.9978 32.9702V29.1415C63.9978 29.0902 63.979 29.0409 63.9452 29.004C63.9115 28.9671 63.8654 28.9455 63.8169 28.9438H61.2039C60.7889 28.9454 60.384 28.8079 60.0475 28.551C59.7111 28.294 59.4605 27.931 59.3316 27.5139C59.1617 26.9738 58.955 26.4473 58.7132 25.9387C58.5245 25.5484 58.4578 25.1049 58.5229 24.6721C58.5879 24.2392 58.7812 23.8393 59.0749 23.53L60.9303 21.5691C60.9482 21.5514 60.9624 21.5298 60.9717 21.5059C60.9811 21.4819 60.9854 21.4561 60.9844 21.4302C60.9855 21.4042 60.9812 21.3784 60.9719 21.3544C60.9625 21.3304 60.9483 21.3089 60.9303 21.2913L58.3668 18.5884C58.3312 18.5519 58.2835 18.5314 58.2339 18.5313C58.2092 18.5305 58.1846 18.5352 58.1617 18.545C58.1388 18.5549 58.118 18.5697 58.1008 18.5884L56.2533 20.5494C55.9602 20.8602 55.5814 21.0648 55.1714 21.1338C54.7613 21.2028 54.3411 21.1326 53.9712 20.9334C53.4909 20.6754 52.9927 20.4569 52.4808 20.2797C52.0868 20.144 51.7437 19.8799 51.5006 19.5252C51.2576 19.1706 51.1271 18.7437 51.1279 18.3057V15.5359C51.1275 15.4838 51.1076 15.4339 51.0726 15.3972C51.0375 15.3604 50.9902 15.3398 50.9408 15.3398H47.3198C47.2704 15.3398 47.2231 15.3604 47.188 15.3972C47.153 15.4339 47.1331 15.4838 47.1327 15.5359V18.2992C47.1332 18.7371 47.0027 19.1639 46.7597 19.5185C46.5167 19.8731 46.1736 20.1373 45.7798 20.2732H45.7814ZM49.1318 22.3583C50.7597 22.358 52.3511 22.8679 53.7047 23.8236C55.0584 24.7793 56.1135 26.1377 56.7366 27.7272C57.3597 29.3167 57.5228 31.0658 57.2053 32.7533C56.8878 34.4407 56.104 35.9908 54.9529 37.2074C53.8018 38.4239 52.3352 39.2524 50.7386 39.588C49.142 39.9236 47.4871 39.7512 45.9832 39.0926C44.4793 38.434 43.194 37.3189 42.2897 35.8882C41.3855 34.4575 40.9031 32.7756 40.9034 31.0551C40.9054 28.7492 41.773 26.5384 43.3157 24.9079C44.8584 23.2775 46.9502 22.3605 49.1318 22.3583Z" fill="white"/>
<path fill-rule="evenodd" clip-rule="evenodd" d="M48.9986 24.7021C48.6031 24.7025 48.2165 24.8344 47.8878 25.0814C47.5591 25.3283 47.303 25.6792 47.1518 26.0895C47.0007 26.4999 46.9613 26.9514 47.0386 27.3869C47.1159 27.8224 47.3066 28.2223 47.5863 28.5362C47.8661 28.8501 48.2224 29.0638 48.6103 29.1503C48.9983 29.2369 49.4003 29.1923 49.7657 29.0223C50.1311 28.8523 50.4433 28.5644 50.663 28.1952C50.8827 27.8259 51 27.3918 51 26.9478C50.9985 26.3524 50.7871 25.782 50.412 25.3612C50.0369 24.9404 49.5288 24.7034 48.9986 24.7021Z" fill="#05B8C3"/>
<path fill-rule="evenodd" clip-rule="evenodd" d="M49.5046 30.3154C48.311 30.3158 47.1662 30.7706 46.3217 31.58C45.4772 32.3894 45.002 33.4872 45.0004 34.6325C44.9988 34.6774 45.0019 34.7224 45.0096 34.7668C46.373 35.5283 47.9225 35.9295 49.5 35.9295C51.0776 35.9295 52.627 35.5283 53.9904 34.7668C53.9981 34.7224 54.0012 34.6774 53.9996 34.6325C53.998 33.4888 53.524 32.3923 52.6815 31.5831C51.839 30.774 50.6967 30.3182 49.5046 30.3154Z" fill="#05B8C3"/>
</g>
<defs>
<clipPath id="clip0_49_2132">
<rect width="64" height="64" fill="white"/>
</clipPath>
</defs>
</svg>
