<svg width="64" height="64" viewBox="0 0 64 64" fill="none" xmlns="http://www.w3.org/2000/svg">
<g clip-path="url(#clip0_49_2171)">
<path d="M63.1645 9.33203V35.2959C63.171 38.5959 62.2105 41.8451 60.37 44.7488C58.5296 47.6526 55.8674 50.119 52.625 51.9244L32.3174 63.291" stroke="#68326F" stroke-width="2" stroke-linecap="round" stroke-linejoin="round"/>
<path d="M57 38.3482V8.80644C44.9276 8.80644 34.4183 5.89533 28.9999 -1C23.5816 5.89533 13.0724 8.80644 1 8.80644V38.3482C0.999752 41.0698 1.6992 43.7487 3.03532 46.1436C4.37145 48.5385 6.30227 50.5741 8.65384 52.067L28.9999 65L49.3462 52.067C51.6977 50.5741 53.6286 48.5385 54.9647 46.1436C56.3008 43.7487 57.0002 41.0698 57 38.3482Z" fill="#05B8C3" stroke="#68326F" stroke-width="2" stroke-linecap="round" stroke-linejoin="round"/>
<path d="M28.9999 49C25.4399 49 21.9598 48.003 18.9997 46.135C16.0397 44.267 13.7326 41.612 12.3702 38.5056C11.0078 35.3993 10.6513 31.9812 11.3459 28.6835C12.0404 25.3858 13.7547 22.3567 16.272 19.9792C18.7894 17.6017 21.9967 15.9826 25.4884 15.3267C28.98 14.6707 32.5993 15.0073 35.8883 16.294C39.1774 17.5807 41.9885 19.7597 43.9664 22.5553C45.9443 25.3509 47 28.6377 47 32C47 36.5087 45.1035 40.8327 41.7278 44.0208C38.3522 47.209 33.7738 49 28.9999 49Z" fill="white" stroke="#68326F" stroke-width="2" stroke-linecap="round" stroke-linejoin="round"/>
<path d="M39.7556 24.0811L27.9564 37.6163C27.8453 37.7439 27.7002 37.8472 27.5331 37.9176C27.3659 37.988 27.1816 38.0236 26.9951 38.0214C26.8087 38.0193 26.6255 37.9793 26.4607 37.905C26.2959 37.8307 26.1543 37.7241 26.0473 37.594L19.0732 29.0533" stroke="#68326F" stroke-width="2" stroke-linecap="round" stroke-linejoin="round"/>
</g>
<defs>
<clipPath id="clip0_49_2171">
<rect width="64" height="64" fill="white"/>
</clipPath>
</defs>
</svg>
