<svg width="169" height="160" viewBox="0 0 169 160" fill="none" xmlns="http://www.w3.org/2000/svg">
<g clip-path="url(#clip0_60_9024)">
<path d="M83.4381 45.1416C82.6333 45.1403 81.8441 45.3639 81.1602 45.7872C81.1597 45.7875 81.1592 45.7878 81.1586 45.7882L45.7156 67.5156H23.5624C12.3815 67.5156 3.30029 58.4821 3.30029 47.3374C3.30029 36.193 12.3718 27.1676 23.5624 27.1676H24.7139H25.0713L25.187 26.8295C29.5152 14.1811 40.211 4.78263 53.1654 2.32132L53.1655 2.32131C67.3437 -0.374412 82.0068 5.67309 90.4569 17.7337L90.7711 18.1823L91.1893 17.8286C92.2927 16.8953 103.269 7.98411 117.69 11.5269C130.524 14.6812 136.233 25.2687 137.061 26.8892L137.2 27.1616L137.506 27.1617L146.105 27.1629C157.293 27.1629 166.368 36.1964 166.368 47.3327C166.368 58.4693 157.297 67.5108 146.106 67.5108H120.751L85.7377 45.7966L85.7376 45.7966C85.0473 45.3687 84.2508 45.1419 83.4381 45.1416ZM83.4381 45.1416L83.4373 45.6416M83.4381 45.1416C83.4379 45.1416 83.4377 45.1416 83.4374 45.1416L83.4373 45.6416M83.4373 45.6416C84.1573 45.6418 84.8629 45.8427 85.4742 46.2215L81.422 46.2132C82.0268 45.8385 82.7251 45.6405 83.4373 45.6416Z" fill="white" stroke="#68326F"/>
<path d="M164.353 131.649V131.649C164.353 132.606 164.068 133.542 163.534 134.339C163 135.135 162.241 135.756 161.352 136.123C160.463 136.49 159.484 136.587 158.54 136.4C157.596 136.213 156.729 135.751 156.049 135.074C155.369 134.396 154.906 133.534 154.719 132.595C154.531 131.655 154.628 130.682 154.996 129.798C155.364 128.913 155.987 128.157 156.788 127.625C157.588 127.092 158.529 126.809 159.491 126.809L159.491 126.809C160.781 126.809 162.018 127.32 162.929 128.227C163.841 129.135 164.352 130.366 164.353 131.649Z" fill="#1A1A1A" stroke="#68326F"/>
<path d="M154.128 115.995H154.128C153.166 115.994 152.227 115.708 151.428 115.175C150.63 114.642 150.008 113.886 149.642 113.002C149.275 112.118 149.18 111.145 149.368 110.207C149.556 109.269 150.02 108.408 150.7 107.732C151.38 107.055 152.246 106.595 153.189 106.409C154.132 106.222 155.11 106.319 155.998 106.686C156.886 107.052 157.644 107.673 158.178 108.469C158.712 109.264 158.996 110.199 158.996 111.156V111.156C158.997 111.792 158.871 112.422 158.626 113.009C158.382 113.597 158.023 114.131 157.571 114.58C157.119 115.03 156.582 115.386 155.991 115.629C155.4 115.872 154.767 115.996 154.128 115.995Z" fill="#1A1A1A" stroke="#68326F"/>
<path d="M154.128 156.978C153.166 156.977 152.226 156.691 151.428 156.158C150.63 155.625 150.008 154.869 149.641 153.985C149.275 153.1 149.18 152.128 149.368 151.19C149.557 150.252 150.02 149.391 150.7 148.714C151.38 148.038 152.247 147.578 153.19 147.392C154.133 147.206 155.11 147.302 155.999 147.669C156.887 148.036 157.645 148.657 158.179 149.452L158.594 149.174L158.179 149.452C158.712 150.248 158.996 151.183 158.996 152.14C158.996 152.776 158.87 153.405 158.625 153.993C158.381 154.58 158.022 155.114 157.57 155.563C157.118 156.013 156.581 156.369 155.991 156.612C155.4 156.855 154.767 156.979 154.128 156.978Z" fill="#1A1A1A" stroke="#68326F"/>
<path d="M49.1479 158.312V137.955H116.903V158.312H49.1479Z" fill="#CDAAD1" stroke="#68326F"/>
<path d="M49.1479 136.955V116.264H116.903V136.955H49.1479Z" fill="#CDAAD1" stroke="#68326F"/>
<path d="M116.903 115.264H49.1479V96.0365H116.903V115.264Z" fill="#CDAAD1" stroke="#68326F"/>
<path d="M11.1473 89.88L46.118 68.4419L81.6833 46.6395L81.6853 46.6383C82.2107 46.3128 82.8175 46.1406 83.4366 46.1416L83.4373 46.1416C84.0643 46.1417 84.6786 46.3167 85.2107 46.6465C85.2107 46.6465 85.2107 46.6465 85.2108 46.6465L120.345 68.4334L154.92 89.8777H131.444L83.2923 59.3387L83.0245 59.1689L82.7567 59.3387L34.6026 89.88H11.1473Z" fill="#05B8C3" stroke="#68326F"/>
<path d="M131.3 90.88H133.388V111.157V132.228V152.139V158.312H117.902V137.455V115.764V115.759V95.5365V95.0365H117.402H48.6476H48.1476V95.5365V115.759V115.764V137.455V158.312H32.6572V152.139V132.228V111.157V90.88H34.7513H34.8965L35.0191 90.8023L83.0257 60.3554L131.032 90.8023L131.155 90.88H131.3Z" stroke="#68326F"/>
<path d="M16.7756 111.157C16.7756 113.828 14.601 115.996 11.9144 115.996C9.22773 115.996 7.05322 113.828 7.05322 111.157C7.05322 108.486 9.22773 106.317 11.9144 106.317C14.601 106.317 16.7756 108.486 16.7756 111.157Z" fill="#1A1A1A" stroke="#68326F"/>
<path d="M13.0284 147.417C15.643 148.032 17.2594 150.64 16.6433 153.24C16.0272 155.839 13.4105 157.452 10.796 156.838C8.18142 156.223 6.56506 153.615 7.18114 151.015C7.79721 148.416 10.4139 146.803 13.0284 147.417Z" fill="#1A1A1A" stroke="#68326F"/>
<path d="M9.99114 128.226C11.8891 130.116 11.8891 133.181 9.99113 135.071C8.09312 136.962 5.01585 136.962 3.11785 135.071C1.21984 133.181 1.21983 130.116 3.11784 128.226C5.01584 126.335 8.09313 126.335 9.99114 128.226Z" fill="#1A1A1A" stroke="#68326F"/>
<path d="M133.888 90.3801V111.157V132.228V152.139V158.812H117.402H48.6476H32.1572V152.139V132.228V111.157V90.3801" stroke="#68326F" stroke-linecap="round" stroke-linejoin="round"/>
<path d="M117.403 158.812V137.455V115.764V115.759V95.5365H48.6479V115.759V115.764V137.455V158.812" stroke="#68326F" stroke-linecap="round" stroke-linejoin="round"/>
<path d="M48.6431 115.764H48.6478H117.403" stroke="#68326F" stroke-linecap="round" stroke-linejoin="round"/>
<path d="M48.6431 137.455H48.6478H117.403" stroke="#68326F" stroke-linecap="round" stroke-linejoin="round"/>
<path d="M32.1573 90.3801H34.7478L83.0221 59.7634L131.296 90.3801H156.673L120.609 68.0085L85.4742 46.2192C84.8629 45.8403 84.1574 45.6394 83.4374 45.6393C82.7251 45.6382 82.0268 45.8362 81.422 46.2109L45.8567 68.0156L9.375 90.3801H32.1573Z" stroke="#68326F" stroke-linecap="round" stroke-linejoin="round"/>
<path d="M133.888 111.157H148.767" stroke="#68326F" stroke-linecap="round" stroke-linejoin="round"/>
<path d="M154.127 105.817C155.187 105.817 156.224 106.131 157.105 106.717C157.987 107.304 158.674 108.138 159.08 109.114C159.486 110.089 159.592 111.163 159.385 112.199C159.178 113.234 158.667 114.186 157.918 114.932C157.168 115.679 156.213 116.188 155.173 116.394C154.133 116.6 153.055 116.494 152.075 116.09C151.096 115.686 150.258 115.001 149.669 114.123C149.08 113.245 148.766 112.213 148.766 111.157C148.766 109.741 149.331 108.383 150.336 107.382C151.342 106.38 152.705 105.818 154.127 105.817Z" stroke="#68326F" stroke-linecap="round" stroke-linejoin="round"/>
<path d="M133.888 132.228H154.127" stroke="#68326F" stroke-linecap="round" stroke-linejoin="round"/>
<path d="M164.853 131.648C164.853 132.705 164.539 133.738 163.95 134.617C163.36 135.496 162.523 136.181 161.543 136.586C160.563 136.99 159.484 137.096 158.443 136.89C157.403 136.684 156.447 136.175 155.696 135.428C154.946 134.681 154.435 133.729 154.228 132.692C154.022 131.656 154.128 130.582 154.534 129.605C154.94 128.629 155.628 127.795 156.511 127.208C157.393 126.621 158.43 126.308 159.491 126.309C160.913 126.309 162.277 126.872 163.282 127.873C164.287 128.874 164.852 130.232 164.853 131.648Z" stroke="#68326F" stroke-linecap="round" stroke-linejoin="round"/>
<path d="M133.888 152.139H148.767" stroke="#68326F" stroke-linecap="round" stroke-linejoin="round"/>
<path d="M154.127 146.799C155.187 146.799 156.224 147.112 157.105 147.699C157.987 148.286 158.674 149.12 159.08 150.095C159.486 151.071 159.592 152.145 159.385 153.18C159.178 154.216 158.667 155.168 157.918 155.914C157.168 156.661 156.213 157.17 155.173 157.376C154.133 157.582 153.055 157.476 152.075 157.072C151.096 156.668 150.258 155.983 149.669 155.105C149.08 154.227 148.766 153.195 148.766 152.139C148.766 150.723 149.331 149.365 150.336 148.364C151.342 147.362 152.705 146.8 154.127 146.799Z" stroke="#68326F" stroke-linecap="round" stroke-linejoin="round"/>
<path d="M32.1573 111.157H17.2754" stroke="#68326F" stroke-linecap="round" stroke-linejoin="round"/>
<path d="M12.7819 116.419C15.7045 115.947 17.6892 113.204 17.2148 110.293C16.7404 107.383 13.9865 105.406 11.0639 105.878C8.14124 106.351 6.15656 109.094 6.63097 112.004C7.10538 114.915 9.85924 116.892 12.7819 116.419Z" stroke="#68326F" stroke-linecap="round" stroke-linejoin="round"/>
<path d="M32.1576 132.228H11.9146" stroke="#68326F" stroke-linecap="round" stroke-linejoin="round"/>
<path d="M10.3454 135.424C12.4391 133.339 12.4391 129.958 10.3454 127.873C8.25174 125.788 4.85723 125.788 2.76357 127.873C0.669901 129.958 0.669912 133.339 2.76358 135.424C4.85724 137.509 8.25173 137.509 10.3454 135.424Z" stroke="#68326F" stroke-linecap="round" stroke-linejoin="round"/>
<path d="M32.1573 152.139H17.2754" stroke="#68326F" stroke-linecap="round" stroke-linejoin="round"/>
<path d="M13.1384 157.344C16.0201 156.667 17.8048 153.791 17.1246 150.921C16.4445 148.051 13.557 146.273 10.6753 146.951C7.79362 147.628 6.00888 150.504 6.68903 153.374C7.36918 156.244 10.2566 158.021 13.1384 157.344Z" stroke="#68326F" stroke-linecap="round" stroke-linejoin="round"/>
<path d="M45.8567 68.0085H23.5624C12.1075 68.0085 2.80029 58.7532 2.80029 47.3304C2.80029 35.9075 12.0979 26.6605 23.5624 26.6605H24.7139C29.099 13.846 39.9371 4.31866 53.0721 1.82302C67.4481 -0.910291 82.3061 5.22184 90.8664 17.4398C91.9904 16.489 103.137 7.42989 117.809 11.0343C130.864 14.243 136.662 25.0039 137.506 26.6546H146.106C157.566 26.6546 166.868 35.9098 166.868 47.3244C166.868 58.739 157.571 68.0025 146.106 68.0025H120.609" stroke="#68326F" stroke-linecap="round" stroke-linejoin="round"/>
<path d="M35.8218 29.8609C36.3504 28.064 38.9755 19.8605 47.4748 15.0261C57.8213 9.13758 68.2739 13.1342 69.5996 13.6654" stroke="#68326F" stroke-linecap="round" stroke-linejoin="round"/>
<path d="M50.7886 35.204V38.2736" stroke="#68326F" stroke-linecap="round" stroke-linejoin="round"/>
<path d="M61.5776 35.204V38.2736" stroke="#68326F" stroke-linecap="round" stroke-linejoin="round"/>
<path d="M72.3716 35.204V38.2736" stroke="#68326F" stroke-linecap="round" stroke-linejoin="round"/>
<path d="M83.1597 35.204V38.2736" stroke="#68326F" stroke-linecap="round" stroke-linejoin="round"/>
<path d="M93.9487 35.204V38.2736" stroke="#68326F" stroke-linecap="round" stroke-linejoin="round"/>
<path d="M104.738 35.204V38.2736" stroke="#68326F" stroke-linecap="round" stroke-linejoin="round"/>
<path d="M115.527 35.204V38.2736" stroke="#68326F" stroke-linecap="round" stroke-linejoin="round"/>
</g>
<defs>
<clipPath id="clip0_60_9024">
<rect width="168.058" height="160" fill="white"/>
</clipPath>
</defs>
</svg>
