<svg width="64" height="64" viewBox="0 0 64 64" fill="none" xmlns="http://www.w3.org/2000/svg">
<g clip-path="url(#clip0_49_2144)">
<path d="M25.2953 13.0293H21.5518V20.1384H25.2953V13.0293Z" fill="#03656B"/>
<path d="M34.4076 9.09326H30.6641V20.1387H34.4076V9.09326Z" fill="#03656B"/>
<path d="M43.5186 5.29688H39.7764V20.1388H43.5186V5.29688Z" fill="#03656B"/>
<path fill-rule="evenodd" clip-rule="evenodd" d="M22.4678 38.4434H5.92699C5.75649 38.4442 5.5932 38.5175 5.47277 38.6473C5.35234 38.7771 5.28455 38.9529 5.28418 39.1362V42.0175C5.28455 42.2006 5.35243 42.376 5.47294 42.5054C5.59345 42.6347 5.75675 42.7073 5.92699 42.7073H22.4747C22.645 42.7073 22.8083 42.6347 22.9288 42.5054C23.0493 42.376 23.1172 42.2006 23.1176 42.0175V39.1362C23.1174 39.0448 23.1004 38.9543 23.0676 38.8699C23.0348 38.7856 22.9868 38.709 22.9265 38.6446C22.8661 38.5802 22.7945 38.5293 22.7158 38.4948C22.6371 38.4602 22.5528 38.4428 22.4678 38.4434Z" fill="#03656B"/>
<path fill-rule="evenodd" clip-rule="evenodd" d="M24.8234 44.5093H8.27562C8.10525 44.5097 7.94197 44.5826 7.82151 44.7122C7.70104 44.8418 7.63318 45.0174 7.63281 45.2007V48.0834C7.63318 48.2668 7.70098 48.4425 7.8214 48.5724C7.94183 48.7022 8.10513 48.7754 8.27562 48.7762H24.8234C24.9939 48.7754 25.1572 48.7022 25.2776 48.5724C25.398 48.4425 25.4658 48.2668 25.4662 48.0834V45.2007C25.4658 45.0174 25.398 44.8418 25.2775 44.7122C25.157 44.5826 24.9937 44.5097 24.8234 44.5093Z" fill="#03656B"/>
<path d="M20.1095 50.5801H3.56174C3.20673 50.5801 2.91895 50.8896 2.91895 51.2715V54.1527C2.91895 54.5345 3.20673 54.844 3.56174 54.844H20.1095C20.4645 54.844 20.7523 54.5345 20.7523 54.1527V51.2715C20.7523 50.8896 20.4645 50.5801 20.1095 50.5801Z" fill="#03656B"/>
<path fill-rule="evenodd" clip-rule="evenodd" d="M22.4678 56.6475H5.92699C5.75651 56.6475 5.59301 56.7204 5.47246 56.85C5.35192 56.9797 5.28418 57.1555 5.28418 57.3389V60.2216C5.28455 60.4047 5.35243 60.5801 5.47294 60.7095C5.59345 60.8388 5.75675 60.9114 5.92699 60.9114H22.4747C22.645 60.9114 22.8083 60.8388 22.9288 60.7095C23.0493 60.5801 23.1172 60.4047 23.1176 60.2216V57.3389C23.1176 57.2475 23.1007 57.1569 23.068 57.0726C23.0352 56.9882 22.9872 56.9116 22.9268 56.8473C22.8664 56.783 22.7947 56.7323 22.7159 56.698C22.6371 56.6637 22.5528 56.6465 22.4678 56.6475Z" fill="#03656B"/>
<path fill-rule="evenodd" clip-rule="evenodd" d="M22.4672 54.8438C23.0822 54.8446 23.6717 55.1078 24.1066 55.5755C24.5415 56.0432 24.7861 56.6773 24.7868 57.3388V60.2215C24.7857 60.8827 24.5409 61.5164 24.1061 61.9838C23.6713 62.4512 23.0819 62.7141 22.4672 62.7149H5.92641C5.31167 62.7141 4.72231 62.4512 4.28749 61.9838C3.85267 61.5164 3.60785 60.8827 3.60674 60.2215V57.3388C3.60719 57.1048 3.63826 56.8721 3.69899 56.6474H3.57041C2.95543 56.6466 2.36587 56.3835 1.93101 55.9158C1.49615 55.4481 1.25152 54.8139 1.25078 54.1525V51.2727C1.25189 50.6117 1.49673 49.9781 1.93159 49.5109C2.36645 49.0438 2.9558 48.7812 3.57041 48.7808H6.05496C5.99453 48.5555 5.9635 48.3224 5.96274 48.0879V45.2052C5.96339 44.9712 5.99442 44.7386 6.05496 44.5138H5.92641C5.31155 44.5134 4.72198 44.2507 4.28708 43.7832C3.85218 43.3157 3.60748 42.6817 3.60674 42.0204V39.1392C3.60748 38.4776 3.85209 37.8433 4.28691 37.3753C4.72173 36.9074 5.3113 36.6439 5.92641 36.6427H22.4742C23.0893 36.6439 23.6789 36.9074 24.1137 37.3753C24.5485 37.8433 24.7931 38.4776 24.7938 39.1392V42.0204C24.7933 42.2538 24.7622 42.4861 24.7016 42.7103H24.8302C25.4451 42.7111 26.0347 42.9742 26.4696 43.4419C26.9045 43.9096 27.1491 44.5437 27.1498 45.2052V48.0879C27.1491 48.7494 26.9045 49.3835 26.4696 49.8513C26.0347 50.319 25.4451 50.5821 24.8302 50.5829H22.3456C22.4062 50.807 22.4373 51.0393 22.4378 51.2727V54.1555C22.4374 54.3894 22.4063 54.6222 22.3456 54.8468L22.4672 54.8438ZM15.5683 28.3508H2.05987C1.8375 28.3508 1.62424 28.2558 1.46701 28.0866C1.30977 27.9175 1.22144 27.6881 1.22144 27.449C1.22144 27.2098 1.30977 26.9804 1.46701 26.8113C1.62424 26.6422 1.8375 26.5472 2.05987 26.5472H15.5683C15.7907 26.5472 16.004 26.6422 16.1612 26.8113C16.3184 26.9804 16.4068 27.2098 16.4068 27.449C16.4068 27.6881 16.3184 27.9175 16.1612 28.0866C16.004 28.2558 15.7907 28.3508 15.5683 28.3508ZM15.5683 23.669H2.05987C1.8375 23.669 1.62424 23.574 1.46701 23.4048C1.30977 23.2357 1.22144 23.0063 1.22144 22.7672C1.22144 22.528 1.30977 22.2986 1.46701 22.1295C1.62424 21.9604 1.8375 21.8654 2.05987 21.8654H15.5683C15.7907 21.8654 16.004 21.9604 16.1612 22.1295C16.3184 22.2986 16.4068 22.528 16.4068 22.7672C16.4068 23.0063 16.3184 23.2357 16.1612 23.4048C16.004 23.574 15.7907 23.669 15.5683 23.669ZM15.5683 18.9887H2.05987C1.8375 18.9887 1.62424 18.8937 1.46701 18.7246C1.30977 18.5554 1.22144 18.3261 1.22144 18.0869C1.22144 17.8477 1.30977 17.6184 1.46701 17.4492C1.62424 17.2801 1.8375 17.1851 2.05987 17.1851H15.5683C15.7907 17.1851 16.004 17.2801 16.1612 17.4492C16.3184 17.6184 16.4068 17.8477 16.4068 18.0869C16.4068 18.3261 16.3184 18.5554 16.1612 18.7246C16.004 18.8937 15.7907 18.9887 15.5683 18.9887ZM15.5683 14.3099H2.05987C1.8375 14.3099 1.62424 14.2149 1.46701 14.0458C1.30977 13.8766 1.22144 13.6473 1.22144 13.4081C1.22144 13.1689 1.30977 12.9396 1.46701 12.7705C1.62424 12.6013 1.8375 12.5063 2.05987 12.5063H15.5683C15.7907 12.5063 16.004 12.6013 16.1612 12.7705C16.3184 12.9396 16.4068 13.1689 16.4068 13.4081C16.4068 13.6473 16.3184 13.8766 16.1612 14.0458C16.004 14.2149 15.7907 14.3099 15.5683 14.3099ZM8.59122 10.1391H0.00292969V64.0015H43.9351C43.9162 63.8869 43.9064 63.7707 43.9058 63.6543V60.6228C43.9084 60.5495 43.8881 60.4773 43.8481 60.4179C43.808 60.3585 43.7506 60.3153 43.685 60.2952C43.0478 60.0687 42.4271 59.7919 41.8279 59.467C41.7682 59.4306 41.6989 59.417 41.6311 59.4285C41.5633 59.4399 41.5012 59.4758 41.4548 59.5301L39.4622 61.6734C39.2766 61.8731 39.0562 62.0315 38.8137 62.1396C38.5712 62.2477 38.3112 62.3034 38.0487 62.3034C37.7861 62.3034 37.5262 62.2477 37.2837 62.1396C37.0411 62.0315 36.8208 61.8731 36.6352 61.6734L33.8726 58.702C33.4986 58.2983 33.2886 57.7516 33.2886 57.1817C33.2886 56.6118 33.4986 56.0651 33.8726 55.6614L35.8653 53.5182C35.9156 53.4682 35.9489 53.4015 35.9598 53.3287C35.9707 53.2559 35.9585 53.1814 35.9253 53.1169C35.622 52.4729 35.3641 51.8051 35.154 51.1194C35.1352 51.0488 35.0947 50.987 35.0392 50.9442C34.9836 50.9014 34.9162 50.8799 34.848 50.8835H32.0323C31.5019 50.8827 30.9935 50.6556 30.6186 50.2521C30.2437 49.8486 30.033 49.3017 30.0326 48.7312V44.5229C30.0333 43.9528 30.2443 43.4064 30.6192 43.0034C30.9941 42.6005 31.5023 42.374 32.0323 42.3736H34.8494C34.9178 42.3761 34.9851 42.354 35.0406 42.3107C35.096 42.2674 35.1364 42.2054 35.1554 42.1346C35.3647 41.4488 35.6221 40.7811 35.9253 40.1372C35.9585 40.0727 35.9707 39.9981 35.9598 39.9253C35.9489 39.8526 35.9156 39.7859 35.8653 39.7359L33.8656 37.5956C33.4915 37.1917 33.2815 36.6447 33.2815 36.0746C33.2815 35.5044 33.4915 34.9575 33.8656 34.5536L36.6282 31.5837C37.0036 31.1814 37.5118 30.9555 38.0417 30.9555C38.5715 30.9555 39.0798 31.1814 39.4551 31.5837L41.4478 33.7269C41.4942 33.7813 41.5562 33.8173 41.6239 33.829C41.6916 33.8407 41.761 33.8275 41.8209 33.7915C42.4197 33.4653 43.0405 33.1879 43.678 32.9619C43.7439 32.9417 43.8015 32.8983 43.8415 32.8385C43.8816 32.7788 43.9018 32.7063 43.8988 32.6328V29.6042C43.8996 29.0341 44.1104 28.4875 44.4853 28.0843C44.8601 27.6811 45.3683 27.4543 45.8984 27.4535H47.0163V0H9.42685V9.23732C9.42685 9.47649 9.33852 9.70587 9.18129 9.87499C9.02405 10.0441 8.81079 10.1391 8.58842 10.1391H8.59122ZM44.9552 24.67H20.1154C19.893 24.67 19.6798 24.575 19.5225 24.4058C19.3653 24.2367 19.277 24.0073 19.277 23.7682C19.277 23.529 19.3653 23.2996 19.5225 23.1305C19.6798 22.9614 19.893 22.8664 20.1154 22.8664H44.9552C45.1776 22.8664 45.3908 22.9614 45.5481 23.1305C45.7053 23.2996 45.7936 23.529 45.7936 23.7682C45.7936 24.0073 45.7053 24.2367 45.5481 24.4058C45.3908 24.575 45.1776 24.67 44.9552 24.67ZM38.0997 21.0343V4.39622C38.0997 4.15705 38.188 3.92768 38.3452 3.75856C38.5025 3.58944 38.7158 3.49443 38.9381 3.49443H44.3544C44.5767 3.49443 44.79 3.58944 44.9472 3.75856C45.1045 3.92768 45.1928 4.15705 45.1928 4.39622V21.0403C45.1928 21.2794 45.1045 21.5088 44.9472 21.6779C44.79 21.847 44.5767 21.942 44.3544 21.942H38.9353C38.713 21.942 38.4997 21.847 38.3424 21.6779C38.1852 21.5088 38.0969 21.2794 38.0969 21.0403L38.0997 21.0343ZM35.2462 21.936H29.8216C29.5992 21.936 29.386 21.841 29.2287 21.6719C29.0715 21.5028 28.9832 21.2734 28.9832 21.0343V8.18524C28.9832 7.94607 29.0715 7.71671 29.2287 7.54759C29.386 7.37847 29.5992 7.28345 29.8216 7.28345H35.242C35.4644 7.28345 35.6777 7.37847 35.8349 7.54759C35.9921 7.71671 36.0805 7.94607 36.0805 8.18524V21.0343C36.0805 21.2734 35.9921 21.5028 35.8349 21.6719C35.6777 21.841 35.4644 21.936 35.242 21.936H35.2462ZM26.1339 21.936H20.7135C20.4911 21.936 20.2779 21.841 20.1206 21.6719C19.9634 21.5028 19.8751 21.2734 19.8751 21.0343V12.1216C19.8751 11.8824 19.9634 11.653 20.1206 11.4839C20.2779 11.3148 20.4911 11.2198 20.7135 11.2198H26.1339C26.3563 11.2198 26.5695 11.3148 26.7268 11.4839C26.884 11.653 26.9724 11.8824 26.9724 12.1216V21.0343C26.9731 21.1532 26.9519 21.2711 26.9101 21.3812C26.8683 21.4913 26.8067 21.5914 26.7288 21.6758C26.6508 21.7602 26.5581 21.8271 26.4561 21.8728C26.354 21.9185 26.2445 21.942 26.1339 21.942V21.936Z" fill="#03656B"/>
<path fill-rule="evenodd" clip-rule="evenodd" d="M31.7031 48.731C31.7035 48.823 31.7376 48.911 31.7981 48.9761C31.8585 49.0411 31.9404 49.0778 32.0259 49.0782H34.8416C35.263 49.0773 35.6739 49.2199 36.0152 49.4856C36.3566 49.7513 36.6111 50.1264 36.7421 50.5571C36.9252 51.1561 37.1499 51.7394 37.4142 52.3021C37.6055 52.7061 37.6728 53.1649 37.6065 53.6126C37.5403 54.0603 37.3438 54.4739 37.0453 54.794L35.0526 56.9373C35.0228 56.9695 34.9992 57.0077 34.9831 57.0498C34.9671 57.0918 34.9589 57.1369 34.959 57.1823C34.959 57.2745 34.9926 57.363 35.0526 57.4288L37.8139 60.3972C37.8745 60.4616 37.9564 60.4977 38.0417 60.4977C38.1269 60.4977 38.2087 60.4616 38.2694 60.3972L40.2621 58.2539C40.5599 57.9333 40.9444 57.7223 41.3606 57.651C41.7768 57.5797 42.2032 57.6519 42.5789 57.8571C43.1022 58.1424 43.6451 58.3841 44.2027 58.5801C44.6026 58.7214 44.9507 58.9949 45.1974 59.3618C45.4441 59.7286 45.5768 60.1699 45.5763 60.6226V63.6541C45.5767 63.7461 45.6108 63.8342 45.6713 63.8992C45.7317 63.9642 45.8136 64.0009 45.8991 64.0013H49.8048C49.8903 64.0009 49.9722 63.9642 50.0326 63.8992C50.0931 63.8342 50.1272 63.7461 50.1276 63.6541V60.6241C50.1268 60.1709 50.2593 59.729 50.5063 59.3618C50.7534 58.9947 51.1021 58.721 51.5026 58.5801C52.0598 58.3841 52.6021 58.1424 53.1249 57.8571C53.5005 57.6514 53.9271 57.579 54.3434 57.6503C54.7597 57.7216 55.1442 57.9329 55.4418 58.2539L57.4345 60.3972C57.4952 60.4616 57.577 60.4977 57.6623 60.4977C57.7475 60.4977 57.8293 60.4616 57.89 60.3972L60.6513 57.4288C60.6813 57.3964 60.7051 57.358 60.7211 57.3157C60.7372 57.2734 60.7453 57.228 60.7449 57.1823C60.7453 57.1368 60.7373 57.0917 60.7212 57.0496C60.7051 57.0075 60.6813 56.9693 60.6513 56.9373L58.6586 54.794C58.3605 54.4737 58.1643 54.0601 58.098 53.6125C58.0318 53.1649 58.0989 52.7062 58.2897 52.3021C58.5539 51.7391 58.779 51.1559 58.9632 50.5571C59.0938 50.1264 59.3479 49.7512 59.6891 49.4855C60.0303 49.2198 60.441 49.0772 60.8622 49.0782H63.6794C63.7644 49.0766 63.8455 49.0395 63.9055 48.9747C63.9655 48.9099 63.9997 48.8225 64.0007 48.731V44.5227C64.0007 44.4308 63.967 44.3428 63.9067 44.2777C63.8465 44.2126 63.7647 44.1759 63.6794 44.1755H60.8622C60.441 44.1765 60.0303 44.0339 59.6891 43.7682C59.3479 43.5025 59.0938 43.1273 58.9632 42.6965C58.779 42.0978 58.5539 41.5146 58.2897 40.9516C58.0989 40.5475 58.0318 40.0888 58.098 39.6412C58.1643 39.1936 58.3605 38.78 58.6586 38.4596L60.6513 36.3164C60.7115 36.2513 60.7453 36.1632 60.7453 36.0714C60.7453 35.9796 60.7115 35.8915 60.6513 35.8264L57.89 32.8565C57.8293 32.7921 57.7475 32.756 57.6623 32.756C57.577 32.756 57.4952 32.7921 57.4345 32.8565L55.4418 35.0013C55.1438 35.3217 54.7593 35.5326 54.3432 35.6039C53.9271 35.6751 53.5007 35.6031 53.1249 35.3981C52.6023 35.1121 52.0599 34.8699 51.5026 34.6736C51.1021 34.5327 50.7534 34.259 50.5063 33.8919C50.2593 33.5247 50.1268 33.0828 50.1276 32.6296V29.6011C50.1276 29.5555 50.1192 29.5105 50.103 29.4684C50.0867 29.4264 50.0629 29.3882 50.033 29.3561C50.003 29.324 49.9674 29.2985 49.9282 29.2813C49.8891 29.264 49.8471 29.2552 49.8048 29.2554H45.8991C45.8568 29.2552 45.8149 29.264 45.7757 29.2813C45.7366 29.2985 45.7009 29.324 45.6709 29.3561C45.6409 29.3882 45.6172 29.4264 45.6009 29.4684C45.5847 29.5105 45.5763 29.5555 45.5763 29.6011V32.6356C45.5772 33.0884 45.4447 33.5299 45.1979 33.8968C44.9512 34.2637 44.6028 34.5372 44.2027 34.6781C43.6453 34.8758 43.1024 35.1185 42.5789 35.4041C42.2031 35.6087 41.7768 35.6804 41.3608 35.6092C40.9448 35.5379 40.5603 35.3273 40.2621 35.0073L38.2694 32.8625C38.2087 32.7981 38.1269 32.762 38.0417 32.762C37.9564 32.762 37.8745 32.7981 37.8139 32.8625L35.0526 35.8324C34.9927 35.8977 34.9592 35.9857 34.9592 36.0774C34.9592 36.1691 34.9927 36.2571 35.0526 36.3224L37.0453 38.4657C37.3438 38.7858 37.5403 39.1994 37.6065 39.6471C37.6728 40.0948 37.6055 40.5536 37.4142 40.9576C37.1496 41.5202 36.9249 42.1035 36.7421 42.7026C36.6111 43.1331 36.3569 43.508 36.0158 43.7737C35.6747 44.0393 35.2642 44.182 34.843 44.1815H32.0259C31.9404 44.1819 31.8585 44.2186 31.7981 44.2836C31.7376 44.3486 31.7035 44.4367 31.7031 44.5287V48.737V48.731ZM38.2009 46.6269C38.2007 44.5736 38.7665 42.5664 39.8269 40.859C40.8873 39.1516 42.3946 37.8208 44.1582 37.0349C45.9218 36.2489 47.8624 36.0431 49.7347 36.4435C51.6071 36.8439 53.327 37.8325 54.6769 39.2843C56.0269 40.736 56.9462 42.5858 57.3188 44.5995C57.6913 46.6133 57.5003 48.7007 56.7698 50.5977C56.0393 52.4946 54.8022 54.1161 53.215 55.2568C51.6278 56.3976 49.7616 57.0064 47.8526 57.0064C45.2956 57.0021 42.8444 55.9076 41.0363 53.9628C39.2282 52.0181 38.2106 49.3817 38.2065 46.6314L38.2009 46.6269Z" fill="#03656B"/>
<path fill-rule="evenodd" clip-rule="evenodd" d="M47.8483 42.6353C47.1131 42.635 46.3943 42.8692 45.7828 43.3084C45.1713 43.7476 44.6946 44.372 44.4131 45.1026C44.1316 45.8331 44.0579 46.6371 44.2012 47.4128C44.3446 48.1884 44.6987 48.9009 45.2186 49.4601C45.7386 50.0193 46.401 50.4002 47.1222 50.5544C47.8433 50.7086 48.5908 50.6293 49.27 50.3265C49.9493 50.0237 50.5298 49.5111 50.9381 48.8534C51.3465 48.1957 51.5642 47.4225 51.564 46.6317C51.5628 45.5721 51.171 44.5563 50.4744 43.8071C49.7779 43.0579 48.8335 42.6364 47.8483 42.6353Z" fill="#03656B"/>
<path fill-rule="evenodd" clip-rule="evenodd" d="M7.75099 8.33539V1.27588L1.1875 8.33539H7.75099Z" fill="#03656B"/>
</g>
<defs>
<clipPath id="clip0_49_2144">
<rect width="64" height="64" fill="white"/>
</clipPath>
</defs>
</svg>
