<svg width="64" height="64" viewBox="0 0 64 64" fill="none" xmlns="http://www.w3.org/2000/svg">
<g clip-path="url(#clip0_49_2093)">
<path d="M0.734375 63.2637H7.5477" stroke="white" stroke-width="2" stroke-linecap="round" stroke-linejoin="round"/>
<path d="M17.3252 63.2637H26.9681" stroke="white" stroke-width="2" stroke-linecap="round" stroke-linejoin="round"/>
<path d="M12.4384 10.6016C11.4621 10.6023 10.5076 10.3135 9.69549 9.77155C8.88341 9.22963 8.25028 8.45899 7.87631 7.55716C7.50235 6.65532 7.40437 5.66283 7.59465 4.70526C7.78493 3.74769 8.25497 2.86808 8.94531 2.17773C9.63566 1.48739 10.5152 1.01733 11.4728 0.827054C12.4304 0.636775 13.4228 0.734817 14.3247 1.10878C15.2265 1.48274 15.9972 2.11582 16.5391 2.92789C17.0811 3.73997 17.3699 4.69454 17.3692 5.67083C17.3671 6.97792 16.847 8.2309 15.9227 9.15516C14.9985 10.0794 13.7455 10.5996 12.4384 10.6016Z" fill="#05B8C3" stroke="white" stroke-width="2" stroke-linecap="round" stroke-linejoin="round"/>
<path d="M17.3248 63.264L21.159 21.5291H36.4613C37.2085 21.5446 37.9374 21.297 38.5205 20.8295C39.1037 20.362 39.5039 19.7044 39.6512 18.9717C39.7267 18.531 39.7049 18.0791 39.5874 17.6478C39.4699 17.2164 39.2594 16.8159 38.9709 16.4744C38.6823 16.1329 38.3227 15.8586 37.917 15.6707C37.5112 15.4828 37.0694 15.3859 36.6223 15.3867H5.85687C4.5003 15.3867 3.19906 15.9248 2.23874 16.883C1.27843 17.8411 0.737421 19.1411 0.734375 20.4977V34.339C0.738434 35.5505 1.22254 36.711 2.08064 37.5663C2.93874 38.4215 4.10084 38.9017 5.31235 38.9017L7.54771 63.2487L17.3248 63.264Z" fill="#05B8C3" stroke="#05B8C3" stroke-width="2" stroke-linecap="round" stroke-linejoin="round"/>
<path d="M17.3248 63.264L21.159 21.5291H36.4613C37.2085 21.5446 37.9374 21.297 38.5205 20.8295C39.1037 20.362 39.5039 19.7044 39.6512 18.9717C39.7267 18.531 39.7049 18.0791 39.5874 17.6478C39.4699 17.2164 39.2594 16.8159 38.9709 16.4744C38.6823 16.1329 38.3226 15.8586 37.9169 15.6707C37.5112 15.4828 37.0694 15.3859 36.6223 15.3867H5.85687C4.5003 15.3867 3.19906 15.9248 2.23874 16.883C1.27843 17.8411 0.737421 19.1411 0.734375 20.4977V34.339C0.738434 35.5505 1.22254 36.711 2.08064 37.5663C2.93874 38.4215 4.10084 38.9017 5.31235 38.9017L7.54771 63.2487" stroke="white" stroke-width="2" stroke-linecap="round" stroke-linejoin="round"/>
<path d="M32.4844 26.9736V41.5895" stroke="white" stroke-width="2" stroke-linecap="round" stroke-linejoin="round"/>
<path d="M40.1768 26.9736V41.5895" stroke="white" stroke-width="2" stroke-linecap="round" stroke-linejoin="round"/>
<path d="M54.3173 26.9736H49.122C48.4317 26.9736 47.8721 27.5333 47.8721 28.2236V40.3396C47.8721 41.0299 48.4317 41.5895 49.122 41.5895H54.3173C55.0076 41.5895 55.5673 41.0299 55.5673 40.3396V28.2236C55.5673 27.5333 55.0076 26.9736 54.3173 26.9736Z" stroke="white" stroke-width="2" stroke-linecap="round" stroke-linejoin="round"/>
<path d="M63.2656 26.9736V41.5895" stroke="white" stroke-width="2" stroke-linecap="round" stroke-linejoin="round"/>
<path d="M32.4844 48.6475V63.2633" stroke="white" stroke-width="2" stroke-linecap="round" stroke-linejoin="round"/>
<path d="M46.622 48.6475H41.4267C40.7364 48.6475 40.1768 49.2071 40.1768 49.8974V62.0134C40.1768 62.7037 40.7364 63.2633 41.4267 63.2633H46.622C47.3123 63.2633 47.8719 62.7037 47.8719 62.0134V49.8974C47.8719 49.2071 47.3123 48.6475 46.622 48.6475Z" stroke="white" stroke-width="2" stroke-linecap="round" stroke-linejoin="round"/>
<path d="M62.0126 48.6475H56.8173C56.127 48.6475 55.5674 49.2071 55.5674 49.8974V62.0134C55.5674 62.7037 56.127 63.2633 56.8173 63.2633H62.0126C62.703 63.2633 63.2626 62.7037 63.2626 62.0134V49.8974C63.2626 49.2071 62.703 48.6475 62.0126 48.6475Z" stroke="white" stroke-width="2" stroke-linecap="round" stroke-linejoin="round"/>
</g>
<defs>
<clipPath id="clip0_49_2093">
<rect width="64" height="64" fill="white"/>
</clipPath>
</defs>
</svg>
