<svg width="200" height="160" viewBox="0 0 200 160" fill="none" xmlns="http://www.w3.org/2000/svg">
<g clip-path="url(#clip0_59_1515)">
<path d="M156.086 96.3785C154.986 96.3271 153.916 96.0025 152.975 95.4343C152.033 94.8661 151.249 94.0724 150.695 93.1257C147.929 88.5226 143.822 84.8642 138.919 82.6351C138.876 82.6151 138.839 82.5854 138.809 82.5484C138.78 82.5114 138.759 82.4681 138.749 82.422C138.15 79.5805 135.765 72.7568 133.326 69.8483C133.284 69.7866 133.267 69.7118 133.277 69.6383C133.288 69.5648 133.326 69.4978 133.383 69.4502C133.44 69.4026 133.513 69.3778 133.588 69.3806C133.662 69.3834 133.733 69.4136 133.787 69.4654C136.282 72.4422 138.634 79.1089 139.282 82.1541C144.238 84.4402 148.387 88.1577 151.19 92.8226C152.437 94.8942 155.08 96.4759 157.712 95.4848L184.154 85.9177C184.231 85.8971 184.312 85.9067 184.382 85.9445C184.452 85.9823 184.504 86.0454 184.528 86.1207C184.549 86.1911 184.543 86.2667 184.512 86.3332C184.48 86.3996 184.425 86.4523 184.358 86.4813L157.915 96.0484C157.33 96.265 156.711 96.3768 156.086 96.3785Z" fill="#05B8C3"/>
<path d="M124.191 153.855C124.153 153.855 124.114 153.848 124.078 153.833C124.042 153.818 124.009 153.796 123.982 153.769C123.954 153.742 123.932 153.709 123.918 153.673C123.903 153.638 123.895 153.599 123.895 153.56V138.773C123.895 137.51 123.391 136.299 122.493 135.406C121.595 134.513 120.378 134.012 119.109 134.012H112.232C110.962 134.012 109.745 134.513 108.847 135.406C107.95 136.299 107.446 137.51 107.446 138.773V146.503C107.446 146.582 107.414 146.657 107.358 146.713C107.302 146.769 107.226 146.8 107.146 146.8C107.067 146.8 106.991 146.769 106.935 146.713C106.879 146.657 106.847 146.582 106.847 146.503V138.773C106.85 137.353 107.418 135.992 108.427 134.988C109.436 133.984 110.805 133.418 112.232 133.416H119.112C120.539 133.418 121.907 133.984 122.917 134.988C123.926 135.992 124.494 137.353 124.497 138.773V153.56C124.497 153.599 124.489 153.638 124.474 153.673C124.46 153.709 124.438 153.742 124.41 153.769C124.383 153.797 124.35 153.818 124.314 153.833C124.278 153.848 124.239 153.856 124.2 153.855H124.191Z" fill="#05B8C3"/>
<path d="M42.169 91.0704C40.9747 91.0703 39.8145 90.6739 38.8721 89.9439L8.04488 66.1422C7.98234 66.0927 7.94202 66.0206 7.93272 65.9417C7.92342 65.8627 7.9459 65.7833 7.99524 65.7207C8.04195 65.6596 8.11105 65.6193 8.18749 65.6087C8.26392 65.598 8.34149 65.6179 8.40328 65.6639L8.4128 65.672L39.2346 89.4737C40.2382 90.2482 41.5099 90.5945 42.7702 90.4367C44.0304 90.2789 45.1761 89.6298 45.9556 88.6321C48.0649 85.8052 50.6872 83.3958 53.6872 81.5283C55.0276 77.9983 57.2069 74.8435 60.039 72.3333C60.5409 71.9545 60.9629 71.481 61.2808 70.9399C61.5987 70.3988 61.8064 69.8006 61.892 69.1797C61.9775 68.5587 61.9393 67.9271 61.7795 67.3208C61.6197 66.7146 61.3414 66.1456 60.9605 65.6463V65.6416L56.0151 59.2184C55.967 59.1556 55.946 59.0764 55.9566 58.9982C55.9673 58.9199 56.0087 58.8491 56.0719 58.8013C56.135 58.7535 56.2146 58.7326 56.2933 58.7432C56.3719 58.7538 56.4431 58.795 56.4911 58.8578L61.4365 65.285C62.298 66.4123 62.6778 67.8321 62.4936 69.2363C62.3094 70.6405 61.5759 71.9157 60.4525 72.7853C57.6734 75.2468 55.5418 78.3474 54.2435 81.8165C54.221 81.8778 54.1783 81.9298 54.1225 81.964C51.1374 83.8033 48.5298 86.1887 46.4378 88.994C45.9327 89.6412 45.2854 90.1648 44.5454 90.5247C43.8055 90.8846 42.9926 91.0713 42.169 91.0704Z" fill="#05B8C3"/>
<path d="M49.8606 126.654C49.7844 126.654 49.7111 126.624 49.6566 126.571C46.7221 123.907 44.3763 120.665 42.7681 117.052C41.1599 113.438 40.3244 109.531 40.3146 105.579C40.3146 104.316 39.8103 103.105 38.9127 102.212C38.0151 101.319 36.7977 100.817 35.5283 100.817H10.162C10.1223 100.818 10.083 100.81 10.0462 100.795C10.0095 100.78 9.97617 100.758 9.94806 100.73C9.91995 100.702 9.89764 100.669 9.88242 100.632C9.86721 100.596 9.85937 100.557 9.85938 100.517C9.8608 100.438 9.89332 100.363 9.94992 100.308C10.0065 100.252 10.0827 100.221 10.162 100.221H35.5433C36.9707 100.224 38.3388 100.79 39.3481 101.794C40.3575 102.798 40.9258 104.159 40.9287 105.579C40.9333 109.448 41.7473 113.273 43.3187 116.812C44.8902 120.351 47.1847 123.525 50.0565 126.134C50.1124 126.189 50.1442 126.264 50.1449 126.342C50.1455 126.42 50.1149 126.496 50.0599 126.551H50.0565C50.0284 126.582 49.9945 126.606 49.9566 126.623C49.9187 126.64 49.8777 126.65 49.8361 126.65L49.8606 126.654Z" fill="#05B8C3"/>
<path d="M44.8072 146.815C44.7561 146.815 44.7057 146.802 44.661 146.777C44.6163 146.752 44.5789 146.716 44.5523 146.673C44.5258 146.629 44.511 146.58 44.5094 146.529C44.5078 146.478 44.5195 146.427 44.5434 146.382L51.1706 133.663C52.4892 131.132 55.4624 130.192 58.4078 131.378C61.7402 132.727 65.3048 133.417 68.9025 133.41H71.3752C72.8025 133.413 74.1705 133.978 75.1798 134.982C76.1892 135.986 76.7576 137.347 76.7606 138.767V146.503C76.7625 146.543 76.7562 146.583 76.742 146.621C76.7279 146.659 76.7061 146.694 76.6781 146.723C76.6501 146.752 76.6164 146.775 76.5791 146.791C76.5418 146.807 76.5016 146.815 76.461 146.815C76.4205 146.815 76.3803 146.807 76.343 146.791C76.3057 146.775 76.272 146.752 76.244 146.723C76.216 146.694 76.1942 146.659 76.18 146.621C76.1659 146.583 76.1595 146.543 76.1615 146.503V138.773C76.1602 137.51 75.6557 136.299 74.7586 135.406C73.8614 134.512 72.6447 134.009 71.3752 134.006H68.9025C65.2253 134.014 61.5819 133.308 58.1766 131.927C55.5339 130.866 52.8721 131.686 51.6983 133.939L45.0602 146.654C45.0358 146.701 44.9995 146.74 44.9552 146.768C44.9108 146.796 44.8598 146.812 44.8072 146.815Z" fill="#05B8C3"/>
<path d="M147.126 148.022C147.073 148.022 147.022 148.008 146.977 147.983C146.931 147.957 146.894 147.92 146.867 147.875L140.125 136.701C139.394 135.481 139.179 134.022 139.526 132.644C139.873 131.267 140.754 130.082 141.977 129.348C145.821 126.963 148.991 123.642 151.186 119.699C153.381 115.756 154.529 111.322 154.522 106.814V106.028C154.403 104.617 154.849 103.216 155.763 102.131C156.677 101.045 157.985 100.363 159.402 100.232L169.996 99.2979C170.036 99.2927 170.077 99.2956 170.115 99.3065C170.154 99.3173 170.19 99.3359 170.222 99.3611C170.253 99.3862 170.279 99.4174 170.298 99.4528C170.317 99.4882 170.328 99.5271 170.331 99.567C170.335 99.607 170.33 99.6472 170.317 99.6852C170.305 99.7232 170.284 99.7583 170.258 99.7883C170.231 99.8183 170.198 99.8426 170.162 99.8597C170.125 99.8768 170.086 99.8864 170.046 99.8879L159.456 100.828C158.194 100.945 157.03 101.554 156.218 102.522C155.405 103.49 155.011 104.738 155.121 105.994V106.814C155.129 111.424 153.954 115.959 151.709 119.991C149.464 124.023 146.222 127.419 142.29 129.857C141.198 130.506 140.409 131.56 140.099 132.788C139.788 134.015 139.98 135.315 140.632 136.401L140.641 136.417L147.381 147.596C147.421 147.664 147.433 147.746 147.413 147.823C147.394 147.899 147.345 147.965 147.276 148.006C147.228 148.025 147.176 148.03 147.126 148.022Z" fill="#05B8C3"/>
<path d="M100.758 157.636C100.679 157.636 100.603 157.605 100.546 157.55C100.489 157.495 100.457 157.419 100.456 157.34V134.553C100.456 133.29 99.9515 132.079 99.0539 131.186C98.1563 130.293 96.9389 129.791 95.6695 129.791H68.9084C62.8511 129.792 57.0124 127.54 52.5386 123.477C51.587 122.644 50.3421 122.22 49.077 122.299C47.8119 122.378 46.6299 122.953 45.7904 123.898L25.6177 146.503C25.5649 146.562 25.491 146.597 25.4119 146.603C25.3328 146.608 25.2548 146.582 25.1947 146.531C25.1352 146.479 25.0985 146.407 25.0926 146.329C25.0868 146.251 25.1122 146.173 25.1634 146.114L25.1675 146.109L45.3402 123.532C46.2857 122.468 47.6168 121.82 49.0416 121.732C50.4663 121.643 51.8683 122.12 52.9398 123.058C57.3031 127.023 62.999 129.221 68.9084 129.221H95.6695C97.0969 129.224 98.465 129.789 99.4744 130.793C100.484 131.798 101.052 133.159 101.055 134.579V157.365C101.055 157.444 101.024 157.52 100.968 157.576C100.913 157.632 100.838 157.664 100.758 157.666V157.636Z" fill="#05B8C3"/>
<path d="M28.7728 125.478C28.6941 125.478 28.6186 125.447 28.5629 125.391C28.5072 125.336 28.4758 125.261 28.4756 125.183C28.4756 125.122 28.4939 125.062 28.5282 125.011C28.5625 124.961 28.6112 124.922 28.668 124.899L43.0819 119.525C44.2681 119.078 45.2277 118.181 45.7503 117.031C46.273 115.882 46.3161 114.573 45.8702 113.391C44.0239 107.995 44.149 102.124 46.2235 96.8112C48.2979 91.4979 52.1889 87.0823 57.2123 84.3408C60.0746 74.4382 70.4055 68.6632 80.3963 71.3795C80.4741 71.3977 80.5416 71.4459 80.5838 71.5135C80.626 71.5811 80.6395 71.6626 80.6213 71.7401C80.6125 71.7778 80.5962 71.8134 80.5735 71.8449C80.5508 71.8763 80.522 71.903 80.489 71.9235C80.4559 71.9439 80.4191 71.9576 80.3806 71.9639C80.3422 71.9701 80.3029 71.9688 80.265 71.96H80.2589C70.534 69.3214 60.4942 74.9788 57.7726 84.6318C57.7631 84.6702 57.7454 84.7063 57.7208 84.7374C57.6962 84.7686 57.6652 84.7941 57.6298 84.8124C52.6959 87.4649 48.8649 91.7692 46.8157 96.9627C44.7665 102.156 44.6313 107.904 46.434 113.187C46.9344 114.515 46.8844 115.986 46.2951 117.278C45.7057 118.569 44.6251 119.575 43.2907 120.075L28.8823 125.454C28.8473 125.468 28.8103 125.476 28.7728 125.478Z" fill="#05B8C3"/>
<path d="M136.63 78.4797C135.58 78.4739 134.554 78.1657 133.677 77.5923C132.799 77.0189 132.107 76.2048 131.684 75.2485C129.486 71.1771 126.372 67.6657 122.585 64.9879C122.518 64.9459 122.47 64.8792 122.453 64.8023C122.435 64.7254 122.449 64.6447 122.491 64.5779C122.533 64.5112 122.601 64.4639 122.678 64.4463C122.755 64.4288 122.836 64.4426 122.903 64.4846H122.931C126.799 67.2228 129.979 70.813 132.223 74.9751C132.728 76.1386 133.677 77.0553 134.86 77.5245C136.044 77.9937 137.366 77.9771 138.537 77.4784L175.03 61.7784C175.065 61.7625 175.102 61.7536 175.141 61.7522C175.179 61.7507 175.217 61.7568 175.253 61.7701C175.288 61.7834 175.321 61.8035 175.349 61.8294C175.377 61.8554 175.4 61.8865 175.416 61.9211C175.418 61.9244 175.419 61.9278 175.42 61.9313C175.452 62.0039 175.453 62.0859 175.424 62.1596C175.395 62.2333 175.339 62.2927 175.266 62.325L138.773 78.0264C138.098 78.3233 137.368 78.4776 136.63 78.4797Z" fill="#05B8C3"/>
<path d="M142.713 79.7706C142.647 79.7706 142.583 79.7492 142.531 79.7098C142.478 79.6704 142.44 79.6151 142.422 79.5521C141.829 77.3499 141.042 75.2039 140.07 73.1391C139.37 71.903 139.19 70.4414 139.57 69.0738C139.95 67.7062 140.859 66.544 142.098 65.8411L146.269 63.5619C146.342 63.5235 146.427 63.5154 146.506 63.5395C146.545 63.5515 146.581 63.5709 146.612 63.5968C146.644 63.6227 146.67 63.6545 146.689 63.6904C146.708 63.7263 146.72 63.7656 146.724 63.806C146.728 63.8465 146.723 63.8873 146.711 63.9261C146.699 63.9649 146.68 64.001 146.654 64.0323C146.628 64.0636 146.596 64.0895 146.56 64.1085L142.389 66.3878C141.286 67.0156 140.478 68.0533 140.143 69.2731C139.808 70.4929 139.974 71.795 140.603 72.8935C141.592 74.9973 142.394 77.1832 142.999 79.4263C143.01 79.4635 143.013 79.5026 143.008 79.5411C143.004 79.5796 142.992 79.6168 142.973 79.6507C142.954 79.6845 142.928 79.7143 142.898 79.7384C142.867 79.7625 142.832 79.7803 142.795 79.7909H142.79L142.713 79.7706Z" fill="#05B8C3"/>
<path d="M165.259 128.331C165.219 128.339 165.178 128.339 165.138 128.331L159.187 125.822C157.872 125.265 156.833 124.212 156.298 122.894C155.763 121.577 155.774 120.101 156.331 118.792C157.28 116.563 157.957 114.228 158.347 111.838C158.897 108.684 161.237 106.716 164.15 106.951L192.834 109.263C192.912 109.269 192.984 109.306 193.035 109.365C193.086 109.424 193.111 109.5 193.106 109.578C193.098 109.655 193.061 109.727 193.001 109.777C192.942 109.828 192.865 109.853 192.788 109.849L164.103 107.542C161.518 107.334 159.437 109.098 158.934 111.915C158.533 114.356 157.842 116.741 156.874 119.019C156.38 120.183 156.371 121.493 156.846 122.664C157.322 123.835 158.245 124.771 159.412 125.267L165.363 127.777C165.436 127.807 165.494 127.864 165.524 127.936C165.554 128.009 165.554 128.09 165.524 128.162C165.502 128.216 165.465 128.263 165.416 128.296C165.368 128.329 165.311 128.347 165.252 128.348L165.259 128.331Z" fill="#05B8C3"/>
<path d="M170.986 143.414C170.907 143.413 170.833 143.382 170.777 143.326L156.611 129.254C156.166 128.811 155.637 128.46 155.055 128.221C154.473 127.983 153.849 127.862 153.22 127.865C152.591 127.862 151.969 127.983 151.387 128.222C150.806 128.46 150.279 128.811 149.835 129.254C145.578 133.41 140.223 136.281 134.392 137.532C134.315 137.547 134.234 137.531 134.168 137.488C134.101 137.446 134.054 137.379 134.035 137.302C134.019 137.225 134.034 137.144 134.077 137.077C134.12 137.011 134.188 136.964 134.266 136.947C140.004 135.731 145.276 132.915 149.465 128.829C149.965 128.331 150.559 127.938 151.213 127.671C151.866 127.404 152.567 127.268 153.274 127.273C153.981 127.27 154.681 127.407 155.335 127.675C155.989 127.943 156.583 128.338 157.082 128.836L171.227 142.908C171.255 142.937 171.276 142.97 171.291 143.007C171.305 143.044 171.312 143.084 171.311 143.123C171.31 143.163 171.302 143.202 171.286 143.238C171.27 143.274 171.247 143.307 171.218 143.334C171.163 143.386 171.09 143.416 171.014 143.417L170.986 143.414Z" fill="#05B8C3"/>
<path d="M39.378 92.3821C39.3363 92.3903 39.2933 92.3903 39.2516 92.3821C39.2159 92.3664 39.1838 92.3438 39.157 92.3157C39.1302 92.2876 39.1092 92.2545 39.0952 92.2183C39.0813 92.1821 39.0746 92.1435 39.0756 92.1048C39.0767 92.066 39.0854 92.0279 39.1013 91.9924V91.9884C40.8953 88.1379 43.3982 84.6557 46.4806 81.7217C46.9225 81.2955 47.2745 80.7859 47.5161 80.2227C47.7577 79.6596 47.884 79.0541 47.8877 78.4418C47.8926 77.8034 47.7704 77.1704 47.5279 76.5793C47.2855 75.9883 46.9277 75.4509 46.4752 74.9982L32.3299 60.9158C32.2743 60.8597 32.2432 60.7841 32.2432 60.7054C32.2432 60.6267 32.2743 60.5511 32.3299 60.495C32.3827 60.44 32.4551 60.408 32.5315 60.4059C32.6079 60.4037 32.6821 60.4316 32.7379 60.4835C32.742 60.4835 32.7454 60.4909 32.7495 60.495L46.8948 74.5672C47.4034 75.0749 47.8058 75.6779 48.0785 76.3414C48.3512 77.0049 48.4888 77.7156 48.4834 78.4324C48.4823 79.1273 48.3406 79.8149 48.0667 80.4541C47.7929 81.0934 47.3924 81.6713 46.8893 82.1534C43.8649 85.0378 41.4054 88.456 39.6358 92.234C39.6102 92.2795 39.5728 92.3172 39.5274 92.3433C39.482 92.3694 39.4304 92.3828 39.378 92.3821Z" fill="#05B8C3"/>
<path d="M32.5474 68.504C36.8783 68.504 40.3891 65.0112 40.3891 60.7027C40.3891 56.3941 36.8783 52.9014 32.5474 52.9014C28.2165 52.9014 24.7056 56.3941 24.7056 60.7027C24.7056 65.0112 28.2165 68.504 32.5474 68.504Z" fill="#B2E9EC"/>
<path d="M97.203 51.7264C95.9822 51.7248 94.798 51.3115 93.8438 50.5539C92.8896 49.7964 92.2218 48.7393 91.9495 47.5554L89.2021 35.2875C89.1868 35.2116 89.202 35.1327 89.2444 35.0678C89.2867 35.0028 89.3529 34.9568 89.4289 34.9397C89.5048 34.9226 89.5844 34.9357 89.6508 34.9761C89.7172 35.0166 89.765 35.0812 89.7842 35.1563L92.5316 47.4262C92.8077 48.6592 93.5643 49.7329 94.6353 50.4114C95.7064 51.0899 97.0043 51.3178 98.2442 51.0451C100.478 50.6565 102.741 50.4607 105.009 50.4599C106.278 50.457 107.495 49.9537 108.392 49.0601C109.289 48.1666 109.794 46.9558 109.795 45.6929C109.796 45.6142 109.829 45.5391 109.885 45.484C109.942 45.4288 110.018 45.3979 110.097 45.3979C110.176 45.3979 110.251 45.429 110.307 45.4843C110.362 45.5396 110.393 45.6146 110.393 45.6929C110.394 46.3964 110.254 47.0931 109.984 47.7431C109.713 48.3931 109.317 48.9837 108.817 49.4812C108.317 49.9787 107.723 50.3734 107.07 50.6426C106.416 50.9119 105.716 51.0505 105.009 51.0505C102.782 51.0464 100.56 51.2311 98.3652 51.6025C97.9834 51.6851 97.5937 51.7266 97.203 51.7264Z" fill="#05B8C3"/>
<path d="M81.8773 67.9934C81.0301 67.9947 80.1946 67.7974 79.4384 67.4175C78.6822 67.0376 78.0267 66.4858 77.5249 65.8068L60.5913 42.846C60.5677 42.814 60.5506 42.7776 60.541 42.739C60.5315 42.7004 60.5297 42.6603 60.5357 42.621C60.5417 42.5817 60.5555 42.544 60.5762 42.51C60.5969 42.476 60.6241 42.4464 60.6563 42.4228C60.6885 42.3993 60.725 42.3823 60.7638 42.3728C60.8026 42.3633 60.8429 42.3615 60.8824 42.3675C60.9219 42.3735 60.9598 42.3872 60.994 42.4077C61.0282 42.4283 61.058 42.4554 61.0817 42.4874L78.0152 65.4475C78.7681 66.4637 79.8945 67.1422 81.1486 67.3349C82.4027 67.5276 83.6824 67.2187 84.7084 66.4759C90.3339 61.5692 97.5607 58.8646 105.042 58.866C108.404 58.8606 111.744 59.3959 114.934 60.4512C115.504 60.7197 116.121 60.8739 116.751 60.9049C117.381 60.936 118.011 60.8433 118.605 60.6321C119.199 60.421 119.745 60.0955 120.213 59.6743C120.68 59.2531 121.06 58.7444 121.33 58.1773L127.193 45.7288C127.23 45.6592 127.292 45.6065 127.367 45.582C127.442 45.5575 127.524 45.5631 127.594 45.5975C127.663 45.6308 127.715 45.6895 127.741 45.761C127.766 45.8325 127.763 45.911 127.73 45.9798L121.867 58.4283C121.259 59.708 120.168 60.6971 118.83 61.1804C117.493 61.6636 116.018 61.6019 114.726 61.0087C110.438 59.5973 105.89 59.1456 101.406 59.686C95.3623 60.4122 89.6818 62.9432 85.113 66.9454C84.1755 67.6312 83.041 67.9986 81.8773 67.9934Z" fill="#05B8C3"/>
<path d="M89.4823 58.3957C88.4298 58.3946 87.4006 58.087 86.5217 57.5109C85.6428 56.9348 84.9526 56.1154 84.5363 55.1537L71.2934 24.8077C71.264 24.7352 71.2642 24.6541 71.2939 24.5817C71.3236 24.5093 71.3805 24.4513 71.4526 24.42C71.5228 24.3881 71.6029 24.3852 71.6754 24.412C71.7478 24.4387 71.8066 24.493 71.8388 24.5628L71.8429 24.5729L85.0749 54.9189C85.5807 56.076 86.527 56.9865 87.7064 57.4506C88.8859 57.9148 90.2021 57.8948 91.3668 57.3951C95.6849 55.5815 100.326 54.653 105.014 54.6652C105.093 54.6666 105.168 54.6989 105.224 54.7551C105.279 54.8113 105.31 54.8869 105.31 54.9656C105.31 55.0439 105.279 55.119 105.223 55.1744C105.168 55.2298 105.092 55.2611 105.014 55.2612C100.405 55.2631 95.8437 56.1929 91.6055 57.9945C90.9321 58.2688 90.21 58.4053 89.4823 58.3957Z" fill="#05B8C3"/>
<path d="M105.006 51.0269C104.926 51.0269 104.849 50.9951 104.792 50.9387C104.736 50.8822 104.704 50.8056 104.704 50.7258C104.705 50.647 104.738 50.572 104.794 50.5168C104.851 50.4617 104.927 50.4308 105.006 50.4308C106.275 50.4278 107.491 49.9249 108.388 49.0321C109.285 48.1394 109.79 46.9295 109.793 45.6672V8.79526C109.793 8.75581 109.8 8.71675 109.815 8.68031C109.831 8.64386 109.853 8.61075 109.881 8.58285C109.909 8.55496 109.942 8.53284 109.979 8.51774C110.016 8.50264 110.055 8.49487 110.094 8.49487C110.173 8.49487 110.249 8.52595 110.304 8.58127C110.36 8.63659 110.391 8.71162 110.391 8.78985V45.6672C110.389 47.0875 109.821 48.449 108.811 49.4535C107.802 50.4581 106.434 51.0238 105.006 51.0269Z" fill="#05B8C3"/>
<path d="M92.7086 36.5113C93.4392 34.7566 92.6016 32.745 90.8378 32.0181C89.0741 31.2913 87.052 32.1246 86.3214 33.8793C85.5908 35.6339 86.4284 37.6456 88.1922 38.3724C89.9559 39.0992 91.978 38.266 92.7086 36.5113Z" fill="#05B8C3"/>
<path d="M57.5251 61.3625C58.826 60.8264 59.4437 59.3427 58.9049 58.0485C58.366 56.7544 56.8746 56.1398 55.5737 56.6759C54.2728 57.2119 53.6551 58.6956 54.1939 59.9898C54.7328 61.284 56.2242 61.8985 57.5251 61.3625Z" fill="#05B8C3"/>
<path d="M130.888 45.5917C130.993 43.6954 129.533 42.0729 127.627 41.9679C125.721 41.8629 124.09 43.315 123.985 45.2114C123.879 47.1077 125.339 48.7302 127.245 48.8352C129.151 48.9402 130.782 47.4881 130.888 45.5917Z" fill="#05B8C3"/>
<path d="M146.412 65.9069C145.968 65.9069 145.534 65.7759 145.165 65.5306C144.796 65.2853 144.508 64.9366 144.338 64.5287C144.168 64.1207 144.124 63.6718 144.211 63.2387C144.297 62.8056 144.511 62.4078 144.825 62.0956C145.139 61.7833 145.539 61.5707 145.974 61.4845C146.409 61.3984 146.86 61.4426 147.271 61.6116C147.681 61.7806 148.031 62.0667 148.278 62.4339C148.524 62.801 148.656 63.2327 148.656 63.6743V63.6797C148.656 63.9719 148.598 64.2612 148.486 64.5312C148.374 64.8011 148.209 65.0464 148.001 65.2531C147.794 65.4597 147.547 65.6236 147.276 65.7355C147.004 65.8473 146.714 65.9049 146.42 65.9049H146.414L146.412 65.9069Z" fill="#B2E9EC"/>
<path d="M170.002 101.821C169.558 101.822 169.123 101.692 168.753 101.448C168.383 101.204 168.094 100.855 167.923 100.448C167.752 100.04 167.706 99.5907 167.792 99.1571C167.878 98.7235 168.091 98.325 168.405 98.012C168.718 97.699 169.118 97.4857 169.554 97.3989C169.989 97.3122 170.441 97.3559 170.851 97.5247C171.262 97.6935 171.613 97.9796 171.86 98.3469C172.107 98.7142 172.238 99.1462 172.238 99.5881V99.5989C172.238 99.8911 172.181 100.18 172.068 100.45C171.956 100.72 171.791 100.966 171.583 101.172C171.376 101.379 171.129 101.543 170.858 101.655C170.586 101.767 170.295 101.824 170.002 101.824V101.821Z" fill="#B2E9EC"/>
<path d="M165.249 130.693C164.72 130.694 164.202 130.539 163.761 130.247C163.321 129.956 162.977 129.541 162.773 129.055C162.57 128.569 162.516 128.033 162.618 127.517C162.72 127 162.974 126.525 163.347 126.152C163.721 125.779 164.197 125.525 164.716 125.421C165.235 125.317 165.773 125.369 166.262 125.569C166.752 125.77 167.171 126.11 167.465 126.547C167.76 126.985 167.918 127.499 167.919 128.025V128.031C167.919 128.736 167.638 129.412 167.137 129.911C166.637 130.41 165.958 130.691 165.249 130.693Z" fill="#05B8C3"/>
<path d="M107.752 149.112C109.187 148.775 110.076 147.344 109.738 145.916C109.399 144.488 107.96 143.604 106.525 143.941C105.089 144.278 104.2 145.709 104.539 147.137C104.878 148.565 106.316 149.449 107.752 149.112Z" fill="#05B8C3"/>
<path d="M76.4641 148.952C77.939 148.952 79.1347 147.763 79.1347 146.295C79.1347 144.828 77.939 143.638 76.4641 143.638C74.9891 143.638 73.7935 144.828 73.7935 146.295C73.7935 147.763 74.9891 148.952 76.4641 148.952Z" fill="#05B8C3"/>
<path d="M31.1779 126.125C31.8254 124.806 31.276 123.215 29.9508 122.571C28.6256 121.927 27.0264 122.473 26.3789 123.792C25.7314 125.11 26.2808 126.701 27.606 127.345C28.9313 127.989 30.5304 127.443 31.1779 126.125Z" fill="#05B8C3"/>
<path d="M45.8544 149.492C47.2704 149.066 48.0715 147.58 47.6437 146.171C47.216 144.762 45.7214 143.965 44.3055 144.391C42.8895 144.816 42.0884 146.303 42.5162 147.712C42.9439 149.121 44.4385 149.918 45.8544 149.492Z" fill="#05B8C3"/>
<path d="M101.008 160C102.476 159.855 103.548 158.555 103.403 157.094C103.258 155.634 101.95 154.568 100.482 154.712C99.0146 154.857 97.9424 156.157 98.0876 157.618C98.2328 159.078 99.5404 160.144 101.008 160Z" fill="#05B8C3"/>
<path d="M124.2 156.217C125.675 156.217 126.871 155.028 126.871 153.561C126.871 152.093 125.675 150.904 124.2 150.904C122.725 150.904 121.53 152.093 121.53 153.561C121.53 155.028 122.725 156.217 124.2 156.217Z" fill="#05B8C3"/>
<path d="M147.071 153.561C150.312 153.561 152.94 150.947 152.94 147.722C152.94 144.497 150.312 141.883 147.071 141.883C143.829 141.883 141.202 144.497 141.202 147.722C141.202 150.947 143.829 153.561 147.071 153.561Z" fill="#B2E9EC"/>
<path d="M180.537 67.4505C183.524 64.4787 183.524 59.6604 180.537 56.6886C177.55 53.7168 172.707 53.7168 169.719 56.6886C166.732 59.6604 166.732 64.4787 169.719 67.4505C172.707 70.4224 177.55 70.4224 180.537 67.4505Z" fill="#05B8C3"/>
<path d="M67.4332 49.7497C71.0858 46.1161 71.0858 40.2247 67.4332 36.5911C63.7807 32.9574 57.8588 32.9574 54.2063 36.5911C50.5537 40.2247 50.5537 46.1161 54.2063 49.7497C57.8588 53.3834 63.7807 53.3834 67.4332 49.7497Z" fill="#05B8C3"/>
<path d="M116.346 15.0155C119.799 11.5805 119.799 6.01129 116.346 2.57631C112.893 -0.858676 107.295 -0.858675 103.842 2.57631C100.389 6.01129 100.389 11.5805 103.842 15.0155C107.295 18.4505 112.893 18.4505 116.346 15.0155Z" fill="#05B8C3"/>
<path d="M71.5681 31.7944C75.5103 31.7944 78.706 28.6152 78.706 24.6934C78.706 20.7715 75.5103 17.5923 71.5681 17.5923C67.6259 17.5923 64.4302 20.7715 64.4302 24.6934C64.4302 28.6152 67.6259 31.7944 71.5681 31.7944Z" fill="#B2E9EC"/>
<path d="M31.5902 153.27C35.013 149.865 35.013 144.344 31.5902 140.939C28.1674 137.534 22.6179 137.534 19.1951 140.939C15.7723 144.344 15.7723 149.865 19.1951 153.27C22.6179 156.675 28.1674 156.675 31.5902 153.27Z" fill="#05B8C3"/>
<path d="M184.278 92.885C187.917 92.885 190.867 89.9504 190.867 86.3305C190.867 82.7106 187.917 79.7761 184.278 79.7761C180.64 79.7761 177.69 82.7106 177.69 86.3305C177.69 89.9504 180.64 92.885 184.278 92.885Z" fill="#B2E9EC"/>
<path d="M192.812 116.458C196.782 116.458 200 113.257 200 109.307C200 105.358 196.782 102.157 192.812 102.157C188.842 102.157 185.625 105.358 185.625 109.307C185.625 113.257 188.842 116.458 192.812 116.458Z" fill="#05B8C3"/>
<path d="M171.87 144.633C174.097 142.417 174.097 138.825 171.87 136.609C169.642 134.393 166.031 134.393 163.804 136.609C161.576 138.825 161.576 142.417 163.804 144.633C166.031 146.849 169.642 146.849 171.87 144.633Z" fill="#05B8C3"/>
<path d="M8.23147 74.0957C12.7776 74.0957 16.4629 70.4294 16.4629 65.9067C16.4629 61.3841 12.7776 57.7178 8.23147 57.7178C3.68535 57.7178 0 61.3841 0 65.9067C0 70.4294 3.68535 74.0957 8.23147 74.0957Z" fill="#05B8C3"/>
<path d="M16.1099 106.435C19.3954 103.167 19.3954 97.8674 16.1099 94.5989C12.8244 91.3304 7.4976 91.3304 4.2121 94.5989C0.926604 97.8674 0.926604 103.167 4.2121 106.435C7.4976 109.704 12.8244 109.704 16.1099 106.435Z" fill="#B2E9EC"/>
<path d="M131.295 88.6957C130.825 74.2534 118.676 62.9239 104.16 63.3927C99.617 63.5387 95.1894 64.8538 91.3093 67.2096C87.4293 69.5654 84.2293 72.8815 82.0215 76.8344C74.9577 73.202 66.2719 75.9549 62.6207 82.9809C61.8904 84.3861 61.3993 85.902 61.1674 87.4671C51.0916 91.6691 46.3475 103.202 50.572 113.226C52.0858 116.815 54.6351 119.877 57.8979 122.025C61.1606 124.172 64.9901 125.31 68.9024 125.292H127.777C138.026 125.279 146.324 117.004 146.311 106.808C146.306 102.527 144.805 98.3807 142.066 95.0789C139.326 91.7771 135.518 89.5252 131.294 88.7085L131.295 88.6957ZM127.777 123.087H68.9024C59.1911 123.113 51.297 115.302 51.2705 105.641C51.2609 102.19 52.2772 98.8144 54.1914 95.9373C56.1056 93.0602 58.8322 90.8104 62.0284 89.471L63.1654 88.99L63.347 87.7722C63.7885 84.901 65.2464 82.2812 67.4578 80.3848C69.6693 78.4884 72.4889 77.4402 75.4086 77.4291C77.3556 77.4256 79.2747 77.8898 81.0028 78.7822L82.9069 79.7612L83.9508 77.902C90.4243 66.333 105.101 62.1722 116.73 68.6123C120.365 70.6252 123.415 73.5399 125.582 77.0729C127.749 80.6059 128.96 84.6368 129.097 88.7735L129.152 90.523L130.883 90.8505C139.76 92.4891 145.622 100.977 143.974 109.808C143.274 113.564 141.268 116.954 138.306 119.386C135.345 121.817 131.618 123.133 127.778 123.104L127.777 123.087Z" fill="#68326F"/>
<path d="M99.7652 93.3964C101.862 93.3964 103.958 93.4005 106.055 93.3964C107.045 93.3964 107.833 92.8234 108.117 91.929C108.587 90.4514 107.266 88.9867 105.737 89.2904C105.626 89.3128 105.517 89.3446 105.407 89.3716C104.999 89.4724 104.713 89.285 104.653 88.8737C104.445 87.4394 103.612 86.6093 102.179 86.4219C101.771 86.3775 101.359 86.4417 100.984 86.6079C100.672 86.7371 100.43 86.6918 100.183 86.457C99.4197 85.7277 98.5179 85.4023 97.4509 85.5667C97.0871 85.6229 96.8083 85.4185 96.7708 85.1154C96.7266 84.7819 96.9545 84.5282 97.3707 84.4835C98.5077 84.3611 99.5618 84.583 100.479 85.2954C100.687 85.4564 100.876 85.4896 101.134 85.4368C103.095 85.0309 104.867 86.0146 105.545 87.8798C105.627 88.1058 105.725 88.2052 105.979 88.1904C106.999 88.1301 107.841 88.5009 108.516 89.2512C108.652 89.4007 108.801 89.4088 108.973 89.4088C110.548 89.4088 112.124 89.4088 113.699 89.4088C114.59 89.4088 115.075 89.877 115.076 90.7579C115.08 94.727 115.08 98.6961 115.076 102.665C115.085 102.801 115.067 102.936 115.023 103.065C114.922 103.315 114.727 103.44 114.465 103.422C114.204 103.405 114.049 103.245 113.997 103C113.975 102.855 113.967 102.709 113.974 102.563C113.974 99.3606 113.974 96.1583 113.974 92.956C113.974 92.4107 113.974 92.4107 113.411 92.41C112.096 92.41 110.781 92.4154 109.466 92.4059C109.219 92.4059 109.084 92.4864 108.965 92.709C108.353 93.8531 107.401 94.4552 106.083 94.4545C105.616 94.4545 105.616 94.4579 105.614 94.9281C105.614 95.1534 105.621 95.3787 105.614 95.6047C105.608 95.8306 105.716 95.9267 105.943 95.9233C106.43 95.9166 106.918 95.9118 107.405 95.9233C107.661 95.9308 107.809 95.8557 107.933 95.6114C108.118 95.2516 108.422 94.9661 108.793 94.8028C109.165 94.6396 109.582 94.6086 109.974 94.715C110.372 94.8176 110.724 95.0518 110.971 95.3793C111.218 95.7067 111.346 96.108 111.334 96.5173C111.31 97.2785 110.767 98.0057 110.012 98.1769C109.22 98.3569 108.494 98.204 108.013 97.4023C107.809 97.064 107.583 96.9774 107.223 96.9896C106.601 97.0112 105.977 96.9997 105.354 96.9943C104.731 96.9889 104.538 96.7913 104.538 96.1824C104.538 95.7204 104.527 95.2576 104.541 94.7955C104.549 94.5249 104.441 94.4336 104.179 94.4478C103.897 94.4633 103.612 94.4572 103.329 94.4478C103.13 94.443 103.038 94.5229 103.039 94.7252C103.039 96.1572 103.039 97.5892 103.039 99.0212C103.039 99.2134 103.115 99.2865 103.304 99.2682C103.417 99.2566 103.531 99.2566 103.644 99.2682C104.043 99.3135 104.308 99.2269 104.524 98.8122C104.87 98.1471 105.664 97.8468 106.35 97.9922C107.133 98.158 107.692 98.7188 107.808 99.4542C107.872 99.8175 107.823 100.192 107.665 100.526C107.508 100.859 107.251 101.137 106.929 101.32C106.725 101.439 106.499 101.516 106.265 101.547C106.03 101.578 105.792 101.562 105.564 101.5C105.336 101.438 105.123 101.331 104.937 101.186C104.75 101.041 104.596 100.86 104.481 100.654C104.329 100.384 104.157 100.292 103.863 100.309C103.491 100.329 103.115 100.315 102.742 100.313C102.165 100.309 101.959 100.11 101.958 99.5408C101.958 97.9963 101.958 96.4517 101.958 94.9072C101.958 94.4518 101.958 94.4505 101.509 94.4491C101.282 94.4491 101.055 94.4627 100.829 94.4491C100.545 94.4268 100.455 94.5432 100.457 94.8199C100.468 95.9024 100.462 96.9848 100.462 98.0673C100.462 98.8907 100.468 99.7134 100.462 100.536C100.458 100.777 100.53 100.924 100.756 101.042C101.7 101.527 102.018 102.567 101.523 103.489C101.411 103.698 101.258 103.883 101.072 104.033C100.887 104.184 100.674 104.296 100.445 104.363C100.216 104.43 99.9758 104.451 99.7385 104.425C99.5011 104.399 99.2714 104.326 99.0626 104.211C98.8539 104.096 98.6703 103.94 98.5226 103.753C98.3749 103.567 98.266 103.353 98.2023 103.124C98.1387 102.895 98.1214 102.655 98.1517 102.42C98.1819 102.184 98.259 101.957 98.3785 101.751C98.5588 101.421 98.8435 101.16 99.1885 101.007C99.3741 100.924 99.436 100.804 99.4353 100.615C99.4317 98.6751 99.4317 96.7356 99.4353 94.7962C99.4353 94.5256 99.319 94.4383 99.064 94.4505C98.7922 94.4664 98.5197 94.4664 98.2479 94.4505C97.9596 94.4302 97.878 94.5526 97.88 94.8246C97.8889 96.313 97.8841 97.8014 97.8841 99.2898C97.8841 100.274 97.8385 100.32 96.8484 100.32C96.724 100.327 96.5993 100.327 96.475 100.32C95.931 100.252 95.5542 100.381 95.2196 100.895C94.6831 101.721 93.4345 101.781 92.6592 101.115C91.9179 100.479 91.8431 99.3 92.4939 98.5977C93.4222 97.5998 94.8619 97.7974 95.4814 99.0165C95.576 99.2032 95.6807 99.2946 95.8956 99.2783C96.1221 99.2635 96.3492 99.2635 96.5757 99.2783C96.7872 99.2892 96.8538 99.1924 96.8531 98.9962C96.8495 97.5867 96.8495 96.1775 96.8531 94.7685C96.8531 94.5317 96.7572 94.4471 96.5274 94.4559C96.222 94.4674 95.9153 94.4681 95.61 94.4559C95.372 94.4464 95.2883 94.5459 95.2924 94.7752C95.3012 95.2711 95.2965 95.7677 95.2924 96.2636C95.2924 96.7961 95.1244 96.9821 94.5878 96.995C93.9078 97.0112 93.2277 97.016 92.5477 96.995C92.2144 96.9842 92.0199 97.0809 91.8492 97.3853C91.429 98.1356 90.5007 98.4387 89.6955 98.139C88.8515 97.8251 88.3891 96.9828 88.5598 96.0715C88.7067 95.2874 89.4976 94.6311 90.3198 94.6507C91.0332 94.667 91.5827 95.0025 91.92 95.627C92.0485 95.8638 92.1995 95.9402 92.4552 95.9321C92.9421 95.9159 93.4297 95.9199 93.9166 95.9321C94.158 95.9369 94.2757 95.855 94.2641 95.6006C94.2519 95.33 94.2512 95.0594 94.2641 94.7888C94.2771 94.5344 94.1649 94.4552 93.9241 94.4593C93.3801 94.4681 92.8415 94.4843 92.3164 94.2739C91.5446 93.9647 90.9645 93.4553 90.6 92.7178C90.4857 92.4871 90.3456 92.4141 90.1008 92.4154C88.7298 92.4235 87.3581 92.4289 85.9871 92.4154C85.6471 92.4114 85.5668 92.5385 85.573 92.8504C85.5893 93.7185 85.5777 94.5871 85.5791 95.4552C85.5791 95.6507 85.5593 95.8381 85.4179 95.991C85.3559 96.0576 85.2775 96.1069 85.1905 96.1342C85.1035 96.1616 85.0108 96.1659 84.9216 96.1468C84.8324 96.1277 84.7498 96.0858 84.6818 96.0252C84.6138 95.9647 84.5628 95.8876 84.5338 95.8015C84.4905 95.6498 84.4712 95.4923 84.4767 95.3347C84.4726 93.8463 84.4726 92.3579 84.4767 90.8695C84.4767 89.8641 84.9242 89.421 85.9259 89.4203C87.4676 89.4203 89.0086 89.4163 90.5503 89.4244C90.6615 89.43 90.7724 89.4102 90.8746 89.3665C90.9769 89.3227 91.0676 89.2562 91.1399 89.172C91.7595 88.5165 92.5293 88.168 93.4426 88.1992C93.7146 88.2086 93.799 88.1044 93.8405 87.8676C93.9742 87.1078 94.3264 86.4029 94.8544 85.838C95.1394 85.5275 95.4665 85.4842 95.7134 85.7108C95.9602 85.9374 95.9425 86.2331 95.6617 86.5463C95.1074 87.1647 94.8565 87.894 94.8334 88.7113C94.817 89.2972 94.5885 89.4927 94.0098 89.3405C93.4799 89.192 92.9125 89.257 92.4304 89.5215C91.9483 89.786 91.5902 90.2287 91.4337 90.7538C91.042 92.0961 92.041 93.4025 93.4827 93.4099C95.5719 93.4045 97.6692 93.3964 99.7652 93.3964ZM87.8838 91.3079H89.72C90.2423 91.3079 90.2334 91.3079 90.3035 90.8005C90.3341 90.5806 90.2803 90.496 90.045 90.4974C88.6622 90.5046 87.2795 90.5046 85.8967 90.4974C85.5396 90.4974 85.5791 90.7186 85.5668 90.9493C85.5539 91.2037 85.6348 91.3181 85.9116 91.312C86.5692 91.2978 87.2269 91.3072 87.8838 91.3079ZM111.639 91.3079C112.284 91.3079 112.931 91.2937 113.575 91.314C113.891 91.3235 113.983 91.2105 113.983 90.9081C113.983 90.6056 113.876 90.496 113.568 90.4987C112.254 90.5109 110.941 90.5021 109.627 90.5062C109.459 90.5062 109.242 90.4521 109.245 90.7484C109.251 91.1895 109.322 91.3072 109.635 91.3093C110.303 91.3106 110.971 91.3072 111.639 91.3079ZM109.544 95.7149C109.115 95.7095 108.765 96.0289 108.761 96.4307C108.759 96.6298 108.835 96.8218 108.974 96.9654C109.112 97.1089 109.302 97.1925 109.502 97.1979C109.601 97.2019 109.7 97.1862 109.793 97.1516C109.886 97.117 109.971 97.0644 110.043 96.9967C110.115 96.929 110.173 96.8476 110.213 96.7574C110.253 96.6672 110.274 96.5699 110.276 96.4713C110.282 96.3729 110.267 96.2743 110.233 96.1818C110.198 96.0892 110.145 96.0048 110.076 95.9338C110.007 95.8627 109.925 95.8066 109.833 95.769C109.741 95.7313 109.643 95.7129 109.544 95.7149ZM99.9216 103.36C100.365 103.366 100.674 103.074 100.687 102.638C100.685 102.442 100.606 102.254 100.466 102.115C100.327 101.976 100.138 101.896 99.9407 101.893C99.7432 101.891 99.5525 101.965 99.409 102.1C99.2656 102.235 99.1809 102.42 99.1728 102.616C99.1572 103.024 99.4925 103.357 99.9216 103.363V103.36ZM91.0638 96.4551C91.0638 96.0174 90.7564 95.7109 90.3157 95.7109C89.875 95.7109 89.5676 96.0207 89.5676 96.4551C89.5816 96.6424 89.6662 96.8176 89.8046 96.9455C89.943 97.0733 90.1248 97.1444 90.3137 97.1444C90.5025 97.1444 90.6844 97.0733 90.8227 96.9455C90.9611 96.8176 91.0458 96.6424 91.0597 96.4551H91.0638ZM105.282 99.7824C105.299 99.9688 105.387 100.142 105.526 100.267C105.666 100.392 105.849 100.46 106.037 100.458C106.225 100.455 106.405 100.382 106.542 100.253C106.678 100.124 106.761 99.9489 106.773 99.7621C106.775 99.6633 106.756 99.5653 106.718 99.474C106.68 99.3827 106.624 99.3001 106.552 99.2313C106.481 99.1624 106.397 99.1087 106.304 99.0735C106.211 99.0384 106.112 99.0224 106.013 99.0267C105.566 99.0361 105.274 99.3372 105.282 99.7851V99.7824ZM93.8568 99.0267C93.41 99.0267 93.1135 99.3176 93.1087 99.7621C93.1069 99.8603 93.125 99.9579 93.1619 100.049C93.1988 100.14 93.2539 100.223 93.3237 100.292C93.3935 100.362 93.4767 100.417 93.5683 100.453C93.6599 100.49 93.758 100.508 93.8568 100.506C94.0503 100.501 94.2347 100.423 94.3722 100.288C94.5098 100.152 94.5903 99.9694 94.5974 99.777C94.5998 99.6788 94.5822 99.5811 94.5458 99.4898C94.5093 99.3985 94.4547 99.3155 94.3853 99.2457C94.3158 99.1759 94.2329 99.1208 94.1415 99.0836C94.0501 99.0464 93.9521 99.028 93.8534 99.0294L93.8568 99.0267Z" fill="#05B8C3"/>
<path d="M99.7711 111.702C95.1013 111.702 90.4315 111.702 85.7618 111.702C84.5254 111.702 83.5808 110.906 83.336 109.698C83.1456 108.761 83.389 108.297 84.2772 107.919C84.3315 107.903 84.3791 107.87 84.4125 107.824C84.4459 107.778 84.4634 107.723 84.4622 107.667C84.4622 107.554 84.4663 107.442 84.4663 107.329C84.4663 104.295 84.4663 101.263 84.4663 98.2303C84.4626 98.0617 84.4772 97.8931 84.5098 97.7276C84.569 97.4624 84.7587 97.3305 85.028 97.3291C85.2973 97.3278 85.4748 97.4854 85.538 97.7404C85.565 97.8843 85.5746 98.0308 85.5666 98.1768C85.5666 101.232 85.5666 104.287 85.5666 107.343C85.5666 107.887 85.5666 107.888 86.1297 107.888H92.8956C93.4519 107.888 93.7117 108.058 93.7233 108.424C93.7348 108.79 93.4601 108.987 92.8895 108.987H84.8648C84.3996 108.987 84.3534 109.04 84.4078 109.493C84.4676 109.99 84.8893 110.456 85.3959 110.583C85.6168 110.634 85.8432 110.657 86.0698 110.651C95.2044 110.651 104.339 110.651 113.473 110.651C113.816 110.651 114.153 110.623 114.46 110.453C114.742 110.3 114.958 110.051 115.068 109.751C115.306 109.135 115.204 108.987 114.557 108.987H95.9008C95.7757 108.987 95.6506 108.991 95.5268 108.983C95.1453 108.962 94.9243 108.757 94.927 108.433C94.9297 108.109 95.1507 107.912 95.539 107.891C95.6628 107.885 95.7879 107.891 95.9131 107.891H113.459C113.984 107.891 113.984 107.891 113.984 107.375C113.984 106.732 113.984 106.09 113.984 105.447C113.981 105.345 113.984 105.244 113.992 105.143C114.03 104.816 114.252 104.594 114.536 104.593C114.819 104.593 115.057 104.814 115.08 105.141C115.102 105.512 115.089 105.885 115.091 106.257C115.091 106.595 115.108 106.933 115.087 107.272C115.062 107.653 115.108 107.911 115.57 108.033C115.969 108.138 116.189 108.506 116.246 108.933C116.296 109.278 116.271 109.629 116.172 109.964C116.073 110.298 115.903 110.608 115.673 110.871C115.444 111.134 115.16 111.345 114.841 111.489C114.521 111.633 114.175 111.708 113.825 111.706C109.136 111.71 104.452 111.709 99.7711 111.702Z" fill="#05B8C3"/>
</g>
<defs>
<clipPath id="clip0_59_1515">
<rect width="200" height="160" fill="white"/>
</clipPath>
</defs>
</svg>
