<svg width="157" height="160" viewBox="0 0 157 160" fill="none" xmlns="http://www.w3.org/2000/svg">
<path d="M95.2942 157.391C95.3388 157.602 95.298 157.822 95.1806 158.002C95.0632 158.183 94.8789 158.31 94.6681 158.355C91.4881 159.027 88.2694 159.502 85.0305 159.775C85.0076 159.775 84.9846 159.775 84.9606 159.775C84.7494 159.777 84.5455 159.697 84.3923 159.552C84.239 159.406 84.1484 159.207 84.1396 158.996C84.1308 158.785 84.2045 158.579 84.3451 158.421C84.4857 158.263 84.6822 158.167 84.8929 158.151C88.0646 157.882 91.2166 157.416 94.3305 156.755C94.4356 156.733 94.544 156.732 94.6495 156.752C94.755 156.772 94.8555 156.813 94.9451 156.872C95.0347 156.931 95.1117 157.007 95.1716 157.097C95.2315 157.186 95.2732 157.286 95.2942 157.391ZM112.315 150.509C109.462 151.921 106.524 153.154 103.518 154.2C103.314 154.271 103.147 154.42 103.053 154.614C102.959 154.808 102.946 155.031 103.017 155.235C103.088 155.439 103.237 155.606 103.431 155.7C103.625 155.794 103.849 155.807 104.052 155.736C107.123 154.668 110.123 153.409 113.036 151.966C113.23 151.87 113.377 151.702 113.446 151.498C113.515 151.293 113.5 151.07 113.405 150.877C113.309 150.684 113.141 150.536 112.936 150.467C112.732 150.398 112.509 150.413 112.315 150.509ZM75.3514 158.374C72.1697 158.254 68.9984 157.936 65.8559 157.424C65.7505 157.407 65.6427 157.41 65.5388 157.435C65.4348 157.459 65.3366 157.504 65.2499 157.566C65.1631 157.628 65.0895 157.707 65.0332 157.798C64.9769 157.888 64.939 157.989 64.9217 158.095C64.9044 158.2 64.9081 158.308 64.9324 158.412C64.9568 158.516 65.0014 158.614 65.0637 158.701C65.126 158.787 65.2048 158.861 65.2955 158.917C65.3862 158.974 65.4872 159.011 65.5926 159.029C68.8018 159.551 72.0401 159.876 75.2892 160H75.3208C75.4276 160.002 75.5337 159.983 75.6331 159.944C75.7325 159.905 75.8232 159.847 75.9001 159.773C75.977 159.699 76.0386 159.61 76.0813 159.512C76.124 159.414 76.147 159.309 76.149 159.202C76.151 159.096 76.132 158.99 76.093 158.89C76.054 158.791 75.9958 158.7 75.9217 158.623C75.8477 158.546 75.7592 158.485 75.6613 158.442C75.5635 158.399 75.4582 158.376 75.3514 158.374ZM56.5592 155.3C53.5078 154.397 50.5157 153.304 47.6001 152.029C47.5023 151.986 47.397 151.963 47.2902 151.961C47.1834 151.958 47.0772 151.977 46.9776 152.016C46.878 152.054 46.787 152.112 46.7098 152.186C46.6327 152.26 46.5708 152.348 46.5277 152.446C46.4847 152.544 46.4613 152.649 46.459 152.756C46.4566 152.863 46.4753 152.969 46.514 153.069C46.5922 153.27 46.7471 153.431 46.9446 153.518C49.9236 154.821 52.9811 155.937 56.0992 156.859C56.174 156.882 56.2517 156.893 56.3298 156.893C56.5254 156.893 56.7146 156.823 56.8626 156.695C57.0105 156.567 57.1074 156.39 57.1353 156.196C57.1632 156.002 57.1203 155.805 57.0144 155.641C56.9086 155.476 56.747 155.355 56.5592 155.3ZM153.763 64.7244C153.826 64.7247 153.889 64.7173 153.95 64.7025C154.055 64.6781 154.153 64.6333 154.24 64.5706C154.327 64.5078 154.401 64.4285 154.458 64.3371C154.514 64.2456 154.551 64.144 154.568 64.0379C154.585 63.9319 154.581 63.8236 154.555 63.7193C153.872 60.8238 153.025 57.9697 152.016 55.1709C151.936 54.9778 151.784 54.823 151.593 54.7387C151.402 54.6543 151.185 54.6468 150.988 54.7178C150.792 54.7887 150.63 54.9327 150.536 55.1198C150.443 55.3069 150.425 55.5227 150.487 55.7226C151.475 58.4624 152.305 61.2568 152.973 64.0918C153.012 64.2714 153.111 64.4325 153.254 64.5487C153.396 64.665 153.574 64.7296 153.758 64.732L153.763 64.7244ZM155.452 89.4366C155.238 89.4136 155.023 89.4764 154.855 89.6113C154.687 89.7463 154.579 89.9423 154.555 90.1565C154.239 93.0539 153.759 95.931 153.115 98.7737C153.092 98.8779 153.089 98.9857 153.106 99.091C153.124 99.1963 153.163 99.2971 153.22 99.3875C153.277 99.4779 153.351 99.5562 153.438 99.6179C153.525 99.6796 153.624 99.7235 153.728 99.7471C153.787 99.76 153.848 99.7666 153.908 99.7668C154.093 99.7666 154.272 99.7038 154.416 99.5886C154.559 99.4735 154.66 99.3129 154.701 99.1331C155.358 96.2298 155.849 93.2915 156.172 90.3324C156.196 90.1181 156.133 89.9034 155.998 89.7354C155.863 89.5674 155.667 89.4599 155.452 89.4366ZM155.196 71.8067C155.089 71.819 154.987 71.8522 154.893 71.9042C154.8 71.9562 154.718 72.0262 154.652 72.11C154.585 72.1938 154.536 72.2898 154.507 72.3926C154.478 72.4954 154.47 72.603 154.482 72.7091C154.822 75.6038 154.998 78.5154 155.01 81.4301C155.011 81.645 155.097 81.8507 155.249 82.0023C155.402 82.154 155.608 82.2393 155.823 82.2395C156.038 82.2384 156.245 82.1517 156.397 81.9985C156.548 81.8453 156.633 81.6381 156.632 81.4224C156.62 78.4469 156.441 75.4743 156.095 72.519C156.069 72.3052 155.96 72.1102 155.791 71.9767C155.622 71.8432 155.407 71.7821 155.193 71.8067H155.196ZM117.809 16.0089C120.306 17.5119 122.716 19.1554 125.027 20.9315C125.112 20.9965 125.209 21.0443 125.312 21.072C125.415 21.0997 125.522 21.1069 125.628 21.093C125.734 21.0792 125.836 21.0446 125.929 20.9913C126.021 20.938 126.102 20.867 126.168 20.7824C126.233 20.6977 126.28 20.6011 126.308 20.498C126.336 20.3949 126.343 20.2874 126.329 20.1815C126.315 20.0756 126.281 19.9736 126.227 19.8811C126.174 19.7886 126.103 19.7075 126.018 19.6424C123.658 17.8296 121.198 16.1519 118.648 14.6171C118.556 14.5621 118.455 14.5255 118.349 14.5096C118.244 14.4937 118.136 14.4988 118.032 14.5245C117.929 14.5502 117.831 14.5961 117.745 14.6595C117.66 14.7229 117.587 14.8026 117.532 14.8941C117.477 14.9855 117.44 15.087 117.424 15.1925C117.408 15.2981 117.413 15.4058 117.439 15.5094C117.465 15.613 117.511 15.7106 117.574 15.7965C117.638 15.8824 117.717 15.9549 117.809 16.01V16.0089ZM137.567 33.0653C137.704 33.2317 137.902 33.3369 138.116 33.3577C138.331 33.3785 138.545 33.3132 138.711 33.1762C138.878 33.0391 138.983 32.8416 139.004 32.627C139.025 32.4124 138.959 32.1983 138.822 32.0318C136.931 29.7347 134.91 27.5463 132.772 25.4771C132.617 25.3272 132.408 25.245 132.193 25.2486C131.977 25.2522 131.772 25.3413 131.622 25.4963C131.472 25.6513 131.389 25.8595 131.393 26.0751C131.397 26.2908 131.486 26.4961 131.641 26.6461C133.736 28.6722 135.714 30.8153 137.567 33.0653ZM144.09 39.231C144.031 39.1415 143.956 39.0642 143.868 39.0036C143.781 38.943 143.682 38.9004 143.577 38.8781C143.473 38.8557 143.365 38.8542 143.26 38.8735C143.155 38.8929 143.055 38.9327 142.965 38.9907C142.876 39.0487 142.798 39.1238 142.738 39.2117C142.677 39.2996 142.635 39.3986 142.612 39.503C142.59 39.6074 142.588 39.7151 142.608 39.8201C142.627 39.9251 142.667 40.0252 142.725 40.1148C144.309 42.5606 145.753 45.0945 147.049 47.7041C147.097 47.7997 147.163 47.885 147.243 47.9552C147.324 48.0253 147.417 48.079 147.518 48.113C147.62 48.147 147.726 48.1608 147.833 48.1535C147.939 48.1462 148.044 48.1181 148.139 48.0706C148.235 48.0231 148.32 47.9572 148.39 47.8768C148.46 47.7963 148.514 47.7028 148.548 47.6016C148.582 47.5004 148.596 47.3935 148.589 47.287C148.581 47.1805 148.553 47.0765 148.506 46.9809C147.182 44.3158 145.708 41.7284 144.09 39.231ZM34.0052 18.9804C34.1714 18.9808 34.3337 18.9297 34.4696 18.834C36.9915 17.0766 39.6161 15.4715 42.3295 14.0272C42.5199 13.9258 42.6622 13.7529 42.7251 13.5466C42.788 13.3403 42.7664 13.1175 42.6649 12.9271C42.5635 12.7368 42.3906 12.5945 42.1843 12.5316C41.978 12.4687 41.7551 12.4903 41.5647 12.5918C38.7936 14.0686 36.1134 15.7102 33.5387 17.5078C33.3968 17.6068 33.2902 17.7486 33.2345 17.9124C33.1788 18.0762 33.1768 18.2536 33.2288 18.4186C33.2809 18.5836 33.3843 18.7277 33.5239 18.83C33.6635 18.9322 33.8322 18.9872 34.0052 18.9869V18.9804ZM50.4135 10.2485C50.5137 10.2482 50.613 10.2293 50.7063 10.1927C53.5748 9.08637 56.5075 8.15427 59.4884 7.40154C59.5919 7.37536 59.6892 7.32905 59.7749 7.26525C59.8605 7.20145 59.9327 7.12141 59.9874 7.02971C60.0421 6.938 60.0782 6.83643 60.0936 6.73078C60.109 6.62513 60.1035 6.51748 60.0773 6.41397C60.0511 6.31046 60.0048 6.21312 59.941 6.12752C59.8772 6.04191 59.7971 5.9697 59.7054 5.91502C59.6137 5.86035 59.5121 5.82427 59.4064 5.80884C59.3008 5.79342 59.1931 5.79896 59.0896 5.82514C56.0452 6.59376 53.05 7.54593 50.1207 8.67643C49.9441 8.74532 49.7972 8.87362 49.7052 9.03922C49.6131 9.20483 49.5817 9.39735 49.6164 9.5836C49.6511 9.76986 49.7497 9.93818 49.8952 10.0595C50.0407 10.1809 50.224 10.2477 50.4135 10.2485ZM20.135 31.3698C20.2507 31.37 20.365 31.3455 20.4703 31.2978C20.5757 31.2501 20.6696 31.1804 20.7458 31.0934C22.7793 28.7865 24.9483 26.6025 27.2411 24.5529C27.3207 24.4818 27.3856 24.3956 27.4319 24.2994C27.4782 24.2032 27.5052 24.0988 27.5112 23.9922C27.5171 23.8856 27.5021 23.7788 27.4668 23.6781C27.4315 23.5773 27.3767 23.4844 27.3056 23.4048C27.2344 23.3252 27.1482 23.2603 27.052 23.214C26.9558 23.1677 26.8514 23.1408 26.7448 23.1348C26.6381 23.1288 26.5314 23.1438 26.4306 23.1791C26.3298 23.2144 26.2369 23.2692 26.1573 23.3403C23.8159 25.433 21.6014 27.6634 19.5254 30.0195C19.4219 30.1369 19.3545 30.2815 19.3313 30.4362C19.308 30.5908 19.3299 30.7489 19.3942 30.8915C19.4586 31.034 19.5627 31.1549 19.6941 31.2398C19.8255 31.3246 19.9786 31.3698 20.135 31.3698ZM1.62575 81.7556C1.62573 78.6806 1.80814 75.6084 2.17203 72.555C2.19768 72.3409 2.13721 72.1254 2.00392 71.9558C1.87064 71.7863 1.67545 71.6767 1.46132 71.651C1.24718 71.6254 1.03162 71.6858 0.862068 71.8191C0.692516 71.9524 0.582854 72.1475 0.557209 72.3617C0.185824 75.4796 -0.00023759 78.6168 2.27687e-07 81.7567C2.27687e-07 81.9723 0.0856434 82.179 0.238087 82.3314C0.39053 82.4838 0.597287 82.5695 0.812874 82.5695C1.02846 82.5695 1.23522 82.4838 1.38766 82.3314C1.54011 82.179 1.62575 81.9723 1.62575 81.7567V81.7556ZM9.22022 46.604C9.41089 46.7024 9.63275 46.7215 9.83743 46.657C10.0421 46.5926 10.213 46.4498 10.3128 46.2598C11.7396 43.5347 13.3285 40.8975 15.0709 38.3626C15.1314 38.2745 15.174 38.1755 15.1962 38.071C15.2183 37.9666 15.2197 37.8588 15.2003 37.7538C15.1808 37.6488 15.1408 37.5487 15.0826 37.4591C15.0244 37.3696 14.9492 37.2923 14.8612 37.2319C14.7731 37.1714 14.6741 37.1289 14.5696 37.1067C14.4651 37.0845 14.3573 37.0831 14.2523 37.1026C14.1473 37.122 14.0472 37.162 13.9576 37.2202C13.8681 37.2784 13.7908 37.3536 13.7304 37.4416C11.9529 40.0322 10.3322 42.727 8.87715 45.5115C8.7786 45.702 8.75937 45.9238 8.82363 46.1284C8.88789 46.333 9.03045 46.504 9.22022 46.604ZM2.83304 64.0831C2.8964 64.0982 2.96129 64.1059 3.02643 64.106C3.2084 64.1058 3.38504 64.0446 3.52806 63.9321C3.67108 63.8196 3.77221 63.6623 3.81526 63.4855C4.54749 60.4967 5.45963 57.5549 6.54669 54.676C6.58682 54.5757 6.60652 54.4683 6.60465 54.3603C6.60278 54.2522 6.57938 54.1456 6.5358 54.0467C6.49223 53.9478 6.42936 53.8586 6.35088 53.7842C6.27241 53.7099 6.17989 53.652 6.07875 53.6138C5.97762 53.5757 5.86988 53.5581 5.76187 53.5621C5.65385 53.5661 5.54771 53.5916 5.44966 53.6371C5.35162 53.6826 5.26363 53.7472 5.19086 53.8271C5.11808 53.907 5.06198 54.0007 5.02583 54.1025C3.91519 57.0426 2.9837 60.0472 2.23649 63.0999C2.21104 63.2036 2.2063 63.3113 2.22251 63.4169C2.23872 63.5225 2.27558 63.6238 2.33098 63.7151C2.38638 63.8064 2.45924 63.8859 2.54539 63.9491C2.63153 64.0122 2.72928 64.0578 2.83304 64.0831ZM47.5935 50.7618V28.4311C46.6449 28.2813 45.7473 27.9016 44.9792 27.3252C44.211 26.7488 43.5956 25.9932 43.1866 25.1244C42.7776 24.2555 42.5874 23.2998 42.6327 22.3405C42.6781 21.3813 42.9574 20.4477 43.4465 19.6213C43.9356 18.7948 44.6195 18.1006 45.4386 17.5992C46.2577 17.0978 47.187 16.8044 48.1456 16.7446C49.1041 16.6848 50.0627 16.8605 50.9378 17.2563C51.8128 17.6521 52.5777 18.256 53.1657 19.0153L72.1939 8.03079C71.8454 7.13811 71.7201 6.17389 71.8287 5.2218C71.9373 4.26971 72.2767 3.3585 72.8173 2.56724C73.3579 1.77598 74.0835 1.12858 74.931 0.681205C75.7785 0.23383 76.7224 0 77.6808 0C78.6392 0 79.5831 0.23383 80.4306 0.681205C81.2781 1.12858 82.0037 1.77598 82.5443 2.56724C83.0849 3.3585 83.4243 4.26971 83.5329 5.2218C83.6415 6.17389 83.5162 7.13811 83.1677 8.03079L102.196 19.0153C102.784 18.2566 103.549 17.6533 104.424 17.258C105.298 16.8627 106.257 16.6873 107.215 16.7473C108.173 16.8072 109.102 17.1007 109.92 17.602C110.739 18.1033 111.423 18.7973 111.912 19.6234C112.4 20.4495 112.68 21.3826 112.725 22.3414C112.771 23.3002 112.581 24.2556 112.172 25.1242C111.763 25.9928 111.149 26.7482 110.381 27.3246C109.613 27.901 108.716 28.2809 107.768 28.4311V50.7618C108.717 50.9116 109.614 51.2913 110.382 51.8677C111.151 52.4441 111.766 53.1997 112.175 54.0686C112.584 54.9374 112.774 55.8932 112.729 56.8524C112.684 57.8116 112.404 58.7452 111.915 59.5716C111.426 60.3981 110.742 61.0923 109.923 61.5938C109.104 62.0952 108.175 62.3886 107.216 62.4483C106.257 62.5081 105.299 62.3324 104.424 61.9366C103.549 61.5408 102.784 60.9369 102.196 60.1776L83.1852 71.1545C83.527 72.0464 83.6468 73.0081 83.5341 73.9567C83.4214 74.9052 83.0797 75.8121 82.5384 76.5991C81.9971 77.3862 81.2724 78.0298 80.4269 78.4744C79.5814 78.9191 78.6405 79.1514 77.6852 79.1514C76.7299 79.1514 75.7889 78.9191 74.9434 78.4744C74.0979 78.0298 73.3733 77.3862 72.8319 76.5991C72.2906 75.8121 71.9489 74.9052 71.8362 73.9567C71.7235 73.0081 71.8433 72.0464 72.1852 71.1545L53.1744 60.1787C52.5863 60.9374 51.8215 61.5407 50.9467 61.9361C50.0719 62.3314 49.1137 62.5067 48.1556 62.4468C47.1975 62.3868 46.2686 62.0934 45.4499 61.5921C44.6312 61.0907 43.9476 60.3968 43.4588 59.5707C42.9699 58.7446 42.6906 57.8114 42.6452 56.8526C42.5998 55.8938 42.7896 54.9384 43.1983 54.0699C43.6069 53.2013 44.2218 52.4458 44.9895 51.8694C45.7571 51.293 46.6541 50.9131 47.6023 50.7629L47.5935 50.7618ZM48.5157 18.3577C47.6729 18.3577 46.8491 18.6076 46.1484 19.0757C45.4476 19.5439 44.9015 20.2093 44.579 20.9878C44.2565 21.7663 44.1721 22.6229 44.3365 23.4494C44.5009 24.2759 44.9068 25.035 45.5027 25.6309C46.0986 26.2267 46.8578 26.6325 47.6844 26.7969C48.5109 26.9613 49.3677 26.8769 50.1463 26.5544C50.9249 26.232 51.5904 25.6859 52.0586 24.9853C52.5268 24.2846 52.7767 23.4609 52.7767 22.6182C52.7744 21.489 52.3247 20.4066 51.5261 19.6081C50.7275 18.8096 49.6451 18.36 48.5157 18.3577ZM77.6764 10.1643C78.5192 10.1643 79.343 9.91446 80.0437 9.44631C80.7445 8.97815 81.2906 8.31275 81.6131 7.53424C81.9356 6.75572 82.02 5.89907 81.8556 5.07261C81.6912 4.24615 81.2853 3.48699 80.6894 2.89114C80.0935 2.29529 79.3343 1.88952 78.5077 1.72512C77.6812 1.56073 76.8244 1.6451 76.0458 1.96757C75.2672 2.29004 74.6017 2.83613 74.1335 3.53677C73.6653 4.23741 73.4154 5.06114 73.4154 5.9038C73.4163 7.0339 73.8653 8.11753 74.6641 8.91704C75.4629 9.71656 76.5462 10.1667 77.6764 10.1687V10.1643ZM102.574 22.6182C102.574 23.4609 102.824 24.2846 103.292 24.9853C103.76 25.6859 104.426 26.232 105.204 26.5544C105.983 26.8769 106.84 26.9613 107.666 26.7969C108.493 26.6325 109.252 26.2267 109.848 25.6309C110.444 25.035 110.85 24.2759 111.014 23.4494C111.179 22.6229 111.094 21.7663 110.772 20.9878C110.449 20.2093 109.903 19.5439 109.202 19.0757C108.502 18.6076 107.678 18.3577 106.835 18.3577C105.705 18.3591 104.621 18.8088 103.822 19.6082C103.022 20.4075 102.573 21.4912 102.572 22.6215L102.574 22.6182ZM106.835 60.8309C107.678 60.8309 108.502 60.581 109.202 60.1129C109.903 59.6447 110.449 58.9793 110.772 58.2008C111.094 57.4223 111.179 56.5656 111.014 55.7392C110.85 54.9127 110.444 54.1535 109.848 53.5577C109.252 52.9618 108.493 52.5561 107.666 52.3917C106.84 52.2273 105.983 52.3116 105.204 52.6341C104.426 52.9566 103.76 53.5027 103.292 54.2033C102.824 54.904 102.574 55.7277 102.574 56.5704C102.575 57.6999 103.024 58.7829 103.822 59.5821C104.621 60.3813 105.703 60.8316 106.833 60.8342L106.835 60.8309ZM77.6721 68.9762C76.8293 68.9762 76.0055 69.226 75.3047 69.6942C74.604 70.1624 74.0579 70.8278 73.7354 71.6063C73.4129 72.3848 73.3285 73.2414 73.4929 74.0679C73.6573 74.8943 74.0631 75.6535 74.659 76.2494C75.255 76.8452 76.0142 77.251 76.8408 77.4154C77.6673 77.5798 78.5241 77.4954 79.3027 77.1729C80.0813 76.8505 80.7468 76.3044 81.215 75.6037C81.6832 74.9031 81.9331 74.0794 81.9331 73.2367C81.9302 72.1083 81.4805 71.027 80.6824 70.2292C79.8843 69.4314 78.8028 68.982 77.6742 68.9794L77.6721 68.9762ZM52.7789 56.5714C52.7789 55.7288 52.529 54.9051 52.0608 54.2044C51.5926 53.5038 50.9271 52.9577 50.1485 52.6352C49.3699 52.3127 48.5131 52.2284 47.6866 52.3928C46.86 52.5572 46.1008 52.9629 45.5049 53.5588C44.9089 54.1546 44.5031 54.9138 44.3387 55.7402C44.1743 56.5667 44.2587 57.4234 44.5812 58.2019C44.9037 58.9804 45.4498 59.6458 46.1506 60.1139C46.8513 60.5821 47.6751 60.832 48.5179 60.832C49.6473 60.83 50.73 60.3804 51.5286 59.5819C52.3273 58.7833 52.7769 57.7008 52.7789 56.5714ZM91.2014 25.5198C91.2008 25.238 91.0886 24.968 90.8894 24.7688C90.6901 24.5696 90.4201 24.4574 90.1383 24.4568H65.2145C64.9329 24.4574 64.6629 24.5696 64.4639 24.7688C64.2648 24.9681 64.1529 25.2381 64.1526 25.5198V33.6039H91.2014V25.5198ZM64.1526 43.9002H91.2014V35.2349H64.1526V43.9002ZM64.1526 53.6743C64.1529 53.9558 64.2648 54.2257 64.4639 54.4248C64.663 54.6239 64.933 54.7358 65.2145 54.7361H90.1383C90.42 54.7358 90.69 54.6239 90.8893 54.4249C91.0886 54.2258 91.2008 53.9559 91.2014 53.6743V45.5257H64.1526V53.6743ZM54.4046 56.5714C54.4045 57.3249 54.2587 58.0713 53.9753 58.7694L72.9631 69.7289C73.428 69.104 74.0126 68.5777 74.6828 68.1807C75.3529 67.7837 76.0953 67.5238 76.8668 67.4162V56.3628H65.2145C64.5017 56.3619 63.8183 56.0784 63.3142 55.5744C62.8102 55.0704 62.5266 54.387 62.5257 53.6743V49.3558L53.9632 54.3407C54.2548 55.0482 54.4048 55.8061 54.4046 56.5714ZM82.3909 69.7299L101.378 58.7694C100.801 57.3487 100.805 55.7583 101.39 54.3407L92.8271 49.3569V53.6743C92.8263 54.387 92.5427 55.0704 92.0386 55.5744C91.5346 56.0784 90.8512 56.3619 90.1383 56.3628H78.4893V67.4162C79.2603 67.5247 80.0022 67.7851 80.6719 68.1823C81.3416 68.5794 81.9259 69.1055 82.3909 69.7299ZM106.134 28.4694C105.367 28.3767 104.626 28.1339 103.953 27.7549C103.28 27.3759 102.689 26.868 102.212 26.2604L92.8271 31.7227V47.4779L102.212 52.9402C102.689 52.3325 103.28 51.8247 103.953 51.4457C104.626 51.0667 105.367 50.8239 106.134 50.7312V28.4694ZM100.948 22.627C100.948 21.8735 101.094 21.127 101.378 20.429L82.3668 9.45534C81.4272 10.7001 80.0317 11.5209 78.4871 11.7375V22.8302H90.1383C90.8513 22.831 91.5349 23.1147 92.039 23.6189C92.5431 24.1232 92.8266 24.8068 92.8271 25.5198V29.8371L101.39 24.8523C101.098 24.1447 100.948 23.3868 100.948 22.6215V22.627ZM72.9784 9.45534L53.9676 20.429C54.5443 21.8494 54.54 23.4394 53.9556 24.8566L62.5181 29.8415V25.5198C62.5189 24.807 62.8025 24.1237 63.3066 23.6197C63.8106 23.1156 64.494 22.8321 65.2069 22.8312H76.8635V11.732C75.3189 11.5155 73.9235 10.6946 72.9838 9.44988L72.9784 9.45534ZM49.2193 50.729C49.9861 50.822 50.7271 51.0651 51.3999 51.4445C52.0727 51.8239 52.6642 52.3321 53.1405 52.9402L62.5257 47.4779V31.7183L53.1405 26.2561C52.6644 26.8645 52.073 27.3731 51.4002 27.7529C50.7274 28.1327 49.9863 28.3761 49.2193 28.4694V50.729ZM83.478 26.6952C83.2624 26.6952 83.0556 26.7809 82.9032 26.9333C82.7508 27.0857 82.6651 27.2924 82.6651 27.508V30.4085C82.6611 30.5178 82.6792 30.6268 82.7183 30.7289C82.7573 30.8311 82.8166 30.9244 82.8925 31.0031C82.9685 31.0819 83.0595 31.1445 83.1602 31.1873C83.2608 31.2301 83.3691 31.2521 83.4785 31.2521C83.5879 31.2521 83.6962 31.2301 83.7969 31.1873C83.8976 31.1445 83.9886 31.0819 84.0645 31.0031C84.1405 30.9244 84.1997 30.8311 84.2388 30.7289C84.2779 30.6268 84.296 30.5178 84.2919 30.4085V27.5102C84.2917 27.2945 84.2058 27.0878 84.0532 26.9354C83.9005 26.783 83.6937 26.6974 83.478 26.6974V26.6952ZM77.6764 26.6952C77.4608 26.6952 77.2541 26.7809 77.1016 26.9333C76.9492 27.0857 76.8635 27.2924 76.8635 27.508V30.4085C76.8635 30.624 76.9492 30.8307 77.1016 30.9832C77.2541 31.1356 77.4608 31.2212 77.6764 31.2212C77.892 31.2212 78.0988 31.1356 78.2512 30.9832C78.4037 30.8307 78.4893 30.624 78.4893 30.4085V27.5102C78.4893 27.2946 78.4037 27.0879 78.2512 26.9355C78.0988 26.783 77.892 26.6974 77.6764 26.6974V26.6952ZM71.8749 26.6952C71.6593 26.6952 71.4525 26.7809 71.3001 26.9333C71.1476 27.0857 71.062 27.2924 71.062 27.508V30.4085C71.062 30.624 71.1476 30.8307 71.3001 30.9832C71.4525 31.1356 71.6593 31.2212 71.8749 31.2212C72.0905 31.2212 72.2972 31.1356 72.4497 30.9832C72.6021 30.8307 72.6877 30.624 72.6877 30.4085V27.5102C72.6877 27.4031 72.6666 27.297 72.6255 27.1981C72.5843 27.0992 72.5241 27.0095 72.4481 26.9339C72.3722 26.8584 72.282 26.7986 72.1829 26.758C72.0838 26.7174 71.9776 26.6968 71.8705 26.6974L71.8749 26.6952ZM84.2919 41.0445V38.1462C84.2842 37.9357 84.1952 37.7363 84.0434 37.5901C83.8917 37.4439 83.6892 37.3622 83.4785 37.3622C83.2678 37.3622 83.0653 37.4439 82.9136 37.5901C82.7619 37.7363 82.6728 37.9357 82.6651 38.1462V41.0467C82.6728 41.2572 82.7619 41.4566 82.9136 41.6028C83.0653 41.749 83.2678 41.8308 83.4785 41.8308C83.6892 41.8308 83.8917 41.749 84.0434 41.6028C84.1952 41.4566 84.2842 41.2572 84.2919 41.0467V41.0445ZM76.8625 41.0445C76.8625 41.2601 76.9481 41.4668 77.1005 41.6192C77.253 41.7717 77.4597 41.8573 77.6753 41.8573C77.8909 41.8573 78.0977 41.7717 78.2501 41.6192C78.4026 41.4668 78.4882 41.2601 78.4882 41.0445V38.1462C78.4882 37.9307 78.4026 37.724 78.2501 37.5715C78.0977 37.4191 77.8909 37.3335 77.6753 37.3335C77.4597 37.3335 77.253 37.4191 77.1005 37.5715C76.9481 37.724 76.8625 37.9307 76.8625 38.1462V41.0445ZM72.6866 41.0445V38.1462C72.6866 37.9307 72.601 37.724 72.4486 37.5715C72.2961 37.4191 72.0894 37.3335 71.8738 37.3335C71.6582 37.3335 71.4514 37.4191 71.299 37.5715C71.1465 37.724 71.0609 37.9307 71.0609 38.1462V41.0467C71.0609 41.2623 71.1465 41.469 71.299 41.6214C71.4514 41.7738 71.6582 41.8595 71.8738 41.8595C72.0894 41.8595 72.2961 41.7738 72.4486 41.6214C72.601 41.469 72.6866 41.2623 72.6866 41.0467V41.0445ZM83.4769 52.4933C83.6928 52.4933 83.8998 52.4076 84.0525 52.255C84.2051 52.1023 84.2909 51.8953 84.2909 51.6795V48.7812C84.2831 48.5707 84.1941 48.3713 84.0424 48.2251C83.8907 48.0789 83.6881 47.9972 83.4774 47.9972C83.2667 47.9972 83.0642 48.0789 82.9125 48.2251C82.7608 48.3713 82.6717 48.5707 82.664 48.7812V51.6817C82.6639 51.7886 82.6848 51.8945 82.7257 51.9933C82.7665 52.0921 82.8265 52.1819 82.9021 52.2575C82.9777 52.3331 83.0675 52.393 83.1663 52.4339C83.2651 52.4747 83.3711 52.4957 83.478 52.4955L83.4769 52.4933ZM77.6753 52.4933C77.7822 52.4933 77.888 52.4723 77.9867 52.4314C78.0854 52.3905 78.175 52.3305 78.2505 52.2549C78.326 52.1793 78.3859 52.0896 78.4267 51.9908C78.4674 51.8921 78.4883 51.7863 78.4882 51.6795V48.7812C78.4882 48.5656 78.4026 48.3589 78.2501 48.2065C78.0977 48.0541 77.8909 47.9684 77.6753 47.9684C77.4597 47.9684 77.253 48.0541 77.1005 48.2065C76.9481 48.3589 76.8625 48.5656 76.8625 48.7812V51.6817C76.8623 51.7886 76.8833 51.8945 76.9241 51.9933C76.965 52.0921 77.0249 52.1819 77.1005 52.2575C77.1762 52.3331 77.2659 52.393 77.3648 52.4339C77.4636 52.4747 77.5695 52.4957 77.6764 52.4955L77.6753 52.4933ZM71.8738 52.4933C71.9806 52.4933 72.0864 52.4723 72.1851 52.4314C72.2838 52.3905 72.3735 52.3305 72.449 52.2549C72.5245 52.1793 72.5843 52.0896 72.6251 51.9908C72.6659 51.8921 72.6868 51.7863 72.6866 51.6795V48.7812C72.6866 48.5656 72.601 48.3589 72.4486 48.2065C72.2961 48.0541 72.0894 47.9684 71.8738 47.9684C71.6582 47.9684 71.4514 48.0541 71.299 48.2065C71.1465 48.3589 71.0609 48.5656 71.0609 48.7812V51.6817C71.0606 51.8968 71.1457 52.1034 71.2974 52.2559C71.4492 52.4085 71.6553 52.4947 71.8705 52.4955L71.8738 52.4933ZM15.0447 132.499C16.3962 133.795 17.9269 135.265 20.9009 135.265C23.8749 135.265 25.4067 133.795 26.7582 132.499C28.0518 131.258 29.1695 130.186 31.489 130.186C33.8086 130.186 34.9263 131.258 36.2199 132.499C37.5714 133.795 39.1021 135.265 42.076 135.265C45.05 135.265 46.5807 133.795 47.9322 132.499C49.2258 131.258 50.3425 130.186 52.662 130.186C54.9815 130.186 56.097 131.258 57.3906 132.499C58.7411 133.795 60.2718 135.265 63.2446 135.265C66.2175 135.265 67.7493 133.795 69.1008 132.499C70.3933 131.258 71.511 130.186 73.8306 130.186C74.0411 130.178 74.2405 130.089 74.3868 129.937C74.533 129.786 74.6147 129.583 74.6147 129.373C74.6147 129.162 74.533 128.959 74.3868 128.808C74.2405 128.656 74.0411 128.567 73.8306 128.559C70.8566 128.559 69.3248 130.03 67.9744 131.325C66.6808 132.567 65.5642 133.639 63.2446 133.639C60.9251 133.639 59.8096 132.567 58.5171 131.325C57.1656 130.03 55.6349 128.559 52.662 128.559C49.6891 128.559 48.1573 130.03 46.8058 131.325C45.5133 132.567 44.3956 133.639 42.076 133.639C39.7565 133.639 38.6388 132.567 37.3463 131.325C35.9948 130.03 34.463 128.559 31.489 128.559C28.515 128.559 26.9833 130.03 25.6328 131.325C24.3381 132.566 23.2215 133.639 20.9009 133.639C18.5803 133.639 17.4637 132.567 16.1701 131.325C14.8186 130.03 13.2879 128.559 10.3128 128.559C10.1022 128.567 9.90284 128.656 9.7566 128.808C9.61035 128.959 9.52864 129.162 9.52864 129.373C9.52864 129.583 9.61035 129.786 9.7566 129.937C9.90284 130.089 10.1022 130.178 10.3128 130.186C12.6334 130.186 13.7457 131.258 15.0447 132.499ZM10.3128 119.083C10.0972 119.083 9.89045 118.998 9.738 118.845C9.58556 118.693 9.49992 118.486 9.49992 118.271C9.49992 118.055 9.58556 117.848 9.738 117.696C9.89045 117.543 10.0972 117.458 10.3128 117.458C13.2879 117.458 14.8186 118.927 16.1701 120.224C17.078 121.098 17.9073 121.873 19.12 122.266V105.078C18.9664 104.998 18.8201 104.905 18.683 104.799L1.34386 91.3189C1.20982 91.215 1.11164 91.0717 1.06307 90.9092C1.0145 90.7468 1.01798 90.5732 1.07303 90.4127C1.12807 90.2523 1.23191 90.1132 1.37002 90.0147C1.50812 89.9163 1.67356 89.8635 1.84317 89.8637H8.781V71.0442C8.78158 70.2806 9.0852 69.5485 9.62518 69.0086C10.1652 68.4686 10.8974 68.1651 11.661 68.1645H29.2296C29.9931 68.1653 30.7252 68.469 31.2651 69.0089C31.805 69.5487 32.1087 70.2807 32.1096 71.0442V86.1199C35.4071 85.657 38.7331 85.427 42.0629 85.4317C53.1864 85.4317 65.007 87.9618 65.007 92.6506V122.27C66.2274 121.88 67.0599 121.097 67.9722 120.222C69.3226 118.925 70.8544 117.456 73.8284 117.456C74.044 117.456 74.2507 117.541 74.4032 117.694C74.5556 117.846 74.6413 118.053 74.6413 118.268C74.6413 118.484 74.5556 118.691 74.4032 118.843C74.2507 118.996 74.044 119.081 73.8284 119.081C71.5089 119.081 70.3912 120.154 69.0986 121.395C67.7471 122.692 66.2164 124.161 63.2425 124.161C60.2685 124.161 58.7389 122.692 57.3884 121.395C56.0948 120.154 54.9782 119.081 52.6598 119.081C50.3414 119.081 49.2237 120.154 47.9301 121.395C46.5785 122.692 45.0479 124.161 42.0739 124.161C39.0999 124.161 37.5692 122.692 36.2177 121.395C34.9241 120.154 33.8075 119.081 31.4868 119.081C29.1662 119.081 28.0496 120.154 26.756 121.395C25.4045 122.692 23.8727 124.161 20.8987 124.161C17.9247 124.161 16.394 122.692 15.0425 121.395C13.7457 120.156 12.6334 119.083 10.3128 119.083ZM4.21296 91.4893L19.675 103.52C19.8952 103.692 20.1663 103.785 20.4453 103.785C20.7243 103.785 20.9954 103.692 21.2156 103.52L36.6777 91.4948H31.2967C31.1899 91.4949 31.0841 91.474 30.9853 91.4332C30.8866 91.3924 30.7968 91.3326 30.7212 91.2571C30.6456 91.1816 30.5857 91.0919 30.5447 90.9933C30.5038 90.8946 30.4828 90.7888 30.4828 90.682V71.0442C30.4828 70.7117 30.3508 70.3929 30.1158 70.1578C29.8808 69.9226 29.562 69.7903 29.2296 69.79H11.661C11.3285 69.7903 11.0096 69.9226 10.7744 70.1577C10.5393 70.3928 10.407 70.7116 10.4068 71.0442V90.6765C10.4068 90.7833 10.3857 90.8889 10.3449 90.9876C10.304 91.0862 10.2441 91.1758 10.1687 91.2512C10.0932 91.3267 10.0036 91.3866 9.90495 91.4274C9.80633 91.4683 9.70063 91.4893 9.59388 91.4893H4.21296ZM42.0629 87.0594C38.7323 87.0493 35.4054 87.2856 32.1096 87.7662V89.8648H39.0474C39.2171 89.8646 39.3825 89.9174 39.5206 90.0158C39.6587 90.1143 39.7625 90.2534 39.8176 90.4138C39.8726 90.5742 39.8761 90.7479 39.8275 90.9103C39.779 91.0728 39.6808 91.216 39.5467 91.32L31.6387 97.4693C35.0879 97.9993 38.5732 98.2594 42.0629 98.2472C54.2648 98.2472 63.3823 95.2976 63.3823 92.6538C63.3823 90.0101 54.2648 87.0594 42.0629 87.0594ZM58.5171 120.224C59.6566 121.316 60.6618 122.279 62.4711 122.491C63.0655 121.999 63.3823 121.496 63.3823 121.004V109.638C59.7768 112.52 50.7085 114.048 42.0629 114.048C33.4174 114.048 24.3556 112.519 20.7447 109.638V121C20.7447 121.492 21.0615 121.995 21.657 122.487C23.4783 122.279 24.4878 121.317 25.6328 120.22C26.9833 118.923 28.515 117.453 31.489 117.453C34.463 117.453 35.9948 118.924 37.3452 120.224C38.6377 121.465 39.7554 122.537 42.075 122.537C44.3945 122.537 45.5122 121.465 46.8047 120.224C48.1562 118.927 49.688 117.458 52.6609 117.458C55.6338 117.458 57.1656 118.924 58.5171 120.224ZM20.7447 106.828C20.7447 109.469 29.8622 112.422 42.0629 112.422C54.2637 112.422 63.3823 109.472 63.3823 106.828V95.4669C59.7768 98.3488 50.7085 99.8771 42.0629 99.8771C37.886 99.8771 33.6108 99.5199 29.8993 98.8262L22.2131 104.799C21.7879 105.126 21.279 105.328 20.7447 105.381V106.828ZM63.2457 144.736C60.9273 144.736 59.8107 143.665 58.5182 142.423C57.1667 141.127 55.636 139.657 52.6631 139.657C49.6902 139.657 48.1584 141.127 46.8069 142.423C45.5144 143.665 44.3967 144.736 42.0771 144.736C39.7576 144.736 38.6399 143.665 37.3474 142.423C35.9959 141.127 34.4641 139.657 31.4901 139.657C28.5161 139.657 26.9844 141.127 25.6339 142.423C24.3392 143.665 23.2226 144.736 20.902 144.736C18.5814 144.736 17.4648 143.665 16.1712 142.423C14.8197 141.127 13.289 139.657 10.3139 139.657C10.0983 139.657 9.89153 139.743 9.73909 139.895C9.58665 140.048 9.50101 140.255 9.50101 140.47C9.50101 140.686 9.58665 140.892 9.73909 141.045C9.89153 141.197 10.0983 141.283 10.3139 141.283C12.6345 141.283 13.7511 142.355 15.0458 143.597C16.3973 144.892 17.928 146.362 20.902 146.362C23.876 146.362 25.4078 144.892 26.7593 143.597C28.0529 142.355 29.1706 141.283 31.4901 141.283C33.8096 141.283 34.9274 142.355 36.221 143.596C37.5725 144.892 39.1032 146.362 42.0771 146.362C45.0511 146.362 46.5818 144.892 47.9333 143.596C49.2269 142.355 50.3435 141.283 52.6631 141.283C54.9826 141.283 56.0981 142.355 57.3917 143.596C58.7421 144.892 60.2729 146.362 63.2457 146.362C66.2186 146.362 67.7504 144.892 69.1019 143.597C70.3944 142.355 71.5121 141.283 73.8317 141.283C74.0472 141.283 74.254 141.197 74.4064 141.045C74.5589 140.892 74.6445 140.686 74.6445 140.47C74.6445 140.255 74.5589 140.048 74.4064 139.895C74.254 139.743 74.0472 139.657 73.8317 139.657C70.8577 139.657 69.3259 141.127 67.9755 142.423C66.6808 143.669 65.5642 144.741 63.2446 144.741L63.2457 144.736ZM148.33 93.9375V108.8C148.33 108.815 148.33 108.831 148.33 108.846C148.33 108.861 148.33 108.876 148.33 108.892V141.319C148.329 141.996 148.059 142.646 147.58 143.125C147.101 143.604 146.452 143.873 145.774 143.874H101.075C100.398 143.873 99.7482 143.604 99.2692 143.125C98.7902 142.646 98.5206 141.996 98.5194 141.319V108.901C98.5194 108.884 98.5194 108.87 98.5194 108.855C98.5194 108.84 98.5194 108.824 98.5194 108.809V93.9462C98.5206 93.1302 98.8454 92.3479 99.4226 91.771C99.9997 91.1941 100.782 90.8696 101.598 90.8688H108.441V80.4479L103.098 85.79C102.946 85.9424 102.739 86.028 102.523 86.0279C102.308 86.0278 102.101 85.942 101.948 85.7895C101.796 85.6369 101.71 85.4301 101.711 85.2144C101.711 84.9988 101.796 84.7921 101.949 84.6397L108.678 77.9113C108.754 77.8355 108.844 77.7753 108.943 77.7343C109.041 77.6933 109.147 77.6721 109.255 77.6721C109.362 77.6721 109.468 77.6933 109.566 77.7343C109.665 77.7753 109.755 77.8355 109.831 77.9113L116.56 84.6397C116.636 84.7151 116.695 84.8047 116.736 84.9033C116.777 85.002 116.798 85.1077 116.798 85.2144C116.798 85.3212 116.777 85.4269 116.737 85.5256C116.696 85.6243 116.636 85.7139 116.561 85.7895C116.485 85.865 116.395 85.9249 116.297 85.9658C116.198 86.0067 116.092 86.0278 115.986 86.0279C115.879 86.0279 115.773 86.0069 115.674 85.9661C115.576 85.9253 115.486 85.8655 115.411 85.79L110.068 80.4479V90.8688H122.612V71.9487L117.269 77.2908C117.117 77.4433 116.91 77.5291 116.694 77.5292C116.479 77.5293 116.272 77.4437 116.119 77.2913C115.967 77.1389 115.881 76.9322 115.881 76.7165C115.881 76.5009 115.966 76.2941 116.119 76.1415L122.849 69.4121C122.925 69.3361 123.016 69.2759 123.115 69.2351H123.127C123.318 69.1578 123.531 69.1578 123.722 69.2351H123.734C123.833 69.2759 123.924 69.3361 124 69.4121L130.73 76.1415C130.877 76.2949 130.959 76.5001 130.957 76.7131C130.955 76.9261 130.87 77.1298 130.719 77.2804C130.569 77.431 130.365 77.5165 130.152 77.5184C129.939 77.5204 129.734 77.4386 129.58 77.2908L124.237 71.9487V90.871H136.781V80.4479L135.219 82.0101L131.439 85.79C131.363 85.8655 131.273 85.9253 131.175 85.9661C131.076 86.0069 130.97 86.0279 130.864 86.0279C130.757 86.0278 130.651 86.0067 130.552 85.9658C130.454 85.9249 130.364 85.865 130.289 85.7895C130.213 85.7139 130.153 85.6243 130.113 85.5256C130.072 85.4269 130.051 85.3212 130.051 85.2144C130.051 85.1077 130.072 85.002 130.113 84.9033C130.154 84.8047 130.214 84.7151 130.289 84.6397L135.183 79.7466L137.018 77.9113C137.094 77.8355 137.184 77.7754 137.282 77.7344C137.381 77.6933 137.487 77.6722 137.594 77.6722C137.701 77.6722 137.807 77.6933 137.906 77.7344C138.005 77.7754 138.094 77.8355 138.17 77.9113L144.9 84.6397C145.044 84.7939 145.123 84.9981 145.12 85.2092C145.116 85.4203 145.031 85.6218 144.881 85.7711C144.732 85.9204 144.53 86.0058 144.319 86.0093C144.108 86.0129 143.904 85.9342 143.75 85.79L138.407 80.4479V90.8688H145.251C146.067 90.8699 146.849 91.1945 147.426 91.7714C148.003 92.3483 148.328 93.1304 148.329 93.9462L148.33 93.9375ZM146.703 141.319V126.749H100.146V141.319C100.147 141.565 100.244 141.801 100.419 141.975C100.593 142.149 100.829 142.247 101.075 142.248H145.773C146.02 142.248 146.256 142.15 146.43 141.976C146.605 141.802 146.703 141.565 146.703 141.319ZM100.146 107.999H146.703V93.9462C146.702 93.5614 146.549 93.1926 146.277 92.9206C146.005 92.6486 145.636 92.4957 145.251 92.4954H101.598C101.213 92.4957 100.844 92.6486 100.572 92.9206C100.3 93.1926 100.147 93.5614 100.146 93.9462V107.999ZM146.703 109.717H100.146V125.12H146.703V109.717ZM141.838 103.397C142.053 103.397 142.26 103.311 142.413 103.159C142.566 103.007 142.651 102.8 142.652 102.584V97.9129C142.644 97.7023 142.555 97.503 142.403 97.3568C142.252 97.2105 142.049 97.1288 141.838 97.1288C141.628 97.1288 141.425 97.2105 141.273 97.3568C141.122 97.503 141.033 97.7023 141.025 97.9129V102.584C141.026 102.799 141.112 103.005 141.264 103.157C141.416 103.308 141.623 103.394 141.838 103.394V103.397ZM131.568 103.397C131.783 103.397 131.99 103.311 132.143 103.159C132.295 103.007 132.381 102.8 132.382 102.584V97.9129C132.374 97.7023 132.285 97.503 132.133 97.3568C131.981 97.2105 131.779 97.1288 131.568 97.1288C131.357 97.1288 131.155 97.2105 131.003 97.3568C130.851 97.503 130.762 97.7023 130.755 97.9129V102.584C130.756 102.799 130.842 103.005 130.994 103.157C131.147 103.309 131.353 103.394 131.569 103.394L131.568 103.397ZM109.155 99.4357H106.976C106.76 99.4357 106.554 99.5214 106.401 99.6738C106.249 99.8262 106.163 100.033 106.163 100.249C106.163 100.464 106.249 100.671 106.401 100.823C106.554 100.976 106.76 101.061 106.976 101.061H109.155C109.37 101.061 109.577 100.976 109.729 100.823C109.882 100.671 109.967 100.464 109.967 100.249C109.967 100.033 109.882 99.8262 109.729 99.6738C109.577 99.5214 109.37 99.4357 109.155 99.4357ZM117.037 99.4357H114.859C114.643 99.4357 114.437 99.5214 114.284 99.6738C114.132 99.8262 114.046 100.033 114.046 100.249C114.046 100.464 114.132 100.671 114.284 100.823C114.437 100.976 114.643 101.061 114.859 101.061H117.037C117.253 101.061 117.46 100.976 117.612 100.823C117.765 100.671 117.85 100.464 117.85 100.249C117.85 100.033 117.765 99.8262 117.612 99.6738C117.46 99.5214 117.253 99.4357 117.037 99.4357ZM141.839 120.57C142.055 120.57 142.261 120.485 142.414 120.332C142.567 120.18 142.653 119.973 142.653 119.757V115.086C142.645 114.876 142.556 114.676 142.404 114.53C142.253 114.384 142.05 114.302 141.839 114.302C141.629 114.302 141.426 114.384 141.274 114.53C141.123 114.676 141.034 114.876 141.026 115.086V119.757C141.028 119.971 141.114 120.176 141.266 120.327C141.418 120.478 141.624 120.562 141.838 120.563L141.839 120.57ZM131.569 120.57C131.784 120.57 131.991 120.485 132.144 120.332C132.296 120.18 132.382 119.973 132.383 119.757V115.086C132.375 114.876 132.286 114.676 132.134 114.53C131.982 114.384 131.78 114.302 131.569 114.302C131.358 114.302 131.156 114.384 131.004 114.53C130.853 114.676 130.763 114.876 130.756 115.086V119.757C130.758 119.972 130.844 120.176 130.997 120.327C131.149 120.478 131.354 120.563 131.569 120.563V120.57ZM106.977 118.235H109.156C109.366 118.227 109.566 118.138 109.712 117.986C109.858 117.834 109.94 117.632 109.94 117.421C109.94 117.211 109.858 117.008 109.712 116.856C109.566 116.705 109.366 116.616 109.156 116.608H106.977C106.766 116.616 106.567 116.705 106.421 116.856C106.275 117.008 106.193 117.211 106.193 117.421C106.193 117.632 106.275 117.834 106.421 117.986C106.567 118.138 106.766 118.227 106.977 118.235ZM114.86 118.235H117.039C117.249 118.227 117.448 118.138 117.595 117.986C117.741 117.834 117.823 117.632 117.823 117.421C117.823 117.211 117.741 117.008 117.595 116.856C117.448 116.705 117.249 116.616 117.039 116.608H114.86C114.649 116.616 114.45 116.705 114.304 116.856C114.158 117.008 114.076 117.211 114.076 117.421C114.076 117.632 114.158 117.834 114.304 117.986C114.45 118.138 114.649 118.227 114.86 118.235ZM141.838 131.125C141.731 131.125 141.625 131.146 141.527 131.187C141.428 131.228 141.338 131.288 141.263 131.363C141.187 131.439 141.128 131.529 141.087 131.627C141.046 131.726 141.025 131.831 141.025 131.938V136.609C141.033 136.82 141.122 137.019 141.273 137.166C141.425 137.312 141.628 137.394 141.838 137.394C142.049 137.394 142.252 137.312 142.403 137.166C142.555 137.019 142.644 136.82 142.652 136.609V131.938C142.652 131.831 142.632 131.725 142.591 131.625C142.55 131.526 142.49 131.436 142.415 131.36C142.339 131.284 142.249 131.223 142.15 131.182C142.051 131.141 141.945 131.12 141.838 131.12V131.125ZM131.568 131.125C131.461 131.125 131.355 131.146 131.256 131.187C131.158 131.228 131.068 131.288 130.993 131.363C130.917 131.439 130.857 131.529 130.817 131.627C130.776 131.726 130.755 131.831 130.755 131.938V136.609C130.762 136.82 130.851 137.019 131.003 137.166C131.155 137.312 131.357 137.394 131.568 137.394C131.779 137.394 131.981 137.312 132.133 137.166C132.285 137.019 132.374 136.82 132.382 136.609V131.938C132.382 131.831 132.362 131.725 132.321 131.626C132.28 131.526 132.221 131.436 132.145 131.36C132.07 131.284 131.98 131.224 131.881 131.183C131.782 131.141 131.676 131.12 131.569 131.12L131.568 131.125ZM109.156 133.453H106.977C106.761 133.453 106.555 133.539 106.402 133.691C106.25 133.844 106.164 134.051 106.164 134.266C106.164 134.482 106.25 134.689 106.402 134.841C106.555 134.993 106.761 135.079 106.977 135.079H109.156C109.371 135.079 109.578 134.993 109.73 134.841C109.883 134.689 109.968 134.482 109.968 134.266C109.968 134.051 109.883 133.844 109.73 133.691C109.578 133.539 109.371 133.453 109.156 133.453ZM117.039 133.453H114.86C114.644 133.453 114.438 133.539 114.285 133.691C114.133 133.844 114.047 134.051 114.047 134.266C114.047 134.482 114.133 134.689 114.285 134.841C114.438 134.993 114.644 135.079 114.86 135.079H117.039C117.254 135.079 117.461 134.993 117.613 134.841C117.766 134.689 117.851 134.482 117.851 134.266C117.851 134.051 117.766 133.844 117.613 133.691C117.461 133.539 117.254 133.453 117.039 133.453Z" fill="url(#paint0_linear_59_7772)"/>
<defs>
<linearGradient id="paint0_linear_59_7772" x1="18.6579" y1="30.6641" x2="139.343" y2="151.363" gradientUnits="userSpaceOnUse">
<stop stop-color="#05B8C3"/>
<stop offset="1" stop-color="#68326F"/>
</linearGradient>
</defs>
</svg>
