<svg width="161" height="125" viewBox="0 0 161 125" fill="none" xmlns="http://www.w3.org/2000/svg">
<g clip-path="url(#clip0_33_2239)">
<path d="M139.32 94.2651H168.611C168.909 94.2651 169.195 94.3773 169.406 94.5769C169.617 94.7765 169.735 95.0473 169.735 95.3296V98.5744C169.735 100.047 169.117 101.458 168.017 102.499C166.917 103.54 165.425 104.125 163.869 104.125H144.498" stroke="#68326F" stroke-width="2" stroke-linecap="round" stroke-linejoin="round"/>
<path d="M32.2253 104.125H12.8562C11.2999 104.125 9.80727 103.54 8.70632 102.499C7.60537 101.458 6.98619 100.046 6.98486 98.5737V95.3302C6.98486 95.1904 7.01396 95.052 7.07049 94.9229C7.12702 94.7937 7.20988 94.6764 7.31433 94.5775C7.41879 94.4787 7.54279 94.4003 7.67927 94.3468C7.81574 94.2933 7.96201 94.2657 8.10973 94.2657H37.4373" stroke="#68326F" stroke-width="2" stroke-linecap="round" stroke-linejoin="round"/>
<path d="M85.8955 11.0056H90.8267" stroke="#05B8C3" stroke-width="2" stroke-linecap="round" stroke-linejoin="round"/>
<path d="M22.605 19.2808H154.117" stroke="#68326F" stroke-width="2" stroke-linecap="round" stroke-linejoin="round"/>
<path d="M7.80908 94.3194L22.6042 78.709V13.6848C22.6043 12.2036 22.9127 10.737 23.5118 9.36864C24.1108 8.00028 24.9889 6.75697 26.0957 5.70971C27.2025 4.66245 28.5165 3.83174 29.9626 3.26502C31.4087 2.69829 32.9586 2.40665 34.5238 2.40674H142.199C145.36 2.40674 148.392 3.59495 150.627 5.70999C152.862 7.82503 154.117 10.6936 154.117 13.6848V78.709L168.914 94.3194" stroke="#68326F" stroke-width="2" stroke-linecap="round" stroke-linejoin="round"/>
<path d="M129.809 78.7632H154.118" stroke="#68326F" stroke-width="2" stroke-linecap="round" stroke-linejoin="round"/>
<path d="M22.605 78.7632H46.9139" stroke="#68326F" stroke-width="2" stroke-linecap="round" stroke-linejoin="round"/>
<path d="M28.3584 87.0078H31.6464" stroke="#68326F" stroke-width="2" stroke-linecap="round" stroke-linejoin="round"/>
<path d="M39.8652 87.0078H43.1532" stroke="#68326F" stroke-width="2" stroke-linecap="round" stroke-linejoin="round"/>
<path d="M133.569 87.0078H136.856" stroke="#68326F" stroke-width="2" stroke-linecap="round" stroke-linejoin="round"/>
<path d="M145.076 87.0078H148.364" stroke="#68326F" stroke-width="2" stroke-linecap="round" stroke-linejoin="round"/>
<path d="M93.565 108.621C96.439 105.901 96.439 101.492 93.565 98.7724C90.691 96.0528 86.0314 96.0528 83.1574 98.7724C80.2834 101.492 80.2834 105.901 83.1574 108.621C86.0314 111.341 90.691 111.341 93.565 108.621Z" stroke="#05B8C3" stroke-width="2" stroke-linecap="round" stroke-linejoin="round"/>
<path d="M90.0375 87.0274H86.6844C85.937 87.0266 85.2167 86.7624 84.6639 86.2864C84.1111 85.8104 83.7654 85.1567 83.6943 84.4527L81.403 65.0452C81.3636 64.6512 81.4116 64.2538 81.544 63.8783C81.6763 63.5029 81.8901 63.1578 82.1716 62.865C82.4531 62.5723 82.7961 62.3385 83.1787 62.1785C83.5612 62.0185 83.9749 61.9359 84.3931 61.9359H92.3223C92.7406 61.9359 93.1542 62.0185 93.5368 62.1785C93.9193 62.3385 94.2623 62.5723 94.5438 62.865C94.8253 63.1578 95.0391 63.5029 95.1714 63.8783C95.3038 64.2538 95.3518 64.6512 95.3124 65.0452L93.0212 84.4527C92.951 85.156 92.6066 85.8094 92.0549 86.2854C91.5033 86.7614 90.7841 87.026 90.0375 87.0274Z" stroke="#05B8C3" stroke-width="2" stroke-linecap="round" stroke-linejoin="round"/>
<path d="M135.811 108.037L97.2427 44.8201C93.2953 38.35 83.4235 38.35 79.4789 44.8201L40.9112 108.037C36.963 114.507 41.8978 122.594 49.7898 122.594H126.927C134.825 122.594 139.759 114.507 135.811 108.037Z" stroke="#05B8C3" stroke-width="2" stroke-linecap="round" stroke-linejoin="round"/>
</g>
<defs>
<clipPath id="clip0_33_2239">
<rect width="160.767" height="125" fill="white"/>
</clipPath>
</defs>
</svg>
