<svg width="66" height="66" viewBox="0 0 66 66" fill="none" xmlns="http://www.w3.org/2000/svg">
<path d="M21.0674 48.1888V17.7842" stroke="#03656B" stroke-width="2" stroke-linecap="round" stroke-linejoin="round"/>
<path d="M12.9717 48.1894V17.8545" stroke="#03656B" stroke-width="2" stroke-linecap="round" stroke-linejoin="round"/>
<path d="M4.87012 48.1878V26.0088" stroke="#03656B" stroke-width="2" stroke-linecap="round" stroke-linejoin="round"/>
<path d="M37.2656 48.1894V9.7334" stroke="#03656B" stroke-width="2" stroke-linecap="round" stroke-linejoin="round"/>
<path d="M29.167 48.1888V17.7842" stroke="#03656B" stroke-width="2" stroke-linecap="round" stroke-linejoin="round"/>
<path d="M1 29.9068L17.0258 13.7692L25.1186 21.8089L40.8482 6.1748" stroke="white" stroke-width="2" stroke-linecap="round" stroke-linejoin="round"/>
<path d="M1.87988 29.0199L17.0247 13.7692L25.1175 21.8089L40.8471 6.1748" stroke="#03656B" stroke-width="2" stroke-linecap="round" stroke-linejoin="round"/>
<path d="M36.1279 1H45.7021V10.5114" stroke="#03656B" stroke-width="2" stroke-linecap="round" stroke-linejoin="round"/>
<path d="M63.892 58.5794L56.8751 51.6085C58.388 49.0186 59.0711 46.0324 58.8336 43.0472C58.5962 40.0621 57.4494 37.2195 55.5458 34.8978L55.2768 34.5841C55.0352 34.3014 54.8246 33.9993 54.5556 33.7321C53.1747 32.3576 51.5339 31.2679 49.7276 30.5255C47.9213 29.7831 45.9851 29.4027 44.0303 29.4063C43.8042 29.4063 43.5898 29.4295 43.3676 29.4411C43.1454 29.4527 42.8686 29.4411 42.6191 29.476C42.163 29.5186 41.7186 29.5883 41.2742 29.6696H41.2235C38.3155 30.2276 35.6421 31.6374 33.5475 33.7176C31.4528 35.7978 30.0328 38.4532 29.4702 41.342C29.4702 41.373 29.4702 41.4001 29.4702 41.431C29.3923 41.8609 29.3221 42.2908 29.2831 42.7323C29.2558 42.9956 29.2519 43.259 29.2402 43.5068C29.2285 43.7547 29.209 43.9173 29.209 44.1226V44.1419C29.2049 46.0843 29.5879 48.0083 30.336 49.803C31.084 51.5976 32.1822 53.2273 33.5673 54.5983C33.8129 54.8422 34.0936 55.032 34.347 55.2566C34.4912 55.3767 34.6315 55.5006 34.7797 55.6168C37.1144 57.4911 39.9665 58.6178 42.9593 58.848C45.9522 59.0783 48.9449 58.4013 51.5423 56.9064L58.5592 63.8773C59.2731 64.5679 60.2321 64.9513 61.2285 64.9445C62.2249 64.9377 63.1785 64.5413 63.8828 63.8411C64.5872 63.1409 64.9855 62.1932 64.9916 61.2033C64.9977 60.2135 64.611 59.261 63.9154 58.5523L63.892 58.5794Z" fill="white" stroke="white" stroke-width="2" stroke-linecap="round" stroke-linejoin="round"/>
<path d="M63.9174 58.6066L56.9005 51.6358C58.7191 48.5325 59.3383 44.8776 58.6421 41.3539C57.946 37.8303 55.9822 34.679 53.1178 32.4889C50.2533 30.2987 46.6841 29.2196 43.0772 29.4532C39.4703 29.6867 36.0724 31.217 33.5183 33.758C30.9643 36.2989 29.4289 39.6768 29.1991 43.2604C28.9692 46.844 30.0606 50.3882 32.2694 53.2307C34.4781 56.0731 37.6531 58.0194 41.201 58.7059C44.7489 59.3923 48.4271 58.772 51.5482 56.9607L58.5651 63.9316C59.2785 64.6227 60.2372 65.0068 61.2336 65.0008C62.23 64.9947 63.1839 64.599 63.8887 63.8993C64.5936 63.1996 64.9926 62.2522 64.9995 61.2623C65.0063 60.2724 64.6203 59.3197 63.9252 58.6105L63.9174 58.6066ZM44.0362 51.9611C42.4801 51.9618 40.9588 51.5041 39.6646 50.6459C38.3704 49.7876 37.3615 48.5673 36.7655 47.1393C36.1695 45.7114 36.0131 44.1399 36.3162 42.6237C36.6193 41.1074 37.3683 39.7145 38.4683 38.6212C39.5683 37.5278 40.97 36.7831 42.4961 36.4813C44.0222 36.1794 45.6041 36.3339 47.0418 36.9253C48.4795 37.5167 49.7084 38.5184 50.573 39.8037C51.4376 41.089 51.899 42.6001 51.899 44.1459C51.899 45.1726 51.6954 46.1891 51.2998 47.1376C50.9042 48.086 50.3244 48.9477 49.5935 49.6734C48.8626 50.3992 47.995 50.9748 47.0401 51.3673C46.0852 51.7598 45.0618 51.9616 44.0284 51.9611H44.0362Z" fill="#03656B" stroke="#03656B" stroke-width="2" stroke-linecap="round" stroke-linejoin="round"/>
</svg>
