<svg width="64" height="64" viewBox="0 0 64 64" fill="none" xmlns="http://www.w3.org/2000/svg">
<g clip-path="url(#clip0_49_2165)">
<path fill-rule="evenodd" clip-rule="evenodd" d="M54.833 4.78067V9.56123H64.0058V4.78067C64.0058 3.51198 63.5225 2.29525 62.6624 1.39815C61.8023 0.501055 60.6358 -0.00292969 59.4194 -0.00292969C58.203 -0.00292969 57.0364 0.501055 56.1763 1.39815C55.3162 2.29525 54.833 3.51198 54.833 4.78067Z" fill="#68326F"/>
<path fill-rule="evenodd" clip-rule="evenodd" d="M41.7373 10.9349L45.4705 7.04276C45.6285 6.88257 45.8404 6.79364 46.0607 6.79517C46.281 6.79671 46.492 6.8886 46.6478 7.05097C46.8037 7.21335 46.8921 7.43318 46.8938 7.66295C46.8956 7.89272 46.8105 8.11398 46.6571 8.27891L42.3299 12.7907C42.2521 12.8719 42.1598 12.9364 42.0581 12.9804C41.9564 13.0244 41.8474 13.0471 41.7373 13.0471C41.6272 13.0471 41.5182 13.0244 41.4165 12.9804C41.3148 12.9364 41.2225 12.8719 41.1447 12.7907L39.2432 10.8074C39.1604 10.7274 39.094 10.6308 39.0479 10.5234C39.0018 10.4161 38.9769 10.3001 38.9747 10.1824C38.9726 10.0648 38.9933 9.9479 39.0355 9.83877C39.0776 9.72964 39.1405 9.63051 39.2202 9.54731C39.3 9.46411 39.3951 9.39855 39.4997 9.35456C39.6043 9.31056 39.7164 9.28904 39.8291 9.29127C39.9419 9.2935 40.0532 9.31945 40.1561 9.36756C40.2591 9.41566 40.3516 9.48494 40.4283 9.57123L41.7387 10.938L41.7373 10.9349ZM46.5931 13.6077C47.6793 11.7854 48.1219 9.32067 47.9413 6.08604C45.868 5.50594 43.9635 4.56744 42.4667 3.40723C40.97 4.57351 39.0656 5.50594 36.9922 6.08604C36.8117 9.32067 37.2557 11.7854 38.3404 13.6077C39.214 15.0731 40.5244 16.1605 42.4667 17.0124C44.4047 16.1544 45.7224 15.0731 46.5931 13.6077Z" fill="white"/>
<path fill-rule="evenodd" clip-rule="evenodd" d="M36.9158 14.5315C35.5661 12.2642 35.0579 9.25285 35.3622 5.32271C35.3768 5.13794 35.4472 4.96276 35.5634 4.82246C35.6796 4.68217 35.8355 4.58401 36.0087 4.54214C38.2917 3.98633 40.4495 2.92331 41.9288 1.62491C42.0799 1.49183 42.2712 1.41883 42.469 1.41883C42.6667 1.41883 42.8581 1.49183 43.0092 1.62491C44.487 2.92331 46.6492 3.98633 48.9278 4.54214C49.101 4.58364 49.257 4.68173 49.373 4.82213C49.489 4.96254 49.559 5.13791 49.5728 5.32271C49.8786 9.25285 49.369 12.2642 48.0193 14.5315C46.9011 16.4085 45.2354 17.754 42.7777 18.7715C42.5792 18.8524 42.3588 18.8524 42.1603 18.7715C39.7011 17.754 38.0354 16.407 36.9187 14.5315H36.9158ZM11.5814 8.63781H21.4298C21.5427 8.6329 21.6555 8.65187 21.7613 8.69357C21.867 8.73528 21.9636 8.79886 22.0452 8.8805C22.1268 8.96214 22.1918 9.06015 22.2361 9.16863C22.2805 9.27711 22.3034 9.39383 22.3034 9.51177C22.3034 9.62971 22.2805 9.74643 22.2361 9.85491C22.1918 9.96339 22.1268 10.0614 22.0452 10.143C21.9636 10.2247 21.867 10.2883 21.7613 10.33C21.6555 10.3717 21.5427 10.3906 21.4298 10.3857H11.5814C11.4684 10.3906 11.3556 10.3717 11.2498 10.33C11.1441 10.2883 11.0475 10.2247 10.9659 10.143C10.8843 10.0614 10.8194 9.96339 10.775 9.85491C10.7307 9.74643 10.7078 9.62971 10.7078 9.51177C10.7078 9.39383 10.7307 9.27711 10.775 9.16863C10.8194 9.06015 10.8843 8.96214 10.9659 8.8805C11.0475 8.79886 11.1441 8.73528 11.2498 8.69357C11.3556 8.65187 11.4684 8.6329 11.5814 8.63781ZM11.7474 12.8595H27.6614C27.8839 12.8595 28.0972 12.9517 28.2545 13.1157C28.4118 13.2798 28.5001 13.5023 28.5001 13.7342C28.5001 13.9662 28.4118 14.1887 28.2545 14.3528C28.0972 14.5168 27.8839 14.609 27.6614 14.609H11.7474C11.5249 14.609 11.3116 14.5168 11.1543 14.3528C10.9971 14.1887 10.9087 13.9662 10.9087 13.7342C10.9087 13.5023 10.9971 13.2798 11.1543 13.1157C11.3116 12.9517 11.5249 12.8595 11.7474 12.8595ZM11.7474 17.0828C11.5249 17.0828 11.3116 17.1749 11.1543 17.339C10.9971 17.503 10.9087 17.7255 10.9087 17.9575C10.9087 18.1895 10.9971 18.412 11.1543 18.576C11.3116 18.74 11.5249 18.8322 11.7474 18.8322H34.2557C34.4781 18.8322 34.6915 18.74 34.8487 18.576C35.006 18.412 35.0944 18.1895 35.0944 17.9575C35.0944 17.7255 35.006 17.503 34.8487 17.339C34.6915 17.1749 34.4781 17.0828 34.2557 17.0828H11.7474ZM23.9894 22.9765H39.3517C39.5741 22.9765 39.7875 23.0686 39.9447 23.2327C40.102 23.3967 40.1904 23.6192 40.1904 23.8512C40.1904 24.0832 40.102 24.3057 39.9447 24.4697C39.7875 24.6337 39.5741 24.7259 39.3517 24.7259H23.9967C23.7743 24.7259 23.5609 24.6337 23.4037 24.4697C23.2464 24.3057 23.158 24.0832 23.158 23.8512C23.158 23.6192 23.2464 23.3967 23.4037 23.2327C23.5609 23.0686 23.7743 22.9765 23.9967 22.9765H23.9894ZM23.9894 26.9248H46.5007C46.6108 26.9248 46.7198 26.9475 46.8216 26.9914C46.9233 27.0354 47.0158 27.0998 47.0936 27.181C47.1715 27.2623 47.2334 27.3587 47.2755 27.4648C47.3176 27.5709 47.3393 27.6847 47.3393 27.7995C47.3393 27.9144 47.3176 28.0282 47.2755 28.1343C47.2334 28.2404 47.1715 28.3368 47.0936 28.4181C47.0158 28.4993 46.9233 28.5637 46.8216 28.6077C46.7198 28.6516 46.6108 28.6743 46.5007 28.6743H23.9967C23.7743 28.6743 23.5609 28.5821 23.4037 28.4181C23.2464 28.254 23.158 28.0315 23.158 27.7995C23.158 27.5676 23.2464 27.3451 23.4037 27.181C23.5609 27.017 23.7743 26.9248 23.9967 26.9248H23.9894ZM23.9894 32.7912H39.3517C39.5741 32.7912 39.7875 32.8833 39.9447 33.0474C40.102 33.2114 40.1904 33.4339 40.1904 33.6659C40.1904 33.8979 40.102 34.1204 39.9447 34.2844C39.7875 34.4485 39.5741 34.5406 39.3517 34.5406H23.9967C23.7743 34.5406 23.5609 34.4485 23.4037 34.2844C23.2464 34.1204 23.158 33.8979 23.158 33.6659C23.158 33.4339 23.2464 33.2114 23.4037 33.0474C23.5609 32.8833 23.7743 32.7912 23.9967 32.7912H23.9894ZM23.9894 36.7396H46.5007C46.6136 36.7346 46.7264 36.7536 46.8322 36.7953C46.9379 36.837 47.0345 36.9006 47.1161 36.9822C47.1977 37.0639 47.2626 37.1619 47.307 37.2704C47.3514 37.3789 47.3743 37.4956 47.3743 37.6135C47.3743 37.7314 47.3514 37.8482 47.307 37.9567C47.2626 38.0651 47.1977 38.1631 47.1161 38.2448C47.0345 38.3264 46.9379 38.39 46.8322 38.4317C46.7264 38.4734 46.6136 38.4924 46.5007 38.4875H23.9967C23.8837 38.4924 23.7709 38.4734 23.6652 38.4317C23.5594 38.39 23.4628 38.3264 23.3812 38.2448C23.2996 38.1631 23.2347 38.0651 23.1903 37.9567C23.146 37.8482 23.1231 37.7314 23.1231 37.6135C23.1231 37.4956 23.146 37.3789 23.1903 37.2704C23.2347 37.1619 23.2996 37.0639 23.3812 36.9822C23.4628 36.9006 23.5594 36.837 23.6652 36.7953C23.7709 36.7536 23.8837 36.7346 23.9967 36.7396H23.9894ZM23.9894 46.5558H46.5007C46.7231 46.5558 46.9364 46.648 47.0936 46.812C47.2509 46.976 47.3393 47.1985 47.3393 47.4305C47.3393 47.6625 47.2509 47.885 47.0936 48.049C46.9364 48.2131 46.7231 48.3052 46.5007 48.3052H23.9967C23.7743 48.3052 23.5609 48.2131 23.4037 48.049C23.2464 47.885 23.158 47.6625 23.158 47.4305C23.158 47.1985 23.2464 46.976 23.4037 46.812C23.5609 46.648 23.7743 46.5558 23.9967 46.5558H23.9894ZM23.158 43.4897C23.158 43.2578 23.2464 43.0353 23.4037 42.8712C23.5609 42.7072 23.7743 42.615 23.9967 42.615H39.3517C39.4646 42.6101 39.5774 42.6291 39.6832 42.6708C39.7889 42.7125 39.8855 42.7761 39.9671 42.8577C40.0487 42.9394 40.1137 43.0374 40.1581 43.1458C40.2024 43.2543 40.2253 43.3711 40.2253 43.489C40.2253 43.6069 40.2024 43.7236 40.1581 43.8321C40.1137 43.9406 40.0487 44.0386 39.9671 44.1203C39.8855 44.2019 39.7889 44.2655 39.6832 44.3072C39.5774 44.3489 39.4646 44.3679 39.3517 44.3629H23.9967C23.8866 44.3631 23.7776 44.3407 23.6759 44.2969C23.5741 44.2531 23.4817 44.1888 23.4038 44.1077C23.3259 44.0266 23.2641 43.9303 23.2219 43.8243C23.1797 43.7182 23.158 43.6045 23.158 43.4897ZM21.0891 42.0501C21.2458 42.2146 21.3338 42.437 21.3338 42.6689C21.3338 42.9008 21.2458 43.1233 21.0891 43.2878L16.1095 48.4799C16.0318 48.5611 15.9394 48.6256 15.8377 48.6696C15.736 48.7136 15.627 48.7363 15.5169 48.7363C15.4068 48.7363 15.2978 48.7136 15.1962 48.6696C15.0945 48.6256 15.0021 48.5611 14.9243 48.4799L12.0851 45.5186C12.0054 45.4378 11.942 45.3412 11.8984 45.2346C11.8548 45.1279 11.8319 45.0133 11.8312 44.8973C11.8304 44.7814 11.8518 44.6665 11.894 44.5592C11.9363 44.452 11.9985 44.3545 12.0772 44.2726C12.1558 44.1907 12.2493 44.1259 12.3522 44.0819C12.4551 44.038 12.5653 44.0159 12.6764 44.0168C12.7876 44.0177 12.8975 44.0417 12.9997 44.0873C13.1019 44.1329 13.1944 44.1992 13.2718 44.2825L15.5169 46.6257L19.9039 42.0501C19.9816 41.9688 20.074 41.9044 20.1757 41.8604C20.2774 41.8164 20.3864 41.7937 20.4964 41.7937C20.6065 41.7937 20.7155 41.8164 20.8172 41.8604C20.9189 41.9044 21.0113 41.9688 21.0891 42.0501ZM21.0891 32.4829C21.2457 32.6471 21.3336 32.8693 21.3336 33.101C21.3336 33.3326 21.2457 33.5549 21.0891 33.7191L16.1095 38.9112C16.0318 38.9924 15.9394 39.0569 15.8377 39.1009C15.736 39.1449 15.627 39.1675 15.5169 39.1675C15.4068 39.1675 15.2978 39.1449 15.1962 39.1009C15.0945 39.0569 15.0021 38.9924 14.9243 38.9112L12.0851 35.9514C12.0054 35.8706 11.942 35.774 11.8984 35.6674C11.8548 35.5607 11.8319 35.4461 11.8312 35.3301C11.8304 35.2142 11.8518 35.0993 11.894 34.992C11.9363 34.8848 11.9985 34.7873 12.0772 34.7054C12.1558 34.6235 12.2493 34.5587 12.3522 34.5147C12.4551 34.4708 12.5653 34.4487 12.6764 34.4496C12.7876 34.4505 12.8975 34.4745 12.9997 34.5201C13.1019 34.5657 13.1944 34.632 13.2718 34.7153L15.5169 37.0569L19.9039 32.4829C19.9816 32.4016 20.074 32.3372 20.1757 32.2932C20.2774 32.2492 20.3864 32.2265 20.4964 32.2265C20.6065 32.2265 20.7155 32.2492 20.8172 32.2932C20.9189 32.3372 21.0113 32.4016 21.0891 32.4829ZM21.0891 22.9081C21.2458 23.0726 21.3338 23.2951 21.3338 23.527C21.3338 23.7589 21.2458 23.9813 21.0891 24.1458L16.1095 29.3379C16.0318 29.4192 15.9394 29.4836 15.8377 29.5276C15.736 29.5716 15.627 29.5943 15.5169 29.5943C15.4068 29.5943 15.2978 29.5716 15.1962 29.5276C15.0945 29.4836 15.0021 29.4192 14.9243 29.3379L12.0851 26.3766C12.0054 26.2958 11.942 26.1992 11.8984 26.0926C11.8548 25.9859 11.8319 25.8713 11.8312 25.7554C11.8304 25.6394 11.8518 25.5245 11.894 25.4172C11.9363 25.31 11.9985 25.2125 12.0772 25.1306C12.1558 25.0487 12.2493 24.9839 12.3522 24.94C12.4551 24.896 12.5653 24.8739 12.6764 24.8748C12.7876 24.8757 12.8975 24.8997 12.9997 24.9453C13.1019 24.9909 13.1944 25.0572 13.2718 25.1405L15.5169 27.4822L19.9039 22.9081C19.9816 22.8269 20.074 22.7624 20.1757 22.7184C20.2774 22.6744 20.3864 22.6517 20.4964 22.6517C20.6065 22.6517 20.7155 22.6744 20.8172 22.7184C20.9189 22.7624 21.0113 22.8269 21.0891 22.9081ZM53.1546 59.2832V4.78056C53.1543 3.88269 53.3321 2.99446 53.6769 2.17175C54.0217 1.34903 54.526 0.609617 55.158 0H10.6466C9.5015 0.00160795 8.40375 0.47688 7.59416 1.32156C6.78458 2.16623 6.32928 3.31135 6.32812 4.5057V52.8125H43.2669C43.4893 52.8125 43.7026 52.9046 43.8599 53.0687C44.0172 53.2327 44.1055 53.4552 44.1055 53.6872V59.2832C44.1268 60.5201 44.6129 61.6989 45.4591 62.5658C46.3053 63.4327 47.4439 63.9184 48.6301 63.9184C49.8162 63.9184 50.9549 63.4327 51.8011 62.5658C52.6472 61.6989 53.1333 60.5201 53.1546 59.2832Z" fill="#05B8C3"/>
<path fill-rule="evenodd" clip-rule="evenodd" d="M42.425 54.5615H0V59.2829C0.0015418 60.534 0.478822 61.7334 1.32718 62.618C2.17554 63.5025 3.32566 64 4.52523 64.0012H44.3964C43.775 63.3978 43.2794 62.6676 42.9402 61.8559C42.6011 61.0441 42.4257 60.1683 42.425 59.2829V54.5615Z" fill="#68326F"/>
</g>
<defs>
<clipPath id="clip0_49_2165">
<rect width="64" height="64" fill="white"/>
</clipPath>
</defs>
</svg>
