<svg width="64" height="64" viewBox="0 0 64 64" fill="none" xmlns="http://www.w3.org/2000/svg">
<g clip-path="url(#clip0_49_2076)">
<path fill-rule="evenodd" clip-rule="evenodd" d="M21.998 11.8053H42.0012C42.561 11.8057 43.0977 12.0244 43.4935 12.4135C43.8893 12.8026 44.1118 13.3302 44.1122 13.8804V25.2886H46.0795C48.0965 25.2906 50.0358 24.5241 51.49 23.1501C52.9442 21.7762 53.8002 19.9017 53.8782 17.9204C53.9562 15.9392 53.2502 14.0053 51.9083 12.5249C50.5665 11.0446 48.6933 10.133 46.6823 9.9817C46.472 9.96482 46.2755 9.87191 46.1308 9.72092C45.9861 9.56994 45.9035 9.3716 45.899 9.16424C45.8433 7.11443 44.9787 5.16631 43.488 3.73196C41.9973 2.29761 39.9975 1.48953 37.9116 1.47865C36.8644 1.47588 35.8271 1.67683 34.8593 2.06991C33.8915 2.46299 33.0123 3.04042 32.2725 3.76896C32.1785 3.86094 32.0639 3.93009 31.9379 3.97091C31.8119 4.01172 31.678 4.02308 31.5467 4.00408C31.4155 3.98509 31.2906 3.93628 31.1819 3.8615C31.0732 3.78672 30.9838 3.68804 30.9207 3.57332C30.0986 2.07774 28.7387 0.937339 27.1067 0.375075C25.4747 -0.187188 23.6881 -0.130883 22.0961 0.53298C20.5042 1.19684 19.2213 2.42053 18.4983 3.9648C17.7754 5.50907 17.6644 7.26289 18.187 8.88337C18.2258 9.00475 18.2361 9.13324 18.2169 9.2591C18.1978 9.38496 18.1497 9.50488 18.0765 9.60977C18.0032 9.71467 17.9066 9.80181 17.794 9.86455C17.6813 9.9273 17.5556 9.96402 17.4264 9.97193C15.4049 10.098 13.5126 10.9924 12.1502 12.4659C10.7878 13.9395 10.0622 15.8763 10.127 17.8665C10.1919 19.8568 11.0421 21.744 12.4976 23.1288C13.9532 24.5136 15.8998 25.2872 17.9254 25.2858H19.8928V13.8776C19.8935 13.3287 20.1154 12.8024 20.51 12.4141C20.9046 12.0257 21.4396 11.8068 21.998 11.8053Z" fill="#03656B"/>
<path fill-rule="evenodd" clip-rule="evenodd" d="M42.0013 13.4819H21.9981C21.8916 13.4834 21.79 13.526 21.7152 13.6005C21.6405 13.6751 21.5986 13.7755 21.5986 13.8802V19.6514H42.4079V13.8802C42.4064 13.7748 42.3631 13.6741 42.2871 13.5997C42.2111 13.5253 42.1086 13.483 42.0013 13.4819ZM28.4431 16.5673C28.4431 16.345 28.533 16.1317 28.6929 15.9745C28.8529 15.8173 29.0698 15.7289 29.296 15.7289H40.4462C40.6724 15.7289 40.8894 15.8173 41.0493 15.9745C41.2093 16.1317 41.2991 16.345 41.2991 16.5673C41.2991 16.7897 41.2093 17.003 41.0493 17.1602C40.8894 17.3174 40.6724 17.4058 40.4462 17.4058H29.296C29.0698 17.4058 28.8529 17.3174 28.6929 17.1602C28.533 17.003 28.4431 16.7897 28.4431 16.5673ZM26.5582 16.5673C26.5582 16.7897 26.4683 17.003 26.3084 17.1602C26.1484 17.3174 25.9315 17.4058 25.7053 17.4058H23.5532C23.327 17.4058 23.11 17.3174 22.9501 17.1602C22.7901 17.003 22.7003 16.7897 22.7003 16.5673C22.7003 16.345 22.7901 16.1317 22.9501 15.9745C23.11 15.8173 23.327 15.7289 23.5532 15.7289H25.7053C25.9315 15.7289 26.1484 15.8173 26.3084 15.9745C26.4683 16.1317 26.5582 16.345 26.5582 16.5673Z" fill="#03656B"/>
<path fill-rule="evenodd" clip-rule="evenodd" d="M42.4079 21.3281H21.5986V27.4989H42.4079V21.3281ZM29.296 23.5751H40.4462C40.6724 23.5751 40.8894 23.6634 41.0493 23.8207C41.2093 23.9779 41.2991 24.1912 41.2991 24.4135C41.2991 24.6359 41.2093 24.8492 41.0493 25.0064C40.8894 25.1636 40.6724 25.252 40.4462 25.252H29.296C29.0698 25.252 28.8529 25.1636 28.6929 25.0064C28.533 24.8492 28.4431 24.6359 28.4431 24.4135C28.4431 24.1912 28.533 23.9779 28.6929 23.8207C28.8529 23.6634 29.0698 23.5751 29.296 23.5751ZM25.7053 23.5751C25.9315 23.5751 26.1484 23.6634 26.3084 23.8207C26.4683 23.9779 26.5582 24.1912 26.5582 24.4135C26.5582 24.6359 26.4683 24.8492 26.3084 25.0064C26.1484 25.1636 25.9315 25.252 25.7053 25.252H23.5532C23.327 25.252 23.11 25.1636 22.9501 25.0064C22.7901 24.8492 22.7003 24.6359 22.7003 24.4135C22.7003 24.1912 22.7901 23.9779 22.9501 23.8207C23.11 23.6634 23.327 23.5751 23.5532 23.5751H25.7053Z" fill="#03656B"/>
<path fill-rule="evenodd" clip-rule="evenodd" d="M42.4079 29.1758H21.5986V35.3452H42.4079V29.1758ZM29.296 31.4214H40.4462C40.6724 31.4214 40.8894 31.5097 41.0493 31.6669C41.2093 31.8242 41.2991 32.0374 41.2991 32.2598C41.2991 32.4822 41.2093 32.6954 41.0493 32.8527C40.8894 33.0099 40.6724 33.0982 40.4462 33.0982H29.296C29.0698 33.0982 28.8529 33.0099 28.6929 32.8527C28.533 32.6954 28.4431 32.4822 28.4431 32.2598C28.4431 32.0374 28.533 31.8242 28.6929 31.6669C28.8529 31.5097 29.0698 31.4214 29.296 31.4214ZM25.7053 31.4214C25.9315 31.4214 26.1484 31.5097 26.3084 31.6669C26.4683 31.8242 26.5582 32.0374 26.5582 32.2598C26.5582 32.4822 26.4683 32.6954 26.3084 32.8527C26.1484 33.0099 25.9315 33.0982 25.7053 33.0982H23.5532C23.327 33.0982 23.11 33.0099 22.9501 32.8527C22.7901 32.6954 22.7003 32.4822 22.7003 32.2598C22.7003 32.0374 22.7901 31.8242 22.9501 31.6669C23.11 31.5097 23.327 31.4214 23.5532 31.4214H25.7053Z" fill="#03656B"/>
<path fill-rule="evenodd" clip-rule="evenodd" d="M32.8537 37.022H31.1479V40.7739H8.60583C8.37962 40.7739 8.16268 40.8623 8.00273 41.0195C7.84278 41.1768 7.75293 41.39 7.75293 41.6124V46.2028H9.45872V42.4508H31.155V46.2028H32.8608V42.4508H54.5628V46.2028H56.2686V41.6124C56.2686 41.39 56.1787 41.1768 56.0187 41.0195C55.8588 40.8623 55.6419 40.7739 55.4157 40.7739H32.8537V37.022Z" fill="#03656B"/>
<path fill-rule="evenodd" clip-rule="evenodd" d="M23.4092 47.8813V60.659H40.5993V59.0827V47.8813H23.4092Z" fill="#03656B"/>
<path d="M64.0012 47.8813H46.8125V60.659H64.0012V47.8813Z" fill="#03656B"/>
<path fill-rule="evenodd" clip-rule="evenodd" d="M56.8236 62.3359H53.9863L53.1689 64.0002H57.641L56.8236 62.3359Z" fill="#03656B"/>
<path fill-rule="evenodd" clip-rule="evenodd" d="M34.2391 64.0002L33.4203 62.3359H30.5844L29.7656 64.0002H34.2391Z" fill="#03656B"/>
<path fill-rule="evenodd" clip-rule="evenodd" d="M10.8314 64.0002L10.014 62.3359H7.17673L6.35938 64.0002H10.8314Z" fill="#03656B"/>
<path fill-rule="evenodd" clip-rule="evenodd" d="M17.1887 47.8813H0V60.659H17.1887V59.0827V47.8813Z" fill="#03656B"/>
</g>
<defs>
<clipPath id="clip0_49_2076">
<rect width="64" height="64" fill="white"/>
</clipPath>
</defs>
</svg>
