<svg width="214" height="160" viewBox="0 0 214 160" fill="none" xmlns="http://www.w3.org/2000/svg">
<path d="M61.6788 117.275C57.7584 118.624 53.5775 119.04 49.468 118.492C45.3585 117.943 41.4335 116.444 38.0044 114.113C34.5752 111.783 31.7365 108.686 29.7132 105.067C27.6899 101.448 26.5379 97.4076 26.3485 93.2659C20.0977 93.2659 14.1029 90.7828 9.68292 86.3628C5.26291 81.9428 2.77979 75.948 2.77979 69.6971C2.77979 63.4463 5.26291 57.4515 9.68292 53.0314C14.1029 48.6114 20.0977 46.1283 26.3485 46.1283C27.6396 46.1281 28.9285 46.2355 30.2017 46.4494C30.1191 45.532 30.0734 44.6146 30.0734 43.6972C30.0724 37.5899 31.8398 31.613 35.1622 26.4885C38.4846 21.364 43.2197 17.3112 48.7956 14.8196C54.3715 12.3281 60.5497 11.5044 66.5836 12.448C72.6175 13.3917 78.2492 16.0625 82.7981 20.1375C86.8817 14.3353 92.4032 9.69412 98.8211 6.66908C105.239 3.64404 112.333 2.33901 119.407 2.88205C126.482 3.42509 133.293 5.79751 139.174 9.76665C145.055 13.7358 149.804 19.1654 152.954 25.5228C155.974 24.1952 159.278 23.6419 162.566 23.9131C165.854 24.1843 169.023 25.2715 171.785 27.076C174.547 28.8806 176.815 31.3456 178.384 34.2478C179.953 37.1501 180.773 40.3979 180.771 43.6972V43.899C189.195 44.8387 196.949 48.9382 202.469 55.3704C207.989 61.8027 210.865 70.0892 210.516 78.5583C210.167 87.0275 206.619 95.0491 200.588 101.005C194.557 106.961 186.491 110.408 178.018 110.651C174.652 114.406 170.332 117.179 165.517 118.676C160.702 120.174 155.571 120.339 150.67 119.156" stroke="#05B8C3" stroke-width="2" stroke-linecap="round" stroke-linejoin="round"/>
<path d="M89.7249 135.431V107.073C89.7247 105.989 89.3745 104.934 88.7266 104.064C88.0786 103.195 87.1674 102.558 86.1284 102.248L83.2202 101.376C82.4256 101.14 81.7016 100.711 81.1125 100.127C80.5235 99.5438 80.0876 98.8241 79.8434 98.0318C79.5993 97.2395 79.5545 96.3991 79.7131 95.5854C79.8716 94.7716 80.2286 94.0096 80.7524 93.3669L102.771 66.4036C103.244 65.8258 103.84 65.3602 104.515 65.0405C105.19 64.7208 105.927 64.5549 106.674 64.5549C107.421 64.5549 108.159 64.7208 108.834 65.0405C109.509 65.3602 110.105 65.8258 110.578 66.4036L132.596 93.3669C133.12 94.009 133.477 94.7704 133.637 95.5836C133.796 96.3969 133.752 97.2367 133.508 98.0289C133.265 98.8211 132.831 99.541 132.243 100.125C131.654 100.709 130.931 101.139 130.138 101.376L127.22 102.248C126.181 102.558 125.27 103.195 124.622 104.064C123.974 104.934 123.624 105.989 123.624 107.073V135.431" stroke="#68326F" stroke-width="2" stroke-linecap="round" stroke-linejoin="round"/>
<path d="M68.8901 144.605V157.248H144.376V144.605" stroke="#68326F" stroke-width="2" stroke-linecap="round" stroke-linejoin="round"/>
</svg>
