<svg width="484" height="484" viewBox="0 0 484 484" fill="none" xmlns="http://www.w3.org/2000/svg">
<circle cx="242" cy="242" r="242" fill="#DEC6E0"/>
<path d="M451.016 120.032C426.893 78.6922 391.053 45.4344 348.029 24.4639C305.004 3.49346 256.727 -4.24781 209.303 2.21905C161.879 8.68591 117.437 29.0705 81.5983 60.7949C45.7593 92.5194 20.1325 134.159 7.95868 180.448L242 242L451.016 120.032Z" fill="#A96CB0"/>
<path d="M339.417 463.526C371.701 449.329 400.492 428.247 423.774 401.757C447.056 375.266 464.267 344.007 474.201 310.167C484.135 276.328 486.553 240.726 481.285 205.854C476.017 170.982 463.191 137.682 443.705 108.287L242 242L339.417 463.526Z" fill="#CDAAD1"/>
<path d="M146.696 19.5564C114.662 33.2809 85.9709 53.7623 62.584 79.5996C39.197 105.437 21.6664 136.021 11.1911 169.259C0.715814 202.497 -2.45697 237.606 1.88974 272.184C6.23646 306.762 18.0001 339.993 36.3762 369.604L242 242L146.696 19.5564Z" fill="#68326F"/>
<circle cx="242" cy="242" r="30" fill="#512756"/>
<circle cx="242" cy="242" r="27" fill="white"/>
<g clip-path="url(#clip0_661_1964)">
<path d="M420.329 286.412L423.504 286.349C424.124 286.336 424.73 286.164 425.262 285.85C425.794 285.535 426.234 285.088 426.537 284.553C426.841 284.019 426.999 283.415 426.995 282.802C426.99 282.189 426.824 281.587 426.513 281.057C424.618 277.837 422.193 273.678 420.289 270.289C419.997 269.771 419.859 269.183 419.891 268.591C419.923 267.999 420.123 267.428 420.469 266.944C421.019 266.178 421.586 265.503 421.586 264.176C421.586 244.196 404.666 228 383.793 228C362.92 228 346 244.196 346 264.176C346 271.886 352.801 284.884 352.801 284.884L352.911 323.612L393.675 323.821L393.717 315.113C393.877 314.102 394.243 313.133 394.793 312.265C395.343 311.398 396.065 310.65 396.916 310.066C397.767 309.483 398.729 309.077 399.744 308.872C400.758 308.668 401.804 308.669 402.818 308.876L407.627 309.863C408.853 310.115 410.119 310.113 411.345 309.856C412.57 309.6 413.728 309.094 414.746 308.372C415.764 307.649 416.618 306.726 417.256 305.66C417.894 304.594 418.302 303.408 418.452 302.179C419.415 294.316 420.058 287.76 420.329 286.412Z" fill="black"/>
<path d="M367.288 247.299C367.413 247.319 367.538 247.346 367.66 247.381C368.149 246.212 368.812 245.122 369.627 244.147C369.539 244.056 369.456 243.96 369.38 243.86C368.901 243.198 368.704 242.376 368.833 241.572C368.961 240.768 369.404 240.046 370.066 239.562C370.728 239.079 371.556 238.872 372.371 238.987C373.186 239.101 373.923 239.528 374.422 240.175C374.497 240.277 374.566 240.383 374.627 240.493C375.808 240.008 377.056 239.701 378.329 239.581C378.333 239.455 378.344 239.33 378.361 239.206C378.422 238.803 378.562 238.416 378.774 238.067C378.986 237.718 379.266 237.414 379.597 237.172C379.928 236.93 380.304 236.755 380.703 236.656C381.103 236.558 381.518 236.538 381.925 236.598C382.333 236.659 382.724 236.798 383.077 237.007C383.43 237.217 383.737 237.494 383.982 237.821C384.227 238.148 384.404 238.52 384.504 238.915C384.603 239.31 384.623 239.721 384.562 240.123C384.542 240.248 384.515 240.371 384.48 240.493C385.662 240.975 386.764 241.63 387.75 242.436C387.842 242.349 387.939 242.268 388.041 242.192C388.371 241.941 388.748 241.757 389.151 241.652C389.554 241.547 389.974 241.523 390.386 241.58C390.799 241.637 391.196 241.775 391.554 241.986C391.912 242.197 392.224 242.476 392.471 242.807C392.719 243.138 392.897 243.515 392.996 243.915C393.095 244.315 393.112 244.731 393.047 245.138C392.981 245.544 392.834 245.934 392.615 246.284C392.395 246.634 392.107 246.937 391.768 247.176C391.665 247.25 391.558 247.318 391.447 247.379C391.938 248.547 392.248 249.781 392.369 251.04C392.496 251.042 392.623 251.053 392.749 251.071C393.156 251.131 393.547 251.27 393.899 251.48C394.252 251.69 394.559 251.966 394.804 252.293C395.049 252.62 395.226 252.992 395.325 253.387C395.425 253.782 395.445 254.192 395.384 254.595C395.323 254.997 395.182 255.384 394.97 255.732C394.758 256.081 394.479 256.385 394.148 256.627C393.817 256.869 393.441 257.044 393.042 257.143C392.642 257.241 392.227 257.261 391.82 257.2C391.695 257.181 391.571 257.154 391.449 257.12C390.959 258.288 390.296 259.378 389.481 260.352C389.569 260.443 389.651 260.539 389.727 260.64C390.221 261.301 390.43 262.129 390.306 262.942C390.183 263.755 389.738 264.486 389.07 264.974C388.401 265.463 387.564 265.669 386.742 265.547C385.92 265.425 385.181 264.985 384.686 264.324C384.611 264.223 384.543 264.117 384.481 264.007C383.3 264.492 382.052 264.799 380.779 264.919C380.775 265.044 380.765 265.17 380.748 265.294C380.687 265.697 380.546 266.083 380.334 266.432C380.122 266.781 379.842 267.085 379.511 267.328C379.18 267.57 378.804 267.745 378.405 267.843C378.005 267.942 377.59 267.961 377.183 267.901C376.776 267.841 376.385 267.702 376.032 267.492C375.679 267.282 375.371 267.006 375.126 266.679C374.881 266.351 374.704 265.98 374.605 265.584C374.505 265.189 374.485 264.779 374.546 264.376C374.566 264.252 374.594 264.128 374.629 264.007C373.446 263.525 372.344 262.87 371.359 262.063C371.267 262.15 371.169 262.232 371.068 262.308C370.399 262.797 369.562 263.004 368.739 262.882C367.917 262.761 367.177 262.321 366.682 261.66C366.187 260.999 365.979 260.171 366.101 259.358C366.224 258.544 366.669 257.813 367.337 257.323C367.44 257.25 367.547 257.182 367.658 257.12C367.167 255.953 366.857 254.719 366.738 253.46C366.61 253.457 366.483 253.447 366.357 253.429C365.535 253.307 364.795 252.867 364.301 252.206C363.807 251.545 363.599 250.717 363.722 249.904C363.846 249.092 364.29 248.36 364.959 247.872C365.627 247.383 366.464 247.177 367.286 247.299H367.288ZM378.692 257.942C379.831 258.11 380.994 257.941 382.035 257.455C383.076 256.97 383.949 256.19 384.542 255.214C385.135 254.239 385.422 253.111 385.367 251.974C385.312 250.837 384.917 249.742 384.232 248.827C383.548 247.911 382.604 247.218 381.521 246.833C380.438 246.448 379.263 246.389 378.146 246.665C377.029 246.94 376.02 247.536 375.245 248.379C374.471 249.221 373.967 250.272 373.797 251.397C373.569 252.907 373.957 254.444 374.875 255.671C375.792 256.899 377.166 257.715 378.692 257.942Z" fill="#E2EAFF"/>
<path d="M364.016 324C364.056 324 364.094 323.984 364.122 323.957C364.15 323.929 364.166 323.891 364.166 323.852V297.479C364.166 297.459 364.162 297.44 364.154 297.422C364.147 297.404 364.135 297.387 364.121 297.374L356.966 290.3C356.938 290.272 356.9 290.257 356.861 290.257C356.821 290.257 356.783 290.272 356.755 290.3C356.741 290.314 356.73 290.33 356.722 290.348C356.714 290.366 356.711 290.386 356.711 290.405C356.711 290.425 356.714 290.444 356.722 290.462C356.73 290.48 356.741 290.497 356.755 290.51L363.866 297.54V323.856C363.868 323.895 363.884 323.931 363.912 323.958C363.94 323.985 363.977 324 364.016 324Z" fill="#E2EAFF"/>
<path d="M367.847 304.773C367.867 304.773 367.886 304.77 367.905 304.762C367.923 304.755 367.94 304.744 367.954 304.73L373.317 299.428C373.331 299.415 373.342 299.398 373.349 299.38C373.357 299.362 373.36 299.343 373.36 299.323L373.381 290.488C373.381 290.449 373.366 290.411 373.337 290.383C373.309 290.356 373.271 290.34 373.231 290.34C373.192 290.34 373.153 290.356 373.125 290.383C373.097 290.411 373.081 290.449 373.081 290.488L373.06 299.262L367.742 304.521C367.714 304.549 367.699 304.587 367.699 304.626C367.699 304.665 367.714 304.703 367.742 304.73C367.77 304.758 367.808 304.773 367.847 304.773Z" fill="#E2EAFF"/>
<path d="M368.852 324C368.892 324 368.93 323.984 368.958 323.957C368.986 323.929 369.002 323.891 369.002 323.852V311.029L379.523 300.628C379.551 300.601 379.567 300.563 379.568 300.524V292.005C379.568 291.966 379.552 291.928 379.524 291.9C379.496 291.872 379.458 291.857 379.418 291.857C379.378 291.857 379.34 291.872 379.312 291.9C379.284 291.928 379.268 291.966 379.268 292.005V300.456L368.747 310.857C368.733 310.87 368.721 310.887 368.714 310.905C368.706 310.923 368.702 310.942 368.702 310.962V323.846C368.701 323.866 368.704 323.886 368.712 323.904C368.719 323.923 368.73 323.94 368.744 323.955C368.758 323.969 368.774 323.98 368.793 323.988C368.812 323.996 368.832 324 368.852 324Z" fill="#E2EAFF"/>
<path d="M373.831 324C373.871 324 373.909 323.984 373.937 323.957C373.965 323.929 373.981 323.891 373.981 323.852V314.018L384.553 303.565C384.578 303.537 384.59 303.5 384.589 303.463C384.588 303.426 384.572 303.39 384.545 303.364C384.518 303.337 384.483 303.322 384.445 303.32C384.407 303.319 384.37 303.332 384.342 303.356L373.725 313.85C373.711 313.864 373.7 313.88 373.692 313.898C373.685 313.916 373.681 313.936 373.681 313.955V323.852C373.681 323.891 373.697 323.929 373.725 323.957C373.753 323.984 373.791 324 373.831 324Z" fill="#E2EAFF"/>
<path d="M385.168 303.282C385.168 303.396 385.134 303.508 385.069 303.603C385.005 303.698 384.913 303.772 384.807 303.816C384.7 303.86 384.582 303.871 384.468 303.849C384.355 303.826 384.251 303.771 384.169 303.69C384.087 303.609 384.032 303.506 384.009 303.394C383.987 303.281 383.999 303.165 384.043 303.059C384.088 302.954 384.163 302.864 384.259 302.8C384.356 302.737 384.469 302.703 384.585 302.704C384.661 302.704 384.737 302.719 384.808 302.748C384.879 302.777 384.943 302.819 384.998 302.873C385.052 302.927 385.095 302.99 385.124 303.061C385.153 303.131 385.168 303.206 385.168 303.282Z" fill="#E2EAFF"/>
<path d="M379.824 316.572C379.824 316.686 379.79 316.798 379.726 316.894C379.662 316.989 379.571 317.063 379.464 317.107C379.357 317.151 379.24 317.163 379.126 317.141C379.013 317.119 378.908 317.064 378.826 316.983C378.744 316.902 378.689 316.799 378.666 316.687C378.643 316.575 378.655 316.458 378.699 316.353C378.743 316.247 378.818 316.156 378.914 316.093C379.01 316.029 379.124 315.995 379.239 315.995C379.394 315.996 379.542 316.057 379.652 316.165C379.761 316.273 379.823 316.419 379.824 316.572Z" fill="#E2EAFF"/>
<path d="M368.237 304.799C368.237 304.913 368.203 305.025 368.139 305.12C368.075 305.216 367.984 305.29 367.877 305.334C367.77 305.378 367.652 305.389 367.539 305.367C367.425 305.345 367.321 305.29 367.239 305.209C367.157 305.128 367.101 305.025 367.079 304.912C367.056 304.8 367.068 304.684 367.112 304.578C367.157 304.472 367.232 304.382 367.328 304.319C367.425 304.255 367.538 304.221 367.654 304.222C367.808 304.222 367.956 304.283 368.066 304.391C368.175 304.499 368.237 304.646 368.237 304.799Z" fill="#E2EAFF"/>
<path d="M357.442 290.304C357.442 290.419 357.407 290.531 357.343 290.626C357.279 290.721 357.187 290.795 357.08 290.839C356.973 290.882 356.856 290.894 356.742 290.871C356.629 290.849 356.525 290.794 356.443 290.713C356.361 290.632 356.306 290.529 356.283 290.416C356.261 290.304 356.273 290.188 356.317 290.082C356.362 289.976 356.437 289.886 356.533 289.823C356.629 289.76 356.743 289.726 356.858 289.726C356.935 289.726 357.011 289.741 357.082 289.77C357.153 289.799 357.217 289.842 357.271 289.896C357.326 289.949 357.368 290.013 357.398 290.083C357.427 290.153 357.442 290.228 357.442 290.304Z" fill="#E2EAFF"/>
<path d="M379.245 316.593C379.265 316.593 379.285 316.589 379.303 316.582C379.321 316.574 379.338 316.564 379.352 316.55L390.282 305.743C390.31 305.715 390.326 305.678 390.326 305.639V294.644C390.326 294.605 390.31 294.567 390.282 294.539C390.254 294.511 390.216 294.496 390.176 294.496C390.136 294.496 390.098 294.511 390.07 294.539C390.042 294.567 390.026 294.605 390.026 294.644V305.577L379.139 316.339C379.118 316.36 379.103 316.387 379.098 316.415C379.092 316.444 379.095 316.474 379.106 316.501C379.117 316.529 379.137 316.552 379.162 316.568C379.186 316.584 379.216 316.593 379.245 316.593Z" fill="#E2EAFF"/>
<path d="M367.146 245.268C367.185 245.268 367.223 245.253 367.25 245.225C367.278 245.197 367.294 245.16 367.294 245.121C367.294 245.081 367.278 245.044 367.25 245.016L364.121 241.84C364.107 241.826 364.091 241.815 364.073 241.808C364.054 241.8 364.035 241.796 364.015 241.796L357.584 241.778C357.544 241.778 357.506 241.794 357.478 241.821C357.45 241.849 357.434 241.887 357.434 241.926C357.434 241.966 357.45 242.003 357.478 242.031C357.506 242.059 357.544 242.075 357.584 242.075L363.952 242.091L367.038 245.222C367.052 245.237 367.068 245.248 367.087 245.256C367.105 245.264 367.125 245.268 367.146 245.268Z" fill="#E2EAFF"/>
<path d="M357.484 241.225C357.338 241.224 357.196 241.266 357.075 241.346C356.954 241.425 356.859 241.538 356.803 241.671C356.747 241.804 356.732 241.95 356.76 242.091C356.787 242.232 356.857 242.362 356.96 242.464C357.062 242.566 357.193 242.635 357.335 242.664C357.478 242.692 357.626 242.678 357.76 242.623C357.895 242.569 358.01 242.476 358.091 242.356C358.172 242.237 358.215 242.097 358.215 241.953C358.216 241.761 358.139 241.576 358.002 241.439C357.865 241.303 357.678 241.226 357.484 241.225Z" fill="#E2EAFF"/>
<path d="M377.376 238.988C377.415 238.988 377.452 238.973 377.481 238.946C377.495 238.932 377.506 238.916 377.513 238.898C377.521 238.88 377.525 238.861 377.525 238.841C377.525 238.821 377.521 238.802 377.513 238.784C377.506 238.766 377.495 238.749 377.481 238.736L374.351 235.56C374.337 235.546 374.321 235.534 374.302 235.527C374.283 235.519 374.264 235.515 374.243 235.515L367.814 235.498C367.794 235.498 367.775 235.502 367.756 235.509C367.738 235.517 367.722 235.528 367.708 235.542L364.532 238.718C364.518 238.732 364.507 238.748 364.5 238.766C364.492 238.784 364.488 238.803 364.489 238.823C364.489 238.842 364.493 238.862 364.5 238.88C364.508 238.898 364.519 238.914 364.533 238.928C364.547 238.941 364.563 238.952 364.582 238.96C364.6 238.967 364.619 238.971 364.639 238.971C364.659 238.971 364.678 238.967 364.696 238.959C364.715 238.952 364.731 238.941 364.745 238.927L367.879 235.802L374.176 235.819L377.262 238.951C377.277 238.964 377.295 238.975 377.315 238.981C377.334 238.987 377.355 238.99 377.376 238.988Z" fill="#E2EAFF"/>
<path d="M364.576 238.19C364.43 238.189 364.288 238.232 364.167 238.311C364.046 238.39 363.951 238.504 363.895 238.636C363.839 238.769 363.824 238.915 363.852 239.056C363.879 239.197 363.949 239.327 364.051 239.429C364.154 239.531 364.285 239.6 364.427 239.629C364.57 239.657 364.718 239.643 364.852 239.588C364.986 239.534 365.101 239.441 365.182 239.322C365.264 239.202 365.307 239.062 365.307 238.918C365.308 238.726 365.231 238.541 365.094 238.404C364.956 238.268 364.77 238.191 364.576 238.19Z" fill="#E2EAFF"/>
<path d="M351.904 256.361C351.932 256.361 351.958 256.354 351.981 256.34C352.005 256.326 352.024 256.306 352.036 256.283L353.794 253.065L363.54 253.082C363.579 253.082 363.617 253.066 363.646 253.038C363.674 253.01 363.689 252.973 363.689 252.933C363.689 252.894 363.674 252.856 363.646 252.828C363.617 252.801 363.579 252.785 363.54 252.785L353.696 252.767C353.669 252.767 353.643 252.775 353.619 252.789C353.596 252.802 353.577 252.822 353.564 252.846L351.765 256.142C351.753 256.164 351.746 256.19 351.747 256.216C351.747 256.241 351.754 256.267 351.768 256.289C351.781 256.311 351.8 256.329 351.823 256.342C351.845 256.355 351.871 256.361 351.897 256.361H351.904Z" fill="#E2EAFF"/>
<path d="M363.336 250.552C363.375 250.552 363.414 250.537 363.442 250.509C363.47 250.481 363.486 250.443 363.486 250.404C363.486 250.365 363.47 250.327 363.442 250.299C363.414 250.271 363.375 250.256 363.336 250.256L354.617 250.204L353.022 248.474C353.008 248.459 352.992 248.447 352.974 248.439C352.957 248.43 352.937 248.425 352.917 248.424C352.897 248.423 352.878 248.426 352.859 248.433C352.84 248.44 352.823 248.45 352.809 248.463C352.779 248.49 352.762 248.527 352.76 248.566C352.759 248.605 352.773 248.643 352.8 248.672L354.44 250.451C354.454 250.467 354.471 250.479 354.49 250.487C354.508 250.496 354.529 250.5 354.549 250.5L363.334 250.552H363.336Z" fill="#E2EAFF"/>
<path d="M385.78 284.699C385.799 284.698 385.819 284.695 385.837 284.687C385.856 284.679 385.872 284.668 385.886 284.654C385.9 284.64 385.911 284.624 385.919 284.606C385.927 284.588 385.93 284.568 385.93 284.549C385.93 284.529 385.927 284.51 385.919 284.492C385.911 284.474 385.9 284.457 385.886 284.444L380.398 279.131V273.837C380.398 273.799 380.383 273.762 380.356 273.735L375.109 268.321C375.095 268.307 375.079 268.296 375.061 268.288C375.043 268.28 375.023 268.276 375.004 268.276L369.299 268.161L361.419 260.2C361.391 260.172 361.353 260.157 361.314 260.157C361.274 260.157 361.236 260.172 361.208 260.2C361.194 260.213 361.183 260.23 361.175 260.248C361.168 260.266 361.164 260.285 361.164 260.305C361.164 260.325 361.168 260.344 361.175 260.362C361.183 260.38 361.194 260.396 361.208 260.41L369.129 268.416C369.157 268.444 369.195 268.46 369.234 268.461L374.932 268.575L380.093 273.905V279.201C380.092 279.221 380.096 279.241 380.104 279.259C380.112 279.277 380.123 279.294 380.138 279.308L385.67 284.663C385.685 284.676 385.703 284.685 385.721 284.692C385.74 284.698 385.76 284.7 385.78 284.699Z" fill="#E2EAFF"/>
<path d="M385.091 284.442C385.091 284.553 385.125 284.662 385.187 284.754C385.25 284.847 385.339 284.919 385.443 284.961C385.546 285.004 385.661 285.015 385.771 284.993C385.881 284.971 385.983 284.918 386.062 284.839C386.141 284.76 386.195 284.66 386.217 284.551C386.239 284.442 386.227 284.329 386.184 284.226C386.141 284.123 386.068 284.036 385.974 283.974C385.881 283.913 385.771 283.88 385.658 283.88C385.508 283.881 385.364 283.94 385.257 284.045C385.151 284.151 385.091 284.293 385.091 284.442Z" fill="#E2EAFF"/>
<path d="M360.695 260.214C360.695 260.326 360.729 260.434 360.791 260.527C360.853 260.619 360.942 260.691 361.046 260.734C361.15 260.776 361.264 260.787 361.374 260.766C361.485 260.744 361.586 260.69 361.665 260.612C361.745 260.533 361.799 260.433 361.821 260.324C361.843 260.215 361.832 260.102 361.789 259.999C361.746 259.897 361.673 259.809 361.579 259.747C361.486 259.686 361.376 259.653 361.264 259.653C361.113 259.653 360.968 259.712 360.862 259.817C360.755 259.923 360.695 260.065 360.695 260.214Z" fill="#E2EAFF"/>
<path d="M356.28 256.982C355.966 256.982 355.711 256.731 355.711 256.42C355.711 256.11 355.966 255.859 356.28 255.859C356.593 255.859 356.848 256.11 356.848 256.42C356.848 256.731 356.593 256.982 356.28 256.982Z" fill="#E2EAFF"/>
<path d="M376.518 276.331C376.518 276.442 376.551 276.551 376.613 276.643C376.675 276.736 376.764 276.808 376.868 276.851C376.972 276.894 377.086 276.905 377.196 276.883C377.307 276.862 377.408 276.808 377.488 276.73C377.567 276.651 377.621 276.551 377.644 276.442C377.666 276.333 377.654 276.22 377.611 276.117C377.568 276.015 377.496 275.927 377.402 275.865C377.309 275.803 377.199 275.77 377.086 275.77C376.936 275.77 376.792 275.829 376.685 275.934C376.578 276.039 376.518 276.182 376.518 276.331Z" fill="#E2EAFF"/>
<path d="M369.101 278.638C369.101 278.749 369.134 278.857 369.196 278.95C369.259 279.042 369.348 279.114 369.451 279.157C369.555 279.199 369.67 279.21 369.78 279.189C369.89 279.167 369.991 279.114 370.071 279.035C370.15 278.956 370.204 278.856 370.226 278.747C370.248 278.638 370.237 278.525 370.194 278.423C370.151 278.32 370.078 278.232 369.985 278.17C369.891 278.109 369.781 278.076 369.669 278.076C369.518 278.076 369.374 278.135 369.267 278.24C369.161 278.346 369.101 278.489 369.101 278.638Z" fill="#E2EAFF"/>
<path d="M363.739 279.754C363.739 279.865 363.772 279.974 363.835 280.066C363.897 280.159 363.986 280.231 364.09 280.273C364.194 280.316 364.308 280.327 364.418 280.305C364.528 280.283 364.63 280.23 364.709 280.151C364.789 280.073 364.843 279.973 364.865 279.864C364.886 279.755 364.875 279.642 364.832 279.539C364.789 279.436 364.716 279.349 364.623 279.287C364.529 279.225 364.42 279.192 364.307 279.192C364.157 279.192 364.012 279.251 363.905 279.357C363.799 279.462 363.739 279.605 363.739 279.754Z" fill="#E2EAFF"/>
<path d="M353.18 261.896C353.18 262.007 353.214 262.116 353.276 262.208C353.339 262.3 353.427 262.372 353.531 262.415C353.635 262.457 353.749 262.469 353.859 262.447C353.97 262.425 354.071 262.372 354.15 262.293C354.23 262.215 354.284 262.114 354.306 262.005C354.328 261.896 354.317 261.783 354.274 261.681C354.231 261.578 354.158 261.49 354.064 261.429C353.971 261.367 353.861 261.334 353.749 261.334C353.598 261.334 353.453 261.393 353.347 261.498C353.24 261.604 353.18 261.747 353.18 261.896Z" fill="#E2EAFF"/>
<path d="M350.12 270.104C350.12 270.215 350.153 270.324 350.215 270.416C350.278 270.509 350.366 270.581 350.47 270.624C350.574 270.667 350.688 270.678 350.798 270.656C350.909 270.635 351.01 270.581 351.09 270.503C351.169 270.424 351.224 270.324 351.246 270.215C351.268 270.106 351.257 269.993 351.214 269.89C351.171 269.788 351.098 269.7 351.004 269.638C350.911 269.576 350.801 269.543 350.688 269.543C350.538 269.543 350.394 269.602 350.287 269.707C350.181 269.812 350.121 269.955 350.12 270.104Z" fill="#E2EAFF"/>
<path d="M352.176 248.336C352.176 248.447 352.209 248.556 352.272 248.648C352.334 248.74 352.423 248.812 352.527 248.855C352.631 248.897 352.745 248.908 352.856 248.887C352.966 248.865 353.067 248.811 353.146 248.732C353.226 248.654 353.28 248.554 353.302 248.444C353.323 248.335 353.312 248.222 353.269 248.12C353.225 248.017 353.152 247.929 353.059 247.868C352.965 247.806 352.855 247.773 352.743 247.774C352.592 247.774 352.448 247.834 352.342 247.939C352.236 248.044 352.176 248.187 352.176 248.336Z" fill="#E2EAFF"/>
<path d="M351.218 256.449C351.218 256.56 351.251 256.668 351.314 256.761C351.376 256.853 351.465 256.925 351.569 256.968C351.672 257.01 351.787 257.021 351.897 257C352.007 256.978 352.108 256.925 352.188 256.846C352.267 256.767 352.321 256.667 352.343 256.558C352.365 256.449 352.354 256.336 352.311 256.234C352.268 256.131 352.195 256.043 352.102 255.981C352.008 255.92 351.898 255.887 351.786 255.887C351.635 255.887 351.491 255.946 351.384 256.051C351.278 256.157 351.218 256.3 351.218 256.449Z" fill="#E2EAFF"/>
<path d="M374.798 284.58C374.798 284.691 374.831 284.8 374.893 284.893C374.955 284.985 375.044 285.057 375.148 285.1C375.252 285.143 375.366 285.154 375.476 285.133C375.587 285.111 375.688 285.058 375.768 284.979C375.847 284.901 375.902 284.801 375.924 284.692C375.946 284.583 375.935 284.469 375.892 284.367C375.849 284.264 375.776 284.176 375.682 284.114C375.589 284.052 375.479 284.02 375.366 284.02C375.216 284.02 375.072 284.079 374.965 284.184C374.859 284.289 374.799 284.431 374.798 284.58Z" fill="#E2EAFF"/>
<path d="M372.647 290.236C372.647 290.347 372.68 290.456 372.742 290.548C372.805 290.641 372.894 290.713 372.997 290.755C373.101 290.798 373.216 290.809 373.326 290.787C373.436 290.766 373.537 290.712 373.617 290.634C373.696 290.555 373.75 290.455 373.772 290.346C373.794 290.237 373.783 290.124 373.74 290.021C373.697 289.918 373.624 289.831 373.531 289.769C373.437 289.707 373.327 289.674 373.215 289.674C373.064 289.674 372.92 289.733 372.813 289.839C372.707 289.944 372.647 290.087 372.647 290.236Z" fill="#E2EAFF"/>
<path d="M367.208 289.281C366.895 289.281 366.64 289.03 366.64 288.719C366.64 288.409 366.895 288.158 367.208 288.158C367.522 288.158 367.777 288.409 367.777 288.719C367.777 289.03 367.522 289.281 367.208 289.281Z" fill="#E2EAFF"/>
<path d="M396.493 269.167C396.179 269.167 395.924 268.915 395.924 268.605C395.924 268.294 396.179 268.043 396.493 268.043C396.806 268.043 397.061 268.294 397.061 268.605C397.061 268.915 396.806 269.167 396.493 269.167Z" fill="#E2EAFF"/>
<path d="M391.017 285.091C390.703 285.091 390.449 284.84 390.449 284.53C390.449 284.219 390.703 283.968 391.017 283.968C391.331 283.968 391.585 284.219 391.585 284.53C391.585 284.84 391.331 285.091 391.017 285.091Z" fill="#E2EAFF"/>
<path d="M385.571 274.35C385.257 274.35 385.003 274.098 385.003 273.788C385.003 273.478 385.257 273.226 385.571 273.226C385.885 273.226 386.139 273.478 386.139 273.788C386.139 274.098 385.885 274.35 385.571 274.35Z" fill="#E2EAFF"/>
<path d="M385.571 269.044C385.257 269.044 385.003 268.792 385.003 268.482C385.003 268.171 385.257 267.92 385.571 267.92C385.885 267.92 386.139 268.171 386.139 268.482C386.139 268.792 385.885 269.044 385.571 269.044Z" fill="#E2EAFF"/>
<path d="M396.05 279.059C396.05 279.17 396.083 279.279 396.145 279.371C396.207 279.464 396.296 279.536 396.4 279.579C396.504 279.622 396.618 279.633 396.728 279.611C396.839 279.59 396.94 279.537 397.02 279.458C397.099 279.379 397.154 279.279 397.176 279.17C397.198 279.061 397.187 278.948 397.144 278.845C397.101 278.743 397.028 278.655 396.934 278.593C396.841 278.531 396.731 278.498 396.618 278.498C396.468 278.498 396.324 278.557 396.217 278.662C396.111 278.767 396.051 278.91 396.05 279.059Z" fill="#E2EAFF"/>
<path d="M391.017 284.756C391.046 284.757 391.075 284.748 391.1 284.732C391.125 284.716 391.144 284.693 391.156 284.666C391.167 284.639 391.171 284.609 391.165 284.581C391.16 284.552 391.146 284.525 391.125 284.504L385.727 279.056V274.087C385.727 274.048 385.711 274.01 385.683 273.983C385.655 273.955 385.617 273.939 385.577 273.939C385.537 273.939 385.499 273.955 385.471 273.983C385.443 274.01 385.427 274.048 385.427 274.087V279.116C385.427 279.155 385.442 279.192 385.469 279.22L390.906 284.706C390.92 284.722 390.937 284.734 390.956 284.743C390.975 284.752 390.996 284.756 391.017 284.756Z" fill="#E2EAFF"/>
<path d="M396.454 279.073C396.473 279.073 396.493 279.069 396.511 279.062C396.53 279.054 396.546 279.043 396.56 279.029C396.574 279.015 396.585 278.999 396.593 278.981C396.6 278.963 396.604 278.943 396.604 278.924C396.604 278.904 396.6 278.885 396.593 278.867C396.585 278.849 396.574 278.832 396.56 278.818L385.765 268.375C385.736 268.347 385.698 268.332 385.658 268.332C385.618 268.333 385.58 268.349 385.552 268.377C385.525 268.405 385.509 268.443 385.51 268.482C385.51 268.522 385.526 268.559 385.555 268.587L396.35 279.03C396.378 279.058 396.415 279.073 396.454 279.073Z" fill="#E2EAFF"/>
<path d="M385.543 290.285L391.075 290.169C391.114 290.168 391.151 290.153 391.179 290.125L401.953 279.374C401.967 279.361 401.978 279.344 401.985 279.326C401.993 279.308 401.997 279.289 401.997 279.269L401.959 273.564C401.959 273.544 401.955 273.525 401.947 273.507C401.939 273.489 401.927 273.472 401.913 273.459L396.903 268.714C396.874 268.687 396.836 268.673 396.796 268.674C396.756 268.674 396.719 268.691 396.691 268.72C396.664 268.748 396.649 268.786 396.65 268.826C396.651 268.865 396.668 268.902 396.696 268.929L401.659 273.625L401.697 279.205L391.008 289.87L385.6 289.983L380.052 284.497C380.038 284.483 380.021 284.472 380.003 284.465C379.985 284.458 379.965 284.454 379.945 284.454L375.447 284.464C375.408 284.464 375.369 284.48 375.341 284.508C375.313 284.536 375.297 284.573 375.297 284.613C375.297 284.652 375.313 284.69 375.341 284.717C375.369 284.745 375.408 284.761 375.447 284.761L379.892 284.75L385.439 290.236C385.466 290.265 385.503 290.283 385.543 290.285Z" fill="#E2EAFF"/>
<path d="M406.771 280.589C406.771 280.7 406.804 280.808 406.866 280.901C406.929 280.993 407.018 281.065 407.121 281.108C407.225 281.15 407.339 281.162 407.45 281.14C407.56 281.118 407.661 281.065 407.741 280.986C407.82 280.907 407.874 280.807 407.896 280.698C407.918 280.589 407.907 280.476 407.864 280.374C407.821 280.271 407.748 280.183 407.655 280.121C407.561 280.06 407.451 280.027 407.339 280.027C407.188 280.027 407.044 280.086 406.937 280.191C406.83 280.297 406.771 280.44 406.771 280.589Z" fill="#E2EAFF"/>
<path d="M394.395 260.068C394.395 260.179 394.428 260.287 394.491 260.38C394.553 260.472 394.642 260.544 394.746 260.587C394.849 260.629 394.964 260.641 395.074 260.619C395.184 260.597 395.285 260.544 395.365 260.465C395.444 260.386 395.499 260.286 395.52 260.177C395.542 260.068 395.531 259.955 395.488 259.853C395.445 259.75 395.372 259.662 395.279 259.6C395.185 259.539 395.075 259.506 394.963 259.506C394.812 259.506 394.668 259.565 394.561 259.67C394.455 259.776 394.395 259.919 394.395 260.068Z" fill="#E2EAFF"/>
<path d="M407.412 263.696C407.412 263.807 407.446 263.915 407.508 264.008C407.571 264.1 407.659 264.172 407.763 264.215C407.867 264.257 407.981 264.268 408.091 264.247C408.202 264.225 408.303 264.172 408.382 264.093C408.462 264.014 408.516 263.914 408.538 263.805C408.56 263.696 408.549 263.583 408.506 263.481C408.463 263.378 408.39 263.29 408.296 263.228C408.203 263.167 408.093 263.134 407.981 263.134C407.83 263.134 407.685 263.193 407.579 263.298C407.472 263.404 407.412 263.547 407.412 263.696Z" fill="#E2EAFF"/>
<path d="M417.116 276.334C417.116 276.445 417.149 276.553 417.212 276.646C417.274 276.738 417.363 276.81 417.467 276.853C417.571 276.895 417.685 276.906 417.795 276.885C417.906 276.863 418.007 276.809 418.086 276.731C418.166 276.652 418.22 276.552 418.242 276.443C418.264 276.334 418.252 276.221 418.209 276.119C418.166 276.016 418.094 275.928 418 275.866C417.907 275.805 417.797 275.772 417.684 275.772C417.61 275.771 417.536 275.786 417.467 275.814C417.398 275.842 417.335 275.884 417.282 275.936C417.229 275.988 417.188 276.05 417.159 276.118C417.131 276.187 417.116 276.26 417.116 276.334Z" fill="#E2EAFF"/>
<path d="M412.717 263.002C412.403 263.002 412.149 262.75 412.149 262.44C412.149 262.13 412.403 261.878 412.717 261.878C413.031 261.878 413.285 262.13 413.285 262.44C413.285 262.75 413.031 263.002 412.717 263.002Z" fill="#E2EAFF"/>
<path d="M412.168 281.348C412.168 281.459 412.202 281.568 412.264 281.66C412.327 281.752 412.415 281.824 412.519 281.867C412.623 281.91 412.737 281.921 412.847 281.899C412.958 281.877 413.059 281.824 413.138 281.745C413.218 281.667 413.272 281.566 413.294 281.457C413.316 281.348 413.305 281.235 413.262 281.133C413.219 281.03 413.146 280.942 413.052 280.881C412.959 280.819 412.849 280.786 412.737 280.786C412.586 280.786 412.441 280.845 412.335 280.951C412.228 281.056 412.168 281.199 412.168 281.348Z" fill="#E2EAFF"/>
<path d="M407.363 280.71C407.403 280.71 407.441 280.695 407.469 280.667C407.497 280.639 407.513 280.601 407.513 280.562L407.54 271.622C407.54 271.601 407.535 271.581 407.527 271.563C407.519 271.544 407.507 271.527 407.492 271.514L395.029 260.028C395.015 260.013 394.998 260.001 394.979 259.993C394.96 259.985 394.94 259.981 394.919 259.981C394.899 259.981 394.879 259.985 394.86 259.993C394.841 260.001 394.824 260.013 394.81 260.028C394.796 260.043 394.785 260.06 394.778 260.08C394.771 260.099 394.769 260.119 394.77 260.139C394.772 260.16 394.777 260.179 394.787 260.197C394.796 260.215 394.809 260.231 394.825 260.244L407.24 271.681L407.213 280.556C407.213 280.595 407.229 280.633 407.257 280.661C407.285 280.689 407.323 280.704 407.363 280.704V280.71Z" fill="#E2EAFF"/>
<path d="M412.726 281.269C412.766 281.269 412.804 281.254 412.832 281.226C412.86 281.198 412.876 281.16 412.876 281.121L412.928 271.187C412.929 271.166 412.924 271.146 412.916 271.127C412.907 271.107 412.895 271.09 412.879 271.076L408.166 266.882V263.748C408.166 263.708 408.151 263.671 408.123 263.643C408.094 263.615 408.056 263.599 408.017 263.599C407.977 263.599 407.939 263.615 407.911 263.643C407.882 263.671 407.867 263.708 407.867 263.748V266.937C407.866 266.958 407.871 266.978 407.879 266.998C407.888 267.017 407.9 267.034 407.916 267.048L412.629 271.241L412.576 281.117C412.576 281.156 412.592 281.194 412.62 281.221C412.648 281.249 412.686 281.265 412.726 281.265V281.269Z" fill="#E2EAFF"/>
<path d="M417.683 276.35C417.723 276.35 417.761 276.334 417.789 276.306C417.817 276.279 417.833 276.241 417.833 276.202V271.414C417.833 271.395 417.829 271.375 417.821 271.357C417.813 271.339 417.802 271.323 417.788 271.309L412.91 266.511L412.885 262.596C412.885 262.556 412.869 262.519 412.841 262.491C412.813 262.463 412.775 262.447 412.735 262.447C412.695 262.447 412.657 262.463 412.629 262.491C412.601 262.519 412.585 262.556 412.585 262.596L412.611 266.573C412.611 266.613 412.627 266.65 412.656 266.677L417.533 271.474V276.2C417.533 276.22 417.537 276.239 417.544 276.257C417.551 276.276 417.562 276.292 417.576 276.306C417.59 276.32 417.607 276.331 417.625 276.338C417.644 276.346 417.663 276.35 417.683 276.35Z" fill="#E2EAFF"/>
<path d="M377.014 276.507C377.034 276.507 377.054 276.503 377.072 276.496C377.09 276.489 377.107 276.478 377.121 276.464C377.149 276.436 377.164 276.399 377.164 276.36C377.164 276.32 377.149 276.283 377.121 276.255L373.284 272.434C373.269 272.419 373.25 272.408 373.23 272.4C373.21 272.393 373.188 272.39 373.167 272.391L364.559 272.984C364.539 272.986 364.52 272.991 364.502 272.999C364.485 273.008 364.469 273.02 364.456 273.035C364.443 273.05 364.433 273.067 364.427 273.085C364.421 273.104 364.418 273.123 364.42 273.143C364.423 273.182 364.441 273.218 364.471 273.244C364.501 273.269 364.541 273.282 364.58 273.279L373.126 272.686L376.914 276.458C376.94 276.487 376.976 276.504 377.014 276.507Z" fill="#E2EAFF"/>
<path d="M369.488 278.549C369.526 278.548 369.562 278.533 369.589 278.507C369.617 278.479 369.633 278.442 369.633 278.403C369.633 278.363 369.617 278.326 369.589 278.298L353.813 261.71C353.786 261.682 353.748 261.665 353.708 261.664C353.669 261.662 353.63 261.677 353.601 261.704C353.572 261.731 353.555 261.768 353.554 261.807C353.552 261.847 353.567 261.885 353.594 261.914L369.378 278.501C369.392 278.516 369.409 278.528 369.428 278.536C369.447 278.544 369.467 278.549 369.488 278.549Z" fill="#E2EAFF"/>
<path d="M356.421 256.518H365.399C365.439 256.518 365.477 256.503 365.505 256.475C365.533 256.447 365.549 256.409 365.549 256.37C365.549 256.331 365.533 256.293 365.505 256.265C365.477 256.237 365.439 256.222 365.399 256.222H356.421C356.381 256.222 356.343 256.237 356.315 256.265C356.286 256.293 356.271 256.331 356.271 256.37C356.271 256.409 356.286 256.447 356.315 256.475C356.343 256.503 356.381 256.518 356.421 256.518Z" fill="#E2EAFF"/>
<path d="M398.205 253.345C398.205 253.457 398.172 253.565 398.11 253.658C398.048 253.751 397.959 253.823 397.855 253.866C397.751 253.908 397.637 253.92 397.527 253.898C397.416 253.877 397.315 253.823 397.235 253.745C397.156 253.666 397.101 253.566 397.079 253.457C397.057 253.348 397.068 253.235 397.111 253.132C397.154 253.029 397.227 252.942 397.321 252.88C397.414 252.818 397.524 252.785 397.637 252.785C397.787 252.785 397.931 252.844 398.038 252.949C398.144 253.054 398.204 253.197 398.205 253.345Z" fill="#E2EAFF"/>
<path d="M392.507 237.729C392.507 237.84 392.474 237.949 392.411 238.041C392.349 238.134 392.26 238.206 392.156 238.248C392.053 238.291 391.938 238.302 391.828 238.28C391.718 238.258 391.617 238.205 391.537 238.126C391.458 238.048 391.404 237.948 391.382 237.839C391.36 237.73 391.371 237.617 391.414 237.514C391.457 237.411 391.53 237.324 391.623 237.262C391.717 237.2 391.827 237.167 391.939 237.167C392.09 237.167 392.234 237.226 392.341 237.332C392.447 237.437 392.507 237.58 392.507 237.729Z" fill="#E2EAFF"/>
<path d="M381.884 232.925C381.57 232.925 381.316 232.674 381.316 232.363C381.316 232.053 381.57 231.801 381.884 231.801C382.198 231.801 382.453 232.053 382.453 232.363C382.453 232.674 382.198 232.925 381.884 232.925Z" fill="#E2EAFF"/>
<path d="M373.879 232.519C373.879 232.63 373.846 232.739 373.784 232.832C373.722 232.924 373.633 232.997 373.529 233.039C373.425 233.082 373.311 233.093 373.2 233.072C373.09 233.05 372.989 232.997 372.909 232.918C372.83 232.839 372.775 232.739 372.753 232.63C372.732 232.521 372.743 232.408 372.786 232.305C372.829 232.202 372.902 232.114 372.996 232.053C373.09 231.991 373.2 231.958 373.312 231.959C373.387 231.959 373.461 231.973 373.529 232.001C373.598 232.029 373.661 232.071 373.713 232.123C373.766 232.175 373.808 232.237 373.836 232.305C373.865 232.373 373.879 232.445 373.879 232.519Z" fill="#E2EAFF"/>
<path d="M397.624 253.205C397.664 253.205 397.702 253.189 397.731 253.161C397.759 253.133 397.774 253.096 397.774 253.056L397.758 243.302L402.937 237.487C402.963 237.458 402.976 237.419 402.974 237.38C402.971 237.341 402.953 237.304 402.923 237.278C402.893 237.252 402.854 237.239 402.815 237.242C402.775 237.244 402.738 237.262 402.712 237.292L397.494 243.148C397.47 243.175 397.457 243.21 397.457 243.246L397.475 253.058C397.475 253.097 397.491 253.134 397.519 253.162C397.547 253.189 397.585 253.205 397.624 253.205Z" fill="#E2EAFF"/>
<path d="M391.955 237.837C391.976 237.837 391.997 237.833 392.016 237.824C392.035 237.816 392.052 237.804 392.066 237.788L394.96 234.596C394.973 234.582 394.983 234.565 394.99 234.546C394.997 234.528 394.999 234.508 394.998 234.489C394.997 234.47 394.992 234.45 394.984 234.433C394.975 234.415 394.964 234.399 394.949 234.386C394.934 234.373 394.917 234.363 394.898 234.357C394.88 234.35 394.86 234.348 394.84 234.349C394.821 234.35 394.801 234.354 394.784 234.363C394.766 234.371 394.75 234.383 394.737 234.398L391.843 237.59C391.823 237.611 391.811 237.638 391.806 237.666C391.802 237.694 391.806 237.723 391.817 237.75C391.829 237.776 391.849 237.798 391.873 237.814C391.898 237.829 391.926 237.837 391.955 237.837Z" fill="#E2EAFF"/>
<path d="M393.606 241.559C393.292 241.559 393.038 241.307 393.038 240.997C393.038 240.686 393.292 240.435 393.606 240.435C393.92 240.435 394.174 240.686 394.174 240.997C394.174 241.307 393.92 241.559 393.606 241.559Z" fill="#E2EAFF"/>
<path d="M393.569 241.081C393.59 241.081 393.611 241.077 393.63 241.069C393.65 241.06 393.667 241.048 393.681 241.032L396.575 237.84C396.588 237.826 396.598 237.809 396.605 237.79C396.612 237.772 396.614 237.752 396.613 237.733C396.612 237.713 396.607 237.694 396.599 237.677C396.59 237.659 396.578 237.643 396.564 237.63C396.549 237.617 396.532 237.607 396.513 237.601C396.495 237.594 396.475 237.591 396.455 237.592C396.436 237.594 396.416 237.598 396.399 237.607C396.381 237.615 396.365 237.627 396.352 237.641L393.459 240.834C393.44 240.855 393.427 240.881 393.423 240.91C393.418 240.938 393.422 240.967 393.434 240.993C393.445 241.019 393.464 241.041 393.489 241.057C393.513 241.073 393.541 241.081 393.57 241.081H393.569Z" fill="#E2EAFF"/>
<path d="M389.763 235.209C389.784 235.209 389.803 235.205 389.822 235.197C389.84 235.189 389.857 235.178 389.871 235.164L391.383 233.634C391.411 233.606 391.426 233.568 391.426 233.529C391.425 233.489 391.409 233.452 391.38 233.424C391.352 233.397 391.314 233.381 391.274 233.382C391.234 233.382 391.196 233.398 391.168 233.426L389.7 234.909L384.985 234.897L382.151 232.344C382.137 232.33 382.12 232.318 382.101 232.311C382.082 232.303 382.062 232.299 382.041 232.3C382.021 232.3 382.001 232.305 381.982 232.313C381.963 232.321 381.947 232.333 381.933 232.348C381.919 232.363 381.909 232.381 381.902 232.4C381.896 232.419 381.893 232.439 381.895 232.46C381.896 232.48 381.902 232.499 381.912 232.517C381.921 232.535 381.934 232.551 381.95 232.564L384.824 235.154C384.852 235.178 384.888 235.192 384.925 235.192L389.763 235.206V235.209Z" fill="#E2EAFF"/>
<path d="M380.295 236.031C380.315 236.032 380.335 236.028 380.353 236.02C380.372 236.012 380.389 236.001 380.403 235.987C380.431 235.959 380.446 235.922 380.446 235.882C380.446 235.843 380.431 235.806 380.403 235.778L376.963 232.454C376.935 232.427 376.898 232.412 376.86 232.412L373.314 232.386C373.274 232.386 373.236 232.401 373.208 232.429C373.18 232.457 373.164 232.495 373.164 232.534C373.164 232.573 373.18 232.611 373.208 232.639C373.236 232.667 373.274 232.682 373.314 232.682L376.798 232.709L380.194 235.99C380.221 236.016 380.257 236.03 380.295 236.031Z" fill="#E2EAFF"/>
<path d="M364.181 279.647C364.218 279.647 364.253 279.634 364.28 279.61C364.31 279.584 364.329 279.548 364.331 279.509C364.334 279.47 364.321 279.431 364.295 279.401L357.169 271.256C357.146 271.23 357.116 271.213 357.082 271.207L351.014 270.126C350.974 270.119 350.933 270.128 350.9 270.151C350.867 270.174 350.845 270.209 350.838 270.248C350.831 270.287 350.84 270.328 350.863 270.361C350.886 270.393 350.922 270.415 350.961 270.422L356.977 271.494L364.069 279.6C364.083 279.615 364.1 279.627 364.12 279.635C364.139 279.644 364.16 279.648 364.181 279.647Z" fill="#E2EAFF"/>
<path d="M355.501 279.492C355.501 279.603 355.535 279.711 355.597 279.804C355.66 279.896 355.748 279.968 355.852 280.011C355.956 280.053 356.07 280.064 356.181 280.043C356.291 280.021 356.392 279.967 356.472 279.889C356.551 279.81 356.605 279.71 356.627 279.601C356.649 279.492 356.638 279.379 356.595 279.277C356.552 279.174 356.479 279.086 356.385 279.024C356.292 278.963 356.182 278.93 356.07 278.93C355.919 278.93 355.774 278.989 355.668 279.094C355.561 279.2 355.501 279.343 355.501 279.492Z" fill="#E2EAFF"/>
<path d="M382.061 294.992C382.065 294.881 382.103 294.774 382.169 294.684C382.235 294.594 382.327 294.525 382.432 294.487C382.538 294.448 382.652 294.441 382.762 294.467C382.871 294.493 382.97 294.551 383.046 294.632C383.123 294.714 383.173 294.816 383.19 294.926C383.208 295.036 383.192 295.149 383.145 295.25C383.098 295.351 383.021 295.435 382.925 295.493C382.829 295.551 382.718 295.58 382.605 295.575C382.455 295.569 382.314 295.504 382.212 295.395C382.11 295.285 382.056 295.141 382.061 294.992Z" fill="#E2EAFF"/>
<path d="M382.415 294.865C382.435 294.865 382.455 294.86 382.474 294.852C382.492 294.844 382.509 294.832 382.523 294.817C382.551 294.79 382.567 294.752 382.567 294.713C382.567 294.674 382.551 294.636 382.523 294.608L370.993 283.891C370.965 283.865 370.929 283.851 370.891 283.85L359.607 283.902L356.194 279.426C356.17 279.395 356.134 279.375 356.095 279.369C356.056 279.364 356.016 279.374 355.984 279.398C355.953 279.422 355.932 279.457 355.927 279.496C355.921 279.535 355.932 279.574 355.956 279.606L359.406 284.135C359.42 284.153 359.438 284.168 359.458 284.178C359.479 284.188 359.501 284.193 359.524 284.193L370.823 284.141L382.31 294.816C382.323 294.831 382.339 294.843 382.358 294.851C382.376 294.859 382.395 294.864 382.415 294.865Z" fill="#E2EAFF"/>
<path d="M383.568 299.497C383.588 299.497 383.607 299.493 383.626 299.485C383.644 299.477 383.661 299.466 383.674 299.452L388.552 294.577L393.359 294.525C393.398 294.525 393.436 294.51 393.464 294.482L407.417 280.676C407.445 280.648 407.46 280.611 407.46 280.572C407.46 280.532 407.445 280.495 407.417 280.467C407.403 280.453 407.386 280.442 407.368 280.435C407.35 280.427 407.33 280.423 407.31 280.423C407.291 280.423 407.271 280.427 407.253 280.435C407.234 280.442 407.218 280.453 407.204 280.467L393.294 294.23L388.487 294.281C388.448 294.281 388.41 294.297 388.382 294.325L383.462 299.245C383.434 299.272 383.418 299.31 383.418 299.349C383.418 299.388 383.434 299.426 383.462 299.454C383.476 299.467 383.492 299.478 383.51 299.486C383.529 299.493 383.548 299.497 383.568 299.497Z" fill="#E2EAFF"/>
<path d="M382.823 299.436C382.823 299.547 382.856 299.656 382.919 299.748C382.981 299.84 383.07 299.912 383.174 299.955C383.277 299.998 383.392 300.009 383.502 299.987C383.612 299.965 383.713 299.912 383.793 299.833C383.872 299.755 383.927 299.654 383.948 299.545C383.97 299.436 383.959 299.323 383.916 299.221C383.873 299.118 383.8 299.03 383.707 298.969C383.613 298.907 383.503 298.874 383.391 298.874C383.24 298.874 383.096 298.933 382.989 299.039C382.883 299.144 382.823 299.287 382.823 299.436Z" fill="#E2EAFF"/>
<path d="M373.143 295.293C373.172 295.293 373.201 295.285 373.225 295.269C373.249 295.253 373.268 295.231 373.28 295.204C373.292 295.178 373.295 295.149 373.29 295.12C373.285 295.092 373.272 295.065 373.252 295.044L367.432 288.869C367.405 288.84 367.367 288.823 367.327 288.822C367.288 288.82 367.249 288.834 367.22 288.861C367.19 288.888 367.173 288.925 367.172 288.964C367.17 289.004 367.184 289.042 367.211 289.071L373.035 295.246C373.049 295.261 373.065 295.272 373.084 295.281C373.103 295.289 373.123 295.293 373.143 295.293Z" fill="#E2EAFF"/>
</g>
<g clip-path="url(#clip1_661_1964)">
<mask id="mask0_661_1964" style="mask-type:luminance" maskUnits="userSpaceOnUse" x="224" y="85" width="99" height="54">
<path d="M322.718 111.849C318.537 116.459 313.941 120.677 308.986 124.451C303.623 128.523 298.178 131.76 292.804 134.075C292.326 134.282 291.849 134.481 291.372 134.67C285.231 137.13 279.179 138.375 273.361 138.375C267.543 138.375 261.49 137.129 255.351 134.67C254.873 134.478 254.396 134.28 253.918 134.075C248.542 131.76 243.097 128.523 237.737 124.451C232.78 120.677 228.182 116.459 224 111.849C228.181 107.241 232.778 103.023 237.732 99.2493C243.095 95.1773 248.54 91.9406 253.914 89.6262C254.391 89.4185 254.867 89.2221 255.343 89.032C261.486 86.5712 267.538 85.3247 273.357 85.3247C279.176 85.3247 285.228 86.5712 291.371 89.032C291.847 89.2221 292.323 89.4216 292.8 89.6262C298.176 91.9406 303.621 95.1773 308.982 99.2493C313.938 103.023 318.536 107.241 322.718 111.849Z" fill="white"/>
</mask>
<g mask="url(#mask0_661_1964)">
<path d="M322.718 111.849C318.537 116.459 313.941 120.677 308.986 124.451C303.623 128.523 298.178 131.76 292.804 134.075C292.326 134.282 291.849 134.481 291.372 134.67C285.231 137.13 279.179 138.375 273.361 138.375C267.543 138.375 261.49 137.129 255.351 134.67C254.873 134.478 254.396 134.28 253.918 134.075C248.542 131.76 243.097 128.523 237.737 124.451C232.78 120.677 228.182 116.459 224 111.849C228.181 107.241 232.778 103.023 237.732 99.2492C243.095 95.1773 248.54 91.9405 253.914 89.6262C254.391 89.4184 254.867 89.2221 255.343 89.032C261.486 86.5712 267.538 85.3246 273.357 85.3246C279.176 85.3246 285.228 86.5712 291.371 89.032C291.847 89.2221 292.323 89.4215 292.8 89.6262C298.176 91.9405 303.621 95.1773 308.982 99.2492C313.938 103.023 318.536 107.241 322.718 111.849Z" fill="white"/>
<path opacity="0.74" d="M295.838 93.3709C294.509 91.7708 293.012 90.3163 291.373 89.032C285.23 86.5712 279.178 85.3246 273.359 85.3246C267.54 85.3246 261.487 86.5712 255.345 89.032C251.871 91.747 249.063 95.2118 247.132 99.1648C245.2 103.118 244.197 107.456 244.197 111.851C244.197 116.246 245.2 120.584 247.132 124.537C249.063 128.49 251.871 131.955 255.345 134.67C261.486 137.13 267.538 138.375 273.356 138.375C279.174 138.375 285.226 137.129 291.367 134.67C294.426 132.279 296.974 129.303 298.859 125.918C300.745 122.532 301.931 118.806 302.348 114.957C302.764 111.109 302.402 107.216 301.284 103.509C300.165 99.8019 298.313 96.3548 295.835 93.3709H295.838Z" fill="#68326F"/>
<path d="M297.467 96.7483L293.401 96.3817L293.035 100.448L297.101 100.814L297.467 96.7483ZM285.102 107.72L295.572 98.9818L294.931 98.2141L284.461 106.952L285.102 107.72Z" fill="#68326F"/>
<path d="M325.318 117.829L324.442 113.842L320.454 114.718L321.331 118.705L325.318 117.829ZM323.156 115.852L295.521 98.1768L294.982 99.0192L322.617 116.695L323.156 115.852Z" fill="#68326F"/>
<path d="M322.426 126.455L320.637 122.785L316.968 124.574L318.756 128.244L322.426 126.455ZM283.578 113.599L319.534 125.987L319.86 125.042L283.904 112.653L283.578 113.599Z" fill="#68326F"/>
<path d="M296.816 120.439L299.489 117.353L296.403 114.68L293.73 117.766L296.816 120.439ZM294.752 98.6337L296.111 117.595L297.108 117.524L295.75 98.5622L294.752 98.6337Z" fill="#68326F"/>
<path d="M299.427 116.931L295.981 114.742L293.792 118.188L297.238 120.377L299.427 116.931ZM276.619 122.533L296.718 118.047L296.5 117.071L276.401 121.557L276.619 122.533Z" fill="#68326F"/>
<path d="M298.002 99.4743L296.127 95.8474L292.501 97.7216L294.375 101.348L298.002 99.4743ZM295.403 98.1215L254.731 85.163L254.427 86.1158L295.099 99.0743L295.403 98.1215Z" fill="#68326F"/>
<path d="M279.184 123.132L277.597 119.371L273.836 120.958L275.423 124.719L279.184 123.132ZM226.121 102.105L276.322 122.508L276.698 121.582L226.498 101.178L226.121 102.105Z" fill="#68326F"/>
<path d="M277.562 119.356L273.821 120.993L275.458 124.733L279.198 123.097L277.562 119.356ZM268.409 144.126L276.975 122.227L276.044 121.863L267.477 143.762L268.409 144.126Z" fill="#68326F"/>
<path d="M303.987 140.464L305.85 136.832L302.217 134.969L300.354 138.602L303.987 140.464ZM296.133 117.713L302.626 137.87L303.578 137.563L297.085 117.406L296.133 117.713Z" fill="#68326F"/>
<path d="M318.469 97.6822L314.391 97.4885L314.197 101.566L318.275 101.76L318.469 97.6822ZM315.997 99.2543L296.273 117.19L296.946 117.929L316.67 99.9942L315.997 99.2543Z" fill="#68326F"/>
<path d="M297.99 97.6842L294.337 95.8596L292.513 99.5117L296.165 101.336L297.99 97.6842ZM295.093 98.1237L224.681 121.619L224.998 122.568L295.409 99.0723L295.093 98.1237Z" fill="#68326F"/>
<path d="M295.867 142.742L296.003 138.662L291.923 138.525L291.787 142.605L295.867 142.742ZM276.145 122.386L293.53 140.975L294.26 140.292L276.875 121.703L276.145 122.386Z" fill="#68326F"/>
<path d="M317.025 95.3914L313.748 92.9561L311.313 96.2326L314.59 98.668L317.025 95.3914ZM295.324 99.0926L314.242 96.3067L314.096 95.3173L295.178 98.1033L295.324 99.0926Z" fill="#68326F"/>
<path d="M254.214 115.195L256.063 111.556L252.424 109.706L250.574 113.346L254.214 115.195ZM253.794 112.296L244.949 85.1696L243.998 85.4797L252.844 112.606L253.794 112.296Z" fill="#68326F"/>
<path d="M278.858 110.653L274.802 110.192L274.341 114.248L278.397 114.71L278.858 110.653ZM276.288 112.06L243.693 138.001L244.316 138.783L276.911 112.842L276.288 112.06Z" fill="#68326F"/>
<path d="M296.751 101.065L297.718 97.0983L293.752 96.1312L292.784 100.098L296.751 101.065ZM295.678 98.3382L286.216 82.7734L285.361 83.2929L294.824 98.8577L295.678 98.3382Z" fill="#68326F"/>
<path d="M254.598 109.863L250.731 111.172L252.04 115.039L255.907 113.73L254.598 109.863ZM252.871 112.229L241.8 134.624L242.697 135.067L253.767 112.672L252.871 112.229Z" fill="#68326F"/>
<path d="M275.685 77.4546L272.265 79.6847L274.495 83.1043L277.915 80.8741L275.685 77.4546ZM269.862 107.539L275.579 80.3824L274.601 80.1764L268.884 107.333L269.862 107.539Z" fill="#68326F"/>
<path d="M275.505 90.3706L271.746 88.7788L270.154 92.5382L273.914 94.13L275.505 90.3706ZM272.642 90.991L236.789 105.514L237.164 106.441L273.017 91.9178L272.642 90.991Z" fill="#68326F"/>
<path d="M237.187 131.57L240.05 128.66L237.14 125.797L234.277 128.707L237.187 131.57ZM237.663 128.679L237.477 105.973L236.477 105.981L236.663 128.688L237.663 128.679Z" fill="#68326F"/>
<path opacity="0.74" d="M284.722 99.3376C281.839 96.7464 278.15 95.219 274.271 95.011C270.393 94.8029 266.56 95.9268 263.414 98.1946C260.269 100.462 258.002 103.736 256.992 107.469C255.983 111.201 256.293 115.165 257.87 118.697C259.447 122.229 262.195 125.115 265.655 126.872C269.115 128.629 273.076 129.15 276.876 128.348C280.676 127.546 284.084 125.47 286.529 122.466C288.974 119.463 290.308 115.715 290.308 111.85C290.312 109.491 289.816 107.158 288.854 105.002C287.891 102.846 286.483 100.916 284.722 99.3376Z" fill="#93479C"/>
<path d="M281.597 102.779C279.508 100.901 276.833 99.7934 274.022 99.6426C271.21 99.4917 268.431 100.306 266.151 101.95C263.871 103.594 262.227 105.968 261.496 108.673C260.764 111.379 260.988 114.252 262.131 116.813C263.275 119.373 265.267 121.465 267.775 122.739C270.283 124.013 273.155 124.39 275.909 123.809C278.664 123.228 281.134 121.723 282.907 119.546C284.679 117.369 285.647 114.652 285.647 111.85C285.649 110.14 285.29 108.449 284.592 106.886C283.895 105.323 282.874 103.924 281.597 102.779Z" fill="#2D334A"/>
<path d="M273.959 91.7171C274.106 91.0935 273.718 90.4686 273.091 90.3214C272.465 90.1742 271.837 90.5604 271.689 91.1841C271.541 91.8078 271.929 92.4327 272.556 92.5799C273.183 92.7271 273.811 92.3408 273.959 91.7171Z" fill="#68326F"/>
<path d="M297.434 118.357C297.889 117.904 297.889 117.169 297.434 116.716C296.978 116.263 296.24 116.263 295.785 116.716C295.329 117.169 295.329 117.904 295.785 118.357C296.24 118.81 296.978 118.81 297.434 118.357Z" fill="#68326F"/>
<path d="M296.075 99.3492C296.531 98.8961 296.531 98.1614 296.075 97.7083C295.62 97.2552 294.882 97.2552 294.426 97.7083C293.971 98.1614 293.971 98.8961 294.426 99.3492C294.882 99.8023 295.62 99.8023 296.075 99.3492Z" fill="#68326F"/>
<path d="M236.977 118.855C237.365 118.855 237.68 118.541 237.68 118.155C237.68 117.768 237.365 117.455 236.977 117.455C236.588 117.455 236.273 117.768 236.273 118.155C236.273 118.541 236.588 118.855 236.977 118.855Z" fill="#68326F"/>
<path d="M308.283 107.657C308.672 107.657 308.987 107.344 308.987 106.957C308.987 106.57 308.672 106.257 308.283 106.257C307.894 106.257 307.579 106.57 307.579 106.957C307.579 107.344 307.894 107.657 308.283 107.657Z" fill="#68326F"/>
<path d="M286.969 133.832C287.358 133.832 287.673 133.518 287.673 133.132C287.673 132.745 287.358 132.431 286.969 132.431C286.581 132.431 286.266 132.745 286.266 133.132C286.266 133.518 286.581 133.832 286.969 133.832Z" fill="#68326F"/>
<path d="M249.541 101.642C249.929 101.642 250.244 101.328 250.244 100.941C250.244 100.555 249.929 100.241 249.541 100.241C249.152 100.241 248.837 100.555 248.837 100.941C248.837 101.328 249.152 101.642 249.541 101.642Z" fill="#68326F"/>
<path d="M238.224 106.194C238.363 105.608 237.999 105.021 237.41 104.883C236.821 104.744 236.232 105.107 236.093 105.693C235.954 106.279 236.318 106.865 236.907 107.004C237.496 107.142 238.085 106.779 238.224 106.194Z" fill="#68326F"/>
<path d="M254.04 113.375C254.495 112.922 254.495 112.188 254.04 111.734C253.584 111.281 252.846 111.281 252.39 111.734C251.935 112.188 251.935 112.922 252.39 113.375C252.846 113.828 253.584 113.828 254.04 113.375Z" fill="#68326F"/>
<path d="M255.903 130.258C256.358 129.805 256.358 129.071 255.903 128.617C255.447 128.164 254.709 128.164 254.254 128.617C253.798 129.071 253.798 129.805 254.254 130.258C254.709 130.712 255.447 130.712 255.903 130.258Z" fill="#68326F"/>
<path d="M255.392 132.46L257.948 129.277L254.764 126.721L252.208 129.904L255.392 132.46ZM252.718 112.609L254.581 129.645L255.575 129.536L253.712 112.5L252.718 112.609Z" fill="#68326F"/>
<path d="M298.119 115.099L294.149 116.05L295.1 120.02L299.07 119.069L298.119 115.099ZM296.183 117.298L286.655 132.831L287.507 133.353L297.036 117.821L296.183 117.298Z" fill="#68326F"/>
<path d="M271.058 137.166C271.702 137.166 272.224 136.647 272.224 136.006C272.224 135.365 271.702 134.845 271.058 134.845C270.414 134.845 269.892 135.365 269.892 136.006C269.892 136.647 270.414 137.166 271.058 137.166Z" fill="#68326F"/>
<path d="M273.507 137.638L272.017 133.837L268.216 135.327L269.707 139.128L273.507 137.638ZM271.062 136.024L255.278 129.132L254.878 130.049L270.662 136.941L271.062 136.024Z" fill="#68326F"/>
<path d="M274.795 89.3397L270.715 89.4894L270.865 93.5691L274.944 93.4195L274.795 89.3397ZM272.464 91.114L252.953 112.111L253.685 112.791L273.196 91.7948L272.464 91.114Z" fill="#68326F"/>
</g>
<path d="M231.117 76.8557L231.617 76.8557L231.617 76.8551L231.117 76.8557ZM232.871 72.6404L233.223 72.9952L233.224 72.9944L232.871 72.6404ZM237.107 70.8943L237.106 71.3943H237.107V70.8943ZM255.523 70.8943L252.636 68.0075L249.749 70.8943L252.636 73.781L255.523 70.8943ZM231.617 95.1722V76.8557H230.617V95.1722H231.617ZM231.617 76.8551C231.616 76.1384 231.757 75.4285 232.033 74.7661L231.11 74.382C230.783 75.1664 230.616 76.0073 230.617 76.8564L231.617 76.8551ZM232.033 74.7661C232.308 74.1038 232.713 73.5019 233.223 72.9952L232.518 72.2857C231.915 72.8852 231.436 73.5976 231.11 74.382L232.033 74.7661ZM233.224 72.9944C233.733 72.4865 234.338 72.0836 235.004 71.8089L234.623 70.8844C233.835 71.209 233.12 71.6855 232.518 72.2865L233.224 72.9944ZM235.004 71.8089C235.671 71.5343 236.385 71.3933 237.106 71.3943L237.108 70.3943C236.255 70.3932 235.411 70.5597 234.623 70.8844L235.004 71.8089ZM237.107 71.3943H252.636V70.3943H237.107V71.3943Z" fill="black"/>
<path d="M255.523 156.084L252.636 153.197L249.749 156.084L252.636 158.971L255.523 156.084ZM237.107 156.084L237.107 155.584L237.107 155.584L237.107 156.084ZM231.117 150.123L231.617 150.123V150.123H231.117ZM252.636 155.584H237.107V156.584H252.636V155.584ZM237.107 155.584C236.385 155.584 235.671 155.443 235.004 155.169L234.623 156.094C235.411 156.418 236.255 156.585 237.107 156.584L237.107 155.584ZM235.004 155.169C234.338 154.894 233.732 154.492 233.222 153.985L232.517 154.693C233.12 155.294 233.836 155.769 234.623 156.094L235.004 155.169ZM233.222 153.985C232.713 153.477 232.309 152.875 232.033 152.213L231.11 152.596C231.436 153.381 231.914 154.093 232.517 154.693L233.222 153.985ZM232.033 152.213C231.758 151.55 231.616 150.84 231.617 150.123L230.617 150.122C230.616 150.971 230.784 151.812 231.11 152.596L232.033 152.213ZM231.617 150.123V131.806H230.617V150.123H231.617Z" fill="black"/>
<path d="M315.601 128.919L312.715 131.806L315.601 134.693L318.488 131.806L315.601 128.919ZM315.601 150.123L315.101 150.123L315.101 150.123L315.601 150.123ZM313.847 154.338L313.495 153.983L313.494 153.984L313.847 154.338ZM309.611 156.084L309.612 155.584H309.611V156.084ZM315.101 131.806V150.123H316.101V131.806H315.101ZM315.101 150.123C315.102 150.84 314.961 151.55 314.685 152.212L315.609 152.596C315.935 151.812 316.102 150.971 316.101 150.122L315.101 150.123ZM314.685 152.212C314.41 152.875 314.005 153.476 313.495 153.983L314.2 154.693C314.803 154.093 315.282 153.381 315.609 152.596L314.685 152.212ZM313.494 153.984C312.985 154.492 312.38 154.895 311.714 155.169L312.095 156.094C312.883 155.769 313.598 155.293 314.201 154.692L313.494 153.984ZM311.714 155.169C311.048 155.444 310.333 155.585 309.612 155.584L309.61 156.584C310.463 156.585 311.307 156.419 312.095 156.094L311.714 155.169ZM309.611 155.584H294.082V156.584H309.611V155.584Z" fill="black"/>
<path d="M309.611 70.8943L309.611 71.3943L309.611 71.3943L309.611 70.8943ZM315.601 76.8557L315.101 76.8553V76.8557H315.601ZM315.601 98.0589L318.488 95.1722L315.601 92.2854L312.715 95.1722L315.601 98.0589ZM294.082 71.3943H309.611V70.3943H294.082V71.3943ZM309.611 71.3943C310.333 71.3938 311.047 71.5348 311.714 71.8093L312.095 70.8846C311.307 70.5603 310.463 70.3937 309.611 70.3943L309.611 71.3943ZM311.714 71.8093C312.38 72.0838 312.986 72.4863 313.496 72.9936L314.201 72.2848C313.598 71.6847 312.882 71.209 312.095 70.8846L311.714 71.8093ZM313.496 72.9936C314.005 73.5009 314.41 74.1032 314.685 74.7658L315.608 74.3819C315.282 73.5975 314.804 72.8849 314.201 72.2848L313.496 72.9936ZM314.685 74.7658C314.961 75.4284 315.102 76.1384 315.101 76.8553L316.101 76.8562C316.102 76.0071 315.935 75.1663 315.608 74.3819L314.685 74.7658ZM315.101 76.8557V95.1722H316.101V76.8557H315.101Z" fill="black"/>
<path opacity="0.5" d="M262.25 109.06C266.593 109.06 270.114 105.557 270.114 101.235C270.114 96.9138 266.593 93.4104 262.25 93.4104C257.907 93.4104 254.386 96.9138 254.386 101.235C254.386 105.557 257.907 109.06 262.25 109.06Z" fill="white"/>
<path d="M283.092 100.255C284.05 100.255 284.826 99.4824 284.826 98.5295C284.826 97.5766 284.05 96.8041 283.092 96.8041C282.134 96.8041 281.358 97.5766 281.358 98.5295C281.358 99.4824 282.134 100.255 283.092 100.255Z" fill="white"/>
<path d="M274.844 113.797C276.569 113.797 277.968 112.405 277.968 110.688C277.968 108.971 276.569 107.579 274.844 107.579C273.118 107.579 271.719 108.971 271.719 110.688C271.719 112.405 273.118 113.797 274.844 113.797Z" fill="white"/>
<path d="M268.538 61.4644L269.038 61.4644L269.038 61.4643L268.538 61.4644ZM273.277 56.7484L273.277 57.2484H273.277V56.7484ZM280.742 56.7484L277.855 53.8617L274.969 56.7484L277.855 59.6352L280.742 56.7484ZM269.038 80.3158V61.4644H268.038V80.3158H269.038ZM269.038 61.4643C269.038 60.911 269.147 60.3631 269.36 59.8518L268.437 59.4677C268.173 60.1007 268.038 60.7792 268.038 61.4645L269.038 61.4643ZM269.36 59.8518C269.573 59.3405 269.885 58.8758 270.278 58.4842L269.573 57.7754C269.086 58.2596 268.7 58.8346 268.437 59.4677L269.36 59.8518ZM270.278 58.4842C270.672 58.0925 271.139 57.7818 271.653 57.5697L271.272 56.6451C270.637 56.9071 270.059 57.2911 269.573 57.7754L270.278 58.4842ZM271.653 57.5697C272.168 57.3576 272.72 57.2484 273.277 57.2484L273.277 56.2484C272.589 56.2484 271.908 56.3832 271.272 56.6451L271.653 57.5697ZM273.277 57.2484H277.855V56.2484H273.277V57.2484Z" fill="white"/>
<path d="M279.94 57.2379C280.212 56.0888 279.497 54.9374 278.342 54.6662C277.187 54.395 276.03 55.1067 275.757 56.2558C275.485 57.4049 276.2 58.5562 277.355 58.8274C278.51 59.0986 279.667 58.387 279.94 57.2379Z" fill="white"/>
<path d="M262.118 166.749L265.004 163.862L262.118 160.975L259.231 163.862L262.118 166.749ZM261.618 143.944V163.862H262.618V143.944H261.618Z" fill="white"/>
<path d="M263.6 164.953C264.439 164.118 264.439 162.765 263.6 161.93C262.761 161.095 261.4 161.095 260.561 161.93C259.722 162.765 259.722 164.118 260.561 164.953C261.4 165.788 262.761 165.788 263.6 164.953Z" fill="white"/>
<path d="M268.649 160.948L271.535 158.061L268.649 155.174L265.762 158.061L268.649 160.948ZM268.149 143.3V158.061H269.149V143.3H268.149Z" fill="white"/>
<path d="M270.65 158.545C270.923 157.396 270.207 156.245 269.052 155.973C267.898 155.702 266.74 156.414 266.468 157.563C266.195 158.712 266.911 159.863 268.065 160.134C269.22 160.406 270.377 159.694 270.65 158.545Z" fill="white"/>
<path d="M281.835 159.274L281.335 159.274L281.335 159.274L281.835 159.274ZM286.575 163.989L286.575 163.489H286.575L286.575 163.989ZM294.491 163.989L291.605 161.102L288.718 163.989L291.605 166.876L294.491 163.989ZM281.335 141.655V159.274H282.335V141.655H281.335ZM281.335 159.274C281.335 160.658 281.888 161.985 282.871 162.962L283.576 162.254C282.782 161.463 282.335 160.391 282.335 159.274L281.335 159.274ZM282.871 162.962C283.854 163.94 285.186 164.489 286.575 164.489L286.575 163.489C285.45 163.489 284.371 163.044 283.576 162.254L282.871 162.962ZM286.575 164.489H291.605V163.489H286.575V164.489Z" fill="white"/>
<path d="M292.563 166C293.75 166 294.711 165.043 294.711 163.862C294.711 162.682 293.75 161.724 292.563 161.724C291.376 161.724 290.414 162.682 290.414 163.862C290.414 165.043 291.376 166 292.563 166Z" fill="white"/>
<path d="M263.121 83.2015L266.008 80.3148L263.121 77.428L260.234 80.3148L263.121 83.2015ZM263.621 80.3148V50.1378H262.621V80.3148H263.621Z" fill="white"/>
<path d="M263.068 52.2755C264.254 52.2755 265.216 51.3184 265.216 50.1378C265.216 48.9571 264.254 48 263.068 48C261.881 48 260.919 48.9571 260.919 50.1378C260.919 51.3184 261.881 52.2755 263.068 52.2755Z" fill="white"/>
</g>
<path d="M143.852 241.063H61.9993C61.9042 241.063 61.81 241.044 61.7222 241.007C61.6343 240.97 61.5544 240.915 61.4872 240.847C61.42 240.778 61.3667 240.696 61.3304 240.607C61.2941 240.517 61.2755 240.421 61.2756 240.324V156.755C61.2717 156.655 61.2875 156.556 61.3221 156.463C61.3567 156.37 61.4093 156.285 61.4768 156.213C61.5444 156.141 61.6254 156.084 61.7151 156.045C61.8048 156.006 61.9012 155.986 61.9987 155.986C62.0962 155.986 62.1926 156.006 62.2823 156.045C62.372 156.084 62.453 156.141 62.5205 156.213C62.5881 156.285 62.6407 156.37 62.6753 156.463C62.7099 156.556 62.7257 156.655 62.7218 156.755V239.587H143.852C144.039 239.595 144.215 239.676 144.345 239.814C144.474 239.951 144.547 240.135 144.547 240.326C144.547 240.516 144.474 240.7 144.345 240.837C144.215 240.975 144.039 241.056 143.852 241.064V241.063Z" fill="white"/>
<path d="M69.6046 157.492H53.7225C53.5957 157.492 53.4711 157.458 53.3614 157.393C53.2517 157.328 53.1605 157.235 53.0972 157.123C53.0338 157.011 53.0004 156.883 53.0002 156.754C53.0001 156.625 53.0333 156.497 53.0965 156.385L61.037 142.342C61.2953 141.886 62.0317 141.886 62.29 142.342L70.2305 156.385C70.2937 156.497 70.3269 156.625 70.3268 156.754C70.3267 156.883 70.2933 157.011 70.2299 157.123C70.1665 157.235 70.0754 157.328 69.9656 157.393C69.8559 157.458 69.7314 157.492 69.6046 157.492ZM54.9755 156.011H68.3551L61.6664 144.183L54.9755 156.011Z" fill="white"/>
<path d="M144.522 249C144.395 249.001 144.27 248.967 144.16 248.901C144.05 248.837 143.959 248.743 143.896 248.631C143.832 248.519 143.799 248.392 143.798 248.262V232.047C143.799 231.917 143.832 231.79 143.896 231.678C143.959 231.566 144.051 231.473 144.16 231.408C144.27 231.344 144.395 231.309 144.522 231.309C144.648 231.309 144.773 231.343 144.883 231.408L158.638 239.518C158.748 239.584 158.839 239.677 158.902 239.789C158.965 239.901 158.999 240.029 158.999 240.158C158.999 240.288 158.965 240.415 158.902 240.527C158.839 240.639 158.748 240.733 158.638 240.798L144.884 248.903C144.774 248.967 144.649 249.001 144.522 249ZM145.245 233.32V246.981L156.829 240.15L145.245 233.32Z" fill="white"/>
<path d="M81.4554 177.937H74.0757C73.9807 177.937 73.8866 177.956 73.7989 177.993C73.7111 178.03 73.6313 178.084 73.5641 178.152C73.4968 178.221 73.4435 178.302 73.4072 178.392C73.3708 178.481 73.3521 178.577 73.3521 178.674V231.416C73.3521 231.513 73.3708 231.609 73.4072 231.699C73.4435 231.788 73.4968 231.869 73.5641 231.938C73.6313 232.007 73.7111 232.061 73.7989 232.098C73.8866 232.135 73.9807 232.154 74.0757 232.154H81.4554C81.5504 232.154 81.6445 232.135 81.7323 232.098C81.8201 232.061 81.8998 232.007 81.9671 231.938C82.0343 231.869 82.0876 231.788 82.124 231.699C82.1603 231.609 82.1791 231.513 82.1791 231.416V178.674C82.1791 178.577 82.1603 178.481 82.124 178.392C82.0876 178.302 82.0343 178.221 81.9671 178.152C81.8998 178.084 81.8201 178.03 81.7323 177.993C81.6445 177.956 81.5504 177.937 81.4554 177.937ZM80.7329 230.678H74.7994V179.412H80.7329V230.678Z" fill="white"/>
<path d="M80.7329 179.412H74.7982V230.683H80.7329V179.412Z" fill="white"/>
<path d="M94.2033 200.542H86.8225C86.6309 200.542 86.4471 200.62 86.3116 200.758C86.1761 200.896 86.1 201.084 86.1 201.28V231.421C86.1 231.616 86.1761 231.804 86.3116 231.942C86.4471 232.081 86.6309 232.158 86.8225 232.158H94.2033C94.2983 232.159 94.3923 232.14 94.48 232.103C94.5677 232.066 94.6474 232.011 94.7146 231.943C94.7817 231.874 94.8349 231.793 94.8711 231.703C94.9074 231.614 94.926 231.518 94.9258 231.421V201.28C94.926 201.183 94.9074 201.087 94.8711 200.997C94.8349 200.908 94.7817 200.826 94.7146 200.758C94.6474 200.689 94.5677 200.635 94.48 200.598C94.3923 200.561 94.2983 200.542 94.2033 200.542ZM93.4808 230.683H87.5473V202.019H93.4808V230.683Z" fill="white"/>
<path d="M93.4807 202.018H87.546V230.683H93.4807V202.018Z" fill="white"/>
<path d="M113.042 210.239V230.683H118.975V210.239H113.042ZM113.042 210.239V230.683H118.975V210.239H113.042Z" fill="white"/>
<path d="M119.698 208.762H112.318C112.126 208.762 111.943 208.84 111.807 208.978C111.672 209.116 111.596 209.304 111.596 209.5V231.421C111.596 231.616 111.672 231.804 111.807 231.942C111.943 232.081 112.126 232.158 112.318 232.158H119.698C119.793 232.158 119.887 232.14 119.975 232.103C120.062 232.065 120.142 232.011 120.209 231.943C120.277 231.874 120.33 231.793 120.366 231.703C120.403 231.614 120.421 231.518 120.421 231.421V209.5C120.421 209.403 120.403 209.307 120.366 209.217C120.33 209.127 120.277 209.046 120.209 208.978C120.142 208.909 120.062 208.855 119.975 208.818C119.887 208.781 119.793 208.762 119.698 208.762ZM118.975 230.683H113.042V210.238H118.975V230.683Z" fill="white"/>
<path d="M131.104 195.062H123.723C123.628 195.062 123.533 195.081 123.445 195.118C123.357 195.155 123.277 195.21 123.209 195.279C123.142 195.348 123.088 195.43 123.052 195.52C123.016 195.611 122.998 195.707 122.998 195.805V231.425C122.998 231.621 123.075 231.809 123.21 231.947C123.346 232.085 123.529 232.163 123.721 232.163H131.102C131.293 232.163 131.477 232.085 131.613 231.947C131.748 231.809 131.824 231.621 131.824 231.425V195.805C131.825 195.708 131.807 195.611 131.771 195.521C131.735 195.432 131.682 195.35 131.615 195.281C131.548 195.212 131.469 195.157 131.381 195.12C131.293 195.082 131.199 195.063 131.104 195.062ZM130.382 230.683H124.448V196.538H130.382V230.683Z" fill="white"/>
<path d="M130.382 196.538H124.447V230.683H130.382V196.538Z" fill="white"/>
<path d="M106.951 187.526H99.5714C99.4765 187.526 99.3824 187.545 99.2946 187.582C99.2068 187.619 99.127 187.673 99.0598 187.742C98.9926 187.811 98.9393 187.892 98.9029 187.981C98.8665 188.071 98.8478 188.167 98.8478 188.264V231.421C98.8478 231.518 98.8665 231.614 98.9029 231.703C98.9393 231.793 98.9926 231.874 99.0598 231.943C99.127 232.011 99.2068 232.065 99.2946 232.102C99.3824 232.139 99.4765 232.158 99.5714 232.158H106.951C107.143 232.158 107.327 232.081 107.462 231.942C107.598 231.804 107.674 231.616 107.674 231.421V188.264C107.674 188.068 107.598 187.881 107.462 187.742C107.327 187.604 107.143 187.526 106.951 187.526ZM106.228 230.683H100.294V189.003H106.228V230.683Z" fill="white"/>
<path d="M106.227 189.003H100.294V230.683H106.227V189.003Z" fill="white"/>
<path d="M78.1012 165.027C77.0294 165.027 75.9816 164.702 75.0904 164.094C74.1992 163.486 73.5046 162.622 73.0944 161.611C72.6842 160.6 72.5769 159.488 72.786 158.414C72.9951 157.341 73.5113 156.355 74.2692 155.581C75.0271 154.807 75.9927 154.281 77.0439 154.067C78.0952 153.854 79.1848 153.963 80.1751 154.382C81.1653 154.801 82.0117 155.51 82.6072 156.42C83.2027 157.33 83.5205 158.399 83.5205 159.494C83.519 160.961 82.9475 162.367 81.9315 163.405C80.9155 164.442 79.538 165.025 78.1012 165.027ZM78.1012 155.437C77.3151 155.437 76.5465 155.675 75.8927 156.121C75.239 156.566 74.7294 157.2 74.4285 157.942C74.1275 158.683 74.0487 159.499 74.202 160.286C74.3553 161.074 74.7339 161.797 75.2898 162.364C75.8457 162.932 76.5539 163.318 77.325 163.475C78.096 163.631 78.8952 163.551 79.6215 163.244C80.3477 162.936 80.9684 162.416 81.405 161.749C81.8416 161.081 82.0746 160.296 82.0744 159.494C82.0731 158.418 81.6541 157.387 80.9093 156.627C80.1644 155.866 79.1546 155.438 78.1012 155.437Z" fill="white"/>
<path d="M95.5413 182.838C94.4694 182.838 93.4217 182.513 92.5305 181.905C91.6393 181.297 90.9446 180.433 90.5345 179.422C90.1243 178.411 90.017 177.299 90.2261 176.225C90.4352 175.152 90.9513 174.166 91.7092 173.392C92.4671 172.619 93.4328 172.092 94.484 171.878C95.5352 171.665 96.6249 171.774 97.6152 172.193C98.6054 172.612 99.4518 173.321 100.047 174.231C100.643 175.141 100.961 176.21 100.961 177.305C100.959 178.772 100.387 180.178 99.3713 181.215C98.3553 182.253 96.978 182.836 95.5413 182.838ZM95.5413 173.247C94.7552 173.247 93.9867 173.485 93.3329 173.93C92.6792 174.376 92.1696 175.01 91.8686 175.751C91.5677 176.493 91.4888 177.309 91.642 178.096C91.7952 178.883 92.1737 179.606 92.7294 180.174C93.2852 180.741 93.9934 181.128 94.7643 181.285C95.5353 181.441 96.3345 181.361 97.0607 181.054C97.787 180.747 98.4078 180.227 98.8446 179.559C99.2813 178.892 99.5144 178.107 99.5144 177.305C99.5132 176.229 99.0942 175.198 98.3494 174.437C97.6046 173.677 96.5947 173.249 95.5413 173.247Z" fill="white"/>
<path d="M112.993 170.503C111.921 170.503 110.873 170.178 109.982 169.57C109.091 168.963 108.396 168.098 107.986 167.087C107.576 166.076 107.469 164.964 107.678 163.89C107.887 162.817 108.403 161.831 109.161 161.057C109.919 160.284 110.884 159.757 111.936 159.543C112.987 159.33 114.076 159.439 115.067 159.858C116.057 160.277 116.903 160.986 117.499 161.896C118.094 162.806 118.412 163.876 118.412 164.97C118.411 166.437 117.839 167.843 116.823 168.881C115.807 169.918 114.43 170.501 112.993 170.503ZM112.993 160.913C112.207 160.913 111.439 161.151 110.785 161.597C110.132 162.043 109.623 162.676 109.322 163.417C109.021 164.159 108.943 164.974 109.096 165.761C109.249 166.548 109.628 167.271 110.183 167.838C110.739 168.406 111.447 168.792 112.218 168.949C112.988 169.105 113.787 169.025 114.513 168.718C115.239 168.411 115.86 167.891 116.296 167.224C116.733 166.556 116.966 165.772 116.966 164.97C116.964 163.895 116.544 162.865 115.8 162.106C115.055 161.346 114.045 160.919 112.993 160.918V160.913Z" fill="white"/>
<path d="M91.5203 175.302C91.4253 175.302 91.3311 175.283 91.2432 175.246C91.1554 175.209 91.0756 175.155 91.0084 175.086L80.2734 164.127C80.2019 164.059 80.1446 163.977 80.1048 163.887C80.065 163.796 80.0435 163.698 80.0416 163.599C80.0398 163.499 80.0576 163.401 80.094 163.308C80.1304 163.216 80.1846 163.132 80.2534 163.062C80.3223 162.992 80.4043 162.936 80.4946 162.899C80.5849 162.862 80.6816 162.844 80.779 162.846C80.8763 162.848 80.9723 162.87 81.0611 162.91C81.15 162.951 81.2299 163.01 81.296 163.082L92.0311 174.043C92.1321 174.146 92.2009 174.278 92.2287 174.421C92.2566 174.564 92.2422 174.712 92.1876 174.847C92.1329 174.981 92.0404 175.097 91.9216 175.178C91.8028 175.259 91.6632 175.302 91.5203 175.302Z" fill="white"/>
<path d="M99.5714 175.302C99.4181 175.302 99.2687 175.253 99.1448 175.161C99.0209 175.068 98.929 174.938 98.8822 174.789C98.8354 174.64 98.8363 174.48 98.8847 174.331C98.9331 174.183 99.0265 174.054 99.1514 173.963L108.544 167.114C108.7 167 108.894 166.954 109.083 166.987C109.272 167.019 109.441 167.126 109.552 167.286C109.663 167.445 109.708 167.643 109.677 167.836C109.645 168.029 109.54 168.201 109.384 168.315L99.9914 175.165C99.8689 175.255 99.722 175.302 99.5714 175.302Z" fill="white"/>
<path d="M177.77 357.866H155.72L155.711 357.863L142.866 353.519H129.846V353.302H142.882L155.736 357.65H177.77V357.866Z" fill="#68326F"/>
<path d="M128.705 354.443C128.479 354.443 128.259 354.376 128.071 354.251C127.884 354.126 127.737 353.947 127.651 353.739C127.565 353.53 127.542 353.301 127.586 353.08C127.63 352.858 127.739 352.655 127.898 352.495C128.058 352.336 128.261 352.227 128.483 352.183C128.704 352.139 128.933 352.162 129.142 352.248C129.35 352.334 129.529 352.481 129.654 352.668C129.779 352.856 129.846 353.077 129.846 353.302C129.846 353.605 129.726 353.895 129.512 354.109C129.298 354.323 129.008 354.443 128.705 354.443ZM128.705 352.327C128.512 352.327 128.323 352.384 128.163 352.491C128.002 352.599 127.877 352.751 127.803 352.929C127.729 353.108 127.71 353.304 127.748 353.494C127.785 353.683 127.878 353.857 128.015 353.993C128.151 354.13 128.325 354.223 128.515 354.261C128.704 354.298 128.9 354.279 129.079 354.205C129.257 354.131 129.41 354.006 129.517 353.845C129.624 353.685 129.681 353.496 129.681 353.303C129.681 353.044 129.578 352.796 129.395 352.613C129.212 352.429 128.964 352.326 128.705 352.326V352.327Z" fill="#05A7B1"/>
<path d="M132.207 380.687L132.128 380.507L138.008 375.031H138.029L153.399 374.982H175.488V375.197H153.399L138.051 375.245L132.207 380.687Z" fill="#68326F"/>
<path d="M131.558 382.97C131.445 382.97 131.335 382.869 131.241 382.681C131.147 382.493 131.074 382.226 131.031 381.913C130.988 381.6 130.976 381.256 130.998 380.924C131.02 380.592 131.075 380.287 131.154 380.048C131.234 379.808 131.336 379.645 131.447 379.579C131.557 379.513 131.672 379.547 131.776 379.677C131.88 379.806 131.97 380.026 132.032 380.307C132.095 380.589 132.128 380.92 132.128 381.258C132.128 381.712 132.068 382.147 131.961 382.468C131.854 382.789 131.709 382.969 131.558 382.97ZM131.558 379.795C131.461 379.795 131.367 379.881 131.287 380.042C131.206 380.202 131.144 380.431 131.107 380.699C131.07 380.966 131.06 381.261 131.079 381.545C131.098 381.829 131.144 382.09 131.213 382.295C131.281 382.499 131.368 382.639 131.463 382.695C131.557 382.752 131.655 382.723 131.745 382.612C131.834 382.501 131.91 382.314 131.964 382.073C132.017 381.832 132.046 381.549 132.046 381.259C132.046 380.871 131.995 380.498 131.903 380.223C131.811 379.948 131.687 379.794 131.558 379.794V379.795Z" fill="#05A7B1"/>
<path d="M153.942 397.803H141.257V397.59H153.88L157.691 392.098H180.053V392.312H157.753L153.942 397.803Z" fill="#68326F"/>
<path d="M140.686 398.944C140.573 398.944 140.463 398.877 140.369 398.752C140.275 398.627 140.202 398.448 140.159 398.24C140.116 398.031 140.105 397.802 140.127 397.581C140.149 397.359 140.203 397.156 140.283 396.996C140.363 396.837 140.464 396.728 140.575 396.684C140.686 396.64 140.8 396.663 140.905 396.749C141.009 396.835 141.098 396.982 141.161 397.169C141.223 397.357 141.257 397.578 141.257 397.803C141.257 398.106 141.196 398.396 141.09 398.61C140.983 398.824 140.838 398.944 140.686 398.944ZM140.686 396.828C140.59 396.828 140.495 396.885 140.415 396.992C140.335 397.099 140.272 397.252 140.235 397.43C140.198 397.609 140.188 397.805 140.207 397.994C140.226 398.184 140.273 398.358 140.341 398.494C140.409 398.631 140.496 398.724 140.591 398.762C140.686 398.799 140.784 398.78 140.873 398.706C140.962 398.632 141.038 398.507 141.092 398.346C141.146 398.185 141.174 397.996 141.174 397.803C141.174 397.544 141.123 397.296 141.031 397.113C140.94 396.93 140.816 396.827 140.686 396.827V396.828Z" fill="#05A7B1"/>
<path d="M140.116 368.136C139.89 368.136 139.669 368.036 139.482 367.847C139.294 367.659 139.148 367.392 139.062 367.079C138.975 366.767 138.953 366.422 138.997 366.09C139.041 365.758 139.149 365.453 139.309 365.214C139.469 364.975 139.672 364.812 139.893 364.746C140.115 364.68 140.344 364.714 140.552 364.843C140.761 364.973 140.939 365.192 141.065 365.473C141.19 365.755 141.257 366.086 141.257 366.424C141.257 366.878 141.136 367.313 140.922 367.634C140.708 367.955 140.418 368.135 140.116 368.136ZM140.116 364.961C139.923 364.961 139.734 365.047 139.573 365.208C139.412 365.369 139.287 365.597 139.213 365.865C139.139 366.133 139.12 366.428 139.158 366.712C139.195 366.996 139.288 367.257 139.425 367.462C139.561 367.667 139.735 367.806 139.925 367.863C140.114 367.919 140.311 367.89 140.489 367.779C140.668 367.668 140.82 367.481 140.928 367.24C141.035 366.999 141.092 366.715 141.092 366.426C141.092 366.037 140.989 365.665 140.806 365.39C140.623 365.115 140.375 364.96 140.116 364.96V364.961Z" fill="#05A7B1"/>
<path d="M130.483 397.803H125.282V397.594H130.422L137.175 387.881H154.125L156.746 384.111H176.629V384.32H156.807L154.185 388.09H137.236L130.483 397.803Z" fill="#68326F"/>
<path d="M124.141 398.944C123.915 398.944 123.695 398.844 123.507 398.656C123.319 398.468 123.173 398.2 123.087 397.888C123 397.575 122.978 397.231 123.022 396.899C123.066 396.567 123.175 396.262 123.334 396.022C123.494 395.783 123.697 395.62 123.918 395.554C124.14 395.488 124.369 395.522 124.578 395.651C124.786 395.781 124.964 396 125.09 396.282C125.215 396.563 125.282 396.894 125.282 397.233C125.282 397.686 125.161 398.121 124.947 398.442C124.734 398.763 124.444 398.944 124.141 398.944ZM124.141 395.769C123.948 395.769 123.759 395.855 123.598 396.016C123.438 396.177 123.313 396.406 123.239 396.674C123.165 396.942 123.145 397.236 123.183 397.52C123.221 397.805 123.314 398.066 123.451 398.27C123.587 398.475 123.761 398.615 123.951 398.671C124.14 398.728 124.337 398.699 124.515 398.588C124.694 398.477 124.846 398.289 124.953 398.048C125.061 397.807 125.118 397.524 125.118 397.234C125.118 396.845 125.015 396.473 124.832 396.198C124.648 395.923 124.4 395.769 124.141 395.768V395.769Z" fill="#05A7B1"/>
<path d="M175.251 356.148H165.991C165.641 356.148 165.358 356.431 165.358 356.779V357.849C165.358 358.198 165.641 358.48 165.991 358.48H175.251C175.6 358.48 175.883 358.198 175.883 357.849V356.779C175.883 356.431 175.6 356.148 175.251 356.148Z" fill="#05A7B1"/>
<path d="M175.251 364.954H165.991C165.641 364.954 165.358 365.236 165.358 365.585V366.655C165.358 367.003 165.641 367.286 165.991 367.286H175.251C175.6 367.286 175.883 367.003 175.883 366.655V365.585C175.883 365.236 175.6 364.954 175.251 364.954Z" fill="#05A7B1"/>
<path d="M175.251 373.76H165.991C165.641 373.76 165.358 374.042 165.358 374.391V375.461C165.358 375.81 165.641 376.092 165.991 376.092H175.251C175.6 376.092 175.883 375.81 175.883 375.461V374.391C175.883 374.042 175.6 373.76 175.251 373.76Z" fill="#05A7B1"/>
<path d="M175.251 382.566H165.991C165.641 382.566 165.358 382.848 165.358 383.196V384.267C165.358 384.615 165.641 384.897 165.991 384.897H175.251C175.6 384.897 175.883 384.615 175.883 384.267V383.196C175.883 382.848 175.6 382.566 175.251 382.566Z" fill="#05A7B1"/>
<path d="M175.251 391.372H165.991C165.641 391.372 165.358 391.654 165.358 392.003V393.073C165.358 393.421 165.641 393.704 165.991 393.704H175.251C175.6 393.704 175.883 393.421 175.883 393.073V392.003C175.883 391.654 175.6 391.372 175.251 391.372Z" fill="#05A7B1"/>
<path d="M270.195 397.803H258.091L246.155 393.456H225.694V393.239H246.17L258.106 397.587H270.195V397.803Z" fill="#68326F"/>
<path d="M270.766 398.944C270.653 398.944 270.543 398.877 270.449 398.752C270.355 398.627 270.282 398.448 270.239 398.24C270.196 398.031 270.184 397.802 270.206 397.581C270.228 397.359 270.283 397.156 270.362 396.996C270.442 396.837 270.544 396.728 270.655 396.684C270.765 396.64 270.88 396.663 270.984 396.749C271.088 396.835 271.178 396.982 271.24 397.169C271.303 397.357 271.336 397.578 271.336 397.803C271.336 398.106 271.276 398.396 271.169 398.61C271.062 398.824 270.917 398.944 270.766 398.944ZM270.766 396.828C270.669 396.828 270.575 396.885 270.495 396.992C270.414 397.1 270.352 397.252 270.315 397.43C270.278 397.609 270.268 397.805 270.287 397.994C270.306 398.184 270.352 398.358 270.421 398.494C270.489 398.631 270.576 398.724 270.671 398.761C270.765 398.799 270.863 398.78 270.953 398.706C271.042 398.632 271.118 398.507 271.172 398.346C271.225 398.186 271.254 397.997 271.254 397.804C271.254 397.545 271.203 397.297 271.111 397.113C271.019 396.93 270.895 396.827 270.766 396.827V396.828Z" fill="#05A7B1"/>
<path d="M248.322 376.123H227.976V375.909H248.322L262.458 375.861L267.841 370.418L267.913 370.598L262.497 376.075H262.478L248.322 376.123Z" fill="#68326F"/>
<path d="M267.913 371.559C267.687 371.559 267.467 371.459 267.279 371.271C267.091 371.083 266.945 370.815 266.859 370.502C266.772 370.19 266.75 369.846 266.794 369.514C266.838 369.182 266.947 368.877 267.106 368.637C267.266 368.398 267.469 368.235 267.69 368.169C267.912 368.103 268.141 368.137 268.35 368.266C268.558 368.396 268.736 368.615 268.862 368.897C268.987 369.178 269.054 369.509 269.054 369.848C269.054 370.301 268.933 370.736 268.72 371.057C268.506 371.378 268.216 371.559 267.913 371.559ZM267.913 368.384C267.72 368.384 267.531 368.47 267.371 368.631C267.21 368.792 267.085 369.021 267.011 369.289C266.938 369.556 266.918 369.851 266.956 370.135C266.994 370.419 267.087 370.68 267.223 370.884C267.36 371.089 267.534 371.228 267.723 371.285C267.912 371.341 268.109 371.312 268.287 371.201C268.465 371.091 268.618 370.903 268.725 370.662C268.832 370.421 268.89 370.138 268.89 369.849C268.89 369.46 268.787 369.088 268.604 368.813C268.42 368.538 268.172 368.383 267.913 368.383V368.384Z" fill="#05A7B1"/>
<path d="M243.8 359.008H223.412V358.794H243.744L247.219 353.302H258.785V353.516H247.275L243.8 359.008Z" fill="#68326F"/>
<path d="M259.926 354.443C259.7 354.443 259.479 354.376 259.292 354.251C259.104 354.126 258.958 353.947 258.872 353.739C258.785 353.53 258.763 353.301 258.807 353.08C258.851 352.858 258.959 352.655 259.119 352.495C259.278 352.336 259.482 352.227 259.703 352.183C259.924 352.139 260.154 352.162 260.362 352.248C260.571 352.334 260.749 352.481 260.874 352.668C261 352.856 261.067 353.077 261.067 353.302C261.066 353.605 260.946 353.895 260.732 354.109C260.518 354.323 260.228 354.443 259.926 354.443ZM259.926 352.327C259.733 352.327 259.544 352.384 259.383 352.492C259.223 352.599 259.098 352.751 259.024 352.93C258.95 353.108 258.931 353.304 258.969 353.494C259.006 353.683 259.099 353.857 259.236 353.994C259.372 354.13 259.546 354.223 259.736 354.261C259.925 354.298 260.121 354.279 260.3 354.205C260.478 354.131 260.631 354.006 260.738 353.845C260.845 353.685 260.902 353.496 260.902 353.303C260.902 353.044 260.799 352.796 260.616 352.612C260.433 352.429 260.185 352.326 259.926 352.326V352.327Z" fill="#05A7B1"/>
<path d="M259.926 386.393C259.7 386.393 259.48 386.326 259.292 386.201C259.104 386.075 258.958 385.897 258.872 385.689C258.785 385.48 258.763 385.251 258.807 385.029C258.851 384.808 258.959 384.605 259.119 384.445C259.278 384.285 259.482 384.177 259.703 384.133C259.924 384.088 260.154 384.111 260.362 384.197C260.571 384.284 260.749 384.43 260.874 384.618C261 384.805 261.067 385.026 261.067 385.252C261.066 385.554 260.946 385.844 260.732 386.058C260.518 386.272 260.229 386.392 259.926 386.393ZM259.926 384.277C259.733 384.277 259.544 384.334 259.384 384.441C259.223 384.549 259.098 384.701 259.024 384.88C258.95 385.058 258.931 385.254 258.969 385.444C259.006 385.633 259.099 385.807 259.236 385.944C259.372 386.08 259.546 386.173 259.736 386.211C259.925 386.248 260.122 386.229 260.3 386.155C260.478 386.081 260.631 385.956 260.738 385.795C260.845 385.635 260.902 385.446 260.902 385.253C260.902 384.994 260.8 384.745 260.617 384.562C260.433 384.379 260.185 384.276 259.926 384.276V384.277Z" fill="#05A7B1"/>
<path d="M244.951 366.995H226.835V366.785H244.896L247.285 363.015H262.728L268.88 353.302H273.618V353.512H268.935L262.782 363.224H247.339L244.951 366.995Z" fill="#68326F"/>
<path d="M274.76 355.584C274.534 355.585 274.313 355.484 274.126 355.296C273.938 355.108 273.792 354.841 273.705 354.528C273.619 354.215 273.596 353.871 273.64 353.539C273.684 353.207 273.793 352.902 273.952 352.663C274.112 352.423 274.315 352.26 274.537 352.194C274.758 352.128 274.987 352.162 275.196 352.291C275.405 352.421 275.583 352.64 275.708 352.922C275.834 353.203 275.901 353.534 275.901 353.873C275.9 354.327 275.78 354.762 275.566 355.082C275.352 355.403 275.062 355.584 274.76 355.584ZM274.76 352.411C274.567 352.411 274.378 352.496 274.217 352.657C274.057 352.818 273.931 353.047 273.858 353.314C273.784 353.582 273.764 353.877 273.802 354.161C273.84 354.445 273.933 354.706 274.069 354.911C274.206 355.115 274.38 355.255 274.569 355.311C274.758 355.368 274.955 355.339 275.133 355.228C275.312 355.117 275.464 354.929 275.571 354.688C275.679 354.447 275.736 354.164 275.736 353.875C275.736 353.486 275.633 353.114 275.45 352.839C275.267 352.564 275.019 352.409 274.76 352.409V352.411Z" fill="#05A7B1"/>
<path d="M228.215 395.122H237.475C237.824 395.122 238.107 394.839 238.107 394.491V393.421C238.107 393.072 237.824 392.79 237.475 392.79H228.215C227.865 392.79 227.582 393.072 227.582 393.421V394.491C227.582 394.839 227.865 395.122 228.215 395.122Z" fill="#05A7B1"/>
<path d="M228.215 386.316H237.475C237.824 386.316 238.107 386.033 238.107 385.685V384.615C238.107 384.266 237.824 383.984 237.475 383.984H228.215C227.865 383.984 227.582 384.266 227.582 384.615V385.685C227.582 386.033 227.865 386.316 228.215 386.316Z" fill="#05A7B1"/>
<path d="M228.215 377.51H237.475C237.824 377.51 238.107 377.228 238.107 376.879V375.808C238.107 375.46 237.824 375.178 237.475 375.178H228.215C227.865 375.178 227.582 375.46 227.582 375.808V376.879C227.582 377.228 227.865 377.51 228.215 377.51Z" fill="#05A7B1"/>
<path d="M228.215 368.704H237.475C237.824 368.704 238.107 368.422 238.107 368.074V367.003C238.107 366.655 237.824 366.372 237.475 366.372H228.215C227.865 366.372 227.582 366.655 227.582 367.003V368.074C227.582 368.422 227.865 368.704 228.215 368.704Z" fill="#05A7B1"/>
<path d="M228.215 359.898H237.475C237.824 359.898 238.107 359.616 238.107 359.267V358.197C238.107 357.848 237.824 357.566 237.475 357.566H228.215C227.865 357.566 227.582 357.848 227.582 358.197V359.267C227.582 359.616 227.865 359.898 228.215 359.898Z" fill="#05A7B1"/>
<path d="M177.864 406.945H226.342C230.111 406.945 233.166 403.899 233.166 400.141V351.805C233.166 348.047 230.111 345 226.342 345H177.864C174.095 345 171.039 348.047 171.039 351.805V400.141C171.039 403.899 174.095 406.945 177.864 406.945Z" fill="#68326F"/>
<path d="M223.749 401.681H180.457C179.36 401.681 178.307 401.247 177.531 400.473C176.755 399.699 176.319 398.65 176.319 397.555V354.391C176.319 353.297 176.755 352.247 177.531 351.473C178.307 350.7 179.36 350.265 180.457 350.265H223.749C224.846 350.265 225.899 350.7 226.675 351.473C227.451 352.247 227.887 353.297 227.887 354.391V397.556C227.887 398.65 227.451 399.699 226.675 400.473C225.898 401.247 224.846 401.681 223.749 401.681Z" fill="white"/>
<path d="M182.639 398.078H221.567C223.061 398.078 224.273 396.87 224.273 395.381V356.566C224.273 355.076 223.061 353.868 221.567 353.868H182.639C181.145 353.868 179.933 355.076 179.933 356.566V395.381C179.933 396.87 181.145 398.078 182.639 398.078Z" fill="#68326F"/>
<path d="M216.061 388.2C215.974 388.2 215.888 388.182 215.808 388.147L210.458 385.696C210.326 385.635 210.182 385.604 210.036 385.604H195.523C195.274 385.604 195.034 385.505 194.858 385.329C194.681 385.153 194.582 384.914 194.582 384.665V373.568C194.582 373.319 194.681 373.081 194.858 372.904C195.034 372.728 195.274 372.629 195.523 372.629H218.447C218.697 372.629 218.936 372.728 219.113 372.904C219.29 373.08 219.389 373.319 219.389 373.568V384.665C219.389 384.914 219.29 385.153 219.113 385.329C218.936 385.505 218.697 385.604 218.447 385.604H216.691L216.686 387.578C216.685 387.743 216.619 387.901 216.502 388.018C216.385 388.135 216.227 388.2 216.061 388.2Z" fill="white"/>
<path d="M218.447 372.973C218.605 372.974 218.757 373.037 218.868 373.148C218.98 373.259 219.043 373.411 219.043 373.568V384.665C219.043 384.822 218.98 384.973 218.868 385.085C218.757 385.196 218.605 385.259 218.447 385.259H216.347L216.34 387.578C216.34 387.624 216.329 387.67 216.307 387.711C216.284 387.751 216.252 387.786 216.214 387.811C216.175 387.836 216.13 387.852 216.083 387.855C216.037 387.859 215.991 387.851 215.948 387.832L210.602 385.383C210.425 385.302 210.231 385.259 210.036 385.259H195.523C195.365 385.259 195.214 385.196 195.102 385.085C194.99 384.973 194.927 384.822 194.927 384.665V373.568C194.927 373.411 194.99 373.26 195.102 373.148C195.214 373.037 195.365 372.974 195.523 372.973H218.447ZM218.447 372.284H195.523C195.182 372.285 194.855 372.42 194.613 372.661C194.372 372.902 194.236 373.228 194.236 373.568V384.665C194.236 385.005 194.372 385.331 194.613 385.572C194.855 385.813 195.182 385.948 195.523 385.948H210.038C210.134 385.949 210.229 385.969 210.316 386.009L215.662 388.458H215.666H215.67C215.818 388.523 215.98 388.551 216.141 388.538C216.302 388.525 216.457 388.473 216.593 388.385C216.728 388.297 216.839 388.177 216.916 388.035C216.993 387.894 217.033 387.735 217.033 387.574L217.038 385.945H218.45C218.791 385.944 219.118 385.809 219.359 385.568C219.601 385.328 219.737 385.001 219.737 384.661V373.568C219.737 373.228 219.601 372.902 219.359 372.661C219.118 372.42 218.791 372.285 218.45 372.284H218.447Z" fill="#68326F"/>
<path d="M189.123 382.498C188.978 382.497 188.839 382.44 188.737 382.338C188.634 382.235 188.576 382.097 188.576 381.952L188.571 379.899H186.56C186.377 379.898 186.202 379.826 186.073 379.697C185.943 379.568 185.87 379.393 185.87 379.211V367.756C185.87 367.573 185.943 367.398 186.073 367.269C186.202 367.14 186.377 367.068 186.56 367.068H209.854C210.037 367.068 210.213 367.14 210.342 367.269C210.471 367.398 210.544 367.573 210.545 367.756V379.211C210.544 379.393 210.471 379.568 210.342 379.697C210.213 379.826 210.037 379.898 209.854 379.899H195.117C194.985 379.899 194.855 379.927 194.735 379.982L189.35 382.449C189.279 382.481 189.201 382.498 189.123 382.498Z" fill="#05A7B1"/>
<path d="M209.854 367.336C209.966 367.336 210.074 367.381 210.153 367.46C210.232 367.538 210.277 367.645 210.277 367.757V379.212C210.277 379.324 210.232 379.431 210.153 379.51C210.074 379.589 209.966 379.633 209.854 379.633H195.117C194.947 379.633 194.778 379.67 194.624 379.741L189.238 382.208C189.195 382.227 189.149 382.235 189.103 382.232C189.056 382.228 189.011 382.213 188.972 382.187C188.933 382.162 188.901 382.127 188.879 382.087C188.857 382.046 188.846 382 188.846 381.954L188.839 379.633H186.56C186.448 379.633 186.341 379.588 186.262 379.51C186.183 379.431 186.138 379.324 186.138 379.212V367.756C186.138 367.644 186.183 367.537 186.262 367.458C186.341 367.379 186.448 367.335 186.56 367.334H209.854M209.854 366.801H186.56C186.306 366.801 186.063 366.902 185.884 367.081C185.704 367.26 185.603 367.503 185.603 367.756V379.211C185.603 379.464 185.704 379.706 185.884 379.885C186.063 380.064 186.306 380.165 186.56 380.165H188.304L188.309 381.954C188.309 382.089 188.343 382.222 188.408 382.34C188.473 382.459 188.566 382.56 188.68 382.633C188.793 382.707 188.924 382.751 189.059 382.762C189.194 382.773 189.329 382.749 189.453 382.695H189.456H189.46L194.845 380.228C194.93 380.189 195.022 380.169 195.115 380.168H209.854C210.108 380.168 210.352 380.067 210.531 379.888C210.711 379.709 210.812 379.467 210.812 379.214V367.756C210.812 367.503 210.711 367.26 210.531 367.081C210.352 366.902 210.108 366.801 209.854 366.801Z" fill="white"/>
<path d="M192.716 375.477C193.714 375.477 194.522 374.67 194.522 373.675C194.522 372.681 193.714 371.874 192.716 371.874C191.718 371.874 190.909 372.681 190.909 373.675C190.909 374.67 191.718 375.477 192.716 375.477Z" fill="white"/>
<path d="M197.906 375.477C198.904 375.477 199.712 374.67 199.712 373.675C199.712 372.681 198.904 371.874 197.906 371.874C196.908 371.874 196.099 372.681 196.099 373.675C196.099 374.67 196.908 375.477 197.906 375.477Z" fill="white"/>
<path d="M203.097 375.477C204.094 375.477 204.903 374.67 204.903 373.675C204.903 372.681 204.094 371.874 203.097 371.874C202.099 371.874 201.29 372.681 201.29 373.675C201.29 374.67 202.099 375.477 203.097 375.477Z" fill="white"/>
<defs>
<clipPath id="clip0_661_1964">
<rect width="81" height="96" fill="white" transform="matrix(-1 0 0 1 427 228)"/>
</clipPath>
<clipPath id="clip1_661_1964">
<rect width="99" height="118" fill="white" transform="translate(224 48)"/>
</clipPath>
</defs>
</svg>
