<svg width="560" height="368" viewBox="0 0 560 368" fill="none" xmlns="http://www.w3.org/2000/svg">
<g clip-path="url(#clip0_653_1361)">
<path d="M279.423 284.344C334.941 284.344 379.948 239.419 379.948 184.001C379.948 128.583 334.941 83.658 279.423 83.658C223.905 83.658 178.899 128.583 178.899 184.001C178.899 239.419 223.905 284.344 279.423 284.344Z" fill="#DEC6E0"/>
<path d="M279.999 248.499C316.004 248.499 345.192 219.364 345.192 183.424C345.192 147.485 316.004 118.349 279.999 118.349C243.994 118.349 214.807 147.485 214.807 183.424C214.807 219.364 243.994 248.499 279.999 248.499Z" fill="#68326F"/>
<path d="M300.503 205.043C312.146 193.422 312.146 174.58 300.503 162.959C288.861 151.337 269.985 151.337 258.342 162.959C246.7 174.58 246.7 193.422 258.342 205.043C269.985 216.664 288.861 216.664 300.503 205.043Z" fill="#93479C"/>
<path d="M343.786 92.7596C343.786 92.4595 343.868 92.1651 344.025 91.9089C344.181 91.6528 344.406 91.445 344.674 91.3086C344.941 91.1722 345.242 91.1125 345.541 91.1362C345.841 91.1598 346.128 91.2659 346.371 91.4427C363.506 103.781 376.863 120.636 384.947 140.12C385.087 140.513 385.07 140.944 384.9 141.324C384.731 141.705 384.421 142.006 384.035 142.165C383.65 142.324 383.218 142.329 382.828 142.179C382.439 142.029 382.122 141.736 381.944 141.359C374.09 122.431 361.114 106.058 344.468 94.0733C344.258 93.9238 344.087 93.7268 343.969 93.4984C343.85 93.27 343.788 93.0168 343.786 92.7596Z" fill="#68326F"/>
<path d="M343.786 274.151C343.787 273.894 343.848 273.641 343.965 273.412C344.083 273.183 344.253 272.986 344.461 272.836C358.653 262.633 370.209 249.206 378.176 233.665C386.142 218.123 390.29 200.913 390.276 183.455C390.276 180.782 390.179 178.087 389.988 175.44C389.961 175.221 389.978 174.999 390.039 174.787C390.1 174.575 390.204 174.378 390.344 174.207C390.485 174.037 390.658 173.897 390.854 173.795C391.05 173.694 391.265 173.633 391.486 173.617C391.706 173.602 391.927 173.631 392.136 173.703C392.345 173.776 392.537 173.89 392.7 174.039C392.863 174.187 392.994 174.368 393.085 174.569C393.176 174.77 393.225 174.987 393.229 175.208C393.426 177.931 393.525 180.706 393.525 183.455C393.54 201.426 389.271 219.142 381.072 235.14C372.873 251.139 360.979 264.961 346.371 275.465C346.129 275.639 345.842 275.743 345.544 275.766C345.246 275.788 344.948 275.728 344.681 275.593C344.415 275.457 344.191 275.25 344.035 274.996C343.879 274.742 343.795 274.449 343.794 274.151H343.786Z" fill="#68326F"/>
<path d="M167.442 184.111C167.409 162.953 173.421 142.224 184.771 124.354C133.452 148.923 99.2621 184.111 99.2621 184.111C99.2621 184.111 133.453 219.308 184.773 243.868C173.422 225.999 167.41 205.27 167.442 184.111Z" fill="#F4EDF5"/>
<path d="M374.135 124.348C385.455 142.233 391.463 162.955 391.463 184.11C391.463 205.265 385.455 225.986 374.135 243.871C425.452 219.304 459.64 184.115 459.64 184.115C459.64 184.115 425.455 148.916 374.135 124.348Z" fill="#F4EDF5"/>
<path d="M172.608 220.677C172.611 220.295 172.747 219.927 172.995 219.636C173.242 219.345 173.584 219.151 173.961 219.086C174.337 219.022 174.725 219.092 175.055 219.284C175.385 219.477 175.636 219.779 175.766 220.138C182.749 239.872 195.219 257.212 211.717 270.129C211.895 270.257 212.045 270.419 212.158 270.607C212.271 270.794 212.346 271.003 212.376 271.219C212.407 271.436 212.393 271.657 212.336 271.868C212.279 272.079 212.18 272.277 212.044 272.449C211.909 272.621 211.74 272.764 211.547 272.869C211.355 272.974 211.144 273.04 210.925 273.061C210.707 273.083 210.487 273.06 210.278 272.995C210.069 272.929 209.875 272.822 209.708 272.68C192.725 259.383 179.887 241.533 172.698 221.217C172.637 221.044 172.607 220.861 172.608 220.677Z" fill="#68326F"/>
<path d="M166.309 179.821V179.767C167.425 144.933 184.204 113.028 212.332 92.2431C212.501 92.0952 212.699 91.9837 212.913 91.9159C213.127 91.848 213.353 91.8252 213.577 91.8489C213.8 91.8726 214.016 91.9422 214.212 92.0534C214.407 92.1647 214.577 92.3151 214.711 92.4951C214.845 92.6752 214.94 92.881 214.99 93.0996C215.041 93.3183 215.045 93.5449 215.004 93.7654C214.962 93.9858 214.875 94.1952 214.748 94.3804C214.621 94.5655 214.457 94.7225 214.266 94.8412C186.937 115.042 170.641 146.032 169.558 179.87C169.551 180.3 169.373 180.711 169.064 181.011C168.754 181.31 168.337 181.475 167.906 181.468C167.474 181.462 167.063 181.284 166.763 180.975C166.463 180.666 166.298 180.25 166.304 179.819L166.309 179.821Z" fill="#68326F"/>
<path d="M81.6605 131.972V8.98461C81.6605 8.50484 81.8514 8.04473 82.1912 7.70548C82.5311 7.36624 82.992 7.17566 83.4727 7.17566C83.9533 7.17566 84.4143 7.36624 84.7541 7.70548C85.094 8.04473 85.2849 8.50484 85.2849 8.98461V128.355H157.188C157.659 128.37 158.106 128.566 158.434 128.904C158.762 129.241 158.946 129.693 158.946 130.164C158.946 130.634 158.762 131.086 158.434 131.423C158.106 131.761 157.659 131.958 157.188 131.972H81.6605Z" fill="#68326F"/>
<path d="M55.52 154.046C55.52 153.566 55.7109 153.106 56.0507 152.767C56.3906 152.428 56.8515 152.237 57.3322 152.237H148.701C149.182 152.237 149.643 152.428 149.983 152.767C150.322 153.106 150.513 153.566 150.513 154.046C150.513 154.526 150.322 154.986 149.983 155.325C149.643 155.664 149.182 155.855 148.701 155.855H57.3322C56.8515 155.855 56.3906 155.664 56.0507 155.325C55.7109 154.986 55.52 154.526 55.52 154.046Z" fill="#68326F"/>
<path d="M12.544 183.234C12.5436 182.756 12.7332 182.297 13.0714 181.958C13.4096 181.619 13.8687 181.427 14.3481 181.425H142.835C143.316 181.425 143.777 181.616 144.116 181.955C144.456 182.294 144.647 182.755 144.647 183.234C144.647 183.714 144.456 184.174 144.116 184.513C143.777 184.853 143.316 185.043 142.835 185.043H14.3481C13.8687 185.042 13.4096 184.85 13.0714 184.511C12.7332 184.172 12.5436 183.713 12.544 183.234Z" fill="#68326F"/>
<path d="M55.52 208.444C55.52 207.965 55.7109 207.504 56.0507 207.165C56.3906 206.826 56.8515 206.635 57.3322 206.635H148.701C148.944 206.628 149.185 206.67 149.411 206.757C149.637 206.845 149.844 206.977 150.018 207.145C150.192 207.314 150.33 207.516 150.425 207.739C150.519 207.962 150.568 208.201 150.568 208.443C150.568 208.686 150.519 208.925 150.425 209.148C150.33 209.371 150.192 209.573 150.018 209.742C149.844 209.91 149.637 210.042 149.411 210.13C149.185 210.217 148.944 210.259 148.701 210.252H57.3322C57.0943 210.252 56.8586 210.205 56.6388 210.115C56.4189 210.024 56.2191 209.891 56.0508 209.723C55.8825 209.555 55.749 209.356 55.6579 209.136C55.5668 208.917 55.52 208.682 55.52 208.444Z" fill="#68326F"/>
<path d="M81.6605 357.926V227.42H157.195C157.675 227.42 158.136 227.611 158.476 227.95C158.816 228.289 159.007 228.749 159.007 229.229C159.007 229.709 158.816 230.169 158.476 230.508C158.136 230.848 157.675 231.038 157.195 231.038H85.2914V357.926C85.2914 358.406 85.1005 358.866 84.7606 359.205C84.4208 359.544 83.9598 359.735 83.4792 359.735C82.9986 359.735 82.5376 359.544 82.1977 359.205C81.8579 358.866 81.667 358.406 81.667 357.926H81.6605Z" fill="#68326F"/>
<path d="M81.6605 65.1529C81.6622 64.6742 81.8539 64.2158 82.1936 63.8779C82.5332 63.5401 82.9932 63.3504 83.4727 63.3504H151.703C151.945 63.3432 152.186 63.3846 152.413 63.4722C152.639 63.5598 152.845 63.6918 153.019 63.8604C153.193 64.029 153.331 64.2308 153.426 64.4538C153.52 64.6768 153.569 64.9164 153.569 65.1586C153.569 65.4007 153.52 65.6403 153.426 65.8633C153.331 66.0863 153.193 66.2881 153.019 66.4567C152.845 66.6253 152.639 66.7573 152.413 66.8449C152.186 66.9325 151.945 66.9739 151.703 66.9667H83.4727C83.2342 66.9669 82.9981 66.9201 82.7778 66.829C82.5575 66.7378 82.3574 66.6042 82.189 66.4356C82.0207 66.2671 81.8873 66.067 81.7966 65.8469C81.7059 65.6267 81.6596 65.3909 81.6605 65.1529Z" fill="#68326F"/>
<path d="M32.4817 115.128C32.4815 114.89 32.5282 114.655 32.619 114.436C32.7099 114.216 32.8433 114.017 33.0114 113.849C33.1796 113.681 33.3792 113.547 33.599 113.457C33.8188 113.366 34.0544 113.319 34.2923 113.319H83.4727C83.7151 113.312 83.9566 113.353 84.1827 113.441C84.4088 113.528 84.615 113.66 84.7891 113.829C84.9632 113.997 85.1015 114.199 85.196 114.422C85.2905 114.645 85.3392 114.885 85.3392 115.127C85.3392 115.369 85.2905 115.609 85.196 115.832C85.1015 116.055 84.9632 116.256 84.7891 116.425C84.615 116.594 84.4088 116.726 84.1827 116.813C83.9566 116.901 83.7151 116.942 83.4727 116.935H34.2923C33.8121 116.935 33.3515 116.745 33.012 116.406C32.6724 116.067 32.4817 115.607 32.4817 115.128Z" fill="#68326F"/>
<path d="M55.52 304.414V272.288H83.4727C83.9533 272.288 84.4143 272.479 84.7541 272.818C85.094 273.157 85.2849 273.618 85.2849 274.097C85.2849 274.577 85.094 275.037 84.7541 275.376C84.4143 275.716 83.9533 275.906 83.4727 275.906H59.1444V304.414C59.1444 304.894 58.9535 305.354 58.6136 305.693C58.2737 306.033 57.8128 306.223 57.3322 306.223C56.8515 306.223 56.3906 306.033 56.0507 305.693C55.7109 305.354 55.52 304.894 55.52 304.414Z" fill="#68326F"/>
<path d="M113.117 247.804C113.117 247.325 113.308 246.864 113.648 246.525C113.988 246.186 114.449 245.995 114.929 245.995H167.876C168.356 245.995 168.817 246.186 169.157 246.525C169.497 246.864 169.688 247.325 169.688 247.804C169.688 248.284 169.497 248.744 169.157 249.083C168.817 249.423 168.356 249.613 167.876 249.613H114.929C114.449 249.613 113.988 249.423 113.648 249.083C113.308 248.744 113.117 248.284 113.117 247.804Z" fill="#68326F"/>
<path d="M57.3322 310.439C60.6663 310.439 63.3691 307.741 63.3691 304.412C63.3691 301.084 60.6663 298.386 57.3322 298.386C53.9981 298.386 51.2952 301.084 51.2952 304.412C51.2952 307.741 53.9981 310.439 57.3322 310.439Z" fill="white"/>
<path d="M49.4863 304.414C49.4863 302.865 49.9466 301.35 50.8091 300.061C51.6716 298.773 52.8974 297.769 54.3317 297.176C55.7659 296.583 57.3441 296.427 58.8667 296.73C60.3893 297.032 61.7879 297.778 62.8856 298.874C63.9833 299.97 64.7309 301.366 65.0338 302.886C65.3366 304.406 65.1812 305.981 64.5871 307.413C63.993 308.844 62.987 310.068 61.6962 310.929C60.4054 311.79 58.8878 312.249 57.3354 312.249C55.2545 312.247 53.2595 311.42 51.7881 309.952C50.3166 308.483 49.4888 306.491 49.4863 304.414ZM61.5618 304.414C61.5618 303.579 61.3137 302.763 60.8489 302.069C60.3842 301.374 59.7236 300.833 58.9508 300.514C58.1779 300.194 57.3275 300.11 56.507 300.273C55.6866 300.436 54.9329 300.838 54.3414 301.429C53.7499 302.019 53.347 302.772 53.1838 303.591C53.0206 304.41 53.1044 305.258 53.4245 306.03C53.7447 306.801 54.2868 307.461 54.9823 307.925C55.6779 308.389 56.4956 308.636 57.3322 308.636C58.4534 308.635 59.5283 308.19 60.3208 307.398C61.1133 306.607 61.5585 305.533 61.5585 304.414H61.5618Z" fill="#68326F"/>
<path d="M119.199 252.065C121.557 249.711 121.557 245.896 119.199 243.542C116.842 241.189 113.019 241.189 110.662 243.542C108.304 245.896 108.304 249.711 110.662 252.064C113.019 254.418 116.842 254.418 119.199 252.065Z" fill="white"/>
<path d="M107.074 247.804C107.074 246.255 107.534 244.74 108.397 243.451C109.259 242.163 110.485 241.159 111.919 240.566C113.354 239.973 114.932 239.817 116.454 240.12C117.977 240.422 119.375 241.168 120.473 242.264C121.571 243.36 122.318 244.756 122.621 246.276C122.924 247.796 122.769 249.371 122.175 250.803C121.581 252.234 120.575 253.458 119.284 254.319C117.993 255.18 116.475 255.639 114.923 255.639C112.842 255.637 110.847 254.811 109.375 253.342C107.904 251.873 107.076 249.881 107.074 247.804ZM119.149 247.804C119.149 246.969 118.901 246.153 118.437 245.459C117.972 244.764 117.311 244.223 116.538 243.904C115.765 243.584 114.915 243.5 114.095 243.663C113.274 243.826 112.52 244.228 111.929 244.819C111.337 245.409 110.935 246.162 110.771 246.981C110.608 247.8 110.692 248.648 111.012 249.42C111.332 250.191 111.874 250.851 112.57 251.315C113.265 251.779 114.083 252.026 114.92 252.026C115.476 252.027 116.026 251.918 116.54 251.707C117.054 251.495 117.521 251.184 117.915 250.792C118.308 250.4 118.62 249.934 118.833 249.421C119.046 248.909 119.156 248.359 119.156 247.804H119.149Z" fill="#68326F"/>
<path d="M84.8397 366.041C88.0847 365.276 90.0944 362.031 89.3285 358.791C88.5626 355.552 85.3112 353.546 82.0662 354.311C78.8213 355.075 76.8116 358.321 77.5775 361.56C78.3434 364.799 81.5948 366.805 84.8397 366.041Z" fill="white"/>
<path d="M75.6235 360.165C75.6239 358.615 76.0845 357.101 76.9472 355.813C77.8098 354.524 79.0358 353.52 80.4701 352.928C81.9044 352.335 83.4825 352.18 85.005 352.482C86.5275 352.785 87.9259 353.531 89.0235 354.627C90.121 355.723 90.8684 357.119 91.1711 358.639C91.4739 360.158 91.3183 361.734 90.7242 363.165C90.1301 364.597 89.124 365.82 87.8333 366.681C86.5425 367.542 85.025 368.002 83.4727 368.002C81.3913 367.999 79.3959 367.173 77.9243 365.704C76.4527 364.235 75.6253 362.243 75.6235 360.165ZM87.699 360.165C87.699 359.33 87.451 358.514 86.9862 357.819C86.5215 357.125 85.8609 356.584 85.088 356.264C84.3152 355.945 83.4647 355.861 82.6443 356.024C81.8238 356.187 81.0702 356.589 80.4787 357.18C79.8871 357.77 79.4843 358.522 79.3211 359.341C79.1579 360.16 79.2417 361.009 79.5618 361.781C79.8819 362.552 80.4241 363.212 81.1196 363.675C81.8152 364.139 82.6329 364.387 83.4694 364.387C84.5912 364.387 85.667 363.942 86.4602 363.15C87.2534 362.359 87.699 361.285 87.699 360.165Z" fill="#68326F"/>
<path d="M54.5065 214.469C57.8406 214.469 60.5434 211.771 60.5434 208.443C60.5434 205.115 57.8406 202.417 54.5065 202.417C51.1724 202.417 48.4695 205.115 48.4695 208.443C48.4695 211.771 51.1724 214.469 54.5065 214.469Z" fill="white"/>
<path d="M46.6573 208.444C46.6573 206.895 47.1176 205.38 47.9801 204.091C48.8426 202.803 50.0685 201.799 51.5027 201.206C52.9369 200.613 54.5152 200.458 56.0377 200.76C57.5603 201.062 58.9589 201.808 60.0566 202.904C61.1544 204 61.9019 205.396 62.2048 206.916C62.5076 208.436 62.3522 210.011 61.7581 211.443C61.164 212.874 60.158 214.098 58.8672 214.959C57.5764 215.82 56.0589 216.279 54.5064 216.279C52.4255 216.277 50.4305 215.45 48.9591 213.982C47.4877 212.513 46.6599 210.522 46.6573 208.444ZM58.7328 208.444C58.7328 207.609 58.4847 206.793 58.02 206.099C57.5552 205.404 56.8946 204.863 56.1218 204.544C55.3489 204.224 54.4985 204.141 53.678 204.304C52.8576 204.466 52.1039 204.869 51.5124 205.459C50.9209 206.049 50.5181 206.802 50.3549 207.621C50.1917 208.44 50.2754 209.289 50.5956 210.06C50.9157 210.831 51.4578 211.491 52.1534 211.955C52.8489 212.419 53.6667 212.666 54.5032 212.666C55.625 212.666 56.7008 212.221 57.494 211.43C58.2872 210.638 58.7328 209.564 58.7328 208.444Z" fill="#68326F"/>
<path d="M9.22333 189.325C12.4683 188.561 14.478 185.315 13.7121 182.076C12.9462 178.837 9.69479 176.831 6.44984 177.595C3.20489 178.36 1.19521 181.606 1.96108 184.845C2.72696 188.084 5.97838 190.09 9.22333 189.325Z" fill="white"/>
<path d="M0 183.455C0.00032173 181.906 0.460944 180.391 1.32362 179.103C2.18629 177.814 3.41227 176.811 4.84654 176.218C6.28081 175.625 7.85897 175.47 9.38145 175.773C10.9039 176.075 12.3024 176.821 13.3999 177.917C14.4975 179.013 15.2449 180.409 15.5476 181.929C15.8503 183.449 15.6948 185.024 15.1007 186.455C14.5065 187.887 13.5005 189.111 12.2097 189.971C10.919 190.832 9.4015 191.292 7.84915 191.292C5.76781 191.29 3.77235 190.463 2.30077 188.994C0.829186 187.525 0.00172257 185.533 0 183.455ZM12.0755 183.455C12.0755 182.62 11.8274 181.804 11.3627 181.11C10.8979 180.415 10.2374 179.874 9.4645 179.555C8.69164 179.235 7.84121 179.151 7.02075 179.314C6.20029 179.477 5.44665 179.879 4.85513 180.47C4.26361 181.06 3.86077 181.813 3.69757 182.632C3.53437 183.45 3.61814 184.299 3.93826 185.071C4.25839 185.842 4.80051 186.502 5.49606 186.966C6.19162 187.43 7.00937 187.677 7.8459 187.677C8.96681 187.676 10.0414 187.23 10.8335 186.439C11.6257 185.647 12.0706 184.574 12.0706 183.455H12.0755Z" fill="#68326F"/>
<path d="M54.5065 160.07C57.8406 160.07 60.5434 157.373 60.5434 154.044C60.5434 150.716 57.8406 148.018 54.5065 148.018C51.1724 148.018 48.4695 150.716 48.4695 154.044C48.4695 157.373 51.1724 160.07 54.5065 160.07Z" fill="white"/>
<path d="M46.6573 154.046C46.6573 152.496 47.1176 150.982 47.9801 149.693C48.8426 148.405 50.0685 147.4 51.5027 146.807C52.9369 146.214 54.5152 146.059 56.0377 146.362C57.5603 146.664 58.9589 147.41 60.0566 148.506C61.1544 149.602 61.9019 150.998 62.2048 152.518C62.5076 154.037 62.3522 155.613 61.7581 157.044C61.164 158.476 60.158 159.7 58.8672 160.561C57.5764 161.421 56.0589 161.881 54.5064 161.881C52.4255 161.878 50.4305 161.052 48.9591 159.583C47.4877 158.115 46.6599 156.123 46.6573 154.046ZM58.7328 154.046C58.7328 153.211 58.4847 152.395 58.02 151.7C57.5552 151.006 56.8946 150.465 56.1218 150.145C55.3489 149.826 54.4985 149.742 53.678 149.905C52.8576 150.068 52.1039 150.47 51.5124 151.061C50.9209 151.651 50.5181 152.403 50.3549 153.222C50.1917 154.041 50.2754 154.89 50.5956 155.662C50.9157 156.433 51.4578 157.093 52.1534 157.556C52.8489 158.02 53.6667 158.268 54.5032 158.268C55.625 158.268 56.7008 157.823 57.494 157.031C58.2872 156.24 58.7328 155.166 58.7328 154.046Z" fill="#68326F"/>
<path d="M30.8826 121.152C34.2167 121.152 36.9195 118.454 36.9195 115.126C36.9195 111.798 34.2167 109.1 30.8826 109.1C27.5485 109.1 24.8456 111.798 24.8456 115.126C24.8456 118.454 27.5485 121.152 30.8826 121.152Z" fill="white"/>
<path d="M23.0318 115.128C23.0315 113.578 23.4917 112.062 24.3542 110.773C25.2167 109.484 26.4429 108.48 27.8775 107.886C29.3121 107.293 30.8907 107.138 32.4138 107.44C33.9368 107.742 35.3359 108.489 36.4339 109.585C37.532 110.681 38.2797 112.077 38.5826 113.598C38.8855 115.118 38.7298 116.694 38.1354 118.126C37.541 119.558 36.5345 120.782 35.2432 121.643C33.9519 122.504 32.4338 122.963 30.881 122.963C28.8 122.96 26.8051 122.134 25.3336 120.665C23.8622 119.196 23.0344 117.205 23.0318 115.128ZM35.1073 115.128C35.1073 114.293 34.8592 113.476 34.3945 112.782C33.9297 112.088 33.2692 111.547 32.4963 111.227C31.7234 110.908 30.873 110.824 30.0525 110.987C29.2321 111.15 28.4784 111.552 27.8869 112.142C27.2954 112.733 26.8926 113.485 26.7294 114.304C26.5662 115.123 26.6499 115.972 26.9701 116.743C27.2902 117.515 27.8323 118.174 28.5279 118.638C29.2234 119.102 30.0412 119.35 30.8777 119.35C31.9995 119.35 33.0753 118.905 33.8685 118.113C34.6617 117.321 35.1073 116.247 35.1073 115.128Z" fill="#68326F"/>
<path d="M84.8368 13.7077C88.0846 12.955 90.1062 9.71688 89.3522 6.47502C88.5982 3.23315 85.3542 1.21522 82.1064 1.96783C78.8587 2.72045 76.8371 5.95862 77.5911 9.20048C78.3451 12.4423 81.5891 14.4603 84.8368 13.7077Z" fill="white"/>
<path d="M75.6235 7.83656C75.6235 6.28695 76.0839 4.77214 76.9464 3.48368C77.8088 2.19523 79.0347 1.191 80.4689 0.597988C81.9032 0.00497739 83.4814 -0.150175 85.004 0.152139C86.5266 0.454453 87.9252 1.20066 89.0229 2.2964C90.1206 3.39214 90.8682 4.7882 91.171 6.30804C91.4739 7.82787 91.3184 9.40322 90.7244 10.8349C90.1303 12.2665 89.1242 13.4902 87.8334 14.3511C86.5427 15.212 85.0251 15.6715 83.4727 15.6715C81.3918 15.669 79.3968 14.8427 77.9254 13.3739C76.4539 11.9051 75.6261 9.91373 75.6235 7.83656ZM87.699 7.83656C87.699 7.00154 87.451 6.18526 86.9862 5.49097C86.5215 4.79667 85.8609 4.25553 85.088 3.93598C84.3152 3.61643 83.4647 3.53282 82.6443 3.69573C81.8238 3.85863 81.0702 4.26074 80.4787 4.85119C79.8871 5.44164 79.4843 6.19392 79.3211 7.0129C79.1579 7.83188 79.2417 8.68077 79.5618 9.45223C79.8819 10.2237 80.4241 10.8831 81.1196 11.347C81.8152 11.8109 82.6329 12.0585 83.4694 12.0585C84.5912 12.0585 85.667 11.6137 86.4602 10.8219C87.2534 10.0302 87.699 8.95629 87.699 7.83656Z" fill="#68326F"/>
<path d="M152.678 71.0895C155.969 70.5563 158.204 67.4609 157.67 64.1758C157.136 60.8907 154.035 58.6599 150.744 59.1932C147.453 59.7264 145.218 62.8218 145.752 66.1069C146.286 69.3919 149.387 71.6228 152.678 71.0895Z" fill="white"/>
<path d="M143.853 65.1528C143.853 63.6027 144.313 62.0874 145.176 60.7984C146.038 59.5094 147.264 58.5047 148.699 57.9114C150.134 57.3181 151.712 57.1628 153.235 57.4651C154.758 57.7674 156.157 58.5138 157.256 59.6099C158.354 60.7059 159.101 62.1024 159.404 63.6227C159.707 65.143 159.551 66.7188 158.957 68.1508C158.363 69.5829 157.356 70.8068 156.065 71.6677C154.774 72.5287 153.255 72.9881 151.703 72.9878C149.622 72.9852 147.627 72.1589 146.155 70.6901C144.684 69.2213 143.856 67.23 143.853 65.1528ZM155.929 65.1528C155.929 64.3178 155.681 63.5015 155.216 62.8072C154.751 62.1129 154.091 61.5718 153.318 61.2522C152.545 60.9327 151.695 60.8491 150.874 61.012C150.054 61.1749 149.3 61.577 148.709 62.1674C148.117 62.7579 147.714 63.5102 147.551 64.3291C147.388 65.1481 147.472 65.997 147.792 66.7685C148.112 67.5399 148.654 68.1993 149.349 68.6632C150.045 69.1271 150.863 69.3747 151.699 69.3747C152.821 69.3747 153.897 68.9299 154.69 68.1382C155.483 67.3464 155.929 66.2725 155.929 65.1528Z" fill="#68326F"/>
<path d="M266.472 182.36C272.891 175.953 272.891 165.564 266.472 159.157C260.053 152.75 249.646 152.75 243.227 159.157C236.808 165.564 236.808 175.953 243.227 182.36C249.646 188.768 260.053 188.768 266.472 182.36Z" fill="white"/>
<path d="M304.819 102.067L305.785 98.9707C323.442 104.453 339.296 115.656 350.432 130.514C361.946 145.883 368.032 164.179 368.032 183.424C368.032 186.044 367.916 188.684 367.688 191.271L364.451 190.987C364.671 188.494 364.777 185.953 364.777 183.424C364.777 164.885 358.92 147.26 347.824 132.457C337.099 118.142 321.828 107.356 304.819 102.067Z" fill="#68326F"/>
<path d="M190.852 183.424C190.852 159.343 200.377 136.83 217.674 120.035L219.939 122.36C203.276 138.534 194.106 160.226 194.106 183.424C194.105 188.675 194.586 193.915 195.542 199.078L192.347 199.671C191.353 194.312 190.853 188.874 190.852 183.424Z" fill="#68326F"/>
<path d="M368.51 196.427C373.454 195.262 376.516 190.317 375.349 185.382C374.182 180.447 369.228 177.391 364.285 178.555C359.341 179.72 356.279 184.665 357.446 189.6C358.612 194.535 363.566 197.591 368.51 196.427Z" fill="#8CDEE3"/>
<path d="M355.397 187.471C355.396 185.297 356.042 183.172 357.252 181.364C358.462 179.556 360.181 178.147 362.193 177.315C364.206 176.483 366.42 176.265 368.556 176.689C370.692 177.113 372.654 178.16 374.195 179.697C375.735 181.234 376.783 183.193 377.208 185.325C377.633 187.458 377.415 189.668 376.581 191.676C375.748 193.685 374.336 195.402 372.525 196.609C370.714 197.817 368.585 198.461 366.407 198.461C363.488 198.458 360.689 197.299 358.625 195.238C356.561 193.178 355.4 190.385 355.397 187.471ZM373.794 187.471C373.794 186.013 373.361 184.587 372.55 183.374C371.738 182.161 370.584 181.216 369.235 180.657C367.885 180.099 366.399 179.953 364.966 180.237C363.533 180.521 362.217 181.224 361.184 182.255C360.15 183.286 359.447 184.6 359.161 186.03C358.876 187.461 359.022 188.943 359.582 190.291C360.141 191.638 361.087 192.79 362.302 193.6C363.517 194.411 364.945 194.843 366.407 194.843C368.365 194.841 370.242 194.064 371.627 192.682C373.012 191.3 373.791 189.426 373.794 187.471Z" fill="#68326F"/>
<path d="M384.805 151.67C389.885 151.67 394.003 147.56 394.003 142.489C394.003 137.419 389.885 133.308 384.805 133.308C379.726 133.308 375.608 137.419 375.608 142.489C375.608 147.56 379.726 151.67 384.805 151.67Z" fill="white"/>
<path d="M373.794 142.489C373.794 140.316 374.439 138.191 375.649 136.384C376.859 134.576 378.579 133.168 380.59 132.336C382.602 131.504 384.816 131.286 386.952 131.71C389.087 132.135 391.049 133.181 392.589 134.718C394.129 136.255 395.177 138.213 395.602 140.345C396.027 142.477 395.809 144.687 394.976 146.695C394.142 148.703 392.731 150.42 390.92 151.627C389.11 152.835 386.981 153.479 384.804 153.479C381.885 153.476 379.086 152.317 377.022 150.257C374.958 148.196 373.797 145.403 373.794 142.489ZM392.191 142.489C392.191 141.031 391.758 139.605 390.946 138.393C390.134 137.18 388.98 136.235 387.631 135.677C386.281 135.119 384.795 134.973 383.362 135.257C381.93 135.542 380.613 136.244 379.58 137.275C378.547 138.307 377.843 139.62 377.558 141.051C377.273 142.481 377.42 143.964 377.979 145.311C378.538 146.659 379.485 147.81 380.7 148.62C381.914 149.431 383.343 149.863 384.804 149.863C386.762 149.861 388.64 149.083 390.025 147.701C391.41 146.319 392.189 144.444 392.191 142.489Z" fill="#68326F"/>
<path d="M377.856 246.039C382.936 246.039 387.054 241.929 387.054 236.858C387.054 231.787 382.936 227.677 377.856 227.677C372.776 227.677 368.658 231.787 368.658 236.858C368.658 241.929 372.776 246.039 377.856 246.039Z" fill="white"/>
<path d="M366.844 236.86C366.844 234.686 367.489 232.56 368.699 230.752C369.909 228.945 371.629 227.535 373.641 226.703C375.653 225.871 377.867 225.653 380.004 226.077C382.14 226.502 384.102 227.548 385.642 229.086C387.182 230.623 388.231 232.582 388.656 234.714C389.081 236.846 388.862 239.057 388.029 241.065C387.195 243.074 385.784 244.79 383.972 245.998C382.161 247.206 380.032 247.85 377.854 247.85C374.935 247.846 372.137 246.687 370.073 244.627C368.009 242.567 366.848 239.773 366.844 236.86ZM385.241 236.86C385.242 235.401 384.809 233.975 383.997 232.763C383.186 231.55 382.032 230.604 380.682 230.046C379.332 229.488 377.847 229.341 376.414 229.626C374.981 229.91 373.664 230.612 372.631 231.643C371.598 232.675 370.894 233.988 370.609 235.419C370.324 236.849 370.47 238.332 371.029 239.679C371.588 241.027 372.535 242.179 373.75 242.989C374.965 243.799 376.393 244.232 377.854 244.232C379.812 244.23 381.69 243.452 383.075 242.07C384.46 240.688 385.239 238.814 385.241 236.86Z" fill="#68326F"/>
<path d="M308.966 107.011C312.558 103.425 312.558 97.612 308.966 94.0265C305.374 90.4411 299.55 90.4411 295.958 94.0265C292.366 97.612 292.366 103.425 295.958 107.011C299.55 110.596 305.374 110.596 308.966 107.011Z" fill="#8CDEE3"/>
<path d="M291.452 100.518C291.452 98.3445 292.097 96.2197 293.307 94.4124C294.517 92.6051 296.236 91.1965 298.248 90.3646C300.26 89.5328 302.474 89.3152 304.61 89.7393C306.745 90.1633 308.707 91.21 310.247 92.747C311.787 94.284 312.835 96.2422 313.26 98.3741C313.685 100.506 313.467 102.716 312.634 104.724C311.8 106.732 310.389 108.448 308.578 109.656C306.768 110.864 304.639 111.508 302.462 111.508C299.543 111.505 296.744 110.346 294.68 108.286C292.616 106.225 291.455 103.432 291.452 100.518ZM309.849 100.518C309.849 99.0597 309.416 97.6341 308.604 96.4215C307.792 95.2089 306.638 94.2637 305.289 93.7056C303.939 93.1475 302.453 93.0015 301.02 93.286C299.588 93.5705 298.271 94.2728 297.238 95.3041C296.205 96.3353 295.501 97.6492 295.216 99.0796C294.931 100.51 295.078 101.993 295.637 103.34C296.196 104.687 297.143 105.839 298.358 106.649C299.572 107.459 301.001 107.892 302.462 107.892C304.42 107.89 306.298 107.113 307.683 105.73C309.068 104.348 309.847 102.473 309.849 100.518Z" fill="#68326F"/>
<path d="M220.908 129.93C225.852 128.765 228.914 123.82 227.747 118.885C226.58 113.95 221.626 110.894 216.682 112.059C211.738 113.224 208.677 118.168 209.843 123.103C211.01 128.038 215.964 131.095 220.908 129.93Z" fill="#8CDEE3"/>
<path d="M207.792 120.982C207.792 118.808 208.437 116.682 209.647 114.875C210.857 113.067 212.576 111.658 214.588 110.826C216.6 109.993 218.815 109.775 220.951 110.199C223.087 110.623 225.049 111.67 226.589 113.207C228.129 114.744 229.178 116.703 229.603 118.835C230.028 120.967 229.81 123.177 228.977 125.186C228.144 127.195 226.732 128.911 224.921 130.119C223.11 131.327 220.981 131.972 218.803 131.972C215.884 131.969 213.085 130.81 211.021 128.75C208.957 126.689 207.795 123.896 207.792 120.982ZM226.191 120.982C226.191 119.523 225.757 118.098 224.946 116.885C224.134 115.672 222.98 114.727 221.63 114.169C220.281 113.611 218.795 113.465 217.362 113.75C215.929 114.034 214.613 114.736 213.58 115.768C212.547 116.799 211.843 118.113 211.558 119.543C211.273 120.974 211.419 122.456 211.979 123.804C212.538 125.151 213.485 126.303 214.699 127.113C215.914 127.923 217.342 128.356 218.803 128.356C220.762 128.354 222.64 127.576 224.025 126.194C225.41 124.811 226.189 122.937 226.191 120.982Z" fill="#68326F"/>
<path d="M183.579 147.235C187.171 143.649 187.171 137.836 183.579 134.251C179.987 130.665 174.164 130.665 170.572 134.251C166.98 137.836 166.98 143.649 170.572 147.235C174.164 150.82 179.987 150.82 183.579 147.235Z" fill="white"/>
<path d="M166.064 140.742C166.064 138.568 166.709 136.443 167.919 134.635C169.129 132.828 170.849 131.419 172.861 130.587C174.873 129.755 177.087 129.537 179.223 129.962C181.36 130.386 183.322 131.433 184.862 132.97C186.402 134.507 187.45 136.465 187.875 138.598C188.3 140.73 188.082 142.94 187.249 144.948C186.415 146.957 185.004 148.674 183.193 149.881C181.382 151.089 179.253 151.734 177.075 151.734C174.156 151.73 171.357 150.571 169.293 148.511C167.228 146.45 166.067 143.656 166.064 140.742ZM184.461 140.742C184.461 139.284 184.027 137.858 183.216 136.645C182.404 135.433 181.25 134.487 179.9 133.929C178.55 133.371 177.065 133.225 175.632 133.51C174.199 133.795 172.883 134.497 171.85 135.529C170.816 136.56 170.113 137.874 169.828 139.304C169.543 140.735 169.69 142.218 170.249 143.565C170.809 144.912 171.756 146.064 172.971 146.874C174.186 147.684 175.614 148.116 177.075 148.116C179.034 148.113 180.911 147.336 182.295 145.953C183.68 144.571 184.459 142.697 184.461 140.742Z" fill="#68326F"/>
<path d="M213.617 275.276C217.209 271.69 217.209 265.877 213.617 262.292C210.025 258.706 204.202 258.706 200.61 262.292C197.018 265.877 197.018 271.69 200.61 275.276C204.202 278.861 210.025 278.861 213.617 275.276Z" fill="white"/>
<path d="M196.104 268.784C196.104 266.61 196.749 264.485 197.959 262.677C199.169 260.87 200.889 259.461 202.902 258.629C204.914 257.797 207.128 257.58 209.264 258.004C211.4 258.428 213.362 259.475 214.902 261.012C216.442 262.55 217.491 264.508 217.915 266.641C218.34 268.773 218.122 270.983 217.288 272.992C216.454 275 215.043 276.717 213.232 277.924C211.421 279.132 209.291 279.776 207.113 279.776C204.194 279.772 201.396 278.613 199.331 276.553C197.267 274.492 196.107 271.698 196.104 268.784ZM214.501 268.784C214.501 267.326 214.067 265.9 213.256 264.688C212.444 263.475 211.29 262.53 209.94 261.972C208.591 261.414 207.105 261.268 205.672 261.552C204.239 261.837 202.923 262.539 201.89 263.57C200.857 264.601 200.153 265.915 199.868 267.346C199.583 268.776 199.73 270.259 200.289 271.606C200.848 272.953 201.795 274.105 203.009 274.915C204.224 275.725 205.652 276.158 207.113 276.158C209.072 276.156 210.95 275.378 212.335 273.996C213.719 272.613 214.498 270.739 214.501 268.784Z" fill="#68326F"/>
<path d="M196.44 211.713C201.52 211.713 205.638 207.603 205.638 202.532C205.638 197.461 201.52 193.351 196.44 193.351C191.361 193.351 187.243 197.461 187.243 202.532C187.243 207.603 191.361 211.713 196.44 211.713Z" fill="#8CDEE3"/>
<path d="M185.43 202.532C185.43 200.358 186.076 198.233 187.286 196.426C188.496 194.619 190.215 193.21 192.227 192.378C194.239 191.547 196.452 191.329 198.588 191.753C200.724 192.177 202.686 193.224 204.225 194.761C205.765 196.298 206.814 198.256 207.239 200.388C207.663 202.52 207.445 204.729 206.612 206.738C205.779 208.746 204.368 210.462 202.557 211.67C200.746 212.877 198.618 213.522 196.44 213.522C193.521 213.519 190.723 212.36 188.659 210.299C186.595 208.239 185.434 205.446 185.43 202.532ZM203.827 202.532C203.827 201.074 203.394 199.648 202.582 198.435C201.771 197.223 200.617 196.278 199.267 195.719C197.917 195.161 196.432 195.015 194.999 195.3C193.566 195.584 192.25 196.287 191.217 197.318C190.184 198.349 189.48 199.663 189.195 201.093C188.91 202.524 189.056 204.006 189.615 205.354C190.175 206.701 191.121 207.853 192.336 208.663C193.551 209.473 194.979 209.906 196.44 209.906C198.399 209.904 200.276 209.126 201.661 207.744C203.046 206.361 203.825 204.487 203.827 202.532Z" fill="#68326F"/>
<path d="M311.799 286.921C316.743 285.756 319.805 280.811 318.638 275.876C317.471 270.941 312.518 267.885 307.574 269.05C302.63 270.214 299.568 275.159 300.735 280.094C301.902 285.029 306.855 288.086 311.799 286.921Z" fill="white"/>
<path d="M298.689 277.967C298.689 275.793 299.334 273.667 300.544 271.86C301.754 270.052 303.474 268.643 305.486 267.811C307.498 266.978 309.712 266.761 311.849 267.185C313.985 267.609 315.947 268.656 317.487 270.193C319.027 271.73 320.076 273.689 320.501 275.821C320.926 277.954 320.707 280.164 319.874 282.172C319.04 284.181 317.629 285.897 315.817 287.105C314.006 288.313 311.877 288.957 309.699 288.957C306.78 288.953 303.982 287.794 301.918 285.734C299.854 283.674 298.693 280.88 298.689 277.967ZM317.086 277.967C317.087 276.508 316.654 275.083 315.842 273.87C315.031 272.657 313.877 271.712 312.527 271.153C311.177 270.595 309.692 270.449 308.259 270.733C306.826 271.017 305.509 271.719 304.476 272.751C303.443 273.782 302.739 275.096 302.454 276.526C302.169 277.956 302.315 279.439 302.874 280.787C303.433 282.134 304.38 283.286 305.595 284.096C306.81 284.906 308.238 285.339 309.699 285.339C311.658 285.338 313.536 284.561 314.922 283.179C316.307 281.796 317.087 279.922 317.089 277.967H317.086Z" fill="#68326F"/>
<path d="M400.993 237.837C400.993 237.6 401.04 237.365 401.131 237.146C401.222 236.926 401.355 236.727 401.524 236.559C401.692 236.391 401.891 236.258 402.111 236.168C402.331 236.077 402.566 236.03 402.804 236.03H478.338V359.017C478.324 359.487 478.127 359.933 477.789 360.261C477.45 360.589 476.998 360.772 476.527 360.772C476.055 360.772 475.603 360.589 475.264 360.261C474.926 359.933 474.729 359.487 474.715 359.017V239.646H402.812C402.573 239.647 402.337 239.601 402.116 239.511C401.896 239.42 401.695 239.287 401.526 239.119C401.357 238.951 401.223 238.751 401.131 238.531C401.04 238.311 400.993 238.075 400.993 237.837Z" fill="#68326F"/>
<path d="M409.49 213.956C409.49 213.476 409.681 213.016 410.021 212.676C410.361 212.337 410.821 212.147 411.302 212.147H502.671C503.152 212.147 503.613 212.337 503.953 212.676C504.292 213.016 504.483 213.476 504.483 213.956C504.483 214.435 504.292 214.895 503.953 215.235C503.613 215.574 503.152 215.764 502.671 215.764H411.297C410.817 215.763 410.358 215.572 410.019 215.233C409.68 214.894 409.49 214.434 409.49 213.956Z" fill="#68326F"/>
<path d="M415.346 184.767C415.346 184.53 415.393 184.294 415.484 184.075C415.575 183.855 415.709 183.656 415.877 183.488C416.045 183.32 416.245 183.187 416.465 183.096C416.685 183.005 416.92 182.958 417.158 182.958H545.65C546.131 182.958 546.592 183.149 546.932 183.488C547.272 183.827 547.462 184.287 547.462 184.767C547.462 185.247 547.272 185.707 546.932 186.046C546.592 186.386 546.131 186.576 545.65 186.576H417.157C416.676 186.576 416.216 186.385 415.876 186.046C415.537 185.707 415.346 185.247 415.346 184.767Z" fill="#68326F"/>
<path d="M409.49 159.559C409.49 159.079 409.681 158.619 410.021 158.28C410.361 157.941 410.821 157.75 411.302 157.75H502.671C502.914 157.743 503.155 157.784 503.381 157.872C503.607 157.959 503.813 158.091 503.987 158.26C504.162 158.429 504.3 158.63 504.394 158.853C504.489 159.076 504.538 159.316 504.538 159.558C504.538 159.8 504.489 160.04 504.394 160.263C504.3 160.486 504.162 160.688 503.987 160.856C503.813 161.025 503.607 161.157 503.381 161.244C503.155 161.332 502.914 161.373 502.671 161.366H411.297C410.818 161.365 410.358 161.175 410.019 160.836C409.68 160.497 409.49 160.038 409.49 159.559Z" fill="#68326F"/>
<path d="M400.993 138.772C400.993 138.535 401.04 138.3 401.131 138.08C401.222 137.861 401.355 137.661 401.523 137.493C401.691 137.325 401.891 137.192 402.111 137.101C402.33 137.01 402.566 136.963 402.804 136.963H474.707V10.0742C474.721 9.60404 474.918 9.15786 475.256 8.83027C475.594 8.50269 476.047 8.31946 476.518 8.31946C476.99 8.31946 477.442 8.50269 477.78 8.83027C478.119 9.15786 478.316 9.60404 478.33 10.0742V140.581H402.804C402.566 140.581 402.33 140.534 402.111 140.444C401.891 140.353 401.691 140.219 401.523 140.051C401.355 139.883 401.222 139.684 401.131 139.464C401.04 139.245 400.993 139.01 400.993 138.772Z" fill="#68326F"/>
<path d="M406.484 302.849C406.484 302.611 406.531 302.376 406.622 302.157C406.713 301.937 406.846 301.738 407.015 301.57C407.183 301.402 407.383 301.269 407.602 301.179C407.822 301.088 408.058 301.041 408.296 301.041H476.526C476.768 301.034 477.01 301.076 477.236 301.163C477.462 301.251 477.668 301.383 477.842 301.551C478.016 301.72 478.155 301.922 478.249 302.145C478.344 302.368 478.392 302.607 478.392 302.85C478.392 303.092 478.344 303.331 478.249 303.554C478.155 303.777 478.016 303.979 477.842 304.148C477.668 304.316 477.462 304.448 477.236 304.536C477.01 304.624 476.768 304.665 476.526 304.658H408.296C407.815 304.658 407.354 304.467 407.014 304.128C406.675 303.789 406.484 303.329 406.484 302.849Z" fill="#68326F"/>
<path d="M474.723 252.874C474.723 252.636 474.77 252.401 474.861 252.182C474.952 251.963 475.085 251.764 475.254 251.596C475.422 251.428 475.621 251.295 475.841 251.204C476.061 251.113 476.296 251.067 476.534 251.067H525.706C526.177 251.081 526.624 251.277 526.952 251.615C527.281 251.952 527.464 252.404 527.464 252.875C527.464 253.345 527.281 253.797 526.952 254.134C526.624 254.472 526.177 254.669 525.706 254.683H476.526C476.047 254.681 475.588 254.489 475.25 254.15C474.912 253.811 474.723 253.352 474.723 252.874Z" fill="#68326F"/>
<path d="M474.723 93.9044C474.723 93.6669 474.77 93.4317 474.861 93.2123C474.952 92.9928 475.085 92.7934 475.253 92.6254C475.421 92.4574 475.621 92.3241 475.841 92.2332C476.06 92.1422 476.296 92.0954 476.534 92.0954H500.862V63.5875C500.862 63.1077 501.053 62.6477 501.393 62.3084C501.733 61.9692 502.194 61.7786 502.674 61.7786C503.155 61.7786 503.616 61.9692 503.956 62.3084C504.296 62.6477 504.487 63.1077 504.487 63.5875V95.7133H476.526C476.047 95.7112 475.588 95.5196 475.25 95.1805C474.912 94.8415 474.723 94.3826 474.723 93.9044Z" fill="#68326F"/>
<path d="M390.31 120.197C390.31 119.718 390.501 119.258 390.841 118.918C391.181 118.579 391.642 118.388 392.123 118.388H445.069C445.55 118.388 446.01 118.579 446.35 118.918C446.69 119.258 446.881 119.718 446.881 120.197C446.881 120.677 446.69 121.137 446.35 121.476C446.01 121.816 445.55 122.006 445.069 122.006H392.123C391.642 122.006 391.181 121.816 390.841 121.476C390.501 121.137 390.31 120.677 390.31 120.197Z" fill="#68326F"/>
<path d="M504.051 69.478C507.296 68.7135 509.305 65.4679 508.54 62.2289C507.774 58.9898 504.522 56.9837 501.277 57.7482C498.032 58.5127 496.023 61.7582 496.789 64.9973C497.554 68.2364 500.806 70.2425 504.051 69.478Z" fill="white"/>
<path d="M494.817 63.5875C494.817 62.038 495.278 60.5233 496.141 59.2351C497.003 57.9468 498.229 56.9428 499.664 56.3501C501.098 55.7573 502.676 55.6024 504.199 55.9049C505.721 56.2074 507.119 56.9537 508.217 58.0495C509.315 59.1453 510.062 60.5414 510.365 62.0612C510.667 63.581 510.512 65.1563 509.918 66.5878C509.324 68.0194 508.318 69.2429 507.027 70.1038C505.736 70.9646 504.219 71.4241 502.666 71.4241C500.585 71.4219 498.589 70.5956 497.118 69.1263C495.646 67.6571 494.819 65.6651 494.817 63.5875ZM506.893 63.5875C506.893 62.7525 506.645 61.9362 506.18 61.2419C505.715 60.5476 505.054 60.0065 504.282 59.6869C503.509 59.3674 502.658 59.2838 501.838 59.4467C501.017 59.6096 500.264 60.0117 499.672 60.6021C499.081 61.1926 498.678 61.9449 498.515 62.7638C498.351 63.5828 498.435 64.4317 498.755 65.2032C499.076 65.9746 499.618 66.634 500.313 67.0979C501.009 67.5618 501.826 67.8095 502.663 67.8095C503.785 67.8095 504.861 67.3646 505.654 66.5729C506.447 65.7811 506.893 64.7072 506.893 63.5875Z" fill="#68326F"/>
<path d="M446.45 126.086C449.695 125.322 451.705 122.076 450.939 118.837C450.173 115.598 446.922 113.592 443.677 114.356C440.432 115.121 438.422 118.366 439.188 121.605C439.954 124.844 443.205 126.851 446.45 126.086Z" fill="white"/>
<path d="M437.22 120.197C437.22 118.648 437.68 117.133 438.543 115.845C439.405 114.556 440.631 113.552 442.065 112.959C443.499 112.366 445.078 112.211 446.6 112.513C448.123 112.815 449.521 113.562 450.619 114.657C451.717 115.753 452.464 117.149 452.767 118.669C453.07 120.189 452.915 121.764 452.321 123.196C451.726 124.627 450.72 125.851 449.43 126.712C448.139 127.573 446.621 128.032 445.069 128.032C442.988 128.03 440.993 127.204 439.521 125.735C438.05 124.266 437.222 122.275 437.22 120.197ZM449.295 120.197C449.295 119.362 449.047 118.546 448.582 117.852C448.118 117.158 447.457 116.616 446.684 116.297C445.911 115.977 445.061 115.894 444.24 116.057C443.42 116.219 442.666 116.622 442.075 117.212C441.483 117.802 441.081 118.555 440.917 119.374C440.754 120.193 440.838 121.042 441.158 121.813C441.478 122.585 442.02 123.244 442.716 123.708C443.411 124.172 444.229 124.419 445.066 124.419C446.187 124.419 447.263 123.975 448.056 123.183C448.85 122.391 449.295 121.317 449.295 120.197Z" fill="#68326F"/>
<path d="M476.527 13.861C479.861 13.861 482.564 11.1631 482.564 7.83499C482.564 4.5069 479.861 1.80896 476.527 1.80896C473.193 1.80896 470.49 4.5069 470.49 7.83499C470.49 11.1631 473.193 13.861 476.527 13.861Z" fill="white"/>
<path d="M468.677 7.83664C468.676 6.28657 469.136 4.77121 469.999 3.48224C470.861 2.19327 472.088 1.18859 473.522 0.595251C474.957 0.00191614 476.535 -0.153409 478.059 0.148916C479.582 0.451241 480.981 1.19764 482.079 2.29371C483.177 3.38977 483.924 4.78627 484.227 6.30657C484.53 7.82687 484.375 9.40268 483.78 10.8347C483.186 12.2667 482.179 13.4906 480.888 14.3516C479.597 15.2126 478.079 15.6719 476.526 15.6716C474.445 15.669 472.45 14.8427 470.978 13.3739C469.507 11.9052 468.679 9.91381 468.677 7.83664ZM480.752 7.83664C480.752 7.00161 480.504 6.18534 480.039 5.49105C479.574 4.79675 478.914 4.25561 478.141 3.93606C477.368 3.61651 476.518 3.5329 475.697 3.69581C474.877 3.85871 474.123 4.26082 473.532 4.85127C472.94 5.44172 472.537 6.194 472.374 7.01298C472.211 7.83196 472.295 8.68085 472.615 9.45231C472.935 10.2238 473.477 10.8832 474.173 11.3471C474.868 11.811 475.686 12.0586 476.522 12.0586C477.644 12.0586 478.72 11.6138 479.513 10.822C480.306 10.0302 480.752 8.95637 480.752 7.83664Z" fill="#68326F"/>
<path d="M505.492 165.583C508.826 165.583 511.529 162.885 511.529 159.557C511.529 156.229 508.826 153.531 505.492 153.531C502.158 153.531 499.455 156.229 499.455 159.557C499.455 162.885 502.158 165.583 505.492 165.583Z" fill="white"/>
<path d="M497.643 159.559C497.643 158.009 498.103 156.495 498.966 155.206C499.828 153.918 501.054 152.913 502.488 152.32C503.922 151.727 505.501 151.572 507.023 151.875C508.546 152.177 509.944 152.923 511.042 154.019C512.14 155.115 512.887 156.511 513.19 158.03C513.493 159.55 513.338 161.126 512.744 162.557C512.15 163.989 511.144 165.213 509.853 166.074C508.562 166.934 507.044 167.394 505.492 167.394C503.411 167.391 501.416 166.565 499.945 165.096C498.473 163.627 497.645 161.636 497.643 159.559ZM509.718 159.559C509.718 158.724 509.47 157.908 509.006 157.213C508.541 156.519 507.88 155.978 507.107 155.658C506.334 155.339 505.484 155.255 504.664 155.418C503.843 155.581 503.089 155.983 502.498 156.574C501.906 157.164 501.504 157.916 501.34 158.735C501.177 159.554 501.261 160.403 501.581 161.175C501.901 161.946 502.443 162.605 503.139 163.069C503.834 163.533 504.652 163.781 505.489 163.781C506.611 163.781 507.686 163.336 508.48 162.544C509.273 161.753 509.718 160.679 509.718 159.559Z" fill="#68326F"/>
<path d="M556.419 188.808C558.777 186.454 558.777 182.639 556.419 180.286C554.062 177.932 550.239 177.932 547.882 180.286C545.524 182.639 545.524 186.454 547.882 188.808C550.239 191.161 554.062 191.161 556.419 188.808Z" fill="white"/>
<path d="M544.3 184.546C544.3 182.997 544.76 181.482 545.623 180.194C546.485 178.905 547.711 177.901 549.145 177.308C550.58 176.715 552.158 176.56 553.68 176.862C555.203 177.164 556.602 177.91 557.699 179.006C558.797 180.102 559.545 181.498 559.848 183.018C560.15 184.538 559.995 186.113 559.401 187.545C558.807 188.976 557.801 190.2 556.51 191.061C555.219 191.922 553.702 192.381 552.149 192.381C550.068 192.379 548.073 191.552 546.602 190.084C545.13 188.615 544.303 186.624 544.3 184.546ZM556.376 184.546C556.376 183.711 556.127 182.895 555.663 182.201C555.198 181.507 554.537 180.965 553.765 180.646C552.992 180.326 552.141 180.243 551.321 180.406C550.5 180.568 549.747 180.971 549.155 181.561C548.564 182.151 548.161 182.904 547.998 183.723C547.834 184.542 547.918 185.391 548.238 186.162C548.558 186.934 549.101 187.593 549.796 188.057C550.492 188.521 551.309 188.768 552.146 188.768C553.268 188.768 554.344 188.324 555.137 187.532C555.93 186.74 556.376 185.666 556.376 184.546Z" fill="#68326F"/>
<path d="M505.492 219.982C508.826 219.982 511.529 217.284 511.529 213.956C511.529 210.628 508.826 207.93 505.492 207.93C502.158 207.93 499.455 210.628 499.455 213.956C499.455 217.284 502.158 219.982 505.492 219.982Z" fill="white"/>
<path d="M497.643 213.956C497.643 212.406 498.103 210.891 498.966 209.603C499.828 208.314 501.054 207.31 502.488 206.717C503.922 206.124 505.501 205.969 507.023 206.271C508.546 206.573 509.944 207.32 511.042 208.415C512.14 209.511 512.887 210.907 513.19 212.427C513.493 213.947 513.338 215.522 512.744 216.954C512.15 218.386 511.144 219.609 509.853 220.47C508.562 221.331 507.044 221.791 505.492 221.791C503.411 221.788 501.416 220.962 499.944 219.493C498.473 218.024 497.645 216.033 497.643 213.956ZM509.718 213.956C509.718 213.121 509.47 212.304 509.006 211.61C508.541 210.916 507.88 210.375 507.107 210.055C506.334 209.735 505.484 209.652 504.664 209.815C503.843 209.978 503.089 210.38 502.498 210.97C501.906 211.561 501.504 212.313 501.34 213.132C501.177 213.951 501.261 214.8 501.581 215.571C501.901 216.343 502.443 217.002 503.139 217.466C503.834 217.93 504.652 218.178 505.489 218.178C506.611 218.178 507.686 217.733 508.48 216.941C509.273 216.149 509.718 215.075 509.718 213.956Z" fill="#68326F"/>
<path d="M530.494 258.767C533.739 258.003 535.749 254.757 534.983 251.518C534.217 248.279 530.965 246.273 527.72 247.037C524.476 247.802 522.466 251.047 523.232 254.286C523.998 257.526 527.249 259.532 530.494 258.767Z" fill="white"/>
<path d="M521.267 252.874C521.267 251.324 521.727 249.809 522.59 248.52C523.452 247.231 524.678 246.227 526.113 245.634C527.548 245.041 529.126 244.885 530.649 245.188C532.172 245.49 533.571 246.237 534.669 247.333C535.767 248.429 536.514 249.825 536.817 251.345C537.12 252.865 536.965 254.441 536.371 255.873C535.776 257.305 534.77 258.529 533.479 259.39C532.188 260.251 530.67 260.71 529.117 260.71C527.036 260.708 525.04 259.882 523.568 258.413C522.097 256.944 521.269 254.952 521.267 252.874ZM533.342 252.874C533.342 252.039 533.094 251.223 532.629 250.528C532.165 249.834 531.504 249.293 530.731 248.973C529.958 248.654 529.108 248.57 528.287 248.733C527.467 248.896 526.713 249.298 526.122 249.888C525.53 250.479 525.127 251.231 524.964 252.05C524.801 252.869 524.885 253.718 525.205 254.49C525.525 255.261 526.067 255.92 526.763 256.384C527.458 256.848 528.276 257.096 529.112 257.096C530.234 257.096 531.31 256.651 532.103 255.859C532.896 255.067 533.342 253.994 533.342 252.874Z" fill="#68326F"/>
<path d="M476.527 366.191C479.861 366.191 482.564 363.493 482.564 360.165C482.564 356.837 479.861 354.139 476.527 354.139C473.193 354.139 470.49 356.837 470.49 360.165C470.49 363.493 473.193 366.191 476.527 366.191Z" fill="white"/>
<path d="M468.677 360.165C468.677 358.615 469.137 357.1 470 355.811C470.862 354.522 472.089 353.518 473.523 352.925C474.958 352.332 476.537 352.177 478.059 352.479C479.582 352.782 480.981 353.528 482.079 354.624C483.177 355.72 483.925 357.117 484.227 358.637C484.53 360.157 484.374 361.733 483.78 363.165C483.186 364.597 482.179 365.821 480.888 366.682C479.596 367.543 478.078 368.002 476.526 368.002C474.444 367.999 472.449 367.173 470.978 365.703C469.506 364.234 468.679 362.242 468.677 360.165ZM480.752 360.165C480.752 359.33 480.504 358.514 480.039 357.819C479.574 357.125 478.914 356.584 478.141 356.264C477.368 355.945 476.518 355.861 475.697 356.024C474.877 356.187 474.123 356.589 473.532 357.18C472.94 357.77 472.537 358.522 472.374 359.341C472.211 360.16 472.295 361.009 472.615 361.781C472.935 362.552 473.477 363.212 474.173 363.675C474.868 364.139 475.686 364.387 476.522 364.387C477.644 364.387 478.72 363.942 479.513 363.15C480.306 362.359 480.752 361.285 480.752 360.165Z" fill="#68326F"/>
<path d="M408.296 308.875C411.63 308.875 414.333 306.177 414.333 302.849C414.333 299.521 411.63 296.823 408.296 296.823C404.962 296.823 402.259 299.521 402.259 302.849C402.259 306.177 404.962 308.875 408.296 308.875Z" fill="white"/>
<path d="M400.445 302.849C400.445 301.299 400.905 299.784 401.768 298.495C402.631 297.206 403.857 296.202 405.291 295.609C406.726 295.016 408.304 294.86 409.827 295.163C411.35 295.465 412.749 296.212 413.847 297.308C414.945 298.403 415.693 299.8 415.996 301.32C416.299 302.84 416.143 304.416 415.549 305.848C414.955 307.28 413.949 308.504 412.657 309.365C411.366 310.226 409.849 310.685 408.296 310.685C406.214 310.683 404.219 309.857 402.747 308.388C401.275 306.919 400.447 304.927 400.445 302.849ZM412.52 302.849C412.52 302.014 412.272 301.197 411.808 300.503C411.343 299.809 410.682 299.268 409.91 298.948C409.137 298.629 408.286 298.545 407.466 298.708C406.645 298.871 405.892 299.273 405.3 299.863C404.709 300.454 404.306 301.206 404.143 302.025C403.979 302.844 404.063 303.693 404.383 304.464C404.703 305.236 405.246 305.895 405.941 306.359C406.637 306.823 407.454 307.071 408.291 307.071C409.413 307.071 410.489 306.626 411.282 305.834C412.075 305.042 412.52 303.969 412.52 302.849Z" fill="#68326F"/>
</g>
<defs>
<clipPath id="clip0_653_1361">
<rect width="560" height="368" fill="white"/>
</clipPath>
</defs>
</svg>
