<svg width="44" height="44" viewBox="0 0 44 44" fill="none" xmlns="http://www.w3.org/2000/svg">
<g clip-path="url(#clip0_705_890)">
<path fill-rule="evenodd" clip-rule="evenodd" d="M16.471 21.884C15.6977 21.884 15.6977 20.6983 16.471 20.6983C17.2443 20.6983 17.2443 21.884 16.471 21.884ZM14.8471 29.72C6.65026 29.72 0 23.0697 0 14.8471C0 6.65026 6.65026 0 14.8471 0C23.0697 0 29.72 6.65026 29.72 14.8471C29.72 18.6362 28.3023 22.1933 25.7762 24.9256L28.9982 28.1734L30.8541 26.3175C31.0861 26.0855 31.4728 26.0855 31.7047 26.3175L43.8196 38.4581C44.0515 38.6901 44.0515 39.051 43.8196 39.2829L39.2829 43.8196C39.051 44.0515 38.6901 44.0515 38.4581 43.8196L26.3175 31.7047C26.0855 31.4728 26.0855 31.0861 26.3175 30.8541L28.1734 28.9982L24.9256 25.7762C22.1933 28.3023 18.6362 29.72 14.8471 29.72ZM14.8471 1.15993C7.29467 1.15993 1.15993 7.29467 1.15993 14.8471C1.15993 22.4253 7.29467 28.5343 14.8471 28.5343C22.4253 28.5343 28.5343 22.4253 28.5343 14.8471C28.5343 7.29467 22.4253 1.15993 14.8471 1.15993ZM27.5548 31.2923L29.5653 33.2771L33.2771 29.5653L31.2923 27.5548L27.5548 31.2923ZM30.3902 34.1019L38.8705 42.5823L40.314 41.1388L31.8336 32.6585L30.3902 34.1019ZM41.1388 40.314L42.5823 38.8705L34.1019 30.3902L32.6585 31.8336L41.1388 40.314ZM12.321 17.7856C10.4651 17.7856 10.7487 18.0176 10.4394 15.6204C10.1301 15.4915 9.87229 15.3368 9.61453 15.1306C7.21734 16.1359 7.78442 16.3421 6.2894 13.7387C6.13474 13.481 6.21207 13.1716 6.44405 12.9912L7.75864 11.9602V11.0064C5.72232 9.43409 5.82542 10.0269 7.32044 7.42355C7.4751 7.16579 7.78442 7.06268 8.04218 7.16579L9.61453 7.81019C9.87229 7.62976 10.1301 7.4751 10.4394 7.34622C10.7745 4.7686 10.3105 5.15524 13.3005 5.15524C13.6098 5.15524 13.8418 5.38723 13.8934 5.67077L14.0996 7.34622C14.4089 7.4751 14.6924 7.62976 14.9502 7.81019C17.3216 6.8307 16.7545 6.62449 18.2496 9.22788C18.5847 9.82074 17.8371 10.1816 17.2185 10.6714L23.379 23.5079C23.6626 23.9977 23.3017 24.4101 22.8893 24.4101H10.0785C9.6403 24.4101 9.35677 23.9719 9.5372 23.5852L12.321 17.7856ZM16.007 10.1558C16.1101 10.0012 16.8061 9.51142 16.9865 9.35677L16.471 8.4546C13.7645 9.56297 15.2853 8.97012 13.3779 8.29994C13.1716 8.22261 13.017 8.04218 12.9912 7.83597L12.785 6.34095H11.754C11.3673 9.22788 11.6251 7.60398 10.0785 8.91857C9.92384 9.07323 9.66608 9.12478 9.48565 9.02167L8.09373 8.4546L7.55243 9.35677C9.87229 11.1353 8.58348 10.1043 8.97012 12.1148C9.02167 12.321 8.91857 12.553 8.76391 12.6819L7.55243 13.5841L8.09373 14.512C10.7745 13.3779 9.25366 13.9965 11.1611 14.6409C11.3673 14.7182 11.522 14.8987 11.5477 15.1306L11.754 16.6257H12.8881L15.9555 10.2332L16.007 10.1558ZM13.7903 17.4247C13.7903 17.4505 13.7645 17.4763 13.7645 17.4763L11.0064 23.2501H21.9613L16.471 11.8571L13.7903 17.4247ZM12.2695 13.5325C11.1353 13.5325 10.2074 12.6046 10.2074 11.4704C10.2074 10.3363 11.1353 9.43409 12.2695 9.43409C13.4036 9.43409 14.3316 10.3363 14.3316 11.4704C14.3316 12.6046 13.4036 13.5325 12.2695 13.5325ZM12.2695 10.594C11.1095 10.594 11.1095 12.3726 12.2695 12.3726C13.4294 12.3726 13.4294 10.594 12.2695 10.594ZM16.471 19.461C16.1617 19.461 15.8781 19.2033 15.8781 18.8682V15.0018C15.8781 14.2285 17.0639 14.2285 17.0639 15.0018V18.8682C17.0639 19.2033 16.8061 19.461 16.471 19.461Z" fill="#68326F"/>
</g>
<defs>
<clipPath id="clip0_705_890">
<rect width="44" height="44" fill="white"/>
</clipPath>
</defs>
</svg>
