<svg width="36" height="36" viewBox="0 0 36 36" fill="none" xmlns="http://www.w3.org/2000/svg">
<g clip-path="url(#clip0_899_681)">
<path fill-rule="evenodd" clip-rule="evenodd" d="M22.6101 28.9602H13.1925C12.9401 28.9602 12.7355 28.7556 12.7355 28.5032C12.7355 25.8119 11.8423 24.8566 10.8967 23.8452C9.86838 22.7454 8.70282 21.4989 8.70282 18.1197C8.70282 13.0476 12.8292 8.92126 17.9013 8.92126C22.9733 8.92126 27.0997 13.0476 27.0997 18.1197C27.0997 21.4989 25.9342 22.7454 24.9059 23.8452C23.9603 24.8566 23.0671 25.8119 23.0671 28.5032C23.0671 28.7556 22.8624 28.9602 22.6101 28.9602ZM13.6412 28.0462H22.1613C22.2623 25.3343 23.266 24.2607 24.2382 23.221C25.2396 22.1498 26.1856 21.1381 26.1856 18.1196C26.1856 13.5516 22.4693 9.83528 17.9013 9.83528C13.3332 9.83528 9.61675 13.5516 9.61675 18.1196C9.61675 21.138 10.5627 22.1497 11.5644 23.221C12.5366 24.2608 13.5403 25.3343 13.6412 28.0462Z" fill="#04838A"/>
<path fill-rule="evenodd" clip-rule="evenodd" d="M11.269 18.5766C11.0166 18.5766 10.812 18.3721 10.812 18.1196C10.812 14.2106 13.9923 11.0305 17.9014 11.0305C18.1538 11.0305 18.3585 11.235 18.3585 11.4875C18.3585 11.7399 18.1538 11.9445 17.9014 11.9445C14.4964 11.9445 11.726 14.7147 11.726 18.1196C11.726 18.3721 11.5214 18.5766 11.269 18.5766Z" fill="#04838A"/>
<path fill-rule="evenodd" clip-rule="evenodd" d="M22.8018 31.3507H13.0006C12.601 31.3507 12.2759 31.0256 12.2759 30.6258V28.7709C12.2759 28.3712 12.601 28.0461 13.0006 28.0461L22.8018 28.0462C23.2015 28.0462 23.5267 28.3712 23.5267 28.7709V30.6258C23.5266 31.0256 23.2014 31.3507 22.8018 31.3507ZM13.1899 30.4367H22.6127V28.9602H13.1899V30.4367Z" fill="#04838A"/>
<path fill-rule="evenodd" clip-rule="evenodd" d="M21.8851 33.7411H13.9176C13.5179 33.7411 13.1927 33.416 13.1927 33.0163V30.8936C13.1927 30.6412 13.3973 30.4366 13.6498 30.4366H22.153C22.4054 30.4366 22.61 30.6412 22.61 30.8936V33.0163C22.61 33.416 22.2848 33.7411 21.8851 33.7411ZM14.1068 32.8271H21.696V31.3506H14.1068V32.8271Z" fill="#04838A"/>
<path fill-rule="evenodd" clip-rule="evenodd" d="M17.9014 35.9989C16.4044 35.9989 15.1865 34.7812 15.1865 33.2841C15.1865 33.0317 15.391 32.8271 15.6435 32.8271H20.1591C20.4115 32.8271 20.6161 33.0317 20.6161 33.2841C20.6161 34.7811 19.3983 35.9989 17.9014 35.9989ZM16.1592 33.7411C16.362 34.5134 17.0662 35.0849 17.9014 35.0849C18.7363 35.0849 19.4406 34.5135 19.6433 33.7411H16.1592Z" fill="#04838A"/>
<path fill-rule="evenodd" clip-rule="evenodd" d="M18.1058 6.08823C17.8534 6.08823 17.6488 5.88369 17.6488 5.63123V0.457922C17.6488 0.205543 17.8534 0.000915527 18.1058 0.000915527C18.3583 0.000915527 18.5628 0.205542 18.5628 0.457922V5.63123C18.5628 5.88369 18.3583 6.08823 18.1058 6.08823Z" fill="#04838A"/>
<path fill-rule="evenodd" clip-rule="evenodd" d="M25.178 8.09696C25.1004 8.09696 25.0219 8.0772 24.95 8.03559C24.7313 7.90944 24.6564 7.62991 24.7827 7.41133L27.3693 2.93113C27.4955 2.71247 27.7751 2.63781 27.9935 2.76387C28.2121 2.8901 28.2871 3.16964 28.1608 3.38813L25.5742 7.86834C25.4895 8.01491 25.336 8.09696 25.178 8.09696Z" fill="#04838A"/>
<path fill-rule="evenodd" clip-rule="evenodd" d="M30.2998 13.3728C30.1419 13.3728 29.9882 13.2909 29.9036 13.1442C29.7775 12.9256 29.8524 12.6462 30.0709 12.52L34.5512 9.93339C34.7697 9.80716 35.0494 9.88207 35.1754 10.1006C35.3016 10.3192 35.2267 10.5987 35.0082 10.7249L30.5279 13.3115C30.456 13.353 30.3774 13.3728 30.2998 13.3728Z" fill="#04838A"/>
<path fill-rule="evenodd" clip-rule="evenodd" d="M10.9768 7.88526C10.8188 7.88526 10.6653 7.8033 10.5805 7.65672L7.99398 3.17643C7.86775 2.95786 7.94274 2.6784 8.16124 2.55217C8.37973 2.42602 8.65927 2.50093 8.7855 2.71943L11.3721 7.19972C11.4983 7.41829 11.4234 7.69775 11.2048 7.82398C11.1329 7.8655 11.0543 7.88526 10.9768 7.88526Z" fill="#04838A"/>
<path fill-rule="evenodd" clip-rule="evenodd" d="M5.70015 13.0062C5.62267 13.0062 5.54402 12.9864 5.47211 12.9448L0.991901 10.3582C0.773241 10.232 0.698415 9.95247 0.824646 9.73389C0.950877 9.51523 1.2305 9.44057 1.44891 9.56664L5.92911 12.1533C6.14769 12.2795 6.2226 12.5591 6.09637 12.7776C6.01166 12.9241 5.85811 13.0062 5.70015 13.0062Z" fill="#04838A"/>
</g>
<defs>
<clipPath id="clip0_899_681">
<rect width="36" height="36" fill="white"/>
</clipPath>
</defs>
</svg>
