<svg width="64" height="64" viewBox="0 0 64 64" fill="none" xmlns="http://www.w3.org/2000/svg">
<path d="M44 21H20V43H44V21Z" fill="white"/>
<path d="M27 12H25V18H27V12Z" fill="#68326F"/>
<path d="M27 8H25V10H27V8Z" fill="#68326F"/>
<path d="M31 14H29V18H31V14Z" fill="#68326F"/>
<path d="M31 10H29V12H31V10Z" fill="#68326F"/>
<path d="M39 12H37V18H39V12Z" fill="#68326F"/>
<path d="M39 8H37V10H39V8Z" fill="#68326F"/>
<path d="M35 14H33V18H35V14Z" fill="#68326F"/>
<path d="M35 10H33V12H35V10Z" fill="#68326F"/>
<path d="M17 37H11V39H17V37Z" fill="#68326F"/>
<path d="M9 37H7V39H9V37Z" fill="#68326F"/>
<path d="M17 33H13V35H17V33Z" fill="#68326F"/>
<path d="M11 33H9V35H11V33Z" fill="#68326F"/>
<path d="M17 25H11V27H17V25Z" fill="#68326F"/>
<path d="M9 25H7V27H9V25Z" fill="#68326F"/>
<path d="M17 29H13V31H17V29Z" fill="#68326F"/>
<path d="M11 29H9V31H11V29Z" fill="#68326F"/>
<path d="M39 46H37V52H39V46Z" fill="#68326F"/>
<path d="M39 54H37V56H39V54Z" fill="#68326F"/>
<path d="M35 46H33V50H35V46Z" fill="#68326F"/>
<path d="M35 52H33V54H35V52Z" fill="#68326F"/>
<path d="M27 46H25V52H27V46Z" fill="#68326F"/>
<path d="M27 54H25V56H27V54Z" fill="#68326F"/>
<path d="M31 46H29V50H31V46Z" fill="#68326F"/>
<path d="M31 52H29V54H31V52Z" fill="#68326F"/>
<path d="M53 25H47V27H53V25Z" fill="#68326F"/>
<path d="M57 25H55V27H57V25Z" fill="#68326F"/>
<path d="M51 29H47V31H51V29Z" fill="#68326F"/>
<path d="M55 29H53V31H55V29Z" fill="#68326F"/>
<path d="M53 37H47V39H53V37Z" fill="#68326F"/>
<path d="M57 37H55V39H57V37Z" fill="#68326F"/>
<path d="M51 33H47V35H51V33Z" fill="#68326F"/>
<path d="M55 33H53V35H55V33Z" fill="#68326F"/>
<path d="M19 44H45V20H19V44ZM21 22H43V42H21V22Z" fill="#68326F"/>
<path d="M23 40H41V24H23V40ZM25 26H39V38H25V26Z" fill="#68326F"/>
<path d="M37 28H35V36H37V28Z" fill="#68326F"/>
<path d="M27 36H29V34H31V36H33V28H27V36ZM31 30V32H29V30H31Z" fill="#68326F"/>
<path d="M63 32C63 29.181 61.949 26.536 60.027 24.49C60.669 21.757 60.256 18.941 58.846 16.5C57.437 14.059 55.204 12.294 52.517 11.482C51.705 8.794 49.941 6.562 47.499 5.152C45.059 3.743 42.245 3.333 39.509 3.971C37.464 2.051 34.82 1 32 1C29.18 1 26.536 2.051 24.49 3.972C21.757 3.333 18.942 3.743 16.5 5.153C14.059 6.563 12.294 8.795 11.482 11.483C8.794 12.295 6.562 14.06 5.153 16.501C3.743 18.942 3.331 21.758 3.972 24.491C2.051 26.536 1 29.181 1 32C1 34.819 2.051 37.464 3.973 39.51C3.331 42.243 3.744 45.058 5.154 47.5C6.563 49.941 8.796 51.706 11.483 52.518C12.295 55.206 14.059 57.438 16.501 58.848C18.943 60.258 21.758 60.669 24.491 60.029C26.536 61.949 29.18 63 32 63C34.82 63 37.464 61.949 39.51 60.028C42.246 60.668 45.06 60.257 47.5 58.847C49.941 57.437 51.706 55.205 52.518 52.517C55.206 51.705 57.438 49.941 58.847 47.499C60.257 45.057 60.669 42.242 60.028 39.509C61.949 37.464 63 34.819 63 32ZM57.956 39.491C58.647 41.873 58.349 44.363 57.114 46.5C55.881 48.637 53.875 50.14 51.466 50.732L50.878 50.877L50.733 51.465C50.14 53.875 48.636 55.882 46.5 57.115C44.362 58.348 41.872 58.648 39.491 57.956L38.909 57.787L38.49 58.225C36.773 60.014 34.469 61 32 61C29.531 61 27.227 60.014 25.51 58.224L25.091 57.786L24.509 57.955C22.128 58.648 19.639 58.349 17.5 57.114C15.363 55.881 13.859 53.874 13.267 51.464L13.122 50.876L12.534 50.731C10.125 50.139 8.119 48.636 6.886 46.499C5.652 44.361 5.353 41.872 6.044 39.49L6.213 38.908L5.776 38.49C3.986 36.773 3 34.468 3 32C3 29.532 3.986 27.227 5.776 25.51L6.213 25.091L6.044 24.509C5.353 22.126 5.651 19.637 6.886 17.5C8.119 15.363 10.125 13.86 12.535 13.267L13.122 13.122L13.267 12.534C13.86 10.124 15.364 8.118 17.5 6.885C19.637 5.651 22.126 5.351 24.509 6.044L25.091 6.213L25.51 5.775C27.227 3.986 29.531 3 32 3C34.469 3 36.773 3.986 38.49 5.776L38.909 6.214L39.491 6.045C41.873 5.354 44.362 5.652 46.5 6.886C48.637 8.119 50.141 10.126 50.733 12.535L50.878 13.123L51.465 13.268C53.875 13.861 55.881 15.364 57.114 17.501C58.348 19.639 58.647 22.127 57.956 24.51L57.787 25.092L58.224 25.511C60.014 27.227 61 29.532 61 32C61 34.468 60.014 36.773 58.224 38.49L57.787 38.909L57.956 39.491Z" fill="#68326F"/>
</svg>
