<svg width="48" height="48" viewBox="0 0 48 48" fill="none" xmlns="http://www.w3.org/2000/svg">
<g clip-path="url(#clip0_465_111893)">
<path d="M48 24.0071C48 28.7543 46.5923 33.3949 43.9548 37.3421C41.3174 41.2892 37.5688 44.3657 33.1829 46.1823C28.7971 47.999 23.971 48.4743 19.315 47.5482C14.659 46.6221 10.3822 44.3361 7.02539 40.9793C3.6686 37.6225 1.38258 33.3457 0.456448 28.6897C-0.469688 24.0337 0.0056402 19.2076 1.82232 14.8218C3.639 10.4359 6.71544 6.68724 10.6626 4.04983C14.6098 1.41241 19.2504 0.00470017 23.9976 0.00470017C27.1498 0.00408094 30.2713 0.624496 33.1836 1.83051C36.096 3.03652 38.7423 4.8045 40.9712 7.03345C43.2002 9.26239 44.9682 11.9086 46.1742 14.821C47.3802 17.7334 48.0006 20.8548 48 24.0071Z" fill="#253E7D"/>
<path d="M26.4771 38.2756C26.4771 38.7687 26.3309 39.2508 26.0569 39.6609C25.7829 40.071 25.3934 40.3906 24.9378 40.5793C24.4822 40.768 23.9808 40.8174 23.4971 40.7212C23.0134 40.625 22.5691 40.3875 22.2203 40.0388C21.8716 39.69 21.6341 39.2457 21.5379 38.762C21.4417 38.2783 21.4911 37.7769 21.6798 37.3213C21.8685 36.8657 22.1881 36.4762 22.5982 36.2022C23.0083 35.9282 23.4904 35.782 23.9836 35.782C24.6449 35.782 25.2791 36.0447 25.7468 36.5123C26.2144 36.98 26.4771 37.6142 26.4771 38.2756Z" fill="#C4D1F2"/>
<path d="M23.9929 14.8954C21.7426 14.8954 19.5845 15.7893 17.9933 17.3805C16.4021 18.9717 15.5082 21.1299 15.5082 23.3801C15.5082 27.5188 17.9735 28.009 20.0475 30.8844C20.4105 31.3841 21.0704 34.8062 21.0704 34.8062H26.873C26.873 34.8062 27.5141 31.3699 27.9006 30.8844C29.6164 28.7208 32.4399 27.6131 32.4399 23.3801C32.44 21.1364 31.5512 18.9839 29.9682 17.3938C28.3851 15.8037 26.2367 14.9054 23.9929 14.8954Z" fill="#FFDB4B"/>
<path d="M24.7141 11.8739C24.7141 12.0814 24.6317 12.2805 24.4849 12.4272C24.3382 12.5739 24.1391 12.6564 23.9316 12.6564C23.8285 12.657 23.7262 12.6372 23.6307 12.5982C23.5352 12.5591 23.4484 12.5016 23.3753 12.4289C23.3021 12.3561 23.244 12.2697 23.2044 12.1744C23.1648 12.0792 23.1444 11.9771 23.1444 11.8739V8.01334C23.1457 7.80539 23.2291 7.60637 23.3766 7.45976C23.5241 7.31315 23.7236 7.23086 23.9316 7.23087C24.1388 7.2321 24.3371 7.31494 24.4835 7.46141C24.63 7.60789 24.7128 7.8062 24.7141 8.01334V11.8739Z" fill="#FFDB4B"/>
<path d="M16.7055 14.5796C16.7783 14.6523 16.8361 14.7386 16.8755 14.8336C16.9149 14.9287 16.9353 15.0306 16.9353 15.1335C16.9353 15.2363 16.9149 15.3382 16.8755 15.4333C16.8361 15.5283 16.7783 15.6146 16.7055 15.6873C16.6328 15.7601 16.5465 15.8179 16.4514 15.8574C16.3564 15.8968 16.2545 15.9171 16.1516 15.9171C16.0487 15.9171 15.9469 15.8968 15.8518 15.8574C15.7568 15.8179 15.6704 15.7601 15.5978 15.6873L12.8779 12.9769C12.8051 12.9042 12.7473 12.8179 12.7079 12.7229C12.6685 12.6278 12.6482 12.5259 12.6482 12.4231C12.6482 12.3202 12.6685 12.2183 12.7079 12.1232C12.7473 12.0282 12.8051 11.9419 12.8779 11.8692C13.0259 11.7244 13.2247 11.6433 13.4318 11.6433C13.6389 11.6433 13.8377 11.7244 13.9857 11.8692L16.7055 14.5796Z" fill="#FFDB4B"/>
<path d="M12.9722 22.1876C13.1797 22.1876 13.3788 22.27 13.5255 22.4167C13.6723 22.5635 13.7547 22.7625 13.7547 22.97C13.7553 23.0732 13.7355 23.1755 13.6965 23.2709C13.6574 23.3664 13.5999 23.4532 13.5272 23.5264C13.4545 23.5996 13.368 23.6576 13.2728 23.6972C13.1775 23.7368 13.0754 23.7572 12.9722 23.7572H9.10695C8.89899 23.756 8.69997 23.6725 8.55336 23.525C8.40675 23.3775 8.32446 23.178 8.32446 22.97C8.3257 22.7629 8.40854 22.5646 8.55501 22.4181C8.70149 22.2716 8.8998 22.1888 9.10695 22.1876H12.9722Z" fill="#FFDB4B"/>
<path d="M15.7062 30.1962C15.7789 30.1234 15.8652 30.0656 15.9603 30.0262C16.0553 29.9868 16.1572 29.9665 16.2601 29.9665C16.3629 29.9665 16.4648 29.9868 16.5599 30.0262C16.6549 30.0656 16.7412 30.1234 16.8139 30.1962C16.8868 30.2689 16.9445 30.3552 16.984 30.4503C17.0234 30.5453 17.0437 30.6472 17.0437 30.7501C17.0437 30.853 17.0234 30.9548 16.984 31.0499C16.9445 31.1449 16.8868 31.2313 16.8139 31.3039L14.0847 34.0332C14.012 34.106 13.9257 34.1638 13.8306 34.2032C13.7356 34.2427 13.6337 34.2629 13.5308 34.2629C13.4279 34.2629 13.326 34.2427 13.231 34.2032C13.136 34.1638 13.0496 34.106 12.9769 34.0332C12.9041 33.9605 12.8463 33.8742 12.8069 33.7791C12.7675 33.6841 12.7472 33.5822 12.7472 33.4793C12.7472 33.3764 12.7675 33.2746 12.8069 33.1795C12.8463 33.0845 12.9041 32.9981 12.9769 32.9255L15.7062 30.1962Z" fill="#FFDB4B"/>
<path d="M31.2945 31.2049C31.2216 31.1323 31.1638 31.0459 31.1244 30.9509C31.085 30.8559 31.0647 30.754 31.0647 30.6511C31.0647 30.5482 31.085 30.4463 31.1244 30.3513C31.1638 30.2562 31.2216 30.1699 31.2945 30.0972C31.3671 30.0244 31.4535 29.9666 31.5485 29.9272C31.6435 29.8878 31.7454 29.8675 31.8483 29.8675C31.9512 29.8675 32.0531 29.8878 32.1481 29.9272C32.2432 29.9666 32.3295 30.0244 32.4022 30.0972L35.1314 32.8265C35.2774 32.9739 35.3593 33.1729 35.3593 33.3803C35.3593 33.5878 35.2774 33.7868 35.1314 33.9342C34.984 34.0801 34.785 34.162 34.5776 34.162C34.3701 34.162 34.1711 34.0801 34.0237 33.9342L31.2945 31.2049Z" fill="#FFDB4B"/>
<path d="M35.0325 23.6158C34.825 23.6158 34.6259 23.5334 34.4792 23.3866C34.3325 23.2399 34.25 23.0409 34.25 22.8333C34.2494 22.7302 34.2692 22.6279 34.3082 22.5324C34.3473 22.437 34.4048 22.3502 34.4775 22.277C34.5503 22.2038 34.6367 22.1458 34.732 22.1062C34.8272 22.0665 34.9293 22.0461 35.0325 22.0461H38.893C39.101 22.0474 39.3 22.1309 39.4466 22.2784C39.5932 22.4259 39.6755 22.6254 39.6755 22.8333C39.6743 23.0413 39.5908 23.2403 39.4433 23.3869C39.2958 23.5335 39.0963 23.6158 38.8883 23.6158H35.0325Z" fill="#FFDB4B"/>
<path d="M32.3033 15.6072C32.2306 15.68 32.1443 15.7378 32.0493 15.7772C31.9542 15.8166 31.8523 15.8369 31.7494 15.8369C31.6465 15.8369 31.5447 15.8166 31.4496 15.7772C31.3546 15.7378 31.2682 15.68 31.1956 15.6072C31.1227 15.5345 31.065 15.4482 31.0255 15.3531C30.9861 15.2581 30.9658 15.1562 30.9658 15.0533C30.9658 14.9504 30.9861 14.8485 31.0255 14.7535C31.065 14.6585 31.1227 14.5721 31.1956 14.4995L33.9248 11.7513C34.0722 11.6054 34.2713 11.5235 34.4787 11.5235C34.6861 11.5235 34.8852 11.6054 35.0326 11.7513C35.1774 11.8993 35.2585 12.0982 35.2585 12.3052C35.2585 12.5123 35.1774 12.7111 35.0326 12.8591L32.3033 15.6072Z" fill="#FFDB4B"/>
<path d="M17.8274 24.1721C17.5774 24.1721 17.3376 24.0727 17.1608 23.8959C16.984 23.7191 16.8846 23.4793 16.8846 23.2293C16.8884 21.4332 17.6048 19.712 18.8766 18.4438C20.1484 17.1755 21.8716 16.4638 23.6677 16.4651C23.9178 16.4651 24.1575 16.5644 24.3343 16.7412C24.5111 16.918 24.6105 17.1578 24.6105 17.4078C24.6105 17.6579 24.5111 17.8977 24.3343 18.0745C24.1575 18.2513 23.9178 18.3506 23.6677 18.3506C22.3679 18.3518 21.1217 18.8687 20.2026 19.7878C19.2836 20.7069 18.7667 21.9531 18.7654 23.2529C18.7593 23.498 18.6579 23.7311 18.4828 23.9027C18.3077 24.0743 18.0726 24.1709 17.8274 24.1721Z" fill="white"/>
<path d="M26.8354 35.2917H21.1459V38.5537H26.8354V35.2917Z" fill="#C4D1F2"/>
<path d="M27.3633 36.951C27.3633 37.0176 27.3501 37.0836 27.3244 37.1451C27.2988 37.2066 27.2612 37.2624 27.2139 37.3093C27.1665 37.3562 27.1104 37.3933 27.0486 37.4183C26.9869 37.4434 26.9208 37.456 26.8542 37.4554H21.1128C20.9786 37.4554 20.8499 37.4024 20.7545 37.3079C20.6592 37.2135 20.605 37.0852 20.6038 36.951C20.605 36.8168 20.6592 36.6885 20.7545 36.5941C20.8499 36.4996 20.9786 36.4466 21.1128 36.4466H26.8542C26.9208 36.446 26.9869 36.4586 27.0486 36.4837C27.1104 36.5087 27.1665 36.5458 27.2139 36.5927C27.2612 36.6396 27.2988 36.6954 27.3244 36.7569C27.3501 36.8184 27.3633 36.8844 27.3633 36.951Z" fill="white"/>
<path d="M27.3633 38.6432C27.3633 38.7782 27.3096 38.9077 27.2141 39.0032C27.1187 39.0987 26.9892 39.1523 26.8542 39.1523H21.1128C20.9778 39.1523 20.8483 39.0987 20.7529 39.0032C20.6574 38.9077 20.6038 38.7782 20.6038 38.6432C20.605 38.509 20.6592 38.3807 20.7545 38.2863C20.8499 38.1918 20.9786 38.1388 21.1128 38.1388H26.8542C26.9208 38.1382 26.9869 38.1508 27.0486 38.1759C27.1104 38.2009 27.1665 38.238 27.2139 38.2849C27.2612 38.3318 27.2988 38.3876 27.3244 38.4491C27.3501 38.5106 27.3633 38.5766 27.3633 38.6432Z" fill="white"/>
<path d="M27.3585 35.2918C27.3592 35.3584 27.3466 35.4245 27.3215 35.4862C27.2964 35.548 27.2594 35.6041 27.2125 35.6515C27.1656 35.6988 27.1098 35.7364 27.0483 35.762C26.9868 35.7877 26.9208 35.8009 26.8542 35.8009H21.1128C20.9778 35.8009 20.8483 35.7472 20.7529 35.6517C20.6574 35.5563 20.6038 35.4268 20.6038 35.2918C20.6038 35.1568 20.6574 35.0273 20.7529 34.9318C20.8483 34.8363 20.9778 34.7827 21.1128 34.7827H26.8542C26.9208 34.7827 26.9868 34.7959 27.0483 34.8215C27.1098 34.8472 27.1656 34.8847 27.2125 34.9321C27.2594 34.9794 27.2964 35.0356 27.3215 35.0973C27.3466 35.159 27.3592 35.2251 27.3585 35.2918Z" fill="white"/>
<path d="M25.1336 24.271V34.7827H22.8616V24.271C22.8616 23.9695 22.9801 23.68 23.1915 23.465C23.3504 23.305 23.5533 23.1959 23.7744 23.1516C23.9955 23.1073 24.2248 23.1298 24.4331 23.2162C24.6413 23.3027 24.8192 23.4491 24.9439 23.637C25.0687 23.8248 25.1347 24.0455 25.1336 24.271Z" fill="white"/>
</g>
<defs>
<clipPath id="clip0_465_111893">
<rect width="48" height="48" fill="white"/>
</clipPath>
</defs>
</svg>
