<svg width="64" height="59" viewBox="0 0 64 59" fill="none" xmlns="http://www.w3.org/2000/svg">
<path d="M27.125 18.1092C16.625 18.1092 8.125 26.5132 8.125 37.0494C8.125 47.5857 16.625 55.9896 27.125 55.9896C37.5 55.9896 46 47.5857 46 37.0494C46 26.5132 37.5 18.1092 27.125 18.1092ZM27.875 9.83072C29.875 9.95615 29.75 12.9665 27.75 12.8411C14.25 12.4648 3 23.3774 3 37.0494C3 39.0563 0 39.0563 0 37.0494C0 21.7467 12.625 9.45442 27.875 9.83072ZM25.625 22.4993C25.625 22.123 25.75 21.7467 26 21.4959C26.25 21.245 26.625 20.9942 27.125 20.9942C35.875 20.9942 43 28.1438 43 37.0494C43 45.8297 35.875 53.1047 27.125 53.1047C18.25 53.1047 11.125 45.8297 11.125 37.0494C11.125 36.5477 11.25 36.1714 11.5 35.9205C11.75 35.6697 12.125 35.5442 12.625 35.5442H22.25C22.5 34.7917 22.875 34.0391 23.5 33.4119C24.125 32.7847 24.875 32.4085 25.625 32.1576V22.4993ZM28.625 24.1299V32.1576C30.5 32.7847 32.125 34.6662 32.125 37.0494C32.125 41.565 26.75 43.8227 23.5 40.687C22.875 40.0598 22.5 39.3072 22.25 38.5546H14.25C15.375 49.0909 28.5 54.1082 36.25 46.206C44 38.4292 39.125 25.2588 28.625 24.1299ZM27.125 34.9171C24.375 34.9171 24.375 39.0563 27.125 39.0563C29.75 39.0563 29.75 34.9171 27.125 34.9171ZM61.375 32.5339C60.375 34.2899 57.75 32.7847 58.75 31.0287L59.375 29.8998L48.625 32.7847C50 39.8089 48 47.2094 42.625 52.603C34 61.1323 20.125 61.1323 11.625 52.603C3 43.9482 3 30.0252 11.625 21.4959C17 16.1023 24.375 14.0954 31.25 15.4752L34.25 4.56258L33.125 5.31517C31.375 6.31863 29.875 3.68456 31.625 2.68111L35.625 0.297901C35.75 0.172469 36 0.0470369 36.25 0.0470369C36.75 -0.0783949 37.25 0.0470369 37.5 0.423332C37.75 0.548764 37.875 0.674196 38 0.92506L40.375 5.06431C41.25 6.69492 38.75 8.20011 37.75 6.56949L37.125 5.44061L34.25 16.2277C36.875 17.1058 39.25 18.4855 41.5 20.4924L49.375 12.5902H48.125C46.125 12.5902 46.125 9.57986 48.125 9.57986H52.75C53 9.45442 53.375 9.57986 53.625 9.57986C54 9.83072 54.25 10.0816 54.375 10.4579C54.5 10.7087 54.5 10.9596 54.5 11.3359V15.9769C54.5 17.9838 51.5 17.9838 51.5 15.9769V14.5971L43.625 22.6248C45.5 24.7571 46.875 27.2657 47.875 29.8998L58.625 27.0149L57.5 26.3877C55.75 25.3843 57.25 22.7502 59 23.7537L63 26.1369C63.25 26.1369 63.5 26.3877 63.625 26.5132C63.875 26.8895 64 27.3912 64 27.7675C63.875 28.0183 63.875 28.2692 63.625 28.5201L61.375 32.5339Z" fill="#68326F"/>
</svg>
