<svg width="48" height="48" viewBox="0 0 48 48" fill="none" xmlns="http://www.w3.org/2000/svg">
<g clip-path="url(#clip0_465_111830)">
<path d="M20.3161 16.7581V8.89599L14.2822 4.28763" stroke="#2C2C2C" stroke-width="2" stroke-linecap="round" stroke-linejoin="round"/>
<path d="M14.7862 3.49854C14.6225 4.07199 14.2372 4.55724 13.7147 4.84765C13.1923 5.13806 12.5755 5.20988 12 5.04732C11.715 4.96752 11.4485 4.8324 11.216 4.64971C10.9835 4.46702 10.7895 4.24036 10.6451 3.98275C10.5007 3.72513 10.4088 3.44163 10.3746 3.14852C10.3405 2.8554 10.3647 2.55845 10.446 2.27471C10.5261 1.99054 10.6617 1.7249 10.8449 1.493C11.0281 1.2611 11.2555 1.06749 11.5138 0.923242C11.7722 0.778996 12.0566 0.686946 12.3508 0.652364C12.6449 0.617781 12.943 0.641344 13.2279 0.721703C13.8035 0.884877 14.2906 1.26876 14.5827 1.78925C14.8748 2.30974 14.9479 2.92439 14.7862 3.49854Z" fill="white"/>
<g style="mix-blend-mode:multiply">
<path d="M13.4269 3.11028C13.2388 3.05726 13.0631 2.96779 12.9098 2.847C12.7565 2.72621 12.6286 2.57646 12.5334 2.40634C12.4382 2.23622 12.3776 2.04905 12.3551 1.85557C12.3326 1.66208 12.3486 1.46607 12.4022 1.27875C12.4719 1.03711 12.6032 0.817566 12.7833 0.641512C12.2641 0.600732 11.7468 0.740857 11.3197 1.03795C10.8927 1.33505 10.5823 1.77069 10.4417 2.27047C10.361 2.55422 10.3372 2.85104 10.3716 3.14396C10.406 3.43689 10.498 3.72018 10.6424 3.97766C10.7867 4.23514 10.9805 4.46176 11.2127 4.64457C11.4449 4.82738 11.711 4.9628 11.9957 5.04309C12.5712 5.20565 13.188 5.13384 13.7104 4.84342C14.2329 4.55301 14.6182 4.06777 14.7819 3.49431C14.8495 3.25431 14.8738 3.00427 14.8539 2.75579C14.6673 2.93316 14.4376 3.05911 14.1875 3.12126C13.9373 3.18342 13.6752 3.17963 13.4269 3.11028Z" fill="#93479C"/>
</g>
<path d="M14.7862 3.49854C14.6225 4.07199 14.2372 4.55724 13.7147 4.84765C13.1923 5.13806 12.5755 5.20988 12 5.04732C11.715 4.96752 11.4485 4.8324 11.216 4.64971C10.9835 4.46702 10.7895 4.24036 10.6451 3.98275C10.5007 3.72513 10.4088 3.44163 10.3746 3.14852C10.3405 2.8554 10.3647 2.55845 10.446 2.27471C10.5261 1.99054 10.6617 1.7249 10.8449 1.493C11.0281 1.2611 11.2555 1.06749 11.5138 0.923242C11.7722 0.778996 12.0566 0.686946 12.3508 0.652364C12.6449 0.617781 12.943 0.641344 13.2279 0.721703C13.8035 0.884877 14.2906 1.26876 14.5827 1.78925C14.8748 2.30974 14.9479 2.92439 14.7862 3.49854Z" stroke="#2C2C2C" stroke-width="2" stroke-linecap="round" stroke-linejoin="round"/>
<path d="M28.3613 16.7581V8.89599L34.3952 4.28763" stroke="#2C2C2C" stroke-width="2" stroke-linecap="round" stroke-linejoin="round"/>
<path d="M35.4918 0.725966C34.9137 0.877737 34.4194 1.25154 34.1171 1.7656C33.8147 2.27966 33.729 2.89213 33.8786 3.46904C33.9535 3.75511 34.0842 4.02366 34.2633 4.25934C34.4424 4.49501 34.6664 4.69318 34.9224 4.84251C35.1784 4.99184 35.4615 5.08941 35.7553 5.12963C36.0492 5.16985 36.3482 5.15193 36.6351 5.07691C36.9216 5.00229 37.1905 4.87211 37.4265 4.69381C37.6624 4.51552 37.8608 4.29262 38.0102 4.03785C38.1597 3.78308 38.2573 3.50144 38.2974 3.20905C38.3375 2.91666 38.3194 2.61925 38.2441 2.33383C38.1697 2.04793 38.0394 1.77946 37.8607 1.54382C37.682 1.30819 37.4585 1.11001 37.2028 0.960649C36.9471 0.811285 36.6644 0.713671 36.3708 0.673401C36.0772 0.633131 35.7785 0.65099 35.4918 0.725966Z" fill="white"/>
<g style="mix-blend-mode:multiply">
<path d="M35.8687 2.08063C35.918 2.26919 36.0041 2.44621 36.1221 2.60155C36.2401 2.75689 36.3877 2.8875 36.5565 2.9859C36.7252 3.0843 36.9118 3.14854 37.1055 3.17497C37.2992 3.20139 37.4962 3.18946 37.6852 3.13988C37.9315 3.07521 38.1564 2.94714 38.3373 2.76851C38.3656 3.28847 38.2123 3.80214 37.9035 4.2222C37.5948 4.64226 37.1496 4.94278 36.6436 5.07269C36.357 5.14767 36.0583 5.16553 35.7647 5.12526C35.4711 5.08499 35.1884 4.98738 34.9327 4.83801C34.677 4.68865 34.4534 4.49047 34.2747 4.25484C34.096 4.0192 33.9657 3.75074 33.8913 3.46483C33.816 3.17941 33.7979 2.88201 33.838 2.58961C33.8782 2.29722 33.9758 2.01559 34.1252 1.76081C34.2747 1.50604 34.473 1.28313 34.709 1.10484C34.945 0.92655 35.2139 0.796374 35.5004 0.721757C35.7439 0.661771 35.9959 0.64322 36.2456 0.666893C36.0647 0.849411 35.9347 1.07587 35.8686 1.32384C35.8025 1.57181 35.8026 1.83269 35.8687 2.08063Z" fill="#93479C"/>
</g>
<path d="M35.4918 0.725966C34.9137 0.877737 34.4194 1.25154 34.1171 1.7656C33.8147 2.27966 33.729 2.89213 33.8786 3.46904C33.9535 3.75511 34.0842 4.02366 34.2633 4.25934C34.4424 4.49501 34.6664 4.69318 34.9224 4.84251C35.1784 4.99184 35.4615 5.08941 35.7553 5.12963C36.0492 5.16985 36.3482 5.15193 36.6351 5.07691C36.9216 5.00229 37.1905 4.87211 37.4265 4.69381C37.6624 4.51552 37.8608 4.29262 38.0102 4.03785C38.1597 3.78308 38.2573 3.50144 38.2974 3.20905C38.3375 2.91666 38.3194 2.61925 38.2441 2.33383C38.1697 2.04793 38.0394 1.77946 37.8607 1.54382C37.6821 1.30819 37.4585 1.11001 37.2028 0.960649C36.9471 0.811285 36.6644 0.713671 36.3708 0.673401C36.0772 0.633131 35.7785 0.65099 35.4918 0.725966Z" stroke="#2C2C2C" stroke-width="2" stroke-linecap="round" stroke-linejoin="round"/>
<path d="M26.5533 3.22422C26.4623 3.80713 26.1448 4.33092 25.6694 4.68235C25.1939 5.03377 24.5988 5.18458 24.0127 5.10216C23.7202 5.0569 23.4394 4.95461 23.1866 4.80112C22.9337 4.64764 22.7136 4.44598 22.539 4.20768C22.3644 3.96937 22.2387 3.6991 22.1689 3.41232C22.0992 3.12553 22.0869 2.82786 22.1327 2.53634C22.1776 2.24437 22.2799 1.9641 22.4337 1.7116C22.5875 1.4591 22.7897 1.23933 23.0289 1.06487C23.268 0.890418 23.5394 0.764709 23.8274 0.694957C24.1154 0.625205 24.4143 0.612779 24.7072 0.658388C25.2918 0.757717 25.8136 1.08285 26.1592 1.56322C26.5049 2.04359 26.6465 2.64044 26.5533 3.22422Z" fill="white"/>
<g style="mix-blend-mode:multiply">
<path d="M25.1772 2.98783C24.7882 2.92754 24.4392 2.71596 24.2066 2.39949C23.974 2.08303 23.8769 1.68754 23.9365 1.29979C23.9779 1.04971 24.0829 0.814366 24.2414 0.616135C23.7232 0.64194 23.2298 0.844864 22.8442 1.19075C22.4586 1.53663 22.2044 2.00435 22.1242 2.51518C22.0784 2.80727 22.0909 3.10548 22.1608 3.39277C22.2307 3.68007 22.3568 3.95081 22.5318 4.1895C22.7068 4.42819 22.9273 4.63016 23.1807 4.78386C23.4341 4.93756 23.7154 5.03997 24.0085 5.08523C24.5959 5.16877 25.1926 5.01795 25.6691 4.66554C26.1456 4.31313 26.4633 3.78759 26.5533 3.20306C26.5957 2.95729 26.5957 2.7061 26.5533 2.46032C26.3903 2.66063 26.1774 2.81477 25.9359 2.90735C25.6944 2.99992 25.4328 3.02768 25.1772 2.98783Z" fill="#93479C"/>
</g>
<path d="M26.5533 3.22422C26.4623 3.80713 26.1448 4.33092 25.6694 4.68235C25.1939 5.03377 24.5988 5.18458 24.0127 5.10216C23.7202 5.0569 23.4394 4.95461 23.1866 4.80112C22.9337 4.64764 22.7136 4.44598 22.539 4.20768C22.3644 3.96937 22.2387 3.6991 22.1689 3.41232C22.0992 3.12553 22.0869 2.82786 22.1327 2.53634C22.1776 2.24437 22.2799 1.9641 22.4337 1.7116C22.5875 1.4591 22.7897 1.23933 23.0289 1.06487C23.268 0.890418 23.5394 0.764709 23.8274 0.694957C24.1154 0.625205 24.4143 0.612779 24.7072 0.658388C25.2918 0.757717 25.8136 1.08285 26.1592 1.56322C26.5049 2.04359 26.6465 2.64044 26.5533 3.22422Z" stroke="#2C2C2C" stroke-width="2" stroke-linecap="round" stroke-linejoin="round"/>
<path d="M24.3387 16.737V5.70981" stroke="#2C2C2C" stroke-width="2" stroke-linecap="round" stroke-linejoin="round"/>
<path d="M16.8144 27.57H8.92585L4.302 33.5836" stroke="#2C2C2C" stroke-width="2" stroke-linecap="round" stroke-linejoin="round"/>
<path d="M5.16576 35.3941C5.14745 35.6902 5.07065 35.9798 4.93974 36.2463C4.80884 36.5128 4.62642 36.7509 4.40296 36.947C4.1795 37.143 3.9194 37.2931 3.63758 37.3888C3.35575 37.4844 3.05775 37.5236 2.76069 37.5041C2.46354 37.4859 2.17295 37.4093 1.90557 37.2789C1.63819 37.1484 1.39928 36.9666 1.20257 36.7439C1.00586 36.5212 0.855227 36.2619 0.759293 35.981C0.663358 35.7002 0.624018 35.4032 0.643537 35.1071C0.684799 34.5123 0.961294 33.9582 1.41227 33.5665C1.86325 33.1748 2.4518 32.9776 3.04861 33.0181C3.64526 33.054 4.20327 33.3243 4.60018 33.7698C4.99709 34.2152 5.20049 34.7993 5.16576 35.3941Z" fill="white"/>
<g style="mix-blend-mode:multiply">
<path d="M3.76003 35.2759C3.56507 35.263 3.37458 35.212 3.19944 35.1257C3.0243 35.0394 2.86795 34.9195 2.73935 34.7729C2.61075 34.6263 2.51241 34.4559 2.44996 34.2713C2.38751 34.0868 2.36217 33.8919 2.3754 33.6976C2.39446 33.4454 2.47911 33.2025 2.621 32.9928C2.10397 33.0592 1.62616 33.3026 1.26931 33.6814C0.912466 34.0601 0.698754 34.5507 0.664742 35.0691C0.625205 35.6632 0.823643 36.2487 1.21654 36.6973C1.60944 37.1458 2.16474 37.4208 2.76072 37.4619C3.05803 37.4825 3.35648 37.4441 3.63879 37.3489C3.9211 37.2537 4.18165 37.1037 4.40535 36.9074C4.62905 36.7112 4.81144 36.4726 4.94198 36.2056C5.07252 35.9386 5.14859 35.6484 5.1658 35.3519C5.18076 35.1027 5.15212 34.8528 5.08112 34.6133C4.93872 34.8297 4.74163 35.0049 4.50971 35.1212C4.27779 35.2375 4.01922 35.2909 3.76003 35.2759Z" fill="#93479C"/>
</g>
<path d="M5.16576 35.3941C5.14745 35.6902 5.07065 35.9798 4.93974 36.2463C4.80884 36.5128 4.62642 36.7509 4.40296 36.947C4.1795 37.143 3.9194 37.2931 3.63758 37.3888C3.35575 37.4844 3.05775 37.5236 2.76069 37.5041C2.46354 37.4859 2.17295 37.4093 1.90557 37.2789C1.63819 37.1484 1.39928 36.9666 1.20257 36.7439C1.00586 36.5212 0.855227 36.2619 0.759293 35.981C0.663358 35.7002 0.624018 35.4032 0.643537 35.1071C0.684799 34.5123 0.961294 33.9582 1.41227 33.5665C1.86325 33.1748 2.4518 32.9776 3.04861 33.0181C3.64526 33.054 4.20327 33.3243 4.60018 33.7698C4.99709 34.2152 5.20049 34.7993 5.16576 35.3941Z" stroke="#2C2C2C" stroke-width="2" stroke-linecap="round" stroke-linejoin="round"/>
<path d="M16.8144 19.5518H8.92585L4.302 13.5381" stroke="#2C2C2C" stroke-width="2" stroke-linecap="round" stroke-linejoin="round"/>
<path d="M2.08325 9.78222C1.80713 9.88979 1.55509 10.0507 1.34162 10.2558C1.12816 10.4608 0.957484 10.7059 0.839422 10.9769C0.72136 11.2479 0.658248 11.5395 0.653706 11.835C0.649164 12.1304 0.703282 12.4238 0.812958 12.6983C0.921356 12.9732 1.08309 13.224 1.2889 13.4364C1.49471 13.6489 1.74056 13.8188 2.01236 13.9364C2.28415 14.054 2.57655 14.117 2.87281 14.1218C3.16907 14.1266 3.46337 14.0731 3.73886 13.9643C4.01513 13.8563 4.26726 13.695 4.48077 13.4896C4.69427 13.2841 4.86495 13.0387 4.98299 12.7673C5.10103 12.4959 5.1641 12.204 5.16859 11.9083C5.17308 11.6125 5.1189 11.3188 5.00915 11.044C4.78848 10.4905 4.35651 10.0467 3.80799 9.81016C3.25947 9.5736 2.63919 9.56355 2.08325 9.78222Z" fill="white"/>
<g style="mix-blend-mode:multiply">
<path d="M2.621 11.0947C2.69213 11.2765 2.7985 11.4425 2.93405 11.5834C3.06959 11.7242 3.23165 11.837 3.41096 11.9154C3.59027 11.9938 3.78331 12.0362 3.97907 12.0402C4.17482 12.0442 4.36945 12.0097 4.55184 11.9387C4.78811 11.8446 4.99545 11.6904 5.1531 11.4914C5.24553 12.0024 5.15773 12.5295 4.90458 12.9833C4.65143 13.4372 4.24853 13.7897 3.76425 13.9812C3.48876 14.09 3.19446 14.1434 2.8982 14.1386C2.60194 14.1338 2.30954 14.0708 2.03775 13.9532C1.76596 13.8356 1.52012 13.6657 1.31431 13.4533C1.10849 13.2409 0.946747 12.99 0.838348 12.7152C0.728673 12.4407 0.674555 12.1473 0.679097 11.8518C0.683639 11.5564 0.74675 11.2648 0.864813 10.9938C0.982875 10.7227 1.15355 10.4777 1.36702 10.2726C1.58048 10.0676 1.83252 9.90666 2.10864 9.79909C2.34335 9.71123 2.59066 9.66136 2.84118 9.65139C2.68216 9.85234 2.57826 10.091 2.53967 10.344C2.50107 10.597 2.5291 10.8557 2.621 11.0947Z" fill="#93479C"/>
</g>
<path d="M2.08325 9.78222C1.80713 9.88979 1.55509 10.0507 1.34162 10.2558C1.12816 10.4608 0.957484 10.7059 0.839422 10.9769C0.72136 11.2479 0.658248 11.5395 0.653706 11.835C0.649164 12.1304 0.703282 12.4238 0.812958 12.6983C0.921356 12.9732 1.08309 13.224 1.2889 13.4364C1.49471 13.6489 1.74056 13.8188 2.01236 13.9364C2.28415 14.054 2.57655 14.117 2.87281 14.1218C3.16907 14.1266 3.46337 14.0731 3.73886 13.9643C4.01513 13.8563 4.26726 13.695 4.48077 13.4896C4.69427 13.2841 4.86495 13.0387 4.98299 12.7673C5.10103 12.4959 5.1641 12.204 5.16859 11.9083C5.17308 11.6125 5.1189 11.3188 5.00915 11.044C4.78848 10.4905 4.35651 10.0467 3.80799 9.81016C3.25947 9.5736 2.63919 9.56355 2.08325 9.78222Z" stroke="#2C2C2C" stroke-width="2" stroke-linecap="round" stroke-linejoin="round"/>
<path d="M5.14462 23.6326C5.12362 24.2282 4.86681 24.7912 4.43036 25.1985C3.99392 25.6058 3.41338 25.8242 2.81575 25.806C2.21821 25.7851 1.65331 25.5291 1.24464 25.0941C0.835968 24.6591 0.616808 24.0805 0.635092 23.4849C0.65498 22.889 0.91145 22.3253 1.34814 21.9178C1.78484 21.5103 2.36602 21.2922 2.96396 21.3116C3.56188 21.3314 4.12743 21.587 4.53634 22.0222C4.94524 22.4575 5.16403 23.0367 5.14462 23.6326Z" fill="white"/>
<g style="mix-blend-mode:multiply">
<path d="M3.73885 23.5651C3.34423 23.5519 2.97101 23.3831 2.70109 23.0959C2.43118 22.8087 2.28663 22.4265 2.29919 22.0332C2.30937 21.7805 2.38524 21.5347 2.51937 21.32C2.00589 21.4053 1.53781 21.665 1.19441 22.0549C0.85101 22.4448 0.65342 22.9411 0.635117 23.4596C0.624943 23.7548 0.673319 24.0491 0.777479 24.3257C0.881639 24.6022 1.03953 24.8556 1.2421 25.0712C1.44468 25.2868 1.68797 25.4605 1.95801 25.5822C2.22805 25.7039 2.51954 25.7714 2.81578 25.7807C3.11178 25.7914 3.40698 25.7437 3.68444 25.6403C3.96189 25.537 4.21613 25.38 4.43253 25.1785C4.64894 24.9769 4.82325 24.7347 4.94546 24.4658C5.06767 24.1969 5.13535 23.9066 5.14464 23.6115C5.15085 23.3612 5.11507 23.1116 5.03878 22.873C4.90119 23.091 4.70892 23.2696 4.48095 23.3909C4.25299 23.5123 3.9972 23.5723 3.73885 23.5651Z" fill="#93479C"/>
</g>
<path d="M5.14462 23.6326C5.12362 24.2282 4.86681 24.7912 4.43036 25.1985C3.99392 25.6058 3.41338 25.8242 2.81575 25.806C2.21821 25.7851 1.65331 25.5291 1.24464 25.0941C0.835968 24.6591 0.616808 24.0805 0.635092 23.4849C0.65498 22.889 0.91145 22.3253 1.34814 21.9178C1.78484 21.5103 2.36602 21.2922 2.96396 21.3116C3.56188 21.3314 4.12743 21.587 4.53634 22.0222C4.94524 22.4575 5.16403 23.0367 5.14462 23.6326Z" stroke="#2C2C2C" stroke-width="2" stroke-linecap="round" stroke-linejoin="round"/>
<path d="M16.7932 23.5609H5.729" stroke="#2C2C2C" stroke-width="2" stroke-linecap="round" stroke-linejoin="round"/>
<path d="M31.1855 19.5518H39.074L43.6979 13.5381" stroke="#2C2C2C" stroke-width="2" stroke-linecap="round" stroke-linejoin="round"/>
<path d="M47.1955 12.6688C46.9838 13.2267 46.5583 13.6779 46.0128 13.9233C45.4673 14.1686 44.8463 14.1879 44.2865 13.977C44.0094 13.8726 43.7556 13.7147 43.5398 13.5123C43.324 13.31 43.1503 13.0673 43.0288 12.7979C42.9073 12.5286 42.8402 12.2381 42.8315 11.9429C42.8228 11.6477 42.8727 11.3537 42.9781 11.0778C43.1899 10.5199 43.6153 10.0686 44.1608 9.8233C44.7063 9.57797 45.3273 9.55864 45.8871 9.76955C46.4461 9.98141 46.8979 10.4057 47.1432 10.9493C47.3885 11.4929 47.4073 12.1114 47.1955 12.6688Z" fill="white"/>
<g style="mix-blend-mode:multiply">
<path d="M45.8871 12.1497C45.7055 12.0797 45.5395 11.9746 45.3986 11.8406C45.2578 11.7066 45.1448 11.5463 45.0662 11.3687C44.9875 11.1912 44.9447 11 44.9403 10.8059C44.9358 10.6119 44.9698 10.4189 45.0402 10.238C45.1278 10.0043 45.2735 9.79669 45.4637 9.63451C44.95 9.54953 44.4227 9.64487 43.9717 9.90424C43.5207 10.1636 43.174 10.5709 42.9908 11.0567C42.8854 11.3326 42.8355 11.6266 42.8442 11.9218C42.8529 12.217 42.92 12.5075 43.0415 12.7768C43.163 13.0462 43.3367 13.2889 43.5525 13.4912C43.7683 13.6936 44.0221 13.8515 44.2992 13.9559C44.8591 14.1657 45.4796 14.1458 46.0248 13.9006C46.57 13.6554 46.9955 13.2049 47.2082 12.6477C47.2924 12.4131 47.3381 12.1666 47.3437 11.9176C47.1426 12.08 46.9022 12.187 46.6465 12.2277C46.3909 12.2685 46.129 12.2416 45.8871 12.1497Z" fill="#93479C"/>
</g>
<path d="M47.1955 12.6688C46.9838 13.2267 46.5583 13.6779 46.0128 13.9233C45.4673 14.1686 44.8463 14.1879 44.2865 13.977C44.0094 13.8726 43.7556 13.7147 43.5398 13.5123C43.324 13.31 43.1503 13.0673 43.0288 12.7979C42.9073 12.5286 42.8402 12.2381 42.8315 11.9429C42.8228 11.6477 42.8727 11.3537 42.9781 11.0778C43.1899 10.5199 43.6153 10.0686 44.1608 9.8233C44.7063 9.57797 45.3273 9.55864 45.8871 9.76955C46.4461 9.98141 46.8979 10.4057 47.1432 10.9493C47.3885 11.4929 47.4073 12.1114 47.1955 12.6688Z" stroke="#2C2C2C" stroke-width="2" stroke-linecap="round" stroke-linejoin="round"/>
<path d="M31.1855 27.57H39.074L43.6979 33.5836" stroke="#2C2C2C" stroke-width="2" stroke-linecap="round" stroke-linejoin="round"/>
<path d="M45.0867 32.9928C44.7903 32.9928 44.4969 33.051 44.223 33.164C43.9492 33.2771 43.7004 33.4428 43.4909 33.6516C43.2813 33.8605 43.115 34.1085 43.0016 34.3814C42.8882 34.6543 42.8298 34.9468 42.8298 35.2421C42.8298 35.8387 43.0676 36.4108 43.4909 36.8327C43.9141 37.2545 44.4882 37.4915 45.0867 37.4915C45.6853 37.4915 46.2593 37.2545 46.6826 36.8327C47.1058 36.4108 47.3436 35.8387 47.3436 35.2421C47.3425 34.6459 47.1043 34.0745 46.6813 33.6529C46.2583 33.2313 45.6849 32.9939 45.0867 32.9928Z" fill="white"/>
<g style="mix-blend-mode:multiply">
<path d="M45.108 34.3981C45.108 34.7914 45.2644 35.1686 45.543 35.447C45.8216 35.7255 46.1996 35.8825 46.5942 35.8836C46.8482 35.8814 47.0974 35.8146 47.3183 35.6895C47.2148 36.1978 46.9382 36.6548 46.5354 36.9832C46.1326 37.3116 45.6283 37.4911 45.108 37.4915C44.8116 37.4915 44.5181 37.4333 44.2443 37.3202C43.9705 37.2072 43.7217 37.0415 43.5121 36.8327C43.3025 36.6238 43.1363 36.3758 43.0229 36.1029C42.9094 35.83 42.8511 35.5375 42.8511 35.2421C42.8511 34.9468 42.9094 34.6543 43.0229 34.3814C43.1363 34.1085 43.3025 33.8605 43.5121 33.6516C43.7217 33.4428 43.9705 33.2771 44.2443 33.164C44.5181 33.051 44.8116 32.9928 45.108 32.9928C45.3594 32.9965 45.6084 33.0421 45.8447 33.1279C45.6209 33.2566 45.4351 33.4418 45.3058 33.6647C45.1765 33.8877 45.1082 34.1406 45.108 34.3981Z" fill="#93479C"/>
</g>
<path d="M45.0867 32.9928C44.7903 32.9928 44.4969 33.051 44.223 33.164C43.9492 33.2771 43.7004 33.4428 43.4909 33.6516C43.2813 33.8605 43.115 34.1085 43.0016 34.3814C42.8882 34.6543 42.8298 34.9468 42.8298 35.2421C42.8298 35.8387 43.0676 36.4108 43.4909 36.8327C43.9141 37.2545 44.4882 37.4915 45.0867 37.4915C45.6853 37.4915 46.2593 37.2545 46.6826 36.8327C47.1058 36.4108 47.3436 35.8387 47.3436 35.2421C47.3425 34.6459 47.1043 34.0745 46.6813 33.6529C46.2583 33.2313 45.6849 32.9939 45.0867 32.9928Z" stroke="#2C2C2C" stroke-width="2" stroke-linecap="round" stroke-linejoin="round"/>
<path d="M47.1912 24.4176C47.0781 24.6925 46.9114 24.9424 46.7008 25.1528C46.4902 25.3631 46.2399 25.5298 45.9643 25.6432C45.6887 25.7566 45.3933 25.8145 45.0951 25.8135C44.797 25.8124 44.502 25.7525 44.2272 25.6372C43.9513 25.5245 43.7007 25.3583 43.4897 25.1484C43.2788 24.9384 43.1117 24.6888 42.9983 24.414C42.8849 24.1392 42.8273 23.8447 42.8289 23.5476C42.8305 23.2505 42.8913 22.9566 43.0077 22.6831C43.1208 22.4081 43.2875 22.1583 43.4981 21.9479C43.7087 21.7375 43.959 21.5708 44.2346 21.4574C44.5102 21.344 44.8056 21.2861 45.1038 21.2872C45.4019 21.2882 45.6969 21.3482 45.9717 21.4635C46.2476 21.5762 46.4982 21.7423 46.7092 21.9523C46.9201 22.1622 47.0872 22.4118 47.2006 22.6866C47.314 22.9614 47.3716 23.2559 47.37 23.553C47.3684 23.8502 47.3076 24.144 47.1912 24.4176Z" fill="white"/>
<g style="mix-blend-mode:multiply">
<path d="M45.8997 23.8605C45.7192 23.7861 45.5551 23.6769 45.417 23.5393C45.2788 23.4016 45.1692 23.2381 45.0945 23.0582C45.0198 22.8783 44.9814 22.6855 44.9815 22.4908C44.9816 22.2961 45.0203 22.1033 45.0952 21.9235C45.1917 21.6904 45.3479 21.4866 45.5483 21.3327C45.0375 21.2329 44.5079 21.3125 44.0494 21.558C43.5909 21.8034 43.2318 22.1994 43.0331 22.6789C42.9167 22.9524 42.8559 23.2463 42.8543 23.5434C42.8527 23.8405 42.9102 24.135 43.0237 24.4098C43.1371 24.6846 43.3041 24.9342 43.5151 25.1442C43.726 25.3541 43.9767 25.5203 44.2526 25.633C44.5274 25.7483 44.8224 25.8082 45.1205 25.8092C45.4187 25.8103 45.7141 25.7524 45.9897 25.639C46.2653 25.5256 46.5156 25.3589 46.7262 25.1485C46.9368 24.9382 47.1035 24.6883 47.2166 24.4133C47.3111 24.1822 47.3655 23.9368 47.3775 23.6875C47.1681 23.8432 46.9213 23.9412 46.6619 23.9716C46.4025 24.002 46.1396 23.9636 45.8997 23.8605Z" fill="#93479C"/>
</g>
<path d="M47.1912 24.4176C47.0781 24.6925 46.9114 24.9424 46.7008 25.1528C46.4902 25.3631 46.2399 25.5298 45.9643 25.6432C45.6887 25.7566 45.3933 25.8145 45.0951 25.8135C44.797 25.8124 44.502 25.7525 44.2272 25.6372C43.9513 25.5245 43.7007 25.3583 43.4897 25.1484C43.2788 24.9384 43.1117 24.6888 42.9983 24.414C42.8849 24.1392 42.8273 23.8447 42.8289 23.5476C42.8305 23.2505 42.8913 22.9566 43.0077 22.6831C43.1208 22.4081 43.2875 22.1583 43.4981 21.9479C43.7087 21.7375 43.959 21.5708 44.2346 21.4574C44.5102 21.344 44.8056 21.2861 45.1038 21.2872C45.4019 21.2882 45.6969 21.3482 45.9717 21.4635C46.2476 21.5762 46.4982 21.7423 46.7092 21.9523C46.9201 22.1622 47.0872 22.4118 47.2006 22.6866C47.314 22.9614 47.3716 23.2559 47.37 23.553C47.3684 23.8502 47.3076 24.144 47.1912 24.4176Z" stroke="#2C2C2C" stroke-width="2" stroke-linecap="round" stroke-linejoin="round"/>
<path d="M31.2068 23.5609H42.271" stroke="#2C2C2C" stroke-width="2" stroke-linecap="round" stroke-linejoin="round"/>
<path d="M28.3613 30.3806V38.2469L34.3952 42.8552" stroke="#2C2C2C" stroke-width="2" stroke-linecap="round" stroke-linejoin="round"/>
<path d="M38.2526 44.7754C38.1817 45.0621 38.0548 45.332 37.8791 45.5697C37.7034 45.8075 37.4824 46.0083 37.2287 46.1608C36.975 46.3133 36.6936 46.4144 36.4007 46.4584C36.1077 46.5023 35.8089 46.4883 35.5214 46.417C35.2335 46.3469 34.9623 46.2207 34.7235 46.0457C34.4847 45.8707 34.2829 45.6504 34.1298 45.3975C33.9767 45.1445 33.8754 44.8638 33.8315 44.5717C33.7877 44.2795 33.8022 43.9816 33.8743 43.695C33.9452 43.4083 34.0721 43.1384 34.2478 42.9006C34.4235 42.6629 34.6445 42.462 34.8982 42.3095C35.1519 42.1571 35.4333 42.056 35.7262 42.012C36.0192 41.968 36.3179 41.9821 36.6054 42.0534C37.1858 42.197 37.6852 42.5644 37.994 43.0747C38.3029 43.5851 38.3959 44.1967 38.2526 44.7754Z" fill="white"/>
<g style="mix-blend-mode:multiply">
<path d="M36.8892 44.4335C36.6995 44.3867 36.5209 44.3029 36.3637 44.1871C36.2064 44.0714 36.0737 43.9258 35.973 43.7588C35.8723 43.5918 35.8056 43.4066 35.7769 43.2139C35.7481 43.0212 35.7577 42.8248 35.8052 42.6358C35.8648 42.391 35.9891 42.1666 36.1652 41.9859C35.6473 41.9621 35.1371 42.117 34.7206 42.4245C34.3041 42.732 34.0067 43.1733 33.8786 43.6739C33.7353 44.2526 33.8283 44.8642 34.1372 45.3745C34.446 45.8849 34.9454 46.2522 35.5258 46.3959C35.8133 46.4678 36.1122 46.4823 36.4054 46.4386C36.6985 46.3949 36.9801 46.2938 37.2339 46.1412C37.4878 45.9887 37.7088 45.7876 37.8844 45.5496C38.0599 45.3115 38.1865 45.0413 38.2569 44.7543C38.3157 44.5113 38.3329 44.2602 38.3077 44.0115C38.1289 44.1993 37.9038 44.337 37.6549 44.4111C37.406 44.4851 37.142 44.4929 36.8892 44.4335Z" fill="#93479C"/>
</g>
<path d="M38.2526 44.7754C38.1817 45.0621 38.0548 45.332 37.8791 45.5697C37.7034 45.8075 37.4824 46.0083 37.2287 46.1608C36.975 46.3133 36.6936 46.4144 36.4007 46.4584C36.1077 46.5023 35.8089 46.4883 35.5214 46.417C35.2335 46.3469 34.9623 46.2207 34.7235 46.0457C34.4847 45.8707 34.2829 45.6504 34.1298 45.3975C33.9767 45.1445 33.8754 44.8638 33.8315 44.5717C33.7877 44.2795 33.8022 43.9816 33.8743 43.695C33.9452 43.4083 34.0721 43.1384 34.2478 42.9006C34.4235 42.6629 34.6445 42.462 34.8982 42.3095C35.1519 42.1571 35.4333 42.056 35.7262 42.012C36.0192 41.968 36.3179 41.9821 36.6054 42.0534C37.1858 42.197 37.6852 42.5644 37.994 43.0747C38.3029 43.5851 38.3959 44.1967 38.2526 44.7754Z" stroke="#2C2C2C" stroke-width="2" stroke-linecap="round" stroke-linejoin="round"/>
<path d="M20.3161 30.3806V38.2469L14.2822 42.8552" stroke="#2C2C2C" stroke-width="2" stroke-linecap="round" stroke-linejoin="round"/>
<path d="M11.9492 42.0872C11.3775 42.2641 10.8996 42.6598 10.6202 43.1875C10.3407 43.7152 10.2827 44.3317 10.4587 44.902C10.6362 45.4716 11.0335 45.9477 11.5631 46.2255C12.0928 46.5033 12.7114 46.56 13.283 46.3832C13.5659 46.2961 13.8287 46.1543 14.0566 45.9658C14.2844 45.7774 14.4727 45.546 14.6107 45.285C14.7487 45.0239 14.8338 44.7384 14.861 44.4445C14.8882 44.1507 14.857 43.8544 14.7693 43.5726C14.5926 43.0032 14.1964 42.5268 13.6676 42.2483C13.1389 41.9698 12.5208 41.9118 11.9492 42.0872Z" fill="white"/>
<g style="mix-blend-mode:multiply">
<path d="M12.3853 43.4207C12.4428 43.6072 12.5366 43.7804 12.6615 43.9306C12.7863 44.0808 12.9397 44.205 13.1128 44.2959C13.2859 44.3869 13.4753 44.4429 13.6702 44.4607C13.8651 44.4786 14.0615 44.4578 14.2484 44.3998C14.4895 44.324 14.7068 44.1874 14.8793 44.0031C14.931 44.5188 14.8026 45.0364 14.5156 45.4686C14.2286 45.9007 13.8006 46.2208 13.3041 46.3748C12.7325 46.5516 12.1138 46.4949 11.5842 46.2171C11.0546 45.9393 10.6573 45.4632 10.4798 44.8935C10.3039 44.3238 10.3621 43.7079 10.6416 43.1809C10.921 42.6539 11.3989 42.259 11.9703 42.0829C12.2103 42.0106 12.4608 41.9793 12.7113 41.9901C12.5363 42.1794 12.4141 42.4111 12.3569 42.6621C12.2996 42.9131 12.3095 43.1747 12.3853 43.4207Z" fill="#93479C"/>
</g>
<path d="M11.9492 42.0872C11.3775 42.2641 10.8996 42.6598 10.6202 43.1875C10.3407 43.7152 10.2827 44.3317 10.4587 44.902C10.6362 45.4716 11.0335 45.9477 11.5631 46.2255C12.0928 46.5033 12.7114 46.56 13.283 46.3832C13.5659 46.2961 13.8287 46.1543 14.0566 45.9658C14.2844 45.7774 14.4727 45.546 14.6107 45.285C14.7487 45.0239 14.8338 44.7384 14.861 44.4445C14.8882 44.1507 14.857 43.8544 14.7693 43.5726C14.5926 43.0032 14.1964 42.5268 13.6677 42.2483C13.1389 41.9698 12.5208 41.9118 11.9492 42.0872Z" stroke="#2C2C2C" stroke-width="2" stroke-linecap="round" stroke-linejoin="round"/>
<path d="M25.2763 46.293C26.4063 45.7687 26.896 44.4308 26.37 43.3045C25.844 42.1783 24.5016 41.6903 23.3715 42.2145C22.2415 42.7387 21.7518 44.0766 22.2778 45.2029C22.8038 46.3291 24.1462 46.8172 25.2763 46.293Z" fill="white"/>
<g style="mix-blend-mode:multiply">
<path d="M25.1432 44.5222C24.7727 44.3887 24.4703 44.1145 24.3021 43.7594C24.1338 43.4043 24.1135 42.9973 24.2456 42.6273C24.3324 42.3909 24.4781 42.1803 24.669 42.0154C24.1545 41.9391 23.6295 42.0429 23.1832 42.3092C22.7369 42.5754 22.3971 42.9876 22.2216 43.4756C22.1205 43.7532 22.0754 44.048 22.0889 44.343C22.1023 44.638 22.174 44.9275 22.2999 45.1948C22.4257 45.4622 22.6033 45.7022 22.8224 45.901C23.0414 46.0999 23.2977 46.2537 23.5765 46.3537C24.1398 46.5545 24.7599 46.5248 25.3012 46.2709C25.8424 46.017 26.2607 45.5596 26.4643 44.999C26.5486 44.7635 26.5902 44.5148 26.5871 44.2647C26.3902 44.43 26.1531 44.5407 25.8997 44.5859C25.6463 44.6311 25.3854 44.6091 25.1432 44.5222Z" fill="#93479C"/>
</g>
<path d="M25.2763 46.293C26.4063 45.7687 26.896 44.4308 26.37 43.3045C25.844 42.1783 24.5016 41.6903 23.3715 42.2145C22.2415 42.7387 21.7518 44.0766 22.2778 45.2029C22.8038 46.3291 24.1462 46.8172 25.2763 46.293Z" stroke="#2C2C2C" stroke-width="2" stroke-linecap="round" stroke-linejoin="round"/>
<path d="M24.3387 30.4059V41.433" stroke="#2C2C2C" stroke-width="2" stroke-linecap="round" stroke-linejoin="round"/>
<path d="M32.2389 15.7143H16.4777V31.4286H32.2389V15.7143Z" fill="#05A7B1"/>
<path d="M32.2389 15.7143H16.4777V31.4286H32.2389V15.7143Z" stroke="#2C2C2C" stroke-width="2" stroke-linecap="round" stroke-linejoin="round"/>
<g style="mix-blend-mode:screen">
<path d="M26.5074 17.8571H30.0895V22.1429" stroke="#05A7B1" stroke-width="2" stroke-linecap="round" stroke-linejoin="round"/>
</g>
<path d="M23.7954 27L23.2261 25.1309H20.3633L19.7939 27H18L20.7715 19.1152H22.8071L25.5894 27H23.7954ZM22.8286 23.7344L22.2593 21.9082C22.2235 21.7865 22.1751 21.6307 22.1143 21.4409C22.057 21.2476 21.9979 21.0524 21.937 20.8555C21.8797 20.6549 21.8332 20.4813 21.7974 20.3345C21.7616 20.4813 21.7114 20.6639 21.647 20.8823C21.5861 21.0972 21.527 21.3013 21.4697 21.4946C21.4124 21.688 21.3713 21.8258 21.3462 21.9082L20.7822 23.7344H22.8286ZM26.583 27V19.1475H28.248V27H26.583Z" fill="white"/>
</g>
<defs>
<clipPath id="clip0_465_111830">
<rect width="48" height="47.1429" fill="white"/>
</clipPath>
</defs>
</svg>
