<svg width="45" height="45" viewBox="0 0 45 45" fill="none" xmlns="http://www.w3.org/2000/svg">
<path d="M40.7325 9.95825L22.6158 1.33768C22.494 1.28007 22.361 1.24989 22.2263 1.24928C22.0916 1.24866 21.9584 1.27762 21.8361 1.33411L13.6425 5.13773L6.03162 8.79724L3.69427 9.96635C3.56505 10.031 3.45294 10.1253 3.36707 10.2415C3.28119 10.3577 3.224 10.4925 3.20013 10.635C3.08196 11.3387 0.40537 27.9702 8.23016 37.2139C11.5441 41.1294 16.2519 43.1149 22.2219 43.1149C29.4943 43.1149 35.0265 40.0203 38.2026 34.1971C39.118 32.6219 39.7915 30.9182 40.2007 29.1429C42.7054 20.5769 41.3054 11.0504 41.2445 10.6494C41.2224 10.501 41.1642 10.3604 41.0749 10.2398C40.9856 10.1193 40.868 10.0226 40.7325 9.95825ZM38.4363 28.6452L38.4274 28.6801C38.0564 30.2979 37.4444 31.8508 36.6119 33.2867C33.7179 38.5916 28.8758 41.2816 22.2219 41.2816C16.8177 41.2816 12.5826 39.5154 9.63209 36.0332C3.03992 28.2495 4.57519 14.103 4.94218 11.3924L14.4257 6.79561L22.2174 3.17817L39.4944 11.3995C39.7397 13.4235 40.5239 21.5214 38.4363 28.6452Z" fill="#68326F"/>
<path d="M28.0512 16.7438L19.119 25.6759L16.3118 22.8686C16.2266 22.7835 16.1256 22.716 16.0144 22.6699C15.9032 22.6239 15.784 22.6002 15.6636 22.6002C15.5433 22.6002 15.4241 22.6239 15.3129 22.6699C15.2017 22.716 15.1006 22.7835 15.0155 22.8686C14.9304 22.9537 14.8629 23.0548 14.8168 23.166C14.7708 23.2772 14.7471 23.3964 14.7471 23.5168C14.7471 23.6371 14.7708 23.7563 14.8168 23.8675C14.8629 23.9787 14.9304 24.0798 15.0155 24.1649L18.4709 27.6203C18.556 27.7054 18.6571 27.7729 18.7683 27.819C18.8795 27.8651 18.9987 27.8888 19.119 27.8888C19.2394 27.8888 19.3586 27.8651 19.4698 27.819C19.581 27.7729 19.6821 27.7054 19.7672 27.6203L29.3474 18.04C29.4325 17.9549 29.5 17.8539 29.5461 17.7427C29.5921 17.6315 29.6159 17.5123 29.6159 17.3919C29.6159 17.2715 29.5921 17.1524 29.5461 17.0412C29.5 16.93 29.4325 16.8289 29.3474 16.7438C29.2623 16.6587 29.1612 16.5912 29.05 16.5451C28.9388 16.499 28.8197 16.4753 28.6993 16.4753C28.5789 16.4753 28.4597 16.499 28.3485 16.5451C28.2373 16.5912 28.1363 16.6587 28.0512 16.7438Z" fill="#68326F"/>
</svg>
