<svg width="64" height="64" viewBox="0 0 64 64" fill="none" xmlns="http://www.w3.org/2000/svg">
<path d="M58.9828 14.22L32.6313 1.68097C32.4541 1.59718 32.2608 1.55328 32.0648 1.55238C31.8688 1.55148 31.6751 1.5936 31.4972 1.67577L19.5792 7.20832L8.50889 12.5312L5.1091 14.2318C4.92115 14.3258 4.75807 14.4629 4.63317 14.632C4.50826 14.801 4.42507 14.9971 4.39035 15.2044C4.21847 16.2278 0.325247 40.4193 11.7068 53.8646C16.5271 59.5599 23.3748 62.4479 32.0583 62.4479C42.6364 62.4479 50.6833 57.9466 55.3031 49.4765C56.6345 47.1854 57.6142 44.7072 58.2094 42.125C61.8526 29.6653 59.8162 15.8086 59.7276 15.2253C59.6955 15.0095 59.6108 14.8049 59.4809 14.6296C59.351 14.4542 59.1799 14.3136 58.9828 14.22ZM55.643 41.401L55.63 41.4518C55.0904 43.805 54.2003 46.0637 52.9894 48.1523C48.7798 55.8685 41.7367 59.7812 32.0584 59.7812C24.1978 59.7812 18.0376 57.2122 13.7459 52.1471C4.15731 40.8255 6.39043 20.2487 6.92425 16.306L20.7185 9.61977L32.0518 4.35805L57.1821 16.3164C57.5388 19.2604 58.6795 31.039 55.643 41.401Z" fill="#68326F"/>
<path d="M40.5379 24.0898L27.5458 37.082L23.4624 32.9987C23.3386 32.8749 23.1917 32.7767 23.0299 32.7097C22.8682 32.6427 22.6948 32.6082 22.5197 32.6082C22.3446 32.6082 22.1713 32.6427 22.0095 32.7097C21.8478 32.7767 21.7008 32.8749 21.577 32.9987C21.4532 33.1225 21.355 33.2695 21.288 33.4312C21.221 33.593 21.1865 33.7663 21.1865 33.9414C21.1865 34.1165 21.221 34.2898 21.288 34.4516C21.355 34.6133 21.4532 34.7603 21.577 34.8841L26.6031 39.9101C26.7268 40.034 26.8738 40.1322 27.0355 40.1992C27.1973 40.2663 27.3707 40.3008 27.5458 40.3008C27.7208 40.3008 27.8942 40.2663 28.056 40.1992C28.2177 40.1322 28.3647 40.034 28.4885 39.9101L42.4234 25.9752C42.5472 25.8514 42.6454 25.7045 42.7124 25.5427C42.7794 25.381 42.8138 25.2076 42.8138 25.0325C42.8138 24.8575 42.7794 24.6841 42.7124 24.5223C42.6454 24.3606 42.5472 24.2136 42.4234 24.0898C42.2996 23.966 42.1526 23.8678 41.9908 23.8008C41.8291 23.7338 41.6557 23.6993 41.4807 23.6993C41.3056 23.6993 41.1322 23.7338 40.9705 23.8008C40.8087 23.8678 40.6617 23.966 40.5379 24.0898Z" fill="#68326F"/>
</svg>
