<svg width="64" height="70" viewBox="0 0 64 70" fill="none" xmlns="http://www.w3.org/2000/svg">
<path d="M10.1866 38.6754L31.4238 49.7255C31.5199 49.7255 31.5199 49.7255 31.616 49.8216H31.7121C31.8082 49.8216 31.9043 49.8216 32.0965 49.8216C32.2887 49.8216 32.2887 49.8216 32.4809 49.8216H32.577C32.6731 49.8216 32.6731 49.8216 32.7692 49.7255L54.0064 38.6754C54.4869 38.4832 54.7752 38.0027 54.7752 37.4262V12.3473C54.7752 12.2512 54.7752 12.059 54.6791 11.9629V11.8668C54.6791 11.7708 54.583 11.6747 54.583 11.6747L54.4869 11.5786C54.4869 11.4825 54.3908 11.4825 54.3908 11.3864L54.2947 11.2903L54.1986 11.1942L32.6731 0.144132C32.2887 -0.0480439 31.8082 -0.0480439 31.4238 0.144132L10.1866 11.0981C10.0905 11.0981 10.0905 11.1942 10.0905 11.1942L9.99439 11.2903C9.89829 11.3864 9.89829 11.3864 9.89829 11.4825L9.8022 11.5786C9.8022 11.6747 9.7061 11.7708 9.7061 11.7708V11.8668C9.7061 11.9629 9.61001 12.1551 9.61001 12.2512V37.3301C9.41781 38.0028 9.7061 38.4832 10.1866 38.6754ZM33.3457 46.1702V24.2622L50.643 15.2299L51.7001 14.6534V36.6575L33.3457 46.1702ZM50.1626 12.3473L42.1866 16.4791L32.0004 21.86L23.2557 17.3439L41.4178 7.92725L50.1626 12.3473ZM32.0004 2.93068L38.4388 6.29376L20.2767 15.7104L13.8382 12.3473L32.0004 2.93068ZM12.2046 14.6534L13.646 15.4221L18.9313 18.1126V25.0309C18.9313 25.7996 19.5079 26.3761 20.2767 26.3761C21.0454 26.3761 21.622 25.7996 21.622 25.0309V19.5539L30.559 24.2622V46.2663L12.1085 36.6575V14.6534H12.2046Z" fill="#68326F"/>
<path d="M57.5616 57.124C54.4865 57.124 51.8919 59.334 51.2192 62.2167H38.3423C37.6697 59.334 35.0751 57.124 32 57.124C28.9249 57.124 26.3303 59.334 25.6577 62.2167H12.7808C12.1081 59.334 9.51351 57.124 6.43844 57.124C2.88288 57.124 0 60.0067 0 63.5619C0 67.1172 2.88288 69.9998 6.43844 69.9998C9.51351 69.9998 12.1081 67.7898 12.7808 64.9071H25.7537C26.4264 67.7898 29.021 69.9998 32.0961 69.9998C35.1712 69.9998 37.7658 67.7898 38.4384 64.9071H51.2192C51.8919 67.7898 54.4865 69.9998 57.5616 69.9998C61.1171 69.9998 64 67.1172 64 63.5619C64 60.0067 61.2132 57.124 57.5616 57.124ZM6.43844 67.3093C4.42042 67.3093 2.69069 65.6758 2.69069 63.5619C2.69069 61.448 4.32432 59.8145 6.43844 59.8145C8.55255 59.8145 10.1862 61.448 10.1862 63.5619C10.1862 65.6758 8.45645 67.3093 6.43844 67.3093ZM32 67.3093C29.982 67.3093 28.2522 65.6758 28.2522 63.5619C28.2522 61.448 29.8859 59.8145 32 59.8145C34.1141 59.8145 35.7477 61.448 35.7477 63.5619C35.7477 65.6758 34.018 67.3093 32 67.3093ZM57.5616 67.3093C55.5435 67.3093 53.8138 65.6758 53.8138 63.5619C53.8138 61.448 55.4474 59.8145 57.5616 59.8145C59.6757 59.8145 61.3093 61.448 61.3093 63.5619C61.3093 65.6758 59.6757 67.3093 57.5616 67.3093Z" fill="#68326F"/>
</svg>
