<svg width="44" height="49" viewBox="0 0 44 49" fill="none" xmlns="http://www.w3.org/2000/svg">
<path d="M7.00321 26.5916L21.6038 34.1892C21.6699 34.1892 21.6699 34.1892 21.7359 34.2553H21.802C21.8681 34.2553 21.9341 34.2553 22.0663 34.2553C22.1984 34.2553 22.1984 34.2553 22.3305 34.2553H22.3966C22.4627 34.2553 22.4627 34.2553 22.5287 34.1892L37.1293 26.5916C37.4597 26.4595 37.6579 26.1291 37.6579 25.7327V8.48949C37.6579 8.42342 37.6579 8.29129 37.5918 8.22523V8.15916C37.5918 8.09309 37.5257 8.02703 37.5257 8.02703L37.4597 7.96096C37.4597 7.8949 37.3936 7.89489 37.3936 7.82883L37.3275 7.76276L37.2615 7.6967L22.4627 0.0990991C22.1984 -0.033033 21.8681 -0.033033 21.6038 0.0990991L7.00321 7.63063C6.93715 7.63063 6.93715 7.6967 6.93715 7.6967L6.87108 7.76276C6.80502 7.82883 6.80502 7.82883 6.80502 7.8949L6.73895 7.96096C6.73895 8.02703 6.67288 8.09309 6.67288 8.09309V8.15916C6.67288 8.22523 6.60682 8.35736 6.60682 8.42342V25.6667C6.47469 26.1291 6.67288 26.4595 7.00321 26.5916ZM22.9251 31.7447V16.6817L34.817 10.4715L35.5437 10.0751V25.2042L22.9251 31.7447ZM34.4867 8.48949L29.0032 11.3303L22.0002 15.03L15.9882 11.9249L28.4747 5.45045L34.4867 8.48949ZM22.0002 2.01502L26.4266 4.32733L13.9401 10.8018L9.51372 8.48949L22.0002 2.01502ZM8.3906 10.0751L9.38159 10.6036L13.0152 12.4535V17.2102C13.0152 17.7387 13.4116 18.1351 13.9401 18.1351C14.4687 18.1351 14.8651 17.7387 14.8651 17.2102V13.4444L21.0092 16.6817V31.8108L8.32453 25.2042V10.0751H8.3906Z" fill="#68326F"/>
<path d="M39.5736 39.2761C37.4595 39.2761 35.6757 40.7956 35.2132 42.7776H26.3604C25.8979 40.7956 24.1141 39.2761 22 39.2761C19.8859 39.2761 18.1021 40.7956 17.6396 42.7776H8.78679C8.32432 40.7956 6.54054 39.2761 4.42643 39.2761C1.98198 39.2761 0 41.2581 0 43.7025C0 46.147 1.98198 48.129 4.42643 48.129C6.54054 48.129 8.32432 46.6095 8.78679 44.6275H17.7057C18.1682 46.6095 19.952 48.129 22.0661 48.129C24.1802 48.129 25.964 46.6095 26.4264 44.6275H35.2132C35.6757 46.6095 37.4595 48.129 39.5736 48.129C42.018 48.129 44 46.147 44 43.7025C44 41.2581 42.0841 39.2761 39.5736 39.2761ZM4.42643 46.2791C3.03904 46.2791 1.84985 45.156 1.84985 43.7025C1.84985 42.2491 2.97297 41.126 4.42643 41.126C5.87988 41.126 7.003 42.2491 7.003 43.7025C7.003 45.156 5.81381 46.2791 4.42643 46.2791ZM22 46.2791C20.6126 46.2791 19.4234 45.156 19.4234 43.7025C19.4234 42.2491 20.5465 41.126 22 41.126C23.4535 41.126 24.5766 42.2491 24.5766 43.7025C24.5766 45.156 23.3874 46.2791 22 46.2791ZM39.5736 46.2791C38.1862 46.2791 36.997 45.156 36.997 43.7025C36.997 42.2491 38.1201 41.126 39.5736 41.126C41.027 41.126 42.1501 42.2491 42.1501 43.7025C42.1501 45.156 41.027 46.2791 39.5736 46.2791Z" fill="#68326F"/>
</svg>
