<svg width="64" height="64" viewBox="0 0 64 64" fill="none" xmlns="http://www.w3.org/2000/svg">
<path d="M31.3896 33.4681C31.5006 33.527 31.6244 33.5578 31.7501 33.5578C31.8758 33.5578 31.9996 33.527 32.1107 33.4681L44.2138 26.4731C44.3234 26.4097 44.4145 26.3186 44.4778 26.2089C44.5411 26.0992 44.5744 25.9748 44.5743 25.8481V11.8821C44.567 11.7571 44.5305 11.6355 44.468 11.527C44.4054 11.4185 44.3183 11.3261 44.2138 11.2571L32.1107 4.26211C31.9996 4.20318 31.8758 4.17236 31.7501 4.17236C31.6244 4.17236 31.5006 4.20318 31.3896 4.26211L19.2865 11.2571C19.1813 11.3254 19.0937 11.4176 19.031 11.5262C18.9684 11.6349 18.9323 11.7568 18.9259 11.8821V25.8481C18.9233 25.9753 18.9555 26.1007 19.0191 26.2109C19.0826 26.321 19.1751 26.4117 19.2865 26.4731L31.3896 33.4681ZM20.3682 13.1321L31.029 19.2737V31.6052L20.3682 25.4515V13.1321ZM25.9931 9.04564L35.8846 15.632L31.7381 18.0358L21.0773 11.8821L25.9931 9.04564ZM32.4713 31.6052V19.2737L36.5457 16.9301V20.4396C36.5457 20.6308 36.6217 20.8143 36.7569 20.9495C36.8921 21.0847 37.0756 21.1607 37.2668 21.1607C37.4581 21.1607 37.6415 21.0847 37.7767 20.9495C37.912 20.8143 37.9879 20.6308 37.9879 20.4396V16.1007L43.132 13.1321V25.4395L32.4713 31.6052ZM31.7501 5.74043L42.4109 11.8941L37.2909 14.8388L27.3993 8.24037L31.7501 5.74043Z" fill="#ffffff"/>
<path d="M57.3157 47.8908H52.6643V46.124C52.6643 45.9328 52.5884 45.7493 52.4531 45.6141C52.3179 45.4789 52.1345 45.4029 51.9432 45.4029H46.9553C46.7641 45.4029 46.5807 45.4789 46.4454 45.6141C46.3102 45.7493 46.2342 45.9328 46.2342 46.124V47.8908H34.8643V46.124C34.8643 45.9328 34.7883 45.7493 34.6531 45.6141C34.5179 45.4789 34.3344 45.4029 34.1432 45.4029H29.1553C28.9641 45.4029 28.7806 45.4789 28.6454 45.6141C28.5102 45.7493 28.4342 45.9328 28.4342 46.124V47.8908H17.0643V46.124C17.0643 45.9328 16.9883 45.7493 16.8531 45.6141C16.7178 45.4789 16.5344 45.4029 16.3431 45.4029H11.3553C11.164 45.4029 10.9806 45.4789 10.8454 45.6141C10.7101 45.7493 10.6342 45.9328 10.6342 46.124V47.8908H6.69194C6.50068 47.8908 6.31726 47.9668 6.18202 48.102C6.04678 48.2373 5.97081 48.4207 5.97081 48.6119C5.96918 48.7071 5.98672 48.8016 6.02239 48.8898C6.05805 48.9781 6.11111 49.0582 6.1784 49.1255C6.24569 49.1928 6.32584 49.2458 6.41406 49.2815C6.50229 49.3172 6.59679 49.3347 6.69194 49.3331H10.6342V51.1119C10.6342 51.3031 10.7101 51.4866 10.8454 51.6218C10.9806 51.757 11.164 51.833 11.3553 51.833H16.3792C16.4739 51.833 16.5677 51.8144 16.6552 51.7781C16.7427 51.7419 16.8222 51.6888 16.8891 51.6218C16.9561 51.5548 17.0092 51.4753 17.0454 51.3879C17.0817 51.3004 17.1003 51.2066 17.1003 51.1119V49.3331H28.3981V51.1119C28.3981 51.3031 28.4741 51.4866 28.6093 51.6218C28.7446 51.757 28.928 51.833 29.1193 51.833H34.1071C34.2984 51.833 34.4818 51.757 34.617 51.6218C34.7523 51.4866 34.8282 51.3031 34.8282 51.1119V49.3331H46.1982V51.1119C46.1982 51.3031 46.2741 51.4866 46.4094 51.6218C46.5446 51.757 46.728 51.833 46.9193 51.833H51.9071C52.0984 51.833 52.2818 51.757 52.4171 51.6218C52.5523 51.4866 52.6283 51.3031 52.6283 51.1119V49.3331H57.2796C57.3748 49.3347 57.4693 49.3172 57.5575 49.2815C57.6457 49.2458 57.7259 49.1928 57.7931 49.1255C57.8604 49.0582 57.9135 48.9781 57.9492 48.8898C57.9848 48.8016 58.0024 48.7071 58.0007 48.6119C58.001 48.4268 57.93 48.2486 57.8024 48.1144C57.6749 47.9801 57.5006 47.9001 57.3157 47.8908ZM15.622 50.3907H12.0163V46.7851H15.622V50.3907ZM33.422 50.3907H29.8764V46.7851H33.422V50.3907ZM51.2221 50.3907H47.6284V46.7851H51.2341L51.2221 50.3907Z" fill="#ffffff"/>
<path d="M13.2416 42.6264C13.3762 42.7602 13.5567 42.8375 13.7464 42.8428C13.8471 42.8354 13.9451 42.807 14.0341 42.7594C14.1232 42.7118 14.2012 42.646 14.2632 42.5663L18.7823 36.9775C18.843 36.9036 18.8883 36.8184 18.9157 36.7268C18.9431 36.6353 18.9521 36.5391 18.942 36.4441C18.9319 36.349 18.9031 36.2569 18.8571 36.1731C18.8111 36.0893 18.7489 36.0155 18.6741 35.9559C18.5222 35.8379 18.3298 35.7843 18.1387 35.8068C17.9476 35.8293 17.773 35.926 17.6525 36.0761L13.6983 41.0399L11.8714 39.2131C11.8053 39.1443 11.7259 39.0897 11.6382 39.0524C11.5504 39.015 11.456 38.9958 11.3606 38.9958C11.2652 38.9958 11.1708 39.015 11.0831 39.0524C10.9953 39.0897 10.916 39.1443 10.8498 39.2131C10.7169 39.3499 10.6426 39.5331 10.6426 39.7239C10.6426 39.9146 10.7169 40.0978 10.8498 40.2347L13.2416 42.6264Z" fill="#ffffff"/>
<path d="M35.7775 36.0762L31.8233 41.04L29.9964 39.2131C29.9303 39.1444 29.8509 39.0897 29.7632 39.0524C29.6754 39.0151 29.581 38.9958 29.4856 38.9958C29.3902 38.9958 29.2958 39.0151 29.2081 39.0524C29.1203 39.0897 29.041 39.1444 28.9748 39.2131C28.8419 39.3499 28.7676 39.5332 28.7676 39.7239C28.7676 39.9147 28.8419 40.0979 28.9748 40.2347L31.3786 42.6385C31.5175 42.773 31.7021 42.8503 31.8954 42.8548C31.9975 42.8463 32.0969 42.8175 32.1877 42.77C32.2785 42.7225 32.3589 42.6574 32.4242 42.5784L36.8833 36.9896C37.0013 36.8376 37.0549 36.6453 37.0324 36.4542C37.0099 36.2631 36.9132 36.0884 36.7631 35.968C36.6161 35.8566 36.4321 35.8057 36.2488 35.8258C36.0655 35.846 35.8968 35.9355 35.7775 36.0762Z" fill="#ffffff"/>
</svg>
