<svg width="64" height="64" viewBox="0 0 64 64" fill="none" xmlns="http://www.w3.org/2000/svg">
<path d="M51 27H5V59H51V27ZM49 57H7V29H49V57Z" fill="#68326F"/>
<path d="M13 55C15.206 55 17 53.206 17 51C17 49.974 16.601 49.047 15.963 48.338L21.706 38.767C22.114 38.907 22.545 39 23 39C23.469 39 23.913 38.904 24.331 38.755L30.6 45.919C30.227 46.527 30 47.235 30 48C30 50.206 31.794 52 34 52C36.206 52 38 50.206 38 48C38 47.207 37.761 46.472 37.362 45.85L42.535 38.953C42.69 38.971 42.841 39 43 39C45.206 39 47 37.206 47 35C47 32.794 45.206 31 43 31C40.794 31 39 32.794 39 35C39 36.306 39.638 37.457 40.609 38.188L35.881 44.492C35.318 44.188 34.684 44 34 44C33.286 44 32.625 44.203 32.045 44.532L25.998 37.621C26.614 36.917 27 36.007 27 35C27 32.794 25.206 31 23 31C20.794 31 19 32.794 19 35C19 36.026 19.399 36.953 20.037 37.662L14.294 47.233C13.886 47.093 13.455 47 13 47C10.794 47 9 48.794 9 51C9 53.206 10.794 55 13 55ZM43 33C44.103 33 45 33.897 45 35C45 36.103 44.103 37 43 37C41.897 37 41 36.103 41 35C41 33.897 41.897 33 43 33ZM36 48C36 49.103 35.103 50 34 50C32.897 50 32 49.103 32 48C32 46.897 32.897 46 34 46C35.103 46 36 46.897 36 48ZM23 33C24.103 33 25 33.897 25 35C25 36.103 24.103 37 23 37C21.897 37 21 36.103 21 35C21 33.897 21.897 33 23 33ZM13 49C14.103 49 15 49.897 15 51C15 52.103 14.103 53 13 53C11.897 53 11 52.103 11 51C11 49.897 11.897 49 13 49Z" fill="#68326F"/>
<path d="M49.414 1H19V23H1V63H55H63V14.586L49.414 1ZM50 23V16H57V37H55V23H50ZM40 23H38V14H40V23ZM36 12V23H34V14H28V23H25V7H48V10H44V23H42V12H36ZM32 23H30V16H32V23ZM46 12H48V16V23H46V12ZM50 14V10V4.414L59.586 14H50ZM21 3H48V5H23V23H21V3ZM53 61H3V25H53V61ZM61 61H55V39H59V16H61V61Z" fill="#68326F"/>
<path d="M5 19H3V21H5V19Z" fill="#68326F"/>
<path d="M5 15H3V17H5V15Z" fill="#68326F"/>
<path d="M5 11H3V13H5V11Z" fill="#68326F"/>
<path d="M5 7H3V9H5V7Z" fill="#68326F"/>
<path d="M9 7H7V9H9V7Z" fill="#68326F"/>
<path d="M13 7H11V9H13V7Z" fill="#68326F"/>
<path d="M17 7H15V9H17V7Z" fill="#68326F"/>
<path d="M47 53H45V55H47V53Z" fill="#68326F"/>
<path d="M43 53H41V55H43V53Z" fill="#68326F"/>
<path d="M47 49H45V51H47V49Z" fill="#68326F"/>
</svg>
