<svg width="59" height="68" viewBox="0 0 59 68" fill="none" xmlns="http://www.w3.org/2000/svg">
<path fill-rule="evenodd" clip-rule="evenodd" d="M46.8442 66.1364H21.5278V55.0286C5.94552 55.0286 8.77153 56.9126 8.77153 40.9378L1 38.5828L7.67252 27.475C7.67252 27.475 6.10252 5.88739 27.9648 1.60912C32.3216 0.745619 35.2261 0.745619 39.4651 1.96237C45.9807 3.80713 55.6754 9.0274 57.0885 23.707C57.3632 39.9173 43.9004 46.7468 46.8442 66.1364Z" stroke="#68326F" stroke-width="2" stroke-linecap="round" stroke-linejoin="round"/>
<path fill-rule="evenodd" clip-rule="evenodd" d="M32.9505 13.0308C40.3295 13.0308 46.3348 19.036 46.3348 26.4151C46.3348 34.5006 40.879 33.1661 40.879 46.5111H25.022C25.022 33.1661 19.6055 34.5006 19.6055 26.4151C19.6055 19.036 25.5715 13.0308 32.9505 13.0308Z" stroke="#68326F" stroke-width="2" stroke-linecap="round" stroke-linejoin="round"/>
<path d="M38.1708 46.5112H27.7695V51.6137H38.1708V46.5112Z" stroke="#68326F" stroke-width="2" stroke-linecap="round" stroke-linejoin="round"/>
<path d="M36.1547 51.6138H29.7324V55.3803H36.1547V51.6138Z" stroke="#68326F" stroke-width="2" stroke-linecap="round" stroke-linejoin="round"/>
<path fill-rule="evenodd" clip-rule="evenodd" d="M35.0706 20.9987C35.6201 21.1949 36.1304 21.5089 36.5622 21.8622L39.7807 20.8417L41.1544 23.2359L38.6817 25.5124C38.7209 25.7872 38.7602 26.0619 38.7602 26.3759C38.7602 26.6899 38.7209 26.9647 38.6817 27.2394L41.1544 29.516L39.7807 31.9102L36.5622 30.8897C36.1304 31.243 35.6201 31.557 35.0706 31.7532L34.3249 35.011H31.5774L30.8709 31.7532C30.3214 31.557 29.8111 31.243 29.3401 30.8897L26.1609 31.9102L24.7871 29.516L27.2599 27.2394C27.2206 26.9647 27.1814 26.6899 27.1814 26.3759C27.1814 26.0619 27.2206 25.7872 27.2599 25.5124L24.7871 23.2359L26.1609 20.8417L29.3401 21.8622C29.8111 21.5089 30.3214 21.1949 30.8709 20.9987L31.5774 17.7017H34.3249L35.0706 20.9987Z" stroke="#68326F" stroke-width="2" stroke-linecap="round" stroke-linejoin="round"/>
<path d="M32.9512 28.8488C34.3168 28.8488 35.4239 27.7417 35.4239 26.3761C35.4239 25.0104 34.3168 23.9033 32.9512 23.9033C31.5855 23.9033 30.4784 25.0104 30.4784 26.3761C30.4784 27.7417 31.5855 28.8488 32.9512 28.8488Z" stroke="#68326F" stroke-width="2" stroke-linecap="round" stroke-linejoin="round"/>
<path d="M32.9492 4.8667V8.98796" stroke="#68326F" stroke-width="2" stroke-linecap="round" stroke-linejoin="round"/>
<path d="M43.7051 7.73193L41.6641 11.3037" stroke="#68326F" stroke-width="2" stroke-linecap="round" stroke-linejoin="round"/>
<path d="M51.5935 15.6216L48.0217 17.7018" stroke="#68326F" stroke-width="2" stroke-linecap="round" stroke-linejoin="round"/>
<path d="M54.4592 26.376H50.3379" stroke="#68326F" stroke-width="2" stroke-linecap="round" stroke-linejoin="round"/>
<path d="M51.5935 37.1306L48.0217 35.0503" stroke="#68326F" stroke-width="2" stroke-linecap="round" stroke-linejoin="round"/>
<path d="M22.1951 7.73193L24.2753 11.3037" stroke="#68326F" stroke-width="2" stroke-linecap="round" stroke-linejoin="round"/>
<path d="M14.3457 15.6216L17.9175 17.7018" stroke="#68326F" stroke-width="2" stroke-linecap="round" stroke-linejoin="round"/>
<path d="M11.4414 26.376H15.5627" stroke="#68326F" stroke-width="2" stroke-linecap="round" stroke-linejoin="round"/>
<path d="M14.3457 37.1306L17.9175 35.0503" stroke="#68326F" stroke-width="2" stroke-linecap="round" stroke-linejoin="round"/>
</svg>
