<svg width="64" height="64" viewBox="0 0 64 64" fill="none" xmlns="http://www.w3.org/2000/svg">
<g clip-path="url(#clip0_0_1020)">
<path fill-rule="evenodd" clip-rule="evenodd" d="M63.0252 63.6998H0.97481C0.449912 63.6998 0 63.2874 0 62.725V1.23702C0 0.712119 0.449912 0.262207 0.97481 0.262207C1.49971 0.262207 1.94962 0.712119 1.94962 1.23702V61.7502H63.0252C63.5501 61.7502 64 62.2001 64 62.725C64 63.2874 63.5501 63.6998 63.0252 63.6998Z" fill="#68326F"/>
<path fill-rule="evenodd" clip-rule="evenodd" d="M14.3222 63.6999H7.46102C6.89863 63.6999 6.48621 63.2875 6.48621 62.7251V50.8024C6.48621 50.2775 6.89863 49.8276 7.46102 49.8276H14.3222C14.8846 49.8276 15.297 50.2775 15.297 50.8024V62.7251C15.297 63.2875 14.8846 63.6999 14.3222 63.6999ZM8.43583 61.7503H13.3849V51.7773H8.43583V61.7503Z" fill="#68326F"/>
<path fill-rule="evenodd" clip-rule="evenodd" d="M28.2325 63.6996H21.3338C20.8089 63.6996 20.3965 63.2872 20.3965 62.7248V45.8156C20.3965 45.2907 20.8089 44.8408 21.3338 44.8408H28.2325C28.7948 44.8408 29.2073 45.2907 29.2073 45.8156V62.7248C29.2073 63.2872 28.7948 63.6996 28.2325 63.6996ZM22.3086 61.75H27.2576V46.7904H22.3086V61.75Z" fill="#68326F"/>
<path fill-rule="evenodd" clip-rule="evenodd" d="M42.141 63.6997H35.2424C34.7175 63.6997 34.2676 63.2873 34.2676 62.7249V40.0418C34.2676 39.5169 34.7175 39.1045 35.2424 39.1045H42.141C42.6659 39.1045 43.1159 39.5169 43.1159 40.0418V62.7249C43.1159 63.2873 42.6659 63.6997 42.141 63.6997ZM36.2172 61.7501H41.1662V41.0166H36.2172V61.7501Z" fill="#68326F"/>
<path fill-rule="evenodd" clip-rule="evenodd" d="M56.0512 63.6998H49.1525C48.6276 63.6998 48.1777 63.2874 48.1777 62.725V35.2429C48.1777 34.6805 48.6276 34.2681 49.1525 34.2681H56.0512C56.5761 34.2681 57.026 34.6805 57.026 35.2429V62.725C57.026 63.2874 56.5761 63.6998 56.0512 63.6998ZM50.1274 61.7502H55.0764V36.1802H50.1274V61.7502Z" fill="#68326F"/>
<path fill-rule="evenodd" clip-rule="evenodd" d="M10.9111 44.6534C10.6111 44.6534 10.3112 44.5034 10.1237 44.2785L5.54963 38.2421C5.24969 37.8297 5.32467 37.1923 5.73709 36.8924C6.187 36.555 6.78689 36.63 7.12432 37.0799L9.93627 40.7916V30.4812C9.93627 29.9563 10.3487 29.5063 10.9111 29.5063C11.436 29.5063 11.8484 29.9563 11.8484 30.4812V43.6786C11.8484 44.091 11.5859 44.4659 11.211 44.6159C11.0985 44.6159 10.9861 44.6534 10.9111 44.6534Z" fill="#68326F"/>
<path fill-rule="evenodd" clip-rule="evenodd" d="M10.9104 44.6534C10.7979 44.6534 10.6854 44.6159 10.5729 44.6159C10.198 44.4659 9.93555 44.091 9.93555 43.6786V30.4812C9.93555 29.9563 10.348 29.5063 10.9104 29.5063C11.4353 29.5063 11.8477 29.9563 11.8477 30.4812V40.7916L14.6596 37.0799C14.9971 36.63 15.5969 36.555 16.0469 36.8924C16.4593 37.1923 16.5343 37.8297 16.2343 38.2421L11.6602 44.2785C11.4727 44.5034 11.2103 44.6534 10.9104 44.6534Z" fill="#68326F"/>
<path fill-rule="evenodd" clip-rule="evenodd" d="M52.6019 32.5432C52.302 32.5432 52.0395 32.4307 51.8521 32.2058L47.3154 26.7693C46.9405 26.3569 47.0155 25.7195 47.4279 25.3821C47.8403 25.0447 48.4402 25.0821 48.7777 25.4946L51.6271 28.9064V19.6457C51.6271 19.1208 52.077 18.6709 52.6019 18.6709C53.1268 18.6709 53.5767 19.1208 53.5767 19.6457V31.5684C53.5767 31.9808 53.3143 32.3557 52.9393 32.5057C52.8269 32.5432 52.7144 32.5432 52.6019 32.5432Z" fill="#68326F"/>
<path fill-rule="evenodd" clip-rule="evenodd" d="M52.6019 32.5432C52.4894 32.5432 52.3769 32.5432 52.2645 32.5057C51.8895 32.3557 51.6271 31.9808 51.6271 31.5684V19.6457C51.6271 19.1208 52.077 18.6709 52.6019 18.6709C53.1268 18.6709 53.5767 19.1208 53.5767 19.6457V28.9064L56.4261 25.4946C56.7636 25.0821 57.3635 25.0447 57.7759 25.3821C58.1883 25.7195 58.2633 26.3569 57.8884 26.7693L53.3517 32.2058C53.1643 32.4307 52.9018 32.5432 52.6019 32.5432Z" fill="#68326F"/>
<path fill-rule="evenodd" clip-rule="evenodd" d="M38.692 37.2302C38.4295 37.2302 38.1296 37.0802 37.9421 36.8928L33.4055 31.4188C33.0681 31.0064 33.1056 30.4065 33.518 30.0691C33.9304 29.7317 34.5303 29.7692 34.9052 30.1816L37.7172 33.5934V24.3327C37.7172 23.7703 38.1671 23.3579 38.692 23.3579C39.2169 23.3579 39.6668 23.7703 39.6668 24.3327V36.2554C39.6668 36.6678 39.4043 37.0052 39.0294 37.1552C38.9169 37.1927 38.8044 37.2302 38.692 37.2302Z" fill="#68326F"/>
<path fill-rule="evenodd" clip-rule="evenodd" d="M38.6916 37.2302C38.5791 37.2302 38.4667 37.1927 38.3542 37.1552C37.9792 37.0427 37.7168 36.6678 37.7168 36.2554V24.3327C37.7168 23.7703 38.1667 23.3579 38.6916 23.3579C39.2165 23.3579 39.6664 23.7703 39.6664 24.3327V33.5934L42.5159 30.1816C42.8533 29.7692 43.4532 29.7317 43.8656 30.0691C44.278 30.4065 44.353 31.0064 44.0156 31.4188L39.4415 36.8928C39.254 37.0802 38.9915 37.2302 38.6916 37.2302Z" fill="#68326F"/>
<path fill-rule="evenodd" clip-rule="evenodd" d="M25.6443 26.6197C18.4832 26.6197 12.6719 20.7709 12.6719 13.6473C12.6719 6.48617 18.4832 0.674805 25.6443 0.674805C32.8054 0.674805 38.6168 6.48617 38.6168 13.6473C38.6168 20.7709 32.8054 26.6197 25.6443 26.6197ZM25.6443 2.58693C19.5705 2.58693 14.6215 7.53596 14.6215 13.6473C14.6215 19.7211 19.5705 24.6701 25.6443 24.6701C31.7556 24.6701 36.7047 19.7211 36.7047 13.6473C36.7047 7.53596 31.7556 2.58693 25.6443 2.58693Z" fill="#68326F"/>
<path fill-rule="evenodd" clip-rule="evenodd" d="M25.6454 20.1335C23.5833 20.1335 21.9336 18.4463 21.9336 16.3842C21.9336 15.8593 22.346 15.4469 22.9084 15.4469C23.4333 15.4469 23.8457 15.8593 23.8457 16.3842C23.8457 17.3965 24.6706 18.1839 25.6454 18.1839C26.6577 18.1839 27.445 17.3965 27.445 16.3842C27.445 15.4094 26.6577 14.6221 25.6454 14.6221C23.5833 14.6221 21.9336 12.9349 21.9336 10.8728C21.9336 8.81071 23.5833 7.12354 25.6454 7.12354C27.7075 7.12354 29.3946 8.81071 29.3946 10.8728C29.3946 11.3977 28.9447 11.8476 28.4198 11.8476C27.8949 11.8476 27.445 11.3977 27.445 10.8728C27.445 9.89799 26.6577 9.07315 25.6454 9.07315C24.6706 9.07315 23.8457 9.89799 23.8457 10.8728C23.8457 11.8476 24.6706 12.6725 25.6454 12.6725C27.7075 12.6725 29.3946 14.3221 29.3946 16.3842C29.3946 18.4463 27.7075 20.1335 25.6454 20.1335Z" fill="#68326F"/>
<path fill-rule="evenodd" clip-rule="evenodd" d="M25.6447 9.07299C25.1198 9.07299 24.6699 8.66057 24.6699 8.09818V5.77364C24.6699 5.24874 25.1198 4.79883 25.6447 4.79883C26.2071 4.79883 26.6195 5.24874 26.6195 5.77364V8.09818C26.6195 8.66057 26.2071 9.07299 25.6447 9.07299Z" fill="#68326F"/>
<path fill-rule="evenodd" clip-rule="evenodd" d="M25.6447 22.4578C25.1198 22.4578 24.6699 22.0078 24.6699 21.4829V19.1584C24.6699 18.6335 25.1198 18.1836 25.6447 18.1836C26.2071 18.1836 26.6195 18.6335 26.6195 19.1584V21.4829C26.6195 22.0078 26.2071 22.4578 25.6447 22.4578Z" fill="#68326F"/>
<path fill-rule="evenodd" clip-rule="evenodd" d="M32.9176 19.7208C32.7302 19.7208 32.5427 19.6833 32.3927 19.5708C31.9428 19.2334 31.8304 18.6335 32.1303 18.2211C33.9674 15.5966 34.1174 12.3347 32.5802 9.63523C32.3178 9.18532 32.4677 8.58544 32.9176 8.32299C33.405 8.06054 33.9674 8.21051 34.2674 8.66042C36.1795 12.0348 35.992 16.1215 33.7425 19.3083C33.555 19.6083 33.2551 19.7208 32.9176 19.7208Z" fill="#68326F"/>
<path fill-rule="evenodd" clip-rule="evenodd" d="M17.884 19.0833C17.5466 19.0833 17.2466 18.8959 17.0592 18.5959C15.1095 15.2591 15.3345 11.1724 17.5841 7.94801C17.884 7.4981 18.4839 7.38562 18.9338 7.72305C19.3837 8.023 19.4587 8.62288 19.1587 9.07279C17.3591 11.6598 17.1716 14.9216 18.7463 17.6211C19.0088 18.1085 18.8588 18.6709 18.3714 18.9709C18.2214 19.0458 18.0715 19.0833 17.884 19.0833Z" fill="#68326F"/>
<path fill-rule="evenodd" clip-rule="evenodd" d="M24.7818 42.9289C24.5194 42.9289 24.2569 42.779 24.0695 42.554L19.4953 37.1176C19.1579 36.7051 19.1954 36.1053 19.6078 35.7678C20.0202 35.4304 20.6576 35.4679 20.9951 35.8803L23.8445 39.2921V30.0315C23.8445 29.4691 24.2569 29.0566 24.7818 29.0566C25.3442 29.0566 25.7566 29.4691 25.7566 30.0315V41.9541C25.7566 42.3665 25.4942 42.704 25.1192 42.8539C25.0068 42.8914 24.8943 42.9289 24.7818 42.9289Z" fill="#68326F"/>
<path fill-rule="evenodd" clip-rule="evenodd" d="M24.7811 42.9289C24.6686 42.9289 24.5561 42.8914 24.4811 42.8539C24.0687 42.7415 23.8438 42.3665 23.8438 41.9541V30.0315C23.8438 29.4691 24.2562 29.0566 24.7811 29.0566C25.3435 29.0566 25.7559 29.4691 25.7559 30.0315V39.2921L28.6053 35.8803C28.9428 35.4679 29.5801 35.4304 29.9925 35.7678C30.3675 36.1053 30.4425 36.7051 30.105 37.1176L25.5309 42.5915C25.3435 42.779 25.081 42.9289 24.7811 42.9289Z" fill="#68326F"/>
</g>
<defs>
<clipPath id="clip0_0_1020">
<rect width="64" height="64" fill="white"/>
</clipPath>
</defs>
</svg>
