<svg width="64" height="65" viewBox="0 0 64 65" fill="none" xmlns="http://www.w3.org/2000/svg">
<g clip-path="url(#clip0_0_1096)">
<path d="M40.9315 56.0798L40.9306 56.0803C40.3772 56.4952 40.2652 57.2799 40.6806 57.8332C40.9266 58.1615 41.3024 58.3342 41.6835 58.3342C41.9452 58.3342 42.2089 58.2525 42.4345 58.0837C42.9878 57.6688 43.0998 56.8836 42.685 56.3303C42.2696 55.777 41.4849 55.6644 40.9315 56.0798Z" fill="#68326F"/>
<path d="M58.8462 41.7898C58.3296 40.8442 57.4485 40.1685 56.3643 39.8887C55.1456 39.5741 53.7699 39.7982 52.6838 40.4885L42.9328 46.6803C42.2905 44.9386 40.5537 43.7522 38.6104 43.8916L33.8374 44.2355C30.2362 44.4948 30.1936 44.4704 27.9896 43.193C27.4969 42.9073 26.8834 42.5516 26.1241 42.1362C23.1819 40.5276 19.8546 39.8779 15.9534 40.1485C13.0116 40.353 9.74594 41.0839 5.67647 42.4488C5.1662 42.6201 4.82227 43.0981 4.82227 43.6362V58.4469C4.82227 58.852 5.01845 59.2326 5.3482 59.4674C5.67843 59.7023 6.10211 59.7629 6.48469 59.6304L12.1236 57.6759L24.3922 62.9239C26.2523 63.7155 27.9133 64.1255 29.5713 64.1255C32.1814 64.1255 34.7836 63.1098 38.1422 60.9709C38.7259 60.599 38.8976 59.8251 38.5258 59.2414C38.154 58.6582 37.3805 58.4865 36.7968 58.8578C31.4964 62.2341 28.8898 62.1157 25.3751 60.6201L12.6638 55.1827C12.3771 55.0599 12.0551 55.0487 11.7606 55.1509L7.32765 56.6876V44.5423C13.0507 42.692 19.5018 41.3706 24.9226 44.3344C25.6545 44.7346 26.2278 45.0668 26.7342 45.3603C29.3169 46.8574 29.8086 47.0374 34.018 46.7341L38.7905 46.3901C39.7631 46.3202 40.6168 47.0565 40.6872 48.032C40.6995 48.2037 40.6858 48.3652 40.6496 48.5154C40.6457 48.5306 40.6417 48.5452 40.6383 48.5599C40.4338 49.3148 39.6701 49.7933 38.8893 49.9498C36.0013 50.5281 33.2127 51.0438 30.5155 51.5418C29.1393 51.7962 27.7626 52.0506 26.3673 52.3143C25.6877 52.4425 25.2406 53.0976 25.3692 53.7776C25.4974 54.4572 26.1535 54.9043 26.8321 54.7757C28.2239 54.5129 29.5977 54.259 30.971 54.0051C33.677 53.5051 36.4749 52.988 39.3815 52.4058C41.0821 52.0653 42.3634 51.0247 42.9084 49.6631L54.0263 42.603C54.539 42.2776 55.1784 42.169 55.7381 42.3143C56.0253 42.3882 56.4157 42.5658 56.6476 42.9899C57.1334 43.8799 57.1354 45.1118 56.2004 45.7443L45.132 53.2365C44.5595 53.624 44.4094 54.4029 44.7968 54.9758C45.1843 55.5487 45.9632 55.6984 46.5361 55.3109L57.6046 47.8192C59.5224 46.5208 60.0444 43.9855 58.8462 41.7898Z" fill="#68326F"/>
<path d="M32.15 37.5739C42.5091 37.5739 50.9367 29.1458 50.9367 18.7867C50.9367 8.42759 42.5091 0 32.15 0C29.0482 0 25.9655 0.777887 23.2356 2.24951C22.6265 2.57779 22.399 3.33757 22.7273 3.94667C23.0556 4.55528 23.8153 4.78278 24.4239 4.4545C26.7904 3.17906 29.4621 2.50489 32.15 2.50489C41.128 2.50489 48.4318 9.8092 48.4318 18.7867C48.4318 27.7647 41.128 35.069 32.15 35.069C23.172 35.069 15.8682 27.7647 15.8682 18.7867C15.8682 16.0841 16.5492 13.3997 17.8378 11.024C18.1681 10.4159 17.942 9.65558 17.3344 9.32534C16.7263 8.9956 15.966 9.22114 15.6363 9.82926C14.149 12.5709 13.3633 15.6683 13.3633 18.7867C13.3633 29.1458 21.7909 37.5739 32.15 37.5739Z" fill="#68326F"/>
<path d="M30.8989 18.7867C30.8989 19.4784 31.4596 20.0391 32.1514 20.0391H37.0051C37.6969 20.0391 38.2575 19.4784 38.2575 18.7867C38.2575 18.0949 37.6969 17.5342 37.0051 17.5342H33.4038L33.4033 11.2725C33.4033 10.5807 32.8427 10.02 32.1509 10.02C31.4591 10.02 30.8984 10.5807 30.8984 11.2725L30.8989 18.7867Z" fill="#68326F"/>
<path d="M32.1514 7.51515C32.8432 7.51515 33.4038 6.95448 33.4038 6.2627C33.4038 5.57092 32.8432 5.01025 32.1514 5.01025H32.1504C31.4586 5.01025 30.8984 5.57092 30.8984 6.2627C30.8984 6.95448 31.4596 7.51515 32.1514 7.51515Z" fill="#68326F"/>
<path d="M25.889 9.19261C26.1033 9.19261 26.3205 9.13782 26.5192 9.02187C27.1165 8.67353 27.3186 7.90641 26.9697 7.30905C26.6214 6.71169 25.8553 6.50964 25.2569 6.85846H25.256C24.6586 7.20729 24.457 7.97392 24.8059 8.57128C25.0387 8.9705 25.458 9.19261 25.889 9.19261Z" fill="#68326F"/>
<path d="M20.2372 11.8678L20.2367 11.8688C19.8741 12.4574 20.0581 13.2284 20.6471 13.5914C20.8516 13.7172 21.0782 13.7768 21.3022 13.7768C21.723 13.7768 22.1339 13.565 22.3702 13.1805C22.7332 12.5914 22.5493 11.8199 21.9603 11.4574C21.3712 11.0949 20.5997 11.2788 20.2372 11.8678Z" fill="#68326F"/>
<path d="M19.6255 20.0391C20.3173 20.0391 20.8779 19.4779 20.8779 18.7866C20.8779 18.0948 20.3173 17.5342 19.6255 17.5342C18.9342 17.5342 18.373 18.0948 18.373 18.7866V18.7871C18.373 19.4789 18.9342 20.0391 19.6255 20.0391Z" fill="#68326F"/>
<path d="M20.6471 23.9818C20.0581 24.3443 19.8741 25.1159 20.2367 25.7049L20.2372 25.7054C20.474 26.0899 20.8844 26.3013 21.3047 26.3013C21.5287 26.3013 21.7553 26.2416 21.9603 26.1154C22.5493 25.7528 22.7328 24.9808 22.3702 24.3918C22.0077 23.8032 21.2367 23.6193 20.6471 23.9818Z" fill="#68326F"/>
<path d="M25.2559 30.715L25.2568 30.7155C25.4555 30.8309 25.6722 30.8862 25.8865 30.8862C26.317 30.8862 26.7368 30.6636 26.9692 30.2644C27.318 29.667 27.1159 28.8999 26.5181 28.5511C25.9207 28.2028 25.1536 28.4043 24.8053 29.0022C24.4569 29.5995 24.6585 30.3667 25.2559 30.715Z" fill="#68326F"/>
<path d="M32.1509 32.5635H32.1519C32.8436 32.5635 33.4038 32.0028 33.4038 31.311C33.4038 30.6193 32.8427 30.0586 32.1509 30.0586C31.4591 30.0586 30.8984 30.6193 30.8984 31.311C30.8984 32.0028 31.4591 32.5635 32.1509 32.5635Z" fill="#68326F"/>
<path d="M37.7778 28.5516C37.1804 28.9004 36.9784 29.6671 37.3272 30.2649C37.5596 30.6636 37.9794 30.8862 38.4099 30.8862C38.6242 30.8862 38.8414 30.8314 39.04 30.7155L39.0405 30.715C39.6384 30.3667 39.8394 29.6 39.4911 29.0022C39.1428 28.4048 38.3752 28.2033 37.7778 28.5516Z" fill="#68326F"/>
<path d="M42.3386 26.1158C42.5431 26.2421 42.7696 26.3018 42.9936 26.3018C43.4139 26.3018 43.8249 26.0904 44.0612 25.7059L44.0616 25.7049C44.4247 25.1158 44.2407 24.3448 43.6517 23.9823C43.0621 23.6198 42.2906 23.8037 41.9281 24.3927C41.5656 24.9818 41.7495 25.7533 42.3386 26.1158Z" fill="#68326F"/>
<path d="M43.4216 18.7871C43.4216 19.4789 43.9823 20.0396 44.6741 20.0396C45.3654 20.0396 45.9265 19.4789 45.9265 18.7871V18.7861C45.9265 18.0944 45.3654 17.5342 44.6741 17.5342C43.9823 17.5342 43.4216 18.0953 43.4216 18.7871Z" fill="#68326F"/>
<path d="M44.0613 11.868C43.6988 11.2789 42.9272 11.0955 42.3382 11.458C41.7492 11.8205 41.5657 12.5925 41.9282 13.1816C42.165 13.5661 42.5755 13.778 42.9962 13.778C43.2198 13.778 43.4468 13.7178 43.6513 13.5921C44.2404 13.229 44.4243 12.458 44.0613 11.869V11.868Z" fill="#68326F"/>
<path d="M39.0444 6.85845H39.0434C38.4461 6.50962 37.6794 6.71167 37.3311 7.30952C36.9823 7.90688 37.1843 8.674 37.7822 9.02234C37.9803 9.13829 38.1975 9.19308 38.4118 9.19308C38.8428 9.19308 39.2621 8.97048 39.495 8.57175C39.8433 7.97391 39.6418 7.20727 39.0444 6.85845Z" fill="#68326F"/>
<path d="M19.7663 7.6252C20.0971 7.6252 20.4278 7.49506 20.6744 7.23625C21.1514 6.73576 21.1318 5.94271 20.6308 5.4657C20.1303 4.9887 19.3373 5.00778 18.8603 5.50876L18.8588 5.51023C18.3818 6.0112 18.4018 6.80328 18.9028 7.28028C19.145 7.51071 19.4557 7.6252 19.7663 7.6252Z" fill="#68326F"/>
</g>
<defs>
<clipPath id="clip0_0_1096">
<rect width="64" height="64.1252" fill="white"/>
</clipPath>
</defs>
</svg>
