<svg width="64" height="64" viewBox="0 0 64 64" fill="none" xmlns="http://www.w3.org/2000/svg">
<path fill-rule="evenodd" clip-rule="evenodd" d="M51.5636 45.6249H12.4723C10.5705 45.6249 9.03735 44.0843 9.03735 42.1732V17.0101C9.03735 15.099 10.5705 13.5584 12.4723 13.5584H51.5636C53.4654 13.5584 54.9985 15.099 54.9985 17.0101V42.1732C54.9985 44.0843 53.4266 45.6249 51.5636 45.6249ZM12.4723 14.8715C11.2756 14.8715 10.3441 15.8466 10.3441 17.0101V42.1732C10.3441 43.3368 11.3144 44.3118 12.4723 44.3118H51.5636C52.7603 44.3118 53.6918 43.3758 53.6918 42.1732V17.0101C53.6918 15.8076 52.7215 14.8715 51.5636 14.8715H12.4723Z" fill="#ffffff"/>
<path fill-rule="evenodd" clip-rule="evenodd" d="M38.5935 50.9944C38.3347 50.9944 38.0695 50.8449 37.9983 50.5849L35.8636 45.2155C35.7148 44.8775 35.9024 44.5005 36.2388 44.351C36.5752 44.2015 36.9504 44.39 37.0992 44.728L39.2274 50.0973C39.3762 50.4354 39.1951 50.8059 38.8587 50.9554C38.7811 50.9554 38.6711 50.9944 38.5935 50.9944ZM25.4423 50.9944C25.3647 50.9944 25.2935 50.9944 25.2159 50.9554C24.8795 50.8059 24.7307 50.4354 24.8407 50.0973L26.9754 44.728C27.1242 44.39 27.4929 44.234 27.8293 44.351C28.1657 44.5005 28.3209 44.8775 28.2045 45.2155L26.0762 50.5849C25.9275 50.8059 25.6622 50.9944 25.4423 50.9944Z" fill="#ffffff"/>
<path fill-rule="evenodd" clip-rule="evenodd" d="M54.3272 40.4832H9.67276C9.29757 40.4832 9 40.1842 9 39.8071C9 39.4301 9.29757 39.1311 9.67276 39.1311H54.3272C54.7024 39.1311 55 39.4301 55 39.8071C55 40.1842 54.7024 40.4832 54.3272 40.4832Z" fill="#ffffff"/>
<path fill-rule="evenodd" clip-rule="evenodd" d="M43.4156 50.9944H20.6259C20.2507 50.9944 19.9531 50.6953 19.9531 50.3183C19.9531 49.9413 20.2507 49.6423 20.6259 49.6423H43.4156C43.7908 49.6423 44.0884 49.9413 44.0884 50.3183C44.0884 50.6953 43.7908 50.9944 43.4156 50.9944Z" fill="#ffffff"/>
<path fill-rule="evenodd" clip-rule="evenodd" d="M20.626 37.4799C17.0358 37.4799 13.672 35.1853 12.5141 31.5451C11.0586 27.0728 13.4844 22.23 17.9673 20.7674C18.1225 20.7284 18.3037 20.7284 18.4589 20.8064C18.6077 20.8779 18.7177 21.0274 18.7888 21.1834L21.1435 28.4639L27.6835 32.3706C27.9875 32.5591 28.0975 32.9686 27.9099 33.2742C26.862 35.0748 25.1801 36.4269 23.2006 37.0639C22.3402 37.3304 21.4799 37.4799 20.626 37.4799ZM17.7474 22.269C14.3835 23.7316 12.5917 27.5668 13.7496 31.168C14.9787 34.9253 19.0152 37.0249 22.7931 35.7898C24.2874 35.3023 25.5164 34.3987 26.4156 33.1572L20.2508 29.4779C20.102 29.4064 20.0244 29.2569 19.9532 29.1009L17.7474 22.269Z" fill="#ffffff"/>
<path fill-rule="evenodd" clip-rule="evenodd" d="M30.3341 32.7477C30.2241 32.7477 30.1141 32.7087 30.0042 32.6697L23.2766 28.6525C23.089 28.542 22.9725 28.3535 22.9725 28.1649C22.9402 27.9764 23.0113 27.7489 23.1601 27.5994L28.8074 22.1196C29.0662 21.8596 29.4802 21.8596 29.7389 22.1196C30.6705 23.0946 31.3432 24.1867 31.7184 25.4218C32.4688 27.7489 32.2036 30.3036 30.9357 32.4097C30.7869 32.6307 30.5605 32.7477 30.3341 32.7477ZM24.6544 27.9374L30.0753 31.1681C30.8581 29.517 31.0068 27.5994 30.4505 25.8378C30.1853 25.0123 29.7778 24.2192 29.215 23.5432L24.6544 27.9374Z" fill="#ffffff"/>
<path fill-rule="evenodd" clip-rule="evenodd" d="M22.1187 27.6381C22.0799 27.6381 22.0022 27.6381 21.9699 27.5991C21.7435 27.5666 21.5559 27.3781 21.5171 27.1506L19.0913 19.6751C18.9748 19.3371 19.1624 18.9666 19.4988 18.8496C22.6039 17.8355 25.9677 18.6676 28.2447 21.0272C28.3547 21.1442 28.4323 21.3328 28.4323 21.4823C28.4323 21.6708 28.3547 21.8203 28.2447 21.9308L22.565 27.4496C22.4551 27.5666 22.2675 27.6381 22.1187 27.6381ZM20.5468 19.9417L22.4163 25.7595L26.8215 21.4823C25.0685 19.9807 22.7526 19.4151 20.5468 19.9417Z" fill="#ffffff"/>
<path fill-rule="evenodd" clip-rule="evenodd" d="M52.012 37.1031H33.7375C33.3623 37.1031 33.0647 36.804 33.0647 36.427C33.0647 36.05 33.3623 35.751 33.7375 35.751H52.012C52.3872 35.751 52.6847 36.05 52.6847 36.427C52.6847 36.804 52.3483 37.1031 52.012 37.1031Z" fill="#ffffff"/>
<path fill-rule="evenodd" clip-rule="evenodd" d="M39.0094 37.1029C38.6342 37.1029 38.3366 36.8039 38.3366 36.4269V30.8691H35.7556V36.4269C35.7556 36.8039 35.458 37.1029 35.0828 37.1029C34.7076 37.1029 34.41 36.8039 34.41 36.4269V30.232C34.41 29.855 34.7076 29.556 35.0828 29.556H38.9706C39.3458 29.556 39.6433 29.855 39.6433 30.232V36.4659C39.6821 36.8039 39.3781 37.1029 39.0094 37.1029Z" fill="#ffffff"/>
<path fill-rule="evenodd" clip-rule="evenodd" d="M44.8376 37.1031C44.4624 37.1031 44.1649 36.8041 44.1649 36.427V29.0296H41.5838V36.427C41.5838 36.8041 41.2862 37.1031 40.911 37.1031C40.5423 37.1031 40.2383 36.8041 40.2383 36.427V28.3925C40.2383 28.0155 40.5423 27.7165 40.911 27.7165H44.7988C45.174 27.7165 45.4716 28.0155 45.4716 28.3925V36.466C45.4716 36.8041 45.174 37.1031 44.8376 37.1031Z" fill="#ffffff"/>
<path fill-rule="evenodd" clip-rule="evenodd" d="M50.5873 37.1029C50.2185 37.1029 49.9145 36.8039 49.9145 36.4268V25.8377H47.3787V36.4268C47.3787 36.8039 47.0747 37.1029 46.706 37.1029C46.3308 37.1029 46.0332 36.8039 46.0332 36.4268V25.2006C46.0332 24.8236 46.3308 24.5246 46.706 24.5246H50.5549C50.9237 24.5246 51.2277 24.8236 51.2277 25.2006V36.4268C51.26 36.8039 50.9625 37.1029 50.5873 37.1029Z" fill="#ffffff"/>
<path fill-rule="evenodd" clip-rule="evenodd" d="M50.5578 18.7783H35.1942C34.8255 18.7783 34.5215 18.4793 34.5215 18.1023C34.5215 17.7252 34.8255 17.4262 35.1942 17.4262H50.5578C50.9265 17.4262 51.2305 17.7252 51.2305 18.1023C51.2305 18.4793 50.9265 18.7783 50.5578 18.7783Z" fill="#ffffff"/>
<path fill-rule="evenodd" clip-rule="evenodd" d="M50.5578 21.7036H35.1942C34.8255 21.7036 34.5215 21.4046 34.5215 21.0275C34.5215 20.657 34.8255 20.3515 35.1942 20.3515H50.5578C50.9265 20.3515 51.2305 20.657 51.2305 21.0275C51.2305 21.4046 50.9265 21.7036 50.5578 21.7036Z" fill="#ffffff"/>
</svg>
