<svg width="64" height="64" viewBox="0 0 64 64" fill="none" xmlns="http://www.w3.org/2000/svg">
<path fill-rule="evenodd" clip-rule="evenodd" d="M25.5245 52.6001C22.7142 52.6001 20.4277 50.314 20.4277 47.5039C20.4277 47.0999 20.755 46.7724 21.1593 46.7724C21.5636 46.7724 21.8908 47.0996 21.8908 47.5039C21.8908 49.5073 23.5209 51.1374 25.5248 51.1374C27.6105 51.1374 31.0689 49.3773 31.0689 47.5039L31.0692 15.8653C31.0692 13.8619 29.4391 12.2318 27.4352 12.2318C25.4315 12.2318 23.8015 13.8619 23.8015 15.8653C23.8015 16.2696 23.4742 16.5968 23.0699 16.5968C22.6656 16.5968 22.3384 16.2696 22.3384 15.8653C22.3384 13.0555 24.6246 10.769 27.4346 10.769C30.245 10.769 32.5314 13.0552 32.5314 15.8653V47.5045C32.5314 50.4122 28.2808 52.6004 25.5248 52.6004L25.5245 52.6001Z" fill="#ffffff"/>
<path fill-rule="evenodd" clip-rule="evenodd" d="M21.1594 48.2351C21.1446 48.2351 21.1298 48.2346 21.1147 48.234C18.2501 48.0618 16.2467 47.0963 15.1605 45.3631C13.7123 43.053 14.3736 40.0861 14.7771 38.7895C13.1525 37.923 12.1291 36.7368 11.7322 35.2567C11.0528 32.7261 12.4602 30.1539 13.0153 29.274C12.3935 27.1628 12.4958 25.4241 13.3195 24.1015C14.0398 22.9454 15.1339 22.4177 15.8265 22.1881C15.7876 19.4811 16.5032 17.4948 17.9569 16.2789C20.1366 14.4548 23.1104 15.1238 23.2366 15.1532C23.5674 15.2305 23.8011 15.5259 23.8011 15.8658C23.8011 17.2825 24.1774 18.3171 24.9202 18.9408C26.0834 19.9192 27.8515 19.6438 27.869 19.6402C28.2673 19.5717 28.6458 19.8372 28.7155 20.2354C28.7849 20.6337 28.5185 21.0122 28.1203 21.0819C28.0213 21.0986 25.6767 21.4886 23.9786 20.061C23.0175 19.2529 22.4746 18.0576 22.3611 16.5013C21.5596 16.4286 20.0305 16.4456 18.8881 17.4078C17.7067 18.4021 17.1754 20.1861 17.3085 22.7106C17.3282 23.0888 17.0561 23.4196 16.6815 23.4734C16.6719 23.475 15.2842 23.7024 14.5533 24.8906C13.9328 25.8994 13.9191 27.3375 14.5132 29.1645C14.5854 29.3867 14.5472 29.63 14.4104 29.8193C14.392 29.8448 12.506 32.5095 13.1481 34.8848C13.4742 36.0922 14.4276 37.0568 15.9817 37.7519C16.3427 37.9134 16.51 38.3326 16.3597 38.6982C16.3457 38.7325 14.9342 42.2543 16.405 44.5926C17.2267 45.8993 18.8415 46.6333 21.205 46.7751C21.6079 46.7992 21.9154 47.1462 21.891 47.5491C21.866 47.9367 21.5434 48.2357 21.16 48.2357L21.1594 48.2351Z" fill="#ffffff"/>
<path fill-rule="evenodd" clip-rule="evenodd" d="M21.1757 48.6221C20.7972 48.6221 20.4769 48.3303 20.447 47.9466C20.2539 45.4256 20.8211 43.4719 22.1333 42.1402C24.0212 40.224 26.7295 40.3678 26.8452 40.3749C27.2482 40.3996 27.5548 40.7471 27.5301 41.1498C27.5052 41.5527 27.1588 41.8569 26.7569 41.8352C26.7155 41.8316 24.5714 41.74 23.166 43.1765C22.1703 44.1935 21.7463 45.7613 21.9053 47.8352C21.9361 48.2379 21.6349 48.5889 21.2317 48.6202C21.2128 48.6213 21.1941 48.6221 21.1752 48.6221H21.1757Z" fill="#ffffff"/>
<path fill-rule="evenodd" clip-rule="evenodd" d="M23.6647 34.6725C23.2739 34.6725 22.95 34.3637 22.9346 33.9695C22.9324 33.9138 22.7514 30.2949 20.5063 29.0305C19.0211 28.1936 16.8885 28.5302 14.1684 30.0297C13.8146 30.2244 13.37 30.0958 13.1749 29.742C12.9799 29.3881 13.1088 28.9435 13.4627 28.7485C16.6603 26.9859 19.274 26.6527 21.231 27.7594C24.1922 29.4334 24.39 33.7304 24.3968 33.9128C24.4124 34.3165 24.0973 34.6561 23.6938 34.6717C23.6839 34.6722 23.6743 34.6722 23.6647 34.6722V34.6725Z" fill="#ffffff"/>
<path fill-rule="evenodd" clip-rule="evenodd" d="M46.2762 32.61H31.7999C31.3956 32.61 31.0684 32.2828 31.0684 31.8785C31.0684 31.4742 31.3956 31.147 31.7999 31.147H46.2762C46.6804 31.147 47.0077 31.4742 47.0077 31.8785C47.0077 32.2828 46.6802 32.61 46.2762 32.61Z" fill="#ffffff"/>
<path fill-rule="evenodd" clip-rule="evenodd" d="M48.9959 35.473C47.0907 35.473 45.541 33.9233 45.541 32.0184C45.541 30.1132 47.0907 28.5635 48.9959 28.5635C50.9011 28.5635 52.4508 30.1132 52.4508 32.0184C52.4508 33.9236 50.9011 35.473 48.9959 35.473ZM48.9959 30.026C47.8971 30.026 47.0041 30.9196 47.0041 32.0181C47.0041 33.1169 47.8977 34.01 48.9959 34.01C50.0942 34.01 50.9878 33.1164 50.9878 32.0181C50.9881 30.9201 50.0944 30.026 48.9959 30.026Z" fill="#ffffff"/>
<path fill-rule="evenodd" clip-rule="evenodd" d="M38.1417 27.5638H31.7999C31.3956 27.5638 31.0684 27.2366 31.0684 26.8323C31.0684 26.428 31.3956 26.1008 31.7999 26.1008H37.8388L42.251 21.6886C42.5365 21.4031 42.9995 21.4028 43.2851 21.6886C43.5706 21.9741 43.5706 22.4371 43.2851 22.7227L38.6584 27.3488C38.5213 27.4865 38.3356 27.5633 38.1417 27.5633V27.5638Z" fill="#ffffff"/>
<path fill-rule="evenodd" clip-rule="evenodd" d="M42.768 42.5621C42.581 42.5621 42.3939 42.4905 42.2513 42.3476L37.8388 37.9359H31.7999C31.3956 37.9359 31.0684 37.6087 31.0684 37.2044C31.0684 36.8001 31.3956 36.4729 31.7999 36.4729H38.1417C38.3356 36.4729 38.5215 36.5497 38.6584 36.6874L43.2851 41.3138C43.5706 41.599 43.5706 42.0623 43.2851 42.3478C43.1422 42.4902 42.9551 42.5621 42.768 42.5621Z" fill="#ffffff"/>
<path fill-rule="evenodd" clip-rule="evenodd" d="M44.7124 47.1928C42.8073 47.1928 41.2578 45.6428 41.2578 43.7376C41.2578 41.8324 42.8075 40.2827 44.7124 40.2827C46.6176 40.2827 48.1674 41.8324 48.1674 43.7376C48.1674 45.6428 46.6176 47.1928 44.7124 47.1928ZM44.7124 41.7455C43.6137 41.7455 42.7206 42.6391 42.7206 43.7373C42.7206 44.8356 43.6142 45.7298 44.7124 45.7298C45.8107 45.7298 46.7046 44.8359 46.7046 43.7373C46.7046 42.6391 45.8112 41.7455 44.7124 41.7455Z" fill="#ffffff"/>
<path fill-rule="evenodd" clip-rule="evenodd" d="M44.676 23.7172C42.7708 23.7172 41.2208 22.167 41.2208 20.262C41.2208 18.3568 42.7708 16.8071 44.676 16.8071C46.5812 16.8071 48.1306 18.3568 48.1306 20.262C48.1306 22.1672 46.5806 23.7172 44.676 23.7172ZM44.676 18.2702C43.5772 18.2702 42.6836 19.1638 42.6836 20.262C42.6836 21.3608 43.5778 22.2545 44.676 22.2545C45.7742 22.2545 46.6679 21.3608 46.6679 20.262C46.6679 19.1638 45.774 18.2702 44.676 18.2702Z" fill="#ffffff"/>
<path fill-rule="evenodd" clip-rule="evenodd" d="M36.8712 50.3421C36.6205 50.3421 36.3767 50.2134 36.2403 49.9822L31.1677 41.3713C30.9628 41.0232 31.0785 40.5748 31.4266 40.3696C31.7747 40.1636 32.2229 40.2805 32.428 40.6285L37.5007 49.2395C37.7056 49.5875 37.5898 50.036 37.2418 50.2409C37.1252 50.3094 36.9974 50.3418 36.8712 50.3418V50.3421Z" fill="#ffffff"/>
<path fill-rule="evenodd" clip-rule="evenodd" d="M38.2674 55.405C36.3622 55.405 34.8125 53.8552 34.8125 51.9501C34.8125 50.0449 36.3622 48.4949 38.2674 48.4949C40.1726 48.4949 41.7223 50.0449 41.7223 51.9501C41.7223 53.8552 40.1726 55.405 38.2674 55.405ZM38.2674 49.9579C37.1686 49.9579 36.2755 50.8521 36.2755 51.9503C36.2755 53.0486 37.1692 53.9422 38.2674 53.9422C39.3657 53.9422 40.2596 53.0486 40.2596 51.9503C40.2596 50.8521 39.3662 49.9579 38.2674 49.9579Z" fill="#ffffff"/>
<path fill-rule="evenodd" clip-rule="evenodd" d="M31.7972 24.7871C31.673 24.7871 31.5474 24.7556 31.4322 24.6887C31.0824 24.4868 30.9626 24.0394 31.1645 23.6895L36.7209 14.0656C36.9225 13.7159 37.3694 13.5955 37.7202 13.7979C38.0699 13.9998 38.1897 14.4471 37.9879 14.7971L32.4314 24.4215C32.2959 24.6563 32.0501 24.7871 31.797 24.7871H31.7972Z" fill="#ffffff"/>
<path fill-rule="evenodd" clip-rule="evenodd" d="M38.6773 15.5048C36.7721 15.5048 35.2227 13.9548 35.2227 12.0496C35.2227 10.1444 36.7724 8.59497 38.6773 8.59497C40.5825 8.59497 42.1322 10.1447 42.1322 12.0496C42.1322 13.9548 40.5825 15.5048 38.6773 15.5048ZM38.6773 10.0577C37.5785 10.0577 36.6854 10.9514 36.6854 12.0496C36.6854 13.1484 37.579 14.042 38.6773 14.042C39.7755 14.042 40.6694 13.1484 40.6694 12.0496C40.6697 10.9514 39.7761 10.0577 38.6773 10.0577Z" fill="#ffffff"/>
</svg>
