<svg width="60" height="60" viewBox="0 0 60 60" fill="none" xmlns="http://www.w3.org/2000/svg">
<rect x="0.5" y="0.5" width="59" height="59" fill="#F4EDF5" stroke="#DEC6E0"/>
<path d="M25 29L29 20C29.7956 20 30.5587 20.3161 31.1213 20.8787C31.6839 21.4413 32 22.2044 32 23V27H37.66C37.9499 26.9967 38.2371 27.0565 38.5016 27.1752C38.7661 27.2939 39.0016 27.4687 39.1919 27.6875C39.3821 27.9063 39.5225 28.1638 39.6033 28.4423C39.6842 28.7207 39.7035 29.0134 39.66 29.3L38.28 38.3C38.2077 38.7769 37.9654 39.2116 37.5979 39.524C37.2304 39.8364 36.7623 40.0055 36.28 40H25M25 29V40M25 29H22C21.4696 29 20.9609 29.2107 20.5858 29.5858C20.2107 29.9609 20 30.4696 20 31V38C20 38.5304 20.2107 39.0391 20.5858 39.4142C20.9609 39.7893 21.4696 40 22 40H25" stroke="#77467D" stroke-linecap="round" stroke-linejoin="round"/>
</svg>
