<svg width="64" height="64" viewBox="0 0 64 64" fill="none" xmlns="http://www.w3.org/2000/svg">
<path d="M11.6903 42.4619L11.6906 42.4614L28.8844 15.2433L28.8845 15.2432L31.8259 10.5839C31.826 10.5838 31.8261 10.5837 31.8262 10.5836C31.8382 10.5647 31.8589 10.5437 31.8905 10.5271C31.9225 10.5103 31.9617 10.5 32.0039 10.5C32.0461 10.5 32.0853 10.5103 32.1172 10.5271C32.149 10.5438 32.1698 10.5649 32.1818 10.5839L53.4842 44.3166L53.4844 44.317C53.4961 44.3355 53.5 44.3524 53.5 44.3667C53.5 44.3809 53.4961 44.3979 53.4845 44.4163C53.4726 44.4352 53.4519 44.4562 53.4202 44.4729C53.3884 44.4897 53.3493 44.5 53.3072 44.5H10.6934H10.693C10.6508 44.5 10.6116 44.4898 10.5798 44.473C10.5481 44.4562 10.5274 44.4352 10.5155 44.4163C10.5039 44.3979 10.5 44.3809 10.5 44.3666C10.5 44.3523 10.504 44.3353 10.5157 44.3168L10.516 44.3163L11.6903 42.4619Z" stroke="white"/>
<path d="M31.1232 32.7806L31.121 32.7465L30.5038 22.9352L30.5038 22.9352L30.5033 22.9292C30.4905 22.7584 30.5146 22.5864 30.5749 22.4224C30.6353 22.2583 30.7315 22.104 30.8602 21.9696C30.989 21.835 31.1478 21.7231 31.3285 21.6421C31.5093 21.561 31.7073 21.5132 31.9108 21.5024C32.1143 21.4915 32.3176 21.518 32.5085 21.5797C32.6993 21.6414 32.8725 21.7365 33.0189 21.8578C33.1651 21.979 33.2811 22.1235 33.3624 22.2815C33.4436 22.4393 33.4891 22.6085 33.4977 22.7795L33.4977 22.7795L33.4979 22.783C33.5007 22.8311 33.5007 22.8793 33.4979 22.9274L33.4979 22.9278L32.9377 32.7422C32.9377 32.7422 32.9377 32.7422 32.9377 32.7422C32.9268 32.9327 32.8367 33.1216 32.6714 33.2663C32.5048 33.4122 32.2763 33.4994 32.0314 33.5C31.7866 33.5006 31.5574 33.4146 31.3898 33.2695C31.2334 33.134 31.1434 32.9593 31.1232 32.7806Z" fill="white" stroke="white"/>
</svg>
