<svg width="15" height="25" viewBox="0 0 15 25" fill="none" xmlns="http://www.w3.org/2000/svg">
<path d="M4.44727 16.1851V14.9927C4.44727 14.2622 4.54932 13.6177 4.75342 13.0591C4.95752 12.4897 5.28516 11.9526 5.73633 11.4478C6.1875 10.9321 6.78369 10.4058 7.5249 9.86865C8.19092 9.396 8.72266 8.97168 9.12012 8.5957C9.52832 8.21973 9.82373 7.84912 10.0063 7.48389C10.1997 7.10791 10.2964 6.68359 10.2964 6.21094C10.2964 5.5127 10.0386 4.98096 9.52295 4.61572C9.00732 4.25049 8.2876 4.06787 7.36377 4.06787C6.43994 4.06787 5.52148 4.21289 4.6084 4.50293C3.70605 4.79297 2.7876 5.17432 1.85303 5.64697L0.0966797 2.11816C1.1709 1.5166 2.33643 1.0332 3.59326 0.667969C4.8501 0.291992 6.2251 0.104004 7.71826 0.104004C10.0171 0.104004 11.7949 0.657227 13.0518 1.76367C14.3193 2.85938 14.9531 4.25586 14.9531 5.95312C14.9531 6.85547 14.8081 7.63965 14.5181 8.30566C14.2388 8.96094 13.8091 9.57324 13.229 10.1426C12.6597 10.7012 11.9453 11.292 11.0859 11.915C10.4414 12.3877 9.94727 12.7852 9.60352 13.1074C9.25977 13.4297 9.02344 13.752 8.89453 14.0742C8.77637 14.3857 8.71729 14.7671 8.71729 15.2183V16.1851H4.44727ZM3.93164 21.6958C3.93164 20.686 4.20557 19.9771 4.75342 19.5688C5.31201 19.1606 5.9834 18.9565 6.76758 18.9565C7.53027 18.9565 8.18555 19.1606 8.7334 19.5688C9.29199 19.9771 9.57129 20.686 9.57129 21.6958C9.57129 22.6626 9.29199 23.3608 8.7334 23.7905C8.18555 24.2202 7.53027 24.4351 6.76758 24.4351C5.9834 24.4351 5.31201 24.2202 4.75342 23.7905C4.20557 23.3608 3.93164 22.6626 3.93164 21.6958Z" fill="#77467D"/>
</svg>
