<svg width="16" height="16" viewBox="0 0 16 16" fill="none" xmlns="http://www.w3.org/2000/svg">
<g clip-path="url(#clip0_1_459)">
<path d="M8.00065 14.6667C11.6825 14.6667 14.6673 11.6819 14.6673 8.00004C14.6673 4.31814 11.6825 1.33337 8.00065 1.33337C4.31875 1.33337 1.33398 4.31814 1.33398 8.00004C1.33398 11.6819 4.31875 14.6667 8.00065 14.6667Z" stroke="#77467D" stroke-linecap="round" stroke-linejoin="round"/>
<path d="M8 12C10.2091 12 12 10.2091 12 8C12 5.79086 10.2091 4 8 4C5.79086 4 4 5.79086 4 8C4 10.2091 5.79086 12 8 12Z" stroke="#77467D" stroke-linecap="round" stroke-linejoin="round"/>
<path d="M7.99935 9.33329C8.73573 9.33329 9.33268 8.73634 9.33268 7.99996C9.33268 7.26358 8.73573 6.66663 7.99935 6.66663C7.26297 6.66663 6.66602 7.26358 6.66602 7.99996C6.66602 8.73634 7.26297 9.33329 7.99935 9.33329Z" stroke="#77467D" stroke-linecap="round" stroke-linejoin="round"/>
</g>
<defs>
<clipPath id="clip0_1_459">
<rect width="16" height="16" fill="white"/>
</clipPath>
</defs>
</svg>
